%TF.GenerationSoftware,KiCad,Pcbnew,7.0.8*%
%TF.CreationDate,2024-03-11T02:56:06-07:00*%
%TF.ProjectId,oc_v1,6f635f76-312e-46b6-9963-61645f706362,1*%
%TF.SameCoordinates,Original*%
%TF.FileFunction,Drillmap*%
%TF.FilePolarity,Positive*%
%FSLAX45Y45*%
G04 Gerber Fmt 4.5, Leading zero omitted, Abs format (unit mm)*
G04 Created by KiCad (PCBNEW 7.0.8) date 2024-03-11 02:56:06*
%MOMM*%
%LPD*%
G01*
G04 APERTURE LIST*
%ADD10C,0.100000*%
%ADD11C,0.200000*%
%ADD12C,0.050000*%
%ADD13C,0.080000*%
%ADD14C,0.095000*%
%ADD15C,0.101600*%
%ADD16C,0.185000*%
G04 APERTURE END LIST*
D10*
X11303000Y-4699000D02*
X16637000Y-4699000D01*
X16637000Y-11430000D01*
X11303000Y-11430000D01*
X11303000Y-4699000D01*
D11*
D12*
X11405000Y-4801000D02*
X11455000Y-4851000D01*
X11455000Y-4801000D02*
X11405000Y-4851000D01*
X11405000Y-6198000D02*
X11455000Y-6248000D01*
X11455000Y-6198000D02*
X11405000Y-6248000D01*
X11532000Y-8103000D02*
X11582000Y-8153000D01*
X11582000Y-8103000D02*
X11532000Y-8153000D01*
X11532000Y-9500000D02*
X11582000Y-9550000D01*
X11582000Y-9500000D02*
X11532000Y-9550000D01*
X11913000Y-6452000D02*
X11963000Y-6502000D01*
X11963000Y-6452000D02*
X11913000Y-6502000D01*
X11913000Y-11278000D02*
X11963000Y-11328000D01*
X11963000Y-11278000D02*
X11913000Y-11328000D01*
X12675000Y-4801000D02*
X12725000Y-4851000D01*
X12725000Y-4801000D02*
X12675000Y-4851000D01*
X12675000Y-5944000D02*
X12725000Y-5994000D01*
X12725000Y-5944000D02*
X12675000Y-5994000D01*
X12675000Y-7976000D02*
X12725000Y-8026000D01*
X12725000Y-7976000D02*
X12675000Y-8026000D01*
X12675000Y-8865000D02*
X12725000Y-8915000D01*
X12725000Y-8865000D02*
X12675000Y-8915000D01*
X12675000Y-10325500D02*
X12725000Y-10375500D01*
X12725000Y-10325500D02*
X12675000Y-10375500D01*
X12675000Y-11278000D02*
X12725000Y-11328000D01*
X12725000Y-11278000D02*
X12675000Y-11328000D01*
X13373500Y-8738000D02*
X13423500Y-8788000D01*
X13423500Y-8738000D02*
X13373500Y-8788000D01*
X13437000Y-4801000D02*
X13487000Y-4851000D01*
X13487000Y-4801000D02*
X13437000Y-4851000D01*
X13437000Y-5944000D02*
X13487000Y-5994000D01*
X13487000Y-5944000D02*
X13437000Y-5994000D01*
X13437000Y-11278000D02*
X13487000Y-11328000D01*
X13487000Y-11278000D02*
X13437000Y-11328000D01*
X14072000Y-6198000D02*
X14122000Y-6248000D01*
X14122000Y-6198000D02*
X14072000Y-6248000D01*
X14199000Y-11278000D02*
X14249000Y-11328000D01*
X14249000Y-11278000D02*
X14199000Y-11328000D01*
X14961000Y-4801000D02*
X15011000Y-4851000D01*
X15011000Y-4801000D02*
X14961000Y-4851000D01*
X14961000Y-6960000D02*
X15011000Y-7010000D01*
X15011000Y-6960000D02*
X14961000Y-7010000D01*
X14961000Y-9246000D02*
X15011000Y-9296000D01*
X15011000Y-9246000D02*
X14961000Y-9296000D01*
X14961000Y-11278000D02*
X15011000Y-11328000D01*
X15011000Y-11278000D02*
X14961000Y-11328000D01*
X15723000Y-11278000D02*
X15773000Y-11328000D01*
X15773000Y-11278000D02*
X15723000Y-11328000D01*
X16485000Y-4801000D02*
X16535000Y-4851000D01*
X16535000Y-4801000D02*
X16485000Y-4851000D01*
X16485000Y-6452000D02*
X16535000Y-6502000D01*
X16535000Y-6452000D02*
X16485000Y-6502000D01*
X16485000Y-7087000D02*
X16535000Y-7137000D01*
X16535000Y-7087000D02*
X16485000Y-7137000D01*
X16485000Y-8738000D02*
X16535000Y-8788000D01*
X16535000Y-8738000D02*
X16485000Y-8788000D01*
X16485000Y-9500000D02*
X16535000Y-9550000D01*
X16535000Y-9500000D02*
X16485000Y-9550000D01*
X16485000Y-10262000D02*
X16535000Y-10312000D01*
X16535000Y-10262000D02*
X16485000Y-10312000D01*
X16485000Y-11278000D02*
X16535000Y-11328000D01*
X16535000Y-11278000D02*
X16485000Y-11328000D01*
D13*
X12740000Y-9556489D02*
G75*
G03*
X12740000Y-9556489I-40000J0D01*
G01*
X12740000Y-9806489D02*
G75*
G03*
X12740000Y-9806489I-40000J0D01*
G01*
X15088500Y-9524000D02*
G75*
G03*
X15088500Y-9524000I-40000J0D01*
G01*
X15088500Y-9778000D02*
G75*
G03*
X15088500Y-9778000I-40000J0D01*
G01*
X15088500Y-10032000D02*
G75*
G03*
X15088500Y-10032000I-40000J0D01*
G01*
X15088500Y-10286000D02*
G75*
G03*
X15088500Y-10286000I-40000J0D01*
G01*
X15850500Y-9524000D02*
G75*
G03*
X15850500Y-9524000I-40000J0D01*
G01*
X15850500Y-9778000D02*
G75*
G03*
X15850500Y-9778000I-40000J0D01*
G01*
X15850500Y-10032000D02*
G75*
G03*
X15850500Y-10032000I-40000J0D01*
G01*
X15850500Y-10286000D02*
G75*
G03*
X15850500Y-10286000I-40000J0D01*
G01*
D14*
X11684000Y-5038500D02*
X11684000Y-5133500D01*
X11636500Y-5086000D02*
X11731500Y-5086000D01*
X11684000Y-5288500D02*
X11684000Y-5383500D01*
X11636500Y-5336000D02*
X11731500Y-5336000D01*
X11684000Y-5538500D02*
X11684000Y-5633500D01*
X11636500Y-5586000D02*
X11731500Y-5586000D01*
X11684000Y-5788500D02*
X11684000Y-5883500D01*
X11636500Y-5836000D02*
X11731500Y-5836000D01*
X11684000Y-6439500D02*
X11684000Y-6534500D01*
X11636500Y-6487000D02*
X11731500Y-6487000D01*
X11684000Y-6689500D02*
X11684000Y-6784500D01*
X11636500Y-6737000D02*
X11731500Y-6737000D01*
X11684000Y-6939500D02*
X11684000Y-7034500D01*
X11636500Y-6987000D02*
X11731500Y-6987000D01*
X11684000Y-7189500D02*
X11684000Y-7284500D01*
X11636500Y-7237000D02*
X11731500Y-7237000D01*
X11684000Y-7439500D02*
X11684000Y-7534500D01*
X11636500Y-7487000D02*
X11731500Y-7487000D01*
X11684000Y-7689500D02*
X11684000Y-7784500D01*
X11636500Y-7737000D02*
X11731500Y-7737000D01*
X11684000Y-8340500D02*
X11684000Y-8435500D01*
X11636500Y-8388000D02*
X11731500Y-8388000D01*
X11684000Y-8590500D02*
X11684000Y-8685500D01*
X11636500Y-8638000D02*
X11731500Y-8638000D01*
X11684000Y-8840500D02*
X11684000Y-8935500D01*
X11636500Y-8888000D02*
X11731500Y-8888000D01*
X11684000Y-9090500D02*
X11684000Y-9185500D01*
X11636500Y-9138000D02*
X11731500Y-9138000D01*
X11684000Y-9741500D02*
X11684000Y-9836500D01*
X11636500Y-9789000D02*
X11731500Y-9789000D01*
X11684000Y-9991500D02*
X11684000Y-10086500D01*
X11636500Y-10039000D02*
X11731500Y-10039000D01*
X11684000Y-10241500D02*
X11684000Y-10336500D01*
X11636500Y-10289000D02*
X11731500Y-10289000D01*
X11684000Y-10491500D02*
X11684000Y-10586500D01*
X11636500Y-10539000D02*
X11731500Y-10539000D01*
X11684000Y-10741500D02*
X11684000Y-10836500D01*
X11636500Y-10789000D02*
X11731500Y-10789000D01*
X11684000Y-10991500D02*
X11684000Y-11086500D01*
X11636500Y-11039000D02*
X11731500Y-11039000D01*
X16256000Y-5356000D02*
X16256000Y-5451000D01*
X16208500Y-5403500D02*
X16303500Y-5403500D01*
X16256000Y-5606000D02*
X16256000Y-5701000D01*
X16208500Y-5653500D02*
X16303500Y-5653500D01*
X16256000Y-5856000D02*
X16256000Y-5951000D01*
X16208500Y-5903500D02*
X16303500Y-5903500D01*
X16256000Y-6106000D02*
X16256000Y-6201000D01*
X16208500Y-6153500D02*
X16303500Y-6153500D01*
X16256000Y-7642000D02*
X16256000Y-7737000D01*
X16208500Y-7689500D02*
X16303500Y-7689500D01*
X16256000Y-7892000D02*
X16256000Y-7987000D01*
X16208500Y-7939500D02*
X16303500Y-7939500D01*
X16256000Y-8142000D02*
X16256000Y-8237000D01*
X16208500Y-8189500D02*
X16303500Y-8189500D01*
X16256000Y-8392000D02*
X16256000Y-8487000D01*
X16208500Y-8439500D02*
X16303500Y-8439500D01*
D10*
X14386356Y-4988356D02*
X14386356Y-4917644D01*
X14315644Y-4917644D01*
X14315644Y-4988356D01*
X14386356Y-4988356D01*
X14386356Y-5242356D02*
X14386356Y-5171644D01*
X14315644Y-5171644D01*
X14315644Y-5242356D01*
X14386356Y-5242356D01*
X14386356Y-5496356D02*
X14386356Y-5425644D01*
X14315644Y-5425644D01*
X14315644Y-5496356D01*
X14386356Y-5496356D01*
X14386356Y-5750356D02*
X14386356Y-5679644D01*
X14315644Y-5679644D01*
X14315644Y-5750356D01*
X14386356Y-5750356D01*
X14386356Y-6004356D02*
X14386356Y-5933644D01*
X14315644Y-5933644D01*
X14315644Y-6004356D01*
X14386356Y-6004356D01*
X14386356Y-6258356D02*
X14386356Y-6187644D01*
X14315644Y-6187644D01*
X14315644Y-6258356D01*
X14386356Y-6258356D01*
X14386356Y-6512356D02*
X14386356Y-6441644D01*
X14315644Y-6441644D01*
X14315644Y-6512356D01*
X14386356Y-6512356D01*
X14386356Y-6766356D02*
X14386356Y-6695644D01*
X14315644Y-6695644D01*
X14315644Y-6766356D01*
X14386356Y-6766356D01*
X14386356Y-7274356D02*
X14386356Y-7203644D01*
X14315644Y-7203644D01*
X14315644Y-7274356D01*
X14386356Y-7274356D01*
X14386356Y-7528356D02*
X14386356Y-7457644D01*
X14315644Y-7457644D01*
X14315644Y-7528356D01*
X14386356Y-7528356D01*
X14386356Y-7782356D02*
X14386356Y-7711644D01*
X14315644Y-7711644D01*
X14315644Y-7782356D01*
X14386356Y-7782356D01*
X14386356Y-8036356D02*
X14386356Y-7965644D01*
X14315644Y-7965644D01*
X14315644Y-8036356D01*
X14386356Y-8036356D01*
X14386356Y-8290356D02*
X14386356Y-8219644D01*
X14315644Y-8219644D01*
X14315644Y-8290356D01*
X14386356Y-8290356D01*
X14386356Y-8544356D02*
X14386356Y-8473644D01*
X14315644Y-8473644D01*
X14315644Y-8544356D01*
X14386356Y-8544356D01*
X14386356Y-8798356D02*
X14386356Y-8727644D01*
X14315644Y-8727644D01*
X14315644Y-8798356D01*
X14386356Y-8798356D01*
X14386356Y-9052356D02*
X14386356Y-8981644D01*
X14315644Y-8981644D01*
X14315644Y-9052356D01*
X14386356Y-9052356D01*
X15656356Y-4988356D02*
X15656356Y-4917644D01*
X15585644Y-4917644D01*
X15585644Y-4988356D01*
X15656356Y-4988356D01*
X15656356Y-5242356D02*
X15656356Y-5171644D01*
X15585644Y-5171644D01*
X15585644Y-5242356D01*
X15656356Y-5242356D01*
X15656356Y-5496356D02*
X15656356Y-5425644D01*
X15585644Y-5425644D01*
X15585644Y-5496356D01*
X15656356Y-5496356D01*
X15656356Y-5750356D02*
X15656356Y-5679644D01*
X15585644Y-5679644D01*
X15585644Y-5750356D01*
X15656356Y-5750356D01*
X15656356Y-6004356D02*
X15656356Y-5933644D01*
X15585644Y-5933644D01*
X15585644Y-6004356D01*
X15656356Y-6004356D01*
X15656356Y-6258356D02*
X15656356Y-6187644D01*
X15585644Y-6187644D01*
X15585644Y-6258356D01*
X15656356Y-6258356D01*
X15656356Y-6512356D02*
X15656356Y-6441644D01*
X15585644Y-6441644D01*
X15585644Y-6512356D01*
X15656356Y-6512356D01*
X15656356Y-6766356D02*
X15656356Y-6695644D01*
X15585644Y-6695644D01*
X15585644Y-6766356D01*
X15656356Y-6766356D01*
X15656356Y-7274356D02*
X15656356Y-7203644D01*
X15585644Y-7203644D01*
X15585644Y-7274356D01*
X15656356Y-7274356D01*
X15656356Y-7528356D02*
X15656356Y-7457644D01*
X15585644Y-7457644D01*
X15585644Y-7528356D01*
X15656356Y-7528356D01*
X15656356Y-7782356D02*
X15656356Y-7711644D01*
X15585644Y-7711644D01*
X15585644Y-7782356D01*
X15656356Y-7782356D01*
X15656356Y-8036356D02*
X15656356Y-7965644D01*
X15585644Y-7965644D01*
X15585644Y-8036356D01*
X15656356Y-8036356D01*
X15656356Y-8290356D02*
X15656356Y-8219644D01*
X15585644Y-8219644D01*
X15585644Y-8290356D01*
X15656356Y-8290356D01*
X15656356Y-8544356D02*
X15656356Y-8473644D01*
X15585644Y-8473644D01*
X15585644Y-8544356D01*
X15656356Y-8544356D01*
X15656356Y-8798356D02*
X15656356Y-8727644D01*
X15585644Y-8727644D01*
X15585644Y-8798356D01*
X15656356Y-8798356D01*
X15656356Y-9052356D02*
X15656356Y-8981644D01*
X15585644Y-8981644D01*
X15585644Y-9052356D01*
X15656356Y-9052356D01*
X16291356Y-9816356D02*
X16291356Y-9745644D01*
X16220644Y-9745644D01*
X16220644Y-9816356D01*
X16291356Y-9816356D01*
X16291356Y-10066356D02*
X16291356Y-9995644D01*
X16220644Y-9995644D01*
X16220644Y-10066356D01*
X16291356Y-10066356D01*
D15*
X12319000Y-5257800D02*
X12369800Y-5207000D01*
X12319000Y-5156200D01*
X12268200Y-5207000D01*
X12319000Y-5257800D01*
X12319000Y-5511800D02*
X12369800Y-5461000D01*
X12319000Y-5410200D01*
X12268200Y-5461000D01*
X12319000Y-5511800D01*
X12319000Y-5765800D02*
X12369800Y-5715000D01*
X12319000Y-5664200D01*
X12268200Y-5715000D01*
X12319000Y-5765800D01*
X12319000Y-6019800D02*
X12369800Y-5969000D01*
X12319000Y-5918200D01*
X12268200Y-5969000D01*
X12319000Y-6019800D01*
X12319000Y-6273800D02*
X12369800Y-6223000D01*
X12319000Y-6172200D01*
X12268200Y-6223000D01*
X12319000Y-6273800D01*
X12319000Y-6527800D02*
X12369800Y-6477000D01*
X12319000Y-6426200D01*
X12268200Y-6477000D01*
X12319000Y-6527800D01*
X12319000Y-6781800D02*
X12369800Y-6731000D01*
X12319000Y-6680200D01*
X12268200Y-6731000D01*
X12319000Y-6781800D01*
X12319000Y-7035800D02*
X12369800Y-6985000D01*
X12319000Y-6934200D01*
X12268200Y-6985000D01*
X12319000Y-7035800D01*
X12319000Y-7289800D02*
X12369800Y-7239000D01*
X12319000Y-7188200D01*
X12268200Y-7239000D01*
X12319000Y-7289800D01*
X12319000Y-7543800D02*
X12369800Y-7493000D01*
X12319000Y-7442200D01*
X12268200Y-7493000D01*
X12319000Y-7543800D01*
X12319000Y-7797800D02*
X12369800Y-7747000D01*
X12319000Y-7696200D01*
X12268200Y-7747000D01*
X12319000Y-7797800D01*
X12319000Y-8051800D02*
X12369800Y-8001000D01*
X12319000Y-7950200D01*
X12268200Y-8001000D01*
X12319000Y-8051800D01*
X12319000Y-8305800D02*
X12369800Y-8255000D01*
X12319000Y-8204200D01*
X12268200Y-8255000D01*
X12319000Y-8305800D01*
X12319000Y-8559800D02*
X12369800Y-8509000D01*
X12319000Y-8458200D01*
X12268200Y-8509000D01*
X12319000Y-8559800D01*
X12319000Y-8813800D02*
X12369800Y-8763000D01*
X12319000Y-8712200D01*
X12268200Y-8763000D01*
X12319000Y-8813800D01*
X13843000Y-5257800D02*
X13893800Y-5207000D01*
X13843000Y-5156200D01*
X13792200Y-5207000D01*
X13843000Y-5257800D01*
X13843000Y-5511800D02*
X13893800Y-5461000D01*
X13843000Y-5410200D01*
X13792200Y-5461000D01*
X13843000Y-5511800D01*
X13843000Y-5765800D02*
X13893800Y-5715000D01*
X13843000Y-5664200D01*
X13792200Y-5715000D01*
X13843000Y-5765800D01*
X13843000Y-6019800D02*
X13893800Y-5969000D01*
X13843000Y-5918200D01*
X13792200Y-5969000D01*
X13843000Y-6019800D01*
X13843000Y-6273800D02*
X13893800Y-6223000D01*
X13843000Y-6172200D01*
X13792200Y-6223000D01*
X13843000Y-6273800D01*
X13843000Y-6527800D02*
X13893800Y-6477000D01*
X13843000Y-6426200D01*
X13792200Y-6477000D01*
X13843000Y-6527800D01*
X13843000Y-6781800D02*
X13893800Y-6731000D01*
X13843000Y-6680200D01*
X13792200Y-6731000D01*
X13843000Y-6781800D01*
X13843000Y-7035800D02*
X13893800Y-6985000D01*
X13843000Y-6934200D01*
X13792200Y-6985000D01*
X13843000Y-7035800D01*
X13843000Y-7289800D02*
X13893800Y-7239000D01*
X13843000Y-7188200D01*
X13792200Y-7239000D01*
X13843000Y-7289800D01*
X13843000Y-7543800D02*
X13893800Y-7493000D01*
X13843000Y-7442200D01*
X13792200Y-7493000D01*
X13843000Y-7543800D01*
X13843000Y-7797800D02*
X13893800Y-7747000D01*
X13843000Y-7696200D01*
X13792200Y-7747000D01*
X13843000Y-7797800D01*
X13843000Y-8051800D02*
X13893800Y-8001000D01*
X13843000Y-7950200D01*
X13792200Y-8001000D01*
X13843000Y-8051800D01*
X13843000Y-8305800D02*
X13893800Y-8255000D01*
X13843000Y-8204200D01*
X13792200Y-8255000D01*
X13843000Y-8305800D01*
X13843000Y-8559800D02*
X13893800Y-8509000D01*
X13843000Y-8458200D01*
X13792200Y-8509000D01*
X13843000Y-8559800D01*
X13843000Y-8813800D02*
X13893800Y-8763000D01*
X13843000Y-8712200D01*
X13792200Y-8763000D01*
X13843000Y-8813800D01*
D16*
X13465000Y-10282000D02*
X13650000Y-10467000D01*
X13650000Y-10282000D02*
X13465000Y-10467000D01*
X13650000Y-10374500D02*
G75*
G03*
X13650000Y-10374500I-92500J0D01*
G01*
X14290000Y-10282000D02*
X14475000Y-10467000D01*
X14475000Y-10282000D02*
X14290000Y-10467000D01*
X14475000Y-10374500D02*
G75*
G03*
X14475000Y-10374500I-92500J0D01*
G01*
D11*
X11558777Y-11746484D02*
X11558777Y-11546484D01*
X11558777Y-11546484D02*
X11606396Y-11546484D01*
X11606396Y-11546484D02*
X11634967Y-11556008D01*
X11634967Y-11556008D02*
X11654015Y-11575055D01*
X11654015Y-11575055D02*
X11663539Y-11594103D01*
X11663539Y-11594103D02*
X11673062Y-11632198D01*
X11673062Y-11632198D02*
X11673062Y-11660769D01*
X11673062Y-11660769D02*
X11663539Y-11698865D01*
X11663539Y-11698865D02*
X11654015Y-11717912D01*
X11654015Y-11717912D02*
X11634967Y-11736960D01*
X11634967Y-11736960D02*
X11606396Y-11746484D01*
X11606396Y-11746484D02*
X11558777Y-11746484D01*
X11758777Y-11746484D02*
X11758777Y-11613150D01*
X11758777Y-11651246D02*
X11768301Y-11632198D01*
X11768301Y-11632198D02*
X11777824Y-11622674D01*
X11777824Y-11622674D02*
X11796872Y-11613150D01*
X11796872Y-11613150D02*
X11815920Y-11613150D01*
X11882586Y-11746484D02*
X11882586Y-11613150D01*
X11882586Y-11546484D02*
X11873062Y-11556008D01*
X11873062Y-11556008D02*
X11882586Y-11565531D01*
X11882586Y-11565531D02*
X11892110Y-11556008D01*
X11892110Y-11556008D02*
X11882586Y-11546484D01*
X11882586Y-11546484D02*
X11882586Y-11565531D01*
X12006396Y-11746484D02*
X11987348Y-11736960D01*
X11987348Y-11736960D02*
X11977824Y-11717912D01*
X11977824Y-11717912D02*
X11977824Y-11546484D01*
X12111158Y-11746484D02*
X12092110Y-11736960D01*
X12092110Y-11736960D02*
X12082586Y-11717912D01*
X12082586Y-11717912D02*
X12082586Y-11546484D01*
X12339729Y-11746484D02*
X12339729Y-11546484D01*
X12339729Y-11546484D02*
X12406396Y-11689341D01*
X12406396Y-11689341D02*
X12473062Y-11546484D01*
X12473062Y-11546484D02*
X12473062Y-11746484D01*
X12654015Y-11746484D02*
X12654015Y-11641722D01*
X12654015Y-11641722D02*
X12644491Y-11622674D01*
X12644491Y-11622674D02*
X12625443Y-11613150D01*
X12625443Y-11613150D02*
X12587348Y-11613150D01*
X12587348Y-11613150D02*
X12568301Y-11622674D01*
X12654015Y-11736960D02*
X12634967Y-11746484D01*
X12634967Y-11746484D02*
X12587348Y-11746484D01*
X12587348Y-11746484D02*
X12568301Y-11736960D01*
X12568301Y-11736960D02*
X12558777Y-11717912D01*
X12558777Y-11717912D02*
X12558777Y-11698865D01*
X12558777Y-11698865D02*
X12568301Y-11679817D01*
X12568301Y-11679817D02*
X12587348Y-11670293D01*
X12587348Y-11670293D02*
X12634967Y-11670293D01*
X12634967Y-11670293D02*
X12654015Y-11660769D01*
X12749253Y-11613150D02*
X12749253Y-11813150D01*
X12749253Y-11622674D02*
X12768301Y-11613150D01*
X12768301Y-11613150D02*
X12806396Y-11613150D01*
X12806396Y-11613150D02*
X12825443Y-11622674D01*
X12825443Y-11622674D02*
X12834967Y-11632198D01*
X12834967Y-11632198D02*
X12844491Y-11651246D01*
X12844491Y-11651246D02*
X12844491Y-11708388D01*
X12844491Y-11708388D02*
X12834967Y-11727436D01*
X12834967Y-11727436D02*
X12825443Y-11736960D01*
X12825443Y-11736960D02*
X12806396Y-11746484D01*
X12806396Y-11746484D02*
X12768301Y-11746484D01*
X12768301Y-11746484D02*
X12749253Y-11736960D01*
X12930205Y-11727436D02*
X12939729Y-11736960D01*
X12939729Y-11736960D02*
X12930205Y-11746484D01*
X12930205Y-11746484D02*
X12920682Y-11736960D01*
X12920682Y-11736960D02*
X12930205Y-11727436D01*
X12930205Y-11727436D02*
X12930205Y-11746484D01*
X12930205Y-11622674D02*
X12939729Y-11632198D01*
X12939729Y-11632198D02*
X12930205Y-11641722D01*
X12930205Y-11641722D02*
X12920682Y-11632198D01*
X12920682Y-11632198D02*
X12930205Y-11622674D01*
X12930205Y-11622674D02*
X12930205Y-11641722D01*
D12*
X11248000Y-12050000D02*
X11298000Y-12100000D01*
X11298000Y-12050000D02*
X11248000Y-12100000D01*
D11*
X11596872Y-11966484D02*
X11615920Y-11966484D01*
X11615920Y-11966484D02*
X11634967Y-11976008D01*
X11634967Y-11976008D02*
X11644491Y-11985531D01*
X11644491Y-11985531D02*
X11654015Y-12004579D01*
X11654015Y-12004579D02*
X11663539Y-12042674D01*
X11663539Y-12042674D02*
X11663539Y-12090293D01*
X11663539Y-12090293D02*
X11654015Y-12128388D01*
X11654015Y-12128388D02*
X11644491Y-12147436D01*
X11644491Y-12147436D02*
X11634967Y-12156960D01*
X11634967Y-12156960D02*
X11615920Y-12166484D01*
X11615920Y-12166484D02*
X11596872Y-12166484D01*
X11596872Y-12166484D02*
X11577824Y-12156960D01*
X11577824Y-12156960D02*
X11568301Y-12147436D01*
X11568301Y-12147436D02*
X11558777Y-12128388D01*
X11558777Y-12128388D02*
X11549253Y-12090293D01*
X11549253Y-12090293D02*
X11549253Y-12042674D01*
X11549253Y-12042674D02*
X11558777Y-12004579D01*
X11558777Y-12004579D02*
X11568301Y-11985531D01*
X11568301Y-11985531D02*
X11577824Y-11976008D01*
X11577824Y-11976008D02*
X11596872Y-11966484D01*
X11749253Y-12147436D02*
X11758777Y-12156960D01*
X11758777Y-12156960D02*
X11749253Y-12166484D01*
X11749253Y-12166484D02*
X11739729Y-12156960D01*
X11739729Y-12156960D02*
X11749253Y-12147436D01*
X11749253Y-12147436D02*
X11749253Y-12166484D01*
X11939729Y-11966484D02*
X11844491Y-11966484D01*
X11844491Y-11966484D02*
X11834967Y-12061722D01*
X11834967Y-12061722D02*
X11844491Y-12052198D01*
X11844491Y-12052198D02*
X11863539Y-12042674D01*
X11863539Y-12042674D02*
X11911158Y-12042674D01*
X11911158Y-12042674D02*
X11930205Y-12052198D01*
X11930205Y-12052198D02*
X11939729Y-12061722D01*
X11939729Y-12061722D02*
X11949253Y-12080769D01*
X11949253Y-12080769D02*
X11949253Y-12128388D01*
X11949253Y-12128388D02*
X11939729Y-12147436D01*
X11939729Y-12147436D02*
X11930205Y-12156960D01*
X11930205Y-12156960D02*
X11911158Y-12166484D01*
X11911158Y-12166484D02*
X11863539Y-12166484D01*
X11863539Y-12166484D02*
X11844491Y-12156960D01*
X11844491Y-12156960D02*
X11834967Y-12147436D01*
X12073062Y-11966484D02*
X12092110Y-11966484D01*
X12092110Y-11966484D02*
X12111158Y-11976008D01*
X12111158Y-11976008D02*
X12120682Y-11985531D01*
X12120682Y-11985531D02*
X12130205Y-12004579D01*
X12130205Y-12004579D02*
X12139729Y-12042674D01*
X12139729Y-12042674D02*
X12139729Y-12090293D01*
X12139729Y-12090293D02*
X12130205Y-12128388D01*
X12130205Y-12128388D02*
X12120682Y-12147436D01*
X12120682Y-12147436D02*
X12111158Y-12156960D01*
X12111158Y-12156960D02*
X12092110Y-12166484D01*
X12092110Y-12166484D02*
X12073062Y-12166484D01*
X12073062Y-12166484D02*
X12054015Y-12156960D01*
X12054015Y-12156960D02*
X12044491Y-12147436D01*
X12044491Y-12147436D02*
X12034967Y-12128388D01*
X12034967Y-12128388D02*
X12025443Y-12090293D01*
X12025443Y-12090293D02*
X12025443Y-12042674D01*
X12025443Y-12042674D02*
X12034967Y-12004579D01*
X12034967Y-12004579D02*
X12044491Y-11985531D01*
X12044491Y-11985531D02*
X12054015Y-11976008D01*
X12054015Y-11976008D02*
X12073062Y-11966484D01*
X12263539Y-11966484D02*
X12282586Y-11966484D01*
X12282586Y-11966484D02*
X12301634Y-11976008D01*
X12301634Y-11976008D02*
X12311158Y-11985531D01*
X12311158Y-11985531D02*
X12320682Y-12004579D01*
X12320682Y-12004579D02*
X12330205Y-12042674D01*
X12330205Y-12042674D02*
X12330205Y-12090293D01*
X12330205Y-12090293D02*
X12320682Y-12128388D01*
X12320682Y-12128388D02*
X12311158Y-12147436D01*
X12311158Y-12147436D02*
X12301634Y-12156960D01*
X12301634Y-12156960D02*
X12282586Y-12166484D01*
X12282586Y-12166484D02*
X12263539Y-12166484D01*
X12263539Y-12166484D02*
X12244491Y-12156960D01*
X12244491Y-12156960D02*
X12234967Y-12147436D01*
X12234967Y-12147436D02*
X12225443Y-12128388D01*
X12225443Y-12128388D02*
X12215920Y-12090293D01*
X12215920Y-12090293D02*
X12215920Y-12042674D01*
X12215920Y-12042674D02*
X12225443Y-12004579D01*
X12225443Y-12004579D02*
X12234967Y-11985531D01*
X12234967Y-11985531D02*
X12244491Y-11976008D01*
X12244491Y-11976008D02*
X12263539Y-11966484D01*
X12415920Y-12166484D02*
X12415920Y-12033150D01*
X12415920Y-12052198D02*
X12425443Y-12042674D01*
X12425443Y-12042674D02*
X12444491Y-12033150D01*
X12444491Y-12033150D02*
X12473063Y-12033150D01*
X12473063Y-12033150D02*
X12492110Y-12042674D01*
X12492110Y-12042674D02*
X12501634Y-12061722D01*
X12501634Y-12061722D02*
X12501634Y-12166484D01*
X12501634Y-12061722D02*
X12511158Y-12042674D01*
X12511158Y-12042674D02*
X12530205Y-12033150D01*
X12530205Y-12033150D02*
X12558777Y-12033150D01*
X12558777Y-12033150D02*
X12577824Y-12042674D01*
X12577824Y-12042674D02*
X12587348Y-12061722D01*
X12587348Y-12061722D02*
X12587348Y-12166484D01*
X12682586Y-12166484D02*
X12682586Y-12033150D01*
X12682586Y-12052198D02*
X12692110Y-12042674D01*
X12692110Y-12042674D02*
X12711158Y-12033150D01*
X12711158Y-12033150D02*
X12739729Y-12033150D01*
X12739729Y-12033150D02*
X12758777Y-12042674D01*
X12758777Y-12042674D02*
X12768301Y-12061722D01*
X12768301Y-12061722D02*
X12768301Y-12166484D01*
X12768301Y-12061722D02*
X12777824Y-12042674D01*
X12777824Y-12042674D02*
X12796872Y-12033150D01*
X12796872Y-12033150D02*
X12825443Y-12033150D01*
X12825443Y-12033150D02*
X12844491Y-12042674D01*
X12844491Y-12042674D02*
X12854015Y-12061722D01*
X12854015Y-12061722D02*
X12854015Y-12166484D01*
X13244491Y-11956960D02*
X13073063Y-12214103D01*
X13501634Y-11966484D02*
X13520682Y-11966484D01*
X13520682Y-11966484D02*
X13539729Y-11976008D01*
X13539729Y-11976008D02*
X13549253Y-11985531D01*
X13549253Y-11985531D02*
X13558777Y-12004579D01*
X13558777Y-12004579D02*
X13568301Y-12042674D01*
X13568301Y-12042674D02*
X13568301Y-12090293D01*
X13568301Y-12090293D02*
X13558777Y-12128388D01*
X13558777Y-12128388D02*
X13549253Y-12147436D01*
X13549253Y-12147436D02*
X13539729Y-12156960D01*
X13539729Y-12156960D02*
X13520682Y-12166484D01*
X13520682Y-12166484D02*
X13501634Y-12166484D01*
X13501634Y-12166484D02*
X13482586Y-12156960D01*
X13482586Y-12156960D02*
X13473063Y-12147436D01*
X13473063Y-12147436D02*
X13463539Y-12128388D01*
X13463539Y-12128388D02*
X13454015Y-12090293D01*
X13454015Y-12090293D02*
X13454015Y-12042674D01*
X13454015Y-12042674D02*
X13463539Y-12004579D01*
X13463539Y-12004579D02*
X13473063Y-11985531D01*
X13473063Y-11985531D02*
X13482586Y-11976008D01*
X13482586Y-11976008D02*
X13501634Y-11966484D01*
X13654015Y-12147436D02*
X13663539Y-12156960D01*
X13663539Y-12156960D02*
X13654015Y-12166484D01*
X13654015Y-12166484D02*
X13644491Y-12156960D01*
X13644491Y-12156960D02*
X13654015Y-12147436D01*
X13654015Y-12147436D02*
X13654015Y-12166484D01*
X13787348Y-11966484D02*
X13806396Y-11966484D01*
X13806396Y-11966484D02*
X13825444Y-11976008D01*
X13825444Y-11976008D02*
X13834967Y-11985531D01*
X13834967Y-11985531D02*
X13844491Y-12004579D01*
X13844491Y-12004579D02*
X13854015Y-12042674D01*
X13854015Y-12042674D02*
X13854015Y-12090293D01*
X13854015Y-12090293D02*
X13844491Y-12128388D01*
X13844491Y-12128388D02*
X13834967Y-12147436D01*
X13834967Y-12147436D02*
X13825444Y-12156960D01*
X13825444Y-12156960D02*
X13806396Y-12166484D01*
X13806396Y-12166484D02*
X13787348Y-12166484D01*
X13787348Y-12166484D02*
X13768301Y-12156960D01*
X13768301Y-12156960D02*
X13758777Y-12147436D01*
X13758777Y-12147436D02*
X13749253Y-12128388D01*
X13749253Y-12128388D02*
X13739729Y-12090293D01*
X13739729Y-12090293D02*
X13739729Y-12042674D01*
X13739729Y-12042674D02*
X13749253Y-12004579D01*
X13749253Y-12004579D02*
X13758777Y-11985531D01*
X13758777Y-11985531D02*
X13768301Y-11976008D01*
X13768301Y-11976008D02*
X13787348Y-11966484D01*
X14044491Y-12166484D02*
X13930206Y-12166484D01*
X13987348Y-12166484D02*
X13987348Y-11966484D01*
X13987348Y-11966484D02*
X13968301Y-11995055D01*
X13968301Y-11995055D02*
X13949253Y-12014103D01*
X13949253Y-12014103D02*
X13930206Y-12023627D01*
X14139729Y-12166484D02*
X14177825Y-12166484D01*
X14177825Y-12166484D02*
X14196872Y-12156960D01*
X14196872Y-12156960D02*
X14206396Y-12147436D01*
X14206396Y-12147436D02*
X14225444Y-12118865D01*
X14225444Y-12118865D02*
X14234967Y-12080769D01*
X14234967Y-12080769D02*
X14234967Y-12004579D01*
X14234967Y-12004579D02*
X14225444Y-11985531D01*
X14225444Y-11985531D02*
X14215920Y-11976008D01*
X14215920Y-11976008D02*
X14196872Y-11966484D01*
X14196872Y-11966484D02*
X14158777Y-11966484D01*
X14158777Y-11966484D02*
X14139729Y-11976008D01*
X14139729Y-11976008D02*
X14130206Y-11985531D01*
X14130206Y-11985531D02*
X14120682Y-12004579D01*
X14120682Y-12004579D02*
X14120682Y-12052198D01*
X14120682Y-12052198D02*
X14130206Y-12071246D01*
X14130206Y-12071246D02*
X14139729Y-12080769D01*
X14139729Y-12080769D02*
X14158777Y-12090293D01*
X14158777Y-12090293D02*
X14196872Y-12090293D01*
X14196872Y-12090293D02*
X14215920Y-12080769D01*
X14215920Y-12080769D02*
X14225444Y-12071246D01*
X14225444Y-12071246D02*
X14234967Y-12052198D01*
X14301634Y-11966484D02*
X14434967Y-11966484D01*
X14434967Y-11966484D02*
X14349253Y-12166484D01*
X14501634Y-11966484D02*
X14501634Y-12004579D01*
X14577825Y-11966484D02*
X14577825Y-12004579D01*
X14873063Y-12242674D02*
X14863539Y-12233150D01*
X14863539Y-12233150D02*
X14844491Y-12204579D01*
X14844491Y-12204579D02*
X14834968Y-12185531D01*
X14834968Y-12185531D02*
X14825444Y-12156960D01*
X14825444Y-12156960D02*
X14815920Y-12109341D01*
X14815920Y-12109341D02*
X14815920Y-12071246D01*
X14815920Y-12071246D02*
X14825444Y-12023627D01*
X14825444Y-12023627D02*
X14834968Y-11995055D01*
X14834968Y-11995055D02*
X14844491Y-11976008D01*
X14844491Y-11976008D02*
X14863539Y-11947436D01*
X14863539Y-11947436D02*
X14873063Y-11937912D01*
X14930206Y-11966484D02*
X15054015Y-11966484D01*
X15054015Y-11966484D02*
X14987348Y-12042674D01*
X14987348Y-12042674D02*
X15015920Y-12042674D01*
X15015920Y-12042674D02*
X15034968Y-12052198D01*
X15034968Y-12052198D02*
X15044491Y-12061722D01*
X15044491Y-12061722D02*
X15054015Y-12080769D01*
X15054015Y-12080769D02*
X15054015Y-12128388D01*
X15054015Y-12128388D02*
X15044491Y-12147436D01*
X15044491Y-12147436D02*
X15034968Y-12156960D01*
X15034968Y-12156960D02*
X15015920Y-12166484D01*
X15015920Y-12166484D02*
X14958777Y-12166484D01*
X14958777Y-12166484D02*
X14939729Y-12156960D01*
X14939729Y-12156960D02*
X14930206Y-12147436D01*
X15177825Y-11966484D02*
X15196872Y-11966484D01*
X15196872Y-11966484D02*
X15215920Y-11976008D01*
X15215920Y-11976008D02*
X15225444Y-11985531D01*
X15225444Y-11985531D02*
X15234968Y-12004579D01*
X15234968Y-12004579D02*
X15244491Y-12042674D01*
X15244491Y-12042674D02*
X15244491Y-12090293D01*
X15244491Y-12090293D02*
X15234968Y-12128388D01*
X15234968Y-12128388D02*
X15225444Y-12147436D01*
X15225444Y-12147436D02*
X15215920Y-12156960D01*
X15215920Y-12156960D02*
X15196872Y-12166484D01*
X15196872Y-12166484D02*
X15177825Y-12166484D01*
X15177825Y-12166484D02*
X15158777Y-12156960D01*
X15158777Y-12156960D02*
X15149253Y-12147436D01*
X15149253Y-12147436D02*
X15139729Y-12128388D01*
X15139729Y-12128388D02*
X15130206Y-12090293D01*
X15130206Y-12090293D02*
X15130206Y-12042674D01*
X15130206Y-12042674D02*
X15139729Y-12004579D01*
X15139729Y-12004579D02*
X15149253Y-11985531D01*
X15149253Y-11985531D02*
X15158777Y-11976008D01*
X15158777Y-11976008D02*
X15177825Y-11966484D01*
X15482587Y-12166484D02*
X15482587Y-11966484D01*
X15568301Y-12166484D02*
X15568301Y-12061722D01*
X15568301Y-12061722D02*
X15558777Y-12042674D01*
X15558777Y-12042674D02*
X15539730Y-12033150D01*
X15539730Y-12033150D02*
X15511158Y-12033150D01*
X15511158Y-12033150D02*
X15492110Y-12042674D01*
X15492110Y-12042674D02*
X15482587Y-12052198D01*
X15692110Y-12166484D02*
X15673063Y-12156960D01*
X15673063Y-12156960D02*
X15663539Y-12147436D01*
X15663539Y-12147436D02*
X15654015Y-12128388D01*
X15654015Y-12128388D02*
X15654015Y-12071246D01*
X15654015Y-12071246D02*
X15663539Y-12052198D01*
X15663539Y-12052198D02*
X15673063Y-12042674D01*
X15673063Y-12042674D02*
X15692110Y-12033150D01*
X15692110Y-12033150D02*
X15720682Y-12033150D01*
X15720682Y-12033150D02*
X15739730Y-12042674D01*
X15739730Y-12042674D02*
X15749253Y-12052198D01*
X15749253Y-12052198D02*
X15758777Y-12071246D01*
X15758777Y-12071246D02*
X15758777Y-12128388D01*
X15758777Y-12128388D02*
X15749253Y-12147436D01*
X15749253Y-12147436D02*
X15739730Y-12156960D01*
X15739730Y-12156960D02*
X15720682Y-12166484D01*
X15720682Y-12166484D02*
X15692110Y-12166484D01*
X15873063Y-12166484D02*
X15854015Y-12156960D01*
X15854015Y-12156960D02*
X15844491Y-12137912D01*
X15844491Y-12137912D02*
X15844491Y-11966484D01*
X16025444Y-12156960D02*
X16006396Y-12166484D01*
X16006396Y-12166484D02*
X15968301Y-12166484D01*
X15968301Y-12166484D02*
X15949253Y-12156960D01*
X15949253Y-12156960D02*
X15939730Y-12137912D01*
X15939730Y-12137912D02*
X15939730Y-12061722D01*
X15939730Y-12061722D02*
X15949253Y-12042674D01*
X15949253Y-12042674D02*
X15968301Y-12033150D01*
X15968301Y-12033150D02*
X16006396Y-12033150D01*
X16006396Y-12033150D02*
X16025444Y-12042674D01*
X16025444Y-12042674D02*
X16034968Y-12061722D01*
X16034968Y-12061722D02*
X16034968Y-12080769D01*
X16034968Y-12080769D02*
X15939730Y-12099817D01*
X16111158Y-12156960D02*
X16130206Y-12166484D01*
X16130206Y-12166484D02*
X16168301Y-12166484D01*
X16168301Y-12166484D02*
X16187349Y-12156960D01*
X16187349Y-12156960D02*
X16196872Y-12137912D01*
X16196872Y-12137912D02*
X16196872Y-12128388D01*
X16196872Y-12128388D02*
X16187349Y-12109341D01*
X16187349Y-12109341D02*
X16168301Y-12099817D01*
X16168301Y-12099817D02*
X16139730Y-12099817D01*
X16139730Y-12099817D02*
X16120682Y-12090293D01*
X16120682Y-12090293D02*
X16111158Y-12071246D01*
X16111158Y-12071246D02*
X16111158Y-12061722D01*
X16111158Y-12061722D02*
X16120682Y-12042674D01*
X16120682Y-12042674D02*
X16139730Y-12033150D01*
X16139730Y-12033150D02*
X16168301Y-12033150D01*
X16168301Y-12033150D02*
X16187349Y-12042674D01*
X16263539Y-12242674D02*
X16273063Y-12233150D01*
X16273063Y-12233150D02*
X16292111Y-12204579D01*
X16292111Y-12204579D02*
X16301634Y-12185531D01*
X16301634Y-12185531D02*
X16311158Y-12156960D01*
X16311158Y-12156960D02*
X16320682Y-12109341D01*
X16320682Y-12109341D02*
X16320682Y-12071246D01*
X16320682Y-12071246D02*
X16311158Y-12023627D01*
X16311158Y-12023627D02*
X16301634Y-11995055D01*
X16301634Y-11995055D02*
X16292111Y-11976008D01*
X16292111Y-11976008D02*
X16273063Y-11947436D01*
X16273063Y-11947436D02*
X16263539Y-11937912D01*
D13*
X11298000Y-12339000D02*
G75*
G03*
X11298000Y-12339000I-40000J0D01*
G01*
D11*
X11596872Y-12230484D02*
X11615920Y-12230484D01*
X11615920Y-12230484D02*
X11634967Y-12240008D01*
X11634967Y-12240008D02*
X11644491Y-12249531D01*
X11644491Y-12249531D02*
X11654015Y-12268579D01*
X11654015Y-12268579D02*
X11663539Y-12306674D01*
X11663539Y-12306674D02*
X11663539Y-12354293D01*
X11663539Y-12354293D02*
X11654015Y-12392388D01*
X11654015Y-12392388D02*
X11644491Y-12411436D01*
X11644491Y-12411436D02*
X11634967Y-12420960D01*
X11634967Y-12420960D02*
X11615920Y-12430484D01*
X11615920Y-12430484D02*
X11596872Y-12430484D01*
X11596872Y-12430484D02*
X11577824Y-12420960D01*
X11577824Y-12420960D02*
X11568301Y-12411436D01*
X11568301Y-12411436D02*
X11558777Y-12392388D01*
X11558777Y-12392388D02*
X11549253Y-12354293D01*
X11549253Y-12354293D02*
X11549253Y-12306674D01*
X11549253Y-12306674D02*
X11558777Y-12268579D01*
X11558777Y-12268579D02*
X11568301Y-12249531D01*
X11568301Y-12249531D02*
X11577824Y-12240008D01*
X11577824Y-12240008D02*
X11596872Y-12230484D01*
X11749253Y-12411436D02*
X11758777Y-12420960D01*
X11758777Y-12420960D02*
X11749253Y-12430484D01*
X11749253Y-12430484D02*
X11739729Y-12420960D01*
X11739729Y-12420960D02*
X11749253Y-12411436D01*
X11749253Y-12411436D02*
X11749253Y-12430484D01*
X11873062Y-12316198D02*
X11854015Y-12306674D01*
X11854015Y-12306674D02*
X11844491Y-12297150D01*
X11844491Y-12297150D02*
X11834967Y-12278103D01*
X11834967Y-12278103D02*
X11834967Y-12268579D01*
X11834967Y-12268579D02*
X11844491Y-12249531D01*
X11844491Y-12249531D02*
X11854015Y-12240008D01*
X11854015Y-12240008D02*
X11873062Y-12230484D01*
X11873062Y-12230484D02*
X11911158Y-12230484D01*
X11911158Y-12230484D02*
X11930205Y-12240008D01*
X11930205Y-12240008D02*
X11939729Y-12249531D01*
X11939729Y-12249531D02*
X11949253Y-12268579D01*
X11949253Y-12268579D02*
X11949253Y-12278103D01*
X11949253Y-12278103D02*
X11939729Y-12297150D01*
X11939729Y-12297150D02*
X11930205Y-12306674D01*
X11930205Y-12306674D02*
X11911158Y-12316198D01*
X11911158Y-12316198D02*
X11873062Y-12316198D01*
X11873062Y-12316198D02*
X11854015Y-12325722D01*
X11854015Y-12325722D02*
X11844491Y-12335246D01*
X11844491Y-12335246D02*
X11834967Y-12354293D01*
X11834967Y-12354293D02*
X11834967Y-12392388D01*
X11834967Y-12392388D02*
X11844491Y-12411436D01*
X11844491Y-12411436D02*
X11854015Y-12420960D01*
X11854015Y-12420960D02*
X11873062Y-12430484D01*
X11873062Y-12430484D02*
X11911158Y-12430484D01*
X11911158Y-12430484D02*
X11930205Y-12420960D01*
X11930205Y-12420960D02*
X11939729Y-12411436D01*
X11939729Y-12411436D02*
X11949253Y-12392388D01*
X11949253Y-12392388D02*
X11949253Y-12354293D01*
X11949253Y-12354293D02*
X11939729Y-12335246D01*
X11939729Y-12335246D02*
X11930205Y-12325722D01*
X11930205Y-12325722D02*
X11911158Y-12316198D01*
X12073062Y-12230484D02*
X12092110Y-12230484D01*
X12092110Y-12230484D02*
X12111158Y-12240008D01*
X12111158Y-12240008D02*
X12120682Y-12249531D01*
X12120682Y-12249531D02*
X12130205Y-12268579D01*
X12130205Y-12268579D02*
X12139729Y-12306674D01*
X12139729Y-12306674D02*
X12139729Y-12354293D01*
X12139729Y-12354293D02*
X12130205Y-12392388D01*
X12130205Y-12392388D02*
X12120682Y-12411436D01*
X12120682Y-12411436D02*
X12111158Y-12420960D01*
X12111158Y-12420960D02*
X12092110Y-12430484D01*
X12092110Y-12430484D02*
X12073062Y-12430484D01*
X12073062Y-12430484D02*
X12054015Y-12420960D01*
X12054015Y-12420960D02*
X12044491Y-12411436D01*
X12044491Y-12411436D02*
X12034967Y-12392388D01*
X12034967Y-12392388D02*
X12025443Y-12354293D01*
X12025443Y-12354293D02*
X12025443Y-12306674D01*
X12025443Y-12306674D02*
X12034967Y-12268579D01*
X12034967Y-12268579D02*
X12044491Y-12249531D01*
X12044491Y-12249531D02*
X12054015Y-12240008D01*
X12054015Y-12240008D02*
X12073062Y-12230484D01*
X12263539Y-12230484D02*
X12282586Y-12230484D01*
X12282586Y-12230484D02*
X12301634Y-12240008D01*
X12301634Y-12240008D02*
X12311158Y-12249531D01*
X12311158Y-12249531D02*
X12320682Y-12268579D01*
X12320682Y-12268579D02*
X12330205Y-12306674D01*
X12330205Y-12306674D02*
X12330205Y-12354293D01*
X12330205Y-12354293D02*
X12320682Y-12392388D01*
X12320682Y-12392388D02*
X12311158Y-12411436D01*
X12311158Y-12411436D02*
X12301634Y-12420960D01*
X12301634Y-12420960D02*
X12282586Y-12430484D01*
X12282586Y-12430484D02*
X12263539Y-12430484D01*
X12263539Y-12430484D02*
X12244491Y-12420960D01*
X12244491Y-12420960D02*
X12234967Y-12411436D01*
X12234967Y-12411436D02*
X12225443Y-12392388D01*
X12225443Y-12392388D02*
X12215920Y-12354293D01*
X12215920Y-12354293D02*
X12215920Y-12306674D01*
X12215920Y-12306674D02*
X12225443Y-12268579D01*
X12225443Y-12268579D02*
X12234967Y-12249531D01*
X12234967Y-12249531D02*
X12244491Y-12240008D01*
X12244491Y-12240008D02*
X12263539Y-12230484D01*
X12415920Y-12430484D02*
X12415920Y-12297150D01*
X12415920Y-12316198D02*
X12425443Y-12306674D01*
X12425443Y-12306674D02*
X12444491Y-12297150D01*
X12444491Y-12297150D02*
X12473063Y-12297150D01*
X12473063Y-12297150D02*
X12492110Y-12306674D01*
X12492110Y-12306674D02*
X12501634Y-12325722D01*
X12501634Y-12325722D02*
X12501634Y-12430484D01*
X12501634Y-12325722D02*
X12511158Y-12306674D01*
X12511158Y-12306674D02*
X12530205Y-12297150D01*
X12530205Y-12297150D02*
X12558777Y-12297150D01*
X12558777Y-12297150D02*
X12577824Y-12306674D01*
X12577824Y-12306674D02*
X12587348Y-12325722D01*
X12587348Y-12325722D02*
X12587348Y-12430484D01*
X12682586Y-12430484D02*
X12682586Y-12297150D01*
X12682586Y-12316198D02*
X12692110Y-12306674D01*
X12692110Y-12306674D02*
X12711158Y-12297150D01*
X12711158Y-12297150D02*
X12739729Y-12297150D01*
X12739729Y-12297150D02*
X12758777Y-12306674D01*
X12758777Y-12306674D02*
X12768301Y-12325722D01*
X12768301Y-12325722D02*
X12768301Y-12430484D01*
X12768301Y-12325722D02*
X12777824Y-12306674D01*
X12777824Y-12306674D02*
X12796872Y-12297150D01*
X12796872Y-12297150D02*
X12825443Y-12297150D01*
X12825443Y-12297150D02*
X12844491Y-12306674D01*
X12844491Y-12306674D02*
X12854015Y-12325722D01*
X12854015Y-12325722D02*
X12854015Y-12430484D01*
X13244491Y-12220960D02*
X13073063Y-12478103D01*
X13501634Y-12230484D02*
X13520682Y-12230484D01*
X13520682Y-12230484D02*
X13539729Y-12240008D01*
X13539729Y-12240008D02*
X13549253Y-12249531D01*
X13549253Y-12249531D02*
X13558777Y-12268579D01*
X13558777Y-12268579D02*
X13568301Y-12306674D01*
X13568301Y-12306674D02*
X13568301Y-12354293D01*
X13568301Y-12354293D02*
X13558777Y-12392388D01*
X13558777Y-12392388D02*
X13549253Y-12411436D01*
X13549253Y-12411436D02*
X13539729Y-12420960D01*
X13539729Y-12420960D02*
X13520682Y-12430484D01*
X13520682Y-12430484D02*
X13501634Y-12430484D01*
X13501634Y-12430484D02*
X13482586Y-12420960D01*
X13482586Y-12420960D02*
X13473063Y-12411436D01*
X13473063Y-12411436D02*
X13463539Y-12392388D01*
X13463539Y-12392388D02*
X13454015Y-12354293D01*
X13454015Y-12354293D02*
X13454015Y-12306674D01*
X13454015Y-12306674D02*
X13463539Y-12268579D01*
X13463539Y-12268579D02*
X13473063Y-12249531D01*
X13473063Y-12249531D02*
X13482586Y-12240008D01*
X13482586Y-12240008D02*
X13501634Y-12230484D01*
X13654015Y-12411436D02*
X13663539Y-12420960D01*
X13663539Y-12420960D02*
X13654015Y-12430484D01*
X13654015Y-12430484D02*
X13644491Y-12420960D01*
X13644491Y-12420960D02*
X13654015Y-12411436D01*
X13654015Y-12411436D02*
X13654015Y-12430484D01*
X13787348Y-12230484D02*
X13806396Y-12230484D01*
X13806396Y-12230484D02*
X13825444Y-12240008D01*
X13825444Y-12240008D02*
X13834967Y-12249531D01*
X13834967Y-12249531D02*
X13844491Y-12268579D01*
X13844491Y-12268579D02*
X13854015Y-12306674D01*
X13854015Y-12306674D02*
X13854015Y-12354293D01*
X13854015Y-12354293D02*
X13844491Y-12392388D01*
X13844491Y-12392388D02*
X13834967Y-12411436D01*
X13834967Y-12411436D02*
X13825444Y-12420960D01*
X13825444Y-12420960D02*
X13806396Y-12430484D01*
X13806396Y-12430484D02*
X13787348Y-12430484D01*
X13787348Y-12430484D02*
X13768301Y-12420960D01*
X13768301Y-12420960D02*
X13758777Y-12411436D01*
X13758777Y-12411436D02*
X13749253Y-12392388D01*
X13749253Y-12392388D02*
X13739729Y-12354293D01*
X13739729Y-12354293D02*
X13739729Y-12306674D01*
X13739729Y-12306674D02*
X13749253Y-12268579D01*
X13749253Y-12268579D02*
X13758777Y-12249531D01*
X13758777Y-12249531D02*
X13768301Y-12240008D01*
X13768301Y-12240008D02*
X13787348Y-12230484D01*
X13920682Y-12230484D02*
X14044491Y-12230484D01*
X14044491Y-12230484D02*
X13977825Y-12306674D01*
X13977825Y-12306674D02*
X14006396Y-12306674D01*
X14006396Y-12306674D02*
X14025444Y-12316198D01*
X14025444Y-12316198D02*
X14034967Y-12325722D01*
X14034967Y-12325722D02*
X14044491Y-12344769D01*
X14044491Y-12344769D02*
X14044491Y-12392388D01*
X14044491Y-12392388D02*
X14034967Y-12411436D01*
X14034967Y-12411436D02*
X14025444Y-12420960D01*
X14025444Y-12420960D02*
X14006396Y-12430484D01*
X14006396Y-12430484D02*
X13949253Y-12430484D01*
X13949253Y-12430484D02*
X13930206Y-12420960D01*
X13930206Y-12420960D02*
X13920682Y-12411436D01*
X14234967Y-12430484D02*
X14120682Y-12430484D01*
X14177825Y-12430484D02*
X14177825Y-12230484D01*
X14177825Y-12230484D02*
X14158777Y-12259055D01*
X14158777Y-12259055D02*
X14139729Y-12278103D01*
X14139729Y-12278103D02*
X14120682Y-12287627D01*
X14415920Y-12230484D02*
X14320682Y-12230484D01*
X14320682Y-12230484D02*
X14311158Y-12325722D01*
X14311158Y-12325722D02*
X14320682Y-12316198D01*
X14320682Y-12316198D02*
X14339729Y-12306674D01*
X14339729Y-12306674D02*
X14387348Y-12306674D01*
X14387348Y-12306674D02*
X14406396Y-12316198D01*
X14406396Y-12316198D02*
X14415920Y-12325722D01*
X14415920Y-12325722D02*
X14425444Y-12344769D01*
X14425444Y-12344769D02*
X14425444Y-12392388D01*
X14425444Y-12392388D02*
X14415920Y-12411436D01*
X14415920Y-12411436D02*
X14406396Y-12420960D01*
X14406396Y-12420960D02*
X14387348Y-12430484D01*
X14387348Y-12430484D02*
X14339729Y-12430484D01*
X14339729Y-12430484D02*
X14320682Y-12420960D01*
X14320682Y-12420960D02*
X14311158Y-12411436D01*
X14501634Y-12230484D02*
X14501634Y-12268579D01*
X14577825Y-12230484D02*
X14577825Y-12268579D01*
X14873063Y-12506674D02*
X14863539Y-12497150D01*
X14863539Y-12497150D02*
X14844491Y-12468579D01*
X14844491Y-12468579D02*
X14834968Y-12449531D01*
X14834968Y-12449531D02*
X14825444Y-12420960D01*
X14825444Y-12420960D02*
X14815920Y-12373341D01*
X14815920Y-12373341D02*
X14815920Y-12335246D01*
X14815920Y-12335246D02*
X14825444Y-12287627D01*
X14825444Y-12287627D02*
X14834968Y-12259055D01*
X14834968Y-12259055D02*
X14844491Y-12240008D01*
X14844491Y-12240008D02*
X14863539Y-12211436D01*
X14863539Y-12211436D02*
X14873063Y-12201912D01*
X15054015Y-12430484D02*
X14939729Y-12430484D01*
X14996872Y-12430484D02*
X14996872Y-12230484D01*
X14996872Y-12230484D02*
X14977825Y-12259055D01*
X14977825Y-12259055D02*
X14958777Y-12278103D01*
X14958777Y-12278103D02*
X14939729Y-12287627D01*
X15177825Y-12230484D02*
X15196872Y-12230484D01*
X15196872Y-12230484D02*
X15215920Y-12240008D01*
X15215920Y-12240008D02*
X15225444Y-12249531D01*
X15225444Y-12249531D02*
X15234968Y-12268579D01*
X15234968Y-12268579D02*
X15244491Y-12306674D01*
X15244491Y-12306674D02*
X15244491Y-12354293D01*
X15244491Y-12354293D02*
X15234968Y-12392388D01*
X15234968Y-12392388D02*
X15225444Y-12411436D01*
X15225444Y-12411436D02*
X15215920Y-12420960D01*
X15215920Y-12420960D02*
X15196872Y-12430484D01*
X15196872Y-12430484D02*
X15177825Y-12430484D01*
X15177825Y-12430484D02*
X15158777Y-12420960D01*
X15158777Y-12420960D02*
X15149253Y-12411436D01*
X15149253Y-12411436D02*
X15139729Y-12392388D01*
X15139729Y-12392388D02*
X15130206Y-12354293D01*
X15130206Y-12354293D02*
X15130206Y-12306674D01*
X15130206Y-12306674D02*
X15139729Y-12268579D01*
X15139729Y-12268579D02*
X15149253Y-12249531D01*
X15149253Y-12249531D02*
X15158777Y-12240008D01*
X15158777Y-12240008D02*
X15177825Y-12230484D01*
X15482587Y-12430484D02*
X15482587Y-12230484D01*
X15568301Y-12430484D02*
X15568301Y-12325722D01*
X15568301Y-12325722D02*
X15558777Y-12306674D01*
X15558777Y-12306674D02*
X15539730Y-12297150D01*
X15539730Y-12297150D02*
X15511158Y-12297150D01*
X15511158Y-12297150D02*
X15492110Y-12306674D01*
X15492110Y-12306674D02*
X15482587Y-12316198D01*
X15692110Y-12430484D02*
X15673063Y-12420960D01*
X15673063Y-12420960D02*
X15663539Y-12411436D01*
X15663539Y-12411436D02*
X15654015Y-12392388D01*
X15654015Y-12392388D02*
X15654015Y-12335246D01*
X15654015Y-12335246D02*
X15663539Y-12316198D01*
X15663539Y-12316198D02*
X15673063Y-12306674D01*
X15673063Y-12306674D02*
X15692110Y-12297150D01*
X15692110Y-12297150D02*
X15720682Y-12297150D01*
X15720682Y-12297150D02*
X15739730Y-12306674D01*
X15739730Y-12306674D02*
X15749253Y-12316198D01*
X15749253Y-12316198D02*
X15758777Y-12335246D01*
X15758777Y-12335246D02*
X15758777Y-12392388D01*
X15758777Y-12392388D02*
X15749253Y-12411436D01*
X15749253Y-12411436D02*
X15739730Y-12420960D01*
X15739730Y-12420960D02*
X15720682Y-12430484D01*
X15720682Y-12430484D02*
X15692110Y-12430484D01*
X15873063Y-12430484D02*
X15854015Y-12420960D01*
X15854015Y-12420960D02*
X15844491Y-12401912D01*
X15844491Y-12401912D02*
X15844491Y-12230484D01*
X16025444Y-12420960D02*
X16006396Y-12430484D01*
X16006396Y-12430484D02*
X15968301Y-12430484D01*
X15968301Y-12430484D02*
X15949253Y-12420960D01*
X15949253Y-12420960D02*
X15939730Y-12401912D01*
X15939730Y-12401912D02*
X15939730Y-12325722D01*
X15939730Y-12325722D02*
X15949253Y-12306674D01*
X15949253Y-12306674D02*
X15968301Y-12297150D01*
X15968301Y-12297150D02*
X16006396Y-12297150D01*
X16006396Y-12297150D02*
X16025444Y-12306674D01*
X16025444Y-12306674D02*
X16034968Y-12325722D01*
X16034968Y-12325722D02*
X16034968Y-12344769D01*
X16034968Y-12344769D02*
X15939730Y-12363817D01*
X16111158Y-12420960D02*
X16130206Y-12430484D01*
X16130206Y-12430484D02*
X16168301Y-12430484D01*
X16168301Y-12430484D02*
X16187349Y-12420960D01*
X16187349Y-12420960D02*
X16196872Y-12401912D01*
X16196872Y-12401912D02*
X16196872Y-12392388D01*
X16196872Y-12392388D02*
X16187349Y-12373341D01*
X16187349Y-12373341D02*
X16168301Y-12363817D01*
X16168301Y-12363817D02*
X16139730Y-12363817D01*
X16139730Y-12363817D02*
X16120682Y-12354293D01*
X16120682Y-12354293D02*
X16111158Y-12335246D01*
X16111158Y-12335246D02*
X16111158Y-12325722D01*
X16111158Y-12325722D02*
X16120682Y-12306674D01*
X16120682Y-12306674D02*
X16139730Y-12297150D01*
X16139730Y-12297150D02*
X16168301Y-12297150D01*
X16168301Y-12297150D02*
X16187349Y-12306674D01*
X16263539Y-12506674D02*
X16273063Y-12497150D01*
X16273063Y-12497150D02*
X16292111Y-12468579D01*
X16292111Y-12468579D02*
X16301634Y-12449531D01*
X16301634Y-12449531D02*
X16311158Y-12420960D01*
X16311158Y-12420960D02*
X16320682Y-12373341D01*
X16320682Y-12373341D02*
X16320682Y-12335246D01*
X16320682Y-12335246D02*
X16311158Y-12287627D01*
X16311158Y-12287627D02*
X16301634Y-12259055D01*
X16301634Y-12259055D02*
X16292111Y-12240008D01*
X16292111Y-12240008D02*
X16273063Y-12211436D01*
X16273063Y-12211436D02*
X16263539Y-12201912D01*
D14*
X11250500Y-12555500D02*
X11250500Y-12650500D01*
X11203000Y-12603000D02*
X11298000Y-12603000D01*
D11*
X11596872Y-12494484D02*
X11615920Y-12494484D01*
X11615920Y-12494484D02*
X11634967Y-12504008D01*
X11634967Y-12504008D02*
X11644491Y-12513531D01*
X11644491Y-12513531D02*
X11654015Y-12532579D01*
X11654015Y-12532579D02*
X11663539Y-12570674D01*
X11663539Y-12570674D02*
X11663539Y-12618293D01*
X11663539Y-12618293D02*
X11654015Y-12656388D01*
X11654015Y-12656388D02*
X11644491Y-12675436D01*
X11644491Y-12675436D02*
X11634967Y-12684960D01*
X11634967Y-12684960D02*
X11615920Y-12694484D01*
X11615920Y-12694484D02*
X11596872Y-12694484D01*
X11596872Y-12694484D02*
X11577824Y-12684960D01*
X11577824Y-12684960D02*
X11568301Y-12675436D01*
X11568301Y-12675436D02*
X11558777Y-12656388D01*
X11558777Y-12656388D02*
X11549253Y-12618293D01*
X11549253Y-12618293D02*
X11549253Y-12570674D01*
X11549253Y-12570674D02*
X11558777Y-12532579D01*
X11558777Y-12532579D02*
X11568301Y-12513531D01*
X11568301Y-12513531D02*
X11577824Y-12504008D01*
X11577824Y-12504008D02*
X11596872Y-12494484D01*
X11749253Y-12675436D02*
X11758777Y-12684960D01*
X11758777Y-12684960D02*
X11749253Y-12694484D01*
X11749253Y-12694484D02*
X11739729Y-12684960D01*
X11739729Y-12684960D02*
X11749253Y-12675436D01*
X11749253Y-12675436D02*
X11749253Y-12694484D01*
X11854015Y-12694484D02*
X11892110Y-12694484D01*
X11892110Y-12694484D02*
X11911158Y-12684960D01*
X11911158Y-12684960D02*
X11920682Y-12675436D01*
X11920682Y-12675436D02*
X11939729Y-12646865D01*
X11939729Y-12646865D02*
X11949253Y-12608769D01*
X11949253Y-12608769D02*
X11949253Y-12532579D01*
X11949253Y-12532579D02*
X11939729Y-12513531D01*
X11939729Y-12513531D02*
X11930205Y-12504008D01*
X11930205Y-12504008D02*
X11911158Y-12494484D01*
X11911158Y-12494484D02*
X11873062Y-12494484D01*
X11873062Y-12494484D02*
X11854015Y-12504008D01*
X11854015Y-12504008D02*
X11844491Y-12513531D01*
X11844491Y-12513531D02*
X11834967Y-12532579D01*
X11834967Y-12532579D02*
X11834967Y-12580198D01*
X11834967Y-12580198D02*
X11844491Y-12599246D01*
X11844491Y-12599246D02*
X11854015Y-12608769D01*
X11854015Y-12608769D02*
X11873062Y-12618293D01*
X11873062Y-12618293D02*
X11911158Y-12618293D01*
X11911158Y-12618293D02*
X11930205Y-12608769D01*
X11930205Y-12608769D02*
X11939729Y-12599246D01*
X11939729Y-12599246D02*
X11949253Y-12580198D01*
X12130205Y-12494484D02*
X12034967Y-12494484D01*
X12034967Y-12494484D02*
X12025443Y-12589722D01*
X12025443Y-12589722D02*
X12034967Y-12580198D01*
X12034967Y-12580198D02*
X12054015Y-12570674D01*
X12054015Y-12570674D02*
X12101634Y-12570674D01*
X12101634Y-12570674D02*
X12120682Y-12580198D01*
X12120682Y-12580198D02*
X12130205Y-12589722D01*
X12130205Y-12589722D02*
X12139729Y-12608769D01*
X12139729Y-12608769D02*
X12139729Y-12656388D01*
X12139729Y-12656388D02*
X12130205Y-12675436D01*
X12130205Y-12675436D02*
X12120682Y-12684960D01*
X12120682Y-12684960D02*
X12101634Y-12694484D01*
X12101634Y-12694484D02*
X12054015Y-12694484D01*
X12054015Y-12694484D02*
X12034967Y-12684960D01*
X12034967Y-12684960D02*
X12025443Y-12675436D01*
X12263539Y-12494484D02*
X12282586Y-12494484D01*
X12282586Y-12494484D02*
X12301634Y-12504008D01*
X12301634Y-12504008D02*
X12311158Y-12513531D01*
X12311158Y-12513531D02*
X12320682Y-12532579D01*
X12320682Y-12532579D02*
X12330205Y-12570674D01*
X12330205Y-12570674D02*
X12330205Y-12618293D01*
X12330205Y-12618293D02*
X12320682Y-12656388D01*
X12320682Y-12656388D02*
X12311158Y-12675436D01*
X12311158Y-12675436D02*
X12301634Y-12684960D01*
X12301634Y-12684960D02*
X12282586Y-12694484D01*
X12282586Y-12694484D02*
X12263539Y-12694484D01*
X12263539Y-12694484D02*
X12244491Y-12684960D01*
X12244491Y-12684960D02*
X12234967Y-12675436D01*
X12234967Y-12675436D02*
X12225443Y-12656388D01*
X12225443Y-12656388D02*
X12215920Y-12618293D01*
X12215920Y-12618293D02*
X12215920Y-12570674D01*
X12215920Y-12570674D02*
X12225443Y-12532579D01*
X12225443Y-12532579D02*
X12234967Y-12513531D01*
X12234967Y-12513531D02*
X12244491Y-12504008D01*
X12244491Y-12504008D02*
X12263539Y-12494484D01*
X12415920Y-12694484D02*
X12415920Y-12561150D01*
X12415920Y-12580198D02*
X12425443Y-12570674D01*
X12425443Y-12570674D02*
X12444491Y-12561150D01*
X12444491Y-12561150D02*
X12473063Y-12561150D01*
X12473063Y-12561150D02*
X12492110Y-12570674D01*
X12492110Y-12570674D02*
X12501634Y-12589722D01*
X12501634Y-12589722D02*
X12501634Y-12694484D01*
X12501634Y-12589722D02*
X12511158Y-12570674D01*
X12511158Y-12570674D02*
X12530205Y-12561150D01*
X12530205Y-12561150D02*
X12558777Y-12561150D01*
X12558777Y-12561150D02*
X12577824Y-12570674D01*
X12577824Y-12570674D02*
X12587348Y-12589722D01*
X12587348Y-12589722D02*
X12587348Y-12694484D01*
X12682586Y-12694484D02*
X12682586Y-12561150D01*
X12682586Y-12580198D02*
X12692110Y-12570674D01*
X12692110Y-12570674D02*
X12711158Y-12561150D01*
X12711158Y-12561150D02*
X12739729Y-12561150D01*
X12739729Y-12561150D02*
X12758777Y-12570674D01*
X12758777Y-12570674D02*
X12768301Y-12589722D01*
X12768301Y-12589722D02*
X12768301Y-12694484D01*
X12768301Y-12589722D02*
X12777824Y-12570674D01*
X12777824Y-12570674D02*
X12796872Y-12561150D01*
X12796872Y-12561150D02*
X12825443Y-12561150D01*
X12825443Y-12561150D02*
X12844491Y-12570674D01*
X12844491Y-12570674D02*
X12854015Y-12589722D01*
X12854015Y-12589722D02*
X12854015Y-12694484D01*
X13244491Y-12484960D02*
X13073063Y-12742103D01*
X13501634Y-12494484D02*
X13520682Y-12494484D01*
X13520682Y-12494484D02*
X13539729Y-12504008D01*
X13539729Y-12504008D02*
X13549253Y-12513531D01*
X13549253Y-12513531D02*
X13558777Y-12532579D01*
X13558777Y-12532579D02*
X13568301Y-12570674D01*
X13568301Y-12570674D02*
X13568301Y-12618293D01*
X13568301Y-12618293D02*
X13558777Y-12656388D01*
X13558777Y-12656388D02*
X13549253Y-12675436D01*
X13549253Y-12675436D02*
X13539729Y-12684960D01*
X13539729Y-12684960D02*
X13520682Y-12694484D01*
X13520682Y-12694484D02*
X13501634Y-12694484D01*
X13501634Y-12694484D02*
X13482586Y-12684960D01*
X13482586Y-12684960D02*
X13473063Y-12675436D01*
X13473063Y-12675436D02*
X13463539Y-12656388D01*
X13463539Y-12656388D02*
X13454015Y-12618293D01*
X13454015Y-12618293D02*
X13454015Y-12570674D01*
X13454015Y-12570674D02*
X13463539Y-12532579D01*
X13463539Y-12532579D02*
X13473063Y-12513531D01*
X13473063Y-12513531D02*
X13482586Y-12504008D01*
X13482586Y-12504008D02*
X13501634Y-12494484D01*
X13654015Y-12675436D02*
X13663539Y-12684960D01*
X13663539Y-12684960D02*
X13654015Y-12694484D01*
X13654015Y-12694484D02*
X13644491Y-12684960D01*
X13644491Y-12684960D02*
X13654015Y-12675436D01*
X13654015Y-12675436D02*
X13654015Y-12694484D01*
X13787348Y-12494484D02*
X13806396Y-12494484D01*
X13806396Y-12494484D02*
X13825444Y-12504008D01*
X13825444Y-12504008D02*
X13834967Y-12513531D01*
X13834967Y-12513531D02*
X13844491Y-12532579D01*
X13844491Y-12532579D02*
X13854015Y-12570674D01*
X13854015Y-12570674D02*
X13854015Y-12618293D01*
X13854015Y-12618293D02*
X13844491Y-12656388D01*
X13844491Y-12656388D02*
X13834967Y-12675436D01*
X13834967Y-12675436D02*
X13825444Y-12684960D01*
X13825444Y-12684960D02*
X13806396Y-12694484D01*
X13806396Y-12694484D02*
X13787348Y-12694484D01*
X13787348Y-12694484D02*
X13768301Y-12684960D01*
X13768301Y-12684960D02*
X13758777Y-12675436D01*
X13758777Y-12675436D02*
X13749253Y-12656388D01*
X13749253Y-12656388D02*
X13739729Y-12618293D01*
X13739729Y-12618293D02*
X13739729Y-12570674D01*
X13739729Y-12570674D02*
X13749253Y-12532579D01*
X13749253Y-12532579D02*
X13758777Y-12513531D01*
X13758777Y-12513531D02*
X13768301Y-12504008D01*
X13768301Y-12504008D02*
X13787348Y-12494484D01*
X13920682Y-12494484D02*
X14044491Y-12494484D01*
X14044491Y-12494484D02*
X13977825Y-12570674D01*
X13977825Y-12570674D02*
X14006396Y-12570674D01*
X14006396Y-12570674D02*
X14025444Y-12580198D01*
X14025444Y-12580198D02*
X14034967Y-12589722D01*
X14034967Y-12589722D02*
X14044491Y-12608769D01*
X14044491Y-12608769D02*
X14044491Y-12656388D01*
X14044491Y-12656388D02*
X14034967Y-12675436D01*
X14034967Y-12675436D02*
X14025444Y-12684960D01*
X14025444Y-12684960D02*
X14006396Y-12694484D01*
X14006396Y-12694484D02*
X13949253Y-12694484D01*
X13949253Y-12694484D02*
X13930206Y-12684960D01*
X13930206Y-12684960D02*
X13920682Y-12675436D01*
X14111158Y-12494484D02*
X14244491Y-12494484D01*
X14244491Y-12494484D02*
X14158777Y-12694484D01*
X14406396Y-12561150D02*
X14406396Y-12694484D01*
X14358777Y-12484960D02*
X14311158Y-12627817D01*
X14311158Y-12627817D02*
X14434967Y-12627817D01*
X14501634Y-12494484D02*
X14501634Y-12532579D01*
X14577825Y-12494484D02*
X14577825Y-12532579D01*
X14873063Y-12770674D02*
X14863539Y-12761150D01*
X14863539Y-12761150D02*
X14844491Y-12732579D01*
X14844491Y-12732579D02*
X14834968Y-12713531D01*
X14834968Y-12713531D02*
X14825444Y-12684960D01*
X14825444Y-12684960D02*
X14815920Y-12637341D01*
X14815920Y-12637341D02*
X14815920Y-12599246D01*
X14815920Y-12599246D02*
X14825444Y-12551627D01*
X14825444Y-12551627D02*
X14834968Y-12523055D01*
X14834968Y-12523055D02*
X14844491Y-12504008D01*
X14844491Y-12504008D02*
X14863539Y-12475436D01*
X14863539Y-12475436D02*
X14873063Y-12465912D01*
X14939729Y-12513531D02*
X14949253Y-12504008D01*
X14949253Y-12504008D02*
X14968301Y-12494484D01*
X14968301Y-12494484D02*
X15015920Y-12494484D01*
X15015920Y-12494484D02*
X15034968Y-12504008D01*
X15034968Y-12504008D02*
X15044491Y-12513531D01*
X15044491Y-12513531D02*
X15054015Y-12532579D01*
X15054015Y-12532579D02*
X15054015Y-12551627D01*
X15054015Y-12551627D02*
X15044491Y-12580198D01*
X15044491Y-12580198D02*
X14930206Y-12694484D01*
X14930206Y-12694484D02*
X15054015Y-12694484D01*
X15168301Y-12580198D02*
X15149253Y-12570674D01*
X15149253Y-12570674D02*
X15139729Y-12561150D01*
X15139729Y-12561150D02*
X15130206Y-12542103D01*
X15130206Y-12542103D02*
X15130206Y-12532579D01*
X15130206Y-12532579D02*
X15139729Y-12513531D01*
X15139729Y-12513531D02*
X15149253Y-12504008D01*
X15149253Y-12504008D02*
X15168301Y-12494484D01*
X15168301Y-12494484D02*
X15206396Y-12494484D01*
X15206396Y-12494484D02*
X15225444Y-12504008D01*
X15225444Y-12504008D02*
X15234968Y-12513531D01*
X15234968Y-12513531D02*
X15244491Y-12532579D01*
X15244491Y-12532579D02*
X15244491Y-12542103D01*
X15244491Y-12542103D02*
X15234968Y-12561150D01*
X15234968Y-12561150D02*
X15225444Y-12570674D01*
X15225444Y-12570674D02*
X15206396Y-12580198D01*
X15206396Y-12580198D02*
X15168301Y-12580198D01*
X15168301Y-12580198D02*
X15149253Y-12589722D01*
X15149253Y-12589722D02*
X15139729Y-12599246D01*
X15139729Y-12599246D02*
X15130206Y-12618293D01*
X15130206Y-12618293D02*
X15130206Y-12656388D01*
X15130206Y-12656388D02*
X15139729Y-12675436D01*
X15139729Y-12675436D02*
X15149253Y-12684960D01*
X15149253Y-12684960D02*
X15168301Y-12694484D01*
X15168301Y-12694484D02*
X15206396Y-12694484D01*
X15206396Y-12694484D02*
X15225444Y-12684960D01*
X15225444Y-12684960D02*
X15234968Y-12675436D01*
X15234968Y-12675436D02*
X15244491Y-12656388D01*
X15244491Y-12656388D02*
X15244491Y-12618293D01*
X15244491Y-12618293D02*
X15234968Y-12599246D01*
X15234968Y-12599246D02*
X15225444Y-12589722D01*
X15225444Y-12589722D02*
X15206396Y-12580198D01*
X15482587Y-12694484D02*
X15482587Y-12494484D01*
X15568301Y-12694484D02*
X15568301Y-12589722D01*
X15568301Y-12589722D02*
X15558777Y-12570674D01*
X15558777Y-12570674D02*
X15539730Y-12561150D01*
X15539730Y-12561150D02*
X15511158Y-12561150D01*
X15511158Y-12561150D02*
X15492110Y-12570674D01*
X15492110Y-12570674D02*
X15482587Y-12580198D01*
X15692110Y-12694484D02*
X15673063Y-12684960D01*
X15673063Y-12684960D02*
X15663539Y-12675436D01*
X15663539Y-12675436D02*
X15654015Y-12656388D01*
X15654015Y-12656388D02*
X15654015Y-12599246D01*
X15654015Y-12599246D02*
X15663539Y-12580198D01*
X15663539Y-12580198D02*
X15673063Y-12570674D01*
X15673063Y-12570674D02*
X15692110Y-12561150D01*
X15692110Y-12561150D02*
X15720682Y-12561150D01*
X15720682Y-12561150D02*
X15739730Y-12570674D01*
X15739730Y-12570674D02*
X15749253Y-12580198D01*
X15749253Y-12580198D02*
X15758777Y-12599246D01*
X15758777Y-12599246D02*
X15758777Y-12656388D01*
X15758777Y-12656388D02*
X15749253Y-12675436D01*
X15749253Y-12675436D02*
X15739730Y-12684960D01*
X15739730Y-12684960D02*
X15720682Y-12694484D01*
X15720682Y-12694484D02*
X15692110Y-12694484D01*
X15873063Y-12694484D02*
X15854015Y-12684960D01*
X15854015Y-12684960D02*
X15844491Y-12665912D01*
X15844491Y-12665912D02*
X15844491Y-12494484D01*
X16025444Y-12684960D02*
X16006396Y-12694484D01*
X16006396Y-12694484D02*
X15968301Y-12694484D01*
X15968301Y-12694484D02*
X15949253Y-12684960D01*
X15949253Y-12684960D02*
X15939730Y-12665912D01*
X15939730Y-12665912D02*
X15939730Y-12589722D01*
X15939730Y-12589722D02*
X15949253Y-12570674D01*
X15949253Y-12570674D02*
X15968301Y-12561150D01*
X15968301Y-12561150D02*
X16006396Y-12561150D01*
X16006396Y-12561150D02*
X16025444Y-12570674D01*
X16025444Y-12570674D02*
X16034968Y-12589722D01*
X16034968Y-12589722D02*
X16034968Y-12608769D01*
X16034968Y-12608769D02*
X15939730Y-12627817D01*
X16111158Y-12684960D02*
X16130206Y-12694484D01*
X16130206Y-12694484D02*
X16168301Y-12694484D01*
X16168301Y-12694484D02*
X16187349Y-12684960D01*
X16187349Y-12684960D02*
X16196872Y-12665912D01*
X16196872Y-12665912D02*
X16196872Y-12656388D01*
X16196872Y-12656388D02*
X16187349Y-12637341D01*
X16187349Y-12637341D02*
X16168301Y-12627817D01*
X16168301Y-12627817D02*
X16139730Y-12627817D01*
X16139730Y-12627817D02*
X16120682Y-12618293D01*
X16120682Y-12618293D02*
X16111158Y-12599246D01*
X16111158Y-12599246D02*
X16111158Y-12589722D01*
X16111158Y-12589722D02*
X16120682Y-12570674D01*
X16120682Y-12570674D02*
X16139730Y-12561150D01*
X16139730Y-12561150D02*
X16168301Y-12561150D01*
X16168301Y-12561150D02*
X16187349Y-12570674D01*
X16263539Y-12770674D02*
X16273063Y-12761150D01*
X16273063Y-12761150D02*
X16292111Y-12732579D01*
X16292111Y-12732579D02*
X16301634Y-12713531D01*
X16301634Y-12713531D02*
X16311158Y-12684960D01*
X16311158Y-12684960D02*
X16320682Y-12637341D01*
X16320682Y-12637341D02*
X16320682Y-12599246D01*
X16320682Y-12599246D02*
X16311158Y-12551627D01*
X16311158Y-12551627D02*
X16301634Y-12523055D01*
X16301634Y-12523055D02*
X16292111Y-12504008D01*
X16292111Y-12504008D02*
X16273063Y-12475436D01*
X16273063Y-12475436D02*
X16263539Y-12465912D01*
D10*
X11283356Y-12902356D02*
X11283356Y-12831644D01*
X11212644Y-12831644D01*
X11212644Y-12902356D01*
X11283356Y-12902356D01*
D11*
X11663539Y-12958484D02*
X11549253Y-12958484D01*
X11606396Y-12958484D02*
X11606396Y-12758484D01*
X11606396Y-12758484D02*
X11587348Y-12787055D01*
X11587348Y-12787055D02*
X11568301Y-12806103D01*
X11568301Y-12806103D02*
X11549253Y-12815627D01*
X11749253Y-12939436D02*
X11758777Y-12948960D01*
X11758777Y-12948960D02*
X11749253Y-12958484D01*
X11749253Y-12958484D02*
X11739729Y-12948960D01*
X11739729Y-12948960D02*
X11749253Y-12939436D01*
X11749253Y-12939436D02*
X11749253Y-12958484D01*
X11882586Y-12758484D02*
X11901634Y-12758484D01*
X11901634Y-12758484D02*
X11920682Y-12768008D01*
X11920682Y-12768008D02*
X11930205Y-12777531D01*
X11930205Y-12777531D02*
X11939729Y-12796579D01*
X11939729Y-12796579D02*
X11949253Y-12834674D01*
X11949253Y-12834674D02*
X11949253Y-12882293D01*
X11949253Y-12882293D02*
X11939729Y-12920388D01*
X11939729Y-12920388D02*
X11930205Y-12939436D01*
X11930205Y-12939436D02*
X11920682Y-12948960D01*
X11920682Y-12948960D02*
X11901634Y-12958484D01*
X11901634Y-12958484D02*
X11882586Y-12958484D01*
X11882586Y-12958484D02*
X11863539Y-12948960D01*
X11863539Y-12948960D02*
X11854015Y-12939436D01*
X11854015Y-12939436D02*
X11844491Y-12920388D01*
X11844491Y-12920388D02*
X11834967Y-12882293D01*
X11834967Y-12882293D02*
X11834967Y-12834674D01*
X11834967Y-12834674D02*
X11844491Y-12796579D01*
X11844491Y-12796579D02*
X11854015Y-12777531D01*
X11854015Y-12777531D02*
X11863539Y-12768008D01*
X11863539Y-12768008D02*
X11882586Y-12758484D01*
X12073062Y-12758484D02*
X12092110Y-12758484D01*
X12092110Y-12758484D02*
X12111158Y-12768008D01*
X12111158Y-12768008D02*
X12120682Y-12777531D01*
X12120682Y-12777531D02*
X12130205Y-12796579D01*
X12130205Y-12796579D02*
X12139729Y-12834674D01*
X12139729Y-12834674D02*
X12139729Y-12882293D01*
X12139729Y-12882293D02*
X12130205Y-12920388D01*
X12130205Y-12920388D02*
X12120682Y-12939436D01*
X12120682Y-12939436D02*
X12111158Y-12948960D01*
X12111158Y-12948960D02*
X12092110Y-12958484D01*
X12092110Y-12958484D02*
X12073062Y-12958484D01*
X12073062Y-12958484D02*
X12054015Y-12948960D01*
X12054015Y-12948960D02*
X12044491Y-12939436D01*
X12044491Y-12939436D02*
X12034967Y-12920388D01*
X12034967Y-12920388D02*
X12025443Y-12882293D01*
X12025443Y-12882293D02*
X12025443Y-12834674D01*
X12025443Y-12834674D02*
X12034967Y-12796579D01*
X12034967Y-12796579D02*
X12044491Y-12777531D01*
X12044491Y-12777531D02*
X12054015Y-12768008D01*
X12054015Y-12768008D02*
X12073062Y-12758484D01*
X12263539Y-12758484D02*
X12282586Y-12758484D01*
X12282586Y-12758484D02*
X12301634Y-12768008D01*
X12301634Y-12768008D02*
X12311158Y-12777531D01*
X12311158Y-12777531D02*
X12320682Y-12796579D01*
X12320682Y-12796579D02*
X12330205Y-12834674D01*
X12330205Y-12834674D02*
X12330205Y-12882293D01*
X12330205Y-12882293D02*
X12320682Y-12920388D01*
X12320682Y-12920388D02*
X12311158Y-12939436D01*
X12311158Y-12939436D02*
X12301634Y-12948960D01*
X12301634Y-12948960D02*
X12282586Y-12958484D01*
X12282586Y-12958484D02*
X12263539Y-12958484D01*
X12263539Y-12958484D02*
X12244491Y-12948960D01*
X12244491Y-12948960D02*
X12234967Y-12939436D01*
X12234967Y-12939436D02*
X12225443Y-12920388D01*
X12225443Y-12920388D02*
X12215920Y-12882293D01*
X12215920Y-12882293D02*
X12215920Y-12834674D01*
X12215920Y-12834674D02*
X12225443Y-12796579D01*
X12225443Y-12796579D02*
X12234967Y-12777531D01*
X12234967Y-12777531D02*
X12244491Y-12768008D01*
X12244491Y-12768008D02*
X12263539Y-12758484D01*
X12415920Y-12958484D02*
X12415920Y-12825150D01*
X12415920Y-12844198D02*
X12425443Y-12834674D01*
X12425443Y-12834674D02*
X12444491Y-12825150D01*
X12444491Y-12825150D02*
X12473063Y-12825150D01*
X12473063Y-12825150D02*
X12492110Y-12834674D01*
X12492110Y-12834674D02*
X12501634Y-12853722D01*
X12501634Y-12853722D02*
X12501634Y-12958484D01*
X12501634Y-12853722D02*
X12511158Y-12834674D01*
X12511158Y-12834674D02*
X12530205Y-12825150D01*
X12530205Y-12825150D02*
X12558777Y-12825150D01*
X12558777Y-12825150D02*
X12577824Y-12834674D01*
X12577824Y-12834674D02*
X12587348Y-12853722D01*
X12587348Y-12853722D02*
X12587348Y-12958484D01*
X12682586Y-12958484D02*
X12682586Y-12825150D01*
X12682586Y-12844198D02*
X12692110Y-12834674D01*
X12692110Y-12834674D02*
X12711158Y-12825150D01*
X12711158Y-12825150D02*
X12739729Y-12825150D01*
X12739729Y-12825150D02*
X12758777Y-12834674D01*
X12758777Y-12834674D02*
X12768301Y-12853722D01*
X12768301Y-12853722D02*
X12768301Y-12958484D01*
X12768301Y-12853722D02*
X12777824Y-12834674D01*
X12777824Y-12834674D02*
X12796872Y-12825150D01*
X12796872Y-12825150D02*
X12825443Y-12825150D01*
X12825443Y-12825150D02*
X12844491Y-12834674D01*
X12844491Y-12834674D02*
X12854015Y-12853722D01*
X12854015Y-12853722D02*
X12854015Y-12958484D01*
X13244491Y-12748960D02*
X13073063Y-13006103D01*
X13501634Y-12758484D02*
X13520682Y-12758484D01*
X13520682Y-12758484D02*
X13539729Y-12768008D01*
X13539729Y-12768008D02*
X13549253Y-12777531D01*
X13549253Y-12777531D02*
X13558777Y-12796579D01*
X13558777Y-12796579D02*
X13568301Y-12834674D01*
X13568301Y-12834674D02*
X13568301Y-12882293D01*
X13568301Y-12882293D02*
X13558777Y-12920388D01*
X13558777Y-12920388D02*
X13549253Y-12939436D01*
X13549253Y-12939436D02*
X13539729Y-12948960D01*
X13539729Y-12948960D02*
X13520682Y-12958484D01*
X13520682Y-12958484D02*
X13501634Y-12958484D01*
X13501634Y-12958484D02*
X13482586Y-12948960D01*
X13482586Y-12948960D02*
X13473063Y-12939436D01*
X13473063Y-12939436D02*
X13463539Y-12920388D01*
X13463539Y-12920388D02*
X13454015Y-12882293D01*
X13454015Y-12882293D02*
X13454015Y-12834674D01*
X13454015Y-12834674D02*
X13463539Y-12796579D01*
X13463539Y-12796579D02*
X13473063Y-12777531D01*
X13473063Y-12777531D02*
X13482586Y-12768008D01*
X13482586Y-12768008D02*
X13501634Y-12758484D01*
X13654015Y-12939436D02*
X13663539Y-12948960D01*
X13663539Y-12948960D02*
X13654015Y-12958484D01*
X13654015Y-12958484D02*
X13644491Y-12948960D01*
X13644491Y-12948960D02*
X13654015Y-12939436D01*
X13654015Y-12939436D02*
X13654015Y-12958484D01*
X13787348Y-12758484D02*
X13806396Y-12758484D01*
X13806396Y-12758484D02*
X13825444Y-12768008D01*
X13825444Y-12768008D02*
X13834967Y-12777531D01*
X13834967Y-12777531D02*
X13844491Y-12796579D01*
X13844491Y-12796579D02*
X13854015Y-12834674D01*
X13854015Y-12834674D02*
X13854015Y-12882293D01*
X13854015Y-12882293D02*
X13844491Y-12920388D01*
X13844491Y-12920388D02*
X13834967Y-12939436D01*
X13834967Y-12939436D02*
X13825444Y-12948960D01*
X13825444Y-12948960D02*
X13806396Y-12958484D01*
X13806396Y-12958484D02*
X13787348Y-12958484D01*
X13787348Y-12958484D02*
X13768301Y-12948960D01*
X13768301Y-12948960D02*
X13758777Y-12939436D01*
X13758777Y-12939436D02*
X13749253Y-12920388D01*
X13749253Y-12920388D02*
X13739729Y-12882293D01*
X13739729Y-12882293D02*
X13739729Y-12834674D01*
X13739729Y-12834674D02*
X13749253Y-12796579D01*
X13749253Y-12796579D02*
X13758777Y-12777531D01*
X13758777Y-12777531D02*
X13768301Y-12768008D01*
X13768301Y-12768008D02*
X13787348Y-12758484D01*
X13920682Y-12758484D02*
X14044491Y-12758484D01*
X14044491Y-12758484D02*
X13977825Y-12834674D01*
X13977825Y-12834674D02*
X14006396Y-12834674D01*
X14006396Y-12834674D02*
X14025444Y-12844198D01*
X14025444Y-12844198D02*
X14034967Y-12853722D01*
X14034967Y-12853722D02*
X14044491Y-12872769D01*
X14044491Y-12872769D02*
X14044491Y-12920388D01*
X14044491Y-12920388D02*
X14034967Y-12939436D01*
X14034967Y-12939436D02*
X14025444Y-12948960D01*
X14025444Y-12948960D02*
X14006396Y-12958484D01*
X14006396Y-12958484D02*
X13949253Y-12958484D01*
X13949253Y-12958484D02*
X13930206Y-12948960D01*
X13930206Y-12948960D02*
X13920682Y-12939436D01*
X14139729Y-12958484D02*
X14177825Y-12958484D01*
X14177825Y-12958484D02*
X14196872Y-12948960D01*
X14196872Y-12948960D02*
X14206396Y-12939436D01*
X14206396Y-12939436D02*
X14225444Y-12910865D01*
X14225444Y-12910865D02*
X14234967Y-12872769D01*
X14234967Y-12872769D02*
X14234967Y-12796579D01*
X14234967Y-12796579D02*
X14225444Y-12777531D01*
X14225444Y-12777531D02*
X14215920Y-12768008D01*
X14215920Y-12768008D02*
X14196872Y-12758484D01*
X14196872Y-12758484D02*
X14158777Y-12758484D01*
X14158777Y-12758484D02*
X14139729Y-12768008D01*
X14139729Y-12768008D02*
X14130206Y-12777531D01*
X14130206Y-12777531D02*
X14120682Y-12796579D01*
X14120682Y-12796579D02*
X14120682Y-12844198D01*
X14120682Y-12844198D02*
X14130206Y-12863246D01*
X14130206Y-12863246D02*
X14139729Y-12872769D01*
X14139729Y-12872769D02*
X14158777Y-12882293D01*
X14158777Y-12882293D02*
X14196872Y-12882293D01*
X14196872Y-12882293D02*
X14215920Y-12872769D01*
X14215920Y-12872769D02*
X14225444Y-12863246D01*
X14225444Y-12863246D02*
X14234967Y-12844198D01*
X14406396Y-12825150D02*
X14406396Y-12958484D01*
X14358777Y-12748960D02*
X14311158Y-12891817D01*
X14311158Y-12891817D02*
X14434967Y-12891817D01*
X14501634Y-12758484D02*
X14501634Y-12796579D01*
X14577825Y-12758484D02*
X14577825Y-12796579D01*
X14873063Y-13034674D02*
X14863539Y-13025150D01*
X14863539Y-13025150D02*
X14844491Y-12996579D01*
X14844491Y-12996579D02*
X14834968Y-12977531D01*
X14834968Y-12977531D02*
X14825444Y-12948960D01*
X14825444Y-12948960D02*
X14815920Y-12901341D01*
X14815920Y-12901341D02*
X14815920Y-12863246D01*
X14815920Y-12863246D02*
X14825444Y-12815627D01*
X14825444Y-12815627D02*
X14834968Y-12787055D01*
X14834968Y-12787055D02*
X14844491Y-12768008D01*
X14844491Y-12768008D02*
X14863539Y-12739436D01*
X14863539Y-12739436D02*
X14873063Y-12729912D01*
X14930206Y-12758484D02*
X15054015Y-12758484D01*
X15054015Y-12758484D02*
X14987348Y-12834674D01*
X14987348Y-12834674D02*
X15015920Y-12834674D01*
X15015920Y-12834674D02*
X15034968Y-12844198D01*
X15034968Y-12844198D02*
X15044491Y-12853722D01*
X15044491Y-12853722D02*
X15054015Y-12872769D01*
X15054015Y-12872769D02*
X15054015Y-12920388D01*
X15054015Y-12920388D02*
X15044491Y-12939436D01*
X15044491Y-12939436D02*
X15034968Y-12948960D01*
X15034968Y-12948960D02*
X15015920Y-12958484D01*
X15015920Y-12958484D02*
X14958777Y-12958484D01*
X14958777Y-12958484D02*
X14939729Y-12948960D01*
X14939729Y-12948960D02*
X14930206Y-12939436D01*
X15225444Y-12825150D02*
X15225444Y-12958484D01*
X15177825Y-12748960D02*
X15130206Y-12891817D01*
X15130206Y-12891817D02*
X15254015Y-12891817D01*
X15482587Y-12958484D02*
X15482587Y-12758484D01*
X15568301Y-12958484D02*
X15568301Y-12853722D01*
X15568301Y-12853722D02*
X15558777Y-12834674D01*
X15558777Y-12834674D02*
X15539730Y-12825150D01*
X15539730Y-12825150D02*
X15511158Y-12825150D01*
X15511158Y-12825150D02*
X15492110Y-12834674D01*
X15492110Y-12834674D02*
X15482587Y-12844198D01*
X15692110Y-12958484D02*
X15673063Y-12948960D01*
X15673063Y-12948960D02*
X15663539Y-12939436D01*
X15663539Y-12939436D02*
X15654015Y-12920388D01*
X15654015Y-12920388D02*
X15654015Y-12863246D01*
X15654015Y-12863246D02*
X15663539Y-12844198D01*
X15663539Y-12844198D02*
X15673063Y-12834674D01*
X15673063Y-12834674D02*
X15692110Y-12825150D01*
X15692110Y-12825150D02*
X15720682Y-12825150D01*
X15720682Y-12825150D02*
X15739730Y-12834674D01*
X15739730Y-12834674D02*
X15749253Y-12844198D01*
X15749253Y-12844198D02*
X15758777Y-12863246D01*
X15758777Y-12863246D02*
X15758777Y-12920388D01*
X15758777Y-12920388D02*
X15749253Y-12939436D01*
X15749253Y-12939436D02*
X15739730Y-12948960D01*
X15739730Y-12948960D02*
X15720682Y-12958484D01*
X15720682Y-12958484D02*
X15692110Y-12958484D01*
X15873063Y-12958484D02*
X15854015Y-12948960D01*
X15854015Y-12948960D02*
X15844491Y-12929912D01*
X15844491Y-12929912D02*
X15844491Y-12758484D01*
X16025444Y-12948960D02*
X16006396Y-12958484D01*
X16006396Y-12958484D02*
X15968301Y-12958484D01*
X15968301Y-12958484D02*
X15949253Y-12948960D01*
X15949253Y-12948960D02*
X15939730Y-12929912D01*
X15939730Y-12929912D02*
X15939730Y-12853722D01*
X15939730Y-12853722D02*
X15949253Y-12834674D01*
X15949253Y-12834674D02*
X15968301Y-12825150D01*
X15968301Y-12825150D02*
X16006396Y-12825150D01*
X16006396Y-12825150D02*
X16025444Y-12834674D01*
X16025444Y-12834674D02*
X16034968Y-12853722D01*
X16034968Y-12853722D02*
X16034968Y-12872769D01*
X16034968Y-12872769D02*
X15939730Y-12891817D01*
X16111158Y-12948960D02*
X16130206Y-12958484D01*
X16130206Y-12958484D02*
X16168301Y-12958484D01*
X16168301Y-12958484D02*
X16187349Y-12948960D01*
X16187349Y-12948960D02*
X16196872Y-12929912D01*
X16196872Y-12929912D02*
X16196872Y-12920388D01*
X16196872Y-12920388D02*
X16187349Y-12901341D01*
X16187349Y-12901341D02*
X16168301Y-12891817D01*
X16168301Y-12891817D02*
X16139730Y-12891817D01*
X16139730Y-12891817D02*
X16120682Y-12882293D01*
X16120682Y-12882293D02*
X16111158Y-12863246D01*
X16111158Y-12863246D02*
X16111158Y-12853722D01*
X16111158Y-12853722D02*
X16120682Y-12834674D01*
X16120682Y-12834674D02*
X16139730Y-12825150D01*
X16139730Y-12825150D02*
X16168301Y-12825150D01*
X16168301Y-12825150D02*
X16187349Y-12834674D01*
X16263539Y-13034674D02*
X16273063Y-13025150D01*
X16273063Y-13025150D02*
X16292111Y-12996579D01*
X16292111Y-12996579D02*
X16301634Y-12977531D01*
X16301634Y-12977531D02*
X16311158Y-12948960D01*
X16311158Y-12948960D02*
X16320682Y-12901341D01*
X16320682Y-12901341D02*
X16320682Y-12863246D01*
X16320682Y-12863246D02*
X16311158Y-12815627D01*
X16311158Y-12815627D02*
X16301634Y-12787055D01*
X16301634Y-12787055D02*
X16292111Y-12768008D01*
X16292111Y-12768008D02*
X16273063Y-12739436D01*
X16273063Y-12739436D02*
X16263539Y-12729912D01*
D15*
X11247200Y-13181800D02*
X11298000Y-13131000D01*
X11247200Y-13080200D01*
X11196400Y-13131000D01*
X11247200Y-13181800D01*
D11*
X11663539Y-13222484D02*
X11549253Y-13222484D01*
X11606396Y-13222484D02*
X11606396Y-13022484D01*
X11606396Y-13022484D02*
X11587348Y-13051055D01*
X11587348Y-13051055D02*
X11568301Y-13070103D01*
X11568301Y-13070103D02*
X11549253Y-13079627D01*
X11749253Y-13203436D02*
X11758777Y-13212960D01*
X11758777Y-13212960D02*
X11749253Y-13222484D01*
X11749253Y-13222484D02*
X11739729Y-13212960D01*
X11739729Y-13212960D02*
X11749253Y-13203436D01*
X11749253Y-13203436D02*
X11749253Y-13222484D01*
X11882586Y-13022484D02*
X11901634Y-13022484D01*
X11901634Y-13022484D02*
X11920682Y-13032008D01*
X11920682Y-13032008D02*
X11930205Y-13041531D01*
X11930205Y-13041531D02*
X11939729Y-13060579D01*
X11939729Y-13060579D02*
X11949253Y-13098674D01*
X11949253Y-13098674D02*
X11949253Y-13146293D01*
X11949253Y-13146293D02*
X11939729Y-13184388D01*
X11939729Y-13184388D02*
X11930205Y-13203436D01*
X11930205Y-13203436D02*
X11920682Y-13212960D01*
X11920682Y-13212960D02*
X11901634Y-13222484D01*
X11901634Y-13222484D02*
X11882586Y-13222484D01*
X11882586Y-13222484D02*
X11863539Y-13212960D01*
X11863539Y-13212960D02*
X11854015Y-13203436D01*
X11854015Y-13203436D02*
X11844491Y-13184388D01*
X11844491Y-13184388D02*
X11834967Y-13146293D01*
X11834967Y-13146293D02*
X11834967Y-13098674D01*
X11834967Y-13098674D02*
X11844491Y-13060579D01*
X11844491Y-13060579D02*
X11854015Y-13041531D01*
X11854015Y-13041531D02*
X11863539Y-13032008D01*
X11863539Y-13032008D02*
X11882586Y-13022484D01*
X12139729Y-13222484D02*
X12025443Y-13222484D01*
X12082586Y-13222484D02*
X12082586Y-13022484D01*
X12082586Y-13022484D02*
X12063539Y-13051055D01*
X12063539Y-13051055D02*
X12044491Y-13070103D01*
X12044491Y-13070103D02*
X12025443Y-13079627D01*
X12311158Y-13022484D02*
X12273062Y-13022484D01*
X12273062Y-13022484D02*
X12254015Y-13032008D01*
X12254015Y-13032008D02*
X12244491Y-13041531D01*
X12244491Y-13041531D02*
X12225443Y-13070103D01*
X12225443Y-13070103D02*
X12215920Y-13108198D01*
X12215920Y-13108198D02*
X12215920Y-13184388D01*
X12215920Y-13184388D02*
X12225443Y-13203436D01*
X12225443Y-13203436D02*
X12234967Y-13212960D01*
X12234967Y-13212960D02*
X12254015Y-13222484D01*
X12254015Y-13222484D02*
X12292110Y-13222484D01*
X12292110Y-13222484D02*
X12311158Y-13212960D01*
X12311158Y-13212960D02*
X12320682Y-13203436D01*
X12320682Y-13203436D02*
X12330205Y-13184388D01*
X12330205Y-13184388D02*
X12330205Y-13136769D01*
X12330205Y-13136769D02*
X12320682Y-13117722D01*
X12320682Y-13117722D02*
X12311158Y-13108198D01*
X12311158Y-13108198D02*
X12292110Y-13098674D01*
X12292110Y-13098674D02*
X12254015Y-13098674D01*
X12254015Y-13098674D02*
X12234967Y-13108198D01*
X12234967Y-13108198D02*
X12225443Y-13117722D01*
X12225443Y-13117722D02*
X12215920Y-13136769D01*
X12415920Y-13222484D02*
X12415920Y-13089150D01*
X12415920Y-13108198D02*
X12425443Y-13098674D01*
X12425443Y-13098674D02*
X12444491Y-13089150D01*
X12444491Y-13089150D02*
X12473063Y-13089150D01*
X12473063Y-13089150D02*
X12492110Y-13098674D01*
X12492110Y-13098674D02*
X12501634Y-13117722D01*
X12501634Y-13117722D02*
X12501634Y-13222484D01*
X12501634Y-13117722D02*
X12511158Y-13098674D01*
X12511158Y-13098674D02*
X12530205Y-13089150D01*
X12530205Y-13089150D02*
X12558777Y-13089150D01*
X12558777Y-13089150D02*
X12577824Y-13098674D01*
X12577824Y-13098674D02*
X12587348Y-13117722D01*
X12587348Y-13117722D02*
X12587348Y-13222484D01*
X12682586Y-13222484D02*
X12682586Y-13089150D01*
X12682586Y-13108198D02*
X12692110Y-13098674D01*
X12692110Y-13098674D02*
X12711158Y-13089150D01*
X12711158Y-13089150D02*
X12739729Y-13089150D01*
X12739729Y-13089150D02*
X12758777Y-13098674D01*
X12758777Y-13098674D02*
X12768301Y-13117722D01*
X12768301Y-13117722D02*
X12768301Y-13222484D01*
X12768301Y-13117722D02*
X12777824Y-13098674D01*
X12777824Y-13098674D02*
X12796872Y-13089150D01*
X12796872Y-13089150D02*
X12825443Y-13089150D01*
X12825443Y-13089150D02*
X12844491Y-13098674D01*
X12844491Y-13098674D02*
X12854015Y-13117722D01*
X12854015Y-13117722D02*
X12854015Y-13222484D01*
X13244491Y-13012960D02*
X13073063Y-13270103D01*
X13501634Y-13022484D02*
X13520682Y-13022484D01*
X13520682Y-13022484D02*
X13539729Y-13032008D01*
X13539729Y-13032008D02*
X13549253Y-13041531D01*
X13549253Y-13041531D02*
X13558777Y-13060579D01*
X13558777Y-13060579D02*
X13568301Y-13098674D01*
X13568301Y-13098674D02*
X13568301Y-13146293D01*
X13568301Y-13146293D02*
X13558777Y-13184388D01*
X13558777Y-13184388D02*
X13549253Y-13203436D01*
X13549253Y-13203436D02*
X13539729Y-13212960D01*
X13539729Y-13212960D02*
X13520682Y-13222484D01*
X13520682Y-13222484D02*
X13501634Y-13222484D01*
X13501634Y-13222484D02*
X13482586Y-13212960D01*
X13482586Y-13212960D02*
X13473063Y-13203436D01*
X13473063Y-13203436D02*
X13463539Y-13184388D01*
X13463539Y-13184388D02*
X13454015Y-13146293D01*
X13454015Y-13146293D02*
X13454015Y-13098674D01*
X13454015Y-13098674D02*
X13463539Y-13060579D01*
X13463539Y-13060579D02*
X13473063Y-13041531D01*
X13473063Y-13041531D02*
X13482586Y-13032008D01*
X13482586Y-13032008D02*
X13501634Y-13022484D01*
X13654015Y-13203436D02*
X13663539Y-13212960D01*
X13663539Y-13212960D02*
X13654015Y-13222484D01*
X13654015Y-13222484D02*
X13644491Y-13212960D01*
X13644491Y-13212960D02*
X13654015Y-13203436D01*
X13654015Y-13203436D02*
X13654015Y-13222484D01*
X13787348Y-13022484D02*
X13806396Y-13022484D01*
X13806396Y-13022484D02*
X13825444Y-13032008D01*
X13825444Y-13032008D02*
X13834967Y-13041531D01*
X13834967Y-13041531D02*
X13844491Y-13060579D01*
X13844491Y-13060579D02*
X13854015Y-13098674D01*
X13854015Y-13098674D02*
X13854015Y-13146293D01*
X13854015Y-13146293D02*
X13844491Y-13184388D01*
X13844491Y-13184388D02*
X13834967Y-13203436D01*
X13834967Y-13203436D02*
X13825444Y-13212960D01*
X13825444Y-13212960D02*
X13806396Y-13222484D01*
X13806396Y-13222484D02*
X13787348Y-13222484D01*
X13787348Y-13222484D02*
X13768301Y-13212960D01*
X13768301Y-13212960D02*
X13758777Y-13203436D01*
X13758777Y-13203436D02*
X13749253Y-13184388D01*
X13749253Y-13184388D02*
X13739729Y-13146293D01*
X13739729Y-13146293D02*
X13739729Y-13098674D01*
X13739729Y-13098674D02*
X13749253Y-13060579D01*
X13749253Y-13060579D02*
X13758777Y-13041531D01*
X13758777Y-13041531D02*
X13768301Y-13032008D01*
X13768301Y-13032008D02*
X13787348Y-13022484D01*
X14025444Y-13089150D02*
X14025444Y-13222484D01*
X13977825Y-13012960D02*
X13930206Y-13155817D01*
X13930206Y-13155817D02*
X14054015Y-13155817D01*
X14168301Y-13022484D02*
X14187348Y-13022484D01*
X14187348Y-13022484D02*
X14206396Y-13032008D01*
X14206396Y-13032008D02*
X14215920Y-13041531D01*
X14215920Y-13041531D02*
X14225444Y-13060579D01*
X14225444Y-13060579D02*
X14234967Y-13098674D01*
X14234967Y-13098674D02*
X14234967Y-13146293D01*
X14234967Y-13146293D02*
X14225444Y-13184388D01*
X14225444Y-13184388D02*
X14215920Y-13203436D01*
X14215920Y-13203436D02*
X14206396Y-13212960D01*
X14206396Y-13212960D02*
X14187348Y-13222484D01*
X14187348Y-13222484D02*
X14168301Y-13222484D01*
X14168301Y-13222484D02*
X14149253Y-13212960D01*
X14149253Y-13212960D02*
X14139729Y-13203436D01*
X14139729Y-13203436D02*
X14130206Y-13184388D01*
X14130206Y-13184388D02*
X14120682Y-13146293D01*
X14120682Y-13146293D02*
X14120682Y-13098674D01*
X14120682Y-13098674D02*
X14130206Y-13060579D01*
X14130206Y-13060579D02*
X14139729Y-13041531D01*
X14139729Y-13041531D02*
X14149253Y-13032008D01*
X14149253Y-13032008D02*
X14168301Y-13022484D01*
X14358777Y-13022484D02*
X14377825Y-13022484D01*
X14377825Y-13022484D02*
X14396872Y-13032008D01*
X14396872Y-13032008D02*
X14406396Y-13041531D01*
X14406396Y-13041531D02*
X14415920Y-13060579D01*
X14415920Y-13060579D02*
X14425444Y-13098674D01*
X14425444Y-13098674D02*
X14425444Y-13146293D01*
X14425444Y-13146293D02*
X14415920Y-13184388D01*
X14415920Y-13184388D02*
X14406396Y-13203436D01*
X14406396Y-13203436D02*
X14396872Y-13212960D01*
X14396872Y-13212960D02*
X14377825Y-13222484D01*
X14377825Y-13222484D02*
X14358777Y-13222484D01*
X14358777Y-13222484D02*
X14339729Y-13212960D01*
X14339729Y-13212960D02*
X14330206Y-13203436D01*
X14330206Y-13203436D02*
X14320682Y-13184388D01*
X14320682Y-13184388D02*
X14311158Y-13146293D01*
X14311158Y-13146293D02*
X14311158Y-13098674D01*
X14311158Y-13098674D02*
X14320682Y-13060579D01*
X14320682Y-13060579D02*
X14330206Y-13041531D01*
X14330206Y-13041531D02*
X14339729Y-13032008D01*
X14339729Y-13032008D02*
X14358777Y-13022484D01*
X14501634Y-13022484D02*
X14501634Y-13060579D01*
X14577825Y-13022484D02*
X14577825Y-13060579D01*
X14873063Y-13298674D02*
X14863539Y-13289150D01*
X14863539Y-13289150D02*
X14844491Y-13260579D01*
X14844491Y-13260579D02*
X14834968Y-13241531D01*
X14834968Y-13241531D02*
X14825444Y-13212960D01*
X14825444Y-13212960D02*
X14815920Y-13165341D01*
X14815920Y-13165341D02*
X14815920Y-13127246D01*
X14815920Y-13127246D02*
X14825444Y-13079627D01*
X14825444Y-13079627D02*
X14834968Y-13051055D01*
X14834968Y-13051055D02*
X14844491Y-13032008D01*
X14844491Y-13032008D02*
X14863539Y-13003436D01*
X14863539Y-13003436D02*
X14873063Y-12993912D01*
X14930206Y-13022484D02*
X15054015Y-13022484D01*
X15054015Y-13022484D02*
X14987348Y-13098674D01*
X14987348Y-13098674D02*
X15015920Y-13098674D01*
X15015920Y-13098674D02*
X15034968Y-13108198D01*
X15034968Y-13108198D02*
X15044491Y-13117722D01*
X15044491Y-13117722D02*
X15054015Y-13136769D01*
X15054015Y-13136769D02*
X15054015Y-13184388D01*
X15054015Y-13184388D02*
X15044491Y-13203436D01*
X15044491Y-13203436D02*
X15034968Y-13212960D01*
X15034968Y-13212960D02*
X15015920Y-13222484D01*
X15015920Y-13222484D02*
X14958777Y-13222484D01*
X14958777Y-13222484D02*
X14939729Y-13212960D01*
X14939729Y-13212960D02*
X14930206Y-13203436D01*
X15177825Y-13022484D02*
X15196872Y-13022484D01*
X15196872Y-13022484D02*
X15215920Y-13032008D01*
X15215920Y-13032008D02*
X15225444Y-13041531D01*
X15225444Y-13041531D02*
X15234968Y-13060579D01*
X15234968Y-13060579D02*
X15244491Y-13098674D01*
X15244491Y-13098674D02*
X15244491Y-13146293D01*
X15244491Y-13146293D02*
X15234968Y-13184388D01*
X15234968Y-13184388D02*
X15225444Y-13203436D01*
X15225444Y-13203436D02*
X15215920Y-13212960D01*
X15215920Y-13212960D02*
X15196872Y-13222484D01*
X15196872Y-13222484D02*
X15177825Y-13222484D01*
X15177825Y-13222484D02*
X15158777Y-13212960D01*
X15158777Y-13212960D02*
X15149253Y-13203436D01*
X15149253Y-13203436D02*
X15139729Y-13184388D01*
X15139729Y-13184388D02*
X15130206Y-13146293D01*
X15130206Y-13146293D02*
X15130206Y-13098674D01*
X15130206Y-13098674D02*
X15139729Y-13060579D01*
X15139729Y-13060579D02*
X15149253Y-13041531D01*
X15149253Y-13041531D02*
X15158777Y-13032008D01*
X15158777Y-13032008D02*
X15177825Y-13022484D01*
X15482587Y-13222484D02*
X15482587Y-13022484D01*
X15568301Y-13222484D02*
X15568301Y-13117722D01*
X15568301Y-13117722D02*
X15558777Y-13098674D01*
X15558777Y-13098674D02*
X15539730Y-13089150D01*
X15539730Y-13089150D02*
X15511158Y-13089150D01*
X15511158Y-13089150D02*
X15492110Y-13098674D01*
X15492110Y-13098674D02*
X15482587Y-13108198D01*
X15692110Y-13222484D02*
X15673063Y-13212960D01*
X15673063Y-13212960D02*
X15663539Y-13203436D01*
X15663539Y-13203436D02*
X15654015Y-13184388D01*
X15654015Y-13184388D02*
X15654015Y-13127246D01*
X15654015Y-13127246D02*
X15663539Y-13108198D01*
X15663539Y-13108198D02*
X15673063Y-13098674D01*
X15673063Y-13098674D02*
X15692110Y-13089150D01*
X15692110Y-13089150D02*
X15720682Y-13089150D01*
X15720682Y-13089150D02*
X15739730Y-13098674D01*
X15739730Y-13098674D02*
X15749253Y-13108198D01*
X15749253Y-13108198D02*
X15758777Y-13127246D01*
X15758777Y-13127246D02*
X15758777Y-13184388D01*
X15758777Y-13184388D02*
X15749253Y-13203436D01*
X15749253Y-13203436D02*
X15739730Y-13212960D01*
X15739730Y-13212960D02*
X15720682Y-13222484D01*
X15720682Y-13222484D02*
X15692110Y-13222484D01*
X15873063Y-13222484D02*
X15854015Y-13212960D01*
X15854015Y-13212960D02*
X15844491Y-13193912D01*
X15844491Y-13193912D02*
X15844491Y-13022484D01*
X16025444Y-13212960D02*
X16006396Y-13222484D01*
X16006396Y-13222484D02*
X15968301Y-13222484D01*
X15968301Y-13222484D02*
X15949253Y-13212960D01*
X15949253Y-13212960D02*
X15939730Y-13193912D01*
X15939730Y-13193912D02*
X15939730Y-13117722D01*
X15939730Y-13117722D02*
X15949253Y-13098674D01*
X15949253Y-13098674D02*
X15968301Y-13089150D01*
X15968301Y-13089150D02*
X16006396Y-13089150D01*
X16006396Y-13089150D02*
X16025444Y-13098674D01*
X16025444Y-13098674D02*
X16034968Y-13117722D01*
X16034968Y-13117722D02*
X16034968Y-13136769D01*
X16034968Y-13136769D02*
X15939730Y-13155817D01*
X16111158Y-13212960D02*
X16130206Y-13222484D01*
X16130206Y-13222484D02*
X16168301Y-13222484D01*
X16168301Y-13222484D02*
X16187349Y-13212960D01*
X16187349Y-13212960D02*
X16196872Y-13193912D01*
X16196872Y-13193912D02*
X16196872Y-13184388D01*
X16196872Y-13184388D02*
X16187349Y-13165341D01*
X16187349Y-13165341D02*
X16168301Y-13155817D01*
X16168301Y-13155817D02*
X16139730Y-13155817D01*
X16139730Y-13155817D02*
X16120682Y-13146293D01*
X16120682Y-13146293D02*
X16111158Y-13127246D01*
X16111158Y-13127246D02*
X16111158Y-13117722D01*
X16111158Y-13117722D02*
X16120682Y-13098674D01*
X16120682Y-13098674D02*
X16139730Y-13089150D01*
X16139730Y-13089150D02*
X16168301Y-13089150D01*
X16168301Y-13089150D02*
X16187349Y-13098674D01*
X16263539Y-13298674D02*
X16273063Y-13289150D01*
X16273063Y-13289150D02*
X16292111Y-13260579D01*
X16292111Y-13260579D02*
X16301634Y-13241531D01*
X16301634Y-13241531D02*
X16311158Y-13212960D01*
X16311158Y-13212960D02*
X16320682Y-13165341D01*
X16320682Y-13165341D02*
X16320682Y-13127246D01*
X16320682Y-13127246D02*
X16311158Y-13079627D01*
X16311158Y-13079627D02*
X16301634Y-13051055D01*
X16301634Y-13051055D02*
X16292111Y-13032008D01*
X16292111Y-13032008D02*
X16273063Y-13003436D01*
X16273063Y-13003436D02*
X16263539Y-12993912D01*
D16*
X11113000Y-13302500D02*
X11298000Y-13487500D01*
X11298000Y-13302500D02*
X11113000Y-13487500D01*
X11298000Y-13395000D02*
G75*
G03*
X11298000Y-13395000I-92500J0D01*
G01*
D11*
X11663539Y-13486484D02*
X11549253Y-13486484D01*
X11606396Y-13486484D02*
X11606396Y-13286484D01*
X11606396Y-13286484D02*
X11587348Y-13315055D01*
X11587348Y-13315055D02*
X11568301Y-13334103D01*
X11568301Y-13334103D02*
X11549253Y-13343627D01*
X11749253Y-13467436D02*
X11758777Y-13476960D01*
X11758777Y-13476960D02*
X11749253Y-13486484D01*
X11749253Y-13486484D02*
X11739729Y-13476960D01*
X11739729Y-13476960D02*
X11749253Y-13467436D01*
X11749253Y-13467436D02*
X11749253Y-13486484D01*
X11873062Y-13372198D02*
X11854015Y-13362674D01*
X11854015Y-13362674D02*
X11844491Y-13353150D01*
X11844491Y-13353150D02*
X11834967Y-13334103D01*
X11834967Y-13334103D02*
X11834967Y-13324579D01*
X11834967Y-13324579D02*
X11844491Y-13305531D01*
X11844491Y-13305531D02*
X11854015Y-13296008D01*
X11854015Y-13296008D02*
X11873062Y-13286484D01*
X11873062Y-13286484D02*
X11911158Y-13286484D01*
X11911158Y-13286484D02*
X11930205Y-13296008D01*
X11930205Y-13296008D02*
X11939729Y-13305531D01*
X11939729Y-13305531D02*
X11949253Y-13324579D01*
X11949253Y-13324579D02*
X11949253Y-13334103D01*
X11949253Y-13334103D02*
X11939729Y-13353150D01*
X11939729Y-13353150D02*
X11930205Y-13362674D01*
X11930205Y-13362674D02*
X11911158Y-13372198D01*
X11911158Y-13372198D02*
X11873062Y-13372198D01*
X11873062Y-13372198D02*
X11854015Y-13381722D01*
X11854015Y-13381722D02*
X11844491Y-13391246D01*
X11844491Y-13391246D02*
X11834967Y-13410293D01*
X11834967Y-13410293D02*
X11834967Y-13448388D01*
X11834967Y-13448388D02*
X11844491Y-13467436D01*
X11844491Y-13467436D02*
X11854015Y-13476960D01*
X11854015Y-13476960D02*
X11873062Y-13486484D01*
X11873062Y-13486484D02*
X11911158Y-13486484D01*
X11911158Y-13486484D02*
X11930205Y-13476960D01*
X11930205Y-13476960D02*
X11939729Y-13467436D01*
X11939729Y-13467436D02*
X11949253Y-13448388D01*
X11949253Y-13448388D02*
X11949253Y-13410293D01*
X11949253Y-13410293D02*
X11939729Y-13391246D01*
X11939729Y-13391246D02*
X11930205Y-13381722D01*
X11930205Y-13381722D02*
X11911158Y-13372198D01*
X12130205Y-13286484D02*
X12034967Y-13286484D01*
X12034967Y-13286484D02*
X12025443Y-13381722D01*
X12025443Y-13381722D02*
X12034967Y-13372198D01*
X12034967Y-13372198D02*
X12054015Y-13362674D01*
X12054015Y-13362674D02*
X12101634Y-13362674D01*
X12101634Y-13362674D02*
X12120682Y-13372198D01*
X12120682Y-13372198D02*
X12130205Y-13381722D01*
X12130205Y-13381722D02*
X12139729Y-13400769D01*
X12139729Y-13400769D02*
X12139729Y-13448388D01*
X12139729Y-13448388D02*
X12130205Y-13467436D01*
X12130205Y-13467436D02*
X12120682Y-13476960D01*
X12120682Y-13476960D02*
X12101634Y-13486484D01*
X12101634Y-13486484D02*
X12054015Y-13486484D01*
X12054015Y-13486484D02*
X12034967Y-13476960D01*
X12034967Y-13476960D02*
X12025443Y-13467436D01*
X12263539Y-13286484D02*
X12282586Y-13286484D01*
X12282586Y-13286484D02*
X12301634Y-13296008D01*
X12301634Y-13296008D02*
X12311158Y-13305531D01*
X12311158Y-13305531D02*
X12320682Y-13324579D01*
X12320682Y-13324579D02*
X12330205Y-13362674D01*
X12330205Y-13362674D02*
X12330205Y-13410293D01*
X12330205Y-13410293D02*
X12320682Y-13448388D01*
X12320682Y-13448388D02*
X12311158Y-13467436D01*
X12311158Y-13467436D02*
X12301634Y-13476960D01*
X12301634Y-13476960D02*
X12282586Y-13486484D01*
X12282586Y-13486484D02*
X12263539Y-13486484D01*
X12263539Y-13486484D02*
X12244491Y-13476960D01*
X12244491Y-13476960D02*
X12234967Y-13467436D01*
X12234967Y-13467436D02*
X12225443Y-13448388D01*
X12225443Y-13448388D02*
X12215920Y-13410293D01*
X12215920Y-13410293D02*
X12215920Y-13362674D01*
X12215920Y-13362674D02*
X12225443Y-13324579D01*
X12225443Y-13324579D02*
X12234967Y-13305531D01*
X12234967Y-13305531D02*
X12244491Y-13296008D01*
X12244491Y-13296008D02*
X12263539Y-13286484D01*
X12415920Y-13486484D02*
X12415920Y-13353150D01*
X12415920Y-13372198D02*
X12425443Y-13362674D01*
X12425443Y-13362674D02*
X12444491Y-13353150D01*
X12444491Y-13353150D02*
X12473063Y-13353150D01*
X12473063Y-13353150D02*
X12492110Y-13362674D01*
X12492110Y-13362674D02*
X12501634Y-13381722D01*
X12501634Y-13381722D02*
X12501634Y-13486484D01*
X12501634Y-13381722D02*
X12511158Y-13362674D01*
X12511158Y-13362674D02*
X12530205Y-13353150D01*
X12530205Y-13353150D02*
X12558777Y-13353150D01*
X12558777Y-13353150D02*
X12577824Y-13362674D01*
X12577824Y-13362674D02*
X12587348Y-13381722D01*
X12587348Y-13381722D02*
X12587348Y-13486484D01*
X12682586Y-13486484D02*
X12682586Y-13353150D01*
X12682586Y-13372198D02*
X12692110Y-13362674D01*
X12692110Y-13362674D02*
X12711158Y-13353150D01*
X12711158Y-13353150D02*
X12739729Y-13353150D01*
X12739729Y-13353150D02*
X12758777Y-13362674D01*
X12758777Y-13362674D02*
X12768301Y-13381722D01*
X12768301Y-13381722D02*
X12768301Y-13486484D01*
X12768301Y-13381722D02*
X12777824Y-13362674D01*
X12777824Y-13362674D02*
X12796872Y-13353150D01*
X12796872Y-13353150D02*
X12825443Y-13353150D01*
X12825443Y-13353150D02*
X12844491Y-13362674D01*
X12844491Y-13362674D02*
X12854015Y-13381722D01*
X12854015Y-13381722D02*
X12854015Y-13486484D01*
X13244491Y-13276960D02*
X13073063Y-13534103D01*
X13501634Y-13286484D02*
X13520682Y-13286484D01*
X13520682Y-13286484D02*
X13539729Y-13296008D01*
X13539729Y-13296008D02*
X13549253Y-13305531D01*
X13549253Y-13305531D02*
X13558777Y-13324579D01*
X13558777Y-13324579D02*
X13568301Y-13362674D01*
X13568301Y-13362674D02*
X13568301Y-13410293D01*
X13568301Y-13410293D02*
X13558777Y-13448388D01*
X13558777Y-13448388D02*
X13549253Y-13467436D01*
X13549253Y-13467436D02*
X13539729Y-13476960D01*
X13539729Y-13476960D02*
X13520682Y-13486484D01*
X13520682Y-13486484D02*
X13501634Y-13486484D01*
X13501634Y-13486484D02*
X13482586Y-13476960D01*
X13482586Y-13476960D02*
X13473063Y-13467436D01*
X13473063Y-13467436D02*
X13463539Y-13448388D01*
X13463539Y-13448388D02*
X13454015Y-13410293D01*
X13454015Y-13410293D02*
X13454015Y-13362674D01*
X13454015Y-13362674D02*
X13463539Y-13324579D01*
X13463539Y-13324579D02*
X13473063Y-13305531D01*
X13473063Y-13305531D02*
X13482586Y-13296008D01*
X13482586Y-13296008D02*
X13501634Y-13286484D01*
X13654015Y-13467436D02*
X13663539Y-13476960D01*
X13663539Y-13476960D02*
X13654015Y-13486484D01*
X13654015Y-13486484D02*
X13644491Y-13476960D01*
X13644491Y-13476960D02*
X13654015Y-13467436D01*
X13654015Y-13467436D02*
X13654015Y-13486484D01*
X13787348Y-13286484D02*
X13806396Y-13286484D01*
X13806396Y-13286484D02*
X13825444Y-13296008D01*
X13825444Y-13296008D02*
X13834967Y-13305531D01*
X13834967Y-13305531D02*
X13844491Y-13324579D01*
X13844491Y-13324579D02*
X13854015Y-13362674D01*
X13854015Y-13362674D02*
X13854015Y-13410293D01*
X13854015Y-13410293D02*
X13844491Y-13448388D01*
X13844491Y-13448388D02*
X13834967Y-13467436D01*
X13834967Y-13467436D02*
X13825444Y-13476960D01*
X13825444Y-13476960D02*
X13806396Y-13486484D01*
X13806396Y-13486484D02*
X13787348Y-13486484D01*
X13787348Y-13486484D02*
X13768301Y-13476960D01*
X13768301Y-13476960D02*
X13758777Y-13467436D01*
X13758777Y-13467436D02*
X13749253Y-13448388D01*
X13749253Y-13448388D02*
X13739729Y-13410293D01*
X13739729Y-13410293D02*
X13739729Y-13362674D01*
X13739729Y-13362674D02*
X13749253Y-13324579D01*
X13749253Y-13324579D02*
X13758777Y-13305531D01*
X13758777Y-13305531D02*
X13768301Y-13296008D01*
X13768301Y-13296008D02*
X13787348Y-13286484D01*
X13920682Y-13286484D02*
X14054015Y-13286484D01*
X14054015Y-13286484D02*
X13968301Y-13486484D01*
X14120682Y-13305531D02*
X14130206Y-13296008D01*
X14130206Y-13296008D02*
X14149253Y-13286484D01*
X14149253Y-13286484D02*
X14196872Y-13286484D01*
X14196872Y-13286484D02*
X14215920Y-13296008D01*
X14215920Y-13296008D02*
X14225444Y-13305531D01*
X14225444Y-13305531D02*
X14234967Y-13324579D01*
X14234967Y-13324579D02*
X14234967Y-13343627D01*
X14234967Y-13343627D02*
X14225444Y-13372198D01*
X14225444Y-13372198D02*
X14111158Y-13486484D01*
X14111158Y-13486484D02*
X14234967Y-13486484D01*
X14349253Y-13372198D02*
X14330206Y-13362674D01*
X14330206Y-13362674D02*
X14320682Y-13353150D01*
X14320682Y-13353150D02*
X14311158Y-13334103D01*
X14311158Y-13334103D02*
X14311158Y-13324579D01*
X14311158Y-13324579D02*
X14320682Y-13305531D01*
X14320682Y-13305531D02*
X14330206Y-13296008D01*
X14330206Y-13296008D02*
X14349253Y-13286484D01*
X14349253Y-13286484D02*
X14387348Y-13286484D01*
X14387348Y-13286484D02*
X14406396Y-13296008D01*
X14406396Y-13296008D02*
X14415920Y-13305531D01*
X14415920Y-13305531D02*
X14425444Y-13324579D01*
X14425444Y-13324579D02*
X14425444Y-13334103D01*
X14425444Y-13334103D02*
X14415920Y-13353150D01*
X14415920Y-13353150D02*
X14406396Y-13362674D01*
X14406396Y-13362674D02*
X14387348Y-13372198D01*
X14387348Y-13372198D02*
X14349253Y-13372198D01*
X14349253Y-13372198D02*
X14330206Y-13381722D01*
X14330206Y-13381722D02*
X14320682Y-13391246D01*
X14320682Y-13391246D02*
X14311158Y-13410293D01*
X14311158Y-13410293D02*
X14311158Y-13448388D01*
X14311158Y-13448388D02*
X14320682Y-13467436D01*
X14320682Y-13467436D02*
X14330206Y-13476960D01*
X14330206Y-13476960D02*
X14349253Y-13486484D01*
X14349253Y-13486484D02*
X14387348Y-13486484D01*
X14387348Y-13486484D02*
X14406396Y-13476960D01*
X14406396Y-13476960D02*
X14415920Y-13467436D01*
X14415920Y-13467436D02*
X14425444Y-13448388D01*
X14425444Y-13448388D02*
X14425444Y-13410293D01*
X14425444Y-13410293D02*
X14415920Y-13391246D01*
X14415920Y-13391246D02*
X14406396Y-13381722D01*
X14406396Y-13381722D02*
X14387348Y-13372198D01*
X14501634Y-13286484D02*
X14501634Y-13324579D01*
X14577825Y-13286484D02*
X14577825Y-13324579D01*
X14873063Y-13562674D02*
X14863539Y-13553150D01*
X14863539Y-13553150D02*
X14844491Y-13524579D01*
X14844491Y-13524579D02*
X14834968Y-13505531D01*
X14834968Y-13505531D02*
X14825444Y-13476960D01*
X14825444Y-13476960D02*
X14815920Y-13429341D01*
X14815920Y-13429341D02*
X14815920Y-13391246D01*
X14815920Y-13391246D02*
X14825444Y-13343627D01*
X14825444Y-13343627D02*
X14834968Y-13315055D01*
X14834968Y-13315055D02*
X14844491Y-13296008D01*
X14844491Y-13296008D02*
X14863539Y-13267436D01*
X14863539Y-13267436D02*
X14873063Y-13257912D01*
X14939729Y-13305531D02*
X14949253Y-13296008D01*
X14949253Y-13296008D02*
X14968301Y-13286484D01*
X14968301Y-13286484D02*
X15015920Y-13286484D01*
X15015920Y-13286484D02*
X15034968Y-13296008D01*
X15034968Y-13296008D02*
X15044491Y-13305531D01*
X15044491Y-13305531D02*
X15054015Y-13324579D01*
X15054015Y-13324579D02*
X15054015Y-13343627D01*
X15054015Y-13343627D02*
X15044491Y-13372198D01*
X15044491Y-13372198D02*
X14930206Y-13486484D01*
X14930206Y-13486484D02*
X15054015Y-13486484D01*
X15292110Y-13486484D02*
X15292110Y-13286484D01*
X15377825Y-13486484D02*
X15377825Y-13381722D01*
X15377825Y-13381722D02*
X15368301Y-13362674D01*
X15368301Y-13362674D02*
X15349253Y-13353150D01*
X15349253Y-13353150D02*
X15320682Y-13353150D01*
X15320682Y-13353150D02*
X15301634Y-13362674D01*
X15301634Y-13362674D02*
X15292110Y-13372198D01*
X15501634Y-13486484D02*
X15482587Y-13476960D01*
X15482587Y-13476960D02*
X15473063Y-13467436D01*
X15473063Y-13467436D02*
X15463539Y-13448388D01*
X15463539Y-13448388D02*
X15463539Y-13391246D01*
X15463539Y-13391246D02*
X15473063Y-13372198D01*
X15473063Y-13372198D02*
X15482587Y-13362674D01*
X15482587Y-13362674D02*
X15501634Y-13353150D01*
X15501634Y-13353150D02*
X15530206Y-13353150D01*
X15530206Y-13353150D02*
X15549253Y-13362674D01*
X15549253Y-13362674D02*
X15558777Y-13372198D01*
X15558777Y-13372198D02*
X15568301Y-13391246D01*
X15568301Y-13391246D02*
X15568301Y-13448388D01*
X15568301Y-13448388D02*
X15558777Y-13467436D01*
X15558777Y-13467436D02*
X15549253Y-13476960D01*
X15549253Y-13476960D02*
X15530206Y-13486484D01*
X15530206Y-13486484D02*
X15501634Y-13486484D01*
X15682587Y-13486484D02*
X15663539Y-13476960D01*
X15663539Y-13476960D02*
X15654015Y-13457912D01*
X15654015Y-13457912D02*
X15654015Y-13286484D01*
X15834968Y-13476960D02*
X15815920Y-13486484D01*
X15815920Y-13486484D02*
X15777825Y-13486484D01*
X15777825Y-13486484D02*
X15758777Y-13476960D01*
X15758777Y-13476960D02*
X15749253Y-13457912D01*
X15749253Y-13457912D02*
X15749253Y-13381722D01*
X15749253Y-13381722D02*
X15758777Y-13362674D01*
X15758777Y-13362674D02*
X15777825Y-13353150D01*
X15777825Y-13353150D02*
X15815920Y-13353150D01*
X15815920Y-13353150D02*
X15834968Y-13362674D01*
X15834968Y-13362674D02*
X15844491Y-13381722D01*
X15844491Y-13381722D02*
X15844491Y-13400769D01*
X15844491Y-13400769D02*
X15749253Y-13419817D01*
X15920682Y-13476960D02*
X15939730Y-13486484D01*
X15939730Y-13486484D02*
X15977825Y-13486484D01*
X15977825Y-13486484D02*
X15996872Y-13476960D01*
X15996872Y-13476960D02*
X16006396Y-13457912D01*
X16006396Y-13457912D02*
X16006396Y-13448388D01*
X16006396Y-13448388D02*
X15996872Y-13429341D01*
X15996872Y-13429341D02*
X15977825Y-13419817D01*
X15977825Y-13419817D02*
X15949253Y-13419817D01*
X15949253Y-13419817D02*
X15930206Y-13410293D01*
X15930206Y-13410293D02*
X15920682Y-13391246D01*
X15920682Y-13391246D02*
X15920682Y-13381722D01*
X15920682Y-13381722D02*
X15930206Y-13362674D01*
X15930206Y-13362674D02*
X15949253Y-13353150D01*
X15949253Y-13353150D02*
X15977825Y-13353150D01*
X15977825Y-13353150D02*
X15996872Y-13362674D01*
X16073063Y-13562674D02*
X16082587Y-13553150D01*
X16082587Y-13553150D02*
X16101634Y-13524579D01*
X16101634Y-13524579D02*
X16111158Y-13505531D01*
X16111158Y-13505531D02*
X16120682Y-13476960D01*
X16120682Y-13476960D02*
X16130206Y-13429341D01*
X16130206Y-13429341D02*
X16130206Y-13391246D01*
X16130206Y-13391246D02*
X16120682Y-13343627D01*
X16120682Y-13343627D02*
X16111158Y-13315055D01*
X16111158Y-13315055D02*
X16101634Y-13296008D01*
X16101634Y-13296008D02*
X16082587Y-13267436D01*
X16082587Y-13267436D02*
X16073063Y-13257912D01*
M02*
