G04 #@! TF.GenerationSoftware,KiCad,Pcbnew,7.0.8*
G04 #@! TF.CreationDate,2024-03-11T02:55:17-07:00*
G04 #@! TF.ProjectId,oc_v1,6f635f76-312e-46b6-9963-61645f706362,1*
G04 #@! TF.SameCoordinates,Original*
G04 #@! TF.FileFunction,Legend,Bot*
G04 #@! TF.FilePolarity,Positive*
%FSLAX46Y46*%
G04 Gerber Fmt 4.6, Leading zero omitted, Abs format (unit mm)*
G04 Created by KiCad (PCBNEW 7.0.8) date 2024-03-11 02:55:17*
%MOMM*%
%LPD*%
G01*
G04 APERTURE LIST*
G04 Aperture macros list*
%AMRoundRect*
0 Rectangle with rounded corners*
0 $1 Rounding radius*
0 $2 $3 $4 $5 $6 $7 $8 $9 X,Y pos of 4 corners*
0 Add a 4 corners polygon primitive as box body*
4,1,4,$2,$3,$4,$5,$6,$7,$8,$9,$2,$3,0*
0 Add four circle primitives for the rounded corners*
1,1,$1+$1,$2,$3*
1,1,$1+$1,$4,$5*
1,1,$1+$1,$6,$7*
1,1,$1+$1,$8,$9*
0 Add four rect primitives between the rounded corners*
20,1,$1+$1,$2,$3,$4,$5,0*
20,1,$1+$1,$4,$5,$6,$7,0*
20,1,$1+$1,$6,$7,$8,$9,0*
20,1,$1+$1,$8,$9,$2,$3,0*%
G04 Aperture macros list end*
%ADD10C,0.150000*%
%ADD11C,0.120000*%
%ADD12R,3.145000X3.145000*%
%ADD13C,3.145000*%
%ADD14RoundRect,0.250000X-0.725000X0.600000X-0.725000X-0.600000X0.725000X-0.600000X0.725000X0.600000X0*%
%ADD15O,1.950000X1.700000*%
%ADD16R,1.700000X1.700000*%
%ADD17O,1.700000X1.700000*%
%ADD18C,1.800000*%
%ADD19C,1.727200*%
%ADD20R,1.727200X1.727200*%
%ADD21RoundRect,0.250000X0.750000X-0.600000X0.750000X0.600000X-0.750000X0.600000X-0.750000X-0.600000X0*%
%ADD22O,2.000000X1.700000*%
%ADD23RoundRect,0.250000X0.725000X-0.600000X0.725000X0.600000X-0.725000X0.600000X-0.725000X-0.600000X0*%
%ADD24R,2.400000X1.600000*%
%ADD25O,2.400000X1.600000*%
%ADD26R,1.600000X1.600000*%
%ADD27C,1.600000*%
%ADD28RoundRect,0.237500X0.300000X0.237500X-0.300000X0.237500X-0.300000X-0.237500X0.300000X-0.237500X0*%
%ADD29RoundRect,0.237500X-0.237500X0.300000X-0.237500X-0.300000X0.237500X-0.300000X0.237500X0.300000X0*%
%ADD30RoundRect,0.250000X-0.350000X-0.450000X0.350000X-0.450000X0.350000X0.450000X-0.350000X0.450000X0*%
%ADD31RoundRect,0.250000X0.300000X-0.750000X0.300000X0.750000X-0.300000X0.750000X-0.300000X-0.750000X0*%
%ADD32RoundRect,0.200000X0.350000X-0.200000X0.350000X0.200000X-0.350000X0.200000X-0.350000X-0.200000X0*%
%ADD33RoundRect,0.250000X0.450000X-0.350000X0.450000X0.350000X-0.450000X0.350000X-0.450000X-0.350000X0*%
%ADD34R,1.200000X1.200000*%
%ADD35R,1.600000X1.500000*%
%ADD36RoundRect,0.250000X-0.750000X-0.300000X0.750000X-0.300000X0.750000X0.300000X-0.750000X0.300000X0*%
%ADD37RoundRect,0.200000X-0.200000X-0.350000X0.200000X-0.350000X0.200000X0.350000X-0.200000X0.350000X0*%
G04 APERTURE END LIST*
D10*
X162223220Y-108409819D02*
X162223220Y-107409819D01*
X162223220Y-107409819D02*
X161985125Y-107409819D01*
X161985125Y-107409819D02*
X161842268Y-107457438D01*
X161842268Y-107457438D02*
X161747030Y-107552676D01*
X161747030Y-107552676D02*
X161699411Y-107647914D01*
X161699411Y-107647914D02*
X161651792Y-107838390D01*
X161651792Y-107838390D02*
X161651792Y-107981247D01*
X161651792Y-107981247D02*
X161699411Y-108171723D01*
X161699411Y-108171723D02*
X161747030Y-108266961D01*
X161747030Y-108266961D02*
X161842268Y-108362200D01*
X161842268Y-108362200D02*
X161985125Y-108409819D01*
X161985125Y-108409819D02*
X162223220Y-108409819D01*
X161223220Y-108314580D02*
X161175601Y-108362200D01*
X161175601Y-108362200D02*
X161223220Y-108409819D01*
X161223220Y-108409819D02*
X161270839Y-108362200D01*
X161270839Y-108362200D02*
X161223220Y-108314580D01*
X161223220Y-108314580D02*
X161223220Y-108409819D01*
X160747030Y-108409819D02*
X160747030Y-107409819D01*
X160747030Y-107886009D02*
X160175602Y-107886009D01*
X160175602Y-108409819D02*
X160175602Y-107409819D01*
X159699411Y-108314580D02*
X159651792Y-108362200D01*
X159651792Y-108362200D02*
X159699411Y-108409819D01*
X159699411Y-108409819D02*
X159747030Y-108362200D01*
X159747030Y-108362200D02*
X159699411Y-108314580D01*
X159699411Y-108314580D02*
X159699411Y-108409819D01*
X158747031Y-108409819D02*
X159223221Y-108409819D01*
X159223221Y-108409819D02*
X159223221Y-107409819D01*
X161651792Y-110019819D02*
X161985125Y-109543628D01*
X162223220Y-110019819D02*
X162223220Y-109019819D01*
X162223220Y-109019819D02*
X161842268Y-109019819D01*
X161842268Y-109019819D02*
X161747030Y-109067438D01*
X161747030Y-109067438D02*
X161699411Y-109115057D01*
X161699411Y-109115057D02*
X161651792Y-109210295D01*
X161651792Y-109210295D02*
X161651792Y-109353152D01*
X161651792Y-109353152D02*
X161699411Y-109448390D01*
X161699411Y-109448390D02*
X161747030Y-109496009D01*
X161747030Y-109496009D02*
X161842268Y-109543628D01*
X161842268Y-109543628D02*
X162223220Y-109543628D01*
X161223220Y-109496009D02*
X160889887Y-109496009D01*
X160747030Y-110019819D02*
X161223220Y-110019819D01*
X161223220Y-110019819D02*
X161223220Y-109019819D01*
X161223220Y-109019819D02*
X160747030Y-109019819D01*
X160461315Y-109019819D02*
X160127982Y-110019819D01*
X160127982Y-110019819D02*
X159794649Y-109019819D01*
X159461315Y-109924580D02*
X159413696Y-109972200D01*
X159413696Y-109972200D02*
X159461315Y-110019819D01*
X159461315Y-110019819D02*
X159508934Y-109972200D01*
X159508934Y-109972200D02*
X159461315Y-109924580D01*
X159461315Y-109924580D02*
X159461315Y-110019819D01*
X157699411Y-110019819D02*
X158270839Y-110019819D01*
X157985125Y-110019819D02*
X157985125Y-109019819D01*
X157985125Y-109019819D02*
X158080363Y-109162676D01*
X158080363Y-109162676D02*
X158175601Y-109257914D01*
X158175601Y-109257914D02*
X158270839Y-109305533D01*
X162032744Y-110629819D02*
X161937506Y-110629819D01*
X161937506Y-110629819D02*
X161842268Y-110677438D01*
X161842268Y-110677438D02*
X161794649Y-110725057D01*
X161794649Y-110725057D02*
X161747030Y-110820295D01*
X161747030Y-110820295D02*
X161699411Y-111010771D01*
X161699411Y-111010771D02*
X161699411Y-111248866D01*
X161699411Y-111248866D02*
X161747030Y-111439342D01*
X161747030Y-111439342D02*
X161794649Y-111534580D01*
X161794649Y-111534580D02*
X161842268Y-111582200D01*
X161842268Y-111582200D02*
X161937506Y-111629819D01*
X161937506Y-111629819D02*
X162032744Y-111629819D01*
X162032744Y-111629819D02*
X162127982Y-111582200D01*
X162127982Y-111582200D02*
X162175601Y-111534580D01*
X162175601Y-111534580D02*
X162223220Y-111439342D01*
X162223220Y-111439342D02*
X162270839Y-111248866D01*
X162270839Y-111248866D02*
X162270839Y-111010771D01*
X162270839Y-111010771D02*
X162223220Y-110820295D01*
X162223220Y-110820295D02*
X162175601Y-110725057D01*
X162175601Y-110725057D02*
X162127982Y-110677438D01*
X162127982Y-110677438D02*
X162032744Y-110629819D01*
X160842268Y-110963152D02*
X160842268Y-111629819D01*
X161080363Y-110582200D02*
X161318458Y-111296485D01*
X161318458Y-111296485D02*
X160699411Y-111296485D01*
X159604173Y-110582200D02*
X160461315Y-111867914D01*
X158747030Y-111629819D02*
X159318458Y-111629819D01*
X159032744Y-111629819D02*
X159032744Y-110629819D01*
X159032744Y-110629819D02*
X159127982Y-110772676D01*
X159127982Y-110772676D02*
X159223220Y-110867914D01*
X159223220Y-110867914D02*
X159318458Y-110915533D01*
X157794649Y-111629819D02*
X158366077Y-111629819D01*
X158080363Y-111629819D02*
X158080363Y-110629819D01*
X158080363Y-110629819D02*
X158175601Y-110772676D01*
X158175601Y-110772676D02*
X158270839Y-110867914D01*
X158270839Y-110867914D02*
X158366077Y-110915533D01*
X156651792Y-110582200D02*
X157508934Y-111867914D01*
X156366077Y-110725057D02*
X156318458Y-110677438D01*
X156318458Y-110677438D02*
X156223220Y-110629819D01*
X156223220Y-110629819D02*
X155985125Y-110629819D01*
X155985125Y-110629819D02*
X155889887Y-110677438D01*
X155889887Y-110677438D02*
X155842268Y-110725057D01*
X155842268Y-110725057D02*
X155794649Y-110820295D01*
X155794649Y-110820295D02*
X155794649Y-110915533D01*
X155794649Y-110915533D02*
X155842268Y-111058390D01*
X155842268Y-111058390D02*
X156413696Y-111629819D01*
X156413696Y-111629819D02*
X155794649Y-111629819D01*
X155175601Y-110629819D02*
X155080363Y-110629819D01*
X155080363Y-110629819D02*
X154985125Y-110677438D01*
X154985125Y-110677438D02*
X154937506Y-110725057D01*
X154937506Y-110725057D02*
X154889887Y-110820295D01*
X154889887Y-110820295D02*
X154842268Y-111010771D01*
X154842268Y-111010771D02*
X154842268Y-111248866D01*
X154842268Y-111248866D02*
X154889887Y-111439342D01*
X154889887Y-111439342D02*
X154937506Y-111534580D01*
X154937506Y-111534580D02*
X154985125Y-111582200D01*
X154985125Y-111582200D02*
X155080363Y-111629819D01*
X155080363Y-111629819D02*
X155175601Y-111629819D01*
X155175601Y-111629819D02*
X155270839Y-111582200D01*
X155270839Y-111582200D02*
X155318458Y-111534580D01*
X155318458Y-111534580D02*
X155366077Y-111439342D01*
X155366077Y-111439342D02*
X155413696Y-111248866D01*
X155413696Y-111248866D02*
X155413696Y-111010771D01*
X155413696Y-111010771D02*
X155366077Y-110820295D01*
X155366077Y-110820295D02*
X155318458Y-110725057D01*
X155318458Y-110725057D02*
X155270839Y-110677438D01*
X155270839Y-110677438D02*
X155175601Y-110629819D01*
X154461315Y-110725057D02*
X154413696Y-110677438D01*
X154413696Y-110677438D02*
X154318458Y-110629819D01*
X154318458Y-110629819D02*
X154080363Y-110629819D01*
X154080363Y-110629819D02*
X153985125Y-110677438D01*
X153985125Y-110677438D02*
X153937506Y-110725057D01*
X153937506Y-110725057D02*
X153889887Y-110820295D01*
X153889887Y-110820295D02*
X153889887Y-110915533D01*
X153889887Y-110915533D02*
X153937506Y-111058390D01*
X153937506Y-111058390D02*
X154508934Y-111629819D01*
X154508934Y-111629819D02*
X153889887Y-111629819D01*
X153032744Y-110963152D02*
X153032744Y-111629819D01*
X153270839Y-110582200D02*
X153508934Y-111296485D01*
X153508934Y-111296485D02*
X152889887Y-111296485D01*
X124640180Y-55348094D02*
X125640180Y-55348094D01*
X125640180Y-55348094D02*
X125640180Y-55109999D01*
X125640180Y-55109999D02*
X125592561Y-54967142D01*
X125592561Y-54967142D02*
X125497323Y-54871904D01*
X125497323Y-54871904D02*
X125402085Y-54824285D01*
X125402085Y-54824285D02*
X125211609Y-54776666D01*
X125211609Y-54776666D02*
X125068752Y-54776666D01*
X125068752Y-54776666D02*
X124878276Y-54824285D01*
X124878276Y-54824285D02*
X124783038Y-54871904D01*
X124783038Y-54871904D02*
X124687800Y-54967142D01*
X124687800Y-54967142D02*
X124640180Y-55109999D01*
X124640180Y-55109999D02*
X124640180Y-55348094D01*
X125640180Y-54157618D02*
X125640180Y-54062380D01*
X125640180Y-54062380D02*
X125592561Y-53967142D01*
X125592561Y-53967142D02*
X125544942Y-53919523D01*
X125544942Y-53919523D02*
X125449704Y-53871904D01*
X125449704Y-53871904D02*
X125259228Y-53824285D01*
X125259228Y-53824285D02*
X125021133Y-53824285D01*
X125021133Y-53824285D02*
X124830657Y-53871904D01*
X124830657Y-53871904D02*
X124735419Y-53919523D01*
X124735419Y-53919523D02*
X124687800Y-53967142D01*
X124687800Y-53967142D02*
X124640180Y-54062380D01*
X124640180Y-54062380D02*
X124640180Y-54157618D01*
X124640180Y-54157618D02*
X124687800Y-54252856D01*
X124687800Y-54252856D02*
X124735419Y-54300475D01*
X124735419Y-54300475D02*
X124830657Y-54348094D01*
X124830657Y-54348094D02*
X125021133Y-54395713D01*
X125021133Y-54395713D02*
X125259228Y-54395713D01*
X125259228Y-54395713D02*
X125449704Y-54348094D01*
X125449704Y-54348094D02*
X125544942Y-54300475D01*
X125544942Y-54300475D02*
X125592561Y-54252856D01*
X125592561Y-54252856D02*
X125640180Y-54157618D01*
X154471666Y-95449580D02*
X154519285Y-95497200D01*
X154519285Y-95497200D02*
X154662142Y-95544819D01*
X154662142Y-95544819D02*
X154757380Y-95544819D01*
X154757380Y-95544819D02*
X154900237Y-95497200D01*
X154900237Y-95497200D02*
X154995475Y-95401961D01*
X154995475Y-95401961D02*
X155043094Y-95306723D01*
X155043094Y-95306723D02*
X155090713Y-95116247D01*
X155090713Y-95116247D02*
X155090713Y-94973390D01*
X155090713Y-94973390D02*
X155043094Y-94782914D01*
X155043094Y-94782914D02*
X154995475Y-94687676D01*
X154995475Y-94687676D02*
X154900237Y-94592438D01*
X154900237Y-94592438D02*
X154757380Y-94544819D01*
X154757380Y-94544819D02*
X154662142Y-94544819D01*
X154662142Y-94544819D02*
X154519285Y-94592438D01*
X154519285Y-94592438D02*
X154471666Y-94640057D01*
X153614523Y-94878152D02*
X153614523Y-95544819D01*
X153852618Y-94497200D02*
X154090713Y-95211485D01*
X154090713Y-95211485D02*
X153471666Y-95211485D01*
X158916666Y-76152080D02*
X158964285Y-76199700D01*
X158964285Y-76199700D02*
X159107142Y-76247319D01*
X159107142Y-76247319D02*
X159202380Y-76247319D01*
X159202380Y-76247319D02*
X159345237Y-76199700D01*
X159345237Y-76199700D02*
X159440475Y-76104461D01*
X159440475Y-76104461D02*
X159488094Y-76009223D01*
X159488094Y-76009223D02*
X159535713Y-75818747D01*
X159535713Y-75818747D02*
X159535713Y-75675890D01*
X159535713Y-75675890D02*
X159488094Y-75485414D01*
X159488094Y-75485414D02*
X159440475Y-75390176D01*
X159440475Y-75390176D02*
X159345237Y-75294938D01*
X159345237Y-75294938D02*
X159202380Y-75247319D01*
X159202380Y-75247319D02*
X159107142Y-75247319D01*
X159107142Y-75247319D02*
X158964285Y-75294938D01*
X158964285Y-75294938D02*
X158916666Y-75342557D01*
X158535713Y-75342557D02*
X158488094Y-75294938D01*
X158488094Y-75294938D02*
X158392856Y-75247319D01*
X158392856Y-75247319D02*
X158154761Y-75247319D01*
X158154761Y-75247319D02*
X158059523Y-75294938D01*
X158059523Y-75294938D02*
X158011904Y-75342557D01*
X158011904Y-75342557D02*
X157964285Y-75437795D01*
X157964285Y-75437795D02*
X157964285Y-75533033D01*
X157964285Y-75533033D02*
X158011904Y-75675890D01*
X158011904Y-75675890D02*
X158583332Y-76247319D01*
X158583332Y-76247319D02*
X157964285Y-76247319D01*
X134786666Y-72844819D02*
X135119999Y-72368628D01*
X135358094Y-72844819D02*
X135358094Y-71844819D01*
X135358094Y-71844819D02*
X134977142Y-71844819D01*
X134977142Y-71844819D02*
X134881904Y-71892438D01*
X134881904Y-71892438D02*
X134834285Y-71940057D01*
X134834285Y-71940057D02*
X134786666Y-72035295D01*
X134786666Y-72035295D02*
X134786666Y-72178152D01*
X134786666Y-72178152D02*
X134834285Y-72273390D01*
X134834285Y-72273390D02*
X134881904Y-72321009D01*
X134881904Y-72321009D02*
X134977142Y-72368628D01*
X134977142Y-72368628D02*
X135358094Y-72368628D01*
X134453332Y-71844819D02*
X133834285Y-71844819D01*
X133834285Y-71844819D02*
X134167618Y-72225771D01*
X134167618Y-72225771D02*
X134024761Y-72225771D01*
X134024761Y-72225771D02*
X133929523Y-72273390D01*
X133929523Y-72273390D02*
X133881904Y-72321009D01*
X133881904Y-72321009D02*
X133834285Y-72416247D01*
X133834285Y-72416247D02*
X133834285Y-72654342D01*
X133834285Y-72654342D02*
X133881904Y-72749580D01*
X133881904Y-72749580D02*
X133929523Y-72797200D01*
X133929523Y-72797200D02*
X134024761Y-72844819D01*
X134024761Y-72844819D02*
X134310475Y-72844819D01*
X134310475Y-72844819D02*
X134405713Y-72797200D01*
X134405713Y-72797200D02*
X134453332Y-72749580D01*
X163298094Y-50634819D02*
X163298094Y-49634819D01*
X163298094Y-49634819D02*
X163059999Y-49634819D01*
X163059999Y-49634819D02*
X162917142Y-49682438D01*
X162917142Y-49682438D02*
X162821904Y-49777676D01*
X162821904Y-49777676D02*
X162774285Y-49872914D01*
X162774285Y-49872914D02*
X162726666Y-50063390D01*
X162726666Y-50063390D02*
X162726666Y-50206247D01*
X162726666Y-50206247D02*
X162774285Y-50396723D01*
X162774285Y-50396723D02*
X162821904Y-50491961D01*
X162821904Y-50491961D02*
X162917142Y-50587200D01*
X162917142Y-50587200D02*
X163059999Y-50634819D01*
X163059999Y-50634819D02*
X163298094Y-50634819D01*
X162393332Y-49634819D02*
X161774285Y-49634819D01*
X161774285Y-49634819D02*
X162107618Y-50015771D01*
X162107618Y-50015771D02*
X161964761Y-50015771D01*
X161964761Y-50015771D02*
X161869523Y-50063390D01*
X161869523Y-50063390D02*
X161821904Y-50111009D01*
X161821904Y-50111009D02*
X161774285Y-50206247D01*
X161774285Y-50206247D02*
X161774285Y-50444342D01*
X161774285Y-50444342D02*
X161821904Y-50539580D01*
X161821904Y-50539580D02*
X161869523Y-50587200D01*
X161869523Y-50587200D02*
X161964761Y-50634819D01*
X161964761Y-50634819D02*
X162250475Y-50634819D01*
X162250475Y-50634819D02*
X162345713Y-50587200D01*
X162345713Y-50587200D02*
X162393332Y-50539580D01*
X163298094Y-73494819D02*
X163298094Y-72494819D01*
X163298094Y-72494819D02*
X163059999Y-72494819D01*
X163059999Y-72494819D02*
X162917142Y-72542438D01*
X162917142Y-72542438D02*
X162821904Y-72637676D01*
X162821904Y-72637676D02*
X162774285Y-72732914D01*
X162774285Y-72732914D02*
X162726666Y-72923390D01*
X162726666Y-72923390D02*
X162726666Y-73066247D01*
X162726666Y-73066247D02*
X162774285Y-73256723D01*
X162774285Y-73256723D02*
X162821904Y-73351961D01*
X162821904Y-73351961D02*
X162917142Y-73447200D01*
X162917142Y-73447200D02*
X163059999Y-73494819D01*
X163059999Y-73494819D02*
X163298094Y-73494819D01*
X162345713Y-72590057D02*
X162298094Y-72542438D01*
X162298094Y-72542438D02*
X162202856Y-72494819D01*
X162202856Y-72494819D02*
X161964761Y-72494819D01*
X161964761Y-72494819D02*
X161869523Y-72542438D01*
X161869523Y-72542438D02*
X161821904Y-72590057D01*
X161821904Y-72590057D02*
X161774285Y-72685295D01*
X161774285Y-72685295D02*
X161774285Y-72780533D01*
X161774285Y-72780533D02*
X161821904Y-72923390D01*
X161821904Y-72923390D02*
X162393332Y-73494819D01*
X162393332Y-73494819D02*
X161774285Y-73494819D01*
X119546666Y-85544819D02*
X119879999Y-85068628D01*
X120118094Y-85544819D02*
X120118094Y-84544819D01*
X120118094Y-84544819D02*
X119737142Y-84544819D01*
X119737142Y-84544819D02*
X119641904Y-84592438D01*
X119641904Y-84592438D02*
X119594285Y-84640057D01*
X119594285Y-84640057D02*
X119546666Y-84735295D01*
X119546666Y-84735295D02*
X119546666Y-84878152D01*
X119546666Y-84878152D02*
X119594285Y-84973390D01*
X119594285Y-84973390D02*
X119641904Y-85021009D01*
X119641904Y-85021009D02*
X119737142Y-85068628D01*
X119737142Y-85068628D02*
X120118094Y-85068628D01*
X119165713Y-84640057D02*
X119118094Y-84592438D01*
X119118094Y-84592438D02*
X119022856Y-84544819D01*
X119022856Y-84544819D02*
X118784761Y-84544819D01*
X118784761Y-84544819D02*
X118689523Y-84592438D01*
X118689523Y-84592438D02*
X118641904Y-84640057D01*
X118641904Y-84640057D02*
X118594285Y-84735295D01*
X118594285Y-84735295D02*
X118594285Y-84830533D01*
X118594285Y-84830533D02*
X118641904Y-84973390D01*
X118641904Y-84973390D02*
X119213332Y-85544819D01*
X119213332Y-85544819D02*
X118594285Y-85544819D01*
X135215238Y-82369819D02*
X135548571Y-81893628D01*
X135786666Y-82369819D02*
X135786666Y-81369819D01*
X135786666Y-81369819D02*
X135405714Y-81369819D01*
X135405714Y-81369819D02*
X135310476Y-81417438D01*
X135310476Y-81417438D02*
X135262857Y-81465057D01*
X135262857Y-81465057D02*
X135215238Y-81560295D01*
X135215238Y-81560295D02*
X135215238Y-81703152D01*
X135215238Y-81703152D02*
X135262857Y-81798390D01*
X135262857Y-81798390D02*
X135310476Y-81846009D01*
X135310476Y-81846009D02*
X135405714Y-81893628D01*
X135405714Y-81893628D02*
X135786666Y-81893628D01*
X134929523Y-81369819D02*
X134596190Y-82369819D01*
X134596190Y-82369819D02*
X134262857Y-81369819D01*
X133405714Y-82369819D02*
X133977142Y-82369819D01*
X133691428Y-82369819D02*
X133691428Y-81369819D01*
X133691428Y-81369819D02*
X133786666Y-81512676D01*
X133786666Y-81512676D02*
X133881904Y-81607914D01*
X133881904Y-81607914D02*
X133977142Y-81655533D01*
X158916666Y-53292080D02*
X158964285Y-53339700D01*
X158964285Y-53339700D02*
X159107142Y-53387319D01*
X159107142Y-53387319D02*
X159202380Y-53387319D01*
X159202380Y-53387319D02*
X159345237Y-53339700D01*
X159345237Y-53339700D02*
X159440475Y-53244461D01*
X159440475Y-53244461D02*
X159488094Y-53149223D01*
X159488094Y-53149223D02*
X159535713Y-52958747D01*
X159535713Y-52958747D02*
X159535713Y-52815890D01*
X159535713Y-52815890D02*
X159488094Y-52625414D01*
X159488094Y-52625414D02*
X159440475Y-52530176D01*
X159440475Y-52530176D02*
X159345237Y-52434938D01*
X159345237Y-52434938D02*
X159202380Y-52387319D01*
X159202380Y-52387319D02*
X159107142Y-52387319D01*
X159107142Y-52387319D02*
X158964285Y-52434938D01*
X158964285Y-52434938D02*
X158916666Y-52482557D01*
X158583332Y-52387319D02*
X157964285Y-52387319D01*
X157964285Y-52387319D02*
X158297618Y-52768271D01*
X158297618Y-52768271D02*
X158154761Y-52768271D01*
X158154761Y-52768271D02*
X158059523Y-52815890D01*
X158059523Y-52815890D02*
X158011904Y-52863509D01*
X158011904Y-52863509D02*
X157964285Y-52958747D01*
X157964285Y-52958747D02*
X157964285Y-53196842D01*
X157964285Y-53196842D02*
X158011904Y-53292080D01*
X158011904Y-53292080D02*
X158059523Y-53339700D01*
X158059523Y-53339700D02*
X158154761Y-53387319D01*
X158154761Y-53387319D02*
X158440475Y-53387319D01*
X158440475Y-53387319D02*
X158535713Y-53339700D01*
X158535713Y-53339700D02*
X158583332Y-53292080D01*
X140438094Y-101724819D02*
X140438094Y-100724819D01*
X140438094Y-100724819D02*
X140199999Y-100724819D01*
X140199999Y-100724819D02*
X140057142Y-100772438D01*
X140057142Y-100772438D02*
X139961904Y-100867676D01*
X139961904Y-100867676D02*
X139914285Y-100962914D01*
X139914285Y-100962914D02*
X139866666Y-101153390D01*
X139866666Y-101153390D02*
X139866666Y-101296247D01*
X139866666Y-101296247D02*
X139914285Y-101486723D01*
X139914285Y-101486723D02*
X139961904Y-101581961D01*
X139961904Y-101581961D02*
X140057142Y-101677200D01*
X140057142Y-101677200D02*
X140199999Y-101724819D01*
X140199999Y-101724819D02*
X140438094Y-101724819D01*
X138914285Y-101724819D02*
X139485713Y-101724819D01*
X139199999Y-101724819D02*
X139199999Y-100724819D01*
X139199999Y-100724819D02*
X139295237Y-100867676D01*
X139295237Y-100867676D02*
X139390475Y-100962914D01*
X139390475Y-100962914D02*
X139485713Y-101010533D01*
X134109819Y-52601905D02*
X133109819Y-52601905D01*
X133109819Y-52601905D02*
X133109819Y-52840000D01*
X133109819Y-52840000D02*
X133157438Y-52982857D01*
X133157438Y-52982857D02*
X133252676Y-53078095D01*
X133252676Y-53078095D02*
X133347914Y-53125714D01*
X133347914Y-53125714D02*
X133538390Y-53173333D01*
X133538390Y-53173333D02*
X133681247Y-53173333D01*
X133681247Y-53173333D02*
X133871723Y-53125714D01*
X133871723Y-53125714D02*
X133966961Y-53078095D01*
X133966961Y-53078095D02*
X134062200Y-52982857D01*
X134062200Y-52982857D02*
X134109819Y-52840000D01*
X134109819Y-52840000D02*
X134109819Y-52601905D01*
X133443152Y-54030476D02*
X134109819Y-54030476D01*
X133062200Y-53792381D02*
X133776485Y-53554286D01*
X133776485Y-53554286D02*
X133776485Y-54173333D01*
X119546666Y-52524819D02*
X119879999Y-52048628D01*
X120118094Y-52524819D02*
X120118094Y-51524819D01*
X120118094Y-51524819D02*
X119737142Y-51524819D01*
X119737142Y-51524819D02*
X119641904Y-51572438D01*
X119641904Y-51572438D02*
X119594285Y-51620057D01*
X119594285Y-51620057D02*
X119546666Y-51715295D01*
X119546666Y-51715295D02*
X119546666Y-51858152D01*
X119546666Y-51858152D02*
X119594285Y-51953390D01*
X119594285Y-51953390D02*
X119641904Y-52001009D01*
X119641904Y-52001009D02*
X119737142Y-52048628D01*
X119737142Y-52048628D02*
X120118094Y-52048628D01*
X118594285Y-52524819D02*
X119165713Y-52524819D01*
X118879999Y-52524819D02*
X118879999Y-51524819D01*
X118879999Y-51524819D02*
X118975237Y-51667676D01*
X118975237Y-51667676D02*
X119070475Y-51762914D01*
X119070475Y-51762914D02*
X119165713Y-51810533D01*
D11*
X154451267Y-97030000D02*
X154158733Y-97030000D01*
X154451267Y-96010000D02*
X154158733Y-96010000D01*
X159260000Y-73106233D02*
X159260000Y-73398767D01*
X158240000Y-73106233D02*
X158240000Y-73398767D01*
X134392936Y-73560000D02*
X134847064Y-73560000D01*
X134392936Y-75030000D02*
X134847064Y-75030000D01*
X161455000Y-48270000D02*
X159855000Y-48270000D01*
X159855000Y-48270000D02*
X159855000Y-51430000D01*
X161455000Y-51430000D02*
X161455000Y-48270000D01*
X161455000Y-71130000D02*
X159855000Y-71130000D01*
X159855000Y-71130000D02*
X159855000Y-74290000D01*
X161455000Y-74290000D02*
X161455000Y-71130000D01*
X118645000Y-87857064D02*
X118645000Y-87402936D01*
X120115000Y-87857064D02*
X120115000Y-87402936D01*
X136230000Y-80470000D02*
X135720000Y-80470000D01*
X136230000Y-77660000D02*
X136230000Y-80470000D01*
X134770000Y-76450000D02*
X134470000Y-76450000D01*
X133520000Y-80470000D02*
X133010000Y-80470000D01*
X133010000Y-77660000D02*
X133010000Y-80470000D01*
X159260000Y-50246233D02*
X159260000Y-50538767D01*
X158240000Y-50246233D02*
X158240000Y-50538767D01*
X141610000Y-103670000D02*
X141610000Y-102070000D01*
X141610000Y-102070000D02*
X138450000Y-102070000D01*
X138450000Y-103670000D02*
X141610000Y-103670000D01*
X136055000Y-51430000D02*
X134455000Y-51430000D01*
X134455000Y-51430000D02*
X134455000Y-54590000D01*
X136055000Y-54590000D02*
X136055000Y-51430000D01*
X118645000Y-54837064D02*
X118645000Y-54382936D01*
X120115000Y-54837064D02*
X120115000Y-54382936D01*
%LPC*%
D12*
X143825000Y-103745000D03*
D13*
X135575000Y-103745000D03*
D14*
X116840000Y-50860000D03*
D15*
X116840000Y-53360000D03*
X116840000Y-55860000D03*
X116840000Y-58360000D03*
D16*
X143510000Y-72390000D03*
D17*
X143510000Y-74930000D03*
X143510000Y-77470000D03*
X143510000Y-80010000D03*
X143510000Y-82550000D03*
X143510000Y-85090000D03*
X143510000Y-87630000D03*
X143510000Y-90170000D03*
X156210000Y-90170000D03*
X156210000Y-87630000D03*
X156210000Y-85090000D03*
X156210000Y-82550000D03*
X156210000Y-80010000D03*
X156210000Y-77470000D03*
X156210000Y-74930000D03*
X156210000Y-72390000D03*
D18*
X123190000Y-49530000D03*
X123190000Y-90170000D03*
X138430000Y-49530000D03*
X138430000Y-90170000D03*
D19*
X138430000Y-85090000D03*
X138430000Y-59690000D03*
X138430000Y-80010000D03*
X138430000Y-77470000D03*
X138430000Y-74930000D03*
X138430000Y-72390000D03*
X138430000Y-69850000D03*
X138430000Y-67310000D03*
X138430000Y-64770000D03*
X138430000Y-62230000D03*
X138430000Y-82550000D03*
X138430000Y-57150000D03*
X123190000Y-54610000D03*
X123190000Y-52070000D03*
X123190000Y-62230000D03*
X123190000Y-64770000D03*
X123190000Y-67310000D03*
X123190000Y-69850000D03*
X123190000Y-72390000D03*
X123190000Y-74930000D03*
X123190000Y-77470000D03*
X123190000Y-80010000D03*
X123190000Y-82550000D03*
X123190000Y-85090000D03*
X123190000Y-87630000D03*
X138430000Y-87630000D03*
D20*
X123190000Y-59690000D03*
X138430000Y-54610000D03*
D19*
X123190000Y-57150000D03*
X138430000Y-52070000D03*
D14*
X116840000Y-97890000D03*
D15*
X116840000Y-100390000D03*
X116840000Y-102890000D03*
X116840000Y-105390000D03*
X116840000Y-107890000D03*
X116840000Y-110390000D03*
D14*
X116840000Y-83880000D03*
D15*
X116840000Y-86380000D03*
X116840000Y-88880000D03*
X116840000Y-91380000D03*
D21*
X162560000Y-100310000D03*
D22*
X162560000Y-97810000D03*
D23*
X162560000Y-61535000D03*
D15*
X162560000Y-59035000D03*
X162560000Y-56535000D03*
X162560000Y-54035000D03*
D23*
X162560000Y-84395000D03*
D15*
X162560000Y-81895000D03*
X162560000Y-79395000D03*
X162560000Y-76895000D03*
D24*
X158105000Y-102860000D03*
D25*
X158105000Y-100320000D03*
X158105000Y-97780000D03*
X158105000Y-95240000D03*
X150485000Y-95240000D03*
X150485000Y-97780000D03*
X150485000Y-100320000D03*
X150485000Y-102860000D03*
D16*
X143510000Y-49530000D03*
D17*
X143510000Y-52070000D03*
X143510000Y-54610000D03*
X143510000Y-57150000D03*
X143510000Y-59690000D03*
X143510000Y-62230000D03*
X143510000Y-64770000D03*
X143510000Y-67310000D03*
X156210000Y-67310000D03*
X156210000Y-64770000D03*
X156210000Y-62230000D03*
X156210000Y-59690000D03*
X156210000Y-57150000D03*
X156210000Y-54610000D03*
X156210000Y-52070000D03*
X156210000Y-49530000D03*
D14*
X116840000Y-64870000D03*
D15*
X116840000Y-67370000D03*
X116840000Y-69870000D03*
X116840000Y-72370000D03*
X116840000Y-74870000D03*
X116840000Y-77370000D03*
D26*
X127000000Y-95564888D03*
D27*
X127000000Y-98064888D03*
D28*
X155167500Y-96520000D03*
X153442500Y-96520000D03*
D29*
X158750000Y-72390000D03*
X158750000Y-74115000D03*
D30*
X133620000Y-74295000D03*
X135620000Y-74295000D03*
D31*
X160655000Y-49530000D03*
D32*
X160655000Y-51430000D03*
D31*
X160655000Y-72390000D03*
D32*
X160655000Y-74290000D03*
D33*
X119380000Y-88630000D03*
X119380000Y-86630000D03*
D34*
X135620000Y-76760000D03*
D35*
X134620000Y-80010000D03*
D34*
X133620000Y-76760000D03*
D29*
X158750000Y-49530000D03*
X158750000Y-51255000D03*
D36*
X140350000Y-102870000D03*
D37*
X138450000Y-102870000D03*
D31*
X135255000Y-52690000D03*
D32*
X135255000Y-54590000D03*
D33*
X119380000Y-55610000D03*
X119380000Y-53610000D03*
%LPD*%
M02*
