G04 #@! TF.GenerationSoftware,KiCad,Pcbnew,7.0.8*
G04 #@! TF.CreationDate,2024-03-11T02:55:17-07:00*
G04 #@! TF.ProjectId,oc_v1,6f635f76-312e-46b6-9963-61645f706362,1*
G04 #@! TF.SameCoordinates,Original*
G04 #@! TF.FileFunction,Soldermask,Bot*
G04 #@! TF.FilePolarity,Negative*
%FSLAX46Y46*%
G04 Gerber Fmt 4.6, Leading zero omitted, Abs format (unit mm)*
G04 Created by KiCad (PCBNEW 7.0.8) date 2024-03-11 02:55:17*
%MOMM*%
%LPD*%
G01*
G04 APERTURE LIST*
G04 Aperture macros list*
%AMRoundRect*
0 Rectangle with rounded corners*
0 $1 Rounding radius*
0 $2 $3 $4 $5 $6 $7 $8 $9 X,Y pos of 4 corners*
0 Add a 4 corners polygon primitive as box body*
4,1,4,$2,$3,$4,$5,$6,$7,$8,$9,$2,$3,0*
0 Add four circle primitives for the rounded corners*
1,1,$1+$1,$2,$3*
1,1,$1+$1,$4,$5*
1,1,$1+$1,$6,$7*
1,1,$1+$1,$8,$9*
0 Add four rect primitives between the rounded corners*
20,1,$1+$1,$2,$3,$4,$5,0*
20,1,$1+$1,$4,$5,$6,$7,0*
20,1,$1+$1,$6,$7,$8,$9,0*
20,1,$1+$1,$8,$9,$2,$3,0*%
G04 Aperture macros list end*
%ADD10R,3.145000X3.145000*%
%ADD11C,3.145000*%
%ADD12RoundRect,0.250000X-0.725000X0.600000X-0.725000X-0.600000X0.725000X-0.600000X0.725000X0.600000X0*%
%ADD13O,1.950000X1.700000*%
%ADD14R,1.700000X1.700000*%
%ADD15O,1.700000X1.700000*%
%ADD16C,1.800000*%
%ADD17C,1.727200*%
%ADD18R,1.727200X1.727200*%
%ADD19RoundRect,0.250000X0.750000X-0.600000X0.750000X0.600000X-0.750000X0.600000X-0.750000X-0.600000X0*%
%ADD20O,2.000000X1.700000*%
%ADD21RoundRect,0.250000X0.725000X-0.600000X0.725000X0.600000X-0.725000X0.600000X-0.725000X-0.600000X0*%
%ADD22R,2.400000X1.600000*%
%ADD23O,2.400000X1.600000*%
%ADD24R,1.600000X1.600000*%
%ADD25C,1.600000*%
%ADD26RoundRect,0.237500X0.300000X0.237500X-0.300000X0.237500X-0.300000X-0.237500X0.300000X-0.237500X0*%
%ADD27RoundRect,0.237500X-0.237500X0.300000X-0.237500X-0.300000X0.237500X-0.300000X0.237500X0.300000X0*%
%ADD28RoundRect,0.250000X-0.350000X-0.450000X0.350000X-0.450000X0.350000X0.450000X-0.350000X0.450000X0*%
%ADD29RoundRect,0.250000X0.300000X-0.750000X0.300000X0.750000X-0.300000X0.750000X-0.300000X-0.750000X0*%
%ADD30RoundRect,0.200000X0.350000X-0.200000X0.350000X0.200000X-0.350000X0.200000X-0.350000X-0.200000X0*%
%ADD31RoundRect,0.250000X0.450000X-0.350000X0.450000X0.350000X-0.450000X0.350000X-0.450000X-0.350000X0*%
%ADD32R,1.200000X1.200000*%
%ADD33R,1.600000X1.500000*%
%ADD34RoundRect,0.250000X-0.750000X-0.300000X0.750000X-0.300000X0.750000X0.300000X-0.750000X0.300000X0*%
%ADD35RoundRect,0.200000X-0.200000X-0.350000X0.200000X-0.350000X0.200000X0.350000X-0.200000X0.350000X0*%
G04 APERTURE END LIST*
D10*
X143825000Y-103745000D03*
D11*
X135575000Y-103745000D03*
D12*
X116840000Y-50860000D03*
D13*
X116840000Y-53360000D03*
X116840000Y-55860000D03*
X116840000Y-58360000D03*
D14*
X143510000Y-72390000D03*
D15*
X143510000Y-74930000D03*
X143510000Y-77470000D03*
X143510000Y-80010000D03*
X143510000Y-82550000D03*
X143510000Y-85090000D03*
X143510000Y-87630000D03*
X143510000Y-90170000D03*
X156210000Y-90170000D03*
X156210000Y-87630000D03*
X156210000Y-85090000D03*
X156210000Y-82550000D03*
X156210000Y-80010000D03*
X156210000Y-77470000D03*
X156210000Y-74930000D03*
X156210000Y-72390000D03*
D16*
X123190000Y-49530000D03*
X123190000Y-90170000D03*
X138430000Y-49530000D03*
X138430000Y-90170000D03*
D17*
X138430000Y-85090000D03*
X138430000Y-59690000D03*
X138430000Y-80010000D03*
X138430000Y-77470000D03*
X138430000Y-74930000D03*
X138430000Y-72390000D03*
X138430000Y-69850000D03*
X138430000Y-67310000D03*
X138430000Y-64770000D03*
X138430000Y-62230000D03*
X138430000Y-82550000D03*
X138430000Y-57150000D03*
X123190000Y-54610000D03*
X123190000Y-52070000D03*
X123190000Y-62230000D03*
X123190000Y-64770000D03*
X123190000Y-67310000D03*
X123190000Y-69850000D03*
X123190000Y-72390000D03*
X123190000Y-74930000D03*
X123190000Y-77470000D03*
X123190000Y-80010000D03*
X123190000Y-82550000D03*
X123190000Y-85090000D03*
X123190000Y-87630000D03*
X138430000Y-87630000D03*
D18*
X123190000Y-59690000D03*
X138430000Y-54610000D03*
D17*
X123190000Y-57150000D03*
X138430000Y-52070000D03*
D12*
X116840000Y-97890000D03*
D13*
X116840000Y-100390000D03*
X116840000Y-102890000D03*
X116840000Y-105390000D03*
X116840000Y-107890000D03*
X116840000Y-110390000D03*
D12*
X116840000Y-83880000D03*
D13*
X116840000Y-86380000D03*
X116840000Y-88880000D03*
X116840000Y-91380000D03*
D19*
X162560000Y-100310000D03*
D20*
X162560000Y-97810000D03*
D21*
X162560000Y-61535000D03*
D13*
X162560000Y-59035000D03*
X162560000Y-56535000D03*
X162560000Y-54035000D03*
D21*
X162560000Y-84395000D03*
D13*
X162560000Y-81895000D03*
X162560000Y-79395000D03*
X162560000Y-76895000D03*
D22*
X158105000Y-102860000D03*
D23*
X158105000Y-100320000D03*
X158105000Y-97780000D03*
X158105000Y-95240000D03*
X150485000Y-95240000D03*
X150485000Y-97780000D03*
X150485000Y-100320000D03*
X150485000Y-102860000D03*
D14*
X143510000Y-49530000D03*
D15*
X143510000Y-52070000D03*
X143510000Y-54610000D03*
X143510000Y-57150000D03*
X143510000Y-59690000D03*
X143510000Y-62230000D03*
X143510000Y-64770000D03*
X143510000Y-67310000D03*
X156210000Y-67310000D03*
X156210000Y-64770000D03*
X156210000Y-62230000D03*
X156210000Y-59690000D03*
X156210000Y-57150000D03*
X156210000Y-54610000D03*
X156210000Y-52070000D03*
X156210000Y-49530000D03*
D12*
X116840000Y-64870000D03*
D13*
X116840000Y-67370000D03*
X116840000Y-69870000D03*
X116840000Y-72370000D03*
X116840000Y-74870000D03*
X116840000Y-77370000D03*
D24*
X127000000Y-95564888D03*
D25*
X127000000Y-98064888D03*
D26*
X155167500Y-96520000D03*
X153442500Y-96520000D03*
D27*
X158750000Y-72390000D03*
X158750000Y-74115000D03*
D28*
X133620000Y-74295000D03*
X135620000Y-74295000D03*
D29*
X160655000Y-49530000D03*
D30*
X160655000Y-51430000D03*
D29*
X160655000Y-72390000D03*
D30*
X160655000Y-74290000D03*
D31*
X119380000Y-88630000D03*
X119380000Y-86630000D03*
D32*
X135620000Y-76760000D03*
D33*
X134620000Y-80010000D03*
D32*
X133620000Y-76760000D03*
D27*
X158750000Y-49530000D03*
X158750000Y-51255000D03*
D34*
X140350000Y-102870000D03*
D35*
X138450000Y-102870000D03*
D29*
X135255000Y-52690000D03*
D30*
X135255000Y-54590000D03*
D31*
X119380000Y-55610000D03*
X119380000Y-53610000D03*
M02*
