G04 #@! TF.GenerationSoftware,KiCad,Pcbnew,7.0.8*
G04 #@! TF.CreationDate,2024-02-22T02:02:49-08:00*
G04 #@! TF.ProjectId,oc_v1,6f635f76-312e-46b6-9963-61645f706362,0*
G04 #@! TF.SameCoordinates,Original*
G04 #@! TF.FileFunction,Legend,Top*
G04 #@! TF.FilePolarity,Positive*
%FSLAX46Y46*%
G04 Gerber Fmt 4.6, Leading zero omitted, Abs format (unit mm)*
G04 Created by KiCad (PCBNEW 7.0.8) date 2024-02-22 02:02:49*
%MOMM*%
%LPD*%
G01*
G04 APERTURE LIST*
G04 Aperture macros list*
%AMRoundRect*
0 Rectangle with rounded corners*
0 $1 Rounding radius*
0 $2 $3 $4 $5 $6 $7 $8 $9 X,Y pos of 4 corners*
0 Add a 4 corners polygon primitive as box body*
4,1,4,$2,$3,$4,$5,$6,$7,$8,$9,$2,$3,0*
0 Add four circle primitives for the rounded corners*
1,1,$1+$1,$2,$3*
1,1,$1+$1,$4,$5*
1,1,$1+$1,$6,$7*
1,1,$1+$1,$8,$9*
0 Add four rect primitives between the rounded corners*
20,1,$1+$1,$2,$3,$4,$5,0*
20,1,$1+$1,$4,$5,$6,$7,0*
20,1,$1+$1,$6,$7,$8,$9,0*
20,1,$1+$1,$8,$9,$2,$3,0*%
G04 Aperture macros list end*
%ADD10C,0.250000*%
%ADD11C,0.150000*%
%ADD12C,0.120000*%
%ADD13R,3.145000X3.145000*%
%ADD14C,3.145000*%
%ADD15RoundRect,0.250000X-0.412500X-1.100000X0.412500X-1.100000X0.412500X1.100000X-0.412500X1.100000X0*%
%ADD16RoundRect,0.250000X-0.725000X0.600000X-0.725000X-0.600000X0.725000X-0.600000X0.725000X0.600000X0*%
%ADD17O,1.950000X1.700000*%
%ADD18R,1.700000X1.700000*%
%ADD19O,1.700000X1.700000*%
%ADD20C,1.800000*%
%ADD21C,1.727200*%
%ADD22R,1.727200X1.727200*%
%ADD23RoundRect,0.250000X0.750000X-0.600000X0.750000X0.600000X-0.750000X0.600000X-0.750000X-0.600000X0*%
%ADD24O,2.000000X1.700000*%
%ADD25RoundRect,0.250000X0.725000X-0.600000X0.725000X0.600000X-0.725000X0.600000X-0.725000X-0.600000X0*%
%ADD26R,2.400000X1.600000*%
%ADD27O,2.400000X1.600000*%
G04 APERTURE END LIST*
D10*
G36*
X146532147Y-112311994D02*
G01*
X146562982Y-112342829D01*
X146600238Y-112417341D01*
X146600238Y-112596419D01*
X146562982Y-112670931D01*
X146532147Y-112701766D01*
X146457634Y-112739023D01*
X146278557Y-112739023D01*
X146204045Y-112701767D01*
X146173209Y-112670931D01*
X146135953Y-112596419D01*
X146135953Y-112417341D01*
X146173209Y-112342829D01*
X146204045Y-112311993D01*
X146278557Y-112274738D01*
X146457634Y-112274738D01*
X146532147Y-112311994D01*
G37*
G36*
X146532147Y-111776279D02*
G01*
X146562982Y-111807115D01*
X146600238Y-111881627D01*
X146600238Y-111882133D01*
X146562982Y-111956645D01*
X146532147Y-111987481D01*
X146457635Y-112024738D01*
X146278556Y-112024738D01*
X146204046Y-111987483D01*
X146173209Y-111956645D01*
X146135953Y-111882133D01*
X146135953Y-111881627D01*
X146173209Y-111807115D01*
X146204046Y-111776277D01*
X146278556Y-111739023D01*
X146457635Y-111739023D01*
X146532147Y-111776279D01*
G37*
G36*
X156234526Y-112252470D02*
G01*
X156265362Y-112283306D01*
X156302618Y-112357817D01*
X156302618Y-112596419D01*
X156265362Y-112670931D01*
X156234527Y-112701766D01*
X156160014Y-112739023D01*
X155980937Y-112739023D01*
X155906425Y-112701767D01*
X155875589Y-112670931D01*
X155838333Y-112596419D01*
X155838333Y-112357817D01*
X155875589Y-112283304D01*
X155906425Y-112252469D01*
X155980936Y-112215214D01*
X156160015Y-112215214D01*
X156234526Y-112252470D01*
G37*
G36*
X142980381Y-112381880D02*
G01*
X142731999Y-112381880D01*
X142856190Y-112009306D01*
X142980381Y-112381880D01*
G37*
G36*
X150599428Y-112381880D02*
G01*
X150351046Y-112381880D01*
X150475237Y-112009306D01*
X150599428Y-112381880D01*
G37*
G36*
X162146583Y-113345848D02*
G01*
X140053892Y-113345848D01*
X140053892Y-113016024D01*
X147079285Y-113016024D01*
X147084310Y-113086278D01*
X147126519Y-113142663D01*
X147192512Y-113167277D01*
X147261335Y-113152305D01*
X147289817Y-113130983D01*
X147349342Y-113071459D01*
X147350464Y-113069403D01*
X147352479Y-113068207D01*
X147372757Y-113038972D01*
X147432280Y-112919924D01*
X147434286Y-112908772D01*
X147440413Y-112899240D01*
X147445476Y-112864023D01*
X148683572Y-112864023D01*
X148703415Y-112931603D01*
X148756645Y-112977727D01*
X148826361Y-112987751D01*
X148890430Y-112958492D01*
X148928509Y-112899240D01*
X148933572Y-112864023D01*
X148933572Y-112177469D01*
X149111965Y-112559741D01*
X149123180Y-112572470D01*
X149130099Y-112587957D01*
X149145978Y-112598348D01*
X149158525Y-112612589D01*
X149174839Y-112617234D01*
X149189035Y-112626523D01*
X149208013Y-112626679D01*
X149226266Y-112631876D01*
X149242502Y-112626963D01*
X149259467Y-112627103D01*
X149275516Y-112616973D01*
X149293681Y-112611478D01*
X149304684Y-112598566D01*
X149319030Y-112589513D01*
X149338511Y-112559741D01*
X149516905Y-112177468D01*
X149516905Y-112864023D01*
X149536748Y-112931603D01*
X149589978Y-112977727D01*
X149659694Y-112987751D01*
X149723763Y-112958492D01*
X149761842Y-112899240D01*
X149762469Y-112894881D01*
X149937440Y-112894881D01*
X149973352Y-112955471D01*
X150036321Y-112987027D01*
X150106355Y-112979530D01*
X150161217Y-112935360D01*
X150177156Y-112903551D01*
X150267713Y-112631880D01*
X150682761Y-112631880D01*
X150773318Y-112903551D01*
X150813514Y-112961388D01*
X150878598Y-112988312D01*
X150947906Y-112975776D01*
X150999435Y-112927758D01*
X151015672Y-112864023D01*
X151183572Y-112864023D01*
X151186142Y-112872778D01*
X151184844Y-112881812D01*
X151195910Y-112906044D01*
X151203415Y-112931603D01*
X151210311Y-112937578D01*
X151214103Y-112945881D01*
X151236515Y-112960284D01*
X151256645Y-112977727D01*
X151265677Y-112979025D01*
X151273355Y-112983960D01*
X151308572Y-112989023D01*
X151903810Y-112989023D01*
X151971390Y-112969180D01*
X152017514Y-112915950D01*
X152027538Y-112846234D01*
X151998279Y-112782165D01*
X151939027Y-112744086D01*
X151903810Y-112739023D01*
X151433572Y-112739023D01*
X151433572Y-112334261D01*
X151725238Y-112334261D01*
X151792818Y-112314418D01*
X151838942Y-112261188D01*
X151848966Y-112191472D01*
X151819707Y-112127403D01*
X151760455Y-112089324D01*
X151725238Y-112084261D01*
X151433572Y-112084261D01*
X151433572Y-111975571D01*
X153207459Y-111975571D01*
X153229671Y-112042410D01*
X153284494Y-112086630D01*
X153354520Y-112094190D01*
X153388283Y-112082969D01*
X153507330Y-112023445D01*
X153509043Y-112021851D01*
X153511334Y-112021353D01*
X153539816Y-112000031D01*
X153564524Y-111975323D01*
X153564524Y-112739023D01*
X153332381Y-112739023D01*
X153264801Y-112758866D01*
X153218677Y-112812096D01*
X153208653Y-112881812D01*
X153237912Y-112945881D01*
X153297164Y-112983960D01*
X153332381Y-112989023D01*
X154046666Y-112989023D01*
X154114246Y-112969180D01*
X154160370Y-112915950D01*
X154170394Y-112846234D01*
X154141135Y-112782165D01*
X154081883Y-112744086D01*
X154046666Y-112739023D01*
X153814524Y-112739023D01*
X153814524Y-112736059D01*
X154398175Y-112736059D01*
X154413147Y-112804882D01*
X154434469Y-112833364D01*
X154493993Y-112892889D01*
X154496048Y-112894011D01*
X154497245Y-112896026D01*
X154526480Y-112916304D01*
X154645526Y-112975826D01*
X154656676Y-112977832D01*
X154666211Y-112983960D01*
X154701428Y-112989023D01*
X154999047Y-112989023D01*
X155009916Y-112985831D01*
X155021185Y-112987048D01*
X155054948Y-112975827D01*
X155173996Y-112916304D01*
X155175711Y-112914708D01*
X155178001Y-112914210D01*
X155206483Y-112892888D01*
X155266008Y-112833364D01*
X155267130Y-112831308D01*
X155269145Y-112830112D01*
X155289423Y-112800877D01*
X155348946Y-112681829D01*
X155350952Y-112670677D01*
X155357079Y-112661145D01*
X155362142Y-112625928D01*
X155588333Y-112625928D01*
X155591525Y-112636800D01*
X155590309Y-112648066D01*
X155601530Y-112681830D01*
X155661054Y-112800878D01*
X155662647Y-112802591D01*
X155663146Y-112804881D01*
X155684468Y-112833364D01*
X155743991Y-112892888D01*
X155746047Y-112894010D01*
X155747244Y-112896026D01*
X155776479Y-112916304D01*
X155895527Y-112975827D01*
X155906678Y-112977833D01*
X155916211Y-112983960D01*
X155951428Y-112989023D01*
X156189523Y-112989023D01*
X156200392Y-112985831D01*
X156211661Y-112987048D01*
X156245424Y-112975827D01*
X156364472Y-112916304D01*
X156366187Y-112914708D01*
X156368477Y-112914210D01*
X156396959Y-112892888D01*
X156456484Y-112833364D01*
X156457606Y-112831308D01*
X156459621Y-112830112D01*
X156479899Y-112800877D01*
X156539422Y-112681829D01*
X156541428Y-112670677D01*
X156547555Y-112661145D01*
X156552618Y-112625928D01*
X156552618Y-112328309D01*
X156549425Y-112317436D01*
X156550642Y-112306171D01*
X156539422Y-112272408D01*
X156479899Y-112153360D01*
X156478303Y-112151644D01*
X156477805Y-112149354D01*
X156456483Y-112120872D01*
X156396959Y-112061349D01*
X156394904Y-112060226D01*
X156393708Y-112058213D01*
X156364473Y-112037935D01*
X156245425Y-111978411D01*
X156234274Y-111976404D01*
X156224740Y-111970277D01*
X156189523Y-111965214D01*
X155951428Y-111965214D01*
X155940558Y-111968405D01*
X155929290Y-111967189D01*
X155895527Y-111978410D01*
X155883510Y-111984418D01*
X155888874Y-111962962D01*
X155989045Y-111812705D01*
X156025473Y-111776278D01*
X156099984Y-111739023D01*
X156308571Y-111739023D01*
X156376151Y-111719180D01*
X156422275Y-111665950D01*
X156430673Y-111607544D01*
X157671834Y-111607544D01*
X157675065Y-111642976D01*
X157972684Y-112892975D01*
X157975142Y-112897275D01*
X157975266Y-112902226D01*
X157992449Y-112927549D01*
X158007640Y-112954121D01*
X158012032Y-112956409D01*
X158014814Y-112960508D01*
X158042967Y-112972524D01*
X158070106Y-112986662D01*
X158075036Y-112986212D01*
X158079593Y-112988157D01*
X158109773Y-112983044D01*
X158140248Y-112980266D01*
X158144153Y-112977221D01*
X158149038Y-112976394D01*
X158171661Y-112955778D01*
X158195798Y-112936963D01*
X158197437Y-112932289D01*
X158201098Y-112928954D01*
X158215064Y-112896231D01*
X158332380Y-112456295D01*
X158449696Y-112896231D01*
X158452268Y-112900462D01*
X158452525Y-112905409D01*
X158470386Y-112930267D01*
X158486282Y-112956416D01*
X158490733Y-112958584D01*
X158493624Y-112962608D01*
X158522090Y-112973864D01*
X158549599Y-112987268D01*
X158554516Y-112986685D01*
X158559122Y-112988507D01*
X158589148Y-112982587D01*
X158619543Y-112978990D01*
X158623366Y-112975841D01*
X158628226Y-112974883D01*
X158650284Y-112953669D01*
X158673910Y-112934211D01*
X158675424Y-112929494D01*
X158678993Y-112926062D01*
X158692076Y-112892976D01*
X158698970Y-112864023D01*
X159219285Y-112864023D01*
X159239128Y-112931603D01*
X159292358Y-112977727D01*
X159362074Y-112987751D01*
X159426143Y-112958492D01*
X159464222Y-112899240D01*
X159466728Y-112881812D01*
X159696747Y-112881812D01*
X159702387Y-112894163D01*
X159703356Y-112907706D01*
X159716732Y-112925575D01*
X159726006Y-112945881D01*
X159737428Y-112953221D01*
X159745565Y-112964091D01*
X159766479Y-112971891D01*
X159785258Y-112983960D01*
X159807352Y-112987136D01*
X159811558Y-112988705D01*
X159814225Y-112988124D01*
X159820475Y-112989023D01*
X160594284Y-112989023D01*
X160661864Y-112969180D01*
X160707988Y-112915950D01*
X160718012Y-112846234D01*
X160688753Y-112782165D01*
X160629501Y-112744086D01*
X160594284Y-112739023D01*
X160122252Y-112739023D01*
X160396130Y-112465146D01*
X160946747Y-112465146D01*
X160949591Y-112471374D01*
X160949344Y-112478215D01*
X160964033Y-112502999D01*
X160976006Y-112529215D01*
X160981765Y-112532916D01*
X160985256Y-112538805D01*
X161011013Y-112551713D01*
X161035258Y-112567294D01*
X161044859Y-112568674D01*
X161048225Y-112570361D01*
X161053020Y-112569847D01*
X161070475Y-112572357D01*
X161540713Y-112572357D01*
X161540713Y-112864023D01*
X161560556Y-112931603D01*
X161613786Y-112977727D01*
X161683502Y-112987751D01*
X161747571Y-112958492D01*
X161785650Y-112899240D01*
X161790713Y-112864023D01*
X161790713Y-112572357D01*
X161844284Y-112572357D01*
X161911864Y-112552514D01*
X161957988Y-112499284D01*
X161968012Y-112429568D01*
X161938753Y-112365499D01*
X161879501Y-112327420D01*
X161844284Y-112322357D01*
X161790713Y-112322357D01*
X161790713Y-112030690D01*
X161770870Y-111963110D01*
X161717640Y-111916986D01*
X161647924Y-111906962D01*
X161583855Y-111936221D01*
X161545776Y-111995473D01*
X161540713Y-112030690D01*
X161540713Y-112322357D01*
X161243903Y-112322357D01*
X161486679Y-111594028D01*
X161489225Y-111523641D01*
X161453313Y-111463052D01*
X161390344Y-111431496D01*
X161320310Y-111438993D01*
X161265448Y-111483163D01*
X161249509Y-111514971D01*
X160951890Y-112407829D01*
X160950848Y-112436619D01*
X160946747Y-112465146D01*
X160396130Y-112465146D01*
X160623149Y-112238127D01*
X160628579Y-112228182D01*
X160637407Y-112221075D01*
X160653347Y-112189266D01*
X160712870Y-112010694D01*
X160712954Y-112008353D01*
X160714221Y-112006383D01*
X160719284Y-111971166D01*
X160719284Y-111852119D01*
X160716091Y-111841246D01*
X160717308Y-111829981D01*
X160706088Y-111796218D01*
X160646565Y-111677170D01*
X160644970Y-111675455D01*
X160644472Y-111673165D01*
X160623150Y-111644683D01*
X160563625Y-111585159D01*
X160561571Y-111584037D01*
X160560374Y-111582022D01*
X160531139Y-111561744D01*
X160412091Y-111502220D01*
X160400940Y-111500213D01*
X160391406Y-111494086D01*
X160356189Y-111489023D01*
X160058570Y-111489023D01*
X160047697Y-111492215D01*
X160036431Y-111490999D01*
X160002668Y-111502220D01*
X159883621Y-111561744D01*
X159881907Y-111563337D01*
X159879617Y-111563836D01*
X159851135Y-111585158D01*
X159791611Y-111644683D01*
X159757855Y-111706500D01*
X159762880Y-111776754D01*
X159805089Y-111833139D01*
X159871082Y-111857753D01*
X159939905Y-111842781D01*
X159968387Y-111821459D01*
X160013568Y-111776278D01*
X160088078Y-111739023D01*
X160326681Y-111739023D01*
X160401193Y-111776279D01*
X160432028Y-111807115D01*
X160469284Y-111881627D01*
X160469284Y-111950880D01*
X160425505Y-112082217D01*
X159732087Y-112775635D01*
X159721390Y-112795224D01*
X159706771Y-112812096D01*
X159704838Y-112825536D01*
X159698332Y-112837452D01*
X159699924Y-112859715D01*
X159696747Y-112881812D01*
X159466728Y-112881812D01*
X159469285Y-112864023D01*
X159469285Y-111614023D01*
X159449442Y-111546443D01*
X159396212Y-111500319D01*
X159326496Y-111490295D01*
X159262427Y-111519554D01*
X159224348Y-111578806D01*
X159219285Y-111614023D01*
X159219285Y-112864023D01*
X158698970Y-112864023D01*
X158989696Y-111642975D01*
X158986045Y-111572637D01*
X158944946Y-111515438D01*
X158879448Y-111489539D01*
X158810344Y-111503163D01*
X158759577Y-111551983D01*
X158746494Y-111585070D01*
X158563613Y-112353164D01*
X158453159Y-111938958D01*
X158451479Y-111936195D01*
X158451399Y-111932963D01*
X158433311Y-111906307D01*
X158416574Y-111878773D01*
X158413666Y-111877356D01*
X158411851Y-111874681D01*
X158382211Y-111862030D01*
X158353256Y-111847922D01*
X158350046Y-111848301D01*
X158347072Y-111847032D01*
X158315302Y-111852413D01*
X158283312Y-111856199D01*
X158280815Y-111858254D01*
X158277627Y-111858795D01*
X158253813Y-111880495D01*
X158228945Y-111900978D01*
X158227956Y-111904057D01*
X158225567Y-111906235D01*
X158211601Y-111938958D01*
X158101146Y-112353163D01*
X157918267Y-111585070D01*
X157883310Y-111523924D01*
X157820845Y-111491384D01*
X157750703Y-111497780D01*
X157695153Y-111541083D01*
X157671834Y-111607544D01*
X156430673Y-111607544D01*
X156432299Y-111596234D01*
X156403040Y-111532165D01*
X156343788Y-111494086D01*
X156308571Y-111489023D01*
X156070476Y-111489023D01*
X156059606Y-111492214D01*
X156048338Y-111490998D01*
X156014575Y-111502219D01*
X155895526Y-111561744D01*
X155893812Y-111563337D01*
X155891522Y-111563836D01*
X155863040Y-111585158D01*
X155803516Y-111644683D01*
X155801244Y-111648843D01*
X155787897Y-111663734D01*
X155668851Y-111842305D01*
X155667746Y-111845843D01*
X155665042Y-111848387D01*
X155651589Y-111881325D01*
X155592065Y-112119421D01*
X155592203Y-112122818D01*
X155588333Y-112149738D01*
X155588333Y-112625928D01*
X155362142Y-112625928D01*
X155362142Y-112328309D01*
X155358949Y-112317436D01*
X155360166Y-112306171D01*
X155348946Y-112272408D01*
X155289423Y-112153360D01*
X155287827Y-112151644D01*
X155287329Y-112149354D01*
X155266007Y-112120872D01*
X155206483Y-112061349D01*
X155204428Y-112060226D01*
X155203232Y-112058213D01*
X155173997Y-112037935D01*
X155054949Y-111978411D01*
X155043798Y-111976404D01*
X155034264Y-111970277D01*
X154999047Y-111965214D01*
X154701428Y-111965214D01*
X154690555Y-111968406D01*
X154679289Y-111967190D01*
X154672461Y-111969459D01*
X154695505Y-111739023D01*
X155177619Y-111739023D01*
X155245199Y-111719180D01*
X155291323Y-111665950D01*
X155301347Y-111596234D01*
X155272088Y-111532165D01*
X155212836Y-111494086D01*
X155177619Y-111489023D01*
X154582381Y-111489023D01*
X154579702Y-111489809D01*
X154576992Y-111489139D01*
X154546100Y-111499675D01*
X154514801Y-111508866D01*
X154512973Y-111510974D01*
X154510329Y-111511877D01*
X154490028Y-111537455D01*
X154468677Y-111562096D01*
X154468279Y-111564857D01*
X154466543Y-111567046D01*
X154458001Y-111601585D01*
X154398477Y-112196823D01*
X154403716Y-112224679D01*
X154405738Y-112252943D01*
X154410138Y-112258822D01*
X154411497Y-112266042D01*
X154430963Y-112286640D01*
X154447946Y-112309328D01*
X154454828Y-112311895D01*
X154459874Y-112317234D01*
X154487385Y-112324038D01*
X154513939Y-112333943D01*
X154521116Y-112332381D01*
X154528246Y-112334145D01*
X154555065Y-112324996D01*
X154582762Y-112318972D01*
X154591161Y-112312684D01*
X154594909Y-112311406D01*
X154597895Y-112307643D01*
X154611245Y-112297650D01*
X154656426Y-112252469D01*
X154730936Y-112215214D01*
X154969539Y-112215214D01*
X155044050Y-112252470D01*
X155074886Y-112283306D01*
X155112142Y-112357817D01*
X155112142Y-112596419D01*
X155074886Y-112670931D01*
X155044051Y-112701766D01*
X154969538Y-112739023D01*
X154730937Y-112739023D01*
X154656425Y-112701767D01*
X154611245Y-112656588D01*
X154549428Y-112622832D01*
X154479174Y-112627857D01*
X154422789Y-112670066D01*
X154398175Y-112736059D01*
X153814524Y-112736059D01*
X153814524Y-111614023D01*
X153804893Y-111581225D01*
X153795802Y-111548219D01*
X153794988Y-111547489D01*
X153794681Y-111546443D01*
X153768861Y-111524070D01*
X153743355Y-111501207D01*
X153742275Y-111501033D01*
X153741451Y-111500319D01*
X153707625Y-111495455D01*
X153673816Y-111490013D01*
X153672814Y-111490450D01*
X153671735Y-111490295D01*
X153640657Y-111504487D01*
X153609265Y-111518191D01*
X153608304Y-111519262D01*
X153607666Y-111519554D01*
X153606710Y-111521041D01*
X153585518Y-111544685D01*
X153473336Y-111712957D01*
X153377382Y-111808911D01*
X153276479Y-111859363D01*
X153224908Y-111907334D01*
X153207459Y-111975571D01*
X151433572Y-111975571D01*
X151433572Y-111739023D01*
X151903810Y-111739023D01*
X151971390Y-111719180D01*
X152017514Y-111665950D01*
X152027538Y-111596234D01*
X151998279Y-111532165D01*
X151939027Y-111494086D01*
X151903810Y-111489023D01*
X151308572Y-111489023D01*
X151299816Y-111491593D01*
X151290783Y-111490295D01*
X151266550Y-111501361D01*
X151240992Y-111508866D01*
X151235016Y-111515762D01*
X151226714Y-111519554D01*
X151212310Y-111541966D01*
X151194868Y-111562096D01*
X151193569Y-111571128D01*
X151188635Y-111578806D01*
X151183572Y-111614023D01*
X151183572Y-112864023D01*
X151015672Y-112864023D01*
X151016823Y-112859505D01*
X151010489Y-112824494D01*
X150593823Y-111574495D01*
X150576203Y-111549141D01*
X150560457Y-111522575D01*
X150556289Y-111520486D01*
X150553628Y-111516657D01*
X150525090Y-111504851D01*
X150497488Y-111491019D01*
X150492852Y-111491515D01*
X150488544Y-111489733D01*
X150458161Y-111495228D01*
X150427454Y-111498516D01*
X150423821Y-111501440D01*
X150419236Y-111502270D01*
X150396653Y-111523313D01*
X150372592Y-111542686D01*
X150369724Y-111548407D01*
X150367707Y-111550288D01*
X150366594Y-111554654D01*
X150356653Y-111574494D01*
X149939986Y-112824495D01*
X149937440Y-112894881D01*
X149762469Y-112894881D01*
X149766905Y-112864023D01*
X149766905Y-111614023D01*
X149764479Y-111605763D01*
X149765775Y-111597253D01*
X149754707Y-111572480D01*
X149747062Y-111546443D01*
X149740555Y-111540804D01*
X149737044Y-111532946D01*
X149714339Y-111518088D01*
X149693832Y-111500319D01*
X149685311Y-111499093D01*
X149678108Y-111494380D01*
X149650975Y-111494156D01*
X149624116Y-111490295D01*
X149616283Y-111493871D01*
X149607676Y-111493801D01*
X149584732Y-111508280D01*
X149560047Y-111519554D01*
X149555392Y-111526797D01*
X149548113Y-111531391D01*
X149528632Y-111561163D01*
X149225238Y-112211291D01*
X148921845Y-111561162D01*
X148916154Y-111554702D01*
X148913729Y-111546443D01*
X148893222Y-111528674D01*
X148875285Y-111508314D01*
X148867005Y-111505956D01*
X148860499Y-111500319D01*
X148833641Y-111496457D01*
X148807544Y-111489027D01*
X148799304Y-111491520D01*
X148790783Y-111490295D01*
X148766102Y-111501566D01*
X148740129Y-111509425D01*
X148734544Y-111515977D01*
X148726714Y-111519554D01*
X148712044Y-111542379D01*
X148694444Y-111563033D01*
X148693288Y-111571564D01*
X148688635Y-111578806D01*
X148683572Y-111614023D01*
X148683572Y-112864023D01*
X147445476Y-112864023D01*
X147445476Y-112804500D01*
X147425633Y-112736920D01*
X147372403Y-112690796D01*
X147302687Y-112680772D01*
X147238618Y-112710031D01*
X147200539Y-112769283D01*
X147195476Y-112804500D01*
X147195476Y-112834514D01*
X147158220Y-112909026D01*
X147113041Y-112954207D01*
X147079285Y-113016024D01*
X140053892Y-113016024D01*
X140053892Y-111631812D01*
X140232463Y-111631812D01*
X140261722Y-111695881D01*
X140320974Y-111733960D01*
X140356191Y-111739023D01*
X140588334Y-111739023D01*
X140588334Y-112864023D01*
X140608177Y-112931603D01*
X140661407Y-112977727D01*
X140731123Y-112987751D01*
X140795192Y-112958492D01*
X140833271Y-112899240D01*
X140838334Y-112864023D01*
X141362144Y-112864023D01*
X141364714Y-112872778D01*
X141363416Y-112881812D01*
X141374482Y-112906044D01*
X141381987Y-112931603D01*
X141388883Y-112937578D01*
X141392675Y-112945881D01*
X141415087Y-112960284D01*
X141435217Y-112977727D01*
X141444249Y-112979025D01*
X141451927Y-112983960D01*
X141487144Y-112989023D01*
X142082382Y-112989023D01*
X142149962Y-112969180D01*
X142196086Y-112915950D01*
X142199115Y-112894881D01*
X142318393Y-112894881D01*
X142354305Y-112955471D01*
X142417274Y-112987027D01*
X142487308Y-112979530D01*
X142542170Y-112935360D01*
X142558109Y-112903551D01*
X142648666Y-112631880D01*
X143063714Y-112631880D01*
X143154271Y-112903551D01*
X143194467Y-112961388D01*
X143259551Y-112988312D01*
X143328859Y-112975776D01*
X143380388Y-112927758D01*
X143396625Y-112864023D01*
X143564525Y-112864023D01*
X143584368Y-112931603D01*
X143637598Y-112977727D01*
X143707314Y-112987751D01*
X143771383Y-112958492D01*
X143809462Y-112899240D01*
X143814525Y-112864023D01*
X143814525Y-112177469D01*
X143992918Y-112559741D01*
X144004133Y-112572470D01*
X144011052Y-112587957D01*
X144026931Y-112598348D01*
X144039478Y-112612589D01*
X144055792Y-112617234D01*
X144069988Y-112626523D01*
X144088966Y-112626679D01*
X144107219Y-112631876D01*
X144123455Y-112626963D01*
X144140420Y-112627103D01*
X144156469Y-112616973D01*
X144174634Y-112611478D01*
X144185637Y-112598566D01*
X144199983Y-112589513D01*
X144219464Y-112559741D01*
X144397858Y-112177468D01*
X144397858Y-112864023D01*
X144417701Y-112931603D01*
X144470931Y-112977727D01*
X144540647Y-112987751D01*
X144604716Y-112958492D01*
X144642795Y-112899240D01*
X144647858Y-112864023D01*
X144647858Y-112625928D01*
X145885953Y-112625928D01*
X145889145Y-112636800D01*
X145887929Y-112648066D01*
X145899150Y-112681830D01*
X145958674Y-112800878D01*
X145960267Y-112802591D01*
X145960766Y-112804881D01*
X145982088Y-112833364D01*
X146041611Y-112892888D01*
X146043667Y-112894010D01*
X146044864Y-112896026D01*
X146074099Y-112916304D01*
X146193147Y-112975827D01*
X146204298Y-112977833D01*
X146213831Y-112983960D01*
X146249048Y-112989023D01*
X146487143Y-112989023D01*
X146498012Y-112985831D01*
X146509281Y-112987048D01*
X146543044Y-112975827D01*
X146662092Y-112916304D01*
X146663807Y-112914708D01*
X146666097Y-112914210D01*
X146694579Y-112892888D01*
X146754104Y-112833364D01*
X146755226Y-112831308D01*
X146757241Y-112830112D01*
X146777519Y-112800877D01*
X146837042Y-112681829D01*
X146839048Y-112670677D01*
X146845175Y-112661145D01*
X146850238Y-112625928D01*
X146850238Y-112387833D01*
X146847045Y-112376960D01*
X146848262Y-112365695D01*
X146837042Y-112331932D01*
X146777519Y-112212884D01*
X146775924Y-112211169D01*
X146775426Y-112208879D01*
X146754104Y-112180397D01*
X146723443Y-112149737D01*
X146754104Y-112119078D01*
X146755226Y-112117022D01*
X146757241Y-112115826D01*
X146777519Y-112086591D01*
X146837042Y-111967543D01*
X146839048Y-111956391D01*
X146845175Y-111946859D01*
X146850238Y-111911642D01*
X146850238Y-111852119D01*
X146847045Y-111841246D01*
X146848262Y-111829981D01*
X146837042Y-111796218D01*
X146777519Y-111677170D01*
X146775924Y-111675455D01*
X146775426Y-111673165D01*
X146754104Y-111644683D01*
X146694579Y-111585159D01*
X146692525Y-111584037D01*
X146691328Y-111582022D01*
X146662093Y-111561744D01*
X146543045Y-111502220D01*
X146531894Y-111500213D01*
X146522360Y-111494086D01*
X146487143Y-111489023D01*
X146249048Y-111489023D01*
X146238178Y-111492214D01*
X146226910Y-111490998D01*
X146193147Y-111502219D01*
X146074098Y-111561744D01*
X146072383Y-111563338D01*
X146070093Y-111563837D01*
X146041611Y-111585159D01*
X145982088Y-111644683D01*
X145980965Y-111646737D01*
X145978952Y-111647934D01*
X145958674Y-111677169D01*
X145899150Y-111796217D01*
X145897143Y-111807367D01*
X145891016Y-111816902D01*
X145885953Y-111852119D01*
X145885953Y-111911642D01*
X145889145Y-111922514D01*
X145887929Y-111933780D01*
X145899150Y-111967544D01*
X145958674Y-112086592D01*
X145960267Y-112088305D01*
X145960766Y-112090595D01*
X145982088Y-112119078D01*
X146012746Y-112149737D01*
X145982088Y-112180397D01*
X145980965Y-112182451D01*
X145978952Y-112183648D01*
X145958674Y-112212883D01*
X145899150Y-112331931D01*
X145897143Y-112343081D01*
X145891016Y-112352616D01*
X145885953Y-112387833D01*
X145885953Y-112625928D01*
X144647858Y-112625928D01*
X144647858Y-111614023D01*
X144645432Y-111605763D01*
X144646728Y-111597253D01*
X144635660Y-111572480D01*
X144628015Y-111546443D01*
X144621508Y-111540804D01*
X144617997Y-111532946D01*
X144595292Y-111518088D01*
X144574785Y-111500319D01*
X144566264Y-111499093D01*
X144559061Y-111494380D01*
X144531928Y-111494156D01*
X144505069Y-111490295D01*
X144497236Y-111493871D01*
X144488629Y-111493801D01*
X144465685Y-111508280D01*
X144441000Y-111519554D01*
X144436345Y-111526797D01*
X144429066Y-111531391D01*
X144409585Y-111561163D01*
X144106191Y-112211291D01*
X143802798Y-111561162D01*
X143797107Y-111554702D01*
X143794682Y-111546443D01*
X143774175Y-111528674D01*
X143756238Y-111508314D01*
X143747958Y-111505956D01*
X143741452Y-111500319D01*
X143714594Y-111496457D01*
X143688497Y-111489027D01*
X143680257Y-111491520D01*
X143671736Y-111490295D01*
X143647055Y-111501566D01*
X143621082Y-111509425D01*
X143615497Y-111515977D01*
X143607667Y-111519554D01*
X143592997Y-111542379D01*
X143575397Y-111563033D01*
X143574241Y-111571564D01*
X143569588Y-111578806D01*
X143564525Y-111614023D01*
X143564525Y-112864023D01*
X143396625Y-112864023D01*
X143397776Y-112859505D01*
X143391442Y-112824494D01*
X142974776Y-111574495D01*
X142957156Y-111549141D01*
X142941410Y-111522575D01*
X142937242Y-111520486D01*
X142934581Y-111516657D01*
X142906043Y-111504851D01*
X142878441Y-111491019D01*
X142873805Y-111491515D01*
X142869497Y-111489733D01*
X142839114Y-111495228D01*
X142808407Y-111498516D01*
X142804774Y-111501440D01*
X142800189Y-111502270D01*
X142777606Y-111523313D01*
X142753545Y-111542686D01*
X142750677Y-111548407D01*
X142748660Y-111550288D01*
X142747547Y-111554654D01*
X142737606Y-111574494D01*
X142320939Y-112824495D01*
X142318393Y-112894881D01*
X142199115Y-112894881D01*
X142206110Y-112846234D01*
X142176851Y-112782165D01*
X142117599Y-112744086D01*
X142082382Y-112739023D01*
X141612144Y-112739023D01*
X141612144Y-112334261D01*
X141903810Y-112334261D01*
X141971390Y-112314418D01*
X142017514Y-112261188D01*
X142027538Y-112191472D01*
X141998279Y-112127403D01*
X141939027Y-112089324D01*
X141903810Y-112084261D01*
X141612144Y-112084261D01*
X141612144Y-111739023D01*
X142082382Y-111739023D01*
X142149962Y-111719180D01*
X142196086Y-111665950D01*
X142206110Y-111596234D01*
X142176851Y-111532165D01*
X142117599Y-111494086D01*
X142082382Y-111489023D01*
X141487144Y-111489023D01*
X141478388Y-111491593D01*
X141469355Y-111490295D01*
X141445122Y-111501361D01*
X141419564Y-111508866D01*
X141413588Y-111515762D01*
X141405286Y-111519554D01*
X141390882Y-111541966D01*
X141373440Y-111562096D01*
X141372141Y-111571128D01*
X141367207Y-111578806D01*
X141362144Y-111614023D01*
X141362144Y-112864023D01*
X140838334Y-112864023D01*
X140838334Y-111739023D01*
X141070477Y-111739023D01*
X141138057Y-111719180D01*
X141184181Y-111665950D01*
X141194205Y-111596234D01*
X141164946Y-111532165D01*
X141105694Y-111494086D01*
X141070477Y-111489023D01*
X140356191Y-111489023D01*
X140288611Y-111508866D01*
X140242487Y-111562096D01*
X140232463Y-111631812D01*
X140053892Y-111631812D01*
X140053892Y-111252925D01*
X162146583Y-111252925D01*
X162146583Y-113345848D01*
G37*
G36*
X141204763Y-109236278D02*
G01*
X141284985Y-109316500D01*
X141332380Y-109506079D01*
X141332380Y-109891967D01*
X141284985Y-110081546D01*
X141204764Y-110161767D01*
X141130252Y-110199023D01*
X140951175Y-110199023D01*
X140876662Y-110161767D01*
X140796441Y-110081545D01*
X140749047Y-109891967D01*
X140749047Y-109506079D01*
X140796441Y-109316501D01*
X140876664Y-109236277D01*
X140951174Y-109199023D01*
X141130253Y-109199023D01*
X141204763Y-109236278D01*
G37*
G36*
X143830332Y-109838038D02*
G01*
X143854648Y-109862354D01*
X143891904Y-109936865D01*
X143891904Y-110056420D01*
X143854648Y-110130930D01*
X143823811Y-110161767D01*
X143749300Y-110199023D01*
X143427619Y-110199023D01*
X143427619Y-109794261D01*
X143699002Y-109794261D01*
X143830332Y-109838038D01*
G37*
G36*
X143764289Y-109236279D02*
G01*
X143795124Y-109267115D01*
X143832380Y-109341627D01*
X143832380Y-109401657D01*
X143795124Y-109476169D01*
X143764289Y-109507004D01*
X143689776Y-109544261D01*
X143427619Y-109544261D01*
X143427619Y-109199023D01*
X143689777Y-109199023D01*
X143764289Y-109236279D01*
G37*
G36*
X145073811Y-109236278D02*
G01*
X145154033Y-109316500D01*
X145201428Y-109506079D01*
X145201428Y-109891967D01*
X145154033Y-110081546D01*
X145073812Y-110161767D01*
X144999300Y-110199023D01*
X144820223Y-110199023D01*
X144745710Y-110161767D01*
X144665489Y-110081545D01*
X144618095Y-109891967D01*
X144618095Y-109506079D01*
X144665489Y-109316501D01*
X144745712Y-109236277D01*
X144820222Y-109199023D01*
X144999301Y-109199023D01*
X145073811Y-109236278D01*
G37*
G36*
X148592239Y-109242800D02*
G01*
X148676077Y-109326639D01*
X148720392Y-109415270D01*
X148772857Y-109625127D01*
X148772857Y-109772919D01*
X148720392Y-109982775D01*
X148676077Y-110071407D01*
X148592239Y-110155246D01*
X148460906Y-110199023D01*
X148308572Y-110199023D01*
X148308572Y-109199023D01*
X148460907Y-109199023D01*
X148592239Y-109242800D01*
G37*
G36*
X152157145Y-109236278D02*
G01*
X152237367Y-109316500D01*
X152284762Y-109506079D01*
X152284762Y-109891967D01*
X152237367Y-110081546D01*
X152157146Y-110161767D01*
X152082634Y-110199023D01*
X151903557Y-110199023D01*
X151829044Y-110161767D01*
X151748823Y-110081545D01*
X151701429Y-109891967D01*
X151701429Y-109506079D01*
X151748823Y-109316501D01*
X151829046Y-109236277D01*
X151903556Y-109199023D01*
X152082635Y-109199023D01*
X152157145Y-109236278D01*
G37*
G36*
X156978574Y-109236278D02*
G01*
X157058796Y-109316500D01*
X157106191Y-109506079D01*
X157106191Y-109891967D01*
X157058796Y-110081546D01*
X156978575Y-110161767D01*
X156904063Y-110199023D01*
X156724986Y-110199023D01*
X156650473Y-110161767D01*
X156570252Y-110081545D01*
X156522858Y-109891967D01*
X156522858Y-109506079D01*
X156570252Y-109316501D01*
X156650475Y-109236277D01*
X156724985Y-109199023D01*
X156904064Y-109199023D01*
X156978574Y-109236278D01*
G37*
G36*
X146224428Y-109841880D02*
G01*
X145976046Y-109841880D01*
X146100237Y-109469306D01*
X146224428Y-109841880D01*
G37*
G36*
X147454764Y-109236278D02*
G01*
X147485601Y-109267116D01*
X147522857Y-109341627D01*
X147522857Y-109461182D01*
X147485601Y-109535692D01*
X147454766Y-109566528D01*
X147380254Y-109603785D01*
X147058572Y-109603785D01*
X147058572Y-109199023D01*
X147380254Y-109199023D01*
X147454764Y-109236278D01*
G37*
G36*
X155728574Y-109236278D02*
G01*
X155759411Y-109267116D01*
X155796667Y-109341627D01*
X155796667Y-109461182D01*
X155759411Y-109535692D01*
X155728576Y-109566528D01*
X155654064Y-109603785D01*
X155332382Y-109603785D01*
X155332382Y-109199023D01*
X155654064Y-109199023D01*
X155728574Y-109236278D01*
G37*
G36*
X161442860Y-109236278D02*
G01*
X161473697Y-109267116D01*
X161510953Y-109341627D01*
X161510953Y-109461182D01*
X161473697Y-109535692D01*
X161442862Y-109566528D01*
X161368350Y-109603785D01*
X161046668Y-109603785D01*
X161046668Y-109199023D01*
X161368350Y-109199023D01*
X161442860Y-109236278D01*
G37*
G36*
X149170856Y-107829380D02*
G01*
X148922474Y-107829380D01*
X149046665Y-107456806D01*
X149170856Y-107829380D01*
G37*
G36*
X142401760Y-105813038D02*
G01*
X142426076Y-105837354D01*
X142463332Y-105911865D01*
X142463332Y-106031420D01*
X142426076Y-106105930D01*
X142395239Y-106136767D01*
X142320728Y-106174023D01*
X141999047Y-106174023D01*
X141999047Y-105769261D01*
X142270430Y-105769261D01*
X142401760Y-105813038D01*
G37*
G36*
X142335717Y-105211279D02*
G01*
X142366552Y-105242115D01*
X142403808Y-105316627D01*
X142403808Y-105376657D01*
X142366552Y-105451169D01*
X142335717Y-105482004D01*
X142261204Y-105519261D01*
X141999047Y-105519261D01*
X141999047Y-105174023D01*
X142261205Y-105174023D01*
X142335717Y-105211279D01*
G37*
G36*
X147044617Y-105813038D02*
G01*
X147068933Y-105837354D01*
X147106189Y-105911865D01*
X147106189Y-106031420D01*
X147068933Y-106105930D01*
X147038096Y-106136767D01*
X146963585Y-106174023D01*
X146641904Y-106174023D01*
X146641904Y-105769261D01*
X146913287Y-105769261D01*
X147044617Y-105813038D01*
G37*
G36*
X146978574Y-105211279D02*
G01*
X147009409Y-105242115D01*
X147046665Y-105316627D01*
X147046665Y-105376657D01*
X147009409Y-105451169D01*
X146978574Y-105482004D01*
X146904061Y-105519261D01*
X146641904Y-105519261D01*
X146641904Y-105174023D01*
X146904062Y-105174023D01*
X146978574Y-105211279D01*
G37*
G36*
X156032715Y-105217800D02*
G01*
X156116553Y-105301639D01*
X156160868Y-105390270D01*
X156213333Y-105600127D01*
X156213333Y-105747919D01*
X156160868Y-105957775D01*
X156116553Y-106046407D01*
X156032715Y-106130246D01*
X155901382Y-106174023D01*
X155749048Y-106174023D01*
X155749048Y-105174023D01*
X155901383Y-105174023D01*
X156032715Y-105217800D01*
G37*
G36*
X143486332Y-105816880D02*
G01*
X143237950Y-105816880D01*
X143362141Y-105444306D01*
X143486332Y-105816880D01*
G37*
G36*
X148129189Y-105816880D02*
G01*
X147880807Y-105816880D01*
X148004998Y-105444306D01*
X148129189Y-105816880D01*
G37*
G36*
X161939524Y-110627594D02*
G01*
X140320476Y-110627594D01*
X140320476Y-109907357D01*
X140499047Y-109907357D01*
X140500005Y-109910619D01*
X140502779Y-109937674D01*
X140562303Y-110175769D01*
X140570440Y-110189640D01*
X140573860Y-110205358D01*
X140595182Y-110233840D01*
X140714230Y-110352888D01*
X140716284Y-110354009D01*
X140717482Y-110356026D01*
X140746717Y-110376304D01*
X140865765Y-110435827D01*
X140876916Y-110437833D01*
X140886449Y-110443960D01*
X140921666Y-110449023D01*
X141159761Y-110449023D01*
X141170630Y-110445831D01*
X141181899Y-110447048D01*
X141215662Y-110435827D01*
X141334710Y-110376304D01*
X141336425Y-110374708D01*
X141338716Y-110374210D01*
X141367198Y-110352888D01*
X141396063Y-110324023D01*
X141868095Y-110324023D01*
X141887938Y-110391603D01*
X141941168Y-110437727D01*
X142010884Y-110447751D01*
X142074953Y-110418492D01*
X142113032Y-110359240D01*
X142118095Y-110324023D01*
X142118095Y-109544718D01*
X142598850Y-110386041D01*
X142601274Y-110388373D01*
X142602223Y-110391603D01*
X142626471Y-110412614D01*
X142649607Y-110434872D01*
X142652910Y-110435523D01*
X142655453Y-110437727D01*
X142687214Y-110442293D01*
X142718708Y-110448509D01*
X142721838Y-110447272D01*
X142725169Y-110447751D01*
X142754352Y-110434423D01*
X142784212Y-110422624D01*
X142786177Y-110419889D01*
X142789238Y-110418492D01*
X142806581Y-110391504D01*
X142825323Y-110365433D01*
X142825498Y-110362070D01*
X142827317Y-110359240D01*
X142832380Y-110324023D01*
X143177619Y-110324023D01*
X143180189Y-110332778D01*
X143178891Y-110341812D01*
X143189957Y-110366044D01*
X143197462Y-110391603D01*
X143204358Y-110397578D01*
X143208150Y-110405881D01*
X143230562Y-110420284D01*
X143250692Y-110437727D01*
X143259724Y-110439025D01*
X143267402Y-110443960D01*
X143302619Y-110449023D01*
X143778809Y-110449023D01*
X143789678Y-110445831D01*
X143800947Y-110447048D01*
X143834710Y-110435827D01*
X143953758Y-110376304D01*
X143955473Y-110374708D01*
X143957764Y-110374210D01*
X143986246Y-110352888D01*
X144045769Y-110293364D01*
X144046891Y-110291307D01*
X144048905Y-110290112D01*
X144069183Y-110260878D01*
X144128708Y-110141829D01*
X144130714Y-110130677D01*
X144136841Y-110121145D01*
X144141904Y-110085928D01*
X144141904Y-109907357D01*
X144368095Y-109907357D01*
X144369053Y-109910619D01*
X144371827Y-109937674D01*
X144431351Y-110175769D01*
X144439488Y-110189640D01*
X144442908Y-110205358D01*
X144464230Y-110233840D01*
X144583278Y-110352888D01*
X144585332Y-110354009D01*
X144586530Y-110356026D01*
X144615765Y-110376304D01*
X144734813Y-110435827D01*
X144745964Y-110437833D01*
X144755497Y-110443960D01*
X144790714Y-110449023D01*
X145028809Y-110449023D01*
X145039678Y-110445831D01*
X145050947Y-110447048D01*
X145084710Y-110435827D01*
X145203758Y-110376304D01*
X145205473Y-110374708D01*
X145207764Y-110374210D01*
X145233584Y-110354881D01*
X145562440Y-110354881D01*
X145598352Y-110415471D01*
X145661321Y-110447027D01*
X145731355Y-110439530D01*
X145786217Y-110395360D01*
X145802156Y-110363551D01*
X145892713Y-110091880D01*
X146307761Y-110091880D01*
X146398318Y-110363551D01*
X146438514Y-110421388D01*
X146503598Y-110448312D01*
X146572906Y-110435776D01*
X146624435Y-110387758D01*
X146640672Y-110324023D01*
X146808572Y-110324023D01*
X146828415Y-110391603D01*
X146881645Y-110437727D01*
X146951361Y-110447751D01*
X147015430Y-110418492D01*
X147053509Y-110359240D01*
X147058572Y-110324023D01*
X147058572Y-109853785D01*
X147166109Y-109853785D01*
X147545453Y-110395706D01*
X147600463Y-110439690D01*
X147670521Y-110446951D01*
X147733383Y-110415183D01*
X147769092Y-110354472D01*
X147767888Y-110324023D01*
X148058572Y-110324023D01*
X148061142Y-110332778D01*
X148059844Y-110341812D01*
X148070910Y-110366044D01*
X148078415Y-110391603D01*
X148085311Y-110397578D01*
X148089103Y-110405881D01*
X148111515Y-110420284D01*
X148131645Y-110437727D01*
X148140677Y-110439025D01*
X148148355Y-110443960D01*
X148183572Y-110449023D01*
X148481191Y-110449023D01*
X148483437Y-110448363D01*
X148485708Y-110448942D01*
X148520719Y-110442609D01*
X148699290Y-110383086D01*
X148708595Y-110376618D01*
X148719668Y-110374210D01*
X148748150Y-110352888D01*
X148867198Y-110233841D01*
X148868320Y-110231784D01*
X148870336Y-110230588D01*
X148890614Y-110201353D01*
X148950137Y-110082305D01*
X148950913Y-110077992D01*
X148959601Y-110056721D01*
X149019125Y-109818626D01*
X149018986Y-109815228D01*
X149022857Y-109788309D01*
X150201429Y-109788309D01*
X150202387Y-109791571D01*
X150205161Y-109818626D01*
X150264685Y-110056721D01*
X150266902Y-110060500D01*
X150274149Y-110082305D01*
X150333672Y-110201353D01*
X150335267Y-110203068D01*
X150335766Y-110205358D01*
X150357088Y-110233840D01*
X150476135Y-110352888D01*
X150486079Y-110358318D01*
X150493187Y-110367146D01*
X150524996Y-110383086D01*
X150703567Y-110442608D01*
X150705905Y-110442692D01*
X150707878Y-110443960D01*
X150743095Y-110449023D01*
X150862143Y-110449023D01*
X150864389Y-110448363D01*
X150866660Y-110448942D01*
X150901671Y-110442609D01*
X151080242Y-110383086D01*
X151089547Y-110376618D01*
X151100620Y-110374210D01*
X151129102Y-110352888D01*
X151188627Y-110293364D01*
X151222382Y-110231547D01*
X151217357Y-110161293D01*
X151175148Y-110104908D01*
X151109156Y-110080294D01*
X151040332Y-110095265D01*
X151011850Y-110116587D01*
X150973191Y-110155246D01*
X150841858Y-110199023D01*
X150763381Y-110199023D01*
X150632046Y-110155245D01*
X150548209Y-110071409D01*
X150503893Y-109982775D01*
X150485038Y-109907357D01*
X151451429Y-109907357D01*
X151452387Y-109910619D01*
X151455161Y-109937674D01*
X151514685Y-110175769D01*
X151522822Y-110189640D01*
X151526242Y-110205358D01*
X151547564Y-110233840D01*
X151666612Y-110352888D01*
X151668666Y-110354009D01*
X151669864Y-110356026D01*
X151699099Y-110376304D01*
X151818147Y-110435827D01*
X151829298Y-110437833D01*
X151838831Y-110443960D01*
X151874048Y-110449023D01*
X152112143Y-110449023D01*
X152123012Y-110445831D01*
X152134281Y-110447048D01*
X152168044Y-110435827D01*
X152287092Y-110376304D01*
X152288807Y-110374708D01*
X152291098Y-110374210D01*
X152319580Y-110352888D01*
X152348445Y-110324023D01*
X152820477Y-110324023D01*
X152840320Y-110391603D01*
X152893550Y-110437727D01*
X152963266Y-110447751D01*
X153027335Y-110418492D01*
X153065414Y-110359240D01*
X153070477Y-110324023D01*
X153070477Y-109544718D01*
X153551232Y-110386041D01*
X153553656Y-110388373D01*
X153554605Y-110391603D01*
X153578853Y-110412614D01*
X153601989Y-110434872D01*
X153605292Y-110435523D01*
X153607835Y-110437727D01*
X153639596Y-110442293D01*
X153671090Y-110448509D01*
X153674220Y-110447272D01*
X153677551Y-110447751D01*
X153706734Y-110434423D01*
X153736594Y-110422624D01*
X153738559Y-110419889D01*
X153741620Y-110418492D01*
X153758963Y-110391504D01*
X153777705Y-110365433D01*
X153777880Y-110362070D01*
X153779699Y-110359240D01*
X153784762Y-110324023D01*
X153784762Y-109091812D01*
X153952701Y-109091812D01*
X153981960Y-109155881D01*
X154041212Y-109193960D01*
X154076429Y-109199023D01*
X154308572Y-109199023D01*
X154308572Y-110324023D01*
X154328415Y-110391603D01*
X154381645Y-110437727D01*
X154451361Y-110447751D01*
X154515430Y-110418492D01*
X154553509Y-110359240D01*
X154558572Y-110324023D01*
X155082382Y-110324023D01*
X155102225Y-110391603D01*
X155155455Y-110437727D01*
X155225171Y-110447751D01*
X155289240Y-110418492D01*
X155327319Y-110359240D01*
X155332382Y-110324023D01*
X155332382Y-109853785D01*
X155439919Y-109853785D01*
X155819263Y-110395706D01*
X155874273Y-110439690D01*
X155944331Y-110446951D01*
X156007193Y-110415183D01*
X156042902Y-110354472D01*
X156040119Y-110284094D01*
X156024071Y-110252340D01*
X155782583Y-109907357D01*
X156272858Y-109907357D01*
X156273816Y-109910619D01*
X156276590Y-109937674D01*
X156336114Y-110175769D01*
X156344251Y-110189640D01*
X156347671Y-110205358D01*
X156368993Y-110233840D01*
X156488041Y-110352888D01*
X156490095Y-110354009D01*
X156491293Y-110356026D01*
X156520528Y-110376304D01*
X156639576Y-110435827D01*
X156650727Y-110437833D01*
X156660260Y-110443960D01*
X156695477Y-110449023D01*
X156933572Y-110449023D01*
X156944441Y-110445831D01*
X156955710Y-110447048D01*
X156989473Y-110435827D01*
X157108521Y-110376304D01*
X157110236Y-110374708D01*
X157112527Y-110374210D01*
X157141009Y-110352888D01*
X157169874Y-110324023D01*
X157641906Y-110324023D01*
X157644476Y-110332778D01*
X157643178Y-110341812D01*
X157654244Y-110366044D01*
X157661749Y-110391603D01*
X157668645Y-110397578D01*
X157672437Y-110405881D01*
X157694849Y-110420284D01*
X157714979Y-110437727D01*
X157724011Y-110439025D01*
X157731689Y-110443960D01*
X157766906Y-110449023D01*
X158362144Y-110449023D01*
X158429724Y-110429180D01*
X158475848Y-110375950D01*
X158483314Y-110324023D01*
X158653811Y-110324023D01*
X158656381Y-110332778D01*
X158655083Y-110341812D01*
X158666149Y-110366044D01*
X158673654Y-110391603D01*
X158680550Y-110397578D01*
X158684342Y-110405881D01*
X158706754Y-110420284D01*
X158726884Y-110437727D01*
X158735916Y-110439025D01*
X158743594Y-110443960D01*
X158778811Y-110449023D01*
X159374049Y-110449023D01*
X159441629Y-110429180D01*
X159487753Y-110375950D01*
X159495219Y-110324023D01*
X159665716Y-110324023D01*
X159668286Y-110332778D01*
X159666988Y-110341812D01*
X159678054Y-110366044D01*
X159685559Y-110391603D01*
X159692455Y-110397578D01*
X159696247Y-110405881D01*
X159718659Y-110420284D01*
X159738789Y-110437727D01*
X159747821Y-110439025D01*
X159755499Y-110443960D01*
X159790716Y-110449023D01*
X160385954Y-110449023D01*
X160453534Y-110429180D01*
X160499658Y-110375950D01*
X160507124Y-110324023D01*
X160796668Y-110324023D01*
X160816511Y-110391603D01*
X160869741Y-110437727D01*
X160939457Y-110447751D01*
X161003526Y-110418492D01*
X161041605Y-110359240D01*
X161046668Y-110324023D01*
X161046668Y-109853785D01*
X161154205Y-109853785D01*
X161533549Y-110395706D01*
X161588559Y-110439690D01*
X161658617Y-110446951D01*
X161721479Y-110415183D01*
X161757188Y-110354472D01*
X161754405Y-110284094D01*
X161738357Y-110252340D01*
X161450815Y-109841566D01*
X161453760Y-109840588D01*
X161572808Y-109781064D01*
X161574522Y-109779469D01*
X161576812Y-109778971D01*
X161605294Y-109757649D01*
X161664817Y-109698127D01*
X161665940Y-109696070D01*
X161667954Y-109694874D01*
X161688232Y-109665640D01*
X161747757Y-109546591D01*
X161749763Y-109535439D01*
X161755890Y-109525907D01*
X161760953Y-109490690D01*
X161760953Y-109312119D01*
X161757761Y-109301249D01*
X161758978Y-109289981D01*
X161747757Y-109256218D01*
X161688232Y-109137169D01*
X161686637Y-109135455D01*
X161686140Y-109133166D01*
X161664818Y-109104683D01*
X161605295Y-109045159D01*
X161603239Y-109044036D01*
X161602043Y-109042022D01*
X161572808Y-109021744D01*
X161453760Y-108962220D01*
X161442609Y-108960213D01*
X161433075Y-108954086D01*
X161397858Y-108949023D01*
X160921668Y-108949023D01*
X160912912Y-108951593D01*
X160903879Y-108950295D01*
X160879646Y-108961361D01*
X160854088Y-108968866D01*
X160848112Y-108975762D01*
X160839810Y-108979554D01*
X160825406Y-109001966D01*
X160807964Y-109022096D01*
X160806665Y-109031128D01*
X160801731Y-109038806D01*
X160796668Y-109074023D01*
X160796668Y-110324023D01*
X160507124Y-110324023D01*
X160509682Y-110306234D01*
X160480423Y-110242165D01*
X160421171Y-110204086D01*
X160385954Y-110199023D01*
X159915716Y-110199023D01*
X159915716Y-109794261D01*
X160207382Y-109794261D01*
X160274962Y-109774418D01*
X160321086Y-109721188D01*
X160331110Y-109651472D01*
X160301851Y-109587403D01*
X160242599Y-109549324D01*
X160207382Y-109544261D01*
X159915716Y-109544261D01*
X159915716Y-109199023D01*
X160385954Y-109199023D01*
X160453534Y-109179180D01*
X160499658Y-109125950D01*
X160509682Y-109056234D01*
X160480423Y-108992165D01*
X160421171Y-108954086D01*
X160385954Y-108949023D01*
X159790716Y-108949023D01*
X159781960Y-108951593D01*
X159772927Y-108950295D01*
X159748694Y-108961361D01*
X159723136Y-108968866D01*
X159717160Y-108975762D01*
X159708858Y-108979554D01*
X159694454Y-109001966D01*
X159677012Y-109022096D01*
X159675713Y-109031128D01*
X159670779Y-109038806D01*
X159665716Y-109074023D01*
X159665716Y-110324023D01*
X159495219Y-110324023D01*
X159497777Y-110306234D01*
X159468518Y-110242165D01*
X159409266Y-110204086D01*
X159374049Y-110199023D01*
X158903811Y-110199023D01*
X158903811Y-109074023D01*
X158883968Y-109006443D01*
X158830738Y-108960319D01*
X158761022Y-108950295D01*
X158696953Y-108979554D01*
X158658874Y-109038806D01*
X158653811Y-109074023D01*
X158653811Y-110324023D01*
X158483314Y-110324023D01*
X158485872Y-110306234D01*
X158456613Y-110242165D01*
X158397361Y-110204086D01*
X158362144Y-110199023D01*
X157891906Y-110199023D01*
X157891906Y-109074023D01*
X157872063Y-109006443D01*
X157818833Y-108960319D01*
X157749117Y-108950295D01*
X157685048Y-108979554D01*
X157646969Y-109038806D01*
X157641906Y-109074023D01*
X157641906Y-110324023D01*
X157169874Y-110324023D01*
X157260056Y-110233840D01*
X157267762Y-110219725D01*
X157279482Y-110208707D01*
X157292935Y-110175769D01*
X157352459Y-109937674D01*
X157352320Y-109934276D01*
X157356191Y-109907357D01*
X157356191Y-109490690D01*
X157355232Y-109487426D01*
X157352459Y-109460373D01*
X157292935Y-109222278D01*
X157284796Y-109208406D01*
X157281378Y-109192690D01*
X157260056Y-109164207D01*
X157141009Y-109045159D01*
X157138953Y-109044036D01*
X157137757Y-109042022D01*
X157108522Y-109021744D01*
X156989474Y-108962220D01*
X156978323Y-108960213D01*
X156968789Y-108954086D01*
X156933572Y-108949023D01*
X156695477Y-108949023D01*
X156684607Y-108952214D01*
X156673339Y-108950998D01*
X156639576Y-108962219D01*
X156520527Y-109021744D01*
X156518812Y-109023338D01*
X156516523Y-109023837D01*
X156488041Y-109045159D01*
X156368993Y-109164207D01*
X156361285Y-109178322D01*
X156349568Y-109189340D01*
X156336114Y-109222278D01*
X156276590Y-109460373D01*
X156276728Y-109463770D01*
X156272858Y-109490690D01*
X156272858Y-109907357D01*
X155782583Y-109907357D01*
X155736529Y-109841566D01*
X155739474Y-109840588D01*
X155858522Y-109781064D01*
X155860236Y-109779469D01*
X155862526Y-109778971D01*
X155891008Y-109757649D01*
X155950531Y-109698127D01*
X155951654Y-109696070D01*
X155953668Y-109694874D01*
X155973946Y-109665640D01*
X156033471Y-109546591D01*
X156035477Y-109535439D01*
X156041604Y-109525907D01*
X156046667Y-109490690D01*
X156046667Y-109312119D01*
X156043475Y-109301249D01*
X156044692Y-109289981D01*
X156033471Y-109256218D01*
X155973946Y-109137169D01*
X155972351Y-109135455D01*
X155971854Y-109133166D01*
X155950532Y-109104683D01*
X155891009Y-109045159D01*
X155888953Y-109044036D01*
X155887757Y-109042022D01*
X155858522Y-109021744D01*
X155739474Y-108962220D01*
X155728323Y-108960213D01*
X155718789Y-108954086D01*
X155683572Y-108949023D01*
X155207382Y-108949023D01*
X155198626Y-108951593D01*
X155189593Y-108950295D01*
X155165360Y-108961361D01*
X155139802Y-108968866D01*
X155133826Y-108975762D01*
X155125524Y-108979554D01*
X155111120Y-109001966D01*
X155093678Y-109022096D01*
X155092379Y-109031128D01*
X155087445Y-109038806D01*
X155082382Y-109074023D01*
X155082382Y-110324023D01*
X154558572Y-110324023D01*
X154558572Y-109199023D01*
X154790715Y-109199023D01*
X154858295Y-109179180D01*
X154904419Y-109125950D01*
X154914443Y-109056234D01*
X154885184Y-108992165D01*
X154825932Y-108954086D01*
X154790715Y-108949023D01*
X154076429Y-108949023D01*
X154008849Y-108968866D01*
X153962725Y-109022096D01*
X153952701Y-109091812D01*
X153784762Y-109091812D01*
X153784762Y-109074023D01*
X153764919Y-109006443D01*
X153711689Y-108960319D01*
X153641973Y-108950295D01*
X153577904Y-108979554D01*
X153539825Y-109038806D01*
X153534762Y-109074023D01*
X153534762Y-109853326D01*
X153054007Y-109012006D01*
X153051582Y-109009673D01*
X153050634Y-109006443D01*
X153026374Y-108985422D01*
X153003250Y-108963175D01*
X152999947Y-108962523D01*
X152997404Y-108960319D01*
X152965634Y-108955751D01*
X152934149Y-108949537D01*
X152931018Y-108950773D01*
X152927688Y-108950295D01*
X152898491Y-108963628D01*
X152868646Y-108975423D01*
X152866682Y-108978155D01*
X152863619Y-108979554D01*
X152846260Y-109006563D01*
X152827535Y-109032614D01*
X152827359Y-109035974D01*
X152825540Y-109038806D01*
X152820477Y-109074023D01*
X152820477Y-110324023D01*
X152348445Y-110324023D01*
X152438627Y-110233840D01*
X152446333Y-110219725D01*
X152458053Y-110208707D01*
X152471506Y-110175769D01*
X152531030Y-109937674D01*
X152530891Y-109934276D01*
X152534762Y-109907357D01*
X152534762Y-109490690D01*
X152533803Y-109487426D01*
X152531030Y-109460373D01*
X152471506Y-109222278D01*
X152463367Y-109208406D01*
X152459949Y-109192690D01*
X152438627Y-109164207D01*
X152319580Y-109045159D01*
X152317524Y-109044036D01*
X152316328Y-109042022D01*
X152287093Y-109021744D01*
X152168045Y-108962220D01*
X152156894Y-108960213D01*
X152147360Y-108954086D01*
X152112143Y-108949023D01*
X151874048Y-108949023D01*
X151863178Y-108952214D01*
X151851910Y-108950998D01*
X151818147Y-108962219D01*
X151699098Y-109021744D01*
X151697383Y-109023338D01*
X151695094Y-109023837D01*
X151666612Y-109045159D01*
X151547564Y-109164207D01*
X151539856Y-109178322D01*
X151528139Y-109189340D01*
X151514685Y-109222278D01*
X151455161Y-109460373D01*
X151455299Y-109463770D01*
X151451429Y-109490690D01*
X151451429Y-109907357D01*
X150485038Y-109907357D01*
X150451429Y-109772919D01*
X150451429Y-109625127D01*
X150503893Y-109415270D01*
X150548208Y-109326638D01*
X150632047Y-109242800D01*
X150763378Y-109199023D01*
X150841859Y-109199023D01*
X150973191Y-109242800D01*
X151011850Y-109281460D01*
X151073667Y-109315215D01*
X151143921Y-109310190D01*
X151200306Y-109267981D01*
X151224920Y-109201989D01*
X151209949Y-109133165D01*
X151188627Y-109104683D01*
X151129102Y-109045159D01*
X151119158Y-109039729D01*
X151112051Y-109030901D01*
X151080242Y-109014962D01*
X150901672Y-108955438D01*
X150899332Y-108955353D01*
X150897360Y-108954086D01*
X150862143Y-108949023D01*
X150743095Y-108949023D01*
X150740848Y-108949682D01*
X150738577Y-108949104D01*
X150703566Y-108955438D01*
X150524995Y-109014962D01*
X150515690Y-109021428D01*
X150504618Y-109023837D01*
X150476135Y-109045159D01*
X150357088Y-109164207D01*
X150355966Y-109166261D01*
X150353950Y-109167459D01*
X150333672Y-109196694D01*
X150274149Y-109315741D01*
X150273372Y-109320053D01*
X150264685Y-109341325D01*
X150205161Y-109579421D01*
X150205299Y-109582818D01*
X150201429Y-109609738D01*
X150201429Y-109788309D01*
X149022857Y-109788309D01*
X149022857Y-109609738D01*
X149021898Y-109606474D01*
X149019125Y-109579421D01*
X148959601Y-109341325D01*
X148957381Y-109337542D01*
X148950136Y-109315740D01*
X148890614Y-109196694D01*
X148889017Y-109194978D01*
X148888520Y-109192689D01*
X148867198Y-109164206D01*
X148748150Y-109045159D01*
X148738206Y-109039729D01*
X148731099Y-109030901D01*
X148699290Y-109014962D01*
X148520720Y-108955438D01*
X148518380Y-108955353D01*
X148516408Y-108954086D01*
X148481191Y-108949023D01*
X148183572Y-108949023D01*
X148174816Y-108951593D01*
X148165783Y-108950295D01*
X148141550Y-108961361D01*
X148115992Y-108968866D01*
X148110016Y-108975762D01*
X148101714Y-108979554D01*
X148087310Y-109001966D01*
X148069868Y-109022096D01*
X148068569Y-109031128D01*
X148063635Y-109038806D01*
X148058572Y-109074023D01*
X148058572Y-110324023D01*
X147767888Y-110324023D01*
X147766309Y-110284094D01*
X147750261Y-110252340D01*
X147462719Y-109841566D01*
X147465664Y-109840588D01*
X147584712Y-109781064D01*
X147586426Y-109779469D01*
X147588716Y-109778971D01*
X147617198Y-109757649D01*
X147676721Y-109698127D01*
X147677844Y-109696070D01*
X147679858Y-109694874D01*
X147700136Y-109665640D01*
X147759661Y-109546591D01*
X147761667Y-109535439D01*
X147767794Y-109525907D01*
X147772857Y-109490690D01*
X147772857Y-109312119D01*
X147769665Y-109301249D01*
X147770882Y-109289981D01*
X147759661Y-109256218D01*
X147700136Y-109137169D01*
X147698541Y-109135455D01*
X147698044Y-109133166D01*
X147676722Y-109104683D01*
X147617199Y-109045159D01*
X147615143Y-109044036D01*
X147613947Y-109042022D01*
X147584712Y-109021744D01*
X147465664Y-108962220D01*
X147454513Y-108960213D01*
X147444979Y-108954086D01*
X147409762Y-108949023D01*
X146933572Y-108949023D01*
X146924816Y-108951593D01*
X146915783Y-108950295D01*
X146891550Y-108961361D01*
X146865992Y-108968866D01*
X146860016Y-108975762D01*
X146851714Y-108979554D01*
X146837310Y-109001966D01*
X146819868Y-109022096D01*
X146818569Y-109031128D01*
X146813635Y-109038806D01*
X146808572Y-109074023D01*
X146808572Y-110324023D01*
X146640672Y-110324023D01*
X146641823Y-110319505D01*
X146635489Y-110284494D01*
X146218823Y-109034495D01*
X146201203Y-109009141D01*
X146185457Y-108982575D01*
X146181289Y-108980486D01*
X146178628Y-108976657D01*
X146150090Y-108964851D01*
X146122488Y-108951019D01*
X146117852Y-108951515D01*
X146113544Y-108949733D01*
X146083161Y-108955228D01*
X146052454Y-108958516D01*
X146048821Y-108961440D01*
X146044236Y-108962270D01*
X146021653Y-108983313D01*
X145997592Y-109002686D01*
X145994724Y-109008407D01*
X145992707Y-109010288D01*
X145991594Y-109014654D01*
X145981653Y-109034494D01*
X145564986Y-110284495D01*
X145562440Y-110354881D01*
X145233584Y-110354881D01*
X145236246Y-110352888D01*
X145355293Y-110233840D01*
X145362999Y-110219725D01*
X145374719Y-110208707D01*
X145388172Y-110175769D01*
X145447696Y-109937674D01*
X145447557Y-109934276D01*
X145451428Y-109907357D01*
X145451428Y-109490690D01*
X145450469Y-109487426D01*
X145447696Y-109460373D01*
X145388172Y-109222278D01*
X145380033Y-109208406D01*
X145376615Y-109192690D01*
X145355293Y-109164207D01*
X145236246Y-109045159D01*
X145234190Y-109044036D01*
X145232994Y-109042022D01*
X145203759Y-109021744D01*
X145084711Y-108962220D01*
X145073560Y-108960213D01*
X145064026Y-108954086D01*
X145028809Y-108949023D01*
X144790714Y-108949023D01*
X144779844Y-108952214D01*
X144768576Y-108950998D01*
X144734813Y-108962219D01*
X144615764Y-109021744D01*
X144614049Y-109023338D01*
X144611760Y-109023837D01*
X144583278Y-109045159D01*
X144464230Y-109164207D01*
X144456522Y-109178322D01*
X144444805Y-109189340D01*
X144431351Y-109222278D01*
X144371827Y-109460373D01*
X144371965Y-109463770D01*
X144368095Y-109490690D01*
X144368095Y-109907357D01*
X144141904Y-109907357D01*
X144138712Y-109896487D01*
X144139929Y-109885219D01*
X144128708Y-109851456D01*
X144069183Y-109732407D01*
X144067588Y-109730693D01*
X144067091Y-109728404D01*
X144045769Y-109699921D01*
X143986246Y-109640397D01*
X143985084Y-109639763D01*
X143986246Y-109638602D01*
X143987368Y-109636546D01*
X143989383Y-109635350D01*
X144009661Y-109606115D01*
X144069184Y-109487067D01*
X144071190Y-109475915D01*
X144077317Y-109466383D01*
X144082380Y-109431166D01*
X144082380Y-109312119D01*
X144079187Y-109301246D01*
X144080404Y-109289981D01*
X144069184Y-109256218D01*
X144009661Y-109137170D01*
X144008066Y-109135455D01*
X144007568Y-109133165D01*
X143986246Y-109104683D01*
X143926721Y-109045159D01*
X143924667Y-109044037D01*
X143923470Y-109042022D01*
X143894235Y-109021744D01*
X143775187Y-108962220D01*
X143764036Y-108960213D01*
X143754502Y-108954086D01*
X143719285Y-108949023D01*
X143302619Y-108949023D01*
X143293863Y-108951593D01*
X143284830Y-108950295D01*
X143260597Y-108961361D01*
X143235039Y-108968866D01*
X143229063Y-108975762D01*
X143220761Y-108979554D01*
X143206357Y-109001966D01*
X143188915Y-109022096D01*
X143187616Y-109031128D01*
X143182682Y-109038806D01*
X143177619Y-109074023D01*
X143177619Y-110324023D01*
X142832380Y-110324023D01*
X142832380Y-109074023D01*
X142812537Y-109006443D01*
X142759307Y-108960319D01*
X142689591Y-108950295D01*
X142625522Y-108979554D01*
X142587443Y-109038806D01*
X142582380Y-109074023D01*
X142582380Y-109853326D01*
X142101625Y-109012006D01*
X142099200Y-109009673D01*
X142098252Y-109006443D01*
X142073992Y-108985422D01*
X142050868Y-108963175D01*
X142047565Y-108962523D01*
X142045022Y-108960319D01*
X142013252Y-108955751D01*
X141981767Y-108949537D01*
X141978636Y-108950773D01*
X141975306Y-108950295D01*
X141946109Y-108963628D01*
X141916264Y-108975423D01*
X141914300Y-108978155D01*
X141911237Y-108979554D01*
X141893878Y-109006563D01*
X141875153Y-109032614D01*
X141874977Y-109035974D01*
X141873158Y-109038806D01*
X141868095Y-109074023D01*
X141868095Y-110324023D01*
X141396063Y-110324023D01*
X141486245Y-110233840D01*
X141493951Y-110219725D01*
X141505671Y-110208707D01*
X141519124Y-110175769D01*
X141578648Y-109937674D01*
X141578509Y-109934276D01*
X141582380Y-109907357D01*
X141582380Y-109490690D01*
X141581421Y-109487426D01*
X141578648Y-109460373D01*
X141519124Y-109222278D01*
X141510985Y-109208406D01*
X141507567Y-109192690D01*
X141486245Y-109164207D01*
X141367198Y-109045159D01*
X141365142Y-109044036D01*
X141363946Y-109042022D01*
X141334711Y-109021744D01*
X141215663Y-108962220D01*
X141204512Y-108960213D01*
X141194978Y-108954086D01*
X141159761Y-108949023D01*
X140921666Y-108949023D01*
X140910796Y-108952214D01*
X140899528Y-108950998D01*
X140865765Y-108962219D01*
X140746716Y-109021744D01*
X140745001Y-109023338D01*
X140742712Y-109023837D01*
X140714230Y-109045159D01*
X140595182Y-109164207D01*
X140587474Y-109178322D01*
X140575757Y-109189340D01*
X140562303Y-109222278D01*
X140502779Y-109460373D01*
X140502917Y-109463770D01*
X140499047Y-109490690D01*
X140499047Y-109907357D01*
X140320476Y-109907357D01*
X140320476Y-108311523D01*
X147255000Y-108311523D01*
X147274843Y-108379103D01*
X147328073Y-108425227D01*
X147397789Y-108435251D01*
X147461858Y-108405992D01*
X147499937Y-108346740D01*
X147505000Y-108311523D01*
X147505000Y-107624969D01*
X147683393Y-108007241D01*
X147694608Y-108019970D01*
X147701527Y-108035457D01*
X147717406Y-108045848D01*
X147729953Y-108060089D01*
X147746267Y-108064734D01*
X147760463Y-108074023D01*
X147779441Y-108074179D01*
X147797694Y-108079376D01*
X147813930Y-108074463D01*
X147830895Y-108074603D01*
X147846944Y-108064473D01*
X147865109Y-108058978D01*
X147876112Y-108046066D01*
X147890458Y-108037013D01*
X147909939Y-108007241D01*
X148088333Y-107624968D01*
X148088333Y-108311523D01*
X148108176Y-108379103D01*
X148161406Y-108425227D01*
X148231122Y-108435251D01*
X148295191Y-108405992D01*
X148333270Y-108346740D01*
X148333897Y-108342381D01*
X148508868Y-108342381D01*
X148544780Y-108402971D01*
X148607749Y-108434527D01*
X148677783Y-108427030D01*
X148732645Y-108382860D01*
X148748584Y-108351051D01*
X148839141Y-108079380D01*
X149254189Y-108079380D01*
X149344746Y-108351051D01*
X149384942Y-108408888D01*
X149450026Y-108435812D01*
X149519334Y-108423276D01*
X149570863Y-108375258D01*
X149588251Y-108307005D01*
X149581917Y-108271994D01*
X149416522Y-107775809D01*
X149695476Y-107775809D01*
X149696434Y-107779071D01*
X149699208Y-107806126D01*
X149758732Y-108044221D01*
X149760949Y-108048000D01*
X149768196Y-108069805D01*
X149827719Y-108188853D01*
X149829314Y-108190568D01*
X149829813Y-108192858D01*
X149851135Y-108221340D01*
X149970182Y-108340388D01*
X149980126Y-108345818D01*
X149987234Y-108354646D01*
X150019043Y-108370586D01*
X150197614Y-108430108D01*
X150199952Y-108430192D01*
X150201925Y-108431460D01*
X150237142Y-108436523D01*
X150356190Y-108436523D01*
X150358436Y-108435863D01*
X150360707Y-108436442D01*
X150395718Y-108430109D01*
X150574289Y-108370586D01*
X150583594Y-108364118D01*
X150594667Y-108361710D01*
X150623149Y-108340388D01*
X150652014Y-108311523D01*
X151005000Y-108311523D01*
X151024843Y-108379103D01*
X151078073Y-108425227D01*
X151147789Y-108435251D01*
X151211858Y-108405992D01*
X151249937Y-108346740D01*
X151255000Y-108311523D01*
X151255000Y-107781761D01*
X151719285Y-107781761D01*
X151719285Y-108311523D01*
X151739128Y-108379103D01*
X151792358Y-108425227D01*
X151862074Y-108435251D01*
X151926143Y-108405992D01*
X151964222Y-108346740D01*
X151969285Y-108311523D01*
X152314524Y-108311523D01*
X152334367Y-108379103D01*
X152387597Y-108425227D01*
X152457313Y-108435251D01*
X152521382Y-108405992D01*
X152559461Y-108346740D01*
X152564524Y-108311523D01*
X152909762Y-108311523D01*
X152929605Y-108379103D01*
X152982835Y-108425227D01*
X153052551Y-108435251D01*
X153116620Y-108405992D01*
X153154699Y-108346740D01*
X153159762Y-108311523D01*
X153159762Y-107532218D01*
X153640517Y-108373541D01*
X153642941Y-108375873D01*
X153643890Y-108379103D01*
X153668138Y-108400114D01*
X153691274Y-108422372D01*
X153694577Y-108423023D01*
X153697120Y-108425227D01*
X153728881Y-108429793D01*
X153760375Y-108436009D01*
X153763505Y-108434772D01*
X153766836Y-108435251D01*
X153796019Y-108421923D01*
X153825879Y-108410124D01*
X153827844Y-108407389D01*
X153830905Y-108405992D01*
X153848248Y-108379004D01*
X153866990Y-108352933D01*
X153867165Y-108349570D01*
X153868984Y-108346740D01*
X153874047Y-108311523D01*
X154219286Y-108311523D01*
X154221856Y-108320278D01*
X154220558Y-108329312D01*
X154231624Y-108353544D01*
X154239129Y-108379103D01*
X154246025Y-108385078D01*
X154249817Y-108393381D01*
X154272229Y-108407784D01*
X154292359Y-108425227D01*
X154301391Y-108426525D01*
X154309069Y-108431460D01*
X154344286Y-108436523D01*
X154939524Y-108436523D01*
X155007104Y-108416680D01*
X155053228Y-108363450D01*
X155063252Y-108293734D01*
X155033993Y-108229665D01*
X154974741Y-108191586D01*
X154939524Y-108186523D01*
X154469286Y-108186523D01*
X154469286Y-107781761D01*
X154760952Y-107781761D01*
X154828532Y-107761918D01*
X154874656Y-107708688D01*
X154884680Y-107638972D01*
X154855421Y-107574903D01*
X154796169Y-107536824D01*
X154760952Y-107531761D01*
X154469286Y-107531761D01*
X154469286Y-107186523D01*
X154939524Y-107186523D01*
X155007104Y-107166680D01*
X155053228Y-107113450D01*
X155063252Y-107043734D01*
X155033993Y-106979665D01*
X154974741Y-106941586D01*
X154939524Y-106936523D01*
X154344286Y-106936523D01*
X154335530Y-106939093D01*
X154326497Y-106937795D01*
X154302264Y-106948861D01*
X154276706Y-106956366D01*
X154270730Y-106963262D01*
X154262428Y-106967054D01*
X154248024Y-106989466D01*
X154230582Y-107009596D01*
X154229283Y-107018628D01*
X154224349Y-107026306D01*
X154219286Y-107061523D01*
X154219286Y-108311523D01*
X153874047Y-108311523D01*
X153874047Y-107061523D01*
X153854204Y-106993943D01*
X153800974Y-106947819D01*
X153731258Y-106937795D01*
X153667189Y-106967054D01*
X153629110Y-107026306D01*
X153624047Y-107061523D01*
X153624047Y-107840826D01*
X153143292Y-106999506D01*
X153140867Y-106997173D01*
X153139919Y-106993943D01*
X153115659Y-106972922D01*
X153092535Y-106950675D01*
X153089232Y-106950023D01*
X153086689Y-106947819D01*
X153054919Y-106943251D01*
X153023434Y-106937037D01*
X153020303Y-106938273D01*
X153016973Y-106937795D01*
X152987776Y-106951128D01*
X152957931Y-106962923D01*
X152955967Y-106965655D01*
X152952904Y-106967054D01*
X152935545Y-106994063D01*
X152916820Y-107020114D01*
X152916644Y-107023474D01*
X152914825Y-107026306D01*
X152909762Y-107061523D01*
X152909762Y-108311523D01*
X152564524Y-108311523D01*
X152564524Y-107061523D01*
X152544681Y-106993943D01*
X152491451Y-106947819D01*
X152421735Y-106937795D01*
X152357666Y-106967054D01*
X152319587Y-107026306D01*
X152314524Y-107061523D01*
X152314524Y-108311523D01*
X151969285Y-108311523D01*
X151969285Y-107061523D01*
X151949442Y-106993943D01*
X151896212Y-106947819D01*
X151826496Y-106937795D01*
X151762427Y-106967054D01*
X151724348Y-107026306D01*
X151719285Y-107061523D01*
X151719285Y-107531761D01*
X151255000Y-107531761D01*
X151255000Y-107061523D01*
X151235157Y-106993943D01*
X151181927Y-106947819D01*
X151112211Y-106937795D01*
X151048142Y-106967054D01*
X151010063Y-107026306D01*
X151005000Y-107061523D01*
X151005000Y-108311523D01*
X150652014Y-108311523D01*
X150682674Y-108280864D01*
X150716429Y-108219047D01*
X150711404Y-108148793D01*
X150669195Y-108092408D01*
X150603203Y-108067794D01*
X150534379Y-108082765D01*
X150505897Y-108104087D01*
X150467238Y-108142746D01*
X150335905Y-108186523D01*
X150257428Y-108186523D01*
X150126093Y-108142745D01*
X150042256Y-108058909D01*
X149997940Y-107970275D01*
X149945476Y-107760419D01*
X149945476Y-107612627D01*
X149997940Y-107402770D01*
X150042255Y-107314138D01*
X150126094Y-107230300D01*
X150257425Y-107186523D01*
X150335906Y-107186523D01*
X150467238Y-107230300D01*
X150505897Y-107268960D01*
X150567714Y-107302715D01*
X150637968Y-107297690D01*
X150694353Y-107255481D01*
X150718967Y-107189489D01*
X150703996Y-107120665D01*
X150682674Y-107092183D01*
X150623149Y-107032659D01*
X150613205Y-107027229D01*
X150606098Y-107018401D01*
X150574289Y-107002462D01*
X150395719Y-106942938D01*
X150393379Y-106942853D01*
X150391407Y-106941586D01*
X150356190Y-106936523D01*
X150237142Y-106936523D01*
X150234895Y-106937182D01*
X150232624Y-106936604D01*
X150197613Y-106942938D01*
X150019042Y-107002462D01*
X150009737Y-107008928D01*
X149998665Y-107011337D01*
X149970182Y-107032659D01*
X149851135Y-107151707D01*
X149850013Y-107153761D01*
X149847997Y-107154959D01*
X149827719Y-107184194D01*
X149768196Y-107303241D01*
X149767419Y-107307553D01*
X149758732Y-107328825D01*
X149699208Y-107566921D01*
X149699346Y-107570318D01*
X149695476Y-107597238D01*
X149695476Y-107775809D01*
X149416522Y-107775809D01*
X149165251Y-107021995D01*
X149147631Y-106996641D01*
X149131885Y-106970075D01*
X149127717Y-106967986D01*
X149125056Y-106964157D01*
X149096518Y-106952351D01*
X149068916Y-106938519D01*
X149064280Y-106939015D01*
X149059972Y-106937233D01*
X149029589Y-106942728D01*
X148998882Y-106946016D01*
X148995249Y-106948940D01*
X148990664Y-106949770D01*
X148968081Y-106970813D01*
X148944020Y-106990186D01*
X148941152Y-106995907D01*
X148939135Y-106997788D01*
X148938022Y-107002154D01*
X148928081Y-107021994D01*
X148511414Y-108271995D01*
X148508868Y-108342381D01*
X148333897Y-108342381D01*
X148338333Y-108311523D01*
X148338333Y-107061523D01*
X148335907Y-107053263D01*
X148337203Y-107044753D01*
X148326135Y-107019980D01*
X148318490Y-106993943D01*
X148311983Y-106988304D01*
X148308472Y-106980446D01*
X148285767Y-106965588D01*
X148265260Y-106947819D01*
X148256739Y-106946593D01*
X148249536Y-106941880D01*
X148222403Y-106941656D01*
X148195544Y-106937795D01*
X148187711Y-106941371D01*
X148179104Y-106941301D01*
X148156160Y-106955780D01*
X148131475Y-106967054D01*
X148126820Y-106974297D01*
X148119541Y-106978891D01*
X148100060Y-107008663D01*
X147796666Y-107658791D01*
X147493273Y-107008662D01*
X147487582Y-107002202D01*
X147485157Y-106993943D01*
X147464650Y-106976174D01*
X147446713Y-106955814D01*
X147438433Y-106953456D01*
X147431927Y-106947819D01*
X147405069Y-106943957D01*
X147378972Y-106936527D01*
X147370732Y-106939020D01*
X147362211Y-106937795D01*
X147337530Y-106949066D01*
X147311557Y-106956925D01*
X147305972Y-106963477D01*
X147298142Y-106967054D01*
X147283472Y-106989879D01*
X147265872Y-107010533D01*
X147264716Y-107019064D01*
X147260063Y-107026306D01*
X147255000Y-107061523D01*
X147255000Y-108311523D01*
X140320476Y-108311523D01*
X140320476Y-106299023D01*
X141749047Y-106299023D01*
X141751617Y-106307778D01*
X141750319Y-106316812D01*
X141761385Y-106341044D01*
X141768890Y-106366603D01*
X141775786Y-106372578D01*
X141779578Y-106380881D01*
X141801990Y-106395284D01*
X141822120Y-106412727D01*
X141831152Y-106414025D01*
X141838830Y-106418960D01*
X141874047Y-106424023D01*
X142350237Y-106424023D01*
X142361106Y-106420831D01*
X142372375Y-106422048D01*
X142406138Y-106410827D01*
X142525186Y-106351304D01*
X142526901Y-106349708D01*
X142529192Y-106349210D01*
X142555012Y-106329881D01*
X142824344Y-106329881D01*
X142860256Y-106390471D01*
X142923225Y-106422027D01*
X142993259Y-106414530D01*
X143048121Y-106370360D01*
X143064060Y-106338551D01*
X143154617Y-106066880D01*
X143569665Y-106066880D01*
X143660222Y-106338551D01*
X143700418Y-106396388D01*
X143765502Y-106423312D01*
X143834810Y-106410776D01*
X143886339Y-106362758D01*
X143903727Y-106294505D01*
X143897393Y-106259494D01*
X143612951Y-105406166D01*
X144010952Y-105406166D01*
X144014144Y-105417038D01*
X144012928Y-105428304D01*
X144024149Y-105462068D01*
X144083673Y-105581116D01*
X144085266Y-105582829D01*
X144085765Y-105585119D01*
X144107087Y-105613602D01*
X144166610Y-105673126D01*
X144168666Y-105674248D01*
X144169863Y-105676264D01*
X144199098Y-105696542D01*
X144318146Y-105756065D01*
X144322458Y-105756841D01*
X144343730Y-105765529D01*
X144568514Y-105821725D01*
X144657146Y-105866041D01*
X144687981Y-105896877D01*
X144725237Y-105971388D01*
X144725237Y-106031419D01*
X144687981Y-106105931D01*
X144657146Y-106136766D01*
X144582633Y-106174023D01*
X144334809Y-106174023D01*
X144175480Y-106120914D01*
X144105093Y-106118369D01*
X144044503Y-106154282D01*
X144012948Y-106217250D01*
X144020445Y-106287284D01*
X144064615Y-106342146D01*
X144096424Y-106358086D01*
X144274995Y-106417608D01*
X144277333Y-106417692D01*
X144279306Y-106418960D01*
X144314523Y-106424023D01*
X144612142Y-106424023D01*
X144623011Y-106420831D01*
X144634280Y-106422048D01*
X144668043Y-106410827D01*
X144787091Y-106351304D01*
X144788806Y-106349708D01*
X144791096Y-106349210D01*
X144819578Y-106327888D01*
X144848443Y-106299023D01*
X145260952Y-106299023D01*
X145263522Y-106307778D01*
X145262224Y-106316812D01*
X145273290Y-106341044D01*
X145280795Y-106366603D01*
X145287691Y-106372578D01*
X145291483Y-106380881D01*
X145313895Y-106395284D01*
X145334025Y-106412727D01*
X145343057Y-106414025D01*
X145350735Y-106418960D01*
X145385952Y-106424023D01*
X145981190Y-106424023D01*
X146048770Y-106404180D01*
X146094894Y-106350950D01*
X146102360Y-106299023D01*
X146391904Y-106299023D01*
X146394474Y-106307778D01*
X146393176Y-106316812D01*
X146404242Y-106341044D01*
X146411747Y-106366603D01*
X146418643Y-106372578D01*
X146422435Y-106380881D01*
X146444847Y-106395284D01*
X146464977Y-106412727D01*
X146474009Y-106414025D01*
X146481687Y-106418960D01*
X146516904Y-106424023D01*
X146993094Y-106424023D01*
X147003963Y-106420831D01*
X147015232Y-106422048D01*
X147048995Y-106410827D01*
X147168043Y-106351304D01*
X147169758Y-106349708D01*
X147172049Y-106349210D01*
X147197869Y-106329881D01*
X147467201Y-106329881D01*
X147503113Y-106390471D01*
X147566082Y-106422027D01*
X147636116Y-106414530D01*
X147690978Y-106370360D01*
X147706917Y-106338551D01*
X147797474Y-106066880D01*
X148212522Y-106066880D01*
X148303079Y-106338551D01*
X148343275Y-106396388D01*
X148408359Y-106423312D01*
X148477667Y-106410776D01*
X148529196Y-106362758D01*
X148545433Y-106299023D01*
X148713333Y-106299023D01*
X148715903Y-106307778D01*
X148714605Y-106316812D01*
X148725671Y-106341044D01*
X148733176Y-106366603D01*
X148740072Y-106372578D01*
X148743864Y-106380881D01*
X148766276Y-106395284D01*
X148786406Y-106412727D01*
X148795438Y-106414025D01*
X148803116Y-106418960D01*
X148838333Y-106424023D01*
X149433571Y-106424023D01*
X149501151Y-106404180D01*
X149547275Y-106350950D01*
X149554741Y-106299023D01*
X149725238Y-106299023D01*
X149727808Y-106307778D01*
X149726510Y-106316812D01*
X149737576Y-106341044D01*
X149745081Y-106366603D01*
X149751977Y-106372578D01*
X149755769Y-106380881D01*
X149778181Y-106395284D01*
X149798311Y-106412727D01*
X149807343Y-106414025D01*
X149815021Y-106418960D01*
X149850238Y-106424023D01*
X150445476Y-106424023D01*
X150513056Y-106404180D01*
X150559180Y-106350950D01*
X150566646Y-106299023D01*
X151689524Y-106299023D01*
X151709367Y-106366603D01*
X151762597Y-106412727D01*
X151832313Y-106422751D01*
X151896382Y-106393492D01*
X151934461Y-106334240D01*
X151939524Y-106299023D01*
X152760953Y-106299023D01*
X152780796Y-106366603D01*
X152834026Y-106412727D01*
X152903742Y-106422751D01*
X152967811Y-106393492D01*
X153005890Y-106334240D01*
X153010953Y-106299023D01*
X153356191Y-106299023D01*
X153358761Y-106307778D01*
X153357463Y-106316812D01*
X153368529Y-106341044D01*
X153376034Y-106366603D01*
X153382930Y-106372578D01*
X153386722Y-106380881D01*
X153409134Y-106395284D01*
X153429264Y-106412727D01*
X153438296Y-106414025D01*
X153445974Y-106418960D01*
X153481191Y-106424023D01*
X154076429Y-106424023D01*
X154144009Y-106404180D01*
X154190133Y-106350950D01*
X154197599Y-106299023D01*
X154487143Y-106299023D01*
X154489713Y-106307778D01*
X154488415Y-106316812D01*
X154499481Y-106341044D01*
X154506986Y-106366603D01*
X154513882Y-106372578D01*
X154517674Y-106380881D01*
X154540086Y-106395284D01*
X154560216Y-106412727D01*
X154569248Y-106414025D01*
X154576926Y-106418960D01*
X154612143Y-106424023D01*
X155207381Y-106424023D01*
X155274961Y-106404180D01*
X155321085Y-106350950D01*
X155328551Y-106299023D01*
X155499048Y-106299023D01*
X155501618Y-106307778D01*
X155500320Y-106316812D01*
X155511386Y-106341044D01*
X155518891Y-106366603D01*
X155525787Y-106372578D01*
X155529579Y-106380881D01*
X155551991Y-106395284D01*
X155572121Y-106412727D01*
X155581153Y-106414025D01*
X155588831Y-106418960D01*
X155624048Y-106424023D01*
X155921667Y-106424023D01*
X155923913Y-106423363D01*
X155926184Y-106423942D01*
X155961195Y-106417609D01*
X156139766Y-106358086D01*
X156149071Y-106351618D01*
X156160144Y-106349210D01*
X156188626Y-106327888D01*
X156217491Y-106299023D01*
X156749048Y-106299023D01*
X156768891Y-106366603D01*
X156822121Y-106412727D01*
X156891837Y-106422751D01*
X156955906Y-106393492D01*
X156993985Y-106334240D01*
X156999048Y-106299023D01*
X157344286Y-106299023D01*
X157364129Y-106366603D01*
X157417359Y-106412727D01*
X157487075Y-106422751D01*
X157551144Y-106393492D01*
X157589223Y-106334240D01*
X157594286Y-106299023D01*
X157594286Y-105519718D01*
X158075041Y-106361041D01*
X158077465Y-106363373D01*
X158078414Y-106366603D01*
X158102662Y-106387614D01*
X158125798Y-106409872D01*
X158129101Y-106410523D01*
X158131644Y-106412727D01*
X158163405Y-106417293D01*
X158194899Y-106423509D01*
X158198029Y-106422272D01*
X158201360Y-106422751D01*
X158230543Y-106409423D01*
X158260403Y-106397624D01*
X158262368Y-106394889D01*
X158265429Y-106393492D01*
X158282772Y-106366504D01*
X158301514Y-106340433D01*
X158301689Y-106337070D01*
X158303508Y-106334240D01*
X158308571Y-106299023D01*
X158308571Y-105763309D01*
X158594286Y-105763309D01*
X158595244Y-105766571D01*
X158598018Y-105793626D01*
X158657542Y-106031721D01*
X158659759Y-106035500D01*
X158667006Y-106057305D01*
X158726529Y-106176353D01*
X158728124Y-106178068D01*
X158728623Y-106180358D01*
X158749945Y-106208840D01*
X158868992Y-106327888D01*
X158878936Y-106333318D01*
X158886044Y-106342146D01*
X158917853Y-106358086D01*
X159096424Y-106417608D01*
X159098762Y-106417692D01*
X159100735Y-106418960D01*
X159135952Y-106424023D01*
X159255000Y-106424023D01*
X159257246Y-106423363D01*
X159259517Y-106423942D01*
X159294528Y-106417609D01*
X159473099Y-106358086D01*
X159482404Y-106351618D01*
X159493477Y-106349210D01*
X159521959Y-106327888D01*
X159581484Y-106268364D01*
X159596308Y-106241215D01*
X159613032Y-106215193D01*
X159613930Y-106208943D01*
X159615239Y-106206547D01*
X159614918Y-106202069D01*
X159618095Y-106179976D01*
X159618095Y-105763309D01*
X159615524Y-105754553D01*
X159616823Y-105745520D01*
X159605756Y-105721287D01*
X159598252Y-105695729D01*
X159591355Y-105689753D01*
X159587564Y-105681451D01*
X159565151Y-105667047D01*
X159545022Y-105649605D01*
X159535989Y-105648306D01*
X159528312Y-105643372D01*
X159493095Y-105638309D01*
X159255000Y-105638309D01*
X159187420Y-105658152D01*
X159141296Y-105711382D01*
X159131272Y-105781098D01*
X159160531Y-105845167D01*
X159219783Y-105883246D01*
X159255000Y-105888309D01*
X159368095Y-105888309D01*
X159368095Y-106128199D01*
X159366048Y-106130246D01*
X159234715Y-106174023D01*
X159156238Y-106174023D01*
X159024903Y-106130245D01*
X158941066Y-106046409D01*
X158896750Y-105957775D01*
X158844286Y-105747919D01*
X158844286Y-105600127D01*
X158896750Y-105390270D01*
X158941065Y-105301638D01*
X159024904Y-105217800D01*
X159156235Y-105174023D01*
X159285016Y-105174023D01*
X159377669Y-105220350D01*
X159446988Y-105232825D01*
X159512048Y-105205842D01*
X159552192Y-105147969D01*
X159554675Y-105077579D01*
X159518708Y-105017022D01*
X159489473Y-104996744D01*
X159370426Y-104937220D01*
X159359275Y-104935213D01*
X159349741Y-104929086D01*
X159314524Y-104924023D01*
X159135952Y-104924023D01*
X159133705Y-104924682D01*
X159131434Y-104924104D01*
X159096423Y-104930438D01*
X158917852Y-104989962D01*
X158908547Y-104996428D01*
X158897475Y-104998837D01*
X158868992Y-105020159D01*
X158749945Y-105139207D01*
X158748823Y-105141261D01*
X158746807Y-105142459D01*
X158726529Y-105171694D01*
X158667006Y-105290741D01*
X158666229Y-105295053D01*
X158657542Y-105316325D01*
X158598018Y-105554421D01*
X158598156Y-105557818D01*
X158594286Y-105584738D01*
X158594286Y-105763309D01*
X158308571Y-105763309D01*
X158308571Y-105049023D01*
X158288728Y-104981443D01*
X158235498Y-104935319D01*
X158165782Y-104925295D01*
X158101713Y-104954554D01*
X158063634Y-105013806D01*
X158058571Y-105049023D01*
X158058571Y-105828326D01*
X157577816Y-104987006D01*
X157575391Y-104984673D01*
X157574443Y-104981443D01*
X157550183Y-104960422D01*
X157527059Y-104938175D01*
X157523756Y-104937523D01*
X157521213Y-104935319D01*
X157489443Y-104930751D01*
X157457958Y-104924537D01*
X157454827Y-104925773D01*
X157451497Y-104925295D01*
X157422300Y-104938628D01*
X157392455Y-104950423D01*
X157390491Y-104953155D01*
X157387428Y-104954554D01*
X157370069Y-104981563D01*
X157351344Y-105007614D01*
X157351168Y-105010974D01*
X157349349Y-105013806D01*
X157344286Y-105049023D01*
X157344286Y-106299023D01*
X156999048Y-106299023D01*
X156999048Y-105049023D01*
X156979205Y-104981443D01*
X156925975Y-104935319D01*
X156856259Y-104925295D01*
X156792190Y-104954554D01*
X156754111Y-105013806D01*
X156749048Y-105049023D01*
X156749048Y-106299023D01*
X156217491Y-106299023D01*
X156307674Y-106208841D01*
X156308796Y-106206784D01*
X156310812Y-106205588D01*
X156331090Y-106176353D01*
X156390613Y-106057305D01*
X156391389Y-106052992D01*
X156400077Y-106031721D01*
X156459601Y-105793626D01*
X156459462Y-105790228D01*
X156463333Y-105763309D01*
X156463333Y-105584738D01*
X156462374Y-105581474D01*
X156459601Y-105554421D01*
X156400077Y-105316325D01*
X156397857Y-105312542D01*
X156390612Y-105290740D01*
X156331090Y-105171694D01*
X156329493Y-105169978D01*
X156328996Y-105167689D01*
X156307674Y-105139206D01*
X156188626Y-105020159D01*
X156178682Y-105014729D01*
X156171575Y-105005901D01*
X156139766Y-104989962D01*
X155961196Y-104930438D01*
X155958856Y-104930353D01*
X155956884Y-104929086D01*
X155921667Y-104924023D01*
X155624048Y-104924023D01*
X155615292Y-104926593D01*
X155606259Y-104925295D01*
X155582026Y-104936361D01*
X155556468Y-104943866D01*
X155550492Y-104950762D01*
X155542190Y-104954554D01*
X155527786Y-104976966D01*
X155510344Y-104997096D01*
X155509045Y-105006128D01*
X155504111Y-105013806D01*
X155499048Y-105049023D01*
X155499048Y-106299023D01*
X155328551Y-106299023D01*
X155331109Y-106281234D01*
X155301850Y-106217165D01*
X155242598Y-106179086D01*
X155207381Y-106174023D01*
X154737143Y-106174023D01*
X154737143Y-105049023D01*
X154717300Y-104981443D01*
X154664070Y-104935319D01*
X154594354Y-104925295D01*
X154530285Y-104954554D01*
X154492206Y-105013806D01*
X154487143Y-105049023D01*
X154487143Y-106299023D01*
X154197599Y-106299023D01*
X154200157Y-106281234D01*
X154170898Y-106217165D01*
X154111646Y-106179086D01*
X154076429Y-106174023D01*
X153606191Y-106174023D01*
X153606191Y-105769261D01*
X153897857Y-105769261D01*
X153965437Y-105749418D01*
X154011561Y-105696188D01*
X154021585Y-105626472D01*
X153992326Y-105562403D01*
X153933074Y-105524324D01*
X153897857Y-105519261D01*
X153606191Y-105519261D01*
X153606191Y-105174023D01*
X154076429Y-105174023D01*
X154144009Y-105154180D01*
X154190133Y-105100950D01*
X154200157Y-105031234D01*
X154170898Y-104967165D01*
X154111646Y-104929086D01*
X154076429Y-104924023D01*
X153481191Y-104924023D01*
X153472435Y-104926593D01*
X153463402Y-104925295D01*
X153439169Y-104936361D01*
X153413611Y-104943866D01*
X153407635Y-104950762D01*
X153399333Y-104954554D01*
X153384929Y-104976966D01*
X153367487Y-104997096D01*
X153366188Y-105006128D01*
X153361254Y-105013806D01*
X153356191Y-105049023D01*
X153356191Y-106299023D01*
X153010953Y-106299023D01*
X153010953Y-105049023D01*
X152991110Y-104981443D01*
X152937880Y-104935319D01*
X152868164Y-104925295D01*
X152804095Y-104954554D01*
X152766016Y-105013806D01*
X152760953Y-105049023D01*
X152760953Y-106299023D01*
X151939524Y-106299023D01*
X151939524Y-105769261D01*
X152231190Y-105769261D01*
X152298770Y-105749418D01*
X152344894Y-105696188D01*
X152354918Y-105626472D01*
X152325659Y-105562403D01*
X152266407Y-105524324D01*
X152231190Y-105519261D01*
X151939524Y-105519261D01*
X151939524Y-105174023D01*
X152409762Y-105174023D01*
X152477342Y-105154180D01*
X152523466Y-105100950D01*
X152533490Y-105031234D01*
X152504231Y-104967165D01*
X152444979Y-104929086D01*
X152409762Y-104924023D01*
X151814524Y-104924023D01*
X151805768Y-104926593D01*
X151796735Y-104925295D01*
X151772502Y-104936361D01*
X151746944Y-104943866D01*
X151740968Y-104950762D01*
X151732666Y-104954554D01*
X151718262Y-104976966D01*
X151700820Y-104997096D01*
X151699521Y-105006128D01*
X151694587Y-105013806D01*
X151689524Y-105049023D01*
X151689524Y-106299023D01*
X150566646Y-106299023D01*
X150569204Y-106281234D01*
X150539945Y-106217165D01*
X150480693Y-106179086D01*
X150445476Y-106174023D01*
X149975238Y-106174023D01*
X149975238Y-105049023D01*
X149955395Y-104981443D01*
X149902165Y-104935319D01*
X149832449Y-104925295D01*
X149768380Y-104954554D01*
X149730301Y-105013806D01*
X149725238Y-105049023D01*
X149725238Y-106299023D01*
X149554741Y-106299023D01*
X149557299Y-106281234D01*
X149528040Y-106217165D01*
X149468788Y-106179086D01*
X149433571Y-106174023D01*
X148963333Y-106174023D01*
X148963333Y-105049023D01*
X148943490Y-104981443D01*
X148890260Y-104935319D01*
X148820544Y-104925295D01*
X148756475Y-104954554D01*
X148718396Y-105013806D01*
X148713333Y-105049023D01*
X148713333Y-106299023D01*
X148545433Y-106299023D01*
X148546584Y-106294505D01*
X148540250Y-106259494D01*
X148123584Y-105009495D01*
X148105964Y-104984141D01*
X148090218Y-104957575D01*
X148086050Y-104955486D01*
X148083389Y-104951657D01*
X148054851Y-104939851D01*
X148027249Y-104926019D01*
X148022613Y-104926515D01*
X148018305Y-104924733D01*
X147987922Y-104930228D01*
X147957215Y-104933516D01*
X147953582Y-104936440D01*
X147948997Y-104937270D01*
X147926414Y-104958313D01*
X147902353Y-104977686D01*
X147899485Y-104983407D01*
X147897468Y-104985288D01*
X147896355Y-104989654D01*
X147886414Y-105009494D01*
X147469747Y-106259495D01*
X147467201Y-106329881D01*
X147197869Y-106329881D01*
X147200531Y-106327888D01*
X147260054Y-106268364D01*
X147261176Y-106266307D01*
X147263190Y-106265112D01*
X147283468Y-106235878D01*
X147342993Y-106116829D01*
X147344999Y-106105677D01*
X147351126Y-106096145D01*
X147356189Y-106060928D01*
X147356189Y-105882357D01*
X147352997Y-105871487D01*
X147354214Y-105860219D01*
X147342993Y-105826456D01*
X147283468Y-105707407D01*
X147281873Y-105705693D01*
X147281376Y-105703404D01*
X147260054Y-105674921D01*
X147200531Y-105615397D01*
X147199369Y-105614763D01*
X147200531Y-105613602D01*
X147201653Y-105611546D01*
X147203668Y-105610350D01*
X147223946Y-105581115D01*
X147283469Y-105462067D01*
X147285475Y-105450915D01*
X147291602Y-105441383D01*
X147296665Y-105406166D01*
X147296665Y-105287119D01*
X147293472Y-105276246D01*
X147294689Y-105264981D01*
X147283469Y-105231218D01*
X147223946Y-105112170D01*
X147222351Y-105110455D01*
X147221853Y-105108165D01*
X147200531Y-105079683D01*
X147141006Y-105020159D01*
X147138952Y-105019037D01*
X147137755Y-105017022D01*
X147108520Y-104996744D01*
X146989472Y-104937220D01*
X146978321Y-104935213D01*
X146968787Y-104929086D01*
X146933570Y-104924023D01*
X146516904Y-104924023D01*
X146508148Y-104926593D01*
X146499115Y-104925295D01*
X146474882Y-104936361D01*
X146449324Y-104943866D01*
X146443348Y-104950762D01*
X146435046Y-104954554D01*
X146420642Y-104976966D01*
X146403200Y-104997096D01*
X146401901Y-105006128D01*
X146396967Y-105013806D01*
X146391904Y-105049023D01*
X146391904Y-106299023D01*
X146102360Y-106299023D01*
X146104918Y-106281234D01*
X146075659Y-106217165D01*
X146016407Y-106179086D01*
X145981190Y-106174023D01*
X145510952Y-106174023D01*
X145510952Y-105769261D01*
X145802618Y-105769261D01*
X145870198Y-105749418D01*
X145916322Y-105696188D01*
X145926346Y-105626472D01*
X145897087Y-105562403D01*
X145837835Y-105524324D01*
X145802618Y-105519261D01*
X145510952Y-105519261D01*
X145510952Y-105174023D01*
X145981190Y-105174023D01*
X146048770Y-105154180D01*
X146094894Y-105100950D01*
X146104918Y-105031234D01*
X146075659Y-104967165D01*
X146016407Y-104929086D01*
X145981190Y-104924023D01*
X145385952Y-104924023D01*
X145377196Y-104926593D01*
X145368163Y-104925295D01*
X145343930Y-104936361D01*
X145318372Y-104943866D01*
X145312396Y-104950762D01*
X145304094Y-104954554D01*
X145289690Y-104976966D01*
X145272248Y-104997096D01*
X145270949Y-105006128D01*
X145266015Y-105013806D01*
X145260952Y-105049023D01*
X145260952Y-106299023D01*
X144848443Y-106299023D01*
X144879103Y-106268364D01*
X144880225Y-106266308D01*
X144882240Y-106265112D01*
X144902518Y-106235877D01*
X144962041Y-106116829D01*
X144964047Y-106105677D01*
X144970174Y-106096145D01*
X144975237Y-106060928D01*
X144975237Y-105941880D01*
X144972044Y-105931007D01*
X144973261Y-105919742D01*
X144962040Y-105885978D01*
X144902518Y-105766932D01*
X144900923Y-105765217D01*
X144900425Y-105762927D01*
X144879103Y-105734445D01*
X144819578Y-105674921D01*
X144817524Y-105673799D01*
X144816327Y-105671784D01*
X144787092Y-105651506D01*
X144668044Y-105591982D01*
X144663730Y-105591205D01*
X144642459Y-105582517D01*
X144417675Y-105526320D01*
X144329044Y-105482005D01*
X144298208Y-105451169D01*
X144260952Y-105376657D01*
X144260952Y-105316627D01*
X144298208Y-105242115D01*
X144329045Y-105211277D01*
X144403555Y-105174023D01*
X144651382Y-105174023D01*
X144810708Y-105227132D01*
X144881095Y-105229678D01*
X144941685Y-105193766D01*
X144973241Y-105130797D01*
X144965744Y-105060763D01*
X144921574Y-105005901D01*
X144889765Y-104989962D01*
X144711195Y-104930438D01*
X144708855Y-104930353D01*
X144706883Y-104929086D01*
X144671666Y-104924023D01*
X144374047Y-104924023D01*
X144363177Y-104927214D01*
X144351909Y-104925998D01*
X144318146Y-104937219D01*
X144199097Y-104996744D01*
X144197382Y-104998338D01*
X144195092Y-104998837D01*
X144166610Y-105020159D01*
X144107087Y-105079683D01*
X144105964Y-105081737D01*
X144103951Y-105082934D01*
X144083673Y-105112169D01*
X144024149Y-105231217D01*
X144022142Y-105242367D01*
X144016015Y-105251902D01*
X144010952Y-105287119D01*
X144010952Y-105406166D01*
X143612951Y-105406166D01*
X143480727Y-105009495D01*
X143463107Y-104984141D01*
X143447361Y-104957575D01*
X143443193Y-104955486D01*
X143440532Y-104951657D01*
X143411994Y-104939851D01*
X143384392Y-104926019D01*
X143379756Y-104926515D01*
X143375448Y-104924733D01*
X143345065Y-104930228D01*
X143314358Y-104933516D01*
X143310725Y-104936440D01*
X143306140Y-104937270D01*
X143283557Y-104958313D01*
X143259496Y-104977686D01*
X143256628Y-104983407D01*
X143254611Y-104985288D01*
X143253498Y-104989654D01*
X143243557Y-105009494D01*
X142826890Y-106259495D01*
X142824344Y-106329881D01*
X142555012Y-106329881D01*
X142557674Y-106327888D01*
X142617197Y-106268364D01*
X142618319Y-106266307D01*
X142620333Y-106265112D01*
X142640611Y-106235878D01*
X142700136Y-106116829D01*
X142702142Y-106105677D01*
X142708269Y-106096145D01*
X142713332Y-106060928D01*
X142713332Y-105882357D01*
X142710140Y-105871487D01*
X142711357Y-105860219D01*
X142700136Y-105826456D01*
X142640611Y-105707407D01*
X142639016Y-105705693D01*
X142638519Y-105703404D01*
X142617197Y-105674921D01*
X142557674Y-105615397D01*
X142556512Y-105614763D01*
X142557674Y-105613602D01*
X142558796Y-105611546D01*
X142560811Y-105610350D01*
X142581089Y-105581115D01*
X142640612Y-105462067D01*
X142642618Y-105450915D01*
X142648745Y-105441383D01*
X142653808Y-105406166D01*
X142653808Y-105287119D01*
X142650615Y-105276246D01*
X142651832Y-105264981D01*
X142640612Y-105231218D01*
X142581089Y-105112170D01*
X142579494Y-105110455D01*
X142578996Y-105108165D01*
X142557674Y-105079683D01*
X142498149Y-105020159D01*
X142496095Y-105019037D01*
X142494898Y-105017022D01*
X142465663Y-104996744D01*
X142346615Y-104937220D01*
X142335464Y-104935213D01*
X142325930Y-104929086D01*
X142290713Y-104924023D01*
X141874047Y-104924023D01*
X141865291Y-104926593D01*
X141856258Y-104925295D01*
X141832025Y-104936361D01*
X141806467Y-104943866D01*
X141800491Y-104950762D01*
X141792189Y-104954554D01*
X141777785Y-104976966D01*
X141760343Y-104997096D01*
X141759044Y-105006128D01*
X141754110Y-105013806D01*
X141749047Y-105049023D01*
X141749047Y-106299023D01*
X140320476Y-106299023D01*
X140320476Y-104745452D01*
X161939524Y-104745452D01*
X161939524Y-110627594D01*
G37*
D11*
X130000476Y-98909819D02*
X130000476Y-99624104D01*
X130000476Y-99624104D02*
X129952857Y-99766961D01*
X129952857Y-99766961D02*
X129857619Y-99862200D01*
X129857619Y-99862200D02*
X129714762Y-99909819D01*
X129714762Y-99909819D02*
X129619524Y-99909819D01*
X131000476Y-99909819D02*
X130429048Y-99909819D01*
X130714762Y-99909819D02*
X130714762Y-98909819D01*
X130714762Y-98909819D02*
X130619524Y-99052676D01*
X130619524Y-99052676D02*
X130524286Y-99147914D01*
X130524286Y-99147914D02*
X130429048Y-99195533D01*
X131857619Y-99243152D02*
X131857619Y-99909819D01*
X131619524Y-98862200D02*
X131381429Y-99576485D01*
X131381429Y-99576485D02*
X132000476Y-99576485D01*
X163663333Y-72749580D02*
X163615714Y-72797200D01*
X163615714Y-72797200D02*
X163472857Y-72844819D01*
X163472857Y-72844819D02*
X163377619Y-72844819D01*
X163377619Y-72844819D02*
X163234762Y-72797200D01*
X163234762Y-72797200D02*
X163139524Y-72701961D01*
X163139524Y-72701961D02*
X163091905Y-72606723D01*
X163091905Y-72606723D02*
X163044286Y-72416247D01*
X163044286Y-72416247D02*
X163044286Y-72273390D01*
X163044286Y-72273390D02*
X163091905Y-72082914D01*
X163091905Y-72082914D02*
X163139524Y-71987676D01*
X163139524Y-71987676D02*
X163234762Y-71892438D01*
X163234762Y-71892438D02*
X163377619Y-71844819D01*
X163377619Y-71844819D02*
X163472857Y-71844819D01*
X163472857Y-71844819D02*
X163615714Y-71892438D01*
X163615714Y-71892438D02*
X163663333Y-71940057D01*
X164615714Y-72844819D02*
X164044286Y-72844819D01*
X164330000Y-72844819D02*
X164330000Y-71844819D01*
X164330000Y-71844819D02*
X164234762Y-71987676D01*
X164234762Y-71987676D02*
X164139524Y-72082914D01*
X164139524Y-72082914D02*
X164044286Y-72130533D01*
X120006666Y-54064819D02*
X120006666Y-54779104D01*
X120006666Y-54779104D02*
X119959047Y-54921961D01*
X119959047Y-54921961D02*
X119863809Y-55017200D01*
X119863809Y-55017200D02*
X119720952Y-55064819D01*
X119720952Y-55064819D02*
X119625714Y-55064819D01*
X121006666Y-55064819D02*
X120435238Y-55064819D01*
X120720952Y-55064819D02*
X120720952Y-54064819D01*
X120720952Y-54064819D02*
X120625714Y-54207676D01*
X120625714Y-54207676D02*
X120530476Y-54302914D01*
X120530476Y-54302914D02*
X120435238Y-54350533D01*
X149098095Y-92164819D02*
X149098095Y-92974342D01*
X149098095Y-92974342D02*
X149145714Y-93069580D01*
X149145714Y-93069580D02*
X149193333Y-93117200D01*
X149193333Y-93117200D02*
X149288571Y-93164819D01*
X149288571Y-93164819D02*
X149479047Y-93164819D01*
X149479047Y-93164819D02*
X149574285Y-93117200D01*
X149574285Y-93117200D02*
X149621904Y-93069580D01*
X149621904Y-93069580D02*
X149669523Y-92974342D01*
X149669523Y-92974342D02*
X149669523Y-92164819D01*
X150098095Y-92260057D02*
X150145714Y-92212438D01*
X150145714Y-92212438D02*
X150240952Y-92164819D01*
X150240952Y-92164819D02*
X150479047Y-92164819D01*
X150479047Y-92164819D02*
X150574285Y-92212438D01*
X150574285Y-92212438D02*
X150621904Y-92260057D01*
X150621904Y-92260057D02*
X150669523Y-92355295D01*
X150669523Y-92355295D02*
X150669523Y-92450533D01*
X150669523Y-92450533D02*
X150621904Y-92593390D01*
X150621904Y-92593390D02*
X150050476Y-93164819D01*
X150050476Y-93164819D02*
X150669523Y-93164819D01*
X130095714Y-94149104D02*
X130571904Y-94149104D01*
X130000476Y-94434819D02*
X130333809Y-93434819D01*
X130333809Y-93434819D02*
X130667142Y-94434819D01*
X131524285Y-94434819D02*
X130952857Y-94434819D01*
X131238571Y-94434819D02*
X131238571Y-93434819D01*
X131238571Y-93434819D02*
X131143333Y-93577676D01*
X131143333Y-93577676D02*
X131048095Y-93672914D01*
X131048095Y-93672914D02*
X130952857Y-93720533D01*
X124991905Y-55064819D02*
X124991905Y-54064819D01*
X124991905Y-54064819D02*
X125230000Y-54064819D01*
X125230000Y-54064819D02*
X125372857Y-54112438D01*
X125372857Y-54112438D02*
X125468095Y-54207676D01*
X125468095Y-54207676D02*
X125515714Y-54302914D01*
X125515714Y-54302914D02*
X125563333Y-54493390D01*
X125563333Y-54493390D02*
X125563333Y-54636247D01*
X125563333Y-54636247D02*
X125515714Y-54826723D01*
X125515714Y-54826723D02*
X125468095Y-54921961D01*
X125468095Y-54921961D02*
X125372857Y-55017200D01*
X125372857Y-55017200D02*
X125230000Y-55064819D01*
X125230000Y-55064819D02*
X124991905Y-55064819D01*
X126182381Y-54064819D02*
X126277619Y-54064819D01*
X126277619Y-54064819D02*
X126372857Y-54112438D01*
X126372857Y-54112438D02*
X126420476Y-54160057D01*
X126420476Y-54160057D02*
X126468095Y-54255295D01*
X126468095Y-54255295D02*
X126515714Y-54445771D01*
X126515714Y-54445771D02*
X126515714Y-54683866D01*
X126515714Y-54683866D02*
X126468095Y-54874342D01*
X126468095Y-54874342D02*
X126420476Y-54969580D01*
X126420476Y-54969580D02*
X126372857Y-55017200D01*
X126372857Y-55017200D02*
X126277619Y-55064819D01*
X126277619Y-55064819D02*
X126182381Y-55064819D01*
X126182381Y-55064819D02*
X126087143Y-55017200D01*
X126087143Y-55017200D02*
X126039524Y-54969580D01*
X126039524Y-54969580D02*
X125991905Y-54874342D01*
X125991905Y-54874342D02*
X125944286Y-54683866D01*
X125944286Y-54683866D02*
X125944286Y-54445771D01*
X125944286Y-54445771D02*
X125991905Y-54255295D01*
X125991905Y-54255295D02*
X126039524Y-54160057D01*
X126039524Y-54160057D02*
X126087143Y-54112438D01*
X126087143Y-54112438D02*
X126182381Y-54064819D01*
X120006666Y-103594819D02*
X120006666Y-104309104D01*
X120006666Y-104309104D02*
X119959047Y-104451961D01*
X119959047Y-104451961D02*
X119863809Y-104547200D01*
X119863809Y-104547200D02*
X119720952Y-104594819D01*
X119720952Y-104594819D02*
X119625714Y-104594819D01*
X120911428Y-103594819D02*
X120720952Y-103594819D01*
X120720952Y-103594819D02*
X120625714Y-103642438D01*
X120625714Y-103642438D02*
X120578095Y-103690057D01*
X120578095Y-103690057D02*
X120482857Y-103832914D01*
X120482857Y-103832914D02*
X120435238Y-104023390D01*
X120435238Y-104023390D02*
X120435238Y-104404342D01*
X120435238Y-104404342D02*
X120482857Y-104499580D01*
X120482857Y-104499580D02*
X120530476Y-104547200D01*
X120530476Y-104547200D02*
X120625714Y-104594819D01*
X120625714Y-104594819D02*
X120816190Y-104594819D01*
X120816190Y-104594819D02*
X120911428Y-104547200D01*
X120911428Y-104547200D02*
X120959047Y-104499580D01*
X120959047Y-104499580D02*
X121006666Y-104404342D01*
X121006666Y-104404342D02*
X121006666Y-104166247D01*
X121006666Y-104166247D02*
X120959047Y-104071009D01*
X120959047Y-104071009D02*
X120911428Y-104023390D01*
X120911428Y-104023390D02*
X120816190Y-103975771D01*
X120816190Y-103975771D02*
X120625714Y-103975771D01*
X120625714Y-103975771D02*
X120530476Y-104023390D01*
X120530476Y-104023390D02*
X120482857Y-104071009D01*
X120482857Y-104071009D02*
X120435238Y-104166247D01*
X163663333Y-49889580D02*
X163615714Y-49937200D01*
X163615714Y-49937200D02*
X163472857Y-49984819D01*
X163472857Y-49984819D02*
X163377619Y-49984819D01*
X163377619Y-49984819D02*
X163234762Y-49937200D01*
X163234762Y-49937200D02*
X163139524Y-49841961D01*
X163139524Y-49841961D02*
X163091905Y-49746723D01*
X163091905Y-49746723D02*
X163044286Y-49556247D01*
X163044286Y-49556247D02*
X163044286Y-49413390D01*
X163044286Y-49413390D02*
X163091905Y-49222914D01*
X163091905Y-49222914D02*
X163139524Y-49127676D01*
X163139524Y-49127676D02*
X163234762Y-49032438D01*
X163234762Y-49032438D02*
X163377619Y-48984819D01*
X163377619Y-48984819D02*
X163472857Y-48984819D01*
X163472857Y-48984819D02*
X163615714Y-49032438D01*
X163615714Y-49032438D02*
X163663333Y-49080057D01*
X164044286Y-49080057D02*
X164091905Y-49032438D01*
X164091905Y-49032438D02*
X164187143Y-48984819D01*
X164187143Y-48984819D02*
X164425238Y-48984819D01*
X164425238Y-48984819D02*
X164520476Y-49032438D01*
X164520476Y-49032438D02*
X164568095Y-49080057D01*
X164568095Y-49080057D02*
X164615714Y-49175295D01*
X164615714Y-49175295D02*
X164615714Y-49270533D01*
X164615714Y-49270533D02*
X164568095Y-49413390D01*
X164568095Y-49413390D02*
X163996667Y-49984819D01*
X163996667Y-49984819D02*
X164615714Y-49984819D01*
X120006666Y-87084819D02*
X120006666Y-87799104D01*
X120006666Y-87799104D02*
X119959047Y-87941961D01*
X119959047Y-87941961D02*
X119863809Y-88037200D01*
X119863809Y-88037200D02*
X119720952Y-88084819D01*
X119720952Y-88084819D02*
X119625714Y-88084819D01*
X120911428Y-87418152D02*
X120911428Y-88084819D01*
X120673333Y-87037200D02*
X120435238Y-87751485D01*
X120435238Y-87751485D02*
X121054285Y-87751485D01*
X158250476Y-98514819D02*
X158250476Y-99229104D01*
X158250476Y-99229104D02*
X158202857Y-99371961D01*
X158202857Y-99371961D02*
X158107619Y-99467200D01*
X158107619Y-99467200D02*
X157964762Y-99514819D01*
X157964762Y-99514819D02*
X157869524Y-99514819D01*
X159250476Y-99514819D02*
X158679048Y-99514819D01*
X158964762Y-99514819D02*
X158964762Y-98514819D01*
X158964762Y-98514819D02*
X158869524Y-98657676D01*
X158869524Y-98657676D02*
X158774286Y-98752914D01*
X158774286Y-98752914D02*
X158679048Y-98800533D01*
X159583810Y-98514819D02*
X160202857Y-98514819D01*
X160202857Y-98514819D02*
X159869524Y-98895771D01*
X159869524Y-98895771D02*
X160012381Y-98895771D01*
X160012381Y-98895771D02*
X160107619Y-98943390D01*
X160107619Y-98943390D02*
X160155238Y-98991009D01*
X160155238Y-98991009D02*
X160202857Y-99086247D01*
X160202857Y-99086247D02*
X160202857Y-99324342D01*
X160202857Y-99324342D02*
X160155238Y-99419580D01*
X160155238Y-99419580D02*
X160107619Y-99467200D01*
X160107619Y-99467200D02*
X160012381Y-99514819D01*
X160012381Y-99514819D02*
X159726667Y-99514819D01*
X159726667Y-99514819D02*
X159631429Y-99467200D01*
X159631429Y-99467200D02*
X159583810Y-99419580D01*
X158726666Y-57874819D02*
X158726666Y-58589104D01*
X158726666Y-58589104D02*
X158679047Y-58731961D01*
X158679047Y-58731961D02*
X158583809Y-58827200D01*
X158583809Y-58827200D02*
X158440952Y-58874819D01*
X158440952Y-58874819D02*
X158345714Y-58874819D01*
X159107619Y-57874819D02*
X159774285Y-57874819D01*
X159774285Y-57874819D02*
X159345714Y-58874819D01*
X158250476Y-80734819D02*
X158250476Y-81449104D01*
X158250476Y-81449104D02*
X158202857Y-81591961D01*
X158202857Y-81591961D02*
X158107619Y-81687200D01*
X158107619Y-81687200D02*
X157964762Y-81734819D01*
X157964762Y-81734819D02*
X157869524Y-81734819D01*
X159250476Y-81734819D02*
X158679048Y-81734819D01*
X158964762Y-81734819D02*
X158964762Y-80734819D01*
X158964762Y-80734819D02*
X158869524Y-80877676D01*
X158869524Y-80877676D02*
X158774286Y-80972914D01*
X158774286Y-80972914D02*
X158679048Y-81020533D01*
X159869524Y-80734819D02*
X159964762Y-80734819D01*
X159964762Y-80734819D02*
X160060000Y-80782438D01*
X160060000Y-80782438D02*
X160107619Y-80830057D01*
X160107619Y-80830057D02*
X160155238Y-80925295D01*
X160155238Y-80925295D02*
X160202857Y-81115771D01*
X160202857Y-81115771D02*
X160202857Y-81353866D01*
X160202857Y-81353866D02*
X160155238Y-81544342D01*
X160155238Y-81544342D02*
X160107619Y-81639580D01*
X160107619Y-81639580D02*
X160060000Y-81687200D01*
X160060000Y-81687200D02*
X159964762Y-81734819D01*
X159964762Y-81734819D02*
X159869524Y-81734819D01*
X159869524Y-81734819D02*
X159774286Y-81687200D01*
X159774286Y-81687200D02*
X159726667Y-81639580D01*
X159726667Y-81639580D02*
X159679048Y-81544342D01*
X159679048Y-81544342D02*
X159631429Y-81353866D01*
X159631429Y-81353866D02*
X159631429Y-81115771D01*
X159631429Y-81115771D02*
X159679048Y-80925295D01*
X159679048Y-80925295D02*
X159726667Y-80830057D01*
X159726667Y-80830057D02*
X159774286Y-80782438D01*
X159774286Y-80782438D02*
X159869524Y-80734819D01*
X144653095Y-98514819D02*
X144653095Y-99324342D01*
X144653095Y-99324342D02*
X144700714Y-99419580D01*
X144700714Y-99419580D02*
X144748333Y-99467200D01*
X144748333Y-99467200D02*
X144843571Y-99514819D01*
X144843571Y-99514819D02*
X145034047Y-99514819D01*
X145034047Y-99514819D02*
X145129285Y-99467200D01*
X145129285Y-99467200D02*
X145176904Y-99419580D01*
X145176904Y-99419580D02*
X145224523Y-99324342D01*
X145224523Y-99324342D02*
X145224523Y-98514819D01*
X145605476Y-98514819D02*
X146224523Y-98514819D01*
X146224523Y-98514819D02*
X145891190Y-98895771D01*
X145891190Y-98895771D02*
X146034047Y-98895771D01*
X146034047Y-98895771D02*
X146129285Y-98943390D01*
X146129285Y-98943390D02*
X146176904Y-98991009D01*
X146176904Y-98991009D02*
X146224523Y-99086247D01*
X146224523Y-99086247D02*
X146224523Y-99324342D01*
X146224523Y-99324342D02*
X146176904Y-99419580D01*
X146176904Y-99419580D02*
X146129285Y-99467200D01*
X146129285Y-99467200D02*
X146034047Y-99514819D01*
X146034047Y-99514819D02*
X145748333Y-99514819D01*
X145748333Y-99514819D02*
X145653095Y-99467200D01*
X145653095Y-99467200D02*
X145605476Y-99419580D01*
X149098095Y-69304819D02*
X149098095Y-70114342D01*
X149098095Y-70114342D02*
X149145714Y-70209580D01*
X149145714Y-70209580D02*
X149193333Y-70257200D01*
X149193333Y-70257200D02*
X149288571Y-70304819D01*
X149288571Y-70304819D02*
X149479047Y-70304819D01*
X149479047Y-70304819D02*
X149574285Y-70257200D01*
X149574285Y-70257200D02*
X149621904Y-70209580D01*
X149621904Y-70209580D02*
X149669523Y-70114342D01*
X149669523Y-70114342D02*
X149669523Y-69304819D01*
X150669523Y-70304819D02*
X150098095Y-70304819D01*
X150383809Y-70304819D02*
X150383809Y-69304819D01*
X150383809Y-69304819D02*
X150288571Y-69447676D01*
X150288571Y-69447676D02*
X150193333Y-69542914D01*
X150193333Y-69542914D02*
X150098095Y-69590533D01*
X120006666Y-70574819D02*
X120006666Y-71289104D01*
X120006666Y-71289104D02*
X119959047Y-71431961D01*
X119959047Y-71431961D02*
X119863809Y-71527200D01*
X119863809Y-71527200D02*
X119720952Y-71574819D01*
X119720952Y-71574819D02*
X119625714Y-71574819D01*
X120387619Y-70574819D02*
X121006666Y-70574819D01*
X121006666Y-70574819D02*
X120673333Y-70955771D01*
X120673333Y-70955771D02*
X120816190Y-70955771D01*
X120816190Y-70955771D02*
X120911428Y-71003390D01*
X120911428Y-71003390D02*
X120959047Y-71051009D01*
X120959047Y-71051009D02*
X121006666Y-71146247D01*
X121006666Y-71146247D02*
X121006666Y-71384342D01*
X121006666Y-71384342D02*
X120959047Y-71479580D01*
X120959047Y-71479580D02*
X120911428Y-71527200D01*
X120911428Y-71527200D02*
X120816190Y-71574819D01*
X120816190Y-71574819D02*
X120530476Y-71574819D01*
X120530476Y-71574819D02*
X120435238Y-71527200D01*
X120435238Y-71527200D02*
X120387619Y-71479580D01*
D12*
X121975000Y-100220000D02*
X139645000Y-100220000D01*
X139645000Y-100220000D02*
X139645000Y-113140000D01*
X139645000Y-113140000D02*
X121975000Y-113140000D01*
X121975000Y-113140000D02*
X121975000Y-100220000D01*
X159601248Y-71030000D02*
X161023752Y-71030000D01*
X159601248Y-73750000D02*
X161023752Y-73750000D01*
X119250000Y-48300000D02*
X119250000Y-49720000D01*
X107530000Y-48300000D02*
X119250000Y-48300000D01*
X119250000Y-49720000D02*
X114750000Y-49720000D01*
X114750000Y-49720000D02*
X114750000Y-54610000D01*
X118940000Y-50560000D02*
X118940000Y-51160000D01*
X113640000Y-50610000D02*
X108140000Y-50610000D01*
X108140000Y-50610000D02*
X108140000Y-51110000D01*
X118340000Y-50860000D02*
X118940000Y-50560000D01*
X113640000Y-51110000D02*
X113640000Y-50610000D01*
X108140000Y-51110000D02*
X113640000Y-51110000D01*
X118940000Y-51160000D02*
X118340000Y-50860000D01*
X113640000Y-53110000D02*
X108140000Y-53110000D01*
X108140000Y-53110000D02*
X108140000Y-53610000D01*
X113640000Y-53610000D02*
X113640000Y-53110000D01*
X108140000Y-53610000D02*
X113640000Y-53610000D01*
X107530000Y-54610000D02*
X107530000Y-48300000D01*
X107530000Y-54610000D02*
X107530000Y-60920000D01*
X113640000Y-55610000D02*
X108140000Y-55610000D01*
X108140000Y-55610000D02*
X108140000Y-56110000D01*
X113640000Y-56110000D02*
X113640000Y-55610000D01*
X108140000Y-56110000D02*
X113640000Y-56110000D01*
X113640000Y-58110000D02*
X108140000Y-58110000D01*
X108140000Y-58110000D02*
X108140000Y-58610000D01*
X113640000Y-58610000D02*
X113640000Y-58110000D01*
X108140000Y-58610000D02*
X113640000Y-58610000D01*
X119250000Y-59500000D02*
X114750000Y-59500000D01*
X114750000Y-59500000D02*
X114750000Y-54610000D01*
X119250000Y-60920000D02*
X119250000Y-59500000D01*
X107530000Y-60920000D02*
X119250000Y-60920000D01*
X142130000Y-71010000D02*
X157590000Y-71010000D01*
X157590000Y-71010000D02*
X157590000Y-91550000D01*
X157590000Y-91550000D02*
X142130000Y-91550000D01*
X142130000Y-91550000D02*
X142130000Y-71010000D01*
D11*
X121920000Y-48260000D02*
X121920000Y-91440000D01*
X121920000Y-48260000D02*
X139700000Y-48260000D01*
X121920000Y-91440000D02*
X139700000Y-91440000D01*
X139700000Y-48260000D02*
X139700000Y-91440000D01*
D12*
X119250000Y-95330000D02*
X119250000Y-96750000D01*
X107530000Y-95330000D02*
X119250000Y-95330000D01*
X119250000Y-96750000D02*
X114750000Y-96750000D01*
X114750000Y-96750000D02*
X114750000Y-104140000D01*
X118940000Y-97590000D02*
X118940000Y-98190000D01*
X113640000Y-97640000D02*
X108140000Y-97640000D01*
X108140000Y-97640000D02*
X108140000Y-98140000D01*
X118340000Y-97890000D02*
X118940000Y-97590000D01*
X113640000Y-98140000D02*
X113640000Y-97640000D01*
X108140000Y-98140000D02*
X113640000Y-98140000D01*
X118940000Y-98190000D02*
X118340000Y-97890000D01*
X113640000Y-100140000D02*
X108140000Y-100140000D01*
X108140000Y-100140000D02*
X108140000Y-100640000D01*
X113640000Y-100640000D02*
X113640000Y-100140000D01*
X108140000Y-100640000D02*
X113640000Y-100640000D01*
X113640000Y-102640000D02*
X108140000Y-102640000D01*
X108140000Y-102640000D02*
X108140000Y-103140000D01*
X113640000Y-103140000D02*
X113640000Y-102640000D01*
X108140000Y-103140000D02*
X113640000Y-103140000D01*
X107530000Y-104140000D02*
X107530000Y-95330000D01*
X107530000Y-104140000D02*
X107530000Y-112950000D01*
X113640000Y-105140000D02*
X108140000Y-105140000D01*
X108140000Y-105140000D02*
X108140000Y-105640000D01*
X113640000Y-105640000D02*
X113640000Y-105140000D01*
X108140000Y-105640000D02*
X113640000Y-105640000D01*
X113640000Y-107640000D02*
X108140000Y-107640000D01*
X108140000Y-107640000D02*
X108140000Y-108140000D01*
X113640000Y-108140000D02*
X113640000Y-107640000D01*
X108140000Y-108140000D02*
X113640000Y-108140000D01*
X113640000Y-110140000D02*
X108140000Y-110140000D01*
X108140000Y-110140000D02*
X108140000Y-110640000D01*
X113640000Y-110640000D02*
X113640000Y-110140000D01*
X108140000Y-110640000D02*
X113640000Y-110640000D01*
X119250000Y-111530000D02*
X114750000Y-111530000D01*
X114750000Y-111530000D02*
X114750000Y-104140000D01*
X119250000Y-112950000D02*
X119250000Y-111530000D01*
X107530000Y-112950000D02*
X119250000Y-112950000D01*
X159601248Y-48170000D02*
X161023752Y-48170000D01*
X159601248Y-50890000D02*
X161023752Y-50890000D01*
X119250000Y-81320000D02*
X119250000Y-82740000D01*
X107530000Y-81320000D02*
X119250000Y-81320000D01*
X119250000Y-82740000D02*
X114750000Y-82740000D01*
X114750000Y-82740000D02*
X114750000Y-87630000D01*
X118940000Y-83580000D02*
X118940000Y-84180000D01*
X113640000Y-83630000D02*
X108140000Y-83630000D01*
X108140000Y-83630000D02*
X108140000Y-84130000D01*
X118340000Y-83880000D02*
X118940000Y-83580000D01*
X113640000Y-84130000D02*
X113640000Y-83630000D01*
X108140000Y-84130000D02*
X113640000Y-84130000D01*
X118940000Y-84180000D02*
X118340000Y-83880000D01*
X113640000Y-86130000D02*
X108140000Y-86130000D01*
X108140000Y-86130000D02*
X108140000Y-86630000D01*
X113640000Y-86630000D02*
X113640000Y-86130000D01*
X108140000Y-86630000D02*
X113640000Y-86630000D01*
X107530000Y-87630000D02*
X107530000Y-81320000D01*
X107530000Y-87630000D02*
X107530000Y-93940000D01*
X113640000Y-88630000D02*
X108140000Y-88630000D01*
X108140000Y-88630000D02*
X108140000Y-89130000D01*
X113640000Y-89130000D02*
X113640000Y-88630000D01*
X108140000Y-89130000D02*
X113640000Y-89130000D01*
X113640000Y-91130000D02*
X108140000Y-91130000D01*
X108140000Y-91130000D02*
X108140000Y-91630000D01*
X113640000Y-91630000D02*
X113640000Y-91130000D01*
X108140000Y-91630000D02*
X113640000Y-91630000D01*
X119250000Y-92520000D02*
X114750000Y-92520000D01*
X114750000Y-92520000D02*
X114750000Y-87630000D01*
X119250000Y-93940000D02*
X119250000Y-92520000D01*
X107530000Y-93940000D02*
X119250000Y-93940000D01*
X160150000Y-102870000D02*
X160150000Y-101450000D01*
X171870000Y-102870000D02*
X160150000Y-102870000D01*
X160150000Y-101450000D02*
X164650000Y-101450000D01*
X164650000Y-101450000D02*
X164650000Y-99060000D01*
X160460000Y-100610000D02*
X160460000Y-100010000D01*
X165760000Y-100560000D02*
X171260000Y-100560000D01*
X171260000Y-100560000D02*
X171260000Y-100060000D01*
X161060000Y-100310000D02*
X160460000Y-100610000D01*
X165760000Y-100060000D02*
X165760000Y-100560000D01*
X171260000Y-100060000D02*
X165760000Y-100060000D01*
X160460000Y-100010000D02*
X161060000Y-100310000D01*
X171870000Y-99060000D02*
X171870000Y-102870000D01*
X171870000Y-99060000D02*
X171870000Y-95250000D01*
X165760000Y-98060000D02*
X171260000Y-98060000D01*
X171260000Y-98060000D02*
X171260000Y-97560000D01*
X165760000Y-97560000D02*
X165760000Y-98060000D01*
X171260000Y-97560000D02*
X165760000Y-97560000D01*
X160150000Y-96670000D02*
X164650000Y-96670000D01*
X164650000Y-96670000D02*
X164650000Y-99060000D01*
X160150000Y-95250000D02*
X160150000Y-96670000D01*
X171870000Y-95250000D02*
X160150000Y-95250000D01*
X160150000Y-64730000D02*
X160150000Y-63310000D01*
X171870000Y-64730000D02*
X160150000Y-64730000D01*
X160150000Y-63310000D02*
X164650000Y-63310000D01*
X164650000Y-63310000D02*
X164650000Y-58420000D01*
X160460000Y-62470000D02*
X160460000Y-61870000D01*
X165760000Y-62420000D02*
X171260000Y-62420000D01*
X171260000Y-62420000D02*
X171260000Y-61920000D01*
X161060000Y-62170000D02*
X160460000Y-62470000D01*
X165760000Y-61920000D02*
X165760000Y-62420000D01*
X171260000Y-61920000D02*
X165760000Y-61920000D01*
X160460000Y-61870000D02*
X161060000Y-62170000D01*
X165760000Y-59920000D02*
X171260000Y-59920000D01*
X171260000Y-59920000D02*
X171260000Y-59420000D01*
X165760000Y-59420000D02*
X165760000Y-59920000D01*
X171260000Y-59420000D02*
X165760000Y-59420000D01*
X171870000Y-58420000D02*
X171870000Y-64730000D01*
X171870000Y-58420000D02*
X171870000Y-52110000D01*
X165760000Y-57420000D02*
X171260000Y-57420000D01*
X171260000Y-57420000D02*
X171260000Y-56920000D01*
X165760000Y-56920000D02*
X165760000Y-57420000D01*
X171260000Y-56920000D02*
X165760000Y-56920000D01*
X165760000Y-54920000D02*
X171260000Y-54920000D01*
X171260000Y-54920000D02*
X171260000Y-54420000D01*
X165760000Y-54420000D02*
X165760000Y-54920000D01*
X171260000Y-54420000D02*
X165760000Y-54420000D01*
X160150000Y-53530000D02*
X164650000Y-53530000D01*
X164650000Y-53530000D02*
X164650000Y-58420000D01*
X160150000Y-52110000D02*
X160150000Y-53530000D01*
X171870000Y-52110000D02*
X160150000Y-52110000D01*
X160150000Y-87590000D02*
X160150000Y-86170000D01*
X171870000Y-87590000D02*
X160150000Y-87590000D01*
X160150000Y-86170000D02*
X164650000Y-86170000D01*
X164650000Y-86170000D02*
X164650000Y-81280000D01*
X160460000Y-85330000D02*
X160460000Y-84730000D01*
X165760000Y-85280000D02*
X171260000Y-85280000D01*
X171260000Y-85280000D02*
X171260000Y-84780000D01*
X161060000Y-85030000D02*
X160460000Y-85330000D01*
X165760000Y-84780000D02*
X165760000Y-85280000D01*
X171260000Y-84780000D02*
X165760000Y-84780000D01*
X160460000Y-84730000D02*
X161060000Y-85030000D01*
X165760000Y-82780000D02*
X171260000Y-82780000D01*
X171260000Y-82780000D02*
X171260000Y-82280000D01*
X165760000Y-82280000D02*
X165760000Y-82780000D01*
X171260000Y-82280000D02*
X165760000Y-82280000D01*
X171870000Y-81280000D02*
X171870000Y-87590000D01*
X171870000Y-81280000D02*
X171870000Y-74970000D01*
X165760000Y-80280000D02*
X171260000Y-80280000D01*
X171260000Y-80280000D02*
X171260000Y-79780000D01*
X165760000Y-79780000D02*
X165760000Y-80280000D01*
X171260000Y-79780000D02*
X165760000Y-79780000D01*
X165760000Y-77780000D02*
X171260000Y-77780000D01*
X171260000Y-77780000D02*
X171260000Y-77280000D01*
X165760000Y-77280000D02*
X165760000Y-77780000D01*
X171260000Y-77280000D02*
X165760000Y-77280000D01*
X160150000Y-76390000D02*
X164650000Y-76390000D01*
X164650000Y-76390000D02*
X164650000Y-81280000D01*
X160150000Y-74970000D02*
X160150000Y-76390000D01*
X171870000Y-74970000D02*
X160150000Y-74970000D01*
X157650000Y-104260000D02*
X157650000Y-93860000D01*
X157650000Y-93860000D02*
X147150000Y-93860000D01*
X154650000Y-104200000D02*
X154650000Y-93920000D01*
X154650000Y-93920000D02*
X150150000Y-93920000D01*
X153400000Y-104200000D02*
X154650000Y-104200000D01*
X150150000Y-104200000D02*
X151400000Y-104200000D01*
X150150000Y-93920000D02*
X150150000Y-104200000D01*
X147150000Y-104260000D02*
X157650000Y-104260000D01*
X147150000Y-93860000D02*
X147150000Y-104260000D01*
X153400000Y-104200000D02*
G75*
G03*
X151400000Y-104200000I-1000000J0D01*
G01*
X142130000Y-48150000D02*
X157590000Y-48150000D01*
X157590000Y-48150000D02*
X157590000Y-68690000D01*
X157590000Y-68690000D02*
X142130000Y-68690000D01*
X142130000Y-68690000D02*
X142130000Y-48150000D01*
X119250000Y-62310000D02*
X119250000Y-63730000D01*
X107530000Y-62310000D02*
X119250000Y-62310000D01*
X119250000Y-63730000D02*
X114750000Y-63730000D01*
X114750000Y-63730000D02*
X114750000Y-71120000D01*
X118940000Y-64570000D02*
X118940000Y-65170000D01*
X113640000Y-64620000D02*
X108140000Y-64620000D01*
X108140000Y-64620000D02*
X108140000Y-65120000D01*
X118340000Y-64870000D02*
X118940000Y-64570000D01*
X113640000Y-65120000D02*
X113640000Y-64620000D01*
X108140000Y-65120000D02*
X113640000Y-65120000D01*
X118940000Y-65170000D02*
X118340000Y-64870000D01*
X113640000Y-67120000D02*
X108140000Y-67120000D01*
X108140000Y-67120000D02*
X108140000Y-67620000D01*
X113640000Y-67620000D02*
X113640000Y-67120000D01*
X108140000Y-67620000D02*
X113640000Y-67620000D01*
X113640000Y-69620000D02*
X108140000Y-69620000D01*
X108140000Y-69620000D02*
X108140000Y-70120000D01*
X113640000Y-70120000D02*
X113640000Y-69620000D01*
X108140000Y-70120000D02*
X113640000Y-70120000D01*
X107530000Y-71120000D02*
X107530000Y-62310000D01*
X107530000Y-71120000D02*
X107530000Y-79930000D01*
X113640000Y-72120000D02*
X108140000Y-72120000D01*
X108140000Y-72120000D02*
X108140000Y-72620000D01*
X113640000Y-72620000D02*
X113640000Y-72120000D01*
X108140000Y-72620000D02*
X113640000Y-72620000D01*
X113640000Y-74620000D02*
X108140000Y-74620000D01*
X108140000Y-74620000D02*
X108140000Y-75120000D01*
X113640000Y-75120000D02*
X113640000Y-74620000D01*
X108140000Y-75120000D02*
X113640000Y-75120000D01*
X113640000Y-77120000D02*
X108140000Y-77120000D01*
X108140000Y-77120000D02*
X108140000Y-77620000D01*
X113640000Y-77620000D02*
X113640000Y-77120000D01*
X108140000Y-77620000D02*
X113640000Y-77620000D01*
X119250000Y-78510000D02*
X114750000Y-78510000D01*
X114750000Y-78510000D02*
X114750000Y-71120000D01*
X119250000Y-79930000D02*
X119250000Y-78510000D01*
X107530000Y-79930000D02*
X119250000Y-79930000D01*
%LPC*%
D13*
X126685000Y-102630000D03*
D14*
X134935000Y-102630000D03*
D15*
X158750000Y-72390000D03*
X161875000Y-72390000D03*
D16*
X116840000Y-50860000D03*
D17*
X116840000Y-53360000D03*
X116840000Y-55860000D03*
X116840000Y-58360000D03*
D18*
X143510000Y-72390000D03*
D19*
X143510000Y-74930000D03*
X143510000Y-77470000D03*
X143510000Y-80010000D03*
X143510000Y-82550000D03*
X143510000Y-85090000D03*
X143510000Y-87630000D03*
X143510000Y-90170000D03*
X156210000Y-90170000D03*
X156210000Y-87630000D03*
X156210000Y-85090000D03*
X156210000Y-82550000D03*
X156210000Y-80010000D03*
X156210000Y-77470000D03*
X156210000Y-74930000D03*
X156210000Y-72390000D03*
D20*
X123190000Y-49530000D03*
X123190000Y-90170000D03*
X138430000Y-49530000D03*
X138430000Y-90170000D03*
D21*
X138430000Y-85090000D03*
X138430000Y-59690000D03*
X138430000Y-80010000D03*
X138430000Y-77470000D03*
X138430000Y-74930000D03*
X138430000Y-72390000D03*
X138430000Y-69850000D03*
X138430000Y-67310000D03*
X138430000Y-64770000D03*
X138430000Y-62230000D03*
X138430000Y-82550000D03*
X138430000Y-57150000D03*
X123190000Y-54610000D03*
X123190000Y-52070000D03*
X123190000Y-62230000D03*
X123190000Y-64770000D03*
X123190000Y-67310000D03*
X123190000Y-69850000D03*
X123190000Y-72390000D03*
X123190000Y-74930000D03*
X123190000Y-77470000D03*
X123190000Y-80010000D03*
X123190000Y-82550000D03*
X123190000Y-85090000D03*
X123190000Y-87630000D03*
X138430000Y-87630000D03*
D22*
X123190000Y-59690000D03*
X138430000Y-54610000D03*
D21*
X123190000Y-57150000D03*
X138430000Y-52070000D03*
D16*
X116840000Y-97890000D03*
D17*
X116840000Y-100390000D03*
X116840000Y-102890000D03*
X116840000Y-105390000D03*
X116840000Y-107890000D03*
X116840000Y-110390000D03*
D15*
X158750000Y-49530000D03*
X161875000Y-49530000D03*
D16*
X116840000Y-83880000D03*
D17*
X116840000Y-86380000D03*
X116840000Y-88880000D03*
X116840000Y-91380000D03*
D23*
X162560000Y-100310000D03*
D24*
X162560000Y-97810000D03*
D25*
X162560000Y-62170000D03*
D17*
X162560000Y-59670000D03*
X162560000Y-57170000D03*
X162560000Y-54670000D03*
D25*
X162560000Y-85030000D03*
D17*
X162560000Y-82530000D03*
X162560000Y-80030000D03*
X162560000Y-77530000D03*
D26*
X156210000Y-102870000D03*
D27*
X156210000Y-100330000D03*
X156210000Y-97790000D03*
X156210000Y-95250000D03*
X148590000Y-95250000D03*
X148590000Y-97790000D03*
X148590000Y-100330000D03*
X148590000Y-102870000D03*
D18*
X143510000Y-49530000D03*
D19*
X143510000Y-52070000D03*
X143510000Y-54610000D03*
X143510000Y-57150000D03*
X143510000Y-59690000D03*
X143510000Y-62230000D03*
X143510000Y-64770000D03*
X143510000Y-67310000D03*
X156210000Y-67310000D03*
X156210000Y-64770000D03*
X156210000Y-62230000D03*
X156210000Y-59690000D03*
X156210000Y-57150000D03*
X156210000Y-54610000D03*
X156210000Y-52070000D03*
X156210000Y-49530000D03*
D16*
X116840000Y-64870000D03*
D17*
X116840000Y-67370000D03*
X116840000Y-69870000D03*
X116840000Y-72370000D03*
X116840000Y-74870000D03*
X116840000Y-77370000D03*
%LPD*%
M02*
