G04 #@! TF.GenerationSoftware,KiCad,Pcbnew,7.0.8*
G04 #@! TF.CreationDate,2024-02-22T02:02:49-08:00*
G04 #@! TF.ProjectId,oc_v1,6f635f76-312e-46b6-9963-61645f706362,0*
G04 #@! TF.SameCoordinates,Original*
G04 #@! TF.FileFunction,Copper,L1,Top*
G04 #@! TF.FilePolarity,Positive*
%FSLAX46Y46*%
G04 Gerber Fmt 4.6, Leading zero omitted, Abs format (unit mm)*
G04 Created by KiCad (PCBNEW 7.0.8) date 2024-02-22 02:02:49*
%MOMM*%
%LPD*%
G01*
G04 APERTURE LIST*
G04 Aperture macros list*
%AMRoundRect*
0 Rectangle with rounded corners*
0 $1 Rounding radius*
0 $2 $3 $4 $5 $6 $7 $8 $9 X,Y pos of 4 corners*
0 Add a 4 corners polygon primitive as box body*
4,1,4,$2,$3,$4,$5,$6,$7,$8,$9,$2,$3,0*
0 Add four circle primitives for the rounded corners*
1,1,$1+$1,$2,$3*
1,1,$1+$1,$4,$5*
1,1,$1+$1,$6,$7*
1,1,$1+$1,$8,$9*
0 Add four rect primitives between the rounded corners*
20,1,$1+$1,$2,$3,$4,$5,0*
20,1,$1+$1,$4,$5,$6,$7,0*
20,1,$1+$1,$6,$7,$8,$9,0*
20,1,$1+$1,$8,$9,$2,$3,0*%
G04 Aperture macros list end*
G04 #@! TA.AperFunction,ComponentPad*
%ADD10R,3.145000X3.145000*%
G04 #@! TD*
G04 #@! TA.AperFunction,ComponentPad*
%ADD11C,3.145000*%
G04 #@! TD*
G04 #@! TA.AperFunction,SMDPad,CuDef*
%ADD12RoundRect,0.250000X-0.412500X-1.100000X0.412500X-1.100000X0.412500X1.100000X-0.412500X1.100000X0*%
G04 #@! TD*
G04 #@! TA.AperFunction,ComponentPad*
%ADD13RoundRect,0.250000X-0.725000X0.600000X-0.725000X-0.600000X0.725000X-0.600000X0.725000X0.600000X0*%
G04 #@! TD*
G04 #@! TA.AperFunction,ComponentPad*
%ADD14O,1.950000X1.700000*%
G04 #@! TD*
G04 #@! TA.AperFunction,ComponentPad*
%ADD15R,1.700000X1.700000*%
G04 #@! TD*
G04 #@! TA.AperFunction,ComponentPad*
%ADD16O,1.700000X1.700000*%
G04 #@! TD*
G04 #@! TA.AperFunction,ComponentPad*
%ADD17C,1.727200*%
G04 #@! TD*
G04 #@! TA.AperFunction,ComponentPad*
%ADD18R,1.727200X1.727200*%
G04 #@! TD*
G04 #@! TA.AperFunction,ComponentPad*
%ADD19RoundRect,0.250000X0.750000X-0.600000X0.750000X0.600000X-0.750000X0.600000X-0.750000X-0.600000X0*%
G04 #@! TD*
G04 #@! TA.AperFunction,ComponentPad*
%ADD20O,2.000000X1.700000*%
G04 #@! TD*
G04 #@! TA.AperFunction,ComponentPad*
%ADD21RoundRect,0.250000X0.725000X-0.600000X0.725000X0.600000X-0.725000X0.600000X-0.725000X-0.600000X0*%
G04 #@! TD*
G04 #@! TA.AperFunction,ComponentPad*
%ADD22R,2.400000X1.600000*%
G04 #@! TD*
G04 #@! TA.AperFunction,ComponentPad*
%ADD23O,2.400000X1.600000*%
G04 #@! TD*
G04 #@! TA.AperFunction,ViaPad*
%ADD24C,1.000000*%
G04 #@! TD*
G04 #@! TA.AperFunction,Conductor*
%ADD25C,0.500000*%
G04 #@! TD*
G04 #@! TA.AperFunction,Conductor*
%ADD26C,1.000000*%
G04 #@! TD*
G04 #@! TA.AperFunction,Conductor*
%ADD27C,1.500000*%
G04 #@! TD*
G04 APERTURE END LIST*
D10*
X126685000Y-102630000D03*
D11*
X134935000Y-102630000D03*
D12*
X158750000Y-72390000D03*
X161875000Y-72390000D03*
D13*
X116840000Y-50860000D03*
D14*
X116840000Y-53360000D03*
X116840000Y-55860000D03*
X116840000Y-58360000D03*
D15*
X143510000Y-72390000D03*
D16*
X143510000Y-74930000D03*
X143510000Y-77470000D03*
X143510000Y-80010000D03*
X143510000Y-82550000D03*
X143510000Y-85090000D03*
X143510000Y-87630000D03*
X143510000Y-90170000D03*
X156210000Y-90170000D03*
X156210000Y-87630000D03*
X156210000Y-85090000D03*
X156210000Y-82550000D03*
X156210000Y-80010000D03*
X156210000Y-77470000D03*
X156210000Y-74930000D03*
X156210000Y-72390000D03*
D17*
X138430000Y-85090000D03*
X138430000Y-59690000D03*
X138430000Y-80010000D03*
X138430000Y-77470000D03*
X138430000Y-74930000D03*
X138430000Y-72390000D03*
X138430000Y-69850000D03*
X138430000Y-67310000D03*
X138430000Y-64770000D03*
X138430000Y-62230000D03*
X138430000Y-82550000D03*
X138430000Y-57150000D03*
X123190000Y-54610000D03*
X123190000Y-52070000D03*
X123190000Y-62230000D03*
X123190000Y-64770000D03*
X123190000Y-67310000D03*
X123190000Y-69850000D03*
X123190000Y-72390000D03*
X123190000Y-74930000D03*
X123190000Y-77470000D03*
X123190000Y-80010000D03*
X123190000Y-82550000D03*
X123190000Y-85090000D03*
X123190000Y-87630000D03*
X138430000Y-87630000D03*
D18*
X123190000Y-59690000D03*
X138430000Y-54610000D03*
D17*
X123190000Y-57150000D03*
X138430000Y-52070000D03*
D13*
X116840000Y-97890000D03*
D14*
X116840000Y-100390000D03*
X116840000Y-102890000D03*
X116840000Y-105390000D03*
X116840000Y-107890000D03*
X116840000Y-110390000D03*
D12*
X158750000Y-49530000D03*
X161875000Y-49530000D03*
D13*
X116840000Y-83880000D03*
D14*
X116840000Y-86380000D03*
X116840000Y-88880000D03*
X116840000Y-91380000D03*
D19*
X162560000Y-100310000D03*
D20*
X162560000Y-97810000D03*
D21*
X162560000Y-62170000D03*
D14*
X162560000Y-59670000D03*
X162560000Y-57170000D03*
X162560000Y-54670000D03*
D21*
X162560000Y-85030000D03*
D14*
X162560000Y-82530000D03*
X162560000Y-80030000D03*
X162560000Y-77530000D03*
D22*
X156210000Y-102870000D03*
D23*
X156210000Y-100330000D03*
X156210000Y-97790000D03*
X156210000Y-95250000D03*
X148590000Y-95250000D03*
X148590000Y-97790000D03*
X148590000Y-100330000D03*
X148590000Y-102870000D03*
D15*
X143510000Y-49530000D03*
D16*
X143510000Y-52070000D03*
X143510000Y-54610000D03*
X143510000Y-57150000D03*
X143510000Y-59690000D03*
X143510000Y-62230000D03*
X143510000Y-64770000D03*
X143510000Y-67310000D03*
X156210000Y-67310000D03*
X156210000Y-64770000D03*
X156210000Y-62230000D03*
X156210000Y-59690000D03*
X156210000Y-57150000D03*
X156210000Y-54610000D03*
X156210000Y-52070000D03*
X156210000Y-49530000D03*
D13*
X116840000Y-64870000D03*
D14*
X116840000Y-67370000D03*
X116840000Y-69870000D03*
X116840000Y-72370000D03*
X116840000Y-74870000D03*
X116840000Y-77370000D03*
D24*
X149860000Y-113030000D03*
X142240000Y-101600000D03*
X127000000Y-88900000D03*
X142240000Y-96520000D03*
X127000000Y-48260000D03*
X127000000Y-113030000D03*
X165100000Y-87630000D03*
X165100000Y-71120000D03*
X114300000Y-48260000D03*
X165100000Y-95250000D03*
X149860000Y-92710000D03*
X157480000Y-113030000D03*
X149860000Y-48260000D03*
X114300000Y-62230000D03*
X165100000Y-48260000D03*
X115570000Y-81280000D03*
X149860000Y-69850000D03*
X154940000Y-69850000D03*
X115570000Y-95250000D03*
X140970000Y-62230000D03*
X165100000Y-113030000D03*
X134620000Y-113030000D03*
X134620000Y-59690000D03*
X154940000Y-92710000D03*
X119380000Y-113030000D03*
X134620000Y-48260000D03*
X119380000Y-64770000D03*
X134620000Y-96520000D03*
X134620000Y-88900000D03*
X165100000Y-64770000D03*
X142240000Y-113030000D03*
X165100000Y-102870000D03*
X127000000Y-81280000D03*
X127000000Y-59690000D03*
D25*
X138430000Y-85090000D02*
X135890000Y-87630000D01*
X145415000Y-90805000D02*
X145415000Y-86995000D01*
X137795000Y-92075000D02*
X144145000Y-92075000D01*
X135890000Y-87630000D02*
X135890000Y-90170000D01*
X144145000Y-92075000D02*
X145415000Y-90805000D01*
X145415000Y-86995000D02*
X143510000Y-85090000D01*
X135890000Y-90170000D02*
X137795000Y-92075000D01*
X123190000Y-82550000D02*
X140970000Y-100330000D01*
X140970000Y-100330000D02*
X148590000Y-100330000D01*
X140970000Y-97790000D02*
X148590000Y-97790000D01*
X123190000Y-80010000D02*
X140970000Y-97790000D01*
X121920000Y-62230000D02*
X123190000Y-62230000D01*
X120650000Y-59670000D02*
X120650000Y-60960000D01*
X116840000Y-55860000D02*
X120650000Y-59670000D01*
X120650000Y-60960000D02*
X121920000Y-62230000D01*
X116840000Y-67370000D02*
X120590000Y-67370000D01*
X120590000Y-67370000D02*
X123190000Y-64770000D01*
X116840000Y-88880000D02*
X119400000Y-88880000D01*
X119400000Y-88880000D02*
X123190000Y-85090000D01*
X120650000Y-90170000D02*
X123190000Y-87630000D01*
X116840000Y-100390000D02*
X117811258Y-100390000D01*
X117811258Y-100390000D02*
X120650000Y-97551258D01*
X120650000Y-97551258D02*
X120650000Y-90170000D01*
X138430000Y-64770000D02*
X143510000Y-64770000D01*
X138430000Y-67310000D02*
X143510000Y-67310000D01*
X143510000Y-87630000D02*
X141605000Y-85725000D01*
X141605000Y-78105000D02*
X138430000Y-74930000D01*
X141605000Y-85725000D02*
X141605000Y-78105000D01*
X140043600Y-79083600D02*
X138430000Y-77470000D01*
X140043600Y-86703600D02*
X140043600Y-79083600D01*
X143510000Y-90170000D02*
X140043600Y-86703600D01*
D26*
X161875000Y-73740000D02*
X161875000Y-72390000D01*
X156210000Y-74930000D02*
X160685000Y-74930000D01*
X160685000Y-52070000D02*
X161875000Y-50880000D01*
X156210000Y-52070000D02*
X160685000Y-52070000D01*
X160685000Y-74930000D02*
X161875000Y-73740000D01*
X161875000Y-50880000D02*
X161875000Y-49530000D01*
D27*
X154940000Y-49530000D02*
X156210000Y-49530000D01*
X152400000Y-72390000D02*
X152400000Y-52070000D01*
X154940000Y-99060000D02*
X156210000Y-97790000D01*
X150415000Y-106680000D02*
X152400000Y-104695000D01*
X152400000Y-104695000D02*
X152400000Y-99060000D01*
X152400000Y-99060000D02*
X154940000Y-99060000D01*
X156210000Y-72390000D02*
X158750000Y-72390000D01*
X154940000Y-99060000D02*
X156210000Y-100330000D01*
X152400000Y-99060000D02*
X152400000Y-72390000D01*
X156210000Y-72390000D02*
X152400000Y-72390000D01*
X138985000Y-106680000D02*
X150415000Y-106680000D01*
X156210000Y-49530000D02*
X158750000Y-49530000D01*
X152400000Y-52070000D02*
X154940000Y-49530000D01*
X134935000Y-102630000D02*
X138985000Y-106680000D01*
D25*
X156210000Y-62230000D02*
X162500000Y-62230000D01*
X162500000Y-62230000D02*
X162560000Y-62170000D01*
X156210000Y-59690000D02*
X162540000Y-59690000D01*
X162540000Y-59690000D02*
X162560000Y-59670000D01*
X156210000Y-57150000D02*
X162540000Y-57150000D01*
X162540000Y-57150000D02*
X162560000Y-57170000D01*
X156210000Y-54610000D02*
X162500000Y-54610000D01*
X162500000Y-54610000D02*
X162560000Y-54670000D01*
X156210000Y-85090000D02*
X162500000Y-85090000D01*
X162500000Y-85090000D02*
X162560000Y-85030000D01*
X162540000Y-82550000D02*
X162560000Y-82530000D01*
X156210000Y-82550000D02*
X162540000Y-82550000D01*
X156210000Y-80010000D02*
X162540000Y-80010000D01*
X162540000Y-80010000D02*
X162560000Y-80030000D01*
X162500000Y-77470000D02*
X162560000Y-77530000D01*
X156210000Y-77470000D02*
X162500000Y-77470000D01*
X156210000Y-102870000D02*
X160000000Y-102870000D01*
X160000000Y-102870000D02*
X162560000Y-100310000D01*
X160000000Y-95250000D02*
X156210000Y-95250000D01*
X162560000Y-97810000D02*
X160000000Y-95250000D01*
X147320000Y-50054670D02*
X145195330Y-47930000D01*
X138430000Y-72390000D02*
X143510000Y-77470000D01*
X140970000Y-52070000D02*
X143510000Y-54610000D01*
X143510000Y-77470000D02*
X147320000Y-73660000D01*
X145195330Y-47930000D02*
X141824670Y-47930000D01*
X147320000Y-73660000D02*
X147320000Y-50054670D01*
X140970000Y-48784670D02*
X140970000Y-52070000D01*
X141824670Y-47930000D02*
X140970000Y-48784670D01*
X142875000Y-74930000D02*
X141605000Y-73660000D01*
X143289340Y-69850000D02*
X138430000Y-69850000D01*
X143510000Y-74930000D02*
X142875000Y-74930000D01*
X145415000Y-53975000D02*
X145415000Y-67724340D01*
X145415000Y-67724340D02*
X143289340Y-69850000D01*
X141605000Y-73025000D02*
X138430000Y-69850000D01*
X141605000Y-73660000D02*
X141605000Y-73025000D01*
X143510000Y-52070000D02*
X145415000Y-53975000D01*
X114300000Y-107850000D02*
X116840000Y-110390000D01*
X123190000Y-77470000D02*
X116940000Y-77470000D01*
X116840000Y-77370000D02*
X114300000Y-79910000D01*
X116940000Y-77470000D02*
X116840000Y-77370000D01*
X114300000Y-79910000D02*
X114300000Y-107850000D01*
G04 #@! TA.AperFunction,Conductor*
G36*
X136429709Y-102147941D02*
G01*
X136434951Y-102153325D01*
X137267111Y-103897548D01*
X137267580Y-103906490D01*
X137264824Y-103910859D01*
X136215859Y-104959824D01*
X136207586Y-104963251D01*
X136202548Y-104962111D01*
X134458325Y-104129951D01*
X134452334Y-104123295D01*
X134452234Y-104115782D01*
X134520106Y-103906490D01*
X134932452Y-102634969D01*
X134938262Y-102628158D01*
X134939963Y-102627454D01*
X136420782Y-102147234D01*
X136429709Y-102147941D01*
G37*
G04 #@! TD.AperFunction*
G04 #@! TA.AperFunction,Conductor*
G36*
X139226216Y-74603901D02*
G01*
X139232449Y-74610024D01*
X139722414Y-75732450D01*
X139824899Y-75967224D01*
X139825068Y-75976177D01*
X139822449Y-75980178D01*
X139480178Y-76322449D01*
X139471905Y-76325876D01*
X139467225Y-76324899D01*
X138110024Y-75732449D01*
X138103814Y-75725999D01*
X138103891Y-75717262D01*
X138427438Y-74933783D01*
X138433759Y-74927448D01*
X139217262Y-74603892D01*
X139226216Y-74603901D01*
G37*
G04 #@! TD.AperFunction*
G04 #@! TA.AperFunction,Conductor*
G36*
X162109362Y-56388497D02*
G01*
X162114673Y-56393322D01*
X162557649Y-57164170D01*
X162558800Y-57173051D01*
X162557649Y-57175830D01*
X162114801Y-57946453D01*
X162107708Y-57951918D01*
X162100264Y-57951467D01*
X160746285Y-57402960D01*
X160739904Y-57396678D01*
X160738978Y-57392116D01*
X160738978Y-56908101D01*
X160742405Y-56899828D01*
X160746559Y-56897149D01*
X162100413Y-56388200D01*
X162109362Y-56388497D01*
G37*
G04 #@! TD.AperFunction*
G04 #@! TA.AperFunction,Conductor*
G36*
X162109496Y-76748408D02*
G01*
X162114553Y-76753114D01*
X162557649Y-77524170D01*
X162558800Y-77533051D01*
X162557649Y-77535830D01*
X162114941Y-78306210D01*
X162107848Y-78311675D01*
X162100113Y-78311102D01*
X160753951Y-77723064D01*
X160747742Y-77716612D01*
X160746935Y-77712342D01*
X160746935Y-77228310D01*
X160750362Y-77220037D01*
X160754781Y-77217263D01*
X162100557Y-76747897D01*
X162109496Y-76748408D01*
G37*
G04 #@! TD.AperFunction*
G04 #@! TA.AperFunction,Conductor*
G36*
X117299654Y-88098351D02*
G01*
X118657545Y-88627097D01*
X118664011Y-88633293D01*
X118665000Y-88638000D01*
X118665000Y-89121999D01*
X118661573Y-89130272D01*
X118657545Y-89132902D01*
X117299656Y-89661647D01*
X117290704Y-89661455D01*
X117285268Y-89656575D01*
X116842349Y-88885829D01*
X116841199Y-88876949D01*
X116842350Y-88874170D01*
X116980773Y-88633293D01*
X117285269Y-88103423D01*
X117292360Y-88097960D01*
X117299654Y-88098351D01*
G37*
G04 #@! TD.AperFunction*
G04 #@! TA.AperFunction,Conductor*
G36*
X122857791Y-76676494D02*
G01*
X122863915Y-76682728D01*
X123189134Y-77465511D01*
X123189143Y-77474466D01*
X123189134Y-77474489D01*
X122863915Y-78257271D01*
X122857576Y-78263596D01*
X122848838Y-78263674D01*
X121470228Y-77722913D01*
X121463777Y-77716702D01*
X121462800Y-77712021D01*
X121462800Y-77227978D01*
X121466227Y-77219705D01*
X121470226Y-77217086D01*
X122848840Y-76676325D01*
X122857791Y-76676494D01*
G37*
G04 #@! TD.AperFunction*
G04 #@! TA.AperFunction,Conductor*
G36*
X140149772Y-64517086D02*
G01*
X140156223Y-64523297D01*
X140157200Y-64527978D01*
X140157200Y-65012021D01*
X140153773Y-65020294D01*
X140149772Y-65022913D01*
X138771161Y-65563674D01*
X138762208Y-65563505D01*
X138756085Y-65557272D01*
X138430864Y-64774488D01*
X138430856Y-64765534D01*
X138430865Y-64765511D01*
X138529552Y-64527978D01*
X138756086Y-63982725D01*
X138762423Y-63976403D01*
X138771159Y-63976325D01*
X140149772Y-64517086D01*
G37*
G04 #@! TD.AperFunction*
G04 #@! TA.AperFunction,Conductor*
G36*
X157902545Y-84837097D02*
G01*
X157909011Y-84843293D01*
X157910000Y-84848000D01*
X157910000Y-85331999D01*
X157906573Y-85340272D01*
X157902545Y-85342902D01*
X156545941Y-85871146D01*
X156536989Y-85870954D01*
X156530891Y-85864732D01*
X156210865Y-85094489D01*
X156210856Y-85085534D01*
X156210865Y-85085511D01*
X156309548Y-84848000D01*
X156530891Y-84315266D01*
X156537230Y-84308942D01*
X156545941Y-84308853D01*
X157902545Y-84837097D01*
G37*
G04 #@! TD.AperFunction*
G04 #@! TA.AperFunction,Conductor*
G36*
X157416524Y-102074485D02*
G01*
X158204928Y-102616513D01*
X158209804Y-102624024D01*
X158210000Y-102626154D01*
X158210000Y-103113846D01*
X158206573Y-103122119D01*
X158204928Y-103123487D01*
X157416524Y-103665514D01*
X157407766Y-103667377D01*
X157403410Y-103665610D01*
X156589547Y-103123487D01*
X156223616Y-102879736D01*
X156218631Y-102872299D01*
X156220366Y-102863514D01*
X156223615Y-102860264D01*
X157403411Y-102074388D01*
X157412195Y-102072654D01*
X157416524Y-102074485D01*
G37*
G04 #@! TD.AperFunction*
G04 #@! TA.AperFunction,Conductor*
G36*
X140149772Y-69597086D02*
G01*
X140156223Y-69603297D01*
X140157200Y-69607978D01*
X140157200Y-70092021D01*
X140153773Y-70100294D01*
X140149772Y-70102913D01*
X138771161Y-70643674D01*
X138762208Y-70643505D01*
X138756085Y-70637272D01*
X138430864Y-69854488D01*
X138430856Y-69845534D01*
X138430865Y-69845511D01*
X138529552Y-69607978D01*
X138756086Y-69062725D01*
X138762423Y-69056403D01*
X138771159Y-69056325D01*
X140149772Y-69597086D01*
G37*
G04 #@! TD.AperFunction*
G04 #@! TA.AperFunction,Conductor*
G36*
X142492016Y-53234359D02*
G01*
X142497565Y-53236798D01*
X143824807Y-53820099D01*
X143831003Y-53826565D01*
X143830914Y-53835276D01*
X143512562Y-54606214D01*
X143506237Y-54612553D01*
X143506214Y-54612562D01*
X142735276Y-54930914D01*
X142726321Y-54930905D01*
X142720099Y-54924807D01*
X142134360Y-53592018D01*
X142134168Y-53583066D01*
X142136796Y-53579040D01*
X142479039Y-53236797D01*
X142487311Y-53233371D01*
X142492016Y-53234359D01*
G37*
G04 #@! TD.AperFunction*
G04 #@! TA.AperFunction,Conductor*
G36*
X123986216Y-79683901D02*
G01*
X123992449Y-79690024D01*
X124482414Y-80812450D01*
X124584899Y-81047224D01*
X124585068Y-81056177D01*
X124582449Y-81060178D01*
X124240178Y-81402449D01*
X124231905Y-81405876D01*
X124227225Y-81404899D01*
X122870024Y-80812449D01*
X122863814Y-80805999D01*
X122863891Y-80797262D01*
X123187438Y-80013783D01*
X123193759Y-80007448D01*
X123977262Y-79683892D01*
X123986216Y-79683901D01*
G37*
G04 #@! TD.AperFunction*
G04 #@! TA.AperFunction,Conductor*
G36*
X115771904Y-108964189D02*
G01*
X117236932Y-109591446D01*
X117243188Y-109597852D01*
X117243082Y-109606806D01*
X117242735Y-109607544D01*
X116842960Y-110386317D01*
X116836133Y-110392112D01*
X116835991Y-110392157D01*
X115931906Y-110670228D01*
X115922991Y-110669385D01*
X115917513Y-110663158D01*
X115815722Y-110392112D01*
X115413723Y-109321680D01*
X115414022Y-109312734D01*
X115416400Y-109309300D01*
X115759028Y-108966672D01*
X115767300Y-108963246D01*
X115771904Y-108964189D01*
G37*
G04 #@! TD.AperFunction*
G04 #@! TA.AperFunction,Conductor*
G36*
X144540961Y-76096798D02*
G01*
X144883201Y-76439038D01*
X144886628Y-76447311D01*
X144885639Y-76452018D01*
X144299900Y-77784807D01*
X144293434Y-77791003D01*
X144284723Y-77790914D01*
X143513785Y-77472562D01*
X143507447Y-77466238D01*
X143189085Y-76695274D01*
X143189094Y-76686321D01*
X143195191Y-76680099D01*
X144527982Y-76094359D01*
X144536933Y-76094168D01*
X144540961Y-76096798D01*
G37*
G04 #@! TD.AperFunction*
G04 #@! TA.AperFunction,Conductor*
G36*
X141140986Y-47390407D02*
G01*
X141176950Y-47439907D01*
X141176950Y-47501093D01*
X141152798Y-47540504D01*
X140483068Y-48210231D01*
X140472188Y-48219634D01*
X140451471Y-48235058D01*
X140451469Y-48235060D01*
X140417537Y-48275496D01*
X140414628Y-48278672D01*
X140408414Y-48284888D01*
X140408405Y-48284897D01*
X140388059Y-48310629D01*
X140338698Y-48369455D01*
X140338697Y-48369457D01*
X140338269Y-48370310D01*
X140327481Y-48387244D01*
X140326888Y-48387993D01*
X140294424Y-48457612D01*
X140259960Y-48526235D01*
X140259959Y-48526237D01*
X140259744Y-48527148D01*
X140253143Y-48546139D01*
X140252744Y-48546993D01*
X140252740Y-48547005D01*
X140245003Y-48584478D01*
X140237207Y-48622235D01*
X140223399Y-48680500D01*
X140219500Y-48696950D01*
X140219500Y-48697879D01*
X140217455Y-48717896D01*
X140217265Y-48718812D01*
X140219500Y-48795586D01*
X140219500Y-52008115D01*
X140218455Y-52022461D01*
X140217658Y-52027902D01*
X140214711Y-52048023D01*
X140219312Y-52100624D01*
X140219500Y-52104923D01*
X140219500Y-52113707D01*
X140223306Y-52146275D01*
X140230000Y-52222796D01*
X140230299Y-52223697D01*
X140234649Y-52243316D01*
X140234758Y-52244253D01*
X140261025Y-52316423D01*
X140285186Y-52389335D01*
X140285682Y-52390139D01*
X140294437Y-52408222D01*
X140294763Y-52409117D01*
X140336965Y-52473283D01*
X140377288Y-52538656D01*
X140377293Y-52538661D01*
X140377957Y-52539326D01*
X140390654Y-52554913D01*
X140391167Y-52555693D01*
X140447018Y-52608386D01*
X141687871Y-53849238D01*
X141708500Y-53879410D01*
X141936631Y-54398498D01*
X142219330Y-55041752D01*
X142257327Y-55128209D01*
X142271539Y-55156751D01*
X142278893Y-55171520D01*
X142278895Y-55171522D01*
X142278897Y-55171526D01*
X142279642Y-55172501D01*
X142290707Y-55190776D01*
X142335959Y-55287819D01*
X142335963Y-55287827D01*
X142450019Y-55450717D01*
X142471505Y-55481401D01*
X142638599Y-55648495D01*
X142832170Y-55784035D01*
X142845552Y-55790275D01*
X142890300Y-55832003D01*
X142901975Y-55892064D01*
X142876117Y-55947517D01*
X142845554Y-55969724D01*
X142832173Y-55975963D01*
X142638603Y-56111501D01*
X142471501Y-56278603D01*
X142335963Y-56472173D01*
X142335959Y-56472181D01*
X142236098Y-56686332D01*
X142174935Y-56914599D01*
X142154341Y-57149995D01*
X142154341Y-57150004D01*
X142174935Y-57385400D01*
X142174936Y-57385407D01*
X142174937Y-57385408D01*
X142236097Y-57613663D01*
X142335965Y-57827830D01*
X142383934Y-57896337D01*
X142450019Y-57990717D01*
X142471505Y-58021401D01*
X142638599Y-58188495D01*
X142832170Y-58324035D01*
X142841192Y-58328242D01*
X142845552Y-58330275D01*
X142890300Y-58372003D01*
X142901975Y-58432064D01*
X142876117Y-58487517D01*
X142845554Y-58509724D01*
X142832173Y-58515963D01*
X142638603Y-58651501D01*
X142471501Y-58818603D01*
X142335963Y-59012173D01*
X142335959Y-59012181D01*
X142236098Y-59226332D01*
X142174935Y-59454599D01*
X142154341Y-59689995D01*
X142154341Y-59690004D01*
X142174935Y-59925400D01*
X142174936Y-59925407D01*
X142174937Y-59925408D01*
X142236097Y-60153663D01*
X142335965Y-60367830D01*
X142386849Y-60440500D01*
X142457500Y-60541401D01*
X142471505Y-60561401D01*
X142638599Y-60728495D01*
X142832170Y-60864035D01*
X142845552Y-60870275D01*
X142890300Y-60912003D01*
X142901975Y-60972064D01*
X142876117Y-61027517D01*
X142845554Y-61049724D01*
X142832173Y-61055963D01*
X142638603Y-61191501D01*
X142471501Y-61358603D01*
X142335963Y-61552173D01*
X142335959Y-61552181D01*
X142236098Y-61766332D01*
X142174935Y-61994599D01*
X142154341Y-62229995D01*
X142154341Y-62230004D01*
X142174935Y-62465400D01*
X142174936Y-62465407D01*
X142174937Y-62465408D01*
X142236097Y-62693663D01*
X142335965Y-62907830D01*
X142363572Y-62947257D01*
X142463055Y-63089334D01*
X142471505Y-63101401D01*
X142638599Y-63268495D01*
X142832170Y-63404035D01*
X142832177Y-63404038D01*
X142835039Y-63405691D01*
X142875978Y-63451162D01*
X142882372Y-63512012D01*
X142851777Y-63565000D01*
X142821458Y-63583679D01*
X141719540Y-64012753D01*
X141683618Y-64019500D01*
X140284265Y-64019500D01*
X140248114Y-64012663D01*
X139144253Y-63579673D01*
X139096985Y-63540823D01*
X139081580Y-63481608D01*
X139103923Y-63424648D01*
X139133286Y-63400442D01*
X139178649Y-63375893D01*
X139357046Y-63237040D01*
X139510156Y-63070719D01*
X139633802Y-62881465D01*
X139724611Y-62674441D01*
X139780107Y-62455293D01*
X139798775Y-62230000D01*
X139780107Y-62004707D01*
X139724611Y-61785559D01*
X139633802Y-61578535D01*
X139564691Y-61472753D01*
X139510157Y-61389282D01*
X139357048Y-61222962D01*
X139357042Y-61222957D01*
X139353299Y-61220044D01*
X139311943Y-61187855D01*
X139178652Y-61084109D01*
X139178649Y-61084107D01*
X139139528Y-61062936D01*
X139110204Y-61047066D01*
X139068028Y-61002744D01*
X139059958Y-60942093D01*
X139089079Y-60888282D01*
X139110203Y-60872934D01*
X139178649Y-60835893D01*
X139357046Y-60697040D01*
X139510156Y-60530719D01*
X139633802Y-60341465D01*
X139724611Y-60134441D01*
X139780107Y-59915293D01*
X139798775Y-59690000D01*
X139780107Y-59464707D01*
X139724611Y-59245559D01*
X139633802Y-59038535D01*
X139633799Y-59038530D01*
X139510157Y-58849282D01*
X139357048Y-58682962D01*
X139357042Y-58682957D01*
X139178652Y-58544109D01*
X139178649Y-58544107D01*
X139132327Y-58519039D01*
X139110204Y-58507066D01*
X139068028Y-58462744D01*
X139059958Y-58402093D01*
X139089079Y-58348282D01*
X139110203Y-58332934D01*
X139178649Y-58295893D01*
X139357046Y-58157040D01*
X139510156Y-57990719D01*
X139633802Y-57801465D01*
X139724611Y-57594441D01*
X139780107Y-57375293D01*
X139798775Y-57150000D01*
X139780107Y-56924707D01*
X139724611Y-56705559D01*
X139633802Y-56498535D01*
X139629651Y-56492181D01*
X139510157Y-56309282D01*
X139357048Y-56142962D01*
X139354029Y-56140183D01*
X139354709Y-56139443D01*
X139322836Y-56092370D01*
X139324862Y-56031218D01*
X139362446Y-55982936D01*
X139395190Y-55968564D01*
X139400982Y-55967195D01*
X139535688Y-55916953D01*
X139535690Y-55916952D01*
X139650784Y-55830792D01*
X139650792Y-55830784D01*
X139736952Y-55715690D01*
X139736953Y-55715688D01*
X139787196Y-55580981D01*
X139787198Y-55580970D01*
X139793600Y-55521424D01*
X139793600Y-54860001D01*
X139793599Y-54860000D01*
X138873196Y-54860000D01*
X138896845Y-54823201D01*
X138938000Y-54683039D01*
X138938000Y-54536961D01*
X138896845Y-54396799D01*
X138873196Y-54360000D01*
X139793599Y-54360000D01*
X139793600Y-54359999D01*
X139793600Y-53698575D01*
X139787198Y-53639029D01*
X139787196Y-53639018D01*
X139736953Y-53504311D01*
X139736952Y-53504309D01*
X139650792Y-53389215D01*
X139650784Y-53389207D01*
X139535690Y-53303047D01*
X139535688Y-53303046D01*
X139400978Y-53252802D01*
X139395182Y-53251433D01*
X139342900Y-53219649D01*
X139319285Y-53163204D01*
X139333358Y-53103659D01*
X139354321Y-53080134D01*
X139354029Y-53079817D01*
X139357043Y-53077042D01*
X139357046Y-53077040D01*
X139510156Y-52910719D01*
X139633802Y-52721465D01*
X139724611Y-52514441D01*
X139780107Y-52295293D01*
X139798775Y-52070000D01*
X139780107Y-51844707D01*
X139724611Y-51625559D01*
X139633802Y-51418535D01*
X139616578Y-51392171D01*
X139510157Y-51229282D01*
X139357048Y-51062962D01*
X139357042Y-51062957D01*
X139178652Y-50924109D01*
X139178649Y-50924107D01*
X138979834Y-50816513D01*
X138907570Y-50791705D01*
X138876610Y-50781076D01*
X138827712Y-50744300D01*
X138809770Y-50685804D01*
X138829636Y-50627934D01*
X138864624Y-50598822D01*
X139038255Y-50512366D01*
X139208407Y-50383872D01*
X139352052Y-50226302D01*
X139464298Y-50045019D01*
X139541321Y-49846198D01*
X139580500Y-49636610D01*
X139580500Y-49423390D01*
X139541321Y-49213802D01*
X139464298Y-49014981D01*
X139390346Y-48895545D01*
X139352053Y-48833699D01*
X139352047Y-48833692D01*
X139227388Y-48696949D01*
X139208407Y-48676128D01*
X139038255Y-48547634D01*
X138847389Y-48452595D01*
X138642310Y-48394244D01*
X138642312Y-48394244D01*
X138483196Y-48379500D01*
X138483194Y-48379500D01*
X138376806Y-48379500D01*
X138376803Y-48379500D01*
X138217688Y-48394244D01*
X138063931Y-48437993D01*
X138012611Y-48452595D01*
X138012610Y-48452595D01*
X138012608Y-48452596D01*
X137821752Y-48547630D01*
X137821743Y-48547635D01*
X137722958Y-48622235D01*
X137651593Y-48676128D01*
X137651589Y-48676131D01*
X137651586Y-48676135D01*
X137507952Y-48833692D01*
X137507946Y-48833699D01*
X137395705Y-49014975D01*
X137395702Y-49014980D01*
X137318678Y-49213804D01*
X137279500Y-49423390D01*
X137279500Y-49636609D01*
X137306304Y-49780001D01*
X137318679Y-49846198D01*
X137340248Y-49901875D01*
X137395702Y-50045019D01*
X137395705Y-50045024D01*
X137507946Y-50226300D01*
X137507952Y-50226307D01*
X137602139Y-50329623D01*
X137651593Y-50383872D01*
X137821745Y-50512366D01*
X137821751Y-50512369D01*
X137821756Y-50512372D01*
X137995370Y-50598820D01*
X138039033Y-50641682D01*
X138049163Y-50702023D01*
X138021891Y-50756794D01*
X137983388Y-50781077D01*
X137880165Y-50816513D01*
X137681350Y-50924107D01*
X137681347Y-50924109D01*
X137502957Y-51062957D01*
X137502951Y-51062962D01*
X137349842Y-51229282D01*
X137226200Y-51418530D01*
X137226197Y-51418535D01*
X137135389Y-51625558D01*
X137079892Y-51844708D01*
X137061225Y-52070000D01*
X137079892Y-52295291D01*
X137135389Y-52514441D01*
X137226197Y-52721464D01*
X137226200Y-52721469D01*
X137349842Y-52910717D01*
X137502951Y-53077037D01*
X137505971Y-53079817D01*
X137505289Y-53080557D01*
X137537162Y-53127625D01*
X137535138Y-53188777D01*
X137497557Y-53237060D01*
X137464819Y-53251432D01*
X137459026Y-53252801D01*
X137324311Y-53303046D01*
X137324309Y-53303047D01*
X137209215Y-53389207D01*
X137209207Y-53389215D01*
X137123047Y-53504309D01*
X137123046Y-53504311D01*
X137072803Y-53639018D01*
X137072801Y-53639029D01*
X137066400Y-53698575D01*
X137066400Y-54359999D01*
X137066401Y-54360000D01*
X137986804Y-54360000D01*
X137963155Y-54396799D01*
X137922000Y-54536961D01*
X137922000Y-54683039D01*
X137963155Y-54823201D01*
X137986804Y-54860000D01*
X137066401Y-54860000D01*
X137066400Y-54860001D01*
X137066400Y-55521424D01*
X137066399Y-55521424D01*
X137072801Y-55580970D01*
X137072803Y-55580981D01*
X137123046Y-55715688D01*
X137123047Y-55715690D01*
X137209207Y-55830784D01*
X137209215Y-55830792D01*
X137324309Y-55916952D01*
X137324311Y-55916953D01*
X137459021Y-55967197D01*
X137464811Y-55968565D01*
X137517095Y-56000346D01*
X137540713Y-56056789D01*
X137526644Y-56116335D01*
X137505681Y-56139868D01*
X137505971Y-56140183D01*
X137502951Y-56142962D01*
X137349842Y-56309282D01*
X137226200Y-56498530D01*
X137226197Y-56498535D01*
X137135389Y-56705558D01*
X137079892Y-56924708D01*
X137061225Y-57150000D01*
X137079892Y-57375291D01*
X137135389Y-57594441D01*
X137226197Y-57801464D01*
X137226200Y-57801469D01*
X137349842Y-57990717D01*
X137401306Y-58046622D01*
X137502954Y-58157040D01*
X137681351Y-58295893D01*
X137733353Y-58324035D01*
X137749793Y-58332932D01*
X137791971Y-58377257D01*
X137800041Y-58437907D01*
X137770920Y-58491718D01*
X137749793Y-58507068D01*
X137681350Y-58544107D01*
X137681347Y-58544109D01*
X137502957Y-58682957D01*
X137502951Y-58682962D01*
X137349842Y-58849282D01*
X137226200Y-59038530D01*
X137226197Y-59038535D01*
X137135389Y-59245558D01*
X137079892Y-59464708D01*
X137061225Y-59690000D01*
X137079892Y-59915291D01*
X137135389Y-60134441D01*
X137226197Y-60341464D01*
X137226200Y-60341469D01*
X137349842Y-60530717D01*
X137435357Y-60623611D01*
X137502954Y-60697040D01*
X137681351Y-60835893D01*
X137733353Y-60864035D01*
X137749793Y-60872932D01*
X137791971Y-60917257D01*
X137800041Y-60977907D01*
X137770920Y-61031718D01*
X137749793Y-61047068D01*
X137681350Y-61084107D01*
X137681347Y-61084109D01*
X137502957Y-61222957D01*
X137502951Y-61222962D01*
X137349842Y-61389282D01*
X137226200Y-61578530D01*
X137226197Y-61578535D01*
X137135389Y-61785558D01*
X137079892Y-62004708D01*
X137061225Y-62230000D01*
X137079892Y-62455291D01*
X137135389Y-62674441D01*
X137226197Y-62881464D01*
X137226200Y-62881469D01*
X137349842Y-63070717D01*
X137401306Y-63126622D01*
X137502954Y-63237040D01*
X137681351Y-63375893D01*
X137726714Y-63400442D01*
X137749793Y-63412932D01*
X137791971Y-63457257D01*
X137800041Y-63517907D01*
X137770920Y-63571718D01*
X137749793Y-63587068D01*
X137681350Y-63624107D01*
X137681347Y-63624109D01*
X137502957Y-63762957D01*
X137502951Y-63762962D01*
X137349842Y-63929282D01*
X137226200Y-64118530D01*
X137226197Y-64118535D01*
X137135389Y-64325558D01*
X137079892Y-64544708D01*
X137061225Y-64770000D01*
X137079892Y-64995291D01*
X137135389Y-65214441D01*
X137226197Y-65421464D01*
X137226200Y-65421469D01*
X137349842Y-65610717D01*
X137401306Y-65666622D01*
X137502954Y-65777040D01*
X137681351Y-65915893D01*
X137733353Y-65944035D01*
X137749793Y-65952932D01*
X137791971Y-65997257D01*
X137800041Y-66057907D01*
X137770920Y-66111718D01*
X137749793Y-66127068D01*
X137681350Y-66164107D01*
X137681347Y-66164109D01*
X137502957Y-66302957D01*
X137502951Y-66302962D01*
X137349842Y-66469282D01*
X137226200Y-66658530D01*
X137226197Y-66658535D01*
X137135389Y-66865558D01*
X137079892Y-67084708D01*
X137061225Y-67310000D01*
X137079892Y-67535291D01*
X137135389Y-67754441D01*
X137226197Y-67961464D01*
X137226200Y-67961469D01*
X137349842Y-68150717D01*
X137463286Y-68273950D01*
X137502954Y-68317040D01*
X137681351Y-68455893D01*
X137732549Y-68483600D01*
X137749793Y-68492932D01*
X137791971Y-68537257D01*
X137800041Y-68597907D01*
X137770920Y-68651718D01*
X137749793Y-68667068D01*
X137681350Y-68704107D01*
X137681347Y-68704109D01*
X137502957Y-68842957D01*
X137502951Y-68842962D01*
X137349842Y-69009282D01*
X137226200Y-69198530D01*
X137226197Y-69198535D01*
X137135389Y-69405558D01*
X137079892Y-69624708D01*
X137061225Y-69850000D01*
X137079892Y-70075291D01*
X137135389Y-70294441D01*
X137226197Y-70501464D01*
X137226200Y-70501469D01*
X137349842Y-70690717D01*
X137349844Y-70690719D01*
X137502954Y-70857040D01*
X137681351Y-70995893D01*
X137749792Y-71032931D01*
X137791971Y-71077255D01*
X137800041Y-71137905D01*
X137770921Y-71191717D01*
X137749794Y-71207066D01*
X137681355Y-71244104D01*
X137681347Y-71244109D01*
X137502957Y-71382957D01*
X137502951Y-71382962D01*
X137349842Y-71549282D01*
X137226200Y-71738530D01*
X137226197Y-71738535D01*
X137135389Y-71945558D01*
X137079892Y-72164708D01*
X137061225Y-72390000D01*
X137079892Y-72615291D01*
X137135389Y-72834441D01*
X137226197Y-73041464D01*
X137226200Y-73041469D01*
X137349842Y-73230717D01*
X137484391Y-73376876D01*
X137502954Y-73397040D01*
X137681351Y-73535893D01*
X137749792Y-73572931D01*
X137791971Y-73617255D01*
X137800041Y-73677905D01*
X137770921Y-73731717D01*
X137749794Y-73747066D01*
X137681355Y-73784104D01*
X137681347Y-73784109D01*
X137502957Y-73922957D01*
X137502951Y-73922962D01*
X137349842Y-74089282D01*
X137226200Y-74278530D01*
X137226197Y-74278535D01*
X137135389Y-74485558D01*
X137079892Y-74704708D01*
X137061225Y-74930000D01*
X137079892Y-75155291D01*
X137135389Y-75374441D01*
X137226197Y-75581464D01*
X137226200Y-75581469D01*
X137349842Y-75770717D01*
X137349844Y-75770719D01*
X137502954Y-75937040D01*
X137681351Y-76075893D01*
X137749792Y-76112931D01*
X137791971Y-76157255D01*
X137800041Y-76217905D01*
X137770921Y-76271717D01*
X137749794Y-76287066D01*
X137681355Y-76324104D01*
X137681347Y-76324109D01*
X137502957Y-76462957D01*
X137502951Y-76462962D01*
X137349842Y-76629282D01*
X137226200Y-76818530D01*
X137226197Y-76818535D01*
X137135389Y-77025558D01*
X137079892Y-77244708D01*
X137061225Y-77470000D01*
X137079892Y-77695291D01*
X137135389Y-77914441D01*
X137226197Y-78121464D01*
X137226200Y-78121469D01*
X137349842Y-78310717D01*
X137484391Y-78456876D01*
X137502954Y-78477040D01*
X137681351Y-78615893D01*
X137749792Y-78652931D01*
X137791971Y-78697255D01*
X137800041Y-78757905D01*
X137770921Y-78811717D01*
X137749794Y-78827066D01*
X137681355Y-78864104D01*
X137681347Y-78864109D01*
X137502957Y-79002957D01*
X137502951Y-79002962D01*
X137349842Y-79169282D01*
X137226200Y-79358530D01*
X137226197Y-79358535D01*
X137135389Y-79565558D01*
X137079892Y-79784708D01*
X137061225Y-80010000D01*
X137079892Y-80235291D01*
X137135389Y-80454441D01*
X137226197Y-80661464D01*
X137226200Y-80661469D01*
X137349842Y-80850717D01*
X137404644Y-80910248D01*
X137502954Y-81017040D01*
X137681351Y-81155893D01*
X137733353Y-81184035D01*
X137749793Y-81192932D01*
X137791971Y-81237257D01*
X137800041Y-81297907D01*
X137770920Y-81351718D01*
X137749793Y-81367068D01*
X137681350Y-81404107D01*
X137681347Y-81404109D01*
X137502957Y-81542957D01*
X137502951Y-81542962D01*
X137349842Y-81709282D01*
X137226200Y-81898530D01*
X137226197Y-81898535D01*
X137135389Y-82105558D01*
X137079892Y-82324708D01*
X137061225Y-82550000D01*
X137079892Y-82775291D01*
X137135389Y-82994441D01*
X137226197Y-83201464D01*
X137226200Y-83201469D01*
X137349842Y-83390717D01*
X137428622Y-83476295D01*
X137502954Y-83557040D01*
X137681351Y-83695893D01*
X137733353Y-83724035D01*
X137749793Y-83732932D01*
X137791971Y-83777257D01*
X137800041Y-83837907D01*
X137770920Y-83891718D01*
X137749793Y-83907068D01*
X137681350Y-83944107D01*
X137681347Y-83944109D01*
X137502957Y-84082957D01*
X137502951Y-84082962D01*
X137349842Y-84249282D01*
X137226200Y-84438530D01*
X137226192Y-84438545D01*
X137183631Y-84535576D01*
X137180383Y-84541756D01*
X137164264Y-84567791D01*
X136608879Y-85840083D01*
X136588151Y-85870480D01*
X135403069Y-87055561D01*
X135392188Y-87064964D01*
X135371471Y-87080388D01*
X135371469Y-87080390D01*
X135337537Y-87120826D01*
X135334628Y-87124002D01*
X135328414Y-87130218D01*
X135328405Y-87130227D01*
X135308059Y-87155959D01*
X135258698Y-87214785D01*
X135258697Y-87214787D01*
X135258269Y-87215640D01*
X135247481Y-87232574D01*
X135246888Y-87233323D01*
X135214424Y-87302942D01*
X135179960Y-87371565D01*
X135179959Y-87371567D01*
X135179744Y-87372478D01*
X135173143Y-87391469D01*
X135172744Y-87392323D01*
X135172740Y-87392335D01*
X135157207Y-87467565D01*
X135139500Y-87542280D01*
X135139500Y-87543209D01*
X135137455Y-87563226D01*
X135137265Y-87564142D01*
X135139500Y-87640916D01*
X135139500Y-90108115D01*
X135138455Y-90122461D01*
X135134711Y-90148023D01*
X135134711Y-90148026D01*
X135135856Y-90161113D01*
X135139312Y-90200624D01*
X135139500Y-90204923D01*
X135139500Y-90213707D01*
X135143306Y-90246275D01*
X135150000Y-90322796D01*
X135150299Y-90323697D01*
X135154649Y-90343316D01*
X135154758Y-90344253D01*
X135181025Y-90416423D01*
X135205186Y-90489335D01*
X135205682Y-90490139D01*
X135214437Y-90508222D01*
X135214763Y-90509117D01*
X135256965Y-90573283D01*
X135297288Y-90638656D01*
X135297293Y-90638661D01*
X135297957Y-90639326D01*
X135310654Y-90654913D01*
X135311167Y-90655693D01*
X135311169Y-90655695D01*
X135311170Y-90655696D01*
X135360431Y-90702171D01*
X135367017Y-90708385D01*
X137220562Y-92561930D01*
X137229968Y-92572815D01*
X137245390Y-92593530D01*
X137285823Y-92627457D01*
X137288999Y-92630368D01*
X137295222Y-92636590D01*
X137295223Y-92636591D01*
X137317118Y-92653903D01*
X137320959Y-92656940D01*
X137379781Y-92706299D01*
X137379784Y-92706300D01*
X137379786Y-92706302D01*
X137380620Y-92706720D01*
X137397594Y-92717535D01*
X137398321Y-92718110D01*
X137467942Y-92750575D01*
X137536558Y-92785036D01*
X137536560Y-92785036D01*
X137536567Y-92785040D01*
X137537468Y-92785253D01*
X137556477Y-92791861D01*
X137557038Y-92792122D01*
X137557327Y-92792257D01*
X137632565Y-92807792D01*
X137707278Y-92825500D01*
X137707279Y-92825500D01*
X137708209Y-92825500D01*
X137728228Y-92827544D01*
X137729144Y-92827734D01*
X137729144Y-92827733D01*
X137729145Y-92827734D01*
X137805917Y-92825500D01*
X144083116Y-92825500D01*
X144097463Y-92826545D01*
X144123023Y-92830289D01*
X144175624Y-92825687D01*
X144179923Y-92825500D01*
X144188701Y-92825500D01*
X144188709Y-92825500D01*
X144221275Y-92821693D01*
X144297789Y-92815000D01*
X144297789Y-92814999D01*
X144297797Y-92814999D01*
X144298687Y-92814703D01*
X144318332Y-92810348D01*
X144319255Y-92810241D01*
X144391423Y-92783974D01*
X144464334Y-92759814D01*
X144465117Y-92759330D01*
X144483245Y-92750554D01*
X144484117Y-92750237D01*
X144548283Y-92708034D01*
X144613656Y-92667712D01*
X144614308Y-92667058D01*
X144629929Y-92654333D01*
X144630696Y-92653830D01*
X144683386Y-92597981D01*
X145901933Y-91379432D01*
X145912812Y-91370033D01*
X145933530Y-91354610D01*
X145967469Y-91314161D01*
X145970370Y-91310995D01*
X145976590Y-91304777D01*
X145996927Y-91279055D01*
X146018093Y-91253831D01*
X146046298Y-91220219D01*
X146046298Y-91220218D01*
X146046302Y-91220214D01*
X146046716Y-91219389D01*
X146057537Y-91202401D01*
X146058111Y-91201677D01*
X146090569Y-91132069D01*
X146125040Y-91063433D01*
X146125252Y-91062537D01*
X146131866Y-91043507D01*
X146132256Y-91042673D01*
X146147784Y-90967467D01*
X146165500Y-90892721D01*
X146165500Y-90891786D01*
X146167546Y-90871765D01*
X146167733Y-90870857D01*
X146167600Y-90866302D01*
X146165500Y-90794102D01*
X146165500Y-87056884D01*
X146166545Y-87042537D01*
X146166584Y-87042266D01*
X146170289Y-87016977D01*
X146165687Y-86964376D01*
X146165500Y-86960075D01*
X146165500Y-86951298D01*
X146165500Y-86951291D01*
X146161693Y-86918724D01*
X146154999Y-86842203D01*
X146154704Y-86841315D01*
X146150349Y-86821672D01*
X146150241Y-86820745D01*
X146123974Y-86748576D01*
X146099814Y-86675666D01*
X146099327Y-86674876D01*
X146090554Y-86656754D01*
X146090237Y-86655883D01*
X146048028Y-86591708D01*
X146007712Y-86526345D01*
X146007045Y-86525678D01*
X145994335Y-86510072D01*
X145993830Y-86509304D01*
X145993829Y-86509303D01*
X145937964Y-86456597D01*
X145332126Y-85850759D01*
X145311497Y-85820587D01*
X145288311Y-85767830D01*
X144762680Y-84571808D01*
X144762679Y-84571806D01*
X144762672Y-84571790D01*
X144752095Y-84550549D01*
X144741106Y-84528479D01*
X144740358Y-84527500D01*
X144729293Y-84509227D01*
X144684035Y-84412171D01*
X144548495Y-84218599D01*
X144381401Y-84051505D01*
X144381397Y-84051502D01*
X144381396Y-84051501D01*
X144234002Y-83948295D01*
X144187830Y-83915965D01*
X144174447Y-83909724D01*
X144129700Y-83867997D01*
X144118025Y-83807936D01*
X144143883Y-83752483D01*
X144174448Y-83730275D01*
X144187830Y-83724035D01*
X144381401Y-83588495D01*
X144548495Y-83421401D01*
X144684035Y-83227830D01*
X144783903Y-83013663D01*
X144845063Y-82785408D01*
X144846814Y-82765400D01*
X144865659Y-82550004D01*
X144865659Y-82549995D01*
X144845064Y-82314599D01*
X144845063Y-82314596D01*
X144845063Y-82314592D01*
X144783903Y-82086337D01*
X144774577Y-82066337D01*
X144684040Y-81872181D01*
X144684036Y-81872173D01*
X144548498Y-81678603D01*
X144548497Y-81678602D01*
X144548495Y-81678599D01*
X144381401Y-81511505D01*
X144381397Y-81511502D01*
X144381396Y-81511501D01*
X144274007Y-81436307D01*
X144187830Y-81375965D01*
X144174447Y-81369724D01*
X144129700Y-81327997D01*
X144118025Y-81267936D01*
X144143883Y-81212483D01*
X144174448Y-81190275D01*
X144187830Y-81184035D01*
X144381401Y-81048495D01*
X144548495Y-80881401D01*
X144684035Y-80687830D01*
X144783903Y-80473663D01*
X144845063Y-80245408D01*
X144847210Y-80220867D01*
X144865659Y-80010004D01*
X144865659Y-80009995D01*
X144845064Y-79774599D01*
X144845063Y-79774596D01*
X144845063Y-79774592D01*
X144783903Y-79546337D01*
X144783901Y-79546332D01*
X144684040Y-79332181D01*
X144684036Y-79332173D01*
X144548498Y-79138603D01*
X144548497Y-79138602D01*
X144548495Y-79138599D01*
X144381401Y-78971505D01*
X144381397Y-78971502D01*
X144381396Y-78971501D01*
X144230019Y-78865506D01*
X144187830Y-78835965D01*
X144174447Y-78829724D01*
X144129700Y-78787997D01*
X144118025Y-78727936D01*
X144143883Y-78672483D01*
X144174448Y-78650275D01*
X144187830Y-78644035D01*
X144381401Y-78508495D01*
X144548495Y-78341401D01*
X144684035Y-78147830D01*
X144744678Y-78017778D01*
X144747509Y-78012556D01*
X144762680Y-77988191D01*
X145311498Y-76739408D01*
X145332122Y-76709243D01*
X147806933Y-74234432D01*
X147817812Y-74225033D01*
X147838530Y-74209610D01*
X147872469Y-74169161D01*
X147875370Y-74165995D01*
X147881591Y-74159776D01*
X147901930Y-74134052D01*
X147951302Y-74075214D01*
X147951716Y-74074389D01*
X147962537Y-74057401D01*
X147963111Y-74056677D01*
X147995572Y-73987063D01*
X148030040Y-73918433D01*
X148030252Y-73917535D01*
X148036865Y-73898512D01*
X148037257Y-73897672D01*
X148052790Y-73822441D01*
X148070500Y-73747721D01*
X148070500Y-73746790D01*
X148072545Y-73726770D01*
X148072734Y-73725853D01*
X148070500Y-73649082D01*
X148070500Y-50116554D01*
X148071545Y-50102207D01*
X148071584Y-50101936D01*
X148075289Y-50076647D01*
X148070687Y-50024049D01*
X148070500Y-50019749D01*
X148070500Y-50010968D01*
X148070500Y-50010961D01*
X148066691Y-49978375D01*
X148059998Y-49901873D01*
X148059705Y-49900991D01*
X148055349Y-49881336D01*
X148055242Y-49880420D01*
X148055241Y-49880418D01*
X148055241Y-49880415D01*
X148028969Y-49808233D01*
X148004814Y-49735336D01*
X148004324Y-49734541D01*
X147995557Y-49716433D01*
X147995237Y-49715553D01*
X147995235Y-49715551D01*
X147995235Y-49715549D01*
X147953034Y-49651386D01*
X147943919Y-49636609D01*
X147912712Y-49586014D01*
X147912043Y-49585345D01*
X147899337Y-49569746D01*
X147898830Y-49568974D01*
X147842982Y-49516284D01*
X145867202Y-47540504D01*
X145839425Y-47485987D01*
X145848996Y-47425555D01*
X145892261Y-47382290D01*
X145937206Y-47371500D01*
X165889500Y-47371500D01*
X165947691Y-47390407D01*
X165983655Y-47439907D01*
X165988500Y-47470500D01*
X165988500Y-113819500D01*
X165969593Y-113877691D01*
X165920093Y-113913655D01*
X165889500Y-113918500D01*
X113510500Y-113918500D01*
X113452309Y-113899593D01*
X113416345Y-113850093D01*
X113411500Y-113819500D01*
X113411500Y-108168151D01*
X113430407Y-108109960D01*
X113479907Y-108073996D01*
X113541093Y-108073996D01*
X113590593Y-108109960D01*
X113604475Y-108137011D01*
X113615185Y-108169334D01*
X113615682Y-108170139D01*
X113624437Y-108188222D01*
X113624763Y-108189117D01*
X113666965Y-108253283D01*
X113707288Y-108318656D01*
X113707293Y-108318661D01*
X113707957Y-108319326D01*
X113720654Y-108334913D01*
X113721167Y-108335693D01*
X113777018Y-108388386D01*
X114956898Y-109568266D01*
X114979574Y-109603464D01*
X115420353Y-110777158D01*
X115421827Y-110781752D01*
X115441093Y-110853653D01*
X115441099Y-110853668D01*
X115540959Y-111067818D01*
X115540963Y-111067826D01*
X115540964Y-111067828D01*
X115540965Y-111067829D01*
X115676505Y-111261401D01*
X115843599Y-111428495D01*
X116037171Y-111564035D01*
X116037172Y-111564035D01*
X116037173Y-111564036D01*
X116037181Y-111564040D01*
X116251333Y-111663901D01*
X116251337Y-111663903D01*
X116479592Y-111725063D01*
X116479596Y-111725063D01*
X116479599Y-111725064D01*
X116656028Y-111740500D01*
X116656034Y-111740500D01*
X117023972Y-111740500D01*
X117200400Y-111725064D01*
X117200401Y-111725063D01*
X117200408Y-111725063D01*
X117428663Y-111663903D01*
X117642829Y-111564035D01*
X117836401Y-111428495D01*
X118003495Y-111261401D01*
X118139035Y-111067830D01*
X118238903Y-110853663D01*
X118300063Y-110625408D01*
X118320659Y-110390000D01*
X118300063Y-110154592D01*
X118238903Y-109926337D01*
X118139035Y-109712171D01*
X118003495Y-109518599D01*
X117836401Y-109351505D01*
X117836397Y-109351502D01*
X117836396Y-109351501D01*
X117751918Y-109292350D01*
X117650155Y-109221094D01*
X117613334Y-109172232D01*
X117612266Y-109111056D01*
X117647360Y-109060935D01*
X117650133Y-109058920D01*
X117836401Y-108928495D01*
X118003495Y-108761401D01*
X118139035Y-108567830D01*
X118238903Y-108353663D01*
X118300063Y-108125408D01*
X118309873Y-108013286D01*
X118320659Y-107890004D01*
X118320659Y-107889995D01*
X118300064Y-107654599D01*
X118300063Y-107654596D01*
X118300063Y-107654592D01*
X118238903Y-107426337D01*
X118139035Y-107212171D01*
X118003495Y-107018599D01*
X117836401Y-106851505D01*
X117836397Y-106851502D01*
X117836396Y-106851501D01*
X117751918Y-106792350D01*
X117650155Y-106721094D01*
X117613334Y-106672232D01*
X117612266Y-106611056D01*
X117647360Y-106560935D01*
X117650133Y-106558920D01*
X117836401Y-106428495D01*
X118003495Y-106261401D01*
X118139035Y-106067830D01*
X118238903Y-105853663D01*
X118300063Y-105625408D01*
X118302067Y-105602508D01*
X118320659Y-105390004D01*
X118320659Y-105389995D01*
X118300064Y-105154599D01*
X118300063Y-105154596D01*
X118300063Y-105154592D01*
X118238903Y-104926337D01*
X118176919Y-104793413D01*
X118139040Y-104712181D01*
X118139036Y-104712173D01*
X118132262Y-104702499D01*
X118003495Y-104518599D01*
X117836401Y-104351505D01*
X117836397Y-104351502D01*
X117836396Y-104351501D01*
X117751918Y-104292350D01*
X117691899Y-104250324D01*
X124612499Y-104250324D01*
X124618901Y-104309870D01*
X124618903Y-104309881D01*
X124669146Y-104444588D01*
X124669147Y-104444590D01*
X124755307Y-104559684D01*
X124755315Y-104559692D01*
X124870409Y-104645852D01*
X124870411Y-104645853D01*
X125005118Y-104696096D01*
X125005129Y-104696098D01*
X125064676Y-104702500D01*
X126434999Y-104702500D01*
X126435000Y-104702499D01*
X126435000Y-103521372D01*
X126491622Y-103539770D01*
X126636525Y-103555000D01*
X126733475Y-103555000D01*
X126878378Y-103539770D01*
X126935000Y-103521372D01*
X126935000Y-104702499D01*
X126935001Y-104702500D01*
X128305324Y-104702500D01*
X128364870Y-104696098D01*
X128364881Y-104696096D01*
X128499588Y-104645853D01*
X128499590Y-104645852D01*
X128614684Y-104559692D01*
X128614692Y-104559684D01*
X128700852Y-104444590D01*
X128700853Y-104444588D01*
X128751096Y-104309881D01*
X128751098Y-104309870D01*
X128757500Y-104250324D01*
X128757500Y-102880001D01*
X128757499Y-102880000D01*
X127577526Y-102880000D01*
X127610000Y-102727221D01*
X127610000Y-102630003D01*
X132857156Y-102630003D01*
X132876508Y-102912929D01*
X132876510Y-102912938D01*
X132934206Y-103190591D01*
X133029178Y-103457816D01*
X133159650Y-103709614D01*
X133302741Y-103912329D01*
X133323193Y-103941302D01*
X133516761Y-104148563D01*
X133544791Y-104171367D01*
X133715033Y-104309870D01*
X133736748Y-104327536D01*
X133929232Y-104444588D01*
X133979052Y-104474884D01*
X133979064Y-104474891D01*
X134129731Y-104540334D01*
X134239172Y-104587871D01*
X134243098Y-104588971D01*
X134259018Y-104594946D01*
X135912143Y-105383644D01*
X135939518Y-105402992D01*
X138049145Y-107512619D01*
X138052846Y-107516762D01*
X138077491Y-107547665D01*
X138077492Y-107547666D01*
X138129269Y-107592903D01*
X138131701Y-107595176D01*
X138140469Y-107603943D01*
X138140471Y-107603945D01*
X138172818Y-107630950D01*
X138247004Y-107695765D01*
X138252441Y-107699013D01*
X138265115Y-107708006D01*
X138269975Y-107712063D01*
X138269975Y-107712064D01*
X138269978Y-107712066D01*
X138269981Y-107712068D01*
X138303276Y-107730960D01*
X138355659Y-107760683D01*
X138440225Y-107811209D01*
X138440230Y-107811211D01*
X138440236Y-107811215D01*
X138446171Y-107813442D01*
X138460242Y-107820025D01*
X138462619Y-107821373D01*
X138465755Y-107823153D01*
X138465758Y-107823154D01*
X138558740Y-107855690D01*
X138650168Y-107890004D01*
X138650976Y-107890307D01*
X138655136Y-107891061D01*
X138657203Y-107891437D01*
X138672228Y-107895402D01*
X138678218Y-107897498D01*
X138678223Y-107897498D01*
X138678228Y-107897500D01*
X138775523Y-107912909D01*
X138872453Y-107930500D01*
X138878795Y-107930500D01*
X138894281Y-107931718D01*
X138900540Y-107932710D01*
X138900540Y-107932709D01*
X138900541Y-107932710D01*
X138999022Y-107930500D01*
X150341989Y-107930500D01*
X150347535Y-107930811D01*
X150386827Y-107935238D01*
X150450422Y-107930950D01*
X150455442Y-107930612D01*
X150458773Y-107930500D01*
X150471154Y-107930500D01*
X150471155Y-107930500D01*
X150471157Y-107930499D01*
X150471170Y-107930499D01*
X150504545Y-107927494D01*
X150513123Y-107926722D01*
X150611412Y-107920096D01*
X150617546Y-107918550D01*
X150632878Y-107915944D01*
X150639188Y-107915377D01*
X150734165Y-107889164D01*
X150829683Y-107865096D01*
X150835440Y-107862480D01*
X150850062Y-107857178D01*
X150856170Y-107855493D01*
X150944935Y-107812746D01*
X151034626Y-107772007D01*
X151039838Y-107768395D01*
X151053272Y-107760574D01*
X151058969Y-107757831D01*
X151058969Y-107757830D01*
X151058973Y-107757829D01*
X151126135Y-107709033D01*
X151138676Y-107699921D01*
X151144678Y-107695763D01*
X151219654Y-107643820D01*
X151224136Y-107639336D01*
X151235948Y-107629248D01*
X151241078Y-107625522D01*
X151309153Y-107554320D01*
X153232622Y-105630851D01*
X153236743Y-105627167D01*
X153267666Y-105602508D01*
X153312928Y-105550699D01*
X153315158Y-105548314D01*
X153323945Y-105539529D01*
X153350950Y-105507181D01*
X153415765Y-105432996D01*
X153419012Y-105427559D01*
X153428011Y-105414877D01*
X153432068Y-105410019D01*
X153480683Y-105324340D01*
X153531215Y-105239764D01*
X153533442Y-105233828D01*
X153540032Y-105219744D01*
X153543153Y-105214245D01*
X153564026Y-105154592D01*
X153575691Y-105121258D01*
X153610307Y-105029024D01*
X153611437Y-105022796D01*
X153615405Y-105007762D01*
X153617498Y-105001782D01*
X153632909Y-104904476D01*
X153650500Y-104807547D01*
X153650500Y-104801205D01*
X153651719Y-104785715D01*
X153652710Y-104779458D01*
X153650500Y-104680978D01*
X153650500Y-100409500D01*
X153669407Y-100351309D01*
X153718907Y-100315345D01*
X153749500Y-100310500D01*
X154381018Y-100310500D01*
X154439209Y-100329407D01*
X154451022Y-100339496D01*
X154485093Y-100373567D01*
X154512870Y-100428084D01*
X154513712Y-100434942D01*
X154524363Y-100556684D01*
X154583262Y-100776500D01*
X154679426Y-100982723D01*
X154679434Y-100982737D01*
X154809946Y-101169130D01*
X154809947Y-101169132D01*
X154809950Y-101169135D01*
X154809953Y-101169139D01*
X154970861Y-101330047D01*
X155055633Y-101389404D01*
X155092455Y-101438268D01*
X155093523Y-101499444D01*
X155058430Y-101549564D01*
X155000578Y-101569485D01*
X154998852Y-101569500D01*
X154962134Y-101569500D01*
X154962129Y-101569500D01*
X154962128Y-101569501D01*
X154956779Y-101570076D01*
X154902519Y-101575908D01*
X154902514Y-101575909D01*
X154767670Y-101626202D01*
X154652458Y-101712450D01*
X154652450Y-101712458D01*
X154566202Y-101827670D01*
X154515910Y-101962511D01*
X154515908Y-101962522D01*
X154509500Y-102022129D01*
X154509500Y-103717866D01*
X154509501Y-103717870D01*
X154515908Y-103777480D01*
X154515909Y-103777485D01*
X154566202Y-103912329D01*
X154631933Y-104000134D01*
X154652454Y-104027546D01*
X154652457Y-104027548D01*
X154652458Y-104027549D01*
X154767670Y-104113797D01*
X154902511Y-104164089D01*
X154902512Y-104164089D01*
X154902517Y-104164091D01*
X154962127Y-104170500D01*
X157354374Y-104170499D01*
X157362283Y-104171367D01*
X157362321Y-104170881D01*
X157369378Y-104171418D01*
X157369381Y-104171417D01*
X157369383Y-104171418D01*
X157381483Y-104170608D01*
X157384772Y-104170499D01*
X157457867Y-104170499D01*
X157457872Y-104170499D01*
X157517483Y-104164091D01*
X157544311Y-104154083D01*
X157548702Y-104152676D01*
X157573947Y-104145877D01*
X157595043Y-104135437D01*
X157599674Y-104133435D01*
X157652331Y-104113796D01*
X157671478Y-104099461D01*
X157686902Y-104089984D01*
X157702904Y-104082067D01*
X157729133Y-104064035D01*
X158348938Y-103637920D01*
X158405024Y-103620500D01*
X159938116Y-103620500D01*
X159952463Y-103621545D01*
X159978023Y-103625289D01*
X160030624Y-103620687D01*
X160034923Y-103620500D01*
X160043701Y-103620500D01*
X160043709Y-103620500D01*
X160076275Y-103616693D01*
X160152789Y-103610000D01*
X160152789Y-103609999D01*
X160152797Y-103609999D01*
X160153687Y-103609703D01*
X160173332Y-103605348D01*
X160174255Y-103605241D01*
X160246423Y-103578974D01*
X160319334Y-103554814D01*
X160320117Y-103554330D01*
X160338245Y-103545554D01*
X160339117Y-103545237D01*
X160403283Y-103503034D01*
X160468656Y-103462712D01*
X160469308Y-103462058D01*
X160484929Y-103449333D01*
X160485696Y-103448830D01*
X160538385Y-103392982D01*
X161572178Y-102359188D01*
X161599853Y-102339699D01*
X163016057Y-101670000D01*
X163058379Y-101660499D01*
X163360016Y-101660499D01*
X163462788Y-101650000D01*
X163462788Y-101649999D01*
X163462797Y-101649999D01*
X163629334Y-101594814D01*
X163778656Y-101502712D01*
X163902712Y-101378656D01*
X163994814Y-101229334D01*
X164049999Y-101062797D01*
X164060500Y-100960009D01*
X164060499Y-99659992D01*
X164060499Y-99659991D01*
X164060499Y-99659983D01*
X164050000Y-99557211D01*
X164049999Y-99557209D01*
X164049999Y-99557203D01*
X163994814Y-99390666D01*
X163902712Y-99241344D01*
X163778656Y-99117288D01*
X163778653Y-99117286D01*
X163778652Y-99117285D01*
X163629336Y-99025187D01*
X163629335Y-99025186D01*
X163629334Y-99025186D01*
X163612390Y-99019571D01*
X163563101Y-98983320D01*
X163544533Y-98925020D01*
X163563779Y-98866941D01*
X163579894Y-98849759D01*
X163581390Y-98848502D01*
X163581401Y-98848495D01*
X163748495Y-98681401D01*
X163884035Y-98487830D01*
X163983903Y-98273663D01*
X164045063Y-98045408D01*
X164046821Y-98025317D01*
X164065659Y-97810004D01*
X164065659Y-97809995D01*
X164045064Y-97574599D01*
X164045063Y-97574596D01*
X164045063Y-97574592D01*
X163983903Y-97346337D01*
X163982580Y-97343499D01*
X163884040Y-97132181D01*
X163884036Y-97132173D01*
X163748498Y-96938603D01*
X163748497Y-96938602D01*
X163748495Y-96938599D01*
X163581401Y-96771505D01*
X163581397Y-96771502D01*
X163581396Y-96771501D01*
X163387826Y-96635963D01*
X163387818Y-96635959D01*
X163173668Y-96536099D01*
X163173653Y-96536093D01*
X163089468Y-96513535D01*
X163076014Y-96508870D01*
X161768462Y-95947125D01*
X161737536Y-95926168D01*
X160574437Y-94763069D01*
X160565031Y-94752183D01*
X160549614Y-94731474D01*
X160549609Y-94731469D01*
X160540733Y-94724021D01*
X160509176Y-94697542D01*
X160505999Y-94694630D01*
X160499774Y-94688406D01*
X160474041Y-94668059D01*
X160415215Y-94618698D01*
X160415206Y-94618692D01*
X160414365Y-94618270D01*
X160397417Y-94607473D01*
X160396682Y-94606892D01*
X160396670Y-94606885D01*
X160327057Y-94574424D01*
X160258434Y-94539960D01*
X160258426Y-94539958D01*
X160257523Y-94539744D01*
X160238525Y-94533140D01*
X160237677Y-94532744D01*
X160237670Y-94532742D01*
X160162435Y-94517207D01*
X160137529Y-94511304D01*
X160087721Y-94499500D01*
X160087719Y-94499500D01*
X160086791Y-94499500D01*
X160066771Y-94497455D01*
X160065854Y-94497265D01*
X159989083Y-94499500D01*
X158333669Y-94499500D01*
X158298663Y-94493104D01*
X157102140Y-94040791D01*
X157102130Y-94040788D01*
X157091002Y-94037762D01*
X157075149Y-94031958D01*
X157056501Y-94023263D01*
X157056494Y-94023260D01*
X156838528Y-93964857D01*
X156836692Y-93964365D01*
X156836691Y-93964364D01*
X156836684Y-93964363D01*
X156666789Y-93949500D01*
X156666784Y-93949500D01*
X155753216Y-93949500D01*
X155753211Y-93949500D01*
X155583315Y-93964363D01*
X155363499Y-94023262D01*
X155157276Y-94119426D01*
X155157262Y-94119434D01*
X154970869Y-94249946D01*
X154970867Y-94249947D01*
X154809947Y-94410867D01*
X154809946Y-94410869D01*
X154679434Y-94597262D01*
X154679426Y-94597276D01*
X154583262Y-94803499D01*
X154524363Y-95023315D01*
X154504532Y-95249996D01*
X154504532Y-95250003D01*
X154524363Y-95476684D01*
X154583262Y-95696500D01*
X154679426Y-95902723D01*
X154679434Y-95902737D01*
X154809946Y-96089130D01*
X154809947Y-96089132D01*
X154809950Y-96089135D01*
X154809953Y-96089139D01*
X154970861Y-96250047D01*
X154970864Y-96250049D01*
X154970867Y-96250052D01*
X154970869Y-96250053D01*
X155095131Y-96337061D01*
X155157266Y-96380568D01*
X155157267Y-96380568D01*
X155157271Y-96380571D01*
X155263863Y-96430276D01*
X155308611Y-96472004D01*
X155320285Y-96532065D01*
X155294427Y-96587518D01*
X155263863Y-96609724D01*
X155157271Y-96659428D01*
X155157262Y-96659434D01*
X154970869Y-96789946D01*
X154970867Y-96789947D01*
X154809947Y-96950867D01*
X154809946Y-96950869D01*
X154679434Y-97137262D01*
X154679426Y-97137276D01*
X154583262Y-97343499D01*
X154583261Y-97343504D01*
X154524365Y-97563308D01*
X154523378Y-97574592D01*
X154513712Y-97685058D01*
X154489804Y-97741379D01*
X154485095Y-97746430D01*
X154451022Y-97780503D01*
X154396509Y-97808281D01*
X154381019Y-97809500D01*
X153749500Y-97809500D01*
X153691309Y-97790593D01*
X153655345Y-97741093D01*
X153650500Y-97710500D01*
X153650500Y-73739500D01*
X153669407Y-73681309D01*
X153718907Y-73645345D01*
X153749500Y-73640500D01*
X154457948Y-73640500D01*
X154477767Y-73642503D01*
X154491329Y-73645275D01*
X155314079Y-73693672D01*
X155371056Y-73715962D01*
X155404052Y-73767489D01*
X155400459Y-73828569D01*
X155365048Y-73873595D01*
X155338928Y-73891884D01*
X155171886Y-74058926D01*
X155036398Y-74252424D01*
X155036394Y-74252432D01*
X154936570Y-74466505D01*
X154879364Y-74680000D01*
X155776314Y-74680000D01*
X155750507Y-74720156D01*
X155710000Y-74858111D01*
X155710000Y-75001889D01*
X155750507Y-75139844D01*
X155776314Y-75180000D01*
X154879364Y-75180000D01*
X154936569Y-75393489D01*
X155036399Y-75607577D01*
X155171886Y-75801073D01*
X155338926Y-75968113D01*
X155532422Y-76103600D01*
X155546144Y-76109999D01*
X155590892Y-76151727D01*
X155602567Y-76211788D01*
X155576709Y-76267241D01*
X155546145Y-76289448D01*
X155532177Y-76295961D01*
X155532173Y-76295963D01*
X155338603Y-76431501D01*
X155171501Y-76598603D01*
X155035963Y-76792173D01*
X155035959Y-76792181D01*
X154936098Y-77006332D01*
X154874935Y-77234599D01*
X154854341Y-77469995D01*
X154854341Y-77470004D01*
X154874935Y-77705400D01*
X154874936Y-77705407D01*
X154874937Y-77705408D01*
X154936097Y-77933663D01*
X155035965Y-78147830D01*
X155086554Y-78220079D01*
X155150019Y-78310717D01*
X155171505Y-78341401D01*
X155338599Y-78508495D01*
X155532170Y-78644035D01*
X155545552Y-78650275D01*
X155590300Y-78692003D01*
X155601975Y-78752064D01*
X155576117Y-78807517D01*
X155545554Y-78829724D01*
X155532173Y-78835963D01*
X155338603Y-78971501D01*
X155171501Y-79138603D01*
X155035963Y-79332173D01*
X155035959Y-79332181D01*
X154936098Y-79546332D01*
X154874935Y-79774599D01*
X154854341Y-80009995D01*
X154854341Y-80010004D01*
X154874935Y-80245400D01*
X154874936Y-80245407D01*
X154874937Y-80245408D01*
X154936097Y-80473663D01*
X155035965Y-80687830D01*
X155086554Y-80760079D01*
X155150019Y-80850717D01*
X155171505Y-80881401D01*
X155338599Y-81048495D01*
X155532170Y-81184035D01*
X155541192Y-81188242D01*
X155545552Y-81190275D01*
X155590300Y-81232003D01*
X155601975Y-81292064D01*
X155576117Y-81347517D01*
X155545554Y-81369724D01*
X155532173Y-81375963D01*
X155338603Y-81511501D01*
X155171501Y-81678603D01*
X155035963Y-81872173D01*
X155035959Y-81872181D01*
X154936098Y-82086332D01*
X154874935Y-82314599D01*
X154854341Y-82549995D01*
X154854341Y-82550004D01*
X154874935Y-82785400D01*
X154874936Y-82785407D01*
X154874937Y-82785408D01*
X154936097Y-83013663D01*
X155035965Y-83227830D01*
X155086554Y-83300079D01*
X155170211Y-83419554D01*
X155171505Y-83421401D01*
X155338599Y-83588495D01*
X155532170Y-83724035D01*
X155545552Y-83730275D01*
X155590300Y-83772003D01*
X155601975Y-83832064D01*
X155576117Y-83887517D01*
X155545554Y-83909724D01*
X155532173Y-83915963D01*
X155338603Y-84051501D01*
X155171501Y-84218603D01*
X155035963Y-84412173D01*
X155035959Y-84412181D01*
X154936098Y-84626332D01*
X154874935Y-84854599D01*
X154854341Y-85089995D01*
X154854341Y-85090004D01*
X154874935Y-85325400D01*
X154874936Y-85325407D01*
X154874937Y-85325408D01*
X154936097Y-85553663D01*
X155035965Y-85767830D01*
X155072906Y-85820587D01*
X155163055Y-85949334D01*
X155171505Y-85961401D01*
X155338599Y-86128495D01*
X155532170Y-86264035D01*
X155545552Y-86270275D01*
X155590300Y-86312003D01*
X155601975Y-86372064D01*
X155576117Y-86427517D01*
X155545554Y-86449724D01*
X155532173Y-86455963D01*
X155338603Y-86591501D01*
X155171501Y-86758603D01*
X155035963Y-86952173D01*
X155035959Y-86952181D01*
X154936098Y-87166332D01*
X154874935Y-87394599D01*
X154854341Y-87629995D01*
X154854341Y-87630004D01*
X154874935Y-87865400D01*
X154874936Y-87865407D01*
X154874937Y-87865408D01*
X154936097Y-88093663D01*
X155035965Y-88307830D01*
X155086557Y-88380083D01*
X155150019Y-88470717D01*
X155171505Y-88501401D01*
X155338599Y-88668495D01*
X155532170Y-88804035D01*
X155532171Y-88804035D01*
X155532172Y-88804036D01*
X155532174Y-88804037D01*
X155546143Y-88810551D01*
X155590892Y-88852279D01*
X155602567Y-88912340D01*
X155576710Y-88967793D01*
X155546146Y-88990000D01*
X155532424Y-88996398D01*
X155338926Y-89131886D01*
X155171886Y-89298926D01*
X155036398Y-89492424D01*
X155036394Y-89492432D01*
X154936570Y-89706505D01*
X154879364Y-89920000D01*
X155776314Y-89920000D01*
X155750507Y-89960156D01*
X155710000Y-90098111D01*
X155710000Y-90241889D01*
X155750507Y-90379844D01*
X155776314Y-90420000D01*
X154879364Y-90420000D01*
X154936569Y-90633489D01*
X155036399Y-90847577D01*
X155171886Y-91041073D01*
X155338926Y-91208113D01*
X155532422Y-91343600D01*
X155746509Y-91443430D01*
X155960000Y-91500634D01*
X155960000Y-90605501D01*
X156067685Y-90654680D01*
X156174237Y-90670000D01*
X156245763Y-90670000D01*
X156352315Y-90654680D01*
X156460000Y-90605501D01*
X156460000Y-91500633D01*
X156673490Y-91443430D01*
X156887577Y-91343600D01*
X157081073Y-91208113D01*
X157248113Y-91041073D01*
X157383600Y-90847577D01*
X157483430Y-90633489D01*
X157540636Y-90420000D01*
X156643686Y-90420000D01*
X156669493Y-90379844D01*
X156710000Y-90241889D01*
X156710000Y-90098111D01*
X156669493Y-89960156D01*
X156643686Y-89920000D01*
X157540636Y-89920000D01*
X157483429Y-89706505D01*
X157383605Y-89492432D01*
X157383601Y-89492424D01*
X157248113Y-89298926D01*
X157081073Y-89131886D01*
X156887577Y-88996399D01*
X156873856Y-88990001D01*
X156829108Y-88948273D01*
X156817433Y-88888212D01*
X156843291Y-88832759D01*
X156873857Y-88810551D01*
X156880053Y-88807661D01*
X156887830Y-88804035D01*
X157081401Y-88668495D01*
X157248495Y-88501401D01*
X157384035Y-88307830D01*
X157483903Y-88093663D01*
X157545063Y-87865408D01*
X157545948Y-87855291D01*
X157565659Y-87630004D01*
X157565659Y-87629995D01*
X157545064Y-87394599D01*
X157545063Y-87394596D01*
X157545063Y-87394592D01*
X157483903Y-87166337D01*
X157467063Y-87130223D01*
X157384040Y-86952181D01*
X157384036Y-86952173D01*
X157383423Y-86951298D01*
X157248495Y-86758599D01*
X157081401Y-86591505D01*
X157081397Y-86591502D01*
X157081396Y-86591501D01*
X156928021Y-86484107D01*
X156887830Y-86455965D01*
X156887829Y-86455964D01*
X156887824Y-86455961D01*
X156884946Y-86454299D01*
X156844013Y-86408822D01*
X156837628Y-86347971D01*
X156868230Y-86294988D01*
X156898533Y-86276321D01*
X157989225Y-85851620D01*
X158000456Y-85847247D01*
X158036378Y-85840500D01*
X160577907Y-85840500D01*
X160623493Y-85851620D01*
X160673957Y-85877797D01*
X161498917Y-86305724D01*
X161498926Y-86305727D01*
X161503051Y-86307560D01*
X161508948Y-86310670D01*
X161515666Y-86314814D01*
X161560391Y-86329634D01*
X161582852Y-86337078D01*
X161604512Y-86345168D01*
X161613260Y-86348436D01*
X161618713Y-86349750D01*
X161622298Y-86350494D01*
X161627782Y-86351965D01*
X161682203Y-86369999D01*
X161784991Y-86380500D01*
X163335008Y-86380499D01*
X163335016Y-86380499D01*
X163437788Y-86370000D01*
X163437788Y-86369999D01*
X163437797Y-86369999D01*
X163604334Y-86314814D01*
X163753656Y-86222712D01*
X163877712Y-86098656D01*
X163969814Y-85949334D01*
X164024999Y-85782797D01*
X164035500Y-85680009D01*
X164035499Y-84379992D01*
X164035499Y-84379983D01*
X164025000Y-84277211D01*
X164024999Y-84277209D01*
X164024999Y-84277203D01*
X163969814Y-84110666D01*
X163877712Y-83961344D01*
X163753656Y-83837288D01*
X163753653Y-83837286D01*
X163753652Y-83837285D01*
X163604336Y-83745187D01*
X163604335Y-83745186D01*
X163604334Y-83745186D01*
X163587390Y-83739571D01*
X163538101Y-83703320D01*
X163519533Y-83645020D01*
X163538779Y-83586941D01*
X163554894Y-83569759D01*
X163556390Y-83568502D01*
X163556401Y-83568495D01*
X163723495Y-83401401D01*
X163859035Y-83207830D01*
X163958903Y-82993663D01*
X164020063Y-82765408D01*
X164026864Y-82687680D01*
X164040659Y-82530000D01*
X164040659Y-82529995D01*
X164020064Y-82294599D01*
X164020063Y-82294596D01*
X164020063Y-82294592D01*
X163958903Y-82066337D01*
X163868362Y-81872173D01*
X163859040Y-81852181D01*
X163859036Y-81852173D01*
X163822154Y-81799500D01*
X163768523Y-81722906D01*
X163723498Y-81658603D01*
X163723497Y-81658602D01*
X163723495Y-81658599D01*
X163556401Y-81491505D01*
X163556397Y-81491502D01*
X163556396Y-81491501D01*
X163431579Y-81404104D01*
X163370155Y-81361094D01*
X163333334Y-81312232D01*
X163332266Y-81251056D01*
X163367360Y-81200935D01*
X163370133Y-81198920D01*
X163556401Y-81068495D01*
X163723495Y-80901401D01*
X163859035Y-80707830D01*
X163958903Y-80493663D01*
X164020063Y-80265408D01*
X164023960Y-80220867D01*
X164040659Y-80030004D01*
X164040659Y-80029995D01*
X164020064Y-79794599D01*
X164020063Y-79794596D01*
X164020063Y-79794592D01*
X163958903Y-79566337D01*
X163958901Y-79566332D01*
X163859040Y-79352181D01*
X163859036Y-79352173D01*
X163853988Y-79344964D01*
X163723495Y-79158599D01*
X163556401Y-78991505D01*
X163556397Y-78991502D01*
X163556396Y-78991501D01*
X163439064Y-78909345D01*
X163370155Y-78861094D01*
X163333334Y-78812232D01*
X163332266Y-78751056D01*
X163367360Y-78700935D01*
X163370133Y-78698920D01*
X163556401Y-78568495D01*
X163723495Y-78401401D01*
X163859035Y-78207830D01*
X163958903Y-77993663D01*
X164020063Y-77765408D01*
X164020064Y-77765400D01*
X164040659Y-77530004D01*
X164040659Y-77529995D01*
X164020064Y-77294599D01*
X164020063Y-77294596D01*
X164020063Y-77294592D01*
X163958903Y-77066337D01*
X163939888Y-77025559D01*
X163859040Y-76852181D01*
X163859036Y-76852173D01*
X163723498Y-76658603D01*
X163723497Y-76658602D01*
X163723495Y-76658599D01*
X163556401Y-76491505D01*
X163556397Y-76491502D01*
X163556396Y-76491501D01*
X163362826Y-76355963D01*
X163362818Y-76355959D01*
X163148666Y-76256098D01*
X163148667Y-76256098D01*
X163000928Y-76216512D01*
X162920408Y-76194937D01*
X162920407Y-76194936D01*
X162920400Y-76194935D01*
X162743972Y-76179500D01*
X162743966Y-76179500D01*
X162376034Y-76179500D01*
X162376028Y-76179500D01*
X162199599Y-76194935D01*
X162159300Y-76205733D01*
X161971337Y-76256097D01*
X161971335Y-76256098D01*
X161971333Y-76256099D01*
X161955655Y-76263409D01*
X161937402Y-76269348D01*
X161937491Y-76269674D01*
X161934081Y-76270596D01*
X160662808Y-76713978D01*
X160630206Y-76719500D01*
X158036381Y-76719500D01*
X158000459Y-76712753D01*
X156897940Y-76283446D01*
X156850575Y-76244713D01*
X156835024Y-76185537D01*
X156857225Y-76128521D01*
X156884365Y-76105455D01*
X156887579Y-76103599D01*
X157081073Y-75968113D01*
X157248113Y-75801073D01*
X157383600Y-75607577D01*
X157483430Y-75393489D01*
X157540636Y-75180000D01*
X156643686Y-75180000D01*
X156669493Y-75139844D01*
X156710000Y-75001889D01*
X156710000Y-74858111D01*
X156669493Y-74720156D01*
X156643686Y-74680000D01*
X157540636Y-74680000D01*
X157483429Y-74466505D01*
X157383605Y-74252432D01*
X157383601Y-74252424D01*
X157248113Y-74058926D01*
X157081073Y-73891886D01*
X157054952Y-73873596D01*
X157018130Y-73824731D01*
X157017062Y-73763555D01*
X157052156Y-73713435D01*
X157105919Y-73693671D01*
X157528759Y-73668798D01*
X157587959Y-73684255D01*
X157626768Y-73731558D01*
X157628541Y-73736469D01*
X157652686Y-73809334D01*
X157662183Y-73824731D01*
X157744785Y-73958652D01*
X157744786Y-73958653D01*
X157744788Y-73958656D01*
X157868844Y-74082712D01*
X158018166Y-74174814D01*
X158184703Y-74229999D01*
X158287491Y-74240500D01*
X159212508Y-74240499D01*
X159212516Y-74240499D01*
X159315288Y-74230000D01*
X159315288Y-74229999D01*
X159315297Y-74229999D01*
X159481834Y-74174814D01*
X159631156Y-74082712D01*
X159755212Y-73958656D01*
X159847314Y-73809334D01*
X159902499Y-73642797D01*
X159913000Y-73540009D01*
X159913000Y-73539986D01*
X160712501Y-73539986D01*
X160722992Y-73642687D01*
X160722995Y-73642699D01*
X160778143Y-73809124D01*
X160870180Y-73958340D01*
X160994159Y-74082319D01*
X161143375Y-74174356D01*
X161309806Y-74229506D01*
X161412513Y-74239999D01*
X161624998Y-74239999D01*
X161625000Y-74239998D01*
X162125000Y-74239998D01*
X162125001Y-74239999D01*
X162337486Y-74239999D01*
X162440187Y-74229507D01*
X162440199Y-74229504D01*
X162606624Y-74174356D01*
X162755840Y-74082319D01*
X162879819Y-73958340D01*
X162971856Y-73809124D01*
X163027006Y-73642693D01*
X163037500Y-73539987D01*
X163037500Y-72640001D01*
X163037499Y-72640000D01*
X162125001Y-72640000D01*
X162125000Y-72640001D01*
X162125000Y-74239998D01*
X161625000Y-74239998D01*
X161625000Y-72640001D01*
X161624999Y-72640000D01*
X160712502Y-72640000D01*
X160712501Y-72640001D01*
X160712501Y-73539986D01*
X159913000Y-73539986D01*
X159912999Y-72871027D01*
X159920966Y-72832118D01*
X159921813Y-72830136D01*
X159944103Y-72777988D01*
X159994191Y-72558537D01*
X160004290Y-72333670D01*
X159978056Y-72139999D01*
X160712500Y-72139999D01*
X160712501Y-72140000D01*
X161624999Y-72140000D01*
X161625000Y-72139999D01*
X162125000Y-72139999D01*
X162125001Y-72140000D01*
X163037498Y-72140000D01*
X163037499Y-72139999D01*
X163037499Y-71240013D01*
X163027007Y-71137312D01*
X163027004Y-71137300D01*
X162971856Y-70970875D01*
X162879819Y-70821659D01*
X162755840Y-70697680D01*
X162606624Y-70605643D01*
X162440193Y-70550493D01*
X162337487Y-70540000D01*
X162125001Y-70540000D01*
X162125000Y-70540001D01*
X162125000Y-72139999D01*
X161625000Y-72139999D01*
X161625000Y-70540001D01*
X161624999Y-70540000D01*
X161412513Y-70540000D01*
X161309812Y-70550492D01*
X161309800Y-70550495D01*
X161143375Y-70605643D01*
X160994159Y-70697680D01*
X160870180Y-70821659D01*
X160778143Y-70970875D01*
X160722993Y-71137306D01*
X160712500Y-71240012D01*
X160712500Y-72139999D01*
X159978056Y-72139999D01*
X159974075Y-72110613D01*
X159917844Y-71937552D01*
X159912999Y-71906959D01*
X159912999Y-71239983D01*
X159902500Y-71137211D01*
X159902499Y-71137209D01*
X159902499Y-71137203D01*
X159847314Y-70970666D01*
X159777229Y-70857040D01*
X159755214Y-70821347D01*
X159755213Y-70821346D01*
X159755212Y-70821344D01*
X159631156Y-70697288D01*
X159631153Y-70697286D01*
X159631152Y-70697285D01*
X159481836Y-70605187D01*
X159481835Y-70605186D01*
X159481834Y-70605186D01*
X159315297Y-70550001D01*
X159315294Y-70550000D01*
X159212516Y-70539500D01*
X158287483Y-70539500D01*
X158184711Y-70549999D01*
X158184699Y-70550002D01*
X158018163Y-70605187D01*
X157868847Y-70697285D01*
X157744785Y-70821347D01*
X157652688Y-70970661D01*
X157652686Y-70970665D01*
X157628547Y-71043511D01*
X157592295Y-71092801D01*
X157533995Y-71111368D01*
X157528759Y-71111199D01*
X156244626Y-71035663D01*
X156241397Y-71035568D01*
X156236560Y-71035426D01*
X156236557Y-71035426D01*
X156236554Y-71035426D01*
X156236544Y-71035426D01*
X156229807Y-71035682D01*
X156223612Y-71035530D01*
X156210006Y-71034341D01*
X156209996Y-71034341D01*
X156187603Y-71036300D01*
X156170667Y-71036328D01*
X156167942Y-71036098D01*
X154491328Y-71134724D01*
X154452191Y-71138559D01*
X154452190Y-71138559D01*
X154447712Y-71138998D01*
X154447670Y-71138575D01*
X154437900Y-71139500D01*
X153749500Y-71139500D01*
X153691309Y-71120593D01*
X153655345Y-71071093D01*
X153650500Y-71040500D01*
X153650500Y-52628981D01*
X153669407Y-52570790D01*
X153679490Y-52558983D01*
X154805704Y-51432768D01*
X154860219Y-51404993D01*
X154920651Y-51414564D01*
X154963916Y-51457829D01*
X154973487Y-51518261D01*
X154965431Y-51544612D01*
X154936569Y-51606507D01*
X154879364Y-51820000D01*
X155776314Y-51820000D01*
X155750507Y-51860156D01*
X155710000Y-51998111D01*
X155710000Y-52141889D01*
X155750507Y-52279844D01*
X155776314Y-52320000D01*
X154879364Y-52320000D01*
X154936569Y-52533489D01*
X155036399Y-52747577D01*
X155171886Y-52941073D01*
X155338926Y-53108113D01*
X155532422Y-53243600D01*
X155546144Y-53249999D01*
X155590892Y-53291727D01*
X155602567Y-53351788D01*
X155576709Y-53407241D01*
X155546145Y-53429448D01*
X155532177Y-53435961D01*
X155532173Y-53435963D01*
X155338603Y-53571501D01*
X155171501Y-53738603D01*
X155035963Y-53932173D01*
X155035959Y-53932181D01*
X154936098Y-54146332D01*
X154874935Y-54374599D01*
X154854341Y-54609995D01*
X154854341Y-54610004D01*
X154874935Y-54845400D01*
X154874936Y-54845407D01*
X154874937Y-54845408D01*
X154936097Y-55073663D01*
X155035965Y-55287830D01*
X155086849Y-55360500D01*
X155150019Y-55450717D01*
X155171505Y-55481401D01*
X155338599Y-55648495D01*
X155532170Y-55784035D01*
X155545552Y-55790275D01*
X155590300Y-55832003D01*
X155601975Y-55892064D01*
X155576117Y-55947517D01*
X155545554Y-55969724D01*
X155532173Y-55975963D01*
X155338603Y-56111501D01*
X155171501Y-56278603D01*
X155035963Y-56472173D01*
X155035959Y-56472181D01*
X154936098Y-56686332D01*
X154874935Y-56914599D01*
X154854341Y-57149995D01*
X154854341Y-57150004D01*
X154874935Y-57385400D01*
X154874936Y-57385407D01*
X154874937Y-57385408D01*
X154936097Y-57613663D01*
X155035965Y-57827830D01*
X155083934Y-57896337D01*
X155150019Y-57990717D01*
X155171505Y-58021401D01*
X155338599Y-58188495D01*
X155532170Y-58324035D01*
X155541192Y-58328242D01*
X155545552Y-58330275D01*
X155590300Y-58372003D01*
X155601975Y-58432064D01*
X155576117Y-58487517D01*
X155545554Y-58509724D01*
X155532173Y-58515963D01*
X155338603Y-58651501D01*
X155171501Y-58818603D01*
X155035963Y-59012173D01*
X155035959Y-59012181D01*
X154936098Y-59226332D01*
X154874935Y-59454599D01*
X154854341Y-59689995D01*
X154854341Y-59690004D01*
X154874935Y-59925400D01*
X154874936Y-59925407D01*
X154874937Y-59925408D01*
X154936097Y-60153663D01*
X155035965Y-60367830D01*
X155086849Y-60440500D01*
X155157500Y-60541401D01*
X155171505Y-60561401D01*
X155338599Y-60728495D01*
X155532170Y-60864035D01*
X155545552Y-60870275D01*
X155590300Y-60912003D01*
X155601975Y-60972064D01*
X155576117Y-61027517D01*
X155545554Y-61049724D01*
X155532173Y-61055963D01*
X155338603Y-61191501D01*
X155171501Y-61358603D01*
X155035963Y-61552173D01*
X155035959Y-61552181D01*
X154936098Y-61766332D01*
X154874935Y-61994599D01*
X154854341Y-62229995D01*
X154854341Y-62230004D01*
X154874935Y-62465400D01*
X154874936Y-62465407D01*
X154874937Y-62465408D01*
X154936097Y-62693663D01*
X155035965Y-62907830D01*
X155063572Y-62947257D01*
X155163055Y-63089334D01*
X155171505Y-63101401D01*
X155338599Y-63268495D01*
X155532170Y-63404035D01*
X155545552Y-63410275D01*
X155590300Y-63452003D01*
X155601975Y-63512064D01*
X155576117Y-63567517D01*
X155545554Y-63589724D01*
X155532173Y-63595963D01*
X155338603Y-63731501D01*
X155171501Y-63898603D01*
X155035963Y-64092173D01*
X155035959Y-64092181D01*
X154936098Y-64306332D01*
X154874935Y-64534599D01*
X154854341Y-64769995D01*
X154854341Y-64770004D01*
X154874935Y-65005400D01*
X154874936Y-65005407D01*
X154874937Y-65005408D01*
X154936097Y-65233663D01*
X155035965Y-65447830D01*
X155086849Y-65520500D01*
X155158409Y-65622699D01*
X155171505Y-65641401D01*
X155338599Y-65808495D01*
X155532170Y-65944035D01*
X155532171Y-65944035D01*
X155532172Y-65944036D01*
X155532174Y-65944037D01*
X155546143Y-65950551D01*
X155590892Y-65992279D01*
X155602567Y-66052340D01*
X155576710Y-66107793D01*
X155546146Y-66130000D01*
X155532424Y-66136398D01*
X155338926Y-66271886D01*
X155171886Y-66438926D01*
X155036398Y-66632424D01*
X155036394Y-66632432D01*
X154936570Y-66846505D01*
X154879364Y-67060000D01*
X155776314Y-67060000D01*
X155750507Y-67100156D01*
X155710000Y-67238111D01*
X155710000Y-67381889D01*
X155750507Y-67519844D01*
X155776314Y-67560000D01*
X154879364Y-67560000D01*
X154936569Y-67773489D01*
X155036399Y-67987577D01*
X155171886Y-68181073D01*
X155338926Y-68348113D01*
X155532422Y-68483600D01*
X155746509Y-68583430D01*
X155960000Y-68640634D01*
X155960000Y-67745501D01*
X156067685Y-67794680D01*
X156174237Y-67810000D01*
X156245763Y-67810000D01*
X156352315Y-67794680D01*
X156460000Y-67745501D01*
X156460000Y-68640633D01*
X156673490Y-68583430D01*
X156887577Y-68483600D01*
X157081073Y-68348113D01*
X157248113Y-68181073D01*
X157383600Y-67987577D01*
X157483430Y-67773489D01*
X157540636Y-67560000D01*
X156643686Y-67560000D01*
X156669493Y-67519844D01*
X156710000Y-67381889D01*
X156710000Y-67238111D01*
X156669493Y-67100156D01*
X156643686Y-67060000D01*
X157540636Y-67060000D01*
X157483429Y-66846505D01*
X157383605Y-66632432D01*
X157383601Y-66632424D01*
X157248113Y-66438926D01*
X157081073Y-66271886D01*
X156887576Y-66136398D01*
X156887575Y-66136398D01*
X156873856Y-66130001D01*
X156829108Y-66088273D01*
X156817433Y-66028212D01*
X156843291Y-65972759D01*
X156873857Y-65950551D01*
X156880053Y-65947661D01*
X156887830Y-65944035D01*
X157081401Y-65808495D01*
X157248495Y-65641401D01*
X157384035Y-65447830D01*
X157483903Y-65233663D01*
X157545063Y-65005408D01*
X157565659Y-64770000D01*
X157552535Y-64620000D01*
X157545064Y-64534599D01*
X157545063Y-64534596D01*
X157545063Y-64534592D01*
X157483903Y-64306337D01*
X157483901Y-64306332D01*
X157384040Y-64092181D01*
X157384036Y-64092173D01*
X157248498Y-63898603D01*
X157248497Y-63898602D01*
X157248495Y-63898599D01*
X157081401Y-63731505D01*
X157081397Y-63731502D01*
X157081396Y-63731501D01*
X156887824Y-63595961D01*
X156884946Y-63594299D01*
X156844013Y-63548822D01*
X156837628Y-63487971D01*
X156868230Y-63434988D01*
X156898533Y-63416321D01*
X158000456Y-62987247D01*
X158036378Y-62980500D01*
X160577907Y-62980500D01*
X160623493Y-62991620D01*
X161498917Y-63445724D01*
X161498926Y-63445727D01*
X161503051Y-63447560D01*
X161508948Y-63450670D01*
X161515666Y-63454814D01*
X161560391Y-63469634D01*
X161582852Y-63477078D01*
X161604512Y-63485168D01*
X161613260Y-63488436D01*
X161618713Y-63489750D01*
X161622298Y-63490494D01*
X161627782Y-63491965D01*
X161682203Y-63509999D01*
X161784991Y-63520500D01*
X163335008Y-63520499D01*
X163335016Y-63520499D01*
X163437788Y-63510000D01*
X163437788Y-63509999D01*
X163437797Y-63509999D01*
X163604334Y-63454814D01*
X163753656Y-63362712D01*
X163877712Y-63238656D01*
X163969814Y-63089334D01*
X164024999Y-62922797D01*
X164035500Y-62820009D01*
X164035499Y-61519992D01*
X164035499Y-61519983D01*
X164025000Y-61417211D01*
X164024999Y-61417209D01*
X164024999Y-61417203D01*
X163969814Y-61250666D01*
X163921521Y-61172370D01*
X163877714Y-61101347D01*
X163877713Y-61101346D01*
X163877712Y-61101344D01*
X163753656Y-60977288D01*
X163753653Y-60977286D01*
X163753652Y-60977285D01*
X163604336Y-60885187D01*
X163604335Y-60885186D01*
X163604334Y-60885186D01*
X163587390Y-60879571D01*
X163538101Y-60843320D01*
X163519533Y-60785020D01*
X163538779Y-60726941D01*
X163554894Y-60709759D01*
X163556390Y-60708502D01*
X163556401Y-60708495D01*
X163723495Y-60541401D01*
X163859035Y-60347830D01*
X163958903Y-60133663D01*
X164020063Y-59905408D01*
X164038466Y-59695064D01*
X164040659Y-59670004D01*
X164040659Y-59669995D01*
X164020064Y-59434599D01*
X164020063Y-59434596D01*
X164020063Y-59434592D01*
X163958903Y-59206337D01*
X163956577Y-59201348D01*
X163859040Y-58992181D01*
X163859036Y-58992173D01*
X163822154Y-58939500D01*
X163768523Y-58862906D01*
X163723498Y-58798603D01*
X163723497Y-58798602D01*
X163723495Y-58798599D01*
X163556401Y-58631505D01*
X163556397Y-58631502D01*
X163556396Y-58631501D01*
X163471918Y-58572350D01*
X163370155Y-58501094D01*
X163333334Y-58452232D01*
X163332266Y-58391056D01*
X163367360Y-58340935D01*
X163370133Y-58338920D01*
X163556401Y-58208495D01*
X163723495Y-58041401D01*
X163859035Y-57847830D01*
X163958903Y-57633663D01*
X164020063Y-57405408D01*
X164027404Y-57321501D01*
X164040659Y-57170004D01*
X164040659Y-57169995D01*
X164020064Y-56934599D01*
X164020063Y-56934596D01*
X164020063Y-56934592D01*
X163958903Y-56706337D01*
X163958901Y-56706332D01*
X163859040Y-56492181D01*
X163859036Y-56492173D01*
X163723498Y-56298603D01*
X163723497Y-56298602D01*
X163723495Y-56298599D01*
X163556401Y-56131505D01*
X163556397Y-56131502D01*
X163556396Y-56131501D01*
X163449695Y-56056789D01*
X163370155Y-56001094D01*
X163333334Y-55952232D01*
X163332266Y-55891056D01*
X163367360Y-55840935D01*
X163370133Y-55838920D01*
X163556401Y-55708495D01*
X163723495Y-55541401D01*
X163859035Y-55347830D01*
X163958903Y-55133663D01*
X164020063Y-54905408D01*
X164024036Y-54860000D01*
X164040659Y-54670004D01*
X164040659Y-54669995D01*
X164020064Y-54434599D01*
X164020063Y-54434596D01*
X164020063Y-54434592D01*
X163958903Y-54206337D01*
X163939888Y-54165559D01*
X163859040Y-53992181D01*
X163859036Y-53992173D01*
X163824069Y-53942235D01*
X163739402Y-53821316D01*
X163723498Y-53798603D01*
X163723497Y-53798602D01*
X163723495Y-53798599D01*
X163556401Y-53631505D01*
X163556397Y-53631502D01*
X163556396Y-53631501D01*
X163395307Y-53518706D01*
X163362829Y-53495965D01*
X163362828Y-53495964D01*
X163362826Y-53495963D01*
X163362818Y-53495959D01*
X163148666Y-53396098D01*
X163148667Y-53396098D01*
X163013960Y-53360004D01*
X162920408Y-53334937D01*
X162920407Y-53334936D01*
X162920400Y-53334935D01*
X162743972Y-53319500D01*
X162743966Y-53319500D01*
X162376034Y-53319500D01*
X162376028Y-53319500D01*
X162199599Y-53334935D01*
X162180696Y-53340000D01*
X161971337Y-53396097D01*
X161971335Y-53396098D01*
X161971333Y-53396099D01*
X161955655Y-53403409D01*
X161937402Y-53409348D01*
X161937491Y-53409674D01*
X161934081Y-53410596D01*
X161022363Y-53728576D01*
X160676399Y-53849238D01*
X160662808Y-53853978D01*
X160630206Y-53859500D01*
X158036381Y-53859500D01*
X158000459Y-53852753D01*
X156897940Y-53423446D01*
X156850575Y-53384713D01*
X156835024Y-53325537D01*
X156857225Y-53268521D01*
X156884365Y-53245455D01*
X156887579Y-53243599D01*
X157081073Y-53108113D01*
X157248113Y-52941073D01*
X157383600Y-52747577D01*
X157483430Y-52533489D01*
X157540636Y-52320000D01*
X156643686Y-52320000D01*
X156669493Y-52279844D01*
X156710000Y-52141889D01*
X156710000Y-51998111D01*
X156669493Y-51860156D01*
X156643686Y-51820000D01*
X157540636Y-51820000D01*
X157483429Y-51606505D01*
X157383605Y-51392432D01*
X157383601Y-51392424D01*
X157248113Y-51198926D01*
X157081073Y-51031886D01*
X157054952Y-51013596D01*
X157018130Y-50964731D01*
X157017062Y-50903555D01*
X157052156Y-50853435D01*
X157105919Y-50833671D01*
X157528759Y-50808798D01*
X157587959Y-50824255D01*
X157626768Y-50871558D01*
X157628541Y-50876469D01*
X157652686Y-50949334D01*
X157652688Y-50949337D01*
X157744785Y-51098652D01*
X157744786Y-51098653D01*
X157744788Y-51098656D01*
X157868844Y-51222712D01*
X158018166Y-51314814D01*
X158184703Y-51369999D01*
X158287491Y-51380500D01*
X159212508Y-51380499D01*
X159212516Y-51380499D01*
X159315288Y-51370000D01*
X159315288Y-51369999D01*
X159315297Y-51369999D01*
X159481834Y-51314814D01*
X159631156Y-51222712D01*
X159755212Y-51098656D01*
X159847314Y-50949334D01*
X159902499Y-50782797D01*
X159913000Y-50680009D01*
X159913000Y-50679986D01*
X160712501Y-50679986D01*
X160722992Y-50782687D01*
X160722995Y-50782699D01*
X160778143Y-50949124D01*
X160870180Y-51098340D01*
X160994159Y-51222319D01*
X161143375Y-51314356D01*
X161309806Y-51369506D01*
X161412513Y-51379999D01*
X161624998Y-51379999D01*
X161625000Y-51379998D01*
X162125000Y-51379998D01*
X162125001Y-51379999D01*
X162337486Y-51379999D01*
X162440187Y-51369507D01*
X162440199Y-51369504D01*
X162606624Y-51314356D01*
X162755840Y-51222319D01*
X162879819Y-51098340D01*
X162971856Y-50949124D01*
X163027006Y-50782693D01*
X163037500Y-50679987D01*
X163037500Y-49780001D01*
X163037499Y-49780000D01*
X162125001Y-49780000D01*
X162125000Y-49780001D01*
X162125000Y-51379998D01*
X161625000Y-51379998D01*
X161625000Y-49780001D01*
X161624999Y-49780000D01*
X160712502Y-49780000D01*
X160712501Y-49780001D01*
X160712501Y-50679986D01*
X159913000Y-50679986D01*
X159912999Y-50011027D01*
X159920966Y-49972118D01*
X159934320Y-49940875D01*
X159944103Y-49917988D01*
X159994191Y-49698537D01*
X160004290Y-49473670D01*
X159978056Y-49279999D01*
X160712500Y-49279999D01*
X160712501Y-49280000D01*
X161624999Y-49280000D01*
X161625000Y-49279999D01*
X162125000Y-49279999D01*
X162125001Y-49280000D01*
X163037498Y-49280000D01*
X163037499Y-49279999D01*
X163037499Y-48380013D01*
X163027007Y-48277312D01*
X163027004Y-48277300D01*
X162971856Y-48110875D01*
X162879819Y-47961659D01*
X162755840Y-47837680D01*
X162606624Y-47745643D01*
X162440193Y-47690493D01*
X162337487Y-47680000D01*
X162125001Y-47680000D01*
X162125000Y-47680001D01*
X162125000Y-49279999D01*
X161625000Y-49279999D01*
X161625000Y-47680001D01*
X161624999Y-47680000D01*
X161412513Y-47680000D01*
X161309812Y-47690492D01*
X161309800Y-47690495D01*
X161143375Y-47745643D01*
X160994159Y-47837680D01*
X160870180Y-47961659D01*
X160778143Y-48110875D01*
X160722993Y-48277306D01*
X160712500Y-48380012D01*
X160712500Y-49279999D01*
X159978056Y-49279999D01*
X159974075Y-49250613D01*
X159917844Y-49077552D01*
X159912999Y-49046959D01*
X159912999Y-48379983D01*
X159902500Y-48277211D01*
X159902499Y-48277209D01*
X159902499Y-48277203D01*
X159847314Y-48110666D01*
X159755212Y-47961344D01*
X159631156Y-47837288D01*
X159631153Y-47837286D01*
X159631152Y-47837285D01*
X159481836Y-47745187D01*
X159481835Y-47745186D01*
X159481834Y-47745186D01*
X159315297Y-47690001D01*
X159315294Y-47690000D01*
X159212516Y-47679500D01*
X158287483Y-47679500D01*
X158184711Y-47689999D01*
X158184699Y-47690002D01*
X158018163Y-47745187D01*
X157868847Y-47837285D01*
X157744785Y-47961347D01*
X157652688Y-48110661D01*
X157652686Y-48110665D01*
X157628547Y-48183511D01*
X157592295Y-48232801D01*
X157533995Y-48251368D01*
X157528759Y-48251199D01*
X156244626Y-48175663D01*
X156241397Y-48175568D01*
X156236560Y-48175426D01*
X156236557Y-48175426D01*
X156236554Y-48175426D01*
X156236544Y-48175426D01*
X156229807Y-48175682D01*
X156223612Y-48175530D01*
X156210006Y-48174341D01*
X156209996Y-48174341D01*
X156177475Y-48177186D01*
X156162496Y-48177359D01*
X156157721Y-48177052D01*
X156157719Y-48177052D01*
X156157717Y-48177052D01*
X154911102Y-48275211D01*
X154906844Y-48275692D01*
X154877032Y-48279059D01*
X154870454Y-48280398D01*
X154865020Y-48281193D01*
X154844440Y-48283045D01*
X154841859Y-48283278D01*
X154835652Y-48283696D01*
X154743587Y-48289903D01*
X154737434Y-48291454D01*
X154722126Y-48294054D01*
X154715818Y-48294621D01*
X154620844Y-48320832D01*
X154525314Y-48344904D01*
X154525307Y-48344906D01*
X154519528Y-48347531D01*
X154504949Y-48352817D01*
X154498830Y-48354506D01*
X154410071Y-48397250D01*
X154320369Y-48437995D01*
X154315165Y-48441601D01*
X154301741Y-48449419D01*
X154296033Y-48452167D01*
X154296028Y-48452170D01*
X154296027Y-48452171D01*
X154288538Y-48457612D01*
X154216318Y-48510082D01*
X154135343Y-48566181D01*
X154130854Y-48570670D01*
X154119063Y-48580741D01*
X154113928Y-48584472D01*
X154113920Y-48584479D01*
X154045846Y-48655679D01*
X151567378Y-51134145D01*
X151563237Y-51137846D01*
X151532337Y-51162488D01*
X151487090Y-51214275D01*
X151484819Y-51216705D01*
X151476059Y-51225466D01*
X151476055Y-51225470D01*
X151449048Y-51257818D01*
X151384236Y-51332002D01*
X151384234Y-51332005D01*
X151380978Y-51337454D01*
X151372004Y-51350102D01*
X151367936Y-51354975D01*
X151367930Y-51354983D01*
X151319316Y-51440659D01*
X151268788Y-51525230D01*
X151268781Y-51525243D01*
X151266552Y-51531183D01*
X151259979Y-51545234D01*
X151256847Y-51550754D01*
X151256845Y-51550758D01*
X151244752Y-51585320D01*
X151224307Y-51643746D01*
X151201250Y-51705180D01*
X151189694Y-51735972D01*
X151189691Y-51735981D01*
X151188560Y-51742215D01*
X151184600Y-51757218D01*
X151182501Y-51763216D01*
X151167089Y-51860527D01*
X151149501Y-51957446D01*
X151149500Y-51957458D01*
X151149500Y-51963795D01*
X151148281Y-51979284D01*
X151147289Y-51985540D01*
X151147289Y-51985542D01*
X151149500Y-52084021D01*
X151149500Y-72360835D01*
X151149450Y-72363056D01*
X151145709Y-72446327D01*
X151149051Y-72470997D01*
X151149500Y-72477649D01*
X151149500Y-99030835D01*
X151149450Y-99033056D01*
X151145709Y-99116327D01*
X151149051Y-99140997D01*
X151149500Y-99147649D01*
X151149500Y-104136018D01*
X151130593Y-104194209D01*
X151120504Y-104206022D01*
X149926022Y-105400504D01*
X149871505Y-105428281D01*
X149856018Y-105429500D01*
X139543982Y-105429500D01*
X139485791Y-105410593D01*
X139473978Y-105400504D01*
X137707992Y-103634518D01*
X137688644Y-103607143D01*
X137617400Y-103457815D01*
X136891187Y-101935657D01*
X136882574Y-101918525D01*
X136880164Y-101912884D01*
X136840822Y-101802185D01*
X136710350Y-101550386D01*
X136546807Y-101318698D01*
X136353239Y-101111437D01*
X136317726Y-101082545D01*
X136133261Y-100932471D01*
X136133258Y-100932469D01*
X136133252Y-100932464D01*
X135995228Y-100848530D01*
X135890947Y-100785115D01*
X135890940Y-100785111D01*
X135630830Y-100672130D01*
X135630828Y-100672129D01*
X135357750Y-100595616D01*
X135357746Y-100595615D01*
X135357744Y-100595615D01*
X135127020Y-100563903D01*
X135076797Y-100557000D01*
X134793203Y-100557000D01*
X134512255Y-100595615D01*
X134512246Y-100595617D01*
X134446112Y-100614147D01*
X134239172Y-100672129D01*
X134239170Y-100672129D01*
X134239169Y-100672130D01*
X133979059Y-100785111D01*
X133979052Y-100785115D01*
X133736754Y-100932460D01*
X133736738Y-100932471D01*
X133516766Y-101111432D01*
X133516765Y-101111433D01*
X133323192Y-101318699D01*
X133323187Y-101318705D01*
X133159650Y-101550385D01*
X133029178Y-101802183D01*
X132934206Y-102069408D01*
X132876510Y-102347061D01*
X132876508Y-102347070D01*
X132857156Y-102629996D01*
X132857156Y-102630003D01*
X127610000Y-102630003D01*
X127610000Y-102532779D01*
X127577526Y-102380000D01*
X128757499Y-102380000D01*
X128757500Y-102379999D01*
X128757500Y-101009675D01*
X128751098Y-100950129D01*
X128751096Y-100950118D01*
X128700853Y-100815411D01*
X128700852Y-100815409D01*
X128614692Y-100700315D01*
X128614684Y-100700307D01*
X128499590Y-100614147D01*
X128499588Y-100614146D01*
X128364881Y-100563903D01*
X128364870Y-100563901D01*
X128305324Y-100557500D01*
X126935001Y-100557500D01*
X126935000Y-100557501D01*
X126935000Y-101738627D01*
X126878378Y-101720230D01*
X126733475Y-101705000D01*
X126636525Y-101705000D01*
X126491622Y-101720230D01*
X126435000Y-101738627D01*
X126435000Y-100557501D01*
X126434999Y-100557500D01*
X125064676Y-100557500D01*
X125005129Y-100563901D01*
X125005118Y-100563903D01*
X124870411Y-100614146D01*
X124870409Y-100614147D01*
X124755315Y-100700307D01*
X124755307Y-100700315D01*
X124669147Y-100815409D01*
X124669146Y-100815411D01*
X124618903Y-100950118D01*
X124618901Y-100950129D01*
X124612500Y-101009675D01*
X124612500Y-102379999D01*
X124612501Y-102380000D01*
X125792474Y-102380000D01*
X125760000Y-102532779D01*
X125760000Y-102727221D01*
X125792474Y-102880000D01*
X124612501Y-102880000D01*
X124612500Y-102880001D01*
X124612500Y-104250324D01*
X124612499Y-104250324D01*
X117691899Y-104250324D01*
X117650155Y-104221094D01*
X117613334Y-104172232D01*
X117612266Y-104111056D01*
X117647360Y-104060935D01*
X117650133Y-104058920D01*
X117836401Y-103928495D01*
X118003495Y-103761401D01*
X118139035Y-103567830D01*
X118238903Y-103353663D01*
X118300063Y-103125408D01*
X118301582Y-103108045D01*
X118320659Y-102890004D01*
X118320659Y-102889995D01*
X118300064Y-102654599D01*
X118300063Y-102654596D01*
X118300063Y-102654592D01*
X118238903Y-102426337D01*
X118201936Y-102347061D01*
X118139040Y-102212181D01*
X118139036Y-102212173D01*
X118105972Y-102164953D01*
X118005967Y-102022129D01*
X118003498Y-102018603D01*
X118003497Y-102018602D01*
X118003495Y-102018599D01*
X117836401Y-101851505D01*
X117836397Y-101851502D01*
X117836396Y-101851501D01*
X117676960Y-101739864D01*
X117650155Y-101721094D01*
X117613334Y-101672232D01*
X117612266Y-101611056D01*
X117647360Y-101560935D01*
X117650133Y-101558920D01*
X117836401Y-101428495D01*
X118003495Y-101261401D01*
X118121851Y-101092370D01*
X118148546Y-101066439D01*
X118150371Y-101065238D01*
X118150375Y-101065237D01*
X118214541Y-101023034D01*
X118279914Y-100982712D01*
X118280566Y-100982058D01*
X118296187Y-100969333D01*
X118296954Y-100968830D01*
X118305270Y-100960016D01*
X118349644Y-100912981D01*
X118952125Y-100310500D01*
X121136933Y-98125690D01*
X121147812Y-98116291D01*
X121168530Y-98100868D01*
X121202469Y-98060419D01*
X121205370Y-98057253D01*
X121211590Y-98051035D01*
X121231923Y-98025318D01*
X121281302Y-97966472D01*
X121281715Y-97965648D01*
X121292543Y-97948651D01*
X121293110Y-97947935D01*
X121325561Y-97878343D01*
X121360040Y-97809691D01*
X121360252Y-97808795D01*
X121366866Y-97789765D01*
X121367256Y-97788931D01*
X121382784Y-97713725D01*
X121400500Y-97638979D01*
X121400500Y-97638044D01*
X121402546Y-97618023D01*
X121402733Y-97617115D01*
X121400500Y-97540360D01*
X121400500Y-90521875D01*
X121419407Y-90463684D01*
X121429496Y-90451871D01*
X121870496Y-90010871D01*
X121925013Y-89983094D01*
X121985445Y-89992665D01*
X122028710Y-90035930D01*
X122039500Y-90080875D01*
X122039500Y-90276609D01*
X122066304Y-90420001D01*
X122078679Y-90486198D01*
X122084335Y-90500798D01*
X122155702Y-90685019D01*
X122155705Y-90685024D01*
X122267946Y-90866300D01*
X122267952Y-90866307D01*
X122313561Y-90916337D01*
X122411593Y-91023872D01*
X122581745Y-91152366D01*
X122772611Y-91247405D01*
X122977690Y-91305756D01*
X123136806Y-91320500D01*
X123136811Y-91320500D01*
X123243189Y-91320500D01*
X123243194Y-91320500D01*
X123402310Y-91305756D01*
X123607389Y-91247405D01*
X123798255Y-91152366D01*
X123968407Y-91023872D01*
X124112052Y-90866302D01*
X124224298Y-90685019D01*
X124301321Y-90486198D01*
X124340500Y-90276610D01*
X124340500Y-90063390D01*
X124301321Y-89853802D01*
X124224298Y-89654981D01*
X124112052Y-89473698D01*
X124111153Y-89472712D01*
X123993512Y-89343667D01*
X123968407Y-89316128D01*
X123798255Y-89187634D01*
X123635504Y-89106594D01*
X123591843Y-89063733D01*
X123581713Y-89003392D01*
X123608985Y-88948621D01*
X123640024Y-88927243D01*
X123712208Y-88895734D01*
X123712214Y-88895731D01*
X123712211Y-88895733D01*
X123716067Y-88893821D01*
X123727480Y-88888164D01*
X123733372Y-88885705D01*
X123739831Y-88883488D01*
X123938649Y-88775893D01*
X124117046Y-88637040D01*
X124270156Y-88470719D01*
X124393802Y-88281465D01*
X124484611Y-88074441D01*
X124540107Y-87855293D01*
X124558775Y-87630000D01*
X124540107Y-87404707D01*
X124484611Y-87185559D01*
X124393802Y-86978535D01*
X124383153Y-86962235D01*
X124270157Y-86789282D01*
X124117048Y-86622962D01*
X124117042Y-86622957D01*
X123938652Y-86484109D01*
X123938649Y-86484107D01*
X123870206Y-86447067D01*
X123828028Y-86402742D01*
X123819958Y-86342091D01*
X123849080Y-86288280D01*
X123870196Y-86272937D01*
X123938649Y-86235893D01*
X124117046Y-86097040D01*
X124270156Y-85930719D01*
X124393802Y-85741465D01*
X124484611Y-85534441D01*
X124540107Y-85315293D01*
X124549543Y-85201404D01*
X124573191Y-85144976D01*
X124625491Y-85113222D01*
X124686468Y-85118274D01*
X124718209Y-85139577D01*
X140395559Y-100816926D01*
X140404965Y-100827811D01*
X140420390Y-100848530D01*
X140460829Y-100882462D01*
X140464008Y-100885375D01*
X140470223Y-100891590D01*
X140495944Y-100911927D01*
X140554786Y-100961302D01*
X140555617Y-100961719D01*
X140572594Y-100972534D01*
X140573323Y-100973111D01*
X140642930Y-101005569D01*
X140711567Y-101040040D01*
X140712465Y-101040252D01*
X140731483Y-101046862D01*
X140732327Y-101047256D01*
X140732330Y-101047256D01*
X140732331Y-101047257D01*
X140807532Y-101062784D01*
X140882278Y-101080500D01*
X140882279Y-101080500D01*
X140883214Y-101080500D01*
X140903232Y-101082545D01*
X140903444Y-101082588D01*
X140904144Y-101082733D01*
X140980898Y-101080500D01*
X146466334Y-101080500D01*
X146501339Y-101086895D01*
X147627242Y-101512511D01*
X147674987Y-101550773D01*
X147691124Y-101609792D01*
X147669489Y-101667024D01*
X147634075Y-101694839D01*
X147537523Y-101739862D01*
X147537519Y-101739864D01*
X147351188Y-101870334D01*
X147190334Y-102031188D01*
X147059865Y-102217518D01*
X146963733Y-102423676D01*
X146911128Y-102620000D01*
X148274314Y-102620000D01*
X148262359Y-102631955D01*
X148204835Y-102744852D01*
X148185014Y-102870000D01*
X148204835Y-102995148D01*
X148262359Y-103108045D01*
X148274314Y-103120000D01*
X146911128Y-103120000D01*
X146963733Y-103316323D01*
X147059865Y-103522481D01*
X147190334Y-103708811D01*
X147351188Y-103869665D01*
X147537518Y-104000134D01*
X147743676Y-104096266D01*
X147963402Y-104155142D01*
X148133232Y-104170000D01*
X148339999Y-104170000D01*
X148340000Y-104169999D01*
X148340000Y-103185686D01*
X148351955Y-103197641D01*
X148464852Y-103255165D01*
X148558519Y-103270000D01*
X148621481Y-103270000D01*
X148715148Y-103255165D01*
X148828045Y-103197641D01*
X148840000Y-103185686D01*
X148840000Y-104169999D01*
X148840001Y-104170000D01*
X149046768Y-104170000D01*
X149216597Y-104155142D01*
X149436323Y-104096266D01*
X149642481Y-104000134D01*
X149828811Y-103869665D01*
X149989665Y-103708811D01*
X150120134Y-103522481D01*
X150216266Y-103316323D01*
X150268872Y-103120000D01*
X148905686Y-103120000D01*
X148917641Y-103108045D01*
X148975165Y-102995148D01*
X148994986Y-102870000D01*
X148975165Y-102744852D01*
X148917641Y-102631955D01*
X148905686Y-102620000D01*
X150268872Y-102620000D01*
X150216266Y-102423676D01*
X150120134Y-102217518D01*
X149989665Y-102031188D01*
X149828811Y-101870334D01*
X149642480Y-101739864D01*
X149642472Y-101739860D01*
X149535545Y-101689999D01*
X149490797Y-101648271D01*
X149479122Y-101588210D01*
X149504980Y-101532757D01*
X149535539Y-101510553D01*
X149642734Y-101460568D01*
X149829139Y-101330047D01*
X149990047Y-101169139D01*
X150120568Y-100982734D01*
X150216739Y-100776496D01*
X150275635Y-100556692D01*
X150289428Y-100399046D01*
X150295468Y-100330003D01*
X150295468Y-100329996D01*
X150275636Y-100103315D01*
X150275635Y-100103312D01*
X150275635Y-100103308D01*
X150216739Y-99883504D01*
X150120568Y-99677266D01*
X150047634Y-99573104D01*
X149990053Y-99490869D01*
X149990052Y-99490867D01*
X149990049Y-99490864D01*
X149990047Y-99490861D01*
X149829139Y-99329953D01*
X149829135Y-99329950D01*
X149829132Y-99329947D01*
X149829130Y-99329946D01*
X149642737Y-99199434D01*
X149642736Y-99199433D01*
X149642734Y-99199432D01*
X149642731Y-99199430D01*
X149642723Y-99199426D01*
X149536137Y-99149724D01*
X149491389Y-99107996D01*
X149479714Y-99047935D01*
X149505572Y-98992482D01*
X149536137Y-98970276D01*
X149642723Y-98920573D01*
X149642721Y-98920573D01*
X149642734Y-98920568D01*
X149829139Y-98790047D01*
X149990047Y-98629139D01*
X150120568Y-98442734D01*
X150216739Y-98236496D01*
X150275635Y-98016692D01*
X150280029Y-97966476D01*
X150295468Y-97790003D01*
X150295468Y-97789996D01*
X150275636Y-97563315D01*
X150275635Y-97563310D01*
X150275635Y-97563308D01*
X150216739Y-97343504D01*
X150149533Y-97199381D01*
X150120573Y-97137276D01*
X150120571Y-97137272D01*
X150120568Y-97137266D01*
X150047634Y-97033104D01*
X149990053Y-96950869D01*
X149990052Y-96950867D01*
X149990049Y-96950864D01*
X149990047Y-96950861D01*
X149829139Y-96789953D01*
X149829135Y-96789950D01*
X149829132Y-96789947D01*
X149829130Y-96789946D01*
X149642737Y-96659434D01*
X149642724Y-96659426D01*
X149535545Y-96609448D01*
X149490797Y-96567720D01*
X149479122Y-96507659D01*
X149504980Y-96452206D01*
X149535545Y-96429999D01*
X149642481Y-96380134D01*
X149828811Y-96249665D01*
X149989665Y-96088811D01*
X150120134Y-95902481D01*
X150216266Y-95696323D01*
X150268872Y-95500000D01*
X148905686Y-95500000D01*
X148917641Y-95488045D01*
X148975165Y-95375148D01*
X148994986Y-95250000D01*
X148975165Y-95124852D01*
X148917641Y-95011955D01*
X148905686Y-95000000D01*
X150268872Y-95000000D01*
X150216266Y-94803676D01*
X150120134Y-94597518D01*
X149989665Y-94411188D01*
X149828811Y-94250334D01*
X149642481Y-94119865D01*
X149436323Y-94023733D01*
X149216597Y-93964857D01*
X149046768Y-93950000D01*
X148840001Y-93950000D01*
X148840000Y-93950001D01*
X148840000Y-94934314D01*
X148828045Y-94922359D01*
X148715148Y-94864835D01*
X148621481Y-94850000D01*
X148558519Y-94850000D01*
X148464852Y-94864835D01*
X148351955Y-94922359D01*
X148340000Y-94934314D01*
X148340000Y-93950001D01*
X148339999Y-93950000D01*
X148133232Y-93950000D01*
X147963402Y-93964857D01*
X147743676Y-94023733D01*
X147537518Y-94119865D01*
X147351188Y-94250334D01*
X147190334Y-94411188D01*
X147059865Y-94597518D01*
X146963733Y-94803676D01*
X146911128Y-95000000D01*
X148274314Y-95000000D01*
X148262359Y-95011955D01*
X148204835Y-95124852D01*
X148185014Y-95250000D01*
X148204835Y-95375148D01*
X148262359Y-95488045D01*
X148274314Y-95500000D01*
X146911128Y-95500000D01*
X146963733Y-95696323D01*
X147059865Y-95902481D01*
X147190334Y-96088811D01*
X147351188Y-96249665D01*
X147537518Y-96380134D01*
X147634074Y-96425159D01*
X147678822Y-96466888D01*
X147690497Y-96526949D01*
X147664639Y-96582402D01*
X147627241Y-96607488D01*
X146853820Y-96899857D01*
X146555874Y-97012488D01*
X146501337Y-97033104D01*
X146466331Y-97039500D01*
X141321876Y-97039500D01*
X141263685Y-97020593D01*
X141251872Y-97010504D01*
X125031844Y-80790476D01*
X125011116Y-80760079D01*
X124979577Y-80687828D01*
X124455732Y-79487790D01*
X124433941Y-79443824D01*
X124433938Y-79443820D01*
X124431440Y-79439798D01*
X124431661Y-79439660D01*
X124422760Y-79424554D01*
X124412352Y-79400826D01*
X124393802Y-79358535D01*
X124270156Y-79169281D01*
X124260326Y-79158603D01*
X124117048Y-79002962D01*
X124117042Y-79002957D01*
X124102323Y-78991501D01*
X124071943Y-78967855D01*
X123938652Y-78864109D01*
X123938649Y-78864107D01*
X123923604Y-78855965D01*
X123870204Y-78827066D01*
X123828028Y-78782744D01*
X123819958Y-78722093D01*
X123849079Y-78668282D01*
X123870203Y-78652934D01*
X123938649Y-78615893D01*
X124117046Y-78477040D01*
X124270156Y-78310719D01*
X124393802Y-78121465D01*
X124484611Y-77914441D01*
X124540107Y-77695293D01*
X124558775Y-77470000D01*
X124540107Y-77244707D01*
X124484611Y-77025559D01*
X124393802Y-76818535D01*
X124376578Y-76792171D01*
X124270157Y-76629282D01*
X124117048Y-76462962D01*
X124117042Y-76462957D01*
X123938652Y-76324109D01*
X123938649Y-76324107D01*
X123938643Y-76324104D01*
X123870204Y-76287066D01*
X123828028Y-76242744D01*
X123819958Y-76182093D01*
X123849079Y-76128282D01*
X123870203Y-76112934D01*
X123938649Y-76075893D01*
X124117046Y-75937040D01*
X124270156Y-75770719D01*
X124393802Y-75581465D01*
X124484611Y-75374441D01*
X124540107Y-75155293D01*
X124558775Y-74930000D01*
X124540107Y-74704707D01*
X124484611Y-74485559D01*
X124393802Y-74278535D01*
X124376578Y-74252171D01*
X124270157Y-74089282D01*
X124117048Y-73922962D01*
X124117042Y-73922957D01*
X124111233Y-73918436D01*
X124022701Y-73849528D01*
X123938652Y-73784109D01*
X123938649Y-73784107D01*
X123938643Y-73784104D01*
X123870204Y-73747066D01*
X123828028Y-73702744D01*
X123819958Y-73642093D01*
X123849079Y-73588282D01*
X123870203Y-73572934D01*
X123938649Y-73535893D01*
X124117046Y-73397040D01*
X124270156Y-73230719D01*
X124393802Y-73041465D01*
X124484611Y-72834441D01*
X124540107Y-72615293D01*
X124558775Y-72390000D01*
X124540107Y-72164707D01*
X124484611Y-71945559D01*
X124393802Y-71738535D01*
X124393799Y-71738530D01*
X124270157Y-71549282D01*
X124117048Y-71382962D01*
X124117042Y-71382957D01*
X123938652Y-71244109D01*
X123938649Y-71244107D01*
X123931045Y-71239992D01*
X123870204Y-71207066D01*
X123828028Y-71162744D01*
X123819958Y-71102093D01*
X123849079Y-71048282D01*
X123870203Y-71032934D01*
X123938649Y-70995893D01*
X124117046Y-70857040D01*
X124270156Y-70690719D01*
X124393802Y-70501465D01*
X124484611Y-70294441D01*
X124540107Y-70075293D01*
X124558775Y-69850000D01*
X124540107Y-69624707D01*
X124484611Y-69405559D01*
X124393802Y-69198535D01*
X124389651Y-69192181D01*
X124270157Y-69009282D01*
X124117048Y-68842962D01*
X124117042Y-68842957D01*
X124102323Y-68831501D01*
X124040889Y-68783684D01*
X123938652Y-68704109D01*
X123938649Y-68704107D01*
X123923604Y-68695965D01*
X123870204Y-68667066D01*
X123828028Y-68622744D01*
X123819958Y-68562093D01*
X123849079Y-68508282D01*
X123870203Y-68492934D01*
X123938649Y-68455893D01*
X124117046Y-68317040D01*
X124270156Y-68150719D01*
X124393802Y-67961465D01*
X124484611Y-67754441D01*
X124540107Y-67535293D01*
X124558775Y-67310000D01*
X124540107Y-67084707D01*
X124484611Y-66865559D01*
X124393802Y-66658535D01*
X124324691Y-66552753D01*
X124270157Y-66469282D01*
X124117048Y-66302962D01*
X124117042Y-66302957D01*
X123938652Y-66164109D01*
X123938649Y-66164107D01*
X123870206Y-66127067D01*
X123828028Y-66082742D01*
X123819958Y-66022091D01*
X123849080Y-65968280D01*
X123870196Y-65952937D01*
X123938649Y-65915893D01*
X124117046Y-65777040D01*
X124270156Y-65610719D01*
X124393802Y-65421465D01*
X124484611Y-65214441D01*
X124540107Y-64995293D01*
X124558775Y-64770000D01*
X124540107Y-64544707D01*
X124484611Y-64325559D01*
X124393802Y-64118535D01*
X124324691Y-64012753D01*
X124270157Y-63929282D01*
X124117048Y-63762962D01*
X124117042Y-63762957D01*
X123938652Y-63624109D01*
X123938649Y-63624107D01*
X123870204Y-63587066D01*
X123828028Y-63542744D01*
X123819958Y-63482093D01*
X123849079Y-63428282D01*
X123870203Y-63412934D01*
X123938649Y-63375893D01*
X124117046Y-63237040D01*
X124270156Y-63070719D01*
X124393802Y-62881465D01*
X124484611Y-62674441D01*
X124540107Y-62455293D01*
X124558775Y-62230000D01*
X124540107Y-62004707D01*
X124484611Y-61785559D01*
X124393802Y-61578535D01*
X124324691Y-61472753D01*
X124270157Y-61389282D01*
X124117048Y-61222962D01*
X124114029Y-61220183D01*
X124114709Y-61219443D01*
X124082836Y-61172370D01*
X124084862Y-61111218D01*
X124122446Y-61062936D01*
X124155190Y-61048564D01*
X124160982Y-61047195D01*
X124295688Y-60996953D01*
X124295690Y-60996952D01*
X124410784Y-60910792D01*
X124410792Y-60910784D01*
X124496952Y-60795690D01*
X124496953Y-60795688D01*
X124547196Y-60660981D01*
X124547198Y-60660970D01*
X124553600Y-60601424D01*
X124553600Y-59940001D01*
X124553599Y-59940000D01*
X123633196Y-59940000D01*
X123656845Y-59903201D01*
X123698000Y-59763039D01*
X123698000Y-59616961D01*
X123656845Y-59476799D01*
X123633196Y-59440000D01*
X124553599Y-59440000D01*
X124553600Y-59439999D01*
X124553600Y-58778575D01*
X124547198Y-58719029D01*
X124547196Y-58719018D01*
X124496953Y-58584311D01*
X124496952Y-58584309D01*
X124410792Y-58469215D01*
X124410784Y-58469207D01*
X124295690Y-58383047D01*
X124295688Y-58383046D01*
X124160978Y-58332802D01*
X124155182Y-58331433D01*
X124102900Y-58299649D01*
X124079285Y-58243204D01*
X124093358Y-58183659D01*
X124114321Y-58160134D01*
X124114029Y-58159817D01*
X124117043Y-58157042D01*
X124117046Y-58157040D01*
X124270156Y-57990719D01*
X124393802Y-57801465D01*
X124484611Y-57594441D01*
X124540107Y-57375293D01*
X124558775Y-57150000D01*
X124540107Y-56924707D01*
X124484611Y-56705559D01*
X124393802Y-56498535D01*
X124389651Y-56492181D01*
X124270157Y-56309282D01*
X124117048Y-56142962D01*
X124117042Y-56142957D01*
X124102323Y-56131501D01*
X124055941Y-56095400D01*
X123938652Y-56004109D01*
X123938649Y-56004107D01*
X123899528Y-55982936D01*
X123870204Y-55967066D01*
X123828028Y-55922744D01*
X123819958Y-55862093D01*
X123849079Y-55808282D01*
X123870203Y-55792934D01*
X123938649Y-55755893D01*
X124117046Y-55617040D01*
X124270156Y-55450719D01*
X124393802Y-55261465D01*
X124484611Y-55054441D01*
X124540107Y-54835293D01*
X124558775Y-54610000D01*
X124540107Y-54384707D01*
X124484611Y-54165559D01*
X124393802Y-53958535D01*
X124383153Y-53942235D01*
X124270157Y-53769282D01*
X124117048Y-53602962D01*
X124117042Y-53602957D01*
X123938652Y-53464109D01*
X123938649Y-53464107D01*
X123870204Y-53427066D01*
X123828028Y-53382744D01*
X123819958Y-53322093D01*
X123849079Y-53268282D01*
X123870203Y-53252934D01*
X123938649Y-53215893D01*
X124117046Y-53077040D01*
X124270156Y-52910719D01*
X124393802Y-52721465D01*
X124484611Y-52514441D01*
X124540107Y-52295293D01*
X124558775Y-52070000D01*
X124540107Y-51844707D01*
X124484611Y-51625559D01*
X124393802Y-51418535D01*
X124376578Y-51392171D01*
X124270157Y-51229282D01*
X124117048Y-51062962D01*
X124117042Y-51062957D01*
X123938652Y-50924109D01*
X123938649Y-50924107D01*
X123739834Y-50816513D01*
X123667570Y-50791705D01*
X123636610Y-50781076D01*
X123587712Y-50744300D01*
X123569770Y-50685804D01*
X123589636Y-50627934D01*
X123624624Y-50598822D01*
X123798255Y-50512366D01*
X123968407Y-50383872D01*
X124112052Y-50226302D01*
X124224298Y-50045019D01*
X124301321Y-49846198D01*
X124340500Y-49636610D01*
X124340500Y-49423390D01*
X124301321Y-49213802D01*
X124224298Y-49014981D01*
X124150346Y-48895545D01*
X124112053Y-48833699D01*
X124112047Y-48833692D01*
X123987388Y-48696949D01*
X123968407Y-48676128D01*
X123798255Y-48547634D01*
X123607389Y-48452595D01*
X123402310Y-48394244D01*
X123402312Y-48394244D01*
X123243196Y-48379500D01*
X123243194Y-48379500D01*
X123136806Y-48379500D01*
X123136803Y-48379500D01*
X122977688Y-48394244D01*
X122823931Y-48437993D01*
X122772611Y-48452595D01*
X122772610Y-48452595D01*
X122772608Y-48452596D01*
X122581752Y-48547630D01*
X122581743Y-48547635D01*
X122482958Y-48622235D01*
X122411593Y-48676128D01*
X122411589Y-48676131D01*
X122411586Y-48676135D01*
X122267952Y-48833692D01*
X122267946Y-48833699D01*
X122155705Y-49014975D01*
X122155702Y-49014980D01*
X122078678Y-49213804D01*
X122039500Y-49423390D01*
X122039500Y-49636609D01*
X122066304Y-49780001D01*
X122078679Y-49846198D01*
X122100248Y-49901875D01*
X122155702Y-50045019D01*
X122155705Y-50045024D01*
X122267946Y-50226300D01*
X122267952Y-50226307D01*
X122362139Y-50329623D01*
X122411593Y-50383872D01*
X122581745Y-50512366D01*
X122581751Y-50512369D01*
X122581756Y-50512372D01*
X122755370Y-50598820D01*
X122799033Y-50641682D01*
X122809163Y-50702023D01*
X122781891Y-50756794D01*
X122743388Y-50781077D01*
X122640165Y-50816513D01*
X122441350Y-50924107D01*
X122441347Y-50924109D01*
X122262957Y-51062957D01*
X122262951Y-51062962D01*
X122109842Y-51229282D01*
X121986200Y-51418530D01*
X121986197Y-51418535D01*
X121895389Y-51625558D01*
X121839892Y-51844708D01*
X121821225Y-52070000D01*
X121839892Y-52295291D01*
X121895389Y-52514441D01*
X121986197Y-52721464D01*
X121986200Y-52721469D01*
X122109842Y-52910717D01*
X122109844Y-52910719D01*
X122262954Y-53077040D01*
X122441351Y-53215893D01*
X122492547Y-53243599D01*
X122509793Y-53252932D01*
X122551971Y-53297257D01*
X122560041Y-53357907D01*
X122530920Y-53411718D01*
X122509793Y-53427068D01*
X122441350Y-53464107D01*
X122441347Y-53464109D01*
X122262957Y-53602957D01*
X122262951Y-53602962D01*
X122109842Y-53769282D01*
X121986200Y-53958530D01*
X121986197Y-53958535D01*
X121895389Y-54165558D01*
X121839892Y-54384708D01*
X121821225Y-54610000D01*
X121839892Y-54835291D01*
X121895389Y-55054441D01*
X121986197Y-55261464D01*
X121986200Y-55261469D01*
X122109842Y-55450717D01*
X122161306Y-55506622D01*
X122262954Y-55617040D01*
X122441351Y-55755893D01*
X122493353Y-55784035D01*
X122509793Y-55792932D01*
X122551971Y-55837257D01*
X122560041Y-55897907D01*
X122530920Y-55951718D01*
X122509793Y-55967068D01*
X122441350Y-56004107D01*
X122441347Y-56004109D01*
X122262957Y-56142957D01*
X122262951Y-56142962D01*
X122109842Y-56309282D01*
X121986200Y-56498530D01*
X121986197Y-56498535D01*
X121895389Y-56705558D01*
X121839892Y-56924708D01*
X121821225Y-57150000D01*
X121839892Y-57375291D01*
X121895389Y-57594441D01*
X121986197Y-57801464D01*
X121986200Y-57801469D01*
X122109842Y-57990717D01*
X122262951Y-58157037D01*
X122265971Y-58159817D01*
X122265289Y-58160557D01*
X122297162Y-58207625D01*
X122295138Y-58268777D01*
X122257557Y-58317060D01*
X122224819Y-58331432D01*
X122219026Y-58332801D01*
X122084311Y-58383046D01*
X122084309Y-58383047D01*
X121969215Y-58469207D01*
X121969207Y-58469215D01*
X121883047Y-58584309D01*
X121883046Y-58584311D01*
X121832803Y-58719018D01*
X121832801Y-58719029D01*
X121826400Y-58778575D01*
X121826400Y-59439999D01*
X121826401Y-59440000D01*
X122746804Y-59440000D01*
X122723155Y-59476799D01*
X122682000Y-59616961D01*
X122682000Y-59763039D01*
X122723155Y-59903201D01*
X122746804Y-59940000D01*
X121826401Y-59940000D01*
X121826400Y-59940001D01*
X121826400Y-60601424D01*
X121826399Y-60601424D01*
X121832801Y-60660970D01*
X121832803Y-60660981D01*
X121883046Y-60795688D01*
X121883047Y-60795690D01*
X121969207Y-60910784D01*
X121969215Y-60910792D01*
X122084309Y-60996952D01*
X122084311Y-60996953D01*
X122204459Y-61041765D01*
X122252374Y-61079815D01*
X122268772Y-61138762D01*
X122247391Y-61196090D01*
X122219734Y-61220044D01*
X122128798Y-61273072D01*
X122069005Y-61286053D01*
X122013002Y-61261408D01*
X122008923Y-61257555D01*
X121429496Y-60678128D01*
X121401719Y-60623611D01*
X121400500Y-60608124D01*
X121400500Y-59731884D01*
X121401545Y-59717537D01*
X121401584Y-59717266D01*
X121405289Y-59691977D01*
X121400687Y-59639376D01*
X121400500Y-59635075D01*
X121400500Y-59626298D01*
X121400500Y-59626291D01*
X121396693Y-59593724D01*
X121389999Y-59517203D01*
X121389704Y-59516315D01*
X121385349Y-59496672D01*
X121385241Y-59495745D01*
X121358974Y-59423576D01*
X121334814Y-59350666D01*
X121334327Y-59349876D01*
X121325554Y-59331754D01*
X121325237Y-59330883D01*
X121283028Y-59266708D01*
X121242712Y-59201345D01*
X121242045Y-59200678D01*
X121229335Y-59185072D01*
X121228830Y-59184304D01*
X121228829Y-59184303D01*
X121172964Y-59131597D01*
X118723101Y-56681733D01*
X118700425Y-56646535D01*
X118659601Y-56537829D01*
X118259644Y-55472838D01*
X118258171Y-55468247D01*
X118238902Y-55396335D01*
X118238901Y-55396333D01*
X118139040Y-55182181D01*
X118139036Y-55182173D01*
X118101250Y-55128209D01*
X118003495Y-54988599D01*
X117836401Y-54821505D01*
X117836397Y-54821502D01*
X117836396Y-54821501D01*
X117751918Y-54762350D01*
X117650155Y-54691094D01*
X117613334Y-54642232D01*
X117612266Y-54581056D01*
X117647360Y-54530935D01*
X117650133Y-54528920D01*
X117836401Y-54398495D01*
X118003495Y-54231401D01*
X118139035Y-54037830D01*
X118238903Y-53823663D01*
X118300063Y-53595408D01*
X118302137Y-53571708D01*
X118320659Y-53360004D01*
X118320659Y-53359995D01*
X118300064Y-53124599D01*
X118300063Y-53124596D01*
X118300063Y-53124592D01*
X118238903Y-52896337D01*
X118238901Y-52896332D01*
X118139040Y-52682181D01*
X118139036Y-52682173D01*
X118061045Y-52570790D01*
X118021590Y-52514441D01*
X118003498Y-52488603D01*
X118003497Y-52488602D01*
X118003495Y-52488599D01*
X117836401Y-52321505D01*
X117836397Y-52321502D01*
X117836393Y-52321498D01*
X117834441Y-52319860D01*
X117833918Y-52319023D01*
X117833344Y-52318449D01*
X117833476Y-52318316D01*
X117802020Y-52267970D01*
X117806292Y-52206934D01*
X117845623Y-52160066D01*
X117866944Y-52150049D01*
X117884125Y-52144356D01*
X118033340Y-52052319D01*
X118157319Y-51928340D01*
X118249356Y-51779124D01*
X118304506Y-51612693D01*
X118315000Y-51509987D01*
X118315000Y-51110001D01*
X118314999Y-51110000D01*
X117243969Y-51110000D01*
X117276519Y-51059351D01*
X117315000Y-50928295D01*
X117315000Y-50791705D01*
X117276519Y-50660649D01*
X117243969Y-50610000D01*
X118314998Y-50610000D01*
X118314999Y-50609999D01*
X118314999Y-50210013D01*
X118304507Y-50107312D01*
X118304504Y-50107300D01*
X118249356Y-49940875D01*
X118157319Y-49791659D01*
X118033340Y-49667680D01*
X117884124Y-49575643D01*
X117717693Y-49520493D01*
X117614987Y-49510000D01*
X117090001Y-49510000D01*
X117090000Y-49510001D01*
X117090000Y-50451981D01*
X116975199Y-50399554D01*
X116873975Y-50385000D01*
X116806025Y-50385000D01*
X116704801Y-50399554D01*
X116590000Y-50451981D01*
X116590000Y-49510001D01*
X116589999Y-49510000D01*
X116065013Y-49510000D01*
X115962312Y-49520492D01*
X115962300Y-49520495D01*
X115795875Y-49575643D01*
X115646659Y-49667680D01*
X115522680Y-49791659D01*
X115430643Y-49940875D01*
X115375493Y-50107306D01*
X115365000Y-50210012D01*
X115365000Y-50609999D01*
X115365001Y-50610000D01*
X116436031Y-50610000D01*
X116403481Y-50660649D01*
X116365000Y-50791705D01*
X116365000Y-50928295D01*
X116403481Y-51059351D01*
X116436031Y-51110000D01*
X115365002Y-51110000D01*
X115365001Y-51110001D01*
X115365001Y-51509986D01*
X115375492Y-51612687D01*
X115375495Y-51612699D01*
X115430643Y-51779124D01*
X115522680Y-51928340D01*
X115646659Y-52052319D01*
X115795873Y-52144355D01*
X115813056Y-52150049D01*
X115862347Y-52186300D01*
X115880916Y-52244599D01*
X115861672Y-52302679D01*
X115845565Y-52319854D01*
X115843610Y-52321494D01*
X115676501Y-52488603D01*
X115540964Y-52682171D01*
X115441097Y-52896337D01*
X115379935Y-53124599D01*
X115359341Y-53359995D01*
X115359341Y-53360004D01*
X115379935Y-53595400D01*
X115379936Y-53595407D01*
X115379937Y-53595408D01*
X115391622Y-53639018D01*
X115441098Y-53823667D01*
X115540959Y-54037818D01*
X115540963Y-54037826D01*
X115658951Y-54206332D01*
X115676505Y-54231401D01*
X115843599Y-54398495D01*
X115843602Y-54398497D01*
X115843603Y-54398498D01*
X116029843Y-54528904D01*
X116066665Y-54577768D01*
X116067733Y-54638945D01*
X116032639Y-54689065D01*
X116029843Y-54691096D01*
X115843603Y-54821501D01*
X115676501Y-54988603D01*
X115540964Y-55182171D01*
X115441097Y-55396337D01*
X115379935Y-55624599D01*
X115359341Y-55859995D01*
X115359341Y-55860004D01*
X115379935Y-56095400D01*
X115441098Y-56323667D01*
X115540959Y-56537818D01*
X115540963Y-56537826D01*
X115658951Y-56706332D01*
X115676505Y-56731401D01*
X115843599Y-56898495D01*
X115843602Y-56898497D01*
X115843603Y-56898498D01*
X116029843Y-57028904D01*
X116066665Y-57077768D01*
X116067733Y-57138945D01*
X116032639Y-57189065D01*
X116029843Y-57191096D01*
X115843603Y-57321501D01*
X115676501Y-57488603D01*
X115540964Y-57682171D01*
X115441097Y-57896337D01*
X115379935Y-58124599D01*
X115359341Y-58359995D01*
X115359341Y-58360004D01*
X115379935Y-58595400D01*
X115441098Y-58823667D01*
X115540959Y-59037818D01*
X115540963Y-59037826D01*
X115672955Y-59226332D01*
X115676505Y-59231401D01*
X115843599Y-59398495D01*
X115843602Y-59398497D01*
X115843603Y-59398498D01*
X115895151Y-59434592D01*
X116037171Y-59534035D01*
X116037172Y-59534035D01*
X116037173Y-59534036D01*
X116037181Y-59534040D01*
X116251333Y-59633901D01*
X116251337Y-59633903D01*
X116479592Y-59695063D01*
X116479596Y-59695063D01*
X116479599Y-59695064D01*
X116656028Y-59710500D01*
X116656034Y-59710500D01*
X117023972Y-59710500D01*
X117200400Y-59695064D01*
X117200401Y-59695063D01*
X117200408Y-59695063D01*
X117428663Y-59633903D01*
X117642829Y-59534035D01*
X117836401Y-59398495D01*
X118003495Y-59231401D01*
X118139035Y-59037830D01*
X118238903Y-58823663D01*
X118300063Y-58595408D01*
X118300064Y-58595400D01*
X118300900Y-58592281D01*
X118334224Y-58540966D01*
X118391345Y-58519039D01*
X118450446Y-58534874D01*
X118466531Y-58547899D01*
X119870504Y-59951871D01*
X119898281Y-60006388D01*
X119899500Y-60021875D01*
X119899500Y-60898115D01*
X119898455Y-60912461D01*
X119894711Y-60938023D01*
X119899312Y-60990624D01*
X119899500Y-60994923D01*
X119899500Y-61003709D01*
X119902773Y-61031718D01*
X119903306Y-61036275D01*
X119910000Y-61112796D01*
X119910299Y-61113697D01*
X119914649Y-61133316D01*
X119914758Y-61134253D01*
X119941025Y-61206423D01*
X119965186Y-61279335D01*
X119965682Y-61280139D01*
X119974437Y-61298222D01*
X119974763Y-61299117D01*
X120016965Y-61363283D01*
X120057288Y-61428656D01*
X120057293Y-61428661D01*
X120057957Y-61429326D01*
X120070654Y-61444913D01*
X120071167Y-61445693D01*
X120127018Y-61498386D01*
X121345559Y-62716926D01*
X121354965Y-62727811D01*
X121370390Y-62748530D01*
X121410829Y-62782462D01*
X121414008Y-62785375D01*
X121420223Y-62791590D01*
X121445944Y-62811927D01*
X121504786Y-62861302D01*
X121505617Y-62861719D01*
X121522594Y-62872534D01*
X121523323Y-62873111D01*
X121592930Y-62905569D01*
X121661567Y-62940040D01*
X121662465Y-62940252D01*
X121681483Y-62946862D01*
X121682327Y-62947256D01*
X121682330Y-62947256D01*
X121682331Y-62947257D01*
X121721381Y-62955320D01*
X121751232Y-62966753D01*
X122404120Y-63347473D01*
X122409595Y-63351176D01*
X122441347Y-63375890D01*
X122441351Y-63375893D01*
X122509793Y-63412932D01*
X122551971Y-63457257D01*
X122560041Y-63517907D01*
X122530920Y-63571718D01*
X122509793Y-63587068D01*
X122441350Y-63624107D01*
X122441347Y-63624109D01*
X122262957Y-63762957D01*
X122262951Y-63762962D01*
X122109842Y-63929282D01*
X121986200Y-64118530D01*
X121986192Y-64118545D01*
X121943631Y-64215576D01*
X121940383Y-64221756D01*
X121924264Y-64247791D01*
X121368879Y-65520082D01*
X121348151Y-65550479D01*
X120308128Y-66590504D01*
X120253611Y-66618281D01*
X120238124Y-66619500D01*
X118791382Y-66619500D01*
X118755460Y-66612753D01*
X117951015Y-66299511D01*
X117903650Y-66260778D01*
X117888099Y-66201602D01*
X117910300Y-66144586D01*
X117934965Y-66122997D01*
X118033340Y-66062319D01*
X118157319Y-65938340D01*
X118249356Y-65789124D01*
X118304506Y-65622693D01*
X118315000Y-65519987D01*
X118315000Y-65120001D01*
X118314999Y-65120000D01*
X117243969Y-65120000D01*
X117276519Y-65069351D01*
X117315000Y-64938295D01*
X117315000Y-64801705D01*
X117276519Y-64670649D01*
X117243969Y-64620000D01*
X118314998Y-64620000D01*
X118314999Y-64619999D01*
X118314999Y-64220013D01*
X118304507Y-64117312D01*
X118304504Y-64117300D01*
X118249356Y-63950875D01*
X118157319Y-63801659D01*
X118033340Y-63677680D01*
X117884124Y-63585643D01*
X117717693Y-63530493D01*
X117614987Y-63520000D01*
X117090001Y-63520000D01*
X117090000Y-63520001D01*
X117090000Y-64461981D01*
X116975199Y-64409554D01*
X116873975Y-64395000D01*
X116806025Y-64395000D01*
X116704801Y-64409554D01*
X116590000Y-64461981D01*
X116590000Y-63520001D01*
X116589999Y-63520000D01*
X116065013Y-63520000D01*
X115962312Y-63530492D01*
X115962300Y-63530495D01*
X115795875Y-63585643D01*
X115646659Y-63677680D01*
X115522680Y-63801659D01*
X115430643Y-63950875D01*
X115375493Y-64117306D01*
X115365000Y-64220012D01*
X115365000Y-64619999D01*
X115365001Y-64620000D01*
X116436031Y-64620000D01*
X116403481Y-64670649D01*
X116365000Y-64801705D01*
X116365000Y-64938295D01*
X116403481Y-65069351D01*
X116436031Y-65120000D01*
X115365002Y-65120000D01*
X115365001Y-65120001D01*
X115365001Y-65519986D01*
X115375492Y-65622687D01*
X115375495Y-65622699D01*
X115430643Y-65789124D01*
X115522680Y-65938340D01*
X115646659Y-66062319D01*
X115795873Y-66154355D01*
X115813056Y-66160049D01*
X115862347Y-66196300D01*
X115880916Y-66254599D01*
X115861672Y-66312679D01*
X115845565Y-66329854D01*
X115843610Y-66331494D01*
X115676501Y-66498603D01*
X115540964Y-66692171D01*
X115441097Y-66906337D01*
X115379935Y-67134599D01*
X115359341Y-67369995D01*
X115359341Y-67370004D01*
X115379935Y-67605400D01*
X115441098Y-67833667D01*
X115540959Y-68047818D01*
X115540963Y-68047826D01*
X115668746Y-68230321D01*
X115676505Y-68241401D01*
X115843599Y-68408495D01*
X115843602Y-68408497D01*
X115843603Y-68408498D01*
X116029843Y-68538904D01*
X116066665Y-68587768D01*
X116067733Y-68648945D01*
X116032639Y-68699065D01*
X116029843Y-68701096D01*
X115843603Y-68831501D01*
X115676501Y-68998603D01*
X115540964Y-69192171D01*
X115441097Y-69406337D01*
X115379935Y-69634599D01*
X115359341Y-69869995D01*
X115359341Y-69870004D01*
X115379935Y-70105400D01*
X115441098Y-70333667D01*
X115540959Y-70547818D01*
X115540963Y-70547826D01*
X115540964Y-70547828D01*
X115540965Y-70547829D01*
X115542485Y-70550000D01*
X115658009Y-70714987D01*
X115676505Y-70741401D01*
X115843599Y-70908495D01*
X115843602Y-70908497D01*
X115843603Y-70908498D01*
X116029843Y-71038904D01*
X116066665Y-71087768D01*
X116067733Y-71148945D01*
X116032639Y-71199065D01*
X116029843Y-71201096D01*
X115843603Y-71331501D01*
X115676501Y-71498603D01*
X115540964Y-71692171D01*
X115441097Y-71906337D01*
X115379935Y-72134599D01*
X115359341Y-72369995D01*
X115359341Y-72370004D01*
X115379935Y-72605400D01*
X115441098Y-72833667D01*
X115540959Y-73047818D01*
X115540963Y-73047826D01*
X115540964Y-73047828D01*
X115540965Y-73047829D01*
X115676505Y-73241401D01*
X115843599Y-73408495D01*
X115843602Y-73408497D01*
X115843603Y-73408498D01*
X116029843Y-73538904D01*
X116066665Y-73587768D01*
X116067733Y-73648945D01*
X116032639Y-73699065D01*
X116029843Y-73701096D01*
X115843603Y-73831501D01*
X115676501Y-73998603D01*
X115540964Y-74192171D01*
X115441097Y-74406337D01*
X115379935Y-74634599D01*
X115359341Y-74869995D01*
X115359341Y-74870004D01*
X115379935Y-75105400D01*
X115379936Y-75105407D01*
X115379937Y-75105408D01*
X115399924Y-75180000D01*
X115441098Y-75333667D01*
X115540959Y-75547818D01*
X115540963Y-75547826D01*
X115645582Y-75697239D01*
X115676505Y-75741401D01*
X115843599Y-75908495D01*
X115843602Y-75908497D01*
X115843603Y-75908498D01*
X116029843Y-76038904D01*
X116066665Y-76087768D01*
X116067733Y-76148945D01*
X116032639Y-76199065D01*
X116029843Y-76201096D01*
X115843603Y-76331501D01*
X115676501Y-76498603D01*
X115540964Y-76692171D01*
X115441095Y-76906340D01*
X115441094Y-76906343D01*
X115421831Y-76978233D01*
X115420357Y-76982826D01*
X114979572Y-78156536D01*
X114956896Y-78191734D01*
X113813069Y-79335561D01*
X113802188Y-79344964D01*
X113781471Y-79360388D01*
X113781469Y-79360390D01*
X113747537Y-79400826D01*
X113744628Y-79404002D01*
X113738414Y-79410218D01*
X113738405Y-79410227D01*
X113718059Y-79435959D01*
X113668698Y-79494785D01*
X113668697Y-79494787D01*
X113668269Y-79495640D01*
X113657481Y-79512574D01*
X113656888Y-79513323D01*
X113634748Y-79560802D01*
X113624424Y-79582942D01*
X113621284Y-79589195D01*
X113598970Y-79633626D01*
X113555958Y-79677142D01*
X113495582Y-79687065D01*
X113440905Y-79659605D01*
X113412811Y-79605251D01*
X113411500Y-79589195D01*
X113411500Y-47470500D01*
X113430407Y-47412309D01*
X113479907Y-47376345D01*
X113510500Y-47371500D01*
X141082795Y-47371500D01*
X141140986Y-47390407D01*
G37*
G04 #@! TD.AperFunction*
G04 #@! TA.AperFunction,Conductor*
G36*
X121371889Y-78227337D02*
G01*
X122475746Y-78660326D01*
X122523014Y-78699176D01*
X122538419Y-78758391D01*
X122516076Y-78815351D01*
X122486715Y-78839556D01*
X122441355Y-78864104D01*
X122441347Y-78864109D01*
X122262957Y-79002957D01*
X122262951Y-79002962D01*
X122109842Y-79169282D01*
X121986200Y-79358530D01*
X121986197Y-79358535D01*
X121895389Y-79565558D01*
X121839892Y-79784708D01*
X121821225Y-80010000D01*
X121839892Y-80235291D01*
X121895389Y-80454441D01*
X121986197Y-80661464D01*
X121986200Y-80661469D01*
X122109842Y-80850717D01*
X122164644Y-80910248D01*
X122262954Y-81017040D01*
X122441351Y-81155893D01*
X122509792Y-81192931D01*
X122551971Y-81237255D01*
X122560041Y-81297905D01*
X122530921Y-81351717D01*
X122509794Y-81367066D01*
X122441355Y-81404104D01*
X122441347Y-81404109D01*
X122262957Y-81542957D01*
X122262951Y-81542962D01*
X122109842Y-81709282D01*
X121986200Y-81898530D01*
X121986197Y-81898535D01*
X121895389Y-82105558D01*
X121839892Y-82324708D01*
X121821225Y-82550000D01*
X121839892Y-82775291D01*
X121895389Y-82994441D01*
X121986197Y-83201464D01*
X121986200Y-83201469D01*
X122109842Y-83390717D01*
X122188622Y-83476295D01*
X122262954Y-83557040D01*
X122441351Y-83695893D01*
X122509792Y-83732931D01*
X122551971Y-83777255D01*
X122560041Y-83837905D01*
X122530921Y-83891717D01*
X122509794Y-83907066D01*
X122441355Y-83944104D01*
X122441347Y-83944109D01*
X122262957Y-84082957D01*
X122262951Y-84082962D01*
X122109842Y-84249282D01*
X121986200Y-84438530D01*
X121986192Y-84438545D01*
X121943631Y-84535576D01*
X121940383Y-84541756D01*
X121924264Y-84567791D01*
X121368879Y-85840083D01*
X121348151Y-85870480D01*
X119118128Y-88100504D01*
X119063611Y-88128281D01*
X119048124Y-88129500D01*
X118791382Y-88129500D01*
X118755460Y-88122753D01*
X117690997Y-87708263D01*
X117643632Y-87669530D01*
X117628081Y-87610354D01*
X117650282Y-87553338D01*
X117670129Y-87534919D01*
X117836401Y-87418495D01*
X118003495Y-87251401D01*
X118139035Y-87057830D01*
X118238903Y-86843663D01*
X118300063Y-86615408D01*
X118302137Y-86591708D01*
X118320659Y-86380004D01*
X118320659Y-86379995D01*
X118300064Y-86144599D01*
X118300063Y-86144596D01*
X118300063Y-86144592D01*
X118238903Y-85916337D01*
X118238901Y-85916332D01*
X118139040Y-85702181D01*
X118139036Y-85702173D01*
X118003498Y-85508603D01*
X118003497Y-85508602D01*
X118003495Y-85508599D01*
X117836401Y-85341505D01*
X117836397Y-85341502D01*
X117836393Y-85341498D01*
X117834441Y-85339860D01*
X117833918Y-85339023D01*
X117833344Y-85338449D01*
X117833476Y-85338316D01*
X117802020Y-85287970D01*
X117806292Y-85226934D01*
X117845623Y-85180066D01*
X117866944Y-85170049D01*
X117884125Y-85164356D01*
X118033340Y-85072319D01*
X118157319Y-84948340D01*
X118249356Y-84799124D01*
X118304506Y-84632693D01*
X118315000Y-84529987D01*
X118315000Y-84130001D01*
X118314999Y-84130000D01*
X117243969Y-84130000D01*
X117276519Y-84079351D01*
X117315000Y-83948295D01*
X117315000Y-83811705D01*
X117276519Y-83680649D01*
X117243969Y-83630000D01*
X118314998Y-83630000D01*
X118314999Y-83629999D01*
X118314999Y-83230013D01*
X118304507Y-83127312D01*
X118304504Y-83127300D01*
X118249356Y-82960875D01*
X118157319Y-82811659D01*
X118033340Y-82687680D01*
X117884124Y-82595643D01*
X117717693Y-82540493D01*
X117614987Y-82530000D01*
X117090001Y-82530000D01*
X117090000Y-82530001D01*
X117090000Y-83471981D01*
X116975199Y-83419554D01*
X116873975Y-83405000D01*
X116806025Y-83405000D01*
X116704801Y-83419554D01*
X116590000Y-83471981D01*
X116590000Y-82530001D01*
X116589999Y-82530000D01*
X116065013Y-82530000D01*
X115962312Y-82540492D01*
X115962300Y-82540495D01*
X115795875Y-82595643D01*
X115646659Y-82687680D01*
X115522680Y-82811659D01*
X115430643Y-82960875D01*
X115375493Y-83127306D01*
X115365000Y-83230012D01*
X115365000Y-83629999D01*
X115365001Y-83630000D01*
X116436031Y-83630000D01*
X116403481Y-83680649D01*
X116365000Y-83811705D01*
X116365000Y-83948295D01*
X116403481Y-84079351D01*
X116436031Y-84130000D01*
X115365002Y-84130000D01*
X115365001Y-84130001D01*
X115365001Y-84529986D01*
X115375492Y-84632687D01*
X115375495Y-84632699D01*
X115430643Y-84799124D01*
X115522680Y-84948340D01*
X115646659Y-85072319D01*
X115795873Y-85164355D01*
X115813056Y-85170049D01*
X115862347Y-85206300D01*
X115880916Y-85264599D01*
X115861672Y-85322679D01*
X115845565Y-85339854D01*
X115843610Y-85341494D01*
X115676501Y-85508603D01*
X115540964Y-85702171D01*
X115441097Y-85916337D01*
X115379935Y-86144599D01*
X115359341Y-86379995D01*
X115359341Y-86380004D01*
X115379935Y-86615400D01*
X115379936Y-86615407D01*
X115379937Y-86615408D01*
X115393564Y-86666266D01*
X115441098Y-86843667D01*
X115540959Y-87057818D01*
X115540963Y-87057826D01*
X115663846Y-87233323D01*
X115676505Y-87251401D01*
X115843599Y-87418495D01*
X115843602Y-87418497D01*
X115843603Y-87418498D01*
X116029843Y-87548904D01*
X116066665Y-87597768D01*
X116067733Y-87658945D01*
X116032639Y-87709065D01*
X116029843Y-87711096D01*
X115843603Y-87841501D01*
X115676501Y-88008603D01*
X115540964Y-88202171D01*
X115441097Y-88416337D01*
X115379935Y-88644599D01*
X115359341Y-88879995D01*
X115359341Y-88880004D01*
X115379935Y-89115400D01*
X115441098Y-89343667D01*
X115540959Y-89557818D01*
X115540963Y-89557826D01*
X115672056Y-89745048D01*
X115676505Y-89751401D01*
X115843599Y-89918495D01*
X115843602Y-89918497D01*
X115843603Y-89918498D01*
X116029843Y-90048904D01*
X116066665Y-90097768D01*
X116067733Y-90158945D01*
X116032639Y-90209065D01*
X116029843Y-90211096D01*
X115843603Y-90341501D01*
X115676501Y-90508603D01*
X115540964Y-90702171D01*
X115441097Y-90916337D01*
X115379935Y-91144599D01*
X115359341Y-91379995D01*
X115359341Y-91380004D01*
X115379935Y-91615400D01*
X115441098Y-91843667D01*
X115540959Y-92057818D01*
X115540963Y-92057826D01*
X115540964Y-92057828D01*
X115540965Y-92057829D01*
X115676505Y-92251401D01*
X115843599Y-92418495D01*
X116037171Y-92554035D01*
X116037172Y-92554035D01*
X116037173Y-92554036D01*
X116037181Y-92554040D01*
X116131413Y-92597981D01*
X116251180Y-92653830D01*
X116251333Y-92653901D01*
X116251337Y-92653903D01*
X116479592Y-92715063D01*
X116479596Y-92715063D01*
X116479599Y-92715064D01*
X116656028Y-92730500D01*
X116656034Y-92730500D01*
X117023972Y-92730500D01*
X117200400Y-92715064D01*
X117200401Y-92715063D01*
X117200408Y-92715063D01*
X117428663Y-92653903D01*
X117642829Y-92554035D01*
X117836401Y-92418495D01*
X118003495Y-92251401D01*
X118139035Y-92057830D01*
X118238903Y-91843663D01*
X118300063Y-91615408D01*
X118310105Y-91500633D01*
X118320659Y-91380004D01*
X118320659Y-91379995D01*
X118300064Y-91144599D01*
X118300063Y-91144596D01*
X118300063Y-91144592D01*
X118238903Y-90916337D01*
X118227455Y-90891786D01*
X118139040Y-90702181D01*
X118139036Y-90702173D01*
X118129258Y-90688209D01*
X118003858Y-90509117D01*
X118003498Y-90508603D01*
X118003497Y-90508602D01*
X118003495Y-90508599D01*
X117836401Y-90341505D01*
X117836397Y-90341502D01*
X117836396Y-90341501D01*
X117670133Y-90225083D01*
X117633311Y-90176218D01*
X117632243Y-90115042D01*
X117667337Y-90064922D01*
X117690990Y-90051736D01*
X118632000Y-89685320D01*
X118755458Y-89637247D01*
X118791380Y-89630500D01*
X119338116Y-89630500D01*
X119352463Y-89631545D01*
X119378023Y-89635289D01*
X119430624Y-89630687D01*
X119434923Y-89630500D01*
X119443701Y-89630500D01*
X119443709Y-89630500D01*
X119476275Y-89626693D01*
X119552789Y-89620000D01*
X119552789Y-89619999D01*
X119552797Y-89619999D01*
X119553687Y-89619703D01*
X119573332Y-89615348D01*
X119574255Y-89615241D01*
X119646423Y-89588974D01*
X119719334Y-89564814D01*
X119720117Y-89564330D01*
X119738245Y-89555554D01*
X119739117Y-89555237D01*
X119803283Y-89513034D01*
X119868656Y-89472712D01*
X119869308Y-89472058D01*
X119884929Y-89459333D01*
X119885696Y-89458830D01*
X119938386Y-89402981D01*
X121314472Y-88026893D01*
X121368987Y-87999118D01*
X121429419Y-88008689D01*
X121472684Y-88051954D01*
X121482255Y-88112386D01*
X121475206Y-88136506D01*
X121368879Y-88380083D01*
X121348151Y-88410480D01*
X120163069Y-89595561D01*
X120152188Y-89604964D01*
X120131471Y-89620388D01*
X120131469Y-89620390D01*
X120097537Y-89660826D01*
X120094628Y-89664002D01*
X120088414Y-89670218D01*
X120088405Y-89670227D01*
X120068059Y-89695959D01*
X120018698Y-89754785D01*
X120018697Y-89754787D01*
X120018269Y-89755640D01*
X120007481Y-89772574D01*
X120006888Y-89773323D01*
X119974424Y-89842942D01*
X119939960Y-89911565D01*
X119939959Y-89911567D01*
X119939744Y-89912478D01*
X119933143Y-89931469D01*
X119932744Y-89932323D01*
X119932740Y-89932335D01*
X119917207Y-90007565D01*
X119899500Y-90082280D01*
X119899500Y-90083209D01*
X119897455Y-90103226D01*
X119897265Y-90104142D01*
X119899500Y-90180916D01*
X119899500Y-97199381D01*
X119880593Y-97257572D01*
X119870504Y-97269385D01*
X118479355Y-98660534D01*
X118424838Y-98688311D01*
X118364406Y-98678740D01*
X118321141Y-98635475D01*
X118310864Y-98580467D01*
X118315000Y-98539986D01*
X118315000Y-98140001D01*
X118314999Y-98140000D01*
X117243969Y-98140000D01*
X117276519Y-98089351D01*
X117315000Y-97958295D01*
X117315000Y-97821705D01*
X117276519Y-97690649D01*
X117243969Y-97640000D01*
X118314998Y-97640000D01*
X118314999Y-97639999D01*
X118314999Y-97240013D01*
X118304507Y-97137312D01*
X118304504Y-97137300D01*
X118249356Y-96970875D01*
X118157319Y-96821659D01*
X118033340Y-96697680D01*
X117884124Y-96605643D01*
X117717693Y-96550493D01*
X117614987Y-96540000D01*
X117090001Y-96540000D01*
X117090000Y-96540001D01*
X117090000Y-97481981D01*
X116975199Y-97429554D01*
X116873975Y-97415000D01*
X116806025Y-97415000D01*
X116704801Y-97429554D01*
X116590000Y-97481981D01*
X116590000Y-96540001D01*
X116589999Y-96540000D01*
X116065013Y-96540000D01*
X115962312Y-96550492D01*
X115962300Y-96550495D01*
X115795875Y-96605643D01*
X115646659Y-96697680D01*
X115522680Y-96821659D01*
X115430643Y-96970875D01*
X115375493Y-97137306D01*
X115365000Y-97240012D01*
X115365000Y-97639999D01*
X115365001Y-97640000D01*
X116436031Y-97640000D01*
X116403481Y-97690649D01*
X116365000Y-97821705D01*
X116365000Y-97958295D01*
X116403481Y-98089351D01*
X116436031Y-98140000D01*
X115365002Y-98140000D01*
X115365001Y-98140001D01*
X115365001Y-98539986D01*
X115375492Y-98642687D01*
X115375495Y-98642699D01*
X115430643Y-98809124D01*
X115522680Y-98958340D01*
X115646659Y-99082319D01*
X115795873Y-99174355D01*
X115813056Y-99180049D01*
X115862347Y-99216300D01*
X115880916Y-99274599D01*
X115861672Y-99332679D01*
X115845565Y-99349854D01*
X115843610Y-99351494D01*
X115676501Y-99518603D01*
X115540964Y-99712171D01*
X115441097Y-99926337D01*
X115379935Y-100154599D01*
X115359341Y-100389995D01*
X115359341Y-100390004D01*
X115379935Y-100625400D01*
X115441098Y-100853667D01*
X115540959Y-101067818D01*
X115540963Y-101067826D01*
X115676498Y-101261392D01*
X115676505Y-101261401D01*
X115843599Y-101428495D01*
X115843602Y-101428497D01*
X115843603Y-101428498D01*
X116029843Y-101558904D01*
X116066665Y-101607768D01*
X116067733Y-101668945D01*
X116032639Y-101719065D01*
X116029843Y-101721096D01*
X115843603Y-101851501D01*
X115676501Y-102018603D01*
X115540964Y-102212171D01*
X115441097Y-102426337D01*
X115379935Y-102654599D01*
X115359341Y-102889995D01*
X115359341Y-102890004D01*
X115379935Y-103125400D01*
X115441098Y-103353667D01*
X115540959Y-103567818D01*
X115540963Y-103567826D01*
X115646025Y-103717872D01*
X115676505Y-103761401D01*
X115843599Y-103928495D01*
X115843602Y-103928497D01*
X115843603Y-103928498D01*
X116029843Y-104058904D01*
X116066665Y-104107768D01*
X116067733Y-104168945D01*
X116032639Y-104219065D01*
X116029843Y-104221096D01*
X115843603Y-104351501D01*
X115676501Y-104518603D01*
X115540964Y-104712171D01*
X115441097Y-104926337D01*
X115379935Y-105154599D01*
X115359341Y-105389995D01*
X115359341Y-105390004D01*
X115379935Y-105625400D01*
X115379936Y-105625407D01*
X115379937Y-105625408D01*
X115420710Y-105777578D01*
X115441098Y-105853667D01*
X115540959Y-106067818D01*
X115540963Y-106067826D01*
X115540964Y-106067828D01*
X115540965Y-106067829D01*
X115676505Y-106261401D01*
X115843599Y-106428495D01*
X115843602Y-106428497D01*
X115843603Y-106428498D01*
X116029843Y-106558904D01*
X116066665Y-106607768D01*
X116067733Y-106668945D01*
X116032639Y-106719065D01*
X116029843Y-106721096D01*
X115843603Y-106851501D01*
X115676501Y-107018603D01*
X115540964Y-107212171D01*
X115487665Y-107326470D01*
X115441097Y-107426337D01*
X115403105Y-107568128D01*
X115379099Y-107657719D01*
X115345775Y-107709033D01*
X115288653Y-107730960D01*
X115229553Y-107715124D01*
X115213468Y-107702100D01*
X115079496Y-107568128D01*
X115051719Y-107513611D01*
X115050500Y-107498124D01*
X115050500Y-80261875D01*
X115069407Y-80203684D01*
X115079496Y-80191871D01*
X115523802Y-79747565D01*
X116027313Y-79244053D01*
X116058346Y-79223052D01*
X117374996Y-78659324D01*
X117388336Y-78654708D01*
X117428663Y-78643903D01*
X117438100Y-78639502D01*
X117450659Y-78635092D01*
X117450551Y-78634753D01*
X117453912Y-78633672D01*
X117453918Y-78633672D01*
X118538859Y-78285087D01*
X118725114Y-78225245D01*
X118755397Y-78220500D01*
X121335738Y-78220500D01*
X121371889Y-78227337D01*
G37*
G04 #@! TD.AperFunction*
G04 #@! TA.AperFunction,Conductor*
G36*
X157902545Y-61977097D02*
G01*
X157909011Y-61983293D01*
X157910000Y-61988000D01*
X157910000Y-62471999D01*
X157906573Y-62480272D01*
X157902545Y-62482902D01*
X156545941Y-63011146D01*
X156536989Y-63010954D01*
X156530891Y-63004732D01*
X156210865Y-62234489D01*
X156210856Y-62225534D01*
X156210865Y-62225511D01*
X156309548Y-61988000D01*
X156530891Y-61455266D01*
X156537230Y-61448942D01*
X156545941Y-61448853D01*
X157902545Y-61977097D01*
G37*
G04 #@! TD.AperFunction*
G04 #@! TA.AperFunction,Conductor*
G36*
X142492016Y-86254359D02*
G01*
X142497565Y-86256798D01*
X143824807Y-86840099D01*
X143831003Y-86846565D01*
X143830914Y-86855276D01*
X143512562Y-87626214D01*
X143506237Y-87632553D01*
X143506214Y-87632562D01*
X142735276Y-87950914D01*
X142726321Y-87950905D01*
X142720099Y-87944807D01*
X142134360Y-86612018D01*
X142134168Y-86603066D01*
X142136796Y-86599040D01*
X142479039Y-86256797D01*
X142487311Y-86253371D01*
X142492016Y-86254359D01*
G37*
G04 #@! TD.AperFunction*
G04 #@! TA.AperFunction,Conductor*
G36*
X157902545Y-79757097D02*
G01*
X157909011Y-79763293D01*
X157910000Y-79768000D01*
X157910000Y-80251999D01*
X157906573Y-80260272D01*
X157902545Y-80262902D01*
X156545941Y-80791146D01*
X156536989Y-80790954D01*
X156530891Y-80784732D01*
X156210865Y-80014489D01*
X156210856Y-80005534D01*
X156210865Y-80005511D01*
X156309548Y-79768000D01*
X156530891Y-79235266D01*
X156537230Y-79228942D01*
X156545941Y-79228853D01*
X157902545Y-79757097D01*
G37*
G04 #@! TD.AperFunction*
G04 #@! TA.AperFunction,Conductor*
G36*
X144293678Y-51749094D02*
G01*
X144299900Y-51755192D01*
X144885639Y-53087981D01*
X144885831Y-53096933D01*
X144883201Y-53100961D01*
X144540961Y-53443201D01*
X144532688Y-53446628D01*
X144527981Y-53445639D01*
X143195192Y-52859900D01*
X143188996Y-52853434D01*
X143189084Y-52844725D01*
X143507438Y-52073783D01*
X143513759Y-52067448D01*
X144284725Y-51749085D01*
X144293678Y-51749094D01*
G37*
G04 #@! TD.AperFunction*
G04 #@! TA.AperFunction,Conductor*
G36*
X156205912Y-48683759D02*
G01*
X156209978Y-48691738D01*
X156210014Y-48692642D01*
X156211000Y-49530000D01*
X156210014Y-50367357D01*
X156206577Y-50375626D01*
X156198300Y-50379043D01*
X156197396Y-50379007D01*
X154950782Y-50280848D01*
X154942803Y-50276782D01*
X154940000Y-50269184D01*
X154940000Y-48790815D01*
X154943427Y-48782542D01*
X154950782Y-48779151D01*
X156197397Y-48680992D01*
X156205912Y-48683759D01*
G37*
G04 #@! TD.AperFunction*
G04 #@! TA.AperFunction,Conductor*
G36*
X117299654Y-66588351D02*
G01*
X118657545Y-67117097D01*
X118664011Y-67123293D01*
X118665000Y-67128000D01*
X118665000Y-67611999D01*
X118661573Y-67620272D01*
X118657545Y-67622902D01*
X117299656Y-68151647D01*
X117290704Y-68151455D01*
X117285268Y-68146575D01*
X116842349Y-67375829D01*
X116841199Y-67366949D01*
X116842350Y-67364170D01*
X116980773Y-67123293D01*
X117285269Y-66593423D01*
X117292360Y-66587960D01*
X117299654Y-66588351D01*
G37*
G04 #@! TD.AperFunction*
G04 #@! TA.AperFunction,Conductor*
G36*
X142492016Y-88794359D02*
G01*
X142497565Y-88796798D01*
X143824807Y-89380099D01*
X143831003Y-89386565D01*
X143830914Y-89395276D01*
X143512562Y-90166214D01*
X143506237Y-90172553D01*
X143506214Y-90172562D01*
X142735276Y-90490914D01*
X142726321Y-90490905D01*
X142720099Y-90484807D01*
X142134360Y-89152018D01*
X142134168Y-89143066D01*
X142136796Y-89139040D01*
X142479039Y-88796797D01*
X142487311Y-88793371D01*
X142492016Y-88794359D01*
G37*
G04 #@! TD.AperFunction*
G04 #@! TA.AperFunction,Conductor*
G36*
X156222345Y-48680726D02*
G01*
X157898987Y-48779352D01*
X157907045Y-48783259D01*
X157910000Y-48791032D01*
X157910000Y-50268967D01*
X157906573Y-50277240D01*
X157898987Y-50280647D01*
X156222372Y-50379272D01*
X156213912Y-50376337D01*
X156210005Y-50368279D01*
X156209985Y-50367606D01*
X156209000Y-49530000D01*
X156209869Y-48791032D01*
X156209985Y-48692391D01*
X156213422Y-48684124D01*
X156221699Y-48680707D01*
X156222345Y-48680726D01*
G37*
G04 #@! TD.AperFunction*
G04 #@! TA.AperFunction,Conductor*
G36*
X117300026Y-76589271D02*
G01*
X118638377Y-77216843D01*
X118644412Y-77223457D01*
X118645109Y-77227435D01*
X118645109Y-77711470D01*
X118641682Y-77719743D01*
X118636988Y-77722609D01*
X117299289Y-78152403D01*
X117290364Y-78151671D01*
X117285566Y-78147094D01*
X117040131Y-77720000D01*
X116842349Y-77375829D01*
X116841199Y-77366949D01*
X116842350Y-77364170D01*
X117284918Y-76594034D01*
X117292010Y-76588570D01*
X117300026Y-76589271D01*
G37*
G04 #@! TD.AperFunction*
G04 #@! TA.AperFunction,Conductor*
G36*
X161734149Y-84213487D02*
G01*
X162368594Y-84840000D01*
X162552669Y-85021773D01*
X162556148Y-85030024D01*
X162552773Y-85038319D01*
X162552768Y-85038324D01*
X161745387Y-85854842D01*
X161737133Y-85858316D01*
X161731680Y-85857002D01*
X160741313Y-85343274D01*
X160735547Y-85336422D01*
X160735000Y-85332888D01*
X160735000Y-84846414D01*
X160738427Y-84838141D01*
X160740404Y-84836552D01*
X161719637Y-84211947D01*
X161728454Y-84210388D01*
X161734149Y-84213487D01*
G37*
G04 #@! TD.AperFunction*
G04 #@! TA.AperFunction,Conductor*
G36*
X156923383Y-94513631D02*
G01*
X158202437Y-94997141D01*
X158208964Y-95003272D01*
X158210000Y-95008085D01*
X158210000Y-95491914D01*
X158206573Y-95500187D01*
X158202437Y-95502858D01*
X156923386Y-95986367D01*
X156914436Y-95986087D01*
X156910797Y-95983512D01*
X156216737Y-95258087D01*
X156213495Y-95249742D01*
X156216738Y-95241912D01*
X156910798Y-94516486D01*
X156918991Y-94512879D01*
X156923383Y-94513631D01*
G37*
G04 #@! TD.AperFunction*
G04 #@! TA.AperFunction,Conductor*
G36*
X139226216Y-69523901D02*
G01*
X139232449Y-69530024D01*
X139722414Y-70652450D01*
X139824899Y-70887224D01*
X139825068Y-70896177D01*
X139822449Y-70900178D01*
X139480178Y-71242449D01*
X139471905Y-71245876D01*
X139467225Y-71244899D01*
X138110024Y-70652449D01*
X138103814Y-70645999D01*
X138103891Y-70637262D01*
X138427438Y-69853783D01*
X138433759Y-69847448D01*
X139217262Y-69523892D01*
X139226216Y-69523901D01*
G37*
G04 #@! TD.AperFunction*
G04 #@! TA.AperFunction,Conductor*
G36*
X142492016Y-76094359D02*
G01*
X142497565Y-76096798D01*
X143824807Y-76680099D01*
X143831003Y-76686565D01*
X143830914Y-76695276D01*
X143512562Y-77466214D01*
X143506237Y-77472553D01*
X143506214Y-77472562D01*
X142735276Y-77790914D01*
X142726321Y-77790905D01*
X142720099Y-77784807D01*
X142134360Y-76452018D01*
X142134168Y-76443066D01*
X142136796Y-76439040D01*
X142479039Y-76096797D01*
X142487311Y-76093371D01*
X142492016Y-76094359D01*
G37*
G04 #@! TD.AperFunction*
G04 #@! TA.AperFunction,Conductor*
G36*
X157902545Y-56897097D02*
G01*
X157909011Y-56903293D01*
X157910000Y-56908000D01*
X157910000Y-57391999D01*
X157906573Y-57400272D01*
X157902545Y-57402902D01*
X156545941Y-57931146D01*
X156536989Y-57930954D01*
X156530891Y-57924732D01*
X156210865Y-57154489D01*
X156210856Y-57145534D01*
X156210865Y-57145511D01*
X156309548Y-56908000D01*
X156530891Y-56375266D01*
X156537230Y-56368942D01*
X156545941Y-56368853D01*
X157902545Y-56897097D01*
G37*
G04 #@! TD.AperFunction*
G04 #@! TA.AperFunction,Conductor*
G36*
X157902545Y-82297097D02*
G01*
X157909011Y-82303293D01*
X157910000Y-82308000D01*
X157910000Y-82791999D01*
X157906573Y-82800272D01*
X157902545Y-82802902D01*
X156545941Y-83331146D01*
X156536989Y-83330954D01*
X156530891Y-83324732D01*
X156210865Y-82554489D01*
X156210856Y-82545534D01*
X156210865Y-82545511D01*
X156309548Y-82308000D01*
X156530891Y-81775266D01*
X156537230Y-81768942D01*
X156545941Y-81768853D01*
X157902545Y-82297097D01*
G37*
G04 #@! TD.AperFunction*
G04 #@! TA.AperFunction,Conductor*
G36*
X122863952Y-61443094D02*
G01*
X122864650Y-61444499D01*
X123189134Y-62225511D01*
X123189143Y-62234466D01*
X123189134Y-62234489D01*
X122864650Y-63015500D01*
X122858311Y-63021825D01*
X122849356Y-63021816D01*
X122847951Y-63021118D01*
X121925806Y-62483385D01*
X121920386Y-62476257D01*
X121920000Y-62473278D01*
X121920000Y-61986721D01*
X121923427Y-61978448D01*
X121925804Y-61976615D01*
X122847951Y-61438880D01*
X122856824Y-61437674D01*
X122863952Y-61443094D01*
G37*
G04 #@! TD.AperFunction*
G04 #@! TA.AperFunction,Conductor*
G36*
X156222345Y-71540726D02*
G01*
X157898987Y-71639352D01*
X157907045Y-71643259D01*
X157910000Y-71651032D01*
X157910000Y-73128967D01*
X157906573Y-73137240D01*
X157898987Y-73140647D01*
X156222372Y-73239272D01*
X156213912Y-73236337D01*
X156210005Y-73228279D01*
X156209985Y-73227606D01*
X156209000Y-72390000D01*
X156209869Y-71651032D01*
X156209985Y-71552391D01*
X156213422Y-71544124D01*
X156221699Y-71540707D01*
X156222345Y-71540726D01*
G37*
G04 #@! TD.AperFunction*
G04 #@! TA.AperFunction,Conductor*
G36*
X143183010Y-63989045D02*
G01*
X143189108Y-63995267D01*
X143509134Y-64765511D01*
X143509143Y-64774466D01*
X143509134Y-64774489D01*
X143189108Y-65544732D01*
X143182769Y-65551057D01*
X143174058Y-65551146D01*
X141817455Y-65022902D01*
X141810989Y-65016706D01*
X141810000Y-65011999D01*
X141810000Y-64528000D01*
X141813427Y-64519727D01*
X141817455Y-64517097D01*
X143174058Y-63988853D01*
X143183010Y-63989045D01*
G37*
G04 #@! TD.AperFunction*
G04 #@! TA.AperFunction,Conductor*
G36*
X157902545Y-77217097D02*
G01*
X157909011Y-77223293D01*
X157910000Y-77228000D01*
X157910000Y-77711999D01*
X157906573Y-77720272D01*
X157902545Y-77722902D01*
X156545941Y-78251146D01*
X156536989Y-78250954D01*
X156530891Y-78244732D01*
X156210865Y-77474489D01*
X156210856Y-77465534D01*
X156210865Y-77465511D01*
X156309548Y-77228000D01*
X156530891Y-76695266D01*
X156537230Y-76688942D01*
X156545941Y-76688853D01*
X157902545Y-77217097D01*
G37*
G04 #@! TD.AperFunction*
G04 #@! TA.AperFunction,Conductor*
G36*
X147885563Y-97053912D02*
G01*
X147889201Y-97056486D01*
X148254700Y-97438502D01*
X148583261Y-97781912D01*
X148586504Y-97790258D01*
X148583261Y-97798088D01*
X147889204Y-98523511D01*
X147881008Y-98527120D01*
X147876613Y-98526367D01*
X146597563Y-98042858D01*
X146591036Y-98036727D01*
X146590000Y-98031914D01*
X146590000Y-97548085D01*
X146593427Y-97539812D01*
X146597563Y-97537141D01*
X147876615Y-97053632D01*
X147885563Y-97053912D01*
G37*
G04 #@! TD.AperFunction*
G04 #@! TA.AperFunction,Conductor*
G36*
X142276822Y-73973322D02*
G01*
X143499317Y-74079075D01*
X143507263Y-74083202D01*
X143510008Y-74090721D01*
X143510702Y-74925846D01*
X143507282Y-74934122D01*
X143507265Y-74934139D01*
X142918075Y-75521945D01*
X142909798Y-75525362D01*
X142901529Y-75521925D01*
X142900777Y-75521096D01*
X142690150Y-75265090D01*
X141924598Y-74334604D01*
X141921989Y-74326040D01*
X141925360Y-74318900D01*
X142267555Y-73976705D01*
X142275827Y-73973279D01*
X142276822Y-73973322D01*
G37*
G04 #@! TD.AperFunction*
G04 #@! TA.AperFunction,Conductor*
G36*
X123986216Y-82223901D02*
G01*
X123992449Y-82230024D01*
X124482414Y-83352450D01*
X124584899Y-83587224D01*
X124585068Y-83596177D01*
X124582449Y-83600178D01*
X124240178Y-83942449D01*
X124231905Y-83945876D01*
X124227225Y-83944899D01*
X122870024Y-83352449D01*
X122863814Y-83345999D01*
X122863891Y-83337262D01*
X123187438Y-82553783D01*
X123193759Y-82547448D01*
X123977262Y-82223892D01*
X123986216Y-82223901D01*
G37*
G04 #@! TD.AperFunction*
G04 #@! TA.AperFunction,Conductor*
G36*
X161481895Y-96374188D02*
G01*
X162950853Y-97005276D01*
X162957101Y-97011689D01*
X162956984Y-97020643D01*
X162956692Y-97021271D01*
X162563072Y-97805991D01*
X162556300Y-97811849D01*
X162555607Y-97812056D01*
X161620492Y-98059527D01*
X161611618Y-98058330D01*
X161606511Y-98052234D01*
X161229534Y-97021271D01*
X161123623Y-96731622D01*
X161124000Y-96722678D01*
X161126335Y-96719337D01*
X161469007Y-96376665D01*
X161477279Y-96373239D01*
X161481895Y-96374188D01*
G37*
G04 #@! TD.AperFunction*
G04 #@! TA.AperFunction,Conductor*
G36*
X162109219Y-81748602D02*
G01*
X162114801Y-81753546D01*
X162557649Y-82524170D01*
X162558800Y-82533051D01*
X162557649Y-82535830D01*
X162114673Y-83306677D01*
X162107580Y-83312142D01*
X162100412Y-83311799D01*
X160746561Y-82802850D01*
X160740023Y-82796731D01*
X160738978Y-82791898D01*
X160738978Y-82307883D01*
X160742405Y-82299610D01*
X160746281Y-82297041D01*
X162100264Y-81748532D01*
X162109219Y-81748602D01*
G37*
G04 #@! TD.AperFunction*
G04 #@! TA.AperFunction,Conductor*
G36*
X117757007Y-55580612D02*
G01*
X117762485Y-55586839D01*
X118266276Y-56928316D01*
X118265977Y-56937265D01*
X118263596Y-56940702D01*
X117920972Y-57283326D01*
X117912699Y-57286753D01*
X117908094Y-57285809D01*
X116443066Y-56658553D01*
X116436809Y-56652146D01*
X116436915Y-56643192D01*
X116437262Y-56642454D01*
X116837040Y-55863680D01*
X116843866Y-55857887D01*
X116843923Y-55857868D01*
X117748093Y-55579769D01*
X117757007Y-55580612D01*
G37*
G04 #@! TD.AperFunction*
G04 #@! TA.AperFunction,Conductor*
G36*
X147885563Y-99593912D02*
G01*
X147889201Y-99596486D01*
X148254700Y-99978502D01*
X148583261Y-100321912D01*
X148586504Y-100330258D01*
X148583261Y-100338088D01*
X147889204Y-101063511D01*
X147881008Y-101067120D01*
X147876613Y-101066367D01*
X146597563Y-100582858D01*
X146591036Y-100576727D01*
X146590000Y-100571914D01*
X146590000Y-100088085D01*
X146593427Y-100079812D01*
X146597563Y-100077141D01*
X147876615Y-99593632D01*
X147885563Y-99593912D01*
G37*
G04 #@! TD.AperFunction*
G04 #@! TA.AperFunction,Conductor*
G36*
X116835991Y-77367842D02*
G01*
X116842891Y-77373550D01*
X116842960Y-77373682D01*
X117242736Y-78152454D01*
X117243465Y-78161379D01*
X117237670Y-78168206D01*
X117236932Y-78168553D01*
X115771905Y-78795809D01*
X115762951Y-78795915D01*
X115759027Y-78793326D01*
X115416403Y-78450702D01*
X115412976Y-78442429D01*
X115413721Y-78438322D01*
X115917513Y-77096838D01*
X115923630Y-77090299D01*
X115931905Y-77089770D01*
X116835991Y-77367842D01*
G37*
G04 #@! TD.AperFunction*
G04 #@! TA.AperFunction,Conductor*
G36*
X122402737Y-64443891D02*
G01*
X123186214Y-64767437D01*
X123192553Y-64773762D01*
X123192562Y-64773785D01*
X123516107Y-65557261D01*
X123516098Y-65566216D01*
X123509974Y-65572450D01*
X122152775Y-66164899D01*
X122143822Y-66165068D01*
X122139821Y-66162449D01*
X121797550Y-65820178D01*
X121794123Y-65811905D01*
X121795098Y-65807229D01*
X122387550Y-64450023D01*
X122394000Y-64443814D01*
X122402737Y-64443891D01*
G37*
G04 #@! TD.AperFunction*
G04 #@! TA.AperFunction,Conductor*
G36*
X139226216Y-77143901D02*
G01*
X139232449Y-77150024D01*
X139722414Y-78272450D01*
X139824899Y-78507224D01*
X139825068Y-78516177D01*
X139822449Y-78520178D01*
X139480178Y-78862449D01*
X139471905Y-78865876D01*
X139467225Y-78864899D01*
X138110024Y-78272449D01*
X138103814Y-78265999D01*
X138103891Y-78257262D01*
X138427438Y-77473783D01*
X138433759Y-77467448D01*
X139217262Y-77143892D01*
X139226216Y-77143901D01*
G37*
G04 #@! TD.AperFunction*
G04 #@! TA.AperFunction,Conductor*
G36*
X122402737Y-87303891D02*
G01*
X123186214Y-87627437D01*
X123192553Y-87633762D01*
X123192562Y-87633785D01*
X123516107Y-88417261D01*
X123516098Y-88426216D01*
X123509974Y-88432450D01*
X122152775Y-89024899D01*
X122143822Y-89025068D01*
X122139821Y-89022449D01*
X121797550Y-88680178D01*
X121794123Y-88671905D01*
X121795098Y-88667229D01*
X122387550Y-87310023D01*
X122394000Y-87303814D01*
X122402737Y-87303891D01*
G37*
G04 #@! TD.AperFunction*
G04 #@! TA.AperFunction,Conductor*
G36*
X157902545Y-54357097D02*
G01*
X157909011Y-54363293D01*
X157910000Y-54368000D01*
X157910000Y-54851999D01*
X157906573Y-54860272D01*
X157902545Y-54862902D01*
X156545941Y-55391146D01*
X156536989Y-55390954D01*
X156530891Y-55384732D01*
X156210865Y-54614489D01*
X156210856Y-54605534D01*
X156210865Y-54605511D01*
X156309548Y-54368000D01*
X156530891Y-53835266D01*
X156537230Y-53828942D01*
X156545941Y-53828853D01*
X157902545Y-54357097D01*
G37*
G04 #@! TD.AperFunction*
G04 #@! TA.AperFunction,Conductor*
G36*
X162109496Y-53888408D02*
G01*
X162114553Y-53893114D01*
X162557649Y-54664170D01*
X162558800Y-54673051D01*
X162557649Y-54675830D01*
X162114941Y-55446210D01*
X162107848Y-55451675D01*
X162100113Y-55451102D01*
X160753951Y-54863064D01*
X160747742Y-54856612D01*
X160746935Y-54852342D01*
X160746935Y-54368310D01*
X160750362Y-54360037D01*
X160754781Y-54357263D01*
X162100557Y-53887897D01*
X162109496Y-53888408D01*
G37*
G04 #@! TD.AperFunction*
G04 #@! TA.AperFunction,Conductor*
G36*
X137642737Y-84763891D02*
G01*
X138426214Y-85087437D01*
X138432553Y-85093762D01*
X138432562Y-85093785D01*
X138756107Y-85877261D01*
X138756098Y-85886216D01*
X138749974Y-85892450D01*
X137392775Y-86484899D01*
X137383822Y-86485068D01*
X137379821Y-86482449D01*
X137037550Y-86140178D01*
X137034123Y-86131905D01*
X137035098Y-86127229D01*
X137627550Y-84770023D01*
X137634000Y-84763814D01*
X137642737Y-84763891D01*
G37*
G04 #@! TD.AperFunction*
G04 #@! TA.AperFunction,Conductor*
G36*
X162109219Y-58888602D02*
G01*
X162114801Y-58893546D01*
X162557649Y-59664170D01*
X162558800Y-59673051D01*
X162557649Y-59675830D01*
X162114673Y-60446677D01*
X162107580Y-60452142D01*
X162100412Y-60451799D01*
X160746561Y-59942850D01*
X160740023Y-59936731D01*
X160738978Y-59931898D01*
X160738978Y-59447883D01*
X160742405Y-59439610D01*
X160746281Y-59437041D01*
X162100264Y-58888532D01*
X162109219Y-58888602D01*
G37*
G04 #@! TD.AperFunction*
G04 #@! TA.AperFunction,Conductor*
G36*
X140149772Y-67057086D02*
G01*
X140156223Y-67063297D01*
X140157200Y-67067978D01*
X140157200Y-67552021D01*
X140153773Y-67560294D01*
X140149772Y-67562913D01*
X138771161Y-68103674D01*
X138762208Y-68103505D01*
X138756085Y-68097272D01*
X138430864Y-67314488D01*
X138430856Y-67305534D01*
X138430865Y-67305511D01*
X138529552Y-67067978D01*
X138756086Y-66522725D01*
X138762423Y-66516403D01*
X138771159Y-66516325D01*
X140149772Y-67057086D01*
G37*
G04 #@! TD.AperFunction*
G04 #@! TA.AperFunction,Conductor*
G36*
X122402737Y-84763891D02*
G01*
X123186214Y-85087437D01*
X123192553Y-85093762D01*
X123192562Y-85093785D01*
X123516107Y-85877261D01*
X123516098Y-85886216D01*
X123509974Y-85892450D01*
X122152775Y-86484899D01*
X122143822Y-86485068D01*
X122139821Y-86482449D01*
X121797550Y-86140178D01*
X121794123Y-86131905D01*
X121795098Y-86127229D01*
X122387550Y-84770023D01*
X122394000Y-84763814D01*
X122402737Y-84763891D01*
G37*
G04 #@! TD.AperFunction*
G04 #@! TA.AperFunction,Conductor*
G36*
X161734149Y-61353487D02*
G01*
X162368594Y-61980000D01*
X162552669Y-62161773D01*
X162556148Y-62170024D01*
X162552773Y-62178319D01*
X162552768Y-62178324D01*
X161745387Y-62994842D01*
X161737133Y-62998316D01*
X161731680Y-62997002D01*
X160741313Y-62483274D01*
X160735547Y-62476422D01*
X160735000Y-62472888D01*
X160735000Y-61986414D01*
X160738427Y-61978141D01*
X160740404Y-61976552D01*
X161719637Y-61351947D01*
X161728454Y-61350388D01*
X161734149Y-61353487D01*
G37*
G04 #@! TD.AperFunction*
G04 #@! TA.AperFunction,Conductor*
G36*
X156206087Y-71543662D02*
G01*
X156209994Y-71551720D01*
X156210014Y-71552393D01*
X156211000Y-72390000D01*
X156210014Y-73227606D01*
X156206577Y-73235875D01*
X156198300Y-73239292D01*
X156197627Y-73239272D01*
X154521013Y-73140647D01*
X154512955Y-73136740D01*
X154510000Y-73128967D01*
X154510000Y-71651032D01*
X154513427Y-71642759D01*
X154521012Y-71639352D01*
X156197629Y-71540727D01*
X156206087Y-71543662D01*
G37*
G04 #@! TD.AperFunction*
G04 #@! TA.AperFunction,Conductor*
G36*
X162554585Y-100308061D02*
G01*
X162562019Y-100313052D01*
X162563090Y-100315063D01*
X162907832Y-101149713D01*
X162907823Y-101158668D01*
X162902020Y-101164757D01*
X161309775Y-101917703D01*
X161300831Y-101918142D01*
X161296500Y-101915399D01*
X160954324Y-101573223D01*
X160950897Y-101564950D01*
X160951803Y-101560437D01*
X161556298Y-100116758D01*
X161562653Y-100110452D01*
X161569397Y-100109809D01*
X162554585Y-100308061D01*
G37*
G04 #@! TD.AperFunction*
G04 #@! TA.AperFunction,Conductor*
G36*
X139226216Y-72063901D02*
G01*
X139232449Y-72070024D01*
X139722414Y-73192450D01*
X139824899Y-73427224D01*
X139825068Y-73436177D01*
X139822449Y-73440178D01*
X139480178Y-73782449D01*
X139471905Y-73785876D01*
X139467225Y-73784899D01*
X138110024Y-73192449D01*
X138103814Y-73185999D01*
X138103891Y-73177262D01*
X138427438Y-72393783D01*
X138433759Y-72387448D01*
X139217262Y-72063892D01*
X139226216Y-72063901D01*
G37*
G04 #@! TD.AperFunction*
G04 #@! TA.AperFunction,Conductor*
G36*
X143183010Y-66529045D02*
G01*
X143189108Y-66535267D01*
X143509134Y-67305511D01*
X143509143Y-67314466D01*
X143509134Y-67314489D01*
X143189108Y-68084732D01*
X143182769Y-68091057D01*
X143174058Y-68091146D01*
X141817455Y-67562902D01*
X141810989Y-67556706D01*
X141810000Y-67551999D01*
X141810000Y-67068000D01*
X141813427Y-67059727D01*
X141817455Y-67057097D01*
X143174058Y-66528853D01*
X143183010Y-66529045D01*
G37*
G04 #@! TD.AperFunction*
G04 #@! TA.AperFunction,Conductor*
G36*
X162109362Y-79248497D02*
G01*
X162114673Y-79253322D01*
X162557649Y-80024170D01*
X162558800Y-80033051D01*
X162557649Y-80035830D01*
X162114801Y-80806453D01*
X162107708Y-80811918D01*
X162100264Y-80811467D01*
X160746285Y-80262960D01*
X160739904Y-80256678D01*
X160738978Y-80252116D01*
X160738978Y-79768101D01*
X160742405Y-79759828D01*
X160746559Y-79757149D01*
X162100413Y-79248200D01*
X162109362Y-79248497D01*
G37*
G04 #@! TD.AperFunction*
G04 #@! TA.AperFunction,Conductor*
G36*
X157902545Y-59437097D02*
G01*
X157909011Y-59443293D01*
X157910000Y-59448000D01*
X157910000Y-59931999D01*
X157906573Y-59940272D01*
X157902545Y-59942902D01*
X156545941Y-60471146D01*
X156536989Y-60470954D01*
X156530891Y-60464732D01*
X156210865Y-59694489D01*
X156210856Y-59685534D01*
X156210865Y-59685511D01*
X156309548Y-59448000D01*
X156530891Y-58915266D01*
X156537230Y-58908942D01*
X156545941Y-58908853D01*
X157902545Y-59437097D01*
G37*
G04 #@! TD.AperFunction*
G04 #@! TA.AperFunction,Conductor*
G36*
X144293678Y-84769094D02*
G01*
X144299900Y-84775192D01*
X144885639Y-86107981D01*
X144885831Y-86116933D01*
X144883201Y-86120961D01*
X144540961Y-86463201D01*
X144532688Y-86466628D01*
X144527981Y-86465639D01*
X143195192Y-85879900D01*
X143188996Y-85873434D01*
X143189084Y-85864725D01*
X143507438Y-85093783D01*
X143513759Y-85087448D01*
X144284725Y-84769085D01*
X144293678Y-84769094D01*
G37*
G04 #@! TD.AperFunction*
M02*
