G04 #@! TF.GenerationSoftware,KiCad,Pcbnew,7.0.8*
G04 #@! TF.CreationDate,2024-01-12T01:57:03-08:00*
G04 #@! TF.ProjectId,rc_v1,72635f76-312e-46b6-9963-61645f706362,0*
G04 #@! TF.SameCoordinates,Original*
G04 #@! TF.FileFunction,Legend,Bot*
G04 #@! TF.FilePolarity,Positive*
%FSLAX46Y46*%
G04 Gerber Fmt 4.6, Leading zero omitted, Abs format (unit mm)*
G04 Created by KiCad (PCBNEW 7.0.8) date 2024-01-12 01:57:03*
%MOMM*%
%LPD*%
G01*
G04 APERTURE LIST*
G04 Aperture macros list*
%AMRoundRect*
0 Rectangle with rounded corners*
0 $1 Rounding radius*
0 $2 $3 $4 $5 $6 $7 $8 $9 X,Y pos of 4 corners*
0 Add a 4 corners polygon primitive as box body*
4,1,4,$2,$3,$4,$5,$6,$7,$8,$9,$2,$3,0*
0 Add four circle primitives for the rounded corners*
1,1,$1+$1,$2,$3*
1,1,$1+$1,$4,$5*
1,1,$1+$1,$6,$7*
1,1,$1+$1,$8,$9*
0 Add four rect primitives between the rounded corners*
20,1,$1+$1,$2,$3,$4,$5,0*
20,1,$1+$1,$4,$5,$6,$7,0*
20,1,$1+$1,$6,$7,$8,$9,0*
20,1,$1+$1,$8,$9,$2,$3,0*%
G04 Aperture macros list end*
%ADD10C,0.150000*%
%ADD11C,0.120000*%
%ADD12C,1.800000*%
%ADD13C,2.300000*%
%ADD14R,1.800000X1.800000*%
%ADD15O,3.000000X3.400000*%
%ADD16C,1.400000*%
%ADD17O,2.100000X1.200000*%
%ADD18C,1.600000*%
%ADD19O,3.000000X1.500000*%
%ADD20O,1.500000X3.000000*%
%ADD21RoundRect,0.237500X0.300000X0.237500X-0.300000X0.237500X-0.300000X-0.237500X0.300000X-0.237500X0*%
%ADD22RoundRect,0.100000X0.100000X0.450000X-0.100000X0.450000X-0.100000X-0.450000X0.100000X-0.450000X0*%
%ADD23RoundRect,0.150000X0.800000X0.150000X-0.800000X0.150000X-0.800000X-0.150000X0.800000X-0.150000X0*%
%ADD24RoundRect,0.250000X-0.450000X0.350000X-0.450000X-0.350000X0.450000X-0.350000X0.450000X0.350000X0*%
%ADD25RoundRect,0.237500X-0.300000X-0.237500X0.300000X-0.237500X0.300000X0.237500X-0.300000X0.237500X0*%
G04 APERTURE END LIST*
D10*
X189663220Y-115649819D02*
X189663220Y-114649819D01*
X189663220Y-114649819D02*
X189425125Y-114649819D01*
X189425125Y-114649819D02*
X189282268Y-114697438D01*
X189282268Y-114697438D02*
X189187030Y-114792676D01*
X189187030Y-114792676D02*
X189139411Y-114887914D01*
X189139411Y-114887914D02*
X189091792Y-115078390D01*
X189091792Y-115078390D02*
X189091792Y-115221247D01*
X189091792Y-115221247D02*
X189139411Y-115411723D01*
X189139411Y-115411723D02*
X189187030Y-115506961D01*
X189187030Y-115506961D02*
X189282268Y-115602200D01*
X189282268Y-115602200D02*
X189425125Y-115649819D01*
X189425125Y-115649819D02*
X189663220Y-115649819D01*
X188663220Y-115554580D02*
X188615601Y-115602200D01*
X188615601Y-115602200D02*
X188663220Y-115649819D01*
X188663220Y-115649819D02*
X188710839Y-115602200D01*
X188710839Y-115602200D02*
X188663220Y-115554580D01*
X188663220Y-115554580D02*
X188663220Y-115649819D01*
X188187030Y-115649819D02*
X188187030Y-114649819D01*
X188187030Y-115126009D02*
X187615602Y-115126009D01*
X187615602Y-115649819D02*
X187615602Y-114649819D01*
X187139411Y-115554580D02*
X187091792Y-115602200D01*
X187091792Y-115602200D02*
X187139411Y-115649819D01*
X187139411Y-115649819D02*
X187187030Y-115602200D01*
X187187030Y-115602200D02*
X187139411Y-115554580D01*
X187139411Y-115554580D02*
X187139411Y-115649819D01*
X186187031Y-115649819D02*
X186663221Y-115649819D01*
X186663221Y-115649819D02*
X186663221Y-114649819D01*
X185853697Y-115554580D02*
X185806078Y-115602200D01*
X185806078Y-115602200D02*
X185853697Y-115649819D01*
X185853697Y-115649819D02*
X185901316Y-115602200D01*
X185901316Y-115602200D02*
X185853697Y-115554580D01*
X185853697Y-115554580D02*
X185853697Y-115649819D01*
X189091792Y-117259819D02*
X189425125Y-116783628D01*
X189663220Y-117259819D02*
X189663220Y-116259819D01*
X189663220Y-116259819D02*
X189282268Y-116259819D01*
X189282268Y-116259819D02*
X189187030Y-116307438D01*
X189187030Y-116307438D02*
X189139411Y-116355057D01*
X189139411Y-116355057D02*
X189091792Y-116450295D01*
X189091792Y-116450295D02*
X189091792Y-116593152D01*
X189091792Y-116593152D02*
X189139411Y-116688390D01*
X189139411Y-116688390D02*
X189187030Y-116736009D01*
X189187030Y-116736009D02*
X189282268Y-116783628D01*
X189282268Y-116783628D02*
X189663220Y-116783628D01*
X188663220Y-116736009D02*
X188329887Y-116736009D01*
X188187030Y-117259819D02*
X188663220Y-117259819D01*
X188663220Y-117259819D02*
X188663220Y-116259819D01*
X188663220Y-116259819D02*
X188187030Y-116259819D01*
X187901315Y-116259819D02*
X187567982Y-117259819D01*
X187567982Y-117259819D02*
X187234649Y-116259819D01*
X186901315Y-117164580D02*
X186853696Y-117212200D01*
X186853696Y-117212200D02*
X186901315Y-117259819D01*
X186901315Y-117259819D02*
X186948934Y-117212200D01*
X186948934Y-117212200D02*
X186901315Y-117164580D01*
X186901315Y-117164580D02*
X186901315Y-117259819D01*
X185472744Y-116259819D02*
X185377506Y-116259819D01*
X185377506Y-116259819D02*
X185282268Y-116307438D01*
X185282268Y-116307438D02*
X185234649Y-116355057D01*
X185234649Y-116355057D02*
X185187030Y-116450295D01*
X185187030Y-116450295D02*
X185139411Y-116640771D01*
X185139411Y-116640771D02*
X185139411Y-116878866D01*
X185139411Y-116878866D02*
X185187030Y-117069342D01*
X185187030Y-117069342D02*
X185234649Y-117164580D01*
X185234649Y-117164580D02*
X185282268Y-117212200D01*
X185282268Y-117212200D02*
X185377506Y-117259819D01*
X185377506Y-117259819D02*
X185472744Y-117259819D01*
X185472744Y-117259819D02*
X185567982Y-117212200D01*
X185567982Y-117212200D02*
X185615601Y-117164580D01*
X185615601Y-117164580D02*
X185663220Y-117069342D01*
X185663220Y-117069342D02*
X185710839Y-116878866D01*
X185710839Y-116878866D02*
X185710839Y-116640771D01*
X185710839Y-116640771D02*
X185663220Y-116450295D01*
X185663220Y-116450295D02*
X185615601Y-116355057D01*
X185615601Y-116355057D02*
X185567982Y-116307438D01*
X185567982Y-116307438D02*
X185472744Y-116259819D01*
X189472744Y-117869819D02*
X189377506Y-117869819D01*
X189377506Y-117869819D02*
X189282268Y-117917438D01*
X189282268Y-117917438D02*
X189234649Y-117965057D01*
X189234649Y-117965057D02*
X189187030Y-118060295D01*
X189187030Y-118060295D02*
X189139411Y-118250771D01*
X189139411Y-118250771D02*
X189139411Y-118488866D01*
X189139411Y-118488866D02*
X189187030Y-118679342D01*
X189187030Y-118679342D02*
X189234649Y-118774580D01*
X189234649Y-118774580D02*
X189282268Y-118822200D01*
X189282268Y-118822200D02*
X189377506Y-118869819D01*
X189377506Y-118869819D02*
X189472744Y-118869819D01*
X189472744Y-118869819D02*
X189567982Y-118822200D01*
X189567982Y-118822200D02*
X189615601Y-118774580D01*
X189615601Y-118774580D02*
X189663220Y-118679342D01*
X189663220Y-118679342D02*
X189710839Y-118488866D01*
X189710839Y-118488866D02*
X189710839Y-118250771D01*
X189710839Y-118250771D02*
X189663220Y-118060295D01*
X189663220Y-118060295D02*
X189615601Y-117965057D01*
X189615601Y-117965057D02*
X189567982Y-117917438D01*
X189567982Y-117917438D02*
X189472744Y-117869819D01*
X188187030Y-118869819D02*
X188758458Y-118869819D01*
X188472744Y-118869819D02*
X188472744Y-117869819D01*
X188472744Y-117869819D02*
X188567982Y-118012676D01*
X188567982Y-118012676D02*
X188663220Y-118107914D01*
X188663220Y-118107914D02*
X188758458Y-118155533D01*
X187044173Y-117822200D02*
X187901315Y-119107914D01*
X186520363Y-117869819D02*
X186425125Y-117869819D01*
X186425125Y-117869819D02*
X186329887Y-117917438D01*
X186329887Y-117917438D02*
X186282268Y-117965057D01*
X186282268Y-117965057D02*
X186234649Y-118060295D01*
X186234649Y-118060295D02*
X186187030Y-118250771D01*
X186187030Y-118250771D02*
X186187030Y-118488866D01*
X186187030Y-118488866D02*
X186234649Y-118679342D01*
X186234649Y-118679342D02*
X186282268Y-118774580D01*
X186282268Y-118774580D02*
X186329887Y-118822200D01*
X186329887Y-118822200D02*
X186425125Y-118869819D01*
X186425125Y-118869819D02*
X186520363Y-118869819D01*
X186520363Y-118869819D02*
X186615601Y-118822200D01*
X186615601Y-118822200D02*
X186663220Y-118774580D01*
X186663220Y-118774580D02*
X186710839Y-118679342D01*
X186710839Y-118679342D02*
X186758458Y-118488866D01*
X186758458Y-118488866D02*
X186758458Y-118250771D01*
X186758458Y-118250771D02*
X186710839Y-118060295D01*
X186710839Y-118060295D02*
X186663220Y-117965057D01*
X186663220Y-117965057D02*
X186615601Y-117917438D01*
X186615601Y-117917438D02*
X186520363Y-117869819D01*
X185853696Y-117869819D02*
X185187030Y-117869819D01*
X185187030Y-117869819D02*
X185615601Y-118869819D01*
X184091792Y-117822200D02*
X184948934Y-119107914D01*
X183806077Y-117965057D02*
X183758458Y-117917438D01*
X183758458Y-117917438D02*
X183663220Y-117869819D01*
X183663220Y-117869819D02*
X183425125Y-117869819D01*
X183425125Y-117869819D02*
X183329887Y-117917438D01*
X183329887Y-117917438D02*
X183282268Y-117965057D01*
X183282268Y-117965057D02*
X183234649Y-118060295D01*
X183234649Y-118060295D02*
X183234649Y-118155533D01*
X183234649Y-118155533D02*
X183282268Y-118298390D01*
X183282268Y-118298390D02*
X183853696Y-118869819D01*
X183853696Y-118869819D02*
X183234649Y-118869819D01*
X182615601Y-117869819D02*
X182520363Y-117869819D01*
X182520363Y-117869819D02*
X182425125Y-117917438D01*
X182425125Y-117917438D02*
X182377506Y-117965057D01*
X182377506Y-117965057D02*
X182329887Y-118060295D01*
X182329887Y-118060295D02*
X182282268Y-118250771D01*
X182282268Y-118250771D02*
X182282268Y-118488866D01*
X182282268Y-118488866D02*
X182329887Y-118679342D01*
X182329887Y-118679342D02*
X182377506Y-118774580D01*
X182377506Y-118774580D02*
X182425125Y-118822200D01*
X182425125Y-118822200D02*
X182520363Y-118869819D01*
X182520363Y-118869819D02*
X182615601Y-118869819D01*
X182615601Y-118869819D02*
X182710839Y-118822200D01*
X182710839Y-118822200D02*
X182758458Y-118774580D01*
X182758458Y-118774580D02*
X182806077Y-118679342D01*
X182806077Y-118679342D02*
X182853696Y-118488866D01*
X182853696Y-118488866D02*
X182853696Y-118250771D01*
X182853696Y-118250771D02*
X182806077Y-118060295D01*
X182806077Y-118060295D02*
X182758458Y-117965057D01*
X182758458Y-117965057D02*
X182710839Y-117917438D01*
X182710839Y-117917438D02*
X182615601Y-117869819D01*
X181901315Y-117965057D02*
X181853696Y-117917438D01*
X181853696Y-117917438D02*
X181758458Y-117869819D01*
X181758458Y-117869819D02*
X181520363Y-117869819D01*
X181520363Y-117869819D02*
X181425125Y-117917438D01*
X181425125Y-117917438D02*
X181377506Y-117965057D01*
X181377506Y-117965057D02*
X181329887Y-118060295D01*
X181329887Y-118060295D02*
X181329887Y-118155533D01*
X181329887Y-118155533D02*
X181377506Y-118298390D01*
X181377506Y-118298390D02*
X181948934Y-118869819D01*
X181948934Y-118869819D02*
X181329887Y-118869819D01*
X180472744Y-118203152D02*
X180472744Y-118869819D01*
X180710839Y-117822200D02*
X180948934Y-118536485D01*
X180948934Y-118536485D02*
X180329887Y-118536485D01*
X143529666Y-92993580D02*
X143577285Y-93041200D01*
X143577285Y-93041200D02*
X143720142Y-93088819D01*
X143720142Y-93088819D02*
X143815380Y-93088819D01*
X143815380Y-93088819D02*
X143958237Y-93041200D01*
X143958237Y-93041200D02*
X144053475Y-92945961D01*
X144053475Y-92945961D02*
X144101094Y-92850723D01*
X144101094Y-92850723D02*
X144148713Y-92660247D01*
X144148713Y-92660247D02*
X144148713Y-92517390D01*
X144148713Y-92517390D02*
X144101094Y-92326914D01*
X144101094Y-92326914D02*
X144053475Y-92231676D01*
X144053475Y-92231676D02*
X143958237Y-92136438D01*
X143958237Y-92136438D02*
X143815380Y-92088819D01*
X143815380Y-92088819D02*
X143720142Y-92088819D01*
X143720142Y-92088819D02*
X143577285Y-92136438D01*
X143577285Y-92136438D02*
X143529666Y-92184057D01*
X142672523Y-92422152D02*
X142672523Y-93088819D01*
X142910618Y-92041200D02*
X143148713Y-92755485D01*
X143148713Y-92755485D02*
X142529666Y-92755485D01*
X149585904Y-95644819D02*
X149585904Y-96454342D01*
X149585904Y-96454342D02*
X149538285Y-96549580D01*
X149538285Y-96549580D02*
X149490666Y-96597200D01*
X149490666Y-96597200D02*
X149395428Y-96644819D01*
X149395428Y-96644819D02*
X149204952Y-96644819D01*
X149204952Y-96644819D02*
X149109714Y-96597200D01*
X149109714Y-96597200D02*
X149062095Y-96549580D01*
X149062095Y-96549580D02*
X149014476Y-96454342D01*
X149014476Y-96454342D02*
X149014476Y-95644819D01*
X148109714Y-95978152D02*
X148109714Y-96644819D01*
X148347809Y-95597200D02*
X148585904Y-96311485D01*
X148585904Y-96311485D02*
X147966857Y-96311485D01*
X160761904Y-92104819D02*
X160761904Y-92914342D01*
X160761904Y-92914342D02*
X160714285Y-93009580D01*
X160714285Y-93009580D02*
X160666666Y-93057200D01*
X160666666Y-93057200D02*
X160571428Y-93104819D01*
X160571428Y-93104819D02*
X160380952Y-93104819D01*
X160380952Y-93104819D02*
X160285714Y-93057200D01*
X160285714Y-93057200D02*
X160238095Y-93009580D01*
X160238095Y-93009580D02*
X160190476Y-92914342D01*
X160190476Y-92914342D02*
X160190476Y-92104819D01*
X159809523Y-92104819D02*
X159190476Y-92104819D01*
X159190476Y-92104819D02*
X159523809Y-92485771D01*
X159523809Y-92485771D02*
X159380952Y-92485771D01*
X159380952Y-92485771D02*
X159285714Y-92533390D01*
X159285714Y-92533390D02*
X159238095Y-92581009D01*
X159238095Y-92581009D02*
X159190476Y-92676247D01*
X159190476Y-92676247D02*
X159190476Y-92914342D01*
X159190476Y-92914342D02*
X159238095Y-93009580D01*
X159238095Y-93009580D02*
X159285714Y-93057200D01*
X159285714Y-93057200D02*
X159380952Y-93104819D01*
X159380952Y-93104819D02*
X159666666Y-93104819D01*
X159666666Y-93104819D02*
X159761904Y-93057200D01*
X159761904Y-93057200D02*
X159809523Y-93009580D01*
X98571666Y-82404819D02*
X98904999Y-81928628D01*
X99143094Y-82404819D02*
X99143094Y-81404819D01*
X99143094Y-81404819D02*
X98762142Y-81404819D01*
X98762142Y-81404819D02*
X98666904Y-81452438D01*
X98666904Y-81452438D02*
X98619285Y-81500057D01*
X98619285Y-81500057D02*
X98571666Y-81595295D01*
X98571666Y-81595295D02*
X98571666Y-81738152D01*
X98571666Y-81738152D02*
X98619285Y-81833390D01*
X98619285Y-81833390D02*
X98666904Y-81881009D01*
X98666904Y-81881009D02*
X98762142Y-81928628D01*
X98762142Y-81928628D02*
X99143094Y-81928628D01*
X97666904Y-81404819D02*
X98143094Y-81404819D01*
X98143094Y-81404819D02*
X98190713Y-81881009D01*
X98190713Y-81881009D02*
X98143094Y-81833390D01*
X98143094Y-81833390D02*
X98047856Y-81785771D01*
X98047856Y-81785771D02*
X97809761Y-81785771D01*
X97809761Y-81785771D02*
X97714523Y-81833390D01*
X97714523Y-81833390D02*
X97666904Y-81881009D01*
X97666904Y-81881009D02*
X97619285Y-81976247D01*
X97619285Y-81976247D02*
X97619285Y-82214342D01*
X97619285Y-82214342D02*
X97666904Y-82309580D01*
X97666904Y-82309580D02*
X97714523Y-82357200D01*
X97714523Y-82357200D02*
X97809761Y-82404819D01*
X97809761Y-82404819D02*
X98047856Y-82404819D01*
X98047856Y-82404819D02*
X98143094Y-82357200D01*
X98143094Y-82357200D02*
X98190713Y-82309580D01*
X143529666Y-100105580D02*
X143577285Y-100153200D01*
X143577285Y-100153200D02*
X143720142Y-100200819D01*
X143720142Y-100200819D02*
X143815380Y-100200819D01*
X143815380Y-100200819D02*
X143958237Y-100153200D01*
X143958237Y-100153200D02*
X144053475Y-100057961D01*
X144053475Y-100057961D02*
X144101094Y-99962723D01*
X144101094Y-99962723D02*
X144148713Y-99772247D01*
X144148713Y-99772247D02*
X144148713Y-99629390D01*
X144148713Y-99629390D02*
X144101094Y-99438914D01*
X144101094Y-99438914D02*
X144053475Y-99343676D01*
X144053475Y-99343676D02*
X143958237Y-99248438D01*
X143958237Y-99248438D02*
X143815380Y-99200819D01*
X143815380Y-99200819D02*
X143720142Y-99200819D01*
X143720142Y-99200819D02*
X143577285Y-99248438D01*
X143577285Y-99248438D02*
X143529666Y-99296057D01*
X143196332Y-99200819D02*
X142577285Y-99200819D01*
X142577285Y-99200819D02*
X142910618Y-99581771D01*
X142910618Y-99581771D02*
X142767761Y-99581771D01*
X142767761Y-99581771D02*
X142672523Y-99629390D01*
X142672523Y-99629390D02*
X142624904Y-99677009D01*
X142624904Y-99677009D02*
X142577285Y-99772247D01*
X142577285Y-99772247D02*
X142577285Y-100010342D01*
X142577285Y-100010342D02*
X142624904Y-100105580D01*
X142624904Y-100105580D02*
X142672523Y-100153200D01*
X142672523Y-100153200D02*
X142767761Y-100200819D01*
X142767761Y-100200819D02*
X143053475Y-100200819D01*
X143053475Y-100200819D02*
X143148713Y-100153200D01*
X143148713Y-100153200D02*
X143196332Y-100105580D01*
X103651666Y-82404819D02*
X103984999Y-81928628D01*
X104223094Y-82404819D02*
X104223094Y-81404819D01*
X104223094Y-81404819D02*
X103842142Y-81404819D01*
X103842142Y-81404819D02*
X103746904Y-81452438D01*
X103746904Y-81452438D02*
X103699285Y-81500057D01*
X103699285Y-81500057D02*
X103651666Y-81595295D01*
X103651666Y-81595295D02*
X103651666Y-81738152D01*
X103651666Y-81738152D02*
X103699285Y-81833390D01*
X103699285Y-81833390D02*
X103746904Y-81881009D01*
X103746904Y-81881009D02*
X103842142Y-81928628D01*
X103842142Y-81928628D02*
X104223094Y-81928628D01*
X102794523Y-81404819D02*
X102984999Y-81404819D01*
X102984999Y-81404819D02*
X103080237Y-81452438D01*
X103080237Y-81452438D02*
X103127856Y-81500057D01*
X103127856Y-81500057D02*
X103223094Y-81642914D01*
X103223094Y-81642914D02*
X103270713Y-81833390D01*
X103270713Y-81833390D02*
X103270713Y-82214342D01*
X103270713Y-82214342D02*
X103223094Y-82309580D01*
X103223094Y-82309580D02*
X103175475Y-82357200D01*
X103175475Y-82357200D02*
X103080237Y-82404819D01*
X103080237Y-82404819D02*
X102889761Y-82404819D01*
X102889761Y-82404819D02*
X102794523Y-82357200D01*
X102794523Y-82357200D02*
X102746904Y-82309580D01*
X102746904Y-82309580D02*
X102699285Y-82214342D01*
X102699285Y-82214342D02*
X102699285Y-81976247D01*
X102699285Y-81976247D02*
X102746904Y-81881009D01*
X102746904Y-81881009D02*
X102794523Y-81833390D01*
X102794523Y-81833390D02*
X102889761Y-81785771D01*
X102889761Y-81785771D02*
X103080237Y-81785771D01*
X103080237Y-81785771D02*
X103175475Y-81833390D01*
X103175475Y-81833390D02*
X103223094Y-81881009D01*
X103223094Y-81881009D02*
X103270713Y-81976247D01*
X150006666Y-99343580D02*
X150054285Y-99391200D01*
X150054285Y-99391200D02*
X150197142Y-99438819D01*
X150197142Y-99438819D02*
X150292380Y-99438819D01*
X150292380Y-99438819D02*
X150435237Y-99391200D01*
X150435237Y-99391200D02*
X150530475Y-99295961D01*
X150530475Y-99295961D02*
X150578094Y-99200723D01*
X150578094Y-99200723D02*
X150625713Y-99010247D01*
X150625713Y-99010247D02*
X150625713Y-98867390D01*
X150625713Y-98867390D02*
X150578094Y-98676914D01*
X150578094Y-98676914D02*
X150530475Y-98581676D01*
X150530475Y-98581676D02*
X150435237Y-98486438D01*
X150435237Y-98486438D02*
X150292380Y-98438819D01*
X150292380Y-98438819D02*
X150197142Y-98438819D01*
X150197142Y-98438819D02*
X150054285Y-98486438D01*
X150054285Y-98486438D02*
X150006666Y-98534057D01*
X149054285Y-99438819D02*
X149625713Y-99438819D01*
X149339999Y-99438819D02*
X149339999Y-98438819D01*
X149339999Y-98438819D02*
X149435237Y-98581676D01*
X149435237Y-98581676D02*
X149530475Y-98676914D01*
X149530475Y-98676914D02*
X149625713Y-98724533D01*
X108731666Y-82404819D02*
X109064999Y-81928628D01*
X109303094Y-82404819D02*
X109303094Y-81404819D01*
X109303094Y-81404819D02*
X108922142Y-81404819D01*
X108922142Y-81404819D02*
X108826904Y-81452438D01*
X108826904Y-81452438D02*
X108779285Y-81500057D01*
X108779285Y-81500057D02*
X108731666Y-81595295D01*
X108731666Y-81595295D02*
X108731666Y-81738152D01*
X108731666Y-81738152D02*
X108779285Y-81833390D01*
X108779285Y-81833390D02*
X108826904Y-81881009D01*
X108826904Y-81881009D02*
X108922142Y-81928628D01*
X108922142Y-81928628D02*
X109303094Y-81928628D01*
X108398332Y-81404819D02*
X107731666Y-81404819D01*
X107731666Y-81404819D02*
X108160237Y-82404819D01*
X150006666Y-100994580D02*
X150054285Y-101042200D01*
X150054285Y-101042200D02*
X150197142Y-101089819D01*
X150197142Y-101089819D02*
X150292380Y-101089819D01*
X150292380Y-101089819D02*
X150435237Y-101042200D01*
X150435237Y-101042200D02*
X150530475Y-100946961D01*
X150530475Y-100946961D02*
X150578094Y-100851723D01*
X150578094Y-100851723D02*
X150625713Y-100661247D01*
X150625713Y-100661247D02*
X150625713Y-100518390D01*
X150625713Y-100518390D02*
X150578094Y-100327914D01*
X150578094Y-100327914D02*
X150530475Y-100232676D01*
X150530475Y-100232676D02*
X150435237Y-100137438D01*
X150435237Y-100137438D02*
X150292380Y-100089819D01*
X150292380Y-100089819D02*
X150197142Y-100089819D01*
X150197142Y-100089819D02*
X150054285Y-100137438D01*
X150054285Y-100137438D02*
X150006666Y-100185057D01*
X149625713Y-100185057D02*
X149578094Y-100137438D01*
X149578094Y-100137438D02*
X149482856Y-100089819D01*
X149482856Y-100089819D02*
X149244761Y-100089819D01*
X149244761Y-100089819D02*
X149149523Y-100137438D01*
X149149523Y-100137438D02*
X149101904Y-100185057D01*
X149101904Y-100185057D02*
X149054285Y-100280295D01*
X149054285Y-100280295D02*
X149054285Y-100375533D01*
X149054285Y-100375533D02*
X149101904Y-100518390D01*
X149101904Y-100518390D02*
X149673332Y-101089819D01*
X149673332Y-101089819D02*
X149054285Y-101089819D01*
D11*
X146176267Y-93144000D02*
X145883733Y-93144000D01*
X146176267Y-92124000D02*
X145883733Y-92124000D01*
X144530000Y-94690000D02*
X144530000Y-97690000D01*
X147530000Y-94690000D02*
X147530000Y-98690000D01*
X163860000Y-106510000D02*
X163860000Y-106275000D01*
X163860000Y-93725000D02*
X165550000Y-93725000D01*
X163860000Y-93490000D02*
X163860000Y-93725000D01*
X160000000Y-106510000D02*
X163860000Y-106510000D01*
X160000000Y-106510000D02*
X156140000Y-106510000D01*
X160000000Y-93490000D02*
X163860000Y-93490000D01*
X160000000Y-93490000D02*
X156140000Y-93490000D01*
X156140000Y-106510000D02*
X156140000Y-106275000D01*
X156140000Y-93490000D02*
X156140000Y-93725000D01*
X99140000Y-79182936D02*
X99140000Y-79637064D01*
X97670000Y-79182936D02*
X97670000Y-79637064D01*
X145883733Y-99236000D02*
X146176267Y-99236000D01*
X145883733Y-100256000D02*
X146176267Y-100256000D01*
X104220000Y-79182936D02*
X104220000Y-79637064D01*
X102750000Y-79182936D02*
X102750000Y-79637064D01*
X152679767Y-99494000D02*
X152387233Y-99494000D01*
X152679767Y-98474000D02*
X152387233Y-98474000D01*
X109300000Y-79182936D02*
X109300000Y-79637064D01*
X107830000Y-79182936D02*
X107830000Y-79637064D01*
X152679767Y-101145000D02*
X152387233Y-101145000D01*
X152679767Y-100125000D02*
X152387233Y-100125000D01*
%LPC*%
D12*
X111750000Y-103750000D03*
X118250000Y-103750000D03*
X111750000Y-108250000D03*
X118250000Y-108250000D03*
D13*
X193500000Y-117250000D03*
X193500000Y-104750000D03*
X198500000Y-117250000D03*
X198500000Y-104750000D03*
X193500000Y-95250000D03*
X193500000Y-82750000D03*
X198500000Y-95250000D03*
X198500000Y-82750000D03*
D14*
X113460000Y-77000000D03*
D12*
X116000000Y-77000000D03*
X118540000Y-77000000D03*
X93750000Y-103750000D03*
X100250000Y-103750000D03*
X93750000Y-108250000D03*
X100250000Y-108250000D03*
D14*
X96000000Y-75730000D03*
D12*
X96000000Y-78270000D03*
X184500000Y-82000000D03*
X182000000Y-82000000D03*
X179500000Y-82000000D03*
D15*
X186400000Y-89000000D03*
X177600000Y-89000000D03*
D12*
X125380000Y-77140000D03*
X125380000Y-117780000D03*
X140620000Y-77140000D03*
X140620000Y-117780000D03*
D16*
X94000000Y-87000000D03*
D17*
X94000000Y-84900000D03*
D16*
X94000000Y-89000000D03*
D17*
X94000000Y-93100000D03*
D16*
X94000000Y-91000000D03*
D12*
X102750000Y-113750000D03*
X109250000Y-113750000D03*
X102750000Y-118250000D03*
X109250000Y-118250000D03*
D18*
X100000000Y-95000000D03*
X112000000Y-83000000D03*
D19*
X115000000Y-87000000D03*
X115000000Y-89000000D03*
X115000000Y-91000000D03*
D20*
X104000000Y-98000000D03*
X106000000Y-98000000D03*
X108000000Y-98000000D03*
D12*
X93750000Y-113750000D03*
X100250000Y-113750000D03*
X93750000Y-118250000D03*
X100250000Y-118250000D03*
D14*
X101000000Y-75730000D03*
D12*
X101000000Y-78270000D03*
X111750000Y-113750000D03*
X118250000Y-113750000D03*
X111750000Y-118250000D03*
X118250000Y-118250000D03*
D14*
X106000000Y-75730000D03*
D12*
X106000000Y-78270000D03*
X102750000Y-103750000D03*
X109250000Y-103750000D03*
X102750000Y-108250000D03*
X109250000Y-108250000D03*
X184500000Y-104000000D03*
X182000000Y-104000000D03*
X179500000Y-104000000D03*
D15*
X186400000Y-111000000D03*
X177600000Y-111000000D03*
D21*
X146892500Y-92634000D03*
X145167500Y-92634000D03*
D22*
X147005000Y-98090000D03*
X146355000Y-98090000D03*
X145705000Y-98090000D03*
X145055000Y-98090000D03*
X145055000Y-94290000D03*
X145705000Y-94290000D03*
X146355000Y-94290000D03*
X147005000Y-94290000D03*
D23*
X164600000Y-94285000D03*
X164600000Y-95555000D03*
X164600000Y-96825000D03*
X164600000Y-98095000D03*
X164600000Y-99365000D03*
X164600000Y-100635000D03*
X164600000Y-101905000D03*
X164600000Y-103175000D03*
X164600000Y-104445000D03*
X164600000Y-105715000D03*
X155400000Y-105715000D03*
X155400000Y-104445000D03*
X155400000Y-103175000D03*
X155400000Y-101905000D03*
X155400000Y-100635000D03*
X155400000Y-99365000D03*
X155400000Y-98095000D03*
X155400000Y-96825000D03*
X155400000Y-95555000D03*
X155400000Y-94285000D03*
D24*
X98405000Y-78410000D03*
X98405000Y-80410000D03*
D25*
X145167500Y-99746000D03*
X146892500Y-99746000D03*
D24*
X103485000Y-78410000D03*
X103485000Y-80410000D03*
D21*
X153396000Y-98984000D03*
X151671000Y-98984000D03*
D24*
X108565000Y-78410000D03*
X108565000Y-80410000D03*
D21*
X153396000Y-100635000D03*
X151671000Y-100635000D03*
%LPD*%
M02*
