G04 #@! TF.GenerationSoftware,KiCad,Pcbnew,7.0.8*
G04 #@! TF.CreationDate,2024-01-12T01:57:03-08:00*
G04 #@! TF.ProjectId,rc_v1,72635f76-312e-46b6-9963-61645f706362,0*
G04 #@! TF.SameCoordinates,Original*
G04 #@! TF.FileFunction,Soldermask,Bot*
G04 #@! TF.FilePolarity,Negative*
%FSLAX46Y46*%
G04 Gerber Fmt 4.6, Leading zero omitted, Abs format (unit mm)*
G04 Created by KiCad (PCBNEW 7.0.8) date 2024-01-12 01:57:03*
%MOMM*%
%LPD*%
G01*
G04 APERTURE LIST*
G04 Aperture macros list*
%AMRoundRect*
0 Rectangle with rounded corners*
0 $1 Rounding radius*
0 $2 $3 $4 $5 $6 $7 $8 $9 X,Y pos of 4 corners*
0 Add a 4 corners polygon primitive as box body*
4,1,4,$2,$3,$4,$5,$6,$7,$8,$9,$2,$3,0*
0 Add four circle primitives for the rounded corners*
1,1,$1+$1,$2,$3*
1,1,$1+$1,$4,$5*
1,1,$1+$1,$6,$7*
1,1,$1+$1,$8,$9*
0 Add four rect primitives between the rounded corners*
20,1,$1+$1,$2,$3,$4,$5,0*
20,1,$1+$1,$4,$5,$6,$7,0*
20,1,$1+$1,$6,$7,$8,$9,0*
20,1,$1+$1,$8,$9,$2,$3,0*%
G04 Aperture macros list end*
%ADD10C,1.800000*%
%ADD11C,2.300000*%
%ADD12R,1.800000X1.800000*%
%ADD13O,3.000000X3.400000*%
%ADD14C,1.400000*%
%ADD15O,2.100000X1.200000*%
%ADD16C,1.600000*%
%ADD17O,3.000000X1.500000*%
%ADD18O,1.500000X3.000000*%
%ADD19RoundRect,0.237500X0.300000X0.237500X-0.300000X0.237500X-0.300000X-0.237500X0.300000X-0.237500X0*%
%ADD20RoundRect,0.100000X0.100000X0.450000X-0.100000X0.450000X-0.100000X-0.450000X0.100000X-0.450000X0*%
%ADD21RoundRect,0.150000X0.800000X0.150000X-0.800000X0.150000X-0.800000X-0.150000X0.800000X-0.150000X0*%
%ADD22RoundRect,0.250000X-0.450000X0.350000X-0.450000X-0.350000X0.450000X-0.350000X0.450000X0.350000X0*%
%ADD23RoundRect,0.237500X-0.300000X-0.237500X0.300000X-0.237500X0.300000X0.237500X-0.300000X0.237500X0*%
G04 APERTURE END LIST*
D10*
X111750000Y-103750000D03*
X118250000Y-103750000D03*
X111750000Y-108250000D03*
X118250000Y-108250000D03*
D11*
X193500000Y-117250000D03*
X193500000Y-104750000D03*
X198500000Y-117250000D03*
X198500000Y-104750000D03*
X193500000Y-95250000D03*
X193500000Y-82750000D03*
X198500000Y-95250000D03*
X198500000Y-82750000D03*
D12*
X113460000Y-77000000D03*
D10*
X116000000Y-77000000D03*
X118540000Y-77000000D03*
X93750000Y-103750000D03*
X100250000Y-103750000D03*
X93750000Y-108250000D03*
X100250000Y-108250000D03*
D12*
X96000000Y-75730000D03*
D10*
X96000000Y-78270000D03*
X184500000Y-82000000D03*
X182000000Y-82000000D03*
X179500000Y-82000000D03*
D13*
X186400000Y-89000000D03*
X177600000Y-89000000D03*
D10*
X125380000Y-77140000D03*
X125380000Y-117780000D03*
X140620000Y-77140000D03*
X140620000Y-117780000D03*
D14*
X94000000Y-87000000D03*
D15*
X94000000Y-84900000D03*
D14*
X94000000Y-89000000D03*
D15*
X94000000Y-93100000D03*
D14*
X94000000Y-91000000D03*
D10*
X102750000Y-113750000D03*
X109250000Y-113750000D03*
X102750000Y-118250000D03*
X109250000Y-118250000D03*
D16*
X100000000Y-95000000D03*
X112000000Y-83000000D03*
D17*
X115000000Y-87000000D03*
X115000000Y-89000000D03*
X115000000Y-91000000D03*
D18*
X104000000Y-98000000D03*
X106000000Y-98000000D03*
X108000000Y-98000000D03*
D10*
X93750000Y-113750000D03*
X100250000Y-113750000D03*
X93750000Y-118250000D03*
X100250000Y-118250000D03*
D12*
X101000000Y-75730000D03*
D10*
X101000000Y-78270000D03*
X111750000Y-113750000D03*
X118250000Y-113750000D03*
X111750000Y-118250000D03*
X118250000Y-118250000D03*
D12*
X106000000Y-75730000D03*
D10*
X106000000Y-78270000D03*
X102750000Y-103750000D03*
X109250000Y-103750000D03*
X102750000Y-108250000D03*
X109250000Y-108250000D03*
X184500000Y-104000000D03*
X182000000Y-104000000D03*
X179500000Y-104000000D03*
D13*
X186400000Y-111000000D03*
X177600000Y-111000000D03*
D19*
X146892500Y-92634000D03*
X145167500Y-92634000D03*
D20*
X147005000Y-98090000D03*
X146355000Y-98090000D03*
X145705000Y-98090000D03*
X145055000Y-98090000D03*
X145055000Y-94290000D03*
X145705000Y-94290000D03*
X146355000Y-94290000D03*
X147005000Y-94290000D03*
D21*
X164600000Y-94285000D03*
X164600000Y-95555000D03*
X164600000Y-96825000D03*
X164600000Y-98095000D03*
X164600000Y-99365000D03*
X164600000Y-100635000D03*
X164600000Y-101905000D03*
X164600000Y-103175000D03*
X164600000Y-104445000D03*
X164600000Y-105715000D03*
X155400000Y-105715000D03*
X155400000Y-104445000D03*
X155400000Y-103175000D03*
X155400000Y-101905000D03*
X155400000Y-100635000D03*
X155400000Y-99365000D03*
X155400000Y-98095000D03*
X155400000Y-96825000D03*
X155400000Y-95555000D03*
X155400000Y-94285000D03*
D22*
X98405000Y-78410000D03*
X98405000Y-80410000D03*
D23*
X145167500Y-99746000D03*
X146892500Y-99746000D03*
D22*
X103485000Y-78410000D03*
X103485000Y-80410000D03*
D19*
X153396000Y-98984000D03*
X151671000Y-98984000D03*
D22*
X108565000Y-78410000D03*
X108565000Y-80410000D03*
D19*
X153396000Y-100635000D03*
X151671000Y-100635000D03*
M02*
