%TF.GenerationSoftware,KiCad,Pcbnew,7.0.8*%
%TF.CreationDate,2024-01-12T01:59:45-08:00*%
%TF.ProjectId,rc_v1,72635f76-312e-46b6-9963-61645f706362,0*%
%TF.SameCoordinates,Original*%
%TF.FileFunction,Drillmap*%
%TF.FilePolarity,Positive*%
%FSLAX45Y45*%
G04 Gerber Fmt 4.5, Leading zero omitted, Abs format (unit mm)*
G04 Created by KiCad (PCBNEW 7.0.8) date 2024-01-12 01:59:45*
%MOMM*%
%LPD*%
G01*
G04 APERTURE LIST*
%ADD10C,0.100000*%
%ADD11C,0.200000*%
%ADD12C,0.040000*%
%ADD13C,0.060000*%
%ADD14C,0.080000*%
%ADD15C,0.090000*%
%ADD16C,0.130000*%
%ADD17C,0.180000*%
G04 APERTURE END LIST*
D10*
X20300000Y-7800000D02*
G75*
G03*
X19800000Y-7300000I-500000J0D01*
G01*
X9100000Y-7800000D02*
X9100000Y-11600000D01*
X19800000Y-12100000D02*
G75*
G03*
X20300000Y-11600000I0J500000D01*
G01*
X9600000Y-7300000D02*
G75*
G03*
X9100000Y-7800000I0J-500000D01*
G01*
X19800000Y-7300000D02*
X9600000Y-7300000D01*
X9600000Y-12100000D02*
X19800000Y-12100000D01*
X20300000Y-11600000D02*
X20300000Y-7800000D01*
X9100000Y-11600000D02*
G75*
G03*
X9600000Y-12100000I500000J0D01*
G01*
D11*
D12*
X12614500Y-8710000D02*
X12654500Y-8750000D01*
X12654500Y-8710000D02*
X12614500Y-8750000D01*
X12614500Y-11250000D02*
X12654500Y-11290000D01*
X12654500Y-11250000D02*
X12614500Y-11290000D01*
X12678000Y-9599000D02*
X12718000Y-9639000D01*
X12718000Y-9599000D02*
X12678000Y-9639000D01*
X12678000Y-10107000D02*
X12718000Y-10147000D01*
X12718000Y-10107000D02*
X12678000Y-10147000D01*
X13122500Y-10742000D02*
X13162500Y-10782000D01*
X13162500Y-10742000D02*
X13122500Y-10782000D01*
X13884500Y-9980000D02*
X13924500Y-10020000D01*
X13924500Y-9980000D02*
X13884500Y-10020000D01*
X13884500Y-10234000D02*
X13924500Y-10274000D01*
X13924500Y-10234000D02*
X13884500Y-10274000D01*
X13884500Y-10488000D02*
X13924500Y-10528000D01*
X13924500Y-10488000D02*
X13884500Y-10528000D01*
X13948000Y-8202000D02*
X13988000Y-8242000D01*
X13988000Y-8202000D02*
X13948000Y-8242000D01*
X14011500Y-8964000D02*
X14051500Y-9004000D01*
X14051500Y-8964000D02*
X14011500Y-9004000D01*
X14011500Y-9218000D02*
X14051500Y-9258000D01*
X14051500Y-9218000D02*
X14011500Y-9258000D01*
X14011500Y-11250000D02*
X14051500Y-11290000D01*
X14051500Y-11250000D02*
X14011500Y-11290000D01*
X14392500Y-9472000D02*
X14432500Y-9512000D01*
X14432500Y-9472000D02*
X14392500Y-9512000D01*
X14392500Y-9726000D02*
X14432500Y-9766000D01*
X14432500Y-9726000D02*
X14392500Y-9766000D01*
X14456000Y-11250000D02*
X14496000Y-11290000D01*
X14496000Y-11250000D02*
X14456000Y-11290000D01*
X14519500Y-9599000D02*
X14559500Y-9639000D01*
X14559500Y-9599000D02*
X14519500Y-9639000D01*
X14646500Y-9535500D02*
X14686500Y-9575500D01*
X14686500Y-9535500D02*
X14646500Y-9575500D01*
X14646500Y-9662500D02*
X14686500Y-9702500D01*
X14686500Y-9662500D02*
X14646500Y-9702500D01*
X14773500Y-10107000D02*
X14813500Y-10147000D01*
X14813500Y-10107000D02*
X14773500Y-10147000D01*
X14773500Y-11186500D02*
X14813500Y-11226500D01*
X14813500Y-11186500D02*
X14773500Y-11226500D01*
X15345000Y-10170500D02*
X15385000Y-10210500D01*
X15385000Y-10170500D02*
X15345000Y-10210500D01*
X15345000Y-10551500D02*
X15385000Y-10591500D01*
X15385000Y-10551500D02*
X15345000Y-10591500D01*
X15673950Y-9852872D02*
X15713950Y-9892872D01*
X15713950Y-9852872D02*
X15673950Y-9892872D01*
X15726000Y-10551500D02*
X15766000Y-10591500D01*
X15766000Y-10551500D02*
X15726000Y-10591500D01*
X15751400Y-9281500D02*
X15791400Y-9321500D01*
X15791400Y-9281500D02*
X15751400Y-9321500D01*
X15828850Y-10093000D02*
X15868850Y-10133000D01*
X15868850Y-10093000D02*
X15828850Y-10133000D01*
X15976984Y-10174180D02*
X16016984Y-10214180D01*
X16016984Y-10174180D02*
X15976984Y-10214180D01*
X16041500Y-9853000D02*
X16081500Y-9893000D01*
X16081500Y-9853000D02*
X16041500Y-9893000D01*
X16079000Y-10015500D02*
X16119000Y-10055500D01*
X16119000Y-10015500D02*
X16079000Y-10055500D01*
X16234000Y-9789500D02*
X16274000Y-9829500D01*
X16274000Y-9789500D02*
X16234000Y-9829500D01*
X16615000Y-9281500D02*
X16655000Y-9321500D01*
X16655000Y-9281500D02*
X16615000Y-9321500D01*
X16615000Y-10551500D02*
X16655000Y-10591500D01*
X16655000Y-10551500D02*
X16615000Y-10591500D01*
X16805500Y-10424500D02*
X16845500Y-10464500D01*
X16845500Y-10424500D02*
X16805500Y-10464500D01*
X17186500Y-10297500D02*
X17226500Y-10337500D01*
X17226500Y-10297500D02*
X17186500Y-10337500D01*
X17313500Y-10043500D02*
X17353500Y-10083500D01*
X17353500Y-10043500D02*
X17313500Y-10083500D01*
D13*
X13934500Y-9682500D02*
G75*
G03*
X13934500Y-9682500I-30000J0D01*
G01*
X9400000Y-8460000D02*
X9400000Y-8520000D01*
X9370000Y-8490000D02*
X9430000Y-8490000D01*
D11*
X9355000Y-8520000D02*
X9445000Y-8520000D01*
X9445000Y-8520000D02*
G75*
G03*
X9445000Y-8460000I0J30000D01*
G01*
X9445000Y-8460000D02*
X9355000Y-8460000D01*
X9355000Y-8460000D02*
G75*
G03*
X9355000Y-8520000I0J-30000D01*
G01*
D13*
X9400000Y-9280000D02*
X9400000Y-9340000D01*
X9370000Y-9310000D02*
X9430000Y-9310000D01*
D11*
X9355000Y-9340000D02*
X9445000Y-9340000D01*
X9445000Y-9340000D02*
G75*
G03*
X9445000Y-9280000I0J30000D01*
G01*
X9445000Y-9280000D02*
X9355000Y-9280000D01*
X9355000Y-9280000D02*
G75*
G03*
X9355000Y-9340000I0J-30000D01*
G01*
D14*
X9428285Y-8728285D02*
X9428285Y-8671716D01*
X9371716Y-8671716D01*
X9371716Y-8728285D01*
X9428285Y-8728285D01*
X9428285Y-8928285D02*
X9428285Y-8871716D01*
X9371716Y-8871716D01*
X9371716Y-8928285D01*
X9428285Y-8928285D01*
X9428285Y-9128285D02*
X9428285Y-9071716D01*
X9371716Y-9071716D01*
X9371716Y-9128285D01*
X9428285Y-9128285D01*
D15*
X9600000Y-7618000D02*
X9645000Y-7573000D01*
X9600000Y-7528000D01*
X9555000Y-7573000D01*
X9600000Y-7618000D01*
X9600000Y-7872000D02*
X9645000Y-7827000D01*
X9600000Y-7782000D01*
X9555000Y-7827000D01*
X9600000Y-7872000D01*
X10100000Y-7618000D02*
X10145000Y-7573000D01*
X10100000Y-7528000D01*
X10055000Y-7573000D01*
X10100000Y-7618000D01*
X10100000Y-7872000D02*
X10145000Y-7827000D01*
X10100000Y-7782000D01*
X10055000Y-7827000D01*
X10100000Y-7872000D01*
X10400000Y-9845000D02*
X10445000Y-9800000D01*
X10400000Y-9755000D01*
X10355000Y-9800000D01*
X10400000Y-9845000D01*
X10600000Y-7618000D02*
X10645000Y-7573000D01*
X10600000Y-7528000D01*
X10555000Y-7573000D01*
X10600000Y-7618000D01*
X10600000Y-7872000D02*
X10645000Y-7827000D01*
X10600000Y-7782000D01*
X10555000Y-7827000D01*
X10600000Y-7872000D01*
X10600000Y-9845000D02*
X10645000Y-9800000D01*
X10600000Y-9755000D01*
X10555000Y-9800000D01*
X10600000Y-9845000D01*
X10800000Y-9845000D02*
X10845000Y-9800000D01*
X10800000Y-9755000D01*
X10755000Y-9800000D01*
X10800000Y-9845000D01*
X11346000Y-7745000D02*
X11391000Y-7700000D01*
X11346000Y-7655000D01*
X11301000Y-7700000D01*
X11346000Y-7745000D01*
X11500000Y-8745000D02*
X11545000Y-8700000D01*
X11500000Y-8655000D01*
X11455000Y-8700000D01*
X11500000Y-8745000D01*
X11500000Y-8945000D02*
X11545000Y-8900000D01*
X11500000Y-8855000D01*
X11455000Y-8900000D01*
X11500000Y-8945000D01*
X11500000Y-9145000D02*
X11545000Y-9100000D01*
X11500000Y-9055000D01*
X11455000Y-9100000D01*
X11500000Y-9145000D01*
X11600000Y-7745000D02*
X11645000Y-7700000D01*
X11600000Y-7655000D01*
X11555000Y-7700000D01*
X11600000Y-7745000D01*
X11854000Y-7745000D02*
X11899000Y-7700000D01*
X11854000Y-7655000D01*
X11809000Y-7700000D01*
X11854000Y-7745000D01*
D10*
X9325000Y-10325000D02*
X9425000Y-10425000D01*
X9425000Y-10325000D02*
X9325000Y-10425000D01*
X9425000Y-10375000D02*
G75*
G03*
X9425000Y-10375000I-50000J0D01*
G01*
X9325000Y-10775000D02*
X9425000Y-10875000D01*
X9425000Y-10775000D02*
X9325000Y-10875000D01*
X9425000Y-10825000D02*
G75*
G03*
X9425000Y-10825000I-50000J0D01*
G01*
X9325000Y-11325000D02*
X9425000Y-11425000D01*
X9425000Y-11325000D02*
X9325000Y-11425000D01*
X9425000Y-11375000D02*
G75*
G03*
X9425000Y-11375000I-50000J0D01*
G01*
X9325000Y-11775000D02*
X9425000Y-11875000D01*
X9425000Y-11775000D02*
X9325000Y-11875000D01*
X9425000Y-11825000D02*
G75*
G03*
X9425000Y-11825000I-50000J0D01*
G01*
X9975000Y-10325000D02*
X10075000Y-10425000D01*
X10075000Y-10325000D02*
X9975000Y-10425000D01*
X10075000Y-10375000D02*
G75*
G03*
X10075000Y-10375000I-50000J0D01*
G01*
X9975000Y-10775000D02*
X10075000Y-10875000D01*
X10075000Y-10775000D02*
X9975000Y-10875000D01*
X10075000Y-10825000D02*
G75*
G03*
X10075000Y-10825000I-50000J0D01*
G01*
X9975000Y-11325000D02*
X10075000Y-11425000D01*
X10075000Y-11325000D02*
X9975000Y-11425000D01*
X10075000Y-11375000D02*
G75*
G03*
X10075000Y-11375000I-50000J0D01*
G01*
X9975000Y-11775000D02*
X10075000Y-11875000D01*
X10075000Y-11775000D02*
X9975000Y-11875000D01*
X10075000Y-11825000D02*
G75*
G03*
X10075000Y-11825000I-50000J0D01*
G01*
X10225000Y-10325000D02*
X10325000Y-10425000D01*
X10325000Y-10325000D02*
X10225000Y-10425000D01*
X10325000Y-10375000D02*
G75*
G03*
X10325000Y-10375000I-50000J0D01*
G01*
X10225000Y-10775000D02*
X10325000Y-10875000D01*
X10325000Y-10775000D02*
X10225000Y-10875000D01*
X10325000Y-10825000D02*
G75*
G03*
X10325000Y-10825000I-50000J0D01*
G01*
X10225000Y-11325000D02*
X10325000Y-11425000D01*
X10325000Y-11325000D02*
X10225000Y-11425000D01*
X10325000Y-11375000D02*
G75*
G03*
X10325000Y-11375000I-50000J0D01*
G01*
X10225000Y-11775000D02*
X10325000Y-11875000D01*
X10325000Y-11775000D02*
X10225000Y-11875000D01*
X10325000Y-11825000D02*
G75*
G03*
X10325000Y-11825000I-50000J0D01*
G01*
X10875000Y-10325000D02*
X10975000Y-10425000D01*
X10975000Y-10325000D02*
X10875000Y-10425000D01*
X10975000Y-10375000D02*
G75*
G03*
X10975000Y-10375000I-50000J0D01*
G01*
X10875000Y-10775000D02*
X10975000Y-10875000D01*
X10975000Y-10775000D02*
X10875000Y-10875000D01*
X10975000Y-10825000D02*
G75*
G03*
X10975000Y-10825000I-50000J0D01*
G01*
X10875000Y-11325000D02*
X10975000Y-11425000D01*
X10975000Y-11325000D02*
X10875000Y-11425000D01*
X10975000Y-11375000D02*
G75*
G03*
X10975000Y-11375000I-50000J0D01*
G01*
X10875000Y-11775000D02*
X10975000Y-11875000D01*
X10975000Y-11775000D02*
X10875000Y-11875000D01*
X10975000Y-11825000D02*
G75*
G03*
X10975000Y-11825000I-50000J0D01*
G01*
X11125000Y-10325000D02*
X11225000Y-10425000D01*
X11225000Y-10325000D02*
X11125000Y-10425000D01*
X11225000Y-10375000D02*
G75*
G03*
X11225000Y-10375000I-50000J0D01*
G01*
X11125000Y-10775000D02*
X11225000Y-10875000D01*
X11225000Y-10775000D02*
X11125000Y-10875000D01*
X11225000Y-10825000D02*
G75*
G03*
X11225000Y-10825000I-50000J0D01*
G01*
X11125000Y-11325000D02*
X11225000Y-11425000D01*
X11225000Y-11325000D02*
X11125000Y-11425000D01*
X11225000Y-11375000D02*
G75*
G03*
X11225000Y-11375000I-50000J0D01*
G01*
X11125000Y-11775000D02*
X11225000Y-11875000D01*
X11225000Y-11775000D02*
X11125000Y-11875000D01*
X11225000Y-11825000D02*
G75*
G03*
X11225000Y-11825000I-50000J0D01*
G01*
X11775000Y-10325000D02*
X11875000Y-10425000D01*
X11875000Y-10325000D02*
X11775000Y-10425000D01*
X11875000Y-10375000D02*
G75*
G03*
X11875000Y-10375000I-50000J0D01*
G01*
X11775000Y-10775000D02*
X11875000Y-10875000D01*
X11875000Y-10775000D02*
X11775000Y-10875000D01*
X11875000Y-10825000D02*
G75*
G03*
X11875000Y-10825000I-50000J0D01*
G01*
X11775000Y-11325000D02*
X11875000Y-11425000D01*
X11875000Y-11325000D02*
X11775000Y-11425000D01*
X11875000Y-11375000D02*
G75*
G03*
X11875000Y-11375000I-50000J0D01*
G01*
X11775000Y-11775000D02*
X11875000Y-11875000D01*
X11875000Y-11775000D02*
X11775000Y-11875000D01*
X11875000Y-11825000D02*
G75*
G03*
X11875000Y-11825000I-50000J0D01*
G01*
X17900000Y-8150000D02*
X18000000Y-8250000D01*
X18000000Y-8150000D02*
X17900000Y-8250000D01*
X18000000Y-8200000D02*
G75*
G03*
X18000000Y-8200000I-50000J0D01*
G01*
X17900000Y-10350000D02*
X18000000Y-10450000D01*
X18000000Y-10350000D02*
X17900000Y-10450000D01*
X18000000Y-10400000D02*
G75*
G03*
X18000000Y-10400000I-50000J0D01*
G01*
X18150000Y-8150000D02*
X18250000Y-8250000D01*
X18250000Y-8150000D02*
X18150000Y-8250000D01*
X18250000Y-8200000D02*
G75*
G03*
X18250000Y-8200000I-50000J0D01*
G01*
X18150000Y-10350000D02*
X18250000Y-10450000D01*
X18250000Y-10350000D02*
X18150000Y-10450000D01*
X18250000Y-10400000D02*
G75*
G03*
X18250000Y-10400000I-50000J0D01*
G01*
X18400000Y-8150000D02*
X18500000Y-8250000D01*
X18500000Y-8150000D02*
X18400000Y-8250000D01*
X18500000Y-8200000D02*
G75*
G03*
X18500000Y-8200000I-50000J0D01*
G01*
X18400000Y-10350000D02*
X18500000Y-10450000D01*
X18500000Y-10350000D02*
X18400000Y-10450000D01*
X18500000Y-10400000D02*
G75*
G03*
X18500000Y-10400000I-50000J0D01*
G01*
D16*
X19285000Y-8210000D02*
X19415000Y-8340000D01*
X19415000Y-8210000D02*
X19285000Y-8340000D01*
X19350000Y-8210000D02*
X19350000Y-8340000D01*
X19285000Y-8275000D02*
X19415000Y-8275000D01*
X19285000Y-9460000D02*
X19415000Y-9590000D01*
X19415000Y-9460000D02*
X19285000Y-9590000D01*
X19350000Y-9460000D02*
X19350000Y-9590000D01*
X19285000Y-9525000D02*
X19415000Y-9525000D01*
X19285000Y-10410000D02*
X19415000Y-10540000D01*
X19415000Y-10410000D02*
X19285000Y-10540000D01*
X19350000Y-10410000D02*
X19350000Y-10540000D01*
X19285000Y-10475000D02*
X19415000Y-10475000D01*
X19285000Y-11660000D02*
X19415000Y-11790000D01*
X19415000Y-11660000D02*
X19285000Y-11790000D01*
X19350000Y-11660000D02*
X19350000Y-11790000D01*
X19285000Y-11725000D02*
X19415000Y-11725000D01*
X19785000Y-8210000D02*
X19915000Y-8340000D01*
X19915000Y-8210000D02*
X19785000Y-8340000D01*
X19850000Y-8210000D02*
X19850000Y-8340000D01*
X19785000Y-8275000D02*
X19915000Y-8275000D01*
X19785000Y-9460000D02*
X19915000Y-9590000D01*
X19915000Y-9460000D02*
X19785000Y-9590000D01*
X19850000Y-9460000D02*
X19850000Y-9590000D01*
X19785000Y-9525000D02*
X19915000Y-9525000D01*
X19785000Y-10410000D02*
X19915000Y-10540000D01*
X19915000Y-10410000D02*
X19785000Y-10540000D01*
X19850000Y-10410000D02*
X19850000Y-10540000D01*
X19785000Y-10475000D02*
X19915000Y-10475000D01*
X19785000Y-11660000D02*
X19915000Y-11790000D01*
X19915000Y-11660000D02*
X19785000Y-11790000D01*
X19850000Y-11660000D02*
X19850000Y-11790000D01*
X19785000Y-11725000D02*
X19915000Y-11725000D01*
D17*
X17670000Y-8810000D02*
X17850000Y-8990000D01*
X17850000Y-8810000D02*
X17670000Y-8990000D01*
X17823640Y-8963640D02*
X17823640Y-8836360D01*
X17696360Y-8836360D01*
X17696360Y-8963640D01*
X17823640Y-8963640D01*
D11*
X17670000Y-8880000D02*
X17670000Y-8920000D01*
X17670000Y-8920000D02*
G75*
G03*
X17850000Y-8920000I90000J0D01*
G01*
X17850000Y-8920000D02*
X17850000Y-8880000D01*
X17850000Y-8880000D02*
G75*
G03*
X17670000Y-8880000I-90000J0D01*
G01*
D17*
X17670000Y-11010000D02*
X17850000Y-11190000D01*
X17850000Y-11010000D02*
X17670000Y-11190000D01*
X17823640Y-11163640D02*
X17823640Y-11036360D01*
X17696360Y-11036360D01*
X17696360Y-11163640D01*
X17823640Y-11163640D01*
D11*
X17670000Y-11080000D02*
X17670000Y-11120000D01*
X17670000Y-11120000D02*
G75*
G03*
X17850000Y-11120000I90000J0D01*
G01*
X17850000Y-11120000D02*
X17850000Y-11080000D01*
X17850000Y-11080000D02*
G75*
G03*
X17670000Y-11080000I-90000J0D01*
G01*
D17*
X18550000Y-8810000D02*
X18730000Y-8990000D01*
X18730000Y-8810000D02*
X18550000Y-8990000D01*
X18703640Y-8963640D02*
X18703640Y-8836360D01*
X18576360Y-8836360D01*
X18576360Y-8963640D01*
X18703640Y-8963640D01*
D11*
X18550000Y-8880000D02*
X18550000Y-8920000D01*
X18550000Y-8920000D02*
G75*
G03*
X18730000Y-8920000I90000J0D01*
G01*
X18730000Y-8920000D02*
X18730000Y-8880000D01*
X18730000Y-8880000D02*
G75*
G03*
X18550000Y-8880000I-90000J0D01*
G01*
D17*
X18550000Y-11010000D02*
X18730000Y-11190000D01*
X18730000Y-11010000D02*
X18550000Y-11190000D01*
X18703640Y-11163640D02*
X18703640Y-11036360D01*
X18576360Y-11036360D01*
X18576360Y-11163640D01*
X18703640Y-11163640D01*
D11*
X18550000Y-11080000D02*
X18550000Y-11120000D01*
X18550000Y-11120000D02*
G75*
G03*
X18730000Y-11120000I90000J0D01*
G01*
X18730000Y-11120000D02*
X18730000Y-11080000D01*
X18730000Y-11080000D02*
G75*
G03*
X18550000Y-11080000I-90000J0D01*
G01*
X9355777Y-12416484D02*
X9355777Y-12216484D01*
X9355777Y-12216484D02*
X9403396Y-12216484D01*
X9403396Y-12216484D02*
X9431967Y-12226008D01*
X9431967Y-12226008D02*
X9451015Y-12245055D01*
X9451015Y-12245055D02*
X9460539Y-12264103D01*
X9460539Y-12264103D02*
X9470063Y-12302198D01*
X9470063Y-12302198D02*
X9470063Y-12330769D01*
X9470063Y-12330769D02*
X9460539Y-12368865D01*
X9460539Y-12368865D02*
X9451015Y-12387912D01*
X9451015Y-12387912D02*
X9431967Y-12406960D01*
X9431967Y-12406960D02*
X9403396Y-12416484D01*
X9403396Y-12416484D02*
X9355777Y-12416484D01*
X9555777Y-12416484D02*
X9555777Y-12283150D01*
X9555777Y-12321246D02*
X9565301Y-12302198D01*
X9565301Y-12302198D02*
X9574824Y-12292674D01*
X9574824Y-12292674D02*
X9593872Y-12283150D01*
X9593872Y-12283150D02*
X9612920Y-12283150D01*
X9679586Y-12416484D02*
X9679586Y-12283150D01*
X9679586Y-12216484D02*
X9670063Y-12226008D01*
X9670063Y-12226008D02*
X9679586Y-12235531D01*
X9679586Y-12235531D02*
X9689110Y-12226008D01*
X9689110Y-12226008D02*
X9679586Y-12216484D01*
X9679586Y-12216484D02*
X9679586Y-12235531D01*
X9803396Y-12416484D02*
X9784348Y-12406960D01*
X9784348Y-12406960D02*
X9774824Y-12387912D01*
X9774824Y-12387912D02*
X9774824Y-12216484D01*
X9908158Y-12416484D02*
X9889110Y-12406960D01*
X9889110Y-12406960D02*
X9879586Y-12387912D01*
X9879586Y-12387912D02*
X9879586Y-12216484D01*
X10136729Y-12416484D02*
X10136729Y-12216484D01*
X10136729Y-12216484D02*
X10203396Y-12359341D01*
X10203396Y-12359341D02*
X10270063Y-12216484D01*
X10270063Y-12216484D02*
X10270063Y-12416484D01*
X10451015Y-12416484D02*
X10451015Y-12311722D01*
X10451015Y-12311722D02*
X10441491Y-12292674D01*
X10441491Y-12292674D02*
X10422444Y-12283150D01*
X10422444Y-12283150D02*
X10384348Y-12283150D01*
X10384348Y-12283150D02*
X10365301Y-12292674D01*
X10451015Y-12406960D02*
X10431967Y-12416484D01*
X10431967Y-12416484D02*
X10384348Y-12416484D01*
X10384348Y-12416484D02*
X10365301Y-12406960D01*
X10365301Y-12406960D02*
X10355777Y-12387912D01*
X10355777Y-12387912D02*
X10355777Y-12368865D01*
X10355777Y-12368865D02*
X10365301Y-12349817D01*
X10365301Y-12349817D02*
X10384348Y-12340293D01*
X10384348Y-12340293D02*
X10431967Y-12340293D01*
X10431967Y-12340293D02*
X10451015Y-12330769D01*
X10546253Y-12283150D02*
X10546253Y-12483150D01*
X10546253Y-12292674D02*
X10565301Y-12283150D01*
X10565301Y-12283150D02*
X10603396Y-12283150D01*
X10603396Y-12283150D02*
X10622444Y-12292674D01*
X10622444Y-12292674D02*
X10631967Y-12302198D01*
X10631967Y-12302198D02*
X10641491Y-12321246D01*
X10641491Y-12321246D02*
X10641491Y-12378388D01*
X10641491Y-12378388D02*
X10631967Y-12397436D01*
X10631967Y-12397436D02*
X10622444Y-12406960D01*
X10622444Y-12406960D02*
X10603396Y-12416484D01*
X10603396Y-12416484D02*
X10565301Y-12416484D01*
X10565301Y-12416484D02*
X10546253Y-12406960D01*
X10727205Y-12397436D02*
X10736729Y-12406960D01*
X10736729Y-12406960D02*
X10727205Y-12416484D01*
X10727205Y-12416484D02*
X10717682Y-12406960D01*
X10717682Y-12406960D02*
X10727205Y-12397436D01*
X10727205Y-12397436D02*
X10727205Y-12416484D01*
X10727205Y-12292674D02*
X10736729Y-12302198D01*
X10736729Y-12302198D02*
X10727205Y-12311722D01*
X10727205Y-12311722D02*
X10717682Y-12302198D01*
X10717682Y-12302198D02*
X10727205Y-12292674D01*
X10727205Y-12292674D02*
X10727205Y-12311722D01*
D12*
X9055000Y-12725000D02*
X9095000Y-12765000D01*
X9095000Y-12725000D02*
X9055000Y-12765000D01*
D11*
X9393872Y-12636484D02*
X9412920Y-12636484D01*
X9412920Y-12636484D02*
X9431967Y-12646008D01*
X9431967Y-12646008D02*
X9441491Y-12655531D01*
X9441491Y-12655531D02*
X9451015Y-12674579D01*
X9451015Y-12674579D02*
X9460539Y-12712674D01*
X9460539Y-12712674D02*
X9460539Y-12760293D01*
X9460539Y-12760293D02*
X9451015Y-12798388D01*
X9451015Y-12798388D02*
X9441491Y-12817436D01*
X9441491Y-12817436D02*
X9431967Y-12826960D01*
X9431967Y-12826960D02*
X9412920Y-12836484D01*
X9412920Y-12836484D02*
X9393872Y-12836484D01*
X9393872Y-12836484D02*
X9374824Y-12826960D01*
X9374824Y-12826960D02*
X9365301Y-12817436D01*
X9365301Y-12817436D02*
X9355777Y-12798388D01*
X9355777Y-12798388D02*
X9346253Y-12760293D01*
X9346253Y-12760293D02*
X9346253Y-12712674D01*
X9346253Y-12712674D02*
X9355777Y-12674579D01*
X9355777Y-12674579D02*
X9365301Y-12655531D01*
X9365301Y-12655531D02*
X9374824Y-12646008D01*
X9374824Y-12646008D02*
X9393872Y-12636484D01*
X9546253Y-12817436D02*
X9555777Y-12826960D01*
X9555777Y-12826960D02*
X9546253Y-12836484D01*
X9546253Y-12836484D02*
X9536729Y-12826960D01*
X9536729Y-12826960D02*
X9546253Y-12817436D01*
X9546253Y-12817436D02*
X9546253Y-12836484D01*
X9727205Y-12703150D02*
X9727205Y-12836484D01*
X9679586Y-12626960D02*
X9631967Y-12769817D01*
X9631967Y-12769817D02*
X9755777Y-12769817D01*
X9870063Y-12636484D02*
X9889110Y-12636484D01*
X9889110Y-12636484D02*
X9908158Y-12646008D01*
X9908158Y-12646008D02*
X9917682Y-12655531D01*
X9917682Y-12655531D02*
X9927205Y-12674579D01*
X9927205Y-12674579D02*
X9936729Y-12712674D01*
X9936729Y-12712674D02*
X9936729Y-12760293D01*
X9936729Y-12760293D02*
X9927205Y-12798388D01*
X9927205Y-12798388D02*
X9917682Y-12817436D01*
X9917682Y-12817436D02*
X9908158Y-12826960D01*
X9908158Y-12826960D02*
X9889110Y-12836484D01*
X9889110Y-12836484D02*
X9870063Y-12836484D01*
X9870063Y-12836484D02*
X9851015Y-12826960D01*
X9851015Y-12826960D02*
X9841491Y-12817436D01*
X9841491Y-12817436D02*
X9831967Y-12798388D01*
X9831967Y-12798388D02*
X9822444Y-12760293D01*
X9822444Y-12760293D02*
X9822444Y-12712674D01*
X9822444Y-12712674D02*
X9831967Y-12674579D01*
X9831967Y-12674579D02*
X9841491Y-12655531D01*
X9841491Y-12655531D02*
X9851015Y-12646008D01*
X9851015Y-12646008D02*
X9870063Y-12636484D01*
X10060539Y-12636484D02*
X10079586Y-12636484D01*
X10079586Y-12636484D02*
X10098634Y-12646008D01*
X10098634Y-12646008D02*
X10108158Y-12655531D01*
X10108158Y-12655531D02*
X10117682Y-12674579D01*
X10117682Y-12674579D02*
X10127205Y-12712674D01*
X10127205Y-12712674D02*
X10127205Y-12760293D01*
X10127205Y-12760293D02*
X10117682Y-12798388D01*
X10117682Y-12798388D02*
X10108158Y-12817436D01*
X10108158Y-12817436D02*
X10098634Y-12826960D01*
X10098634Y-12826960D02*
X10079586Y-12836484D01*
X10079586Y-12836484D02*
X10060539Y-12836484D01*
X10060539Y-12836484D02*
X10041491Y-12826960D01*
X10041491Y-12826960D02*
X10031967Y-12817436D01*
X10031967Y-12817436D02*
X10022444Y-12798388D01*
X10022444Y-12798388D02*
X10012920Y-12760293D01*
X10012920Y-12760293D02*
X10012920Y-12712674D01*
X10012920Y-12712674D02*
X10022444Y-12674579D01*
X10022444Y-12674579D02*
X10031967Y-12655531D01*
X10031967Y-12655531D02*
X10041491Y-12646008D01*
X10041491Y-12646008D02*
X10060539Y-12636484D01*
X10212920Y-12836484D02*
X10212920Y-12703150D01*
X10212920Y-12722198D02*
X10222444Y-12712674D01*
X10222444Y-12712674D02*
X10241491Y-12703150D01*
X10241491Y-12703150D02*
X10270063Y-12703150D01*
X10270063Y-12703150D02*
X10289110Y-12712674D01*
X10289110Y-12712674D02*
X10298634Y-12731722D01*
X10298634Y-12731722D02*
X10298634Y-12836484D01*
X10298634Y-12731722D02*
X10308158Y-12712674D01*
X10308158Y-12712674D02*
X10327205Y-12703150D01*
X10327205Y-12703150D02*
X10355777Y-12703150D01*
X10355777Y-12703150D02*
X10374825Y-12712674D01*
X10374825Y-12712674D02*
X10384348Y-12731722D01*
X10384348Y-12731722D02*
X10384348Y-12836484D01*
X10479586Y-12836484D02*
X10479586Y-12703150D01*
X10479586Y-12722198D02*
X10489110Y-12712674D01*
X10489110Y-12712674D02*
X10508158Y-12703150D01*
X10508158Y-12703150D02*
X10536729Y-12703150D01*
X10536729Y-12703150D02*
X10555777Y-12712674D01*
X10555777Y-12712674D02*
X10565301Y-12731722D01*
X10565301Y-12731722D02*
X10565301Y-12836484D01*
X10565301Y-12731722D02*
X10574825Y-12712674D01*
X10574825Y-12712674D02*
X10593872Y-12703150D01*
X10593872Y-12703150D02*
X10622444Y-12703150D01*
X10622444Y-12703150D02*
X10641491Y-12712674D01*
X10641491Y-12712674D02*
X10651015Y-12731722D01*
X10651015Y-12731722D02*
X10651015Y-12836484D01*
X11041491Y-12626960D02*
X10870063Y-12884103D01*
X11298634Y-12636484D02*
X11317682Y-12636484D01*
X11317682Y-12636484D02*
X11336729Y-12646008D01*
X11336729Y-12646008D02*
X11346253Y-12655531D01*
X11346253Y-12655531D02*
X11355777Y-12674579D01*
X11355777Y-12674579D02*
X11365301Y-12712674D01*
X11365301Y-12712674D02*
X11365301Y-12760293D01*
X11365301Y-12760293D02*
X11355777Y-12798388D01*
X11355777Y-12798388D02*
X11346253Y-12817436D01*
X11346253Y-12817436D02*
X11336729Y-12826960D01*
X11336729Y-12826960D02*
X11317682Y-12836484D01*
X11317682Y-12836484D02*
X11298634Y-12836484D01*
X11298634Y-12836484D02*
X11279586Y-12826960D01*
X11279586Y-12826960D02*
X11270063Y-12817436D01*
X11270063Y-12817436D02*
X11260539Y-12798388D01*
X11260539Y-12798388D02*
X11251015Y-12760293D01*
X11251015Y-12760293D02*
X11251015Y-12712674D01*
X11251015Y-12712674D02*
X11260539Y-12674579D01*
X11260539Y-12674579D02*
X11270063Y-12655531D01*
X11270063Y-12655531D02*
X11279586Y-12646008D01*
X11279586Y-12646008D02*
X11298634Y-12636484D01*
X11451015Y-12817436D02*
X11460539Y-12826960D01*
X11460539Y-12826960D02*
X11451015Y-12836484D01*
X11451015Y-12836484D02*
X11441491Y-12826960D01*
X11441491Y-12826960D02*
X11451015Y-12817436D01*
X11451015Y-12817436D02*
X11451015Y-12836484D01*
X11584348Y-12636484D02*
X11603396Y-12636484D01*
X11603396Y-12636484D02*
X11622444Y-12646008D01*
X11622444Y-12646008D02*
X11631967Y-12655531D01*
X11631967Y-12655531D02*
X11641491Y-12674579D01*
X11641491Y-12674579D02*
X11651015Y-12712674D01*
X11651015Y-12712674D02*
X11651015Y-12760293D01*
X11651015Y-12760293D02*
X11641491Y-12798388D01*
X11641491Y-12798388D02*
X11631967Y-12817436D01*
X11631967Y-12817436D02*
X11622444Y-12826960D01*
X11622444Y-12826960D02*
X11603396Y-12836484D01*
X11603396Y-12836484D02*
X11584348Y-12836484D01*
X11584348Y-12836484D02*
X11565301Y-12826960D01*
X11565301Y-12826960D02*
X11555777Y-12817436D01*
X11555777Y-12817436D02*
X11546253Y-12798388D01*
X11546253Y-12798388D02*
X11536729Y-12760293D01*
X11536729Y-12760293D02*
X11536729Y-12712674D01*
X11536729Y-12712674D02*
X11546253Y-12674579D01*
X11546253Y-12674579D02*
X11555777Y-12655531D01*
X11555777Y-12655531D02*
X11565301Y-12646008D01*
X11565301Y-12646008D02*
X11584348Y-12636484D01*
X11841491Y-12836484D02*
X11727206Y-12836484D01*
X11784348Y-12836484D02*
X11784348Y-12636484D01*
X11784348Y-12636484D02*
X11765301Y-12665055D01*
X11765301Y-12665055D02*
X11746253Y-12684103D01*
X11746253Y-12684103D02*
X11727206Y-12693627D01*
X12022444Y-12636484D02*
X11927206Y-12636484D01*
X11927206Y-12636484D02*
X11917682Y-12731722D01*
X11917682Y-12731722D02*
X11927206Y-12722198D01*
X11927206Y-12722198D02*
X11946253Y-12712674D01*
X11946253Y-12712674D02*
X11993872Y-12712674D01*
X11993872Y-12712674D02*
X12012920Y-12722198D01*
X12012920Y-12722198D02*
X12022444Y-12731722D01*
X12022444Y-12731722D02*
X12031967Y-12750769D01*
X12031967Y-12750769D02*
X12031967Y-12798388D01*
X12031967Y-12798388D02*
X12022444Y-12817436D01*
X12022444Y-12817436D02*
X12012920Y-12826960D01*
X12012920Y-12826960D02*
X11993872Y-12836484D01*
X11993872Y-12836484D02*
X11946253Y-12836484D01*
X11946253Y-12836484D02*
X11927206Y-12826960D01*
X11927206Y-12826960D02*
X11917682Y-12817436D01*
X12098634Y-12636484D02*
X12231967Y-12636484D01*
X12231967Y-12636484D02*
X12146253Y-12836484D01*
X12298634Y-12636484D02*
X12298634Y-12674579D01*
X12374825Y-12636484D02*
X12374825Y-12674579D01*
X12670063Y-12912674D02*
X12660539Y-12903150D01*
X12660539Y-12903150D02*
X12641491Y-12874579D01*
X12641491Y-12874579D02*
X12631968Y-12855531D01*
X12631968Y-12855531D02*
X12622444Y-12826960D01*
X12622444Y-12826960D02*
X12612920Y-12779341D01*
X12612920Y-12779341D02*
X12612920Y-12741246D01*
X12612920Y-12741246D02*
X12622444Y-12693627D01*
X12622444Y-12693627D02*
X12631968Y-12665055D01*
X12631968Y-12665055D02*
X12641491Y-12646008D01*
X12641491Y-12646008D02*
X12660539Y-12617436D01*
X12660539Y-12617436D02*
X12670063Y-12607912D01*
X12727206Y-12636484D02*
X12851015Y-12636484D01*
X12851015Y-12636484D02*
X12784348Y-12712674D01*
X12784348Y-12712674D02*
X12812920Y-12712674D01*
X12812920Y-12712674D02*
X12831968Y-12722198D01*
X12831968Y-12722198D02*
X12841491Y-12731722D01*
X12841491Y-12731722D02*
X12851015Y-12750769D01*
X12851015Y-12750769D02*
X12851015Y-12798388D01*
X12851015Y-12798388D02*
X12841491Y-12817436D01*
X12841491Y-12817436D02*
X12831968Y-12826960D01*
X12831968Y-12826960D02*
X12812920Y-12836484D01*
X12812920Y-12836484D02*
X12755777Y-12836484D01*
X12755777Y-12836484D02*
X12736729Y-12826960D01*
X12736729Y-12826960D02*
X12727206Y-12817436D01*
X13031968Y-12636484D02*
X12936729Y-12636484D01*
X12936729Y-12636484D02*
X12927206Y-12731722D01*
X12927206Y-12731722D02*
X12936729Y-12722198D01*
X12936729Y-12722198D02*
X12955777Y-12712674D01*
X12955777Y-12712674D02*
X13003396Y-12712674D01*
X13003396Y-12712674D02*
X13022444Y-12722198D01*
X13022444Y-12722198D02*
X13031968Y-12731722D01*
X13031968Y-12731722D02*
X13041491Y-12750769D01*
X13041491Y-12750769D02*
X13041491Y-12798388D01*
X13041491Y-12798388D02*
X13031968Y-12817436D01*
X13031968Y-12817436D02*
X13022444Y-12826960D01*
X13022444Y-12826960D02*
X13003396Y-12836484D01*
X13003396Y-12836484D02*
X12955777Y-12836484D01*
X12955777Y-12836484D02*
X12936729Y-12826960D01*
X12936729Y-12826960D02*
X12927206Y-12817436D01*
X13279587Y-12836484D02*
X13279587Y-12636484D01*
X13365301Y-12836484D02*
X13365301Y-12731722D01*
X13365301Y-12731722D02*
X13355777Y-12712674D01*
X13355777Y-12712674D02*
X13336730Y-12703150D01*
X13336730Y-12703150D02*
X13308158Y-12703150D01*
X13308158Y-12703150D02*
X13289110Y-12712674D01*
X13289110Y-12712674D02*
X13279587Y-12722198D01*
X13489110Y-12836484D02*
X13470063Y-12826960D01*
X13470063Y-12826960D02*
X13460539Y-12817436D01*
X13460539Y-12817436D02*
X13451015Y-12798388D01*
X13451015Y-12798388D02*
X13451015Y-12741246D01*
X13451015Y-12741246D02*
X13460539Y-12722198D01*
X13460539Y-12722198D02*
X13470063Y-12712674D01*
X13470063Y-12712674D02*
X13489110Y-12703150D01*
X13489110Y-12703150D02*
X13517682Y-12703150D01*
X13517682Y-12703150D02*
X13536730Y-12712674D01*
X13536730Y-12712674D02*
X13546253Y-12722198D01*
X13546253Y-12722198D02*
X13555777Y-12741246D01*
X13555777Y-12741246D02*
X13555777Y-12798388D01*
X13555777Y-12798388D02*
X13546253Y-12817436D01*
X13546253Y-12817436D02*
X13536730Y-12826960D01*
X13536730Y-12826960D02*
X13517682Y-12836484D01*
X13517682Y-12836484D02*
X13489110Y-12836484D01*
X13670063Y-12836484D02*
X13651015Y-12826960D01*
X13651015Y-12826960D02*
X13641491Y-12807912D01*
X13641491Y-12807912D02*
X13641491Y-12636484D01*
X13822444Y-12826960D02*
X13803396Y-12836484D01*
X13803396Y-12836484D02*
X13765301Y-12836484D01*
X13765301Y-12836484D02*
X13746253Y-12826960D01*
X13746253Y-12826960D02*
X13736730Y-12807912D01*
X13736730Y-12807912D02*
X13736730Y-12731722D01*
X13736730Y-12731722D02*
X13746253Y-12712674D01*
X13746253Y-12712674D02*
X13765301Y-12703150D01*
X13765301Y-12703150D02*
X13803396Y-12703150D01*
X13803396Y-12703150D02*
X13822444Y-12712674D01*
X13822444Y-12712674D02*
X13831968Y-12731722D01*
X13831968Y-12731722D02*
X13831968Y-12750769D01*
X13831968Y-12750769D02*
X13736730Y-12769817D01*
X13908158Y-12826960D02*
X13927206Y-12836484D01*
X13927206Y-12836484D02*
X13965301Y-12836484D01*
X13965301Y-12836484D02*
X13984349Y-12826960D01*
X13984349Y-12826960D02*
X13993872Y-12807912D01*
X13993872Y-12807912D02*
X13993872Y-12798388D01*
X13993872Y-12798388D02*
X13984349Y-12779341D01*
X13984349Y-12779341D02*
X13965301Y-12769817D01*
X13965301Y-12769817D02*
X13936730Y-12769817D01*
X13936730Y-12769817D02*
X13917682Y-12760293D01*
X13917682Y-12760293D02*
X13908158Y-12741246D01*
X13908158Y-12741246D02*
X13908158Y-12731722D01*
X13908158Y-12731722D02*
X13917682Y-12712674D01*
X13917682Y-12712674D02*
X13936730Y-12703150D01*
X13936730Y-12703150D02*
X13965301Y-12703150D01*
X13965301Y-12703150D02*
X13984349Y-12712674D01*
X14060539Y-12912674D02*
X14070063Y-12903150D01*
X14070063Y-12903150D02*
X14089111Y-12874579D01*
X14089111Y-12874579D02*
X14098634Y-12855531D01*
X14098634Y-12855531D02*
X14108158Y-12826960D01*
X14108158Y-12826960D02*
X14117682Y-12779341D01*
X14117682Y-12779341D02*
X14117682Y-12741246D01*
X14117682Y-12741246D02*
X14108158Y-12693627D01*
X14108158Y-12693627D02*
X14098634Y-12665055D01*
X14098634Y-12665055D02*
X14089111Y-12646008D01*
X14089111Y-12646008D02*
X14070063Y-12617436D01*
X14070063Y-12617436D02*
X14060539Y-12607912D01*
D13*
X9095000Y-13009000D02*
G75*
G03*
X9095000Y-13009000I-30000J0D01*
G01*
D11*
X9393872Y-12900484D02*
X9412920Y-12900484D01*
X9412920Y-12900484D02*
X9431967Y-12910008D01*
X9431967Y-12910008D02*
X9441491Y-12919531D01*
X9441491Y-12919531D02*
X9451015Y-12938579D01*
X9451015Y-12938579D02*
X9460539Y-12976674D01*
X9460539Y-12976674D02*
X9460539Y-13024293D01*
X9460539Y-13024293D02*
X9451015Y-13062388D01*
X9451015Y-13062388D02*
X9441491Y-13081436D01*
X9441491Y-13081436D02*
X9431967Y-13090960D01*
X9431967Y-13090960D02*
X9412920Y-13100484D01*
X9412920Y-13100484D02*
X9393872Y-13100484D01*
X9393872Y-13100484D02*
X9374824Y-13090960D01*
X9374824Y-13090960D02*
X9365301Y-13081436D01*
X9365301Y-13081436D02*
X9355777Y-13062388D01*
X9355777Y-13062388D02*
X9346253Y-13024293D01*
X9346253Y-13024293D02*
X9346253Y-12976674D01*
X9346253Y-12976674D02*
X9355777Y-12938579D01*
X9355777Y-12938579D02*
X9365301Y-12919531D01*
X9365301Y-12919531D02*
X9374824Y-12910008D01*
X9374824Y-12910008D02*
X9393872Y-12900484D01*
X9546253Y-13081436D02*
X9555777Y-13090960D01*
X9555777Y-13090960D02*
X9546253Y-13100484D01*
X9546253Y-13100484D02*
X9536729Y-13090960D01*
X9536729Y-13090960D02*
X9546253Y-13081436D01*
X9546253Y-13081436D02*
X9546253Y-13100484D01*
X9727205Y-12900484D02*
X9689110Y-12900484D01*
X9689110Y-12900484D02*
X9670063Y-12910008D01*
X9670063Y-12910008D02*
X9660539Y-12919531D01*
X9660539Y-12919531D02*
X9641491Y-12948103D01*
X9641491Y-12948103D02*
X9631967Y-12986198D01*
X9631967Y-12986198D02*
X9631967Y-13062388D01*
X9631967Y-13062388D02*
X9641491Y-13081436D01*
X9641491Y-13081436D02*
X9651015Y-13090960D01*
X9651015Y-13090960D02*
X9670063Y-13100484D01*
X9670063Y-13100484D02*
X9708158Y-13100484D01*
X9708158Y-13100484D02*
X9727205Y-13090960D01*
X9727205Y-13090960D02*
X9736729Y-13081436D01*
X9736729Y-13081436D02*
X9746253Y-13062388D01*
X9746253Y-13062388D02*
X9746253Y-13014769D01*
X9746253Y-13014769D02*
X9736729Y-12995722D01*
X9736729Y-12995722D02*
X9727205Y-12986198D01*
X9727205Y-12986198D02*
X9708158Y-12976674D01*
X9708158Y-12976674D02*
X9670063Y-12976674D01*
X9670063Y-12976674D02*
X9651015Y-12986198D01*
X9651015Y-12986198D02*
X9641491Y-12995722D01*
X9641491Y-12995722D02*
X9631967Y-13014769D01*
X9870063Y-12900484D02*
X9889110Y-12900484D01*
X9889110Y-12900484D02*
X9908158Y-12910008D01*
X9908158Y-12910008D02*
X9917682Y-12919531D01*
X9917682Y-12919531D02*
X9927205Y-12938579D01*
X9927205Y-12938579D02*
X9936729Y-12976674D01*
X9936729Y-12976674D02*
X9936729Y-13024293D01*
X9936729Y-13024293D02*
X9927205Y-13062388D01*
X9927205Y-13062388D02*
X9917682Y-13081436D01*
X9917682Y-13081436D02*
X9908158Y-13090960D01*
X9908158Y-13090960D02*
X9889110Y-13100484D01*
X9889110Y-13100484D02*
X9870063Y-13100484D01*
X9870063Y-13100484D02*
X9851015Y-13090960D01*
X9851015Y-13090960D02*
X9841491Y-13081436D01*
X9841491Y-13081436D02*
X9831967Y-13062388D01*
X9831967Y-13062388D02*
X9822444Y-13024293D01*
X9822444Y-13024293D02*
X9822444Y-12976674D01*
X9822444Y-12976674D02*
X9831967Y-12938579D01*
X9831967Y-12938579D02*
X9841491Y-12919531D01*
X9841491Y-12919531D02*
X9851015Y-12910008D01*
X9851015Y-12910008D02*
X9870063Y-12900484D01*
X10060539Y-12900484D02*
X10079586Y-12900484D01*
X10079586Y-12900484D02*
X10098634Y-12910008D01*
X10098634Y-12910008D02*
X10108158Y-12919531D01*
X10108158Y-12919531D02*
X10117682Y-12938579D01*
X10117682Y-12938579D02*
X10127205Y-12976674D01*
X10127205Y-12976674D02*
X10127205Y-13024293D01*
X10127205Y-13024293D02*
X10117682Y-13062388D01*
X10117682Y-13062388D02*
X10108158Y-13081436D01*
X10108158Y-13081436D02*
X10098634Y-13090960D01*
X10098634Y-13090960D02*
X10079586Y-13100484D01*
X10079586Y-13100484D02*
X10060539Y-13100484D01*
X10060539Y-13100484D02*
X10041491Y-13090960D01*
X10041491Y-13090960D02*
X10031967Y-13081436D01*
X10031967Y-13081436D02*
X10022444Y-13062388D01*
X10022444Y-13062388D02*
X10012920Y-13024293D01*
X10012920Y-13024293D02*
X10012920Y-12976674D01*
X10012920Y-12976674D02*
X10022444Y-12938579D01*
X10022444Y-12938579D02*
X10031967Y-12919531D01*
X10031967Y-12919531D02*
X10041491Y-12910008D01*
X10041491Y-12910008D02*
X10060539Y-12900484D01*
X10212920Y-13100484D02*
X10212920Y-12967150D01*
X10212920Y-12986198D02*
X10222444Y-12976674D01*
X10222444Y-12976674D02*
X10241491Y-12967150D01*
X10241491Y-12967150D02*
X10270063Y-12967150D01*
X10270063Y-12967150D02*
X10289110Y-12976674D01*
X10289110Y-12976674D02*
X10298634Y-12995722D01*
X10298634Y-12995722D02*
X10298634Y-13100484D01*
X10298634Y-12995722D02*
X10308158Y-12976674D01*
X10308158Y-12976674D02*
X10327205Y-12967150D01*
X10327205Y-12967150D02*
X10355777Y-12967150D01*
X10355777Y-12967150D02*
X10374825Y-12976674D01*
X10374825Y-12976674D02*
X10384348Y-12995722D01*
X10384348Y-12995722D02*
X10384348Y-13100484D01*
X10479586Y-13100484D02*
X10479586Y-12967150D01*
X10479586Y-12986198D02*
X10489110Y-12976674D01*
X10489110Y-12976674D02*
X10508158Y-12967150D01*
X10508158Y-12967150D02*
X10536729Y-12967150D01*
X10536729Y-12967150D02*
X10555777Y-12976674D01*
X10555777Y-12976674D02*
X10565301Y-12995722D01*
X10565301Y-12995722D02*
X10565301Y-13100484D01*
X10565301Y-12995722D02*
X10574825Y-12976674D01*
X10574825Y-12976674D02*
X10593872Y-12967150D01*
X10593872Y-12967150D02*
X10622444Y-12967150D01*
X10622444Y-12967150D02*
X10641491Y-12976674D01*
X10641491Y-12976674D02*
X10651015Y-12995722D01*
X10651015Y-12995722D02*
X10651015Y-13100484D01*
X11041491Y-12890960D02*
X10870063Y-13148103D01*
X11298634Y-12900484D02*
X11317682Y-12900484D01*
X11317682Y-12900484D02*
X11336729Y-12910008D01*
X11336729Y-12910008D02*
X11346253Y-12919531D01*
X11346253Y-12919531D02*
X11355777Y-12938579D01*
X11355777Y-12938579D02*
X11365301Y-12976674D01*
X11365301Y-12976674D02*
X11365301Y-13024293D01*
X11365301Y-13024293D02*
X11355777Y-13062388D01*
X11355777Y-13062388D02*
X11346253Y-13081436D01*
X11346253Y-13081436D02*
X11336729Y-13090960D01*
X11336729Y-13090960D02*
X11317682Y-13100484D01*
X11317682Y-13100484D02*
X11298634Y-13100484D01*
X11298634Y-13100484D02*
X11279586Y-13090960D01*
X11279586Y-13090960D02*
X11270063Y-13081436D01*
X11270063Y-13081436D02*
X11260539Y-13062388D01*
X11260539Y-13062388D02*
X11251015Y-13024293D01*
X11251015Y-13024293D02*
X11251015Y-12976674D01*
X11251015Y-12976674D02*
X11260539Y-12938579D01*
X11260539Y-12938579D02*
X11270063Y-12919531D01*
X11270063Y-12919531D02*
X11279586Y-12910008D01*
X11279586Y-12910008D02*
X11298634Y-12900484D01*
X11451015Y-13081436D02*
X11460539Y-13090960D01*
X11460539Y-13090960D02*
X11451015Y-13100484D01*
X11451015Y-13100484D02*
X11441491Y-13090960D01*
X11441491Y-13090960D02*
X11451015Y-13081436D01*
X11451015Y-13081436D02*
X11451015Y-13100484D01*
X11584348Y-12900484D02*
X11603396Y-12900484D01*
X11603396Y-12900484D02*
X11622444Y-12910008D01*
X11622444Y-12910008D02*
X11631967Y-12919531D01*
X11631967Y-12919531D02*
X11641491Y-12938579D01*
X11641491Y-12938579D02*
X11651015Y-12976674D01*
X11651015Y-12976674D02*
X11651015Y-13024293D01*
X11651015Y-13024293D02*
X11641491Y-13062388D01*
X11641491Y-13062388D02*
X11631967Y-13081436D01*
X11631967Y-13081436D02*
X11622444Y-13090960D01*
X11622444Y-13090960D02*
X11603396Y-13100484D01*
X11603396Y-13100484D02*
X11584348Y-13100484D01*
X11584348Y-13100484D02*
X11565301Y-13090960D01*
X11565301Y-13090960D02*
X11555777Y-13081436D01*
X11555777Y-13081436D02*
X11546253Y-13062388D01*
X11546253Y-13062388D02*
X11536729Y-13024293D01*
X11536729Y-13024293D02*
X11536729Y-12976674D01*
X11536729Y-12976674D02*
X11546253Y-12938579D01*
X11546253Y-12938579D02*
X11555777Y-12919531D01*
X11555777Y-12919531D02*
X11565301Y-12910008D01*
X11565301Y-12910008D02*
X11584348Y-12900484D01*
X11727206Y-12919531D02*
X11736729Y-12910008D01*
X11736729Y-12910008D02*
X11755777Y-12900484D01*
X11755777Y-12900484D02*
X11803396Y-12900484D01*
X11803396Y-12900484D02*
X11822444Y-12910008D01*
X11822444Y-12910008D02*
X11831967Y-12919531D01*
X11831967Y-12919531D02*
X11841491Y-12938579D01*
X11841491Y-12938579D02*
X11841491Y-12957627D01*
X11841491Y-12957627D02*
X11831967Y-12986198D01*
X11831967Y-12986198D02*
X11717682Y-13100484D01*
X11717682Y-13100484D02*
X11841491Y-13100484D01*
X11908158Y-12900484D02*
X12031967Y-12900484D01*
X12031967Y-12900484D02*
X11965301Y-12976674D01*
X11965301Y-12976674D02*
X11993872Y-12976674D01*
X11993872Y-12976674D02*
X12012920Y-12986198D01*
X12012920Y-12986198D02*
X12022444Y-12995722D01*
X12022444Y-12995722D02*
X12031967Y-13014769D01*
X12031967Y-13014769D02*
X12031967Y-13062388D01*
X12031967Y-13062388D02*
X12022444Y-13081436D01*
X12022444Y-13081436D02*
X12012920Y-13090960D01*
X12012920Y-13090960D02*
X11993872Y-13100484D01*
X11993872Y-13100484D02*
X11936729Y-13100484D01*
X11936729Y-13100484D02*
X11917682Y-13090960D01*
X11917682Y-13090960D02*
X11908158Y-13081436D01*
X12203396Y-12900484D02*
X12165301Y-12900484D01*
X12165301Y-12900484D02*
X12146253Y-12910008D01*
X12146253Y-12910008D02*
X12136729Y-12919531D01*
X12136729Y-12919531D02*
X12117682Y-12948103D01*
X12117682Y-12948103D02*
X12108158Y-12986198D01*
X12108158Y-12986198D02*
X12108158Y-13062388D01*
X12108158Y-13062388D02*
X12117682Y-13081436D01*
X12117682Y-13081436D02*
X12127206Y-13090960D01*
X12127206Y-13090960D02*
X12146253Y-13100484D01*
X12146253Y-13100484D02*
X12184348Y-13100484D01*
X12184348Y-13100484D02*
X12203396Y-13090960D01*
X12203396Y-13090960D02*
X12212920Y-13081436D01*
X12212920Y-13081436D02*
X12222444Y-13062388D01*
X12222444Y-13062388D02*
X12222444Y-13014769D01*
X12222444Y-13014769D02*
X12212920Y-12995722D01*
X12212920Y-12995722D02*
X12203396Y-12986198D01*
X12203396Y-12986198D02*
X12184348Y-12976674D01*
X12184348Y-12976674D02*
X12146253Y-12976674D01*
X12146253Y-12976674D02*
X12127206Y-12986198D01*
X12127206Y-12986198D02*
X12117682Y-12995722D01*
X12117682Y-12995722D02*
X12108158Y-13014769D01*
X12298634Y-12900484D02*
X12298634Y-12938579D01*
X12374825Y-12900484D02*
X12374825Y-12938579D01*
X12670063Y-13176674D02*
X12660539Y-13167150D01*
X12660539Y-13167150D02*
X12641491Y-13138579D01*
X12641491Y-13138579D02*
X12631968Y-13119531D01*
X12631968Y-13119531D02*
X12622444Y-13090960D01*
X12622444Y-13090960D02*
X12612920Y-13043341D01*
X12612920Y-13043341D02*
X12612920Y-13005246D01*
X12612920Y-13005246D02*
X12622444Y-12957627D01*
X12622444Y-12957627D02*
X12631968Y-12929055D01*
X12631968Y-12929055D02*
X12641491Y-12910008D01*
X12641491Y-12910008D02*
X12660539Y-12881436D01*
X12660539Y-12881436D02*
X12670063Y-12871912D01*
X12851015Y-13100484D02*
X12736729Y-13100484D01*
X12793872Y-13100484D02*
X12793872Y-12900484D01*
X12793872Y-12900484D02*
X12774825Y-12929055D01*
X12774825Y-12929055D02*
X12755777Y-12948103D01*
X12755777Y-12948103D02*
X12736729Y-12957627D01*
X13089110Y-13100484D02*
X13089110Y-12900484D01*
X13174825Y-13100484D02*
X13174825Y-12995722D01*
X13174825Y-12995722D02*
X13165301Y-12976674D01*
X13165301Y-12976674D02*
X13146253Y-12967150D01*
X13146253Y-12967150D02*
X13117682Y-12967150D01*
X13117682Y-12967150D02*
X13098634Y-12976674D01*
X13098634Y-12976674D02*
X13089110Y-12986198D01*
X13298634Y-13100484D02*
X13279587Y-13090960D01*
X13279587Y-13090960D02*
X13270063Y-13081436D01*
X13270063Y-13081436D02*
X13260539Y-13062388D01*
X13260539Y-13062388D02*
X13260539Y-13005246D01*
X13260539Y-13005246D02*
X13270063Y-12986198D01*
X13270063Y-12986198D02*
X13279587Y-12976674D01*
X13279587Y-12976674D02*
X13298634Y-12967150D01*
X13298634Y-12967150D02*
X13327206Y-12967150D01*
X13327206Y-12967150D02*
X13346253Y-12976674D01*
X13346253Y-12976674D02*
X13355777Y-12986198D01*
X13355777Y-12986198D02*
X13365301Y-13005246D01*
X13365301Y-13005246D02*
X13365301Y-13062388D01*
X13365301Y-13062388D02*
X13355777Y-13081436D01*
X13355777Y-13081436D02*
X13346253Y-13090960D01*
X13346253Y-13090960D02*
X13327206Y-13100484D01*
X13327206Y-13100484D02*
X13298634Y-13100484D01*
X13479587Y-13100484D02*
X13460539Y-13090960D01*
X13460539Y-13090960D02*
X13451015Y-13071912D01*
X13451015Y-13071912D02*
X13451015Y-12900484D01*
X13631968Y-13090960D02*
X13612920Y-13100484D01*
X13612920Y-13100484D02*
X13574825Y-13100484D01*
X13574825Y-13100484D02*
X13555777Y-13090960D01*
X13555777Y-13090960D02*
X13546253Y-13071912D01*
X13546253Y-13071912D02*
X13546253Y-12995722D01*
X13546253Y-12995722D02*
X13555777Y-12976674D01*
X13555777Y-12976674D02*
X13574825Y-12967150D01*
X13574825Y-12967150D02*
X13612920Y-12967150D01*
X13612920Y-12967150D02*
X13631968Y-12976674D01*
X13631968Y-12976674D02*
X13641491Y-12995722D01*
X13641491Y-12995722D02*
X13641491Y-13014769D01*
X13641491Y-13014769D02*
X13546253Y-13033817D01*
X13708158Y-13176674D02*
X13717682Y-13167150D01*
X13717682Y-13167150D02*
X13736730Y-13138579D01*
X13736730Y-13138579D02*
X13746253Y-13119531D01*
X13746253Y-13119531D02*
X13755777Y-13090960D01*
X13755777Y-13090960D02*
X13765301Y-13043341D01*
X13765301Y-13043341D02*
X13765301Y-13005246D01*
X13765301Y-13005246D02*
X13755777Y-12957627D01*
X13755777Y-12957627D02*
X13746253Y-12929055D01*
X13746253Y-12929055D02*
X13736730Y-12910008D01*
X13736730Y-12910008D02*
X13717682Y-12881436D01*
X13717682Y-12881436D02*
X13708158Y-12871912D01*
D13*
X9065000Y-13243000D02*
X9065000Y-13303000D01*
X9035000Y-13273000D02*
X9095000Y-13273000D01*
D11*
X9393872Y-13164484D02*
X9412920Y-13164484D01*
X9412920Y-13164484D02*
X9431967Y-13174008D01*
X9431967Y-13174008D02*
X9441491Y-13183531D01*
X9441491Y-13183531D02*
X9451015Y-13202579D01*
X9451015Y-13202579D02*
X9460539Y-13240674D01*
X9460539Y-13240674D02*
X9460539Y-13288293D01*
X9460539Y-13288293D02*
X9451015Y-13326388D01*
X9451015Y-13326388D02*
X9441491Y-13345436D01*
X9441491Y-13345436D02*
X9431967Y-13354960D01*
X9431967Y-13354960D02*
X9412920Y-13364484D01*
X9412920Y-13364484D02*
X9393872Y-13364484D01*
X9393872Y-13364484D02*
X9374824Y-13354960D01*
X9374824Y-13354960D02*
X9365301Y-13345436D01*
X9365301Y-13345436D02*
X9355777Y-13326388D01*
X9355777Y-13326388D02*
X9346253Y-13288293D01*
X9346253Y-13288293D02*
X9346253Y-13240674D01*
X9346253Y-13240674D02*
X9355777Y-13202579D01*
X9355777Y-13202579D02*
X9365301Y-13183531D01*
X9365301Y-13183531D02*
X9374824Y-13174008D01*
X9374824Y-13174008D02*
X9393872Y-13164484D01*
X9546253Y-13345436D02*
X9555777Y-13354960D01*
X9555777Y-13354960D02*
X9546253Y-13364484D01*
X9546253Y-13364484D02*
X9536729Y-13354960D01*
X9536729Y-13354960D02*
X9546253Y-13345436D01*
X9546253Y-13345436D02*
X9546253Y-13364484D01*
X9727205Y-13164484D02*
X9689110Y-13164484D01*
X9689110Y-13164484D02*
X9670063Y-13174008D01*
X9670063Y-13174008D02*
X9660539Y-13183531D01*
X9660539Y-13183531D02*
X9641491Y-13212103D01*
X9641491Y-13212103D02*
X9631967Y-13250198D01*
X9631967Y-13250198D02*
X9631967Y-13326388D01*
X9631967Y-13326388D02*
X9641491Y-13345436D01*
X9641491Y-13345436D02*
X9651015Y-13354960D01*
X9651015Y-13354960D02*
X9670063Y-13364484D01*
X9670063Y-13364484D02*
X9708158Y-13364484D01*
X9708158Y-13364484D02*
X9727205Y-13354960D01*
X9727205Y-13354960D02*
X9736729Y-13345436D01*
X9736729Y-13345436D02*
X9746253Y-13326388D01*
X9746253Y-13326388D02*
X9746253Y-13278769D01*
X9746253Y-13278769D02*
X9736729Y-13259722D01*
X9736729Y-13259722D02*
X9727205Y-13250198D01*
X9727205Y-13250198D02*
X9708158Y-13240674D01*
X9708158Y-13240674D02*
X9670063Y-13240674D01*
X9670063Y-13240674D02*
X9651015Y-13250198D01*
X9651015Y-13250198D02*
X9641491Y-13259722D01*
X9641491Y-13259722D02*
X9631967Y-13278769D01*
X9870063Y-13164484D02*
X9889110Y-13164484D01*
X9889110Y-13164484D02*
X9908158Y-13174008D01*
X9908158Y-13174008D02*
X9917682Y-13183531D01*
X9917682Y-13183531D02*
X9927205Y-13202579D01*
X9927205Y-13202579D02*
X9936729Y-13240674D01*
X9936729Y-13240674D02*
X9936729Y-13288293D01*
X9936729Y-13288293D02*
X9927205Y-13326388D01*
X9927205Y-13326388D02*
X9917682Y-13345436D01*
X9917682Y-13345436D02*
X9908158Y-13354960D01*
X9908158Y-13354960D02*
X9889110Y-13364484D01*
X9889110Y-13364484D02*
X9870063Y-13364484D01*
X9870063Y-13364484D02*
X9851015Y-13354960D01*
X9851015Y-13354960D02*
X9841491Y-13345436D01*
X9841491Y-13345436D02*
X9831967Y-13326388D01*
X9831967Y-13326388D02*
X9822444Y-13288293D01*
X9822444Y-13288293D02*
X9822444Y-13240674D01*
X9822444Y-13240674D02*
X9831967Y-13202579D01*
X9831967Y-13202579D02*
X9841491Y-13183531D01*
X9841491Y-13183531D02*
X9851015Y-13174008D01*
X9851015Y-13174008D02*
X9870063Y-13164484D01*
X10060539Y-13164484D02*
X10079586Y-13164484D01*
X10079586Y-13164484D02*
X10098634Y-13174008D01*
X10098634Y-13174008D02*
X10108158Y-13183531D01*
X10108158Y-13183531D02*
X10117682Y-13202579D01*
X10117682Y-13202579D02*
X10127205Y-13240674D01*
X10127205Y-13240674D02*
X10127205Y-13288293D01*
X10127205Y-13288293D02*
X10117682Y-13326388D01*
X10117682Y-13326388D02*
X10108158Y-13345436D01*
X10108158Y-13345436D02*
X10098634Y-13354960D01*
X10098634Y-13354960D02*
X10079586Y-13364484D01*
X10079586Y-13364484D02*
X10060539Y-13364484D01*
X10060539Y-13364484D02*
X10041491Y-13354960D01*
X10041491Y-13354960D02*
X10031967Y-13345436D01*
X10031967Y-13345436D02*
X10022444Y-13326388D01*
X10022444Y-13326388D02*
X10012920Y-13288293D01*
X10012920Y-13288293D02*
X10012920Y-13240674D01*
X10012920Y-13240674D02*
X10022444Y-13202579D01*
X10022444Y-13202579D02*
X10031967Y-13183531D01*
X10031967Y-13183531D02*
X10041491Y-13174008D01*
X10041491Y-13174008D02*
X10060539Y-13164484D01*
X10212920Y-13364484D02*
X10212920Y-13231150D01*
X10212920Y-13250198D02*
X10222444Y-13240674D01*
X10222444Y-13240674D02*
X10241491Y-13231150D01*
X10241491Y-13231150D02*
X10270063Y-13231150D01*
X10270063Y-13231150D02*
X10289110Y-13240674D01*
X10289110Y-13240674D02*
X10298634Y-13259722D01*
X10298634Y-13259722D02*
X10298634Y-13364484D01*
X10298634Y-13259722D02*
X10308158Y-13240674D01*
X10308158Y-13240674D02*
X10327205Y-13231150D01*
X10327205Y-13231150D02*
X10355777Y-13231150D01*
X10355777Y-13231150D02*
X10374825Y-13240674D01*
X10374825Y-13240674D02*
X10384348Y-13259722D01*
X10384348Y-13259722D02*
X10384348Y-13364484D01*
X10479586Y-13364484D02*
X10479586Y-13231150D01*
X10479586Y-13250198D02*
X10489110Y-13240674D01*
X10489110Y-13240674D02*
X10508158Y-13231150D01*
X10508158Y-13231150D02*
X10536729Y-13231150D01*
X10536729Y-13231150D02*
X10555777Y-13240674D01*
X10555777Y-13240674D02*
X10565301Y-13259722D01*
X10565301Y-13259722D02*
X10565301Y-13364484D01*
X10565301Y-13259722D02*
X10574825Y-13240674D01*
X10574825Y-13240674D02*
X10593872Y-13231150D01*
X10593872Y-13231150D02*
X10622444Y-13231150D01*
X10622444Y-13231150D02*
X10641491Y-13240674D01*
X10641491Y-13240674D02*
X10651015Y-13259722D01*
X10651015Y-13259722D02*
X10651015Y-13364484D01*
X11041491Y-13154960D02*
X10870063Y-13412103D01*
X11298634Y-13164484D02*
X11317682Y-13164484D01*
X11317682Y-13164484D02*
X11336729Y-13174008D01*
X11336729Y-13174008D02*
X11346253Y-13183531D01*
X11346253Y-13183531D02*
X11355777Y-13202579D01*
X11355777Y-13202579D02*
X11365301Y-13240674D01*
X11365301Y-13240674D02*
X11365301Y-13288293D01*
X11365301Y-13288293D02*
X11355777Y-13326388D01*
X11355777Y-13326388D02*
X11346253Y-13345436D01*
X11346253Y-13345436D02*
X11336729Y-13354960D01*
X11336729Y-13354960D02*
X11317682Y-13364484D01*
X11317682Y-13364484D02*
X11298634Y-13364484D01*
X11298634Y-13364484D02*
X11279586Y-13354960D01*
X11279586Y-13354960D02*
X11270063Y-13345436D01*
X11270063Y-13345436D02*
X11260539Y-13326388D01*
X11260539Y-13326388D02*
X11251015Y-13288293D01*
X11251015Y-13288293D02*
X11251015Y-13240674D01*
X11251015Y-13240674D02*
X11260539Y-13202579D01*
X11260539Y-13202579D02*
X11270063Y-13183531D01*
X11270063Y-13183531D02*
X11279586Y-13174008D01*
X11279586Y-13174008D02*
X11298634Y-13164484D01*
X11451015Y-13345436D02*
X11460539Y-13354960D01*
X11460539Y-13354960D02*
X11451015Y-13364484D01*
X11451015Y-13364484D02*
X11441491Y-13354960D01*
X11441491Y-13354960D02*
X11451015Y-13345436D01*
X11451015Y-13345436D02*
X11451015Y-13364484D01*
X11584348Y-13164484D02*
X11603396Y-13164484D01*
X11603396Y-13164484D02*
X11622444Y-13174008D01*
X11622444Y-13174008D02*
X11631967Y-13183531D01*
X11631967Y-13183531D02*
X11641491Y-13202579D01*
X11641491Y-13202579D02*
X11651015Y-13240674D01*
X11651015Y-13240674D02*
X11651015Y-13288293D01*
X11651015Y-13288293D02*
X11641491Y-13326388D01*
X11641491Y-13326388D02*
X11631967Y-13345436D01*
X11631967Y-13345436D02*
X11622444Y-13354960D01*
X11622444Y-13354960D02*
X11603396Y-13364484D01*
X11603396Y-13364484D02*
X11584348Y-13364484D01*
X11584348Y-13364484D02*
X11565301Y-13354960D01*
X11565301Y-13354960D02*
X11555777Y-13345436D01*
X11555777Y-13345436D02*
X11546253Y-13326388D01*
X11546253Y-13326388D02*
X11536729Y-13288293D01*
X11536729Y-13288293D02*
X11536729Y-13240674D01*
X11536729Y-13240674D02*
X11546253Y-13202579D01*
X11546253Y-13202579D02*
X11555777Y-13183531D01*
X11555777Y-13183531D02*
X11565301Y-13174008D01*
X11565301Y-13174008D02*
X11584348Y-13164484D01*
X11727206Y-13183531D02*
X11736729Y-13174008D01*
X11736729Y-13174008D02*
X11755777Y-13164484D01*
X11755777Y-13164484D02*
X11803396Y-13164484D01*
X11803396Y-13164484D02*
X11822444Y-13174008D01*
X11822444Y-13174008D02*
X11831967Y-13183531D01*
X11831967Y-13183531D02*
X11841491Y-13202579D01*
X11841491Y-13202579D02*
X11841491Y-13221627D01*
X11841491Y-13221627D02*
X11831967Y-13250198D01*
X11831967Y-13250198D02*
X11717682Y-13364484D01*
X11717682Y-13364484D02*
X11841491Y-13364484D01*
X11908158Y-13164484D02*
X12031967Y-13164484D01*
X12031967Y-13164484D02*
X11965301Y-13240674D01*
X11965301Y-13240674D02*
X11993872Y-13240674D01*
X11993872Y-13240674D02*
X12012920Y-13250198D01*
X12012920Y-13250198D02*
X12022444Y-13259722D01*
X12022444Y-13259722D02*
X12031967Y-13278769D01*
X12031967Y-13278769D02*
X12031967Y-13326388D01*
X12031967Y-13326388D02*
X12022444Y-13345436D01*
X12022444Y-13345436D02*
X12012920Y-13354960D01*
X12012920Y-13354960D02*
X11993872Y-13364484D01*
X11993872Y-13364484D02*
X11936729Y-13364484D01*
X11936729Y-13364484D02*
X11917682Y-13354960D01*
X11917682Y-13354960D02*
X11908158Y-13345436D01*
X12203396Y-13164484D02*
X12165301Y-13164484D01*
X12165301Y-13164484D02*
X12146253Y-13174008D01*
X12146253Y-13174008D02*
X12136729Y-13183531D01*
X12136729Y-13183531D02*
X12117682Y-13212103D01*
X12117682Y-13212103D02*
X12108158Y-13250198D01*
X12108158Y-13250198D02*
X12108158Y-13326388D01*
X12108158Y-13326388D02*
X12117682Y-13345436D01*
X12117682Y-13345436D02*
X12127206Y-13354960D01*
X12127206Y-13354960D02*
X12146253Y-13364484D01*
X12146253Y-13364484D02*
X12184348Y-13364484D01*
X12184348Y-13364484D02*
X12203396Y-13354960D01*
X12203396Y-13354960D02*
X12212920Y-13345436D01*
X12212920Y-13345436D02*
X12222444Y-13326388D01*
X12222444Y-13326388D02*
X12222444Y-13278769D01*
X12222444Y-13278769D02*
X12212920Y-13259722D01*
X12212920Y-13259722D02*
X12203396Y-13250198D01*
X12203396Y-13250198D02*
X12184348Y-13240674D01*
X12184348Y-13240674D02*
X12146253Y-13240674D01*
X12146253Y-13240674D02*
X12127206Y-13250198D01*
X12127206Y-13250198D02*
X12117682Y-13259722D01*
X12117682Y-13259722D02*
X12108158Y-13278769D01*
X12298634Y-13164484D02*
X12298634Y-13202579D01*
X12374825Y-13164484D02*
X12374825Y-13202579D01*
X12670063Y-13440674D02*
X12660539Y-13431150D01*
X12660539Y-13431150D02*
X12641491Y-13402579D01*
X12641491Y-13402579D02*
X12631968Y-13383531D01*
X12631968Y-13383531D02*
X12622444Y-13354960D01*
X12622444Y-13354960D02*
X12612920Y-13307341D01*
X12612920Y-13307341D02*
X12612920Y-13269246D01*
X12612920Y-13269246D02*
X12622444Y-13221627D01*
X12622444Y-13221627D02*
X12631968Y-13193055D01*
X12631968Y-13193055D02*
X12641491Y-13174008D01*
X12641491Y-13174008D02*
X12660539Y-13145436D01*
X12660539Y-13145436D02*
X12670063Y-13135912D01*
X12784348Y-13164484D02*
X12803396Y-13164484D01*
X12803396Y-13164484D02*
X12822444Y-13174008D01*
X12822444Y-13174008D02*
X12831968Y-13183531D01*
X12831968Y-13183531D02*
X12841491Y-13202579D01*
X12841491Y-13202579D02*
X12851015Y-13240674D01*
X12851015Y-13240674D02*
X12851015Y-13288293D01*
X12851015Y-13288293D02*
X12841491Y-13326388D01*
X12841491Y-13326388D02*
X12831968Y-13345436D01*
X12831968Y-13345436D02*
X12822444Y-13354960D01*
X12822444Y-13354960D02*
X12803396Y-13364484D01*
X12803396Y-13364484D02*
X12784348Y-13364484D01*
X12784348Y-13364484D02*
X12765301Y-13354960D01*
X12765301Y-13354960D02*
X12755777Y-13345436D01*
X12755777Y-13345436D02*
X12746253Y-13326388D01*
X12746253Y-13326388D02*
X12736729Y-13288293D01*
X12736729Y-13288293D02*
X12736729Y-13240674D01*
X12736729Y-13240674D02*
X12746253Y-13202579D01*
X12746253Y-13202579D02*
X12755777Y-13183531D01*
X12755777Y-13183531D02*
X12765301Y-13174008D01*
X12765301Y-13174008D02*
X12784348Y-13164484D01*
X13089110Y-13364484D02*
X13089110Y-13164484D01*
X13174825Y-13364484D02*
X13174825Y-13259722D01*
X13174825Y-13259722D02*
X13165301Y-13240674D01*
X13165301Y-13240674D02*
X13146253Y-13231150D01*
X13146253Y-13231150D02*
X13117682Y-13231150D01*
X13117682Y-13231150D02*
X13098634Y-13240674D01*
X13098634Y-13240674D02*
X13089110Y-13250198D01*
X13298634Y-13364484D02*
X13279587Y-13354960D01*
X13279587Y-13354960D02*
X13270063Y-13345436D01*
X13270063Y-13345436D02*
X13260539Y-13326388D01*
X13260539Y-13326388D02*
X13260539Y-13269246D01*
X13260539Y-13269246D02*
X13270063Y-13250198D01*
X13270063Y-13250198D02*
X13279587Y-13240674D01*
X13279587Y-13240674D02*
X13298634Y-13231150D01*
X13298634Y-13231150D02*
X13327206Y-13231150D01*
X13327206Y-13231150D02*
X13346253Y-13240674D01*
X13346253Y-13240674D02*
X13355777Y-13250198D01*
X13355777Y-13250198D02*
X13365301Y-13269246D01*
X13365301Y-13269246D02*
X13365301Y-13326388D01*
X13365301Y-13326388D02*
X13355777Y-13345436D01*
X13355777Y-13345436D02*
X13346253Y-13354960D01*
X13346253Y-13354960D02*
X13327206Y-13364484D01*
X13327206Y-13364484D02*
X13298634Y-13364484D01*
X13479587Y-13364484D02*
X13460539Y-13354960D01*
X13460539Y-13354960D02*
X13451015Y-13335912D01*
X13451015Y-13335912D02*
X13451015Y-13164484D01*
X13631968Y-13354960D02*
X13612920Y-13364484D01*
X13612920Y-13364484D02*
X13574825Y-13364484D01*
X13574825Y-13364484D02*
X13555777Y-13354960D01*
X13555777Y-13354960D02*
X13546253Y-13335912D01*
X13546253Y-13335912D02*
X13546253Y-13259722D01*
X13546253Y-13259722D02*
X13555777Y-13240674D01*
X13555777Y-13240674D02*
X13574825Y-13231150D01*
X13574825Y-13231150D02*
X13612920Y-13231150D01*
X13612920Y-13231150D02*
X13631968Y-13240674D01*
X13631968Y-13240674D02*
X13641491Y-13259722D01*
X13641491Y-13259722D02*
X13641491Y-13278769D01*
X13641491Y-13278769D02*
X13546253Y-13297817D01*
X13717682Y-13354960D02*
X13736730Y-13364484D01*
X13736730Y-13364484D02*
X13774825Y-13364484D01*
X13774825Y-13364484D02*
X13793872Y-13354960D01*
X13793872Y-13354960D02*
X13803396Y-13335912D01*
X13803396Y-13335912D02*
X13803396Y-13326388D01*
X13803396Y-13326388D02*
X13793872Y-13307341D01*
X13793872Y-13307341D02*
X13774825Y-13297817D01*
X13774825Y-13297817D02*
X13746253Y-13297817D01*
X13746253Y-13297817D02*
X13727206Y-13288293D01*
X13727206Y-13288293D02*
X13717682Y-13269246D01*
X13717682Y-13269246D02*
X13717682Y-13259722D01*
X13717682Y-13259722D02*
X13727206Y-13240674D01*
X13727206Y-13240674D02*
X13746253Y-13231150D01*
X13746253Y-13231150D02*
X13774825Y-13231150D01*
X13774825Y-13231150D02*
X13793872Y-13240674D01*
X14041492Y-13288293D02*
X14193873Y-13288293D01*
X14117682Y-13364484D02*
X14117682Y-13212103D01*
X14431968Y-13183531D02*
X14441492Y-13174008D01*
X14441492Y-13174008D02*
X14460539Y-13164484D01*
X14460539Y-13164484D02*
X14508158Y-13164484D01*
X14508158Y-13164484D02*
X14527206Y-13174008D01*
X14527206Y-13174008D02*
X14536730Y-13183531D01*
X14536730Y-13183531D02*
X14546253Y-13202579D01*
X14546253Y-13202579D02*
X14546253Y-13221627D01*
X14546253Y-13221627D02*
X14536730Y-13250198D01*
X14536730Y-13250198D02*
X14422444Y-13364484D01*
X14422444Y-13364484D02*
X14546253Y-13364484D01*
X14774825Y-13354960D02*
X14793873Y-13364484D01*
X14793873Y-13364484D02*
X14831968Y-13364484D01*
X14831968Y-13364484D02*
X14851015Y-13354960D01*
X14851015Y-13354960D02*
X14860539Y-13335912D01*
X14860539Y-13335912D02*
X14860539Y-13326388D01*
X14860539Y-13326388D02*
X14851015Y-13307341D01*
X14851015Y-13307341D02*
X14831968Y-13297817D01*
X14831968Y-13297817D02*
X14803396Y-13297817D01*
X14803396Y-13297817D02*
X14784349Y-13288293D01*
X14784349Y-13288293D02*
X14774825Y-13269246D01*
X14774825Y-13269246D02*
X14774825Y-13259722D01*
X14774825Y-13259722D02*
X14784349Y-13240674D01*
X14784349Y-13240674D02*
X14803396Y-13231150D01*
X14803396Y-13231150D02*
X14831968Y-13231150D01*
X14831968Y-13231150D02*
X14851015Y-13240674D01*
X14974825Y-13364484D02*
X14955777Y-13354960D01*
X14955777Y-13354960D02*
X14946254Y-13335912D01*
X14946254Y-13335912D02*
X14946254Y-13164484D01*
X15079587Y-13364484D02*
X15060539Y-13354960D01*
X15060539Y-13354960D02*
X15051015Y-13345436D01*
X15051015Y-13345436D02*
X15041492Y-13326388D01*
X15041492Y-13326388D02*
X15041492Y-13269246D01*
X15041492Y-13269246D02*
X15051015Y-13250198D01*
X15051015Y-13250198D02*
X15060539Y-13240674D01*
X15060539Y-13240674D02*
X15079587Y-13231150D01*
X15079587Y-13231150D02*
X15108158Y-13231150D01*
X15108158Y-13231150D02*
X15127206Y-13240674D01*
X15127206Y-13240674D02*
X15136730Y-13250198D01*
X15136730Y-13250198D02*
X15146254Y-13269246D01*
X15146254Y-13269246D02*
X15146254Y-13326388D01*
X15146254Y-13326388D02*
X15136730Y-13345436D01*
X15136730Y-13345436D02*
X15127206Y-13354960D01*
X15127206Y-13354960D02*
X15108158Y-13364484D01*
X15108158Y-13364484D02*
X15079587Y-13364484D01*
X15203396Y-13231150D02*
X15279587Y-13231150D01*
X15231968Y-13164484D02*
X15231968Y-13335912D01*
X15231968Y-13335912D02*
X15241492Y-13354960D01*
X15241492Y-13354960D02*
X15260539Y-13364484D01*
X15260539Y-13364484D02*
X15279587Y-13364484D01*
X15336730Y-13354960D02*
X15355777Y-13364484D01*
X15355777Y-13364484D02*
X15393873Y-13364484D01*
X15393873Y-13364484D02*
X15412920Y-13354960D01*
X15412920Y-13354960D02*
X15422444Y-13335912D01*
X15422444Y-13335912D02*
X15422444Y-13326388D01*
X15422444Y-13326388D02*
X15412920Y-13307341D01*
X15412920Y-13307341D02*
X15393873Y-13297817D01*
X15393873Y-13297817D02*
X15365301Y-13297817D01*
X15365301Y-13297817D02*
X15346254Y-13288293D01*
X15346254Y-13288293D02*
X15336730Y-13269246D01*
X15336730Y-13269246D02*
X15336730Y-13259722D01*
X15336730Y-13259722D02*
X15346254Y-13240674D01*
X15346254Y-13240674D02*
X15365301Y-13231150D01*
X15365301Y-13231150D02*
X15393873Y-13231150D01*
X15393873Y-13231150D02*
X15412920Y-13240674D01*
X15489111Y-13440674D02*
X15498635Y-13431150D01*
X15498635Y-13431150D02*
X15517682Y-13402579D01*
X15517682Y-13402579D02*
X15527206Y-13383531D01*
X15527206Y-13383531D02*
X15536730Y-13354960D01*
X15536730Y-13354960D02*
X15546254Y-13307341D01*
X15546254Y-13307341D02*
X15546254Y-13269246D01*
X15546254Y-13269246D02*
X15536730Y-13221627D01*
X15536730Y-13221627D02*
X15527206Y-13193055D01*
X15527206Y-13193055D02*
X15517682Y-13174008D01*
X15517682Y-13174008D02*
X15498635Y-13145436D01*
X15498635Y-13145436D02*
X15489111Y-13135912D01*
D14*
X9083285Y-13565284D02*
X9083285Y-13508715D01*
X9026716Y-13508715D01*
X9026716Y-13565284D01*
X9083285Y-13565284D01*
D11*
X9393872Y-13428484D02*
X9412920Y-13428484D01*
X9412920Y-13428484D02*
X9431967Y-13438008D01*
X9431967Y-13438008D02*
X9441491Y-13447531D01*
X9441491Y-13447531D02*
X9451015Y-13466579D01*
X9451015Y-13466579D02*
X9460539Y-13504674D01*
X9460539Y-13504674D02*
X9460539Y-13552293D01*
X9460539Y-13552293D02*
X9451015Y-13590388D01*
X9451015Y-13590388D02*
X9441491Y-13609436D01*
X9441491Y-13609436D02*
X9431967Y-13618960D01*
X9431967Y-13618960D02*
X9412920Y-13628484D01*
X9412920Y-13628484D02*
X9393872Y-13628484D01*
X9393872Y-13628484D02*
X9374824Y-13618960D01*
X9374824Y-13618960D02*
X9365301Y-13609436D01*
X9365301Y-13609436D02*
X9355777Y-13590388D01*
X9355777Y-13590388D02*
X9346253Y-13552293D01*
X9346253Y-13552293D02*
X9346253Y-13504674D01*
X9346253Y-13504674D02*
X9355777Y-13466579D01*
X9355777Y-13466579D02*
X9365301Y-13447531D01*
X9365301Y-13447531D02*
X9374824Y-13438008D01*
X9374824Y-13438008D02*
X9393872Y-13428484D01*
X9546253Y-13609436D02*
X9555777Y-13618960D01*
X9555777Y-13618960D02*
X9546253Y-13628484D01*
X9546253Y-13628484D02*
X9536729Y-13618960D01*
X9536729Y-13618960D02*
X9546253Y-13609436D01*
X9546253Y-13609436D02*
X9546253Y-13628484D01*
X9670063Y-13514198D02*
X9651015Y-13504674D01*
X9651015Y-13504674D02*
X9641491Y-13495150D01*
X9641491Y-13495150D02*
X9631967Y-13476103D01*
X9631967Y-13476103D02*
X9631967Y-13466579D01*
X9631967Y-13466579D02*
X9641491Y-13447531D01*
X9641491Y-13447531D02*
X9651015Y-13438008D01*
X9651015Y-13438008D02*
X9670063Y-13428484D01*
X9670063Y-13428484D02*
X9708158Y-13428484D01*
X9708158Y-13428484D02*
X9727205Y-13438008D01*
X9727205Y-13438008D02*
X9736729Y-13447531D01*
X9736729Y-13447531D02*
X9746253Y-13466579D01*
X9746253Y-13466579D02*
X9746253Y-13476103D01*
X9746253Y-13476103D02*
X9736729Y-13495150D01*
X9736729Y-13495150D02*
X9727205Y-13504674D01*
X9727205Y-13504674D02*
X9708158Y-13514198D01*
X9708158Y-13514198D02*
X9670063Y-13514198D01*
X9670063Y-13514198D02*
X9651015Y-13523722D01*
X9651015Y-13523722D02*
X9641491Y-13533246D01*
X9641491Y-13533246D02*
X9631967Y-13552293D01*
X9631967Y-13552293D02*
X9631967Y-13590388D01*
X9631967Y-13590388D02*
X9641491Y-13609436D01*
X9641491Y-13609436D02*
X9651015Y-13618960D01*
X9651015Y-13618960D02*
X9670063Y-13628484D01*
X9670063Y-13628484D02*
X9708158Y-13628484D01*
X9708158Y-13628484D02*
X9727205Y-13618960D01*
X9727205Y-13618960D02*
X9736729Y-13609436D01*
X9736729Y-13609436D02*
X9746253Y-13590388D01*
X9746253Y-13590388D02*
X9746253Y-13552293D01*
X9746253Y-13552293D02*
X9736729Y-13533246D01*
X9736729Y-13533246D02*
X9727205Y-13523722D01*
X9727205Y-13523722D02*
X9708158Y-13514198D01*
X9870063Y-13428484D02*
X9889110Y-13428484D01*
X9889110Y-13428484D02*
X9908158Y-13438008D01*
X9908158Y-13438008D02*
X9917682Y-13447531D01*
X9917682Y-13447531D02*
X9927205Y-13466579D01*
X9927205Y-13466579D02*
X9936729Y-13504674D01*
X9936729Y-13504674D02*
X9936729Y-13552293D01*
X9936729Y-13552293D02*
X9927205Y-13590388D01*
X9927205Y-13590388D02*
X9917682Y-13609436D01*
X9917682Y-13609436D02*
X9908158Y-13618960D01*
X9908158Y-13618960D02*
X9889110Y-13628484D01*
X9889110Y-13628484D02*
X9870063Y-13628484D01*
X9870063Y-13628484D02*
X9851015Y-13618960D01*
X9851015Y-13618960D02*
X9841491Y-13609436D01*
X9841491Y-13609436D02*
X9831967Y-13590388D01*
X9831967Y-13590388D02*
X9822444Y-13552293D01*
X9822444Y-13552293D02*
X9822444Y-13504674D01*
X9822444Y-13504674D02*
X9831967Y-13466579D01*
X9831967Y-13466579D02*
X9841491Y-13447531D01*
X9841491Y-13447531D02*
X9851015Y-13438008D01*
X9851015Y-13438008D02*
X9870063Y-13428484D01*
X10060539Y-13428484D02*
X10079586Y-13428484D01*
X10079586Y-13428484D02*
X10098634Y-13438008D01*
X10098634Y-13438008D02*
X10108158Y-13447531D01*
X10108158Y-13447531D02*
X10117682Y-13466579D01*
X10117682Y-13466579D02*
X10127205Y-13504674D01*
X10127205Y-13504674D02*
X10127205Y-13552293D01*
X10127205Y-13552293D02*
X10117682Y-13590388D01*
X10117682Y-13590388D02*
X10108158Y-13609436D01*
X10108158Y-13609436D02*
X10098634Y-13618960D01*
X10098634Y-13618960D02*
X10079586Y-13628484D01*
X10079586Y-13628484D02*
X10060539Y-13628484D01*
X10060539Y-13628484D02*
X10041491Y-13618960D01*
X10041491Y-13618960D02*
X10031967Y-13609436D01*
X10031967Y-13609436D02*
X10022444Y-13590388D01*
X10022444Y-13590388D02*
X10012920Y-13552293D01*
X10012920Y-13552293D02*
X10012920Y-13504674D01*
X10012920Y-13504674D02*
X10022444Y-13466579D01*
X10022444Y-13466579D02*
X10031967Y-13447531D01*
X10031967Y-13447531D02*
X10041491Y-13438008D01*
X10041491Y-13438008D02*
X10060539Y-13428484D01*
X10212920Y-13628484D02*
X10212920Y-13495150D01*
X10212920Y-13514198D02*
X10222444Y-13504674D01*
X10222444Y-13504674D02*
X10241491Y-13495150D01*
X10241491Y-13495150D02*
X10270063Y-13495150D01*
X10270063Y-13495150D02*
X10289110Y-13504674D01*
X10289110Y-13504674D02*
X10298634Y-13523722D01*
X10298634Y-13523722D02*
X10298634Y-13628484D01*
X10298634Y-13523722D02*
X10308158Y-13504674D01*
X10308158Y-13504674D02*
X10327205Y-13495150D01*
X10327205Y-13495150D02*
X10355777Y-13495150D01*
X10355777Y-13495150D02*
X10374825Y-13504674D01*
X10374825Y-13504674D02*
X10384348Y-13523722D01*
X10384348Y-13523722D02*
X10384348Y-13628484D01*
X10479586Y-13628484D02*
X10479586Y-13495150D01*
X10479586Y-13514198D02*
X10489110Y-13504674D01*
X10489110Y-13504674D02*
X10508158Y-13495150D01*
X10508158Y-13495150D02*
X10536729Y-13495150D01*
X10536729Y-13495150D02*
X10555777Y-13504674D01*
X10555777Y-13504674D02*
X10565301Y-13523722D01*
X10565301Y-13523722D02*
X10565301Y-13628484D01*
X10565301Y-13523722D02*
X10574825Y-13504674D01*
X10574825Y-13504674D02*
X10593872Y-13495150D01*
X10593872Y-13495150D02*
X10622444Y-13495150D01*
X10622444Y-13495150D02*
X10641491Y-13504674D01*
X10641491Y-13504674D02*
X10651015Y-13523722D01*
X10651015Y-13523722D02*
X10651015Y-13628484D01*
X11041491Y-13418960D02*
X10870063Y-13676103D01*
X11298634Y-13428484D02*
X11317682Y-13428484D01*
X11317682Y-13428484D02*
X11336729Y-13438008D01*
X11336729Y-13438008D02*
X11346253Y-13447531D01*
X11346253Y-13447531D02*
X11355777Y-13466579D01*
X11355777Y-13466579D02*
X11365301Y-13504674D01*
X11365301Y-13504674D02*
X11365301Y-13552293D01*
X11365301Y-13552293D02*
X11355777Y-13590388D01*
X11355777Y-13590388D02*
X11346253Y-13609436D01*
X11346253Y-13609436D02*
X11336729Y-13618960D01*
X11336729Y-13618960D02*
X11317682Y-13628484D01*
X11317682Y-13628484D02*
X11298634Y-13628484D01*
X11298634Y-13628484D02*
X11279586Y-13618960D01*
X11279586Y-13618960D02*
X11270063Y-13609436D01*
X11270063Y-13609436D02*
X11260539Y-13590388D01*
X11260539Y-13590388D02*
X11251015Y-13552293D01*
X11251015Y-13552293D02*
X11251015Y-13504674D01*
X11251015Y-13504674D02*
X11260539Y-13466579D01*
X11260539Y-13466579D02*
X11270063Y-13447531D01*
X11270063Y-13447531D02*
X11279586Y-13438008D01*
X11279586Y-13438008D02*
X11298634Y-13428484D01*
X11451015Y-13609436D02*
X11460539Y-13618960D01*
X11460539Y-13618960D02*
X11451015Y-13628484D01*
X11451015Y-13628484D02*
X11441491Y-13618960D01*
X11441491Y-13618960D02*
X11451015Y-13609436D01*
X11451015Y-13609436D02*
X11451015Y-13628484D01*
X11584348Y-13428484D02*
X11603396Y-13428484D01*
X11603396Y-13428484D02*
X11622444Y-13438008D01*
X11622444Y-13438008D02*
X11631967Y-13447531D01*
X11631967Y-13447531D02*
X11641491Y-13466579D01*
X11641491Y-13466579D02*
X11651015Y-13504674D01*
X11651015Y-13504674D02*
X11651015Y-13552293D01*
X11651015Y-13552293D02*
X11641491Y-13590388D01*
X11641491Y-13590388D02*
X11631967Y-13609436D01*
X11631967Y-13609436D02*
X11622444Y-13618960D01*
X11622444Y-13618960D02*
X11603396Y-13628484D01*
X11603396Y-13628484D02*
X11584348Y-13628484D01*
X11584348Y-13628484D02*
X11565301Y-13618960D01*
X11565301Y-13618960D02*
X11555777Y-13609436D01*
X11555777Y-13609436D02*
X11546253Y-13590388D01*
X11546253Y-13590388D02*
X11536729Y-13552293D01*
X11536729Y-13552293D02*
X11536729Y-13504674D01*
X11536729Y-13504674D02*
X11546253Y-13466579D01*
X11546253Y-13466579D02*
X11555777Y-13447531D01*
X11555777Y-13447531D02*
X11565301Y-13438008D01*
X11565301Y-13438008D02*
X11584348Y-13428484D01*
X11717682Y-13428484D02*
X11841491Y-13428484D01*
X11841491Y-13428484D02*
X11774825Y-13504674D01*
X11774825Y-13504674D02*
X11803396Y-13504674D01*
X11803396Y-13504674D02*
X11822444Y-13514198D01*
X11822444Y-13514198D02*
X11831967Y-13523722D01*
X11831967Y-13523722D02*
X11841491Y-13542769D01*
X11841491Y-13542769D02*
X11841491Y-13590388D01*
X11841491Y-13590388D02*
X11831967Y-13609436D01*
X11831967Y-13609436D02*
X11822444Y-13618960D01*
X11822444Y-13618960D02*
X11803396Y-13628484D01*
X11803396Y-13628484D02*
X11746253Y-13628484D01*
X11746253Y-13628484D02*
X11727206Y-13618960D01*
X11727206Y-13618960D02*
X11717682Y-13609436D01*
X12031967Y-13628484D02*
X11917682Y-13628484D01*
X11974825Y-13628484D02*
X11974825Y-13428484D01*
X11974825Y-13428484D02*
X11955777Y-13457055D01*
X11955777Y-13457055D02*
X11936729Y-13476103D01*
X11936729Y-13476103D02*
X11917682Y-13485627D01*
X12212920Y-13428484D02*
X12117682Y-13428484D01*
X12117682Y-13428484D02*
X12108158Y-13523722D01*
X12108158Y-13523722D02*
X12117682Y-13514198D01*
X12117682Y-13514198D02*
X12136729Y-13504674D01*
X12136729Y-13504674D02*
X12184348Y-13504674D01*
X12184348Y-13504674D02*
X12203396Y-13514198D01*
X12203396Y-13514198D02*
X12212920Y-13523722D01*
X12212920Y-13523722D02*
X12222444Y-13542769D01*
X12222444Y-13542769D02*
X12222444Y-13590388D01*
X12222444Y-13590388D02*
X12212920Y-13609436D01*
X12212920Y-13609436D02*
X12203396Y-13618960D01*
X12203396Y-13618960D02*
X12184348Y-13628484D01*
X12184348Y-13628484D02*
X12136729Y-13628484D01*
X12136729Y-13628484D02*
X12117682Y-13618960D01*
X12117682Y-13618960D02*
X12108158Y-13609436D01*
X12298634Y-13428484D02*
X12298634Y-13466579D01*
X12374825Y-13428484D02*
X12374825Y-13466579D01*
X12670063Y-13704674D02*
X12660539Y-13695150D01*
X12660539Y-13695150D02*
X12641491Y-13666579D01*
X12641491Y-13666579D02*
X12631968Y-13647531D01*
X12631968Y-13647531D02*
X12622444Y-13618960D01*
X12622444Y-13618960D02*
X12612920Y-13571341D01*
X12612920Y-13571341D02*
X12612920Y-13533246D01*
X12612920Y-13533246D02*
X12622444Y-13485627D01*
X12622444Y-13485627D02*
X12631968Y-13457055D01*
X12631968Y-13457055D02*
X12641491Y-13438008D01*
X12641491Y-13438008D02*
X12660539Y-13409436D01*
X12660539Y-13409436D02*
X12670063Y-13399912D01*
X12727206Y-13428484D02*
X12851015Y-13428484D01*
X12851015Y-13428484D02*
X12784348Y-13504674D01*
X12784348Y-13504674D02*
X12812920Y-13504674D01*
X12812920Y-13504674D02*
X12831968Y-13514198D01*
X12831968Y-13514198D02*
X12841491Y-13523722D01*
X12841491Y-13523722D02*
X12851015Y-13542769D01*
X12851015Y-13542769D02*
X12851015Y-13590388D01*
X12851015Y-13590388D02*
X12841491Y-13609436D01*
X12841491Y-13609436D02*
X12831968Y-13618960D01*
X12831968Y-13618960D02*
X12812920Y-13628484D01*
X12812920Y-13628484D02*
X12755777Y-13628484D01*
X12755777Y-13628484D02*
X12736729Y-13618960D01*
X12736729Y-13618960D02*
X12727206Y-13609436D01*
X13089110Y-13628484D02*
X13089110Y-13428484D01*
X13174825Y-13628484D02*
X13174825Y-13523722D01*
X13174825Y-13523722D02*
X13165301Y-13504674D01*
X13165301Y-13504674D02*
X13146253Y-13495150D01*
X13146253Y-13495150D02*
X13117682Y-13495150D01*
X13117682Y-13495150D02*
X13098634Y-13504674D01*
X13098634Y-13504674D02*
X13089110Y-13514198D01*
X13298634Y-13628484D02*
X13279587Y-13618960D01*
X13279587Y-13618960D02*
X13270063Y-13609436D01*
X13270063Y-13609436D02*
X13260539Y-13590388D01*
X13260539Y-13590388D02*
X13260539Y-13533246D01*
X13260539Y-13533246D02*
X13270063Y-13514198D01*
X13270063Y-13514198D02*
X13279587Y-13504674D01*
X13279587Y-13504674D02*
X13298634Y-13495150D01*
X13298634Y-13495150D02*
X13327206Y-13495150D01*
X13327206Y-13495150D02*
X13346253Y-13504674D01*
X13346253Y-13504674D02*
X13355777Y-13514198D01*
X13355777Y-13514198D02*
X13365301Y-13533246D01*
X13365301Y-13533246D02*
X13365301Y-13590388D01*
X13365301Y-13590388D02*
X13355777Y-13609436D01*
X13355777Y-13609436D02*
X13346253Y-13618960D01*
X13346253Y-13618960D02*
X13327206Y-13628484D01*
X13327206Y-13628484D02*
X13298634Y-13628484D01*
X13479587Y-13628484D02*
X13460539Y-13618960D01*
X13460539Y-13618960D02*
X13451015Y-13599912D01*
X13451015Y-13599912D02*
X13451015Y-13428484D01*
X13631968Y-13618960D02*
X13612920Y-13628484D01*
X13612920Y-13628484D02*
X13574825Y-13628484D01*
X13574825Y-13628484D02*
X13555777Y-13618960D01*
X13555777Y-13618960D02*
X13546253Y-13599912D01*
X13546253Y-13599912D02*
X13546253Y-13523722D01*
X13546253Y-13523722D02*
X13555777Y-13504674D01*
X13555777Y-13504674D02*
X13574825Y-13495150D01*
X13574825Y-13495150D02*
X13612920Y-13495150D01*
X13612920Y-13495150D02*
X13631968Y-13504674D01*
X13631968Y-13504674D02*
X13641491Y-13523722D01*
X13641491Y-13523722D02*
X13641491Y-13542769D01*
X13641491Y-13542769D02*
X13546253Y-13561817D01*
X13717682Y-13618960D02*
X13736730Y-13628484D01*
X13736730Y-13628484D02*
X13774825Y-13628484D01*
X13774825Y-13628484D02*
X13793872Y-13618960D01*
X13793872Y-13618960D02*
X13803396Y-13599912D01*
X13803396Y-13599912D02*
X13803396Y-13590388D01*
X13803396Y-13590388D02*
X13793872Y-13571341D01*
X13793872Y-13571341D02*
X13774825Y-13561817D01*
X13774825Y-13561817D02*
X13746253Y-13561817D01*
X13746253Y-13561817D02*
X13727206Y-13552293D01*
X13727206Y-13552293D02*
X13717682Y-13533246D01*
X13717682Y-13533246D02*
X13717682Y-13523722D01*
X13717682Y-13523722D02*
X13727206Y-13504674D01*
X13727206Y-13504674D02*
X13746253Y-13495150D01*
X13746253Y-13495150D02*
X13774825Y-13495150D01*
X13774825Y-13495150D02*
X13793872Y-13504674D01*
X13870063Y-13704674D02*
X13879587Y-13695150D01*
X13879587Y-13695150D02*
X13898634Y-13666579D01*
X13898634Y-13666579D02*
X13908158Y-13647531D01*
X13908158Y-13647531D02*
X13917682Y-13618960D01*
X13917682Y-13618960D02*
X13927206Y-13571341D01*
X13927206Y-13571341D02*
X13927206Y-13533246D01*
X13927206Y-13533246D02*
X13917682Y-13485627D01*
X13917682Y-13485627D02*
X13908158Y-13457055D01*
X13908158Y-13457055D02*
X13898634Y-13438008D01*
X13898634Y-13438008D02*
X13879587Y-13409436D01*
X13879587Y-13409436D02*
X13870063Y-13399912D01*
D15*
X9050000Y-13846000D02*
X9095000Y-13801000D01*
X9050000Y-13756000D01*
X9005000Y-13801000D01*
X9050000Y-13846000D01*
D11*
X9393872Y-13692484D02*
X9412920Y-13692484D01*
X9412920Y-13692484D02*
X9431967Y-13702008D01*
X9431967Y-13702008D02*
X9441491Y-13711531D01*
X9441491Y-13711531D02*
X9451015Y-13730579D01*
X9451015Y-13730579D02*
X9460539Y-13768674D01*
X9460539Y-13768674D02*
X9460539Y-13816293D01*
X9460539Y-13816293D02*
X9451015Y-13854388D01*
X9451015Y-13854388D02*
X9441491Y-13873436D01*
X9441491Y-13873436D02*
X9431967Y-13882960D01*
X9431967Y-13882960D02*
X9412920Y-13892484D01*
X9412920Y-13892484D02*
X9393872Y-13892484D01*
X9393872Y-13892484D02*
X9374824Y-13882960D01*
X9374824Y-13882960D02*
X9365301Y-13873436D01*
X9365301Y-13873436D02*
X9355777Y-13854388D01*
X9355777Y-13854388D02*
X9346253Y-13816293D01*
X9346253Y-13816293D02*
X9346253Y-13768674D01*
X9346253Y-13768674D02*
X9355777Y-13730579D01*
X9355777Y-13730579D02*
X9365301Y-13711531D01*
X9365301Y-13711531D02*
X9374824Y-13702008D01*
X9374824Y-13702008D02*
X9393872Y-13692484D01*
X9546253Y-13873436D02*
X9555777Y-13882960D01*
X9555777Y-13882960D02*
X9546253Y-13892484D01*
X9546253Y-13892484D02*
X9536729Y-13882960D01*
X9536729Y-13882960D02*
X9546253Y-13873436D01*
X9546253Y-13873436D02*
X9546253Y-13892484D01*
X9651015Y-13892484D02*
X9689110Y-13892484D01*
X9689110Y-13892484D02*
X9708158Y-13882960D01*
X9708158Y-13882960D02*
X9717682Y-13873436D01*
X9717682Y-13873436D02*
X9736729Y-13844865D01*
X9736729Y-13844865D02*
X9746253Y-13806769D01*
X9746253Y-13806769D02*
X9746253Y-13730579D01*
X9746253Y-13730579D02*
X9736729Y-13711531D01*
X9736729Y-13711531D02*
X9727205Y-13702008D01*
X9727205Y-13702008D02*
X9708158Y-13692484D01*
X9708158Y-13692484D02*
X9670063Y-13692484D01*
X9670063Y-13692484D02*
X9651015Y-13702008D01*
X9651015Y-13702008D02*
X9641491Y-13711531D01*
X9641491Y-13711531D02*
X9631967Y-13730579D01*
X9631967Y-13730579D02*
X9631967Y-13778198D01*
X9631967Y-13778198D02*
X9641491Y-13797246D01*
X9641491Y-13797246D02*
X9651015Y-13806769D01*
X9651015Y-13806769D02*
X9670063Y-13816293D01*
X9670063Y-13816293D02*
X9708158Y-13816293D01*
X9708158Y-13816293D02*
X9727205Y-13806769D01*
X9727205Y-13806769D02*
X9736729Y-13797246D01*
X9736729Y-13797246D02*
X9746253Y-13778198D01*
X9870063Y-13692484D02*
X9889110Y-13692484D01*
X9889110Y-13692484D02*
X9908158Y-13702008D01*
X9908158Y-13702008D02*
X9917682Y-13711531D01*
X9917682Y-13711531D02*
X9927205Y-13730579D01*
X9927205Y-13730579D02*
X9936729Y-13768674D01*
X9936729Y-13768674D02*
X9936729Y-13816293D01*
X9936729Y-13816293D02*
X9927205Y-13854388D01*
X9927205Y-13854388D02*
X9917682Y-13873436D01*
X9917682Y-13873436D02*
X9908158Y-13882960D01*
X9908158Y-13882960D02*
X9889110Y-13892484D01*
X9889110Y-13892484D02*
X9870063Y-13892484D01*
X9870063Y-13892484D02*
X9851015Y-13882960D01*
X9851015Y-13882960D02*
X9841491Y-13873436D01*
X9841491Y-13873436D02*
X9831967Y-13854388D01*
X9831967Y-13854388D02*
X9822444Y-13816293D01*
X9822444Y-13816293D02*
X9822444Y-13768674D01*
X9822444Y-13768674D02*
X9831967Y-13730579D01*
X9831967Y-13730579D02*
X9841491Y-13711531D01*
X9841491Y-13711531D02*
X9851015Y-13702008D01*
X9851015Y-13702008D02*
X9870063Y-13692484D01*
X10060539Y-13692484D02*
X10079586Y-13692484D01*
X10079586Y-13692484D02*
X10098634Y-13702008D01*
X10098634Y-13702008D02*
X10108158Y-13711531D01*
X10108158Y-13711531D02*
X10117682Y-13730579D01*
X10117682Y-13730579D02*
X10127205Y-13768674D01*
X10127205Y-13768674D02*
X10127205Y-13816293D01*
X10127205Y-13816293D02*
X10117682Y-13854388D01*
X10117682Y-13854388D02*
X10108158Y-13873436D01*
X10108158Y-13873436D02*
X10098634Y-13882960D01*
X10098634Y-13882960D02*
X10079586Y-13892484D01*
X10079586Y-13892484D02*
X10060539Y-13892484D01*
X10060539Y-13892484D02*
X10041491Y-13882960D01*
X10041491Y-13882960D02*
X10031967Y-13873436D01*
X10031967Y-13873436D02*
X10022444Y-13854388D01*
X10022444Y-13854388D02*
X10012920Y-13816293D01*
X10012920Y-13816293D02*
X10012920Y-13768674D01*
X10012920Y-13768674D02*
X10022444Y-13730579D01*
X10022444Y-13730579D02*
X10031967Y-13711531D01*
X10031967Y-13711531D02*
X10041491Y-13702008D01*
X10041491Y-13702008D02*
X10060539Y-13692484D01*
X10212920Y-13892484D02*
X10212920Y-13759150D01*
X10212920Y-13778198D02*
X10222444Y-13768674D01*
X10222444Y-13768674D02*
X10241491Y-13759150D01*
X10241491Y-13759150D02*
X10270063Y-13759150D01*
X10270063Y-13759150D02*
X10289110Y-13768674D01*
X10289110Y-13768674D02*
X10298634Y-13787722D01*
X10298634Y-13787722D02*
X10298634Y-13892484D01*
X10298634Y-13787722D02*
X10308158Y-13768674D01*
X10308158Y-13768674D02*
X10327205Y-13759150D01*
X10327205Y-13759150D02*
X10355777Y-13759150D01*
X10355777Y-13759150D02*
X10374825Y-13768674D01*
X10374825Y-13768674D02*
X10384348Y-13787722D01*
X10384348Y-13787722D02*
X10384348Y-13892484D01*
X10479586Y-13892484D02*
X10479586Y-13759150D01*
X10479586Y-13778198D02*
X10489110Y-13768674D01*
X10489110Y-13768674D02*
X10508158Y-13759150D01*
X10508158Y-13759150D02*
X10536729Y-13759150D01*
X10536729Y-13759150D02*
X10555777Y-13768674D01*
X10555777Y-13768674D02*
X10565301Y-13787722D01*
X10565301Y-13787722D02*
X10565301Y-13892484D01*
X10565301Y-13787722D02*
X10574825Y-13768674D01*
X10574825Y-13768674D02*
X10593872Y-13759150D01*
X10593872Y-13759150D02*
X10622444Y-13759150D01*
X10622444Y-13759150D02*
X10641491Y-13768674D01*
X10641491Y-13768674D02*
X10651015Y-13787722D01*
X10651015Y-13787722D02*
X10651015Y-13892484D01*
X11041491Y-13682960D02*
X10870063Y-13940103D01*
X11298634Y-13692484D02*
X11317682Y-13692484D01*
X11317682Y-13692484D02*
X11336729Y-13702008D01*
X11336729Y-13702008D02*
X11346253Y-13711531D01*
X11346253Y-13711531D02*
X11355777Y-13730579D01*
X11355777Y-13730579D02*
X11365301Y-13768674D01*
X11365301Y-13768674D02*
X11365301Y-13816293D01*
X11365301Y-13816293D02*
X11355777Y-13854388D01*
X11355777Y-13854388D02*
X11346253Y-13873436D01*
X11346253Y-13873436D02*
X11336729Y-13882960D01*
X11336729Y-13882960D02*
X11317682Y-13892484D01*
X11317682Y-13892484D02*
X11298634Y-13892484D01*
X11298634Y-13892484D02*
X11279586Y-13882960D01*
X11279586Y-13882960D02*
X11270063Y-13873436D01*
X11270063Y-13873436D02*
X11260539Y-13854388D01*
X11260539Y-13854388D02*
X11251015Y-13816293D01*
X11251015Y-13816293D02*
X11251015Y-13768674D01*
X11251015Y-13768674D02*
X11260539Y-13730579D01*
X11260539Y-13730579D02*
X11270063Y-13711531D01*
X11270063Y-13711531D02*
X11279586Y-13702008D01*
X11279586Y-13702008D02*
X11298634Y-13692484D01*
X11451015Y-13873436D02*
X11460539Y-13882960D01*
X11460539Y-13882960D02*
X11451015Y-13892484D01*
X11451015Y-13892484D02*
X11441491Y-13882960D01*
X11441491Y-13882960D02*
X11451015Y-13873436D01*
X11451015Y-13873436D02*
X11451015Y-13892484D01*
X11584348Y-13692484D02*
X11603396Y-13692484D01*
X11603396Y-13692484D02*
X11622444Y-13702008D01*
X11622444Y-13702008D02*
X11631967Y-13711531D01*
X11631967Y-13711531D02*
X11641491Y-13730579D01*
X11641491Y-13730579D02*
X11651015Y-13768674D01*
X11651015Y-13768674D02*
X11651015Y-13816293D01*
X11651015Y-13816293D02*
X11641491Y-13854388D01*
X11641491Y-13854388D02*
X11631967Y-13873436D01*
X11631967Y-13873436D02*
X11622444Y-13882960D01*
X11622444Y-13882960D02*
X11603396Y-13892484D01*
X11603396Y-13892484D02*
X11584348Y-13892484D01*
X11584348Y-13892484D02*
X11565301Y-13882960D01*
X11565301Y-13882960D02*
X11555777Y-13873436D01*
X11555777Y-13873436D02*
X11546253Y-13854388D01*
X11546253Y-13854388D02*
X11536729Y-13816293D01*
X11536729Y-13816293D02*
X11536729Y-13768674D01*
X11536729Y-13768674D02*
X11546253Y-13730579D01*
X11546253Y-13730579D02*
X11555777Y-13711531D01*
X11555777Y-13711531D02*
X11565301Y-13702008D01*
X11565301Y-13702008D02*
X11584348Y-13692484D01*
X11717682Y-13692484D02*
X11841491Y-13692484D01*
X11841491Y-13692484D02*
X11774825Y-13768674D01*
X11774825Y-13768674D02*
X11803396Y-13768674D01*
X11803396Y-13768674D02*
X11822444Y-13778198D01*
X11822444Y-13778198D02*
X11831967Y-13787722D01*
X11831967Y-13787722D02*
X11841491Y-13806769D01*
X11841491Y-13806769D02*
X11841491Y-13854388D01*
X11841491Y-13854388D02*
X11831967Y-13873436D01*
X11831967Y-13873436D02*
X11822444Y-13882960D01*
X11822444Y-13882960D02*
X11803396Y-13892484D01*
X11803396Y-13892484D02*
X11746253Y-13892484D01*
X11746253Y-13892484D02*
X11727206Y-13882960D01*
X11727206Y-13882960D02*
X11717682Y-13873436D01*
X12022444Y-13692484D02*
X11927206Y-13692484D01*
X11927206Y-13692484D02*
X11917682Y-13787722D01*
X11917682Y-13787722D02*
X11927206Y-13778198D01*
X11927206Y-13778198D02*
X11946253Y-13768674D01*
X11946253Y-13768674D02*
X11993872Y-13768674D01*
X11993872Y-13768674D02*
X12012920Y-13778198D01*
X12012920Y-13778198D02*
X12022444Y-13787722D01*
X12022444Y-13787722D02*
X12031967Y-13806769D01*
X12031967Y-13806769D02*
X12031967Y-13854388D01*
X12031967Y-13854388D02*
X12022444Y-13873436D01*
X12022444Y-13873436D02*
X12012920Y-13882960D01*
X12012920Y-13882960D02*
X11993872Y-13892484D01*
X11993872Y-13892484D02*
X11946253Y-13892484D01*
X11946253Y-13892484D02*
X11927206Y-13882960D01*
X11927206Y-13882960D02*
X11917682Y-13873436D01*
X12203396Y-13759150D02*
X12203396Y-13892484D01*
X12155777Y-13682960D02*
X12108158Y-13825817D01*
X12108158Y-13825817D02*
X12231967Y-13825817D01*
X12298634Y-13692484D02*
X12298634Y-13730579D01*
X12374825Y-13692484D02*
X12374825Y-13730579D01*
X12670063Y-13968674D02*
X12660539Y-13959150D01*
X12660539Y-13959150D02*
X12641491Y-13930579D01*
X12641491Y-13930579D02*
X12631968Y-13911531D01*
X12631968Y-13911531D02*
X12622444Y-13882960D01*
X12622444Y-13882960D02*
X12612920Y-13835341D01*
X12612920Y-13835341D02*
X12612920Y-13797246D01*
X12612920Y-13797246D02*
X12622444Y-13749627D01*
X12622444Y-13749627D02*
X12631968Y-13721055D01*
X12631968Y-13721055D02*
X12641491Y-13702008D01*
X12641491Y-13702008D02*
X12660539Y-13673436D01*
X12660539Y-13673436D02*
X12670063Y-13663912D01*
X12851015Y-13892484D02*
X12736729Y-13892484D01*
X12793872Y-13892484D02*
X12793872Y-13692484D01*
X12793872Y-13692484D02*
X12774825Y-13721055D01*
X12774825Y-13721055D02*
X12755777Y-13740103D01*
X12755777Y-13740103D02*
X12736729Y-13749627D01*
X13031968Y-13692484D02*
X12936729Y-13692484D01*
X12936729Y-13692484D02*
X12927206Y-13787722D01*
X12927206Y-13787722D02*
X12936729Y-13778198D01*
X12936729Y-13778198D02*
X12955777Y-13768674D01*
X12955777Y-13768674D02*
X13003396Y-13768674D01*
X13003396Y-13768674D02*
X13022444Y-13778198D01*
X13022444Y-13778198D02*
X13031968Y-13787722D01*
X13031968Y-13787722D02*
X13041491Y-13806769D01*
X13041491Y-13806769D02*
X13041491Y-13854388D01*
X13041491Y-13854388D02*
X13031968Y-13873436D01*
X13031968Y-13873436D02*
X13022444Y-13882960D01*
X13022444Y-13882960D02*
X13003396Y-13892484D01*
X13003396Y-13892484D02*
X12955777Y-13892484D01*
X12955777Y-13892484D02*
X12936729Y-13882960D01*
X12936729Y-13882960D02*
X12927206Y-13873436D01*
X13279587Y-13892484D02*
X13279587Y-13692484D01*
X13365301Y-13892484D02*
X13365301Y-13787722D01*
X13365301Y-13787722D02*
X13355777Y-13768674D01*
X13355777Y-13768674D02*
X13336730Y-13759150D01*
X13336730Y-13759150D02*
X13308158Y-13759150D01*
X13308158Y-13759150D02*
X13289110Y-13768674D01*
X13289110Y-13768674D02*
X13279587Y-13778198D01*
X13489110Y-13892484D02*
X13470063Y-13882960D01*
X13470063Y-13882960D02*
X13460539Y-13873436D01*
X13460539Y-13873436D02*
X13451015Y-13854388D01*
X13451015Y-13854388D02*
X13451015Y-13797246D01*
X13451015Y-13797246D02*
X13460539Y-13778198D01*
X13460539Y-13778198D02*
X13470063Y-13768674D01*
X13470063Y-13768674D02*
X13489110Y-13759150D01*
X13489110Y-13759150D02*
X13517682Y-13759150D01*
X13517682Y-13759150D02*
X13536730Y-13768674D01*
X13536730Y-13768674D02*
X13546253Y-13778198D01*
X13546253Y-13778198D02*
X13555777Y-13797246D01*
X13555777Y-13797246D02*
X13555777Y-13854388D01*
X13555777Y-13854388D02*
X13546253Y-13873436D01*
X13546253Y-13873436D02*
X13536730Y-13882960D01*
X13536730Y-13882960D02*
X13517682Y-13892484D01*
X13517682Y-13892484D02*
X13489110Y-13892484D01*
X13670063Y-13892484D02*
X13651015Y-13882960D01*
X13651015Y-13882960D02*
X13641491Y-13863912D01*
X13641491Y-13863912D02*
X13641491Y-13692484D01*
X13822444Y-13882960D02*
X13803396Y-13892484D01*
X13803396Y-13892484D02*
X13765301Y-13892484D01*
X13765301Y-13892484D02*
X13746253Y-13882960D01*
X13746253Y-13882960D02*
X13736730Y-13863912D01*
X13736730Y-13863912D02*
X13736730Y-13787722D01*
X13736730Y-13787722D02*
X13746253Y-13768674D01*
X13746253Y-13768674D02*
X13765301Y-13759150D01*
X13765301Y-13759150D02*
X13803396Y-13759150D01*
X13803396Y-13759150D02*
X13822444Y-13768674D01*
X13822444Y-13768674D02*
X13831968Y-13787722D01*
X13831968Y-13787722D02*
X13831968Y-13806769D01*
X13831968Y-13806769D02*
X13736730Y-13825817D01*
X13908158Y-13882960D02*
X13927206Y-13892484D01*
X13927206Y-13892484D02*
X13965301Y-13892484D01*
X13965301Y-13892484D02*
X13984349Y-13882960D01*
X13984349Y-13882960D02*
X13993872Y-13863912D01*
X13993872Y-13863912D02*
X13993872Y-13854388D01*
X13993872Y-13854388D02*
X13984349Y-13835341D01*
X13984349Y-13835341D02*
X13965301Y-13825817D01*
X13965301Y-13825817D02*
X13936730Y-13825817D01*
X13936730Y-13825817D02*
X13917682Y-13816293D01*
X13917682Y-13816293D02*
X13908158Y-13797246D01*
X13908158Y-13797246D02*
X13908158Y-13787722D01*
X13908158Y-13787722D02*
X13917682Y-13768674D01*
X13917682Y-13768674D02*
X13936730Y-13759150D01*
X13936730Y-13759150D02*
X13965301Y-13759150D01*
X13965301Y-13759150D02*
X13984349Y-13768674D01*
X14060539Y-13968674D02*
X14070063Y-13959150D01*
X14070063Y-13959150D02*
X14089111Y-13930579D01*
X14089111Y-13930579D02*
X14098634Y-13911531D01*
X14098634Y-13911531D02*
X14108158Y-13882960D01*
X14108158Y-13882960D02*
X14117682Y-13835341D01*
X14117682Y-13835341D02*
X14117682Y-13797246D01*
X14117682Y-13797246D02*
X14108158Y-13749627D01*
X14108158Y-13749627D02*
X14098634Y-13721055D01*
X14098634Y-13721055D02*
X14089111Y-13702008D01*
X14089111Y-13702008D02*
X14070063Y-13673436D01*
X14070063Y-13673436D02*
X14060539Y-13663912D01*
D10*
X8995000Y-14015000D02*
X9095000Y-14115000D01*
X9095000Y-14015000D02*
X8995000Y-14115000D01*
X9095000Y-14065000D02*
G75*
G03*
X9095000Y-14065000I-50000J0D01*
G01*
D11*
X9460539Y-14156484D02*
X9346253Y-14156484D01*
X9403396Y-14156484D02*
X9403396Y-13956484D01*
X9403396Y-13956484D02*
X9384348Y-13985055D01*
X9384348Y-13985055D02*
X9365301Y-14004103D01*
X9365301Y-14004103D02*
X9346253Y-14013627D01*
X9546253Y-14137436D02*
X9555777Y-14146960D01*
X9555777Y-14146960D02*
X9546253Y-14156484D01*
X9546253Y-14156484D02*
X9536729Y-14146960D01*
X9536729Y-14146960D02*
X9546253Y-14137436D01*
X9546253Y-14137436D02*
X9546253Y-14156484D01*
X9679586Y-13956484D02*
X9698634Y-13956484D01*
X9698634Y-13956484D02*
X9717682Y-13966008D01*
X9717682Y-13966008D02*
X9727205Y-13975531D01*
X9727205Y-13975531D02*
X9736729Y-13994579D01*
X9736729Y-13994579D02*
X9746253Y-14032674D01*
X9746253Y-14032674D02*
X9746253Y-14080293D01*
X9746253Y-14080293D02*
X9736729Y-14118388D01*
X9736729Y-14118388D02*
X9727205Y-14137436D01*
X9727205Y-14137436D02*
X9717682Y-14146960D01*
X9717682Y-14146960D02*
X9698634Y-14156484D01*
X9698634Y-14156484D02*
X9679586Y-14156484D01*
X9679586Y-14156484D02*
X9660539Y-14146960D01*
X9660539Y-14146960D02*
X9651015Y-14137436D01*
X9651015Y-14137436D02*
X9641491Y-14118388D01*
X9641491Y-14118388D02*
X9631967Y-14080293D01*
X9631967Y-14080293D02*
X9631967Y-14032674D01*
X9631967Y-14032674D02*
X9641491Y-13994579D01*
X9641491Y-13994579D02*
X9651015Y-13975531D01*
X9651015Y-13975531D02*
X9660539Y-13966008D01*
X9660539Y-13966008D02*
X9679586Y-13956484D01*
X9870063Y-13956484D02*
X9889110Y-13956484D01*
X9889110Y-13956484D02*
X9908158Y-13966008D01*
X9908158Y-13966008D02*
X9917682Y-13975531D01*
X9917682Y-13975531D02*
X9927205Y-13994579D01*
X9927205Y-13994579D02*
X9936729Y-14032674D01*
X9936729Y-14032674D02*
X9936729Y-14080293D01*
X9936729Y-14080293D02*
X9927205Y-14118388D01*
X9927205Y-14118388D02*
X9917682Y-14137436D01*
X9917682Y-14137436D02*
X9908158Y-14146960D01*
X9908158Y-14146960D02*
X9889110Y-14156484D01*
X9889110Y-14156484D02*
X9870063Y-14156484D01*
X9870063Y-14156484D02*
X9851015Y-14146960D01*
X9851015Y-14146960D02*
X9841491Y-14137436D01*
X9841491Y-14137436D02*
X9831967Y-14118388D01*
X9831967Y-14118388D02*
X9822444Y-14080293D01*
X9822444Y-14080293D02*
X9822444Y-14032674D01*
X9822444Y-14032674D02*
X9831967Y-13994579D01*
X9831967Y-13994579D02*
X9841491Y-13975531D01*
X9841491Y-13975531D02*
X9851015Y-13966008D01*
X9851015Y-13966008D02*
X9870063Y-13956484D01*
X10060539Y-13956484D02*
X10079586Y-13956484D01*
X10079586Y-13956484D02*
X10098634Y-13966008D01*
X10098634Y-13966008D02*
X10108158Y-13975531D01*
X10108158Y-13975531D02*
X10117682Y-13994579D01*
X10117682Y-13994579D02*
X10127205Y-14032674D01*
X10127205Y-14032674D02*
X10127205Y-14080293D01*
X10127205Y-14080293D02*
X10117682Y-14118388D01*
X10117682Y-14118388D02*
X10108158Y-14137436D01*
X10108158Y-14137436D02*
X10098634Y-14146960D01*
X10098634Y-14146960D02*
X10079586Y-14156484D01*
X10079586Y-14156484D02*
X10060539Y-14156484D01*
X10060539Y-14156484D02*
X10041491Y-14146960D01*
X10041491Y-14146960D02*
X10031967Y-14137436D01*
X10031967Y-14137436D02*
X10022444Y-14118388D01*
X10022444Y-14118388D02*
X10012920Y-14080293D01*
X10012920Y-14080293D02*
X10012920Y-14032674D01*
X10012920Y-14032674D02*
X10022444Y-13994579D01*
X10022444Y-13994579D02*
X10031967Y-13975531D01*
X10031967Y-13975531D02*
X10041491Y-13966008D01*
X10041491Y-13966008D02*
X10060539Y-13956484D01*
X10212920Y-14156484D02*
X10212920Y-14023150D01*
X10212920Y-14042198D02*
X10222444Y-14032674D01*
X10222444Y-14032674D02*
X10241491Y-14023150D01*
X10241491Y-14023150D02*
X10270063Y-14023150D01*
X10270063Y-14023150D02*
X10289110Y-14032674D01*
X10289110Y-14032674D02*
X10298634Y-14051722D01*
X10298634Y-14051722D02*
X10298634Y-14156484D01*
X10298634Y-14051722D02*
X10308158Y-14032674D01*
X10308158Y-14032674D02*
X10327205Y-14023150D01*
X10327205Y-14023150D02*
X10355777Y-14023150D01*
X10355777Y-14023150D02*
X10374825Y-14032674D01*
X10374825Y-14032674D02*
X10384348Y-14051722D01*
X10384348Y-14051722D02*
X10384348Y-14156484D01*
X10479586Y-14156484D02*
X10479586Y-14023150D01*
X10479586Y-14042198D02*
X10489110Y-14032674D01*
X10489110Y-14032674D02*
X10508158Y-14023150D01*
X10508158Y-14023150D02*
X10536729Y-14023150D01*
X10536729Y-14023150D02*
X10555777Y-14032674D01*
X10555777Y-14032674D02*
X10565301Y-14051722D01*
X10565301Y-14051722D02*
X10565301Y-14156484D01*
X10565301Y-14051722D02*
X10574825Y-14032674D01*
X10574825Y-14032674D02*
X10593872Y-14023150D01*
X10593872Y-14023150D02*
X10622444Y-14023150D01*
X10622444Y-14023150D02*
X10641491Y-14032674D01*
X10641491Y-14032674D02*
X10651015Y-14051722D01*
X10651015Y-14051722D02*
X10651015Y-14156484D01*
X11041491Y-13946960D02*
X10870063Y-14204103D01*
X11298634Y-13956484D02*
X11317682Y-13956484D01*
X11317682Y-13956484D02*
X11336729Y-13966008D01*
X11336729Y-13966008D02*
X11346253Y-13975531D01*
X11346253Y-13975531D02*
X11355777Y-13994579D01*
X11355777Y-13994579D02*
X11365301Y-14032674D01*
X11365301Y-14032674D02*
X11365301Y-14080293D01*
X11365301Y-14080293D02*
X11355777Y-14118388D01*
X11355777Y-14118388D02*
X11346253Y-14137436D01*
X11346253Y-14137436D02*
X11336729Y-14146960D01*
X11336729Y-14146960D02*
X11317682Y-14156484D01*
X11317682Y-14156484D02*
X11298634Y-14156484D01*
X11298634Y-14156484D02*
X11279586Y-14146960D01*
X11279586Y-14146960D02*
X11270063Y-14137436D01*
X11270063Y-14137436D02*
X11260539Y-14118388D01*
X11260539Y-14118388D02*
X11251015Y-14080293D01*
X11251015Y-14080293D02*
X11251015Y-14032674D01*
X11251015Y-14032674D02*
X11260539Y-13994579D01*
X11260539Y-13994579D02*
X11270063Y-13975531D01*
X11270063Y-13975531D02*
X11279586Y-13966008D01*
X11279586Y-13966008D02*
X11298634Y-13956484D01*
X11451015Y-14137436D02*
X11460539Y-14146960D01*
X11460539Y-14146960D02*
X11451015Y-14156484D01*
X11451015Y-14156484D02*
X11441491Y-14146960D01*
X11441491Y-14146960D02*
X11451015Y-14137436D01*
X11451015Y-14137436D02*
X11451015Y-14156484D01*
X11584348Y-13956484D02*
X11603396Y-13956484D01*
X11603396Y-13956484D02*
X11622444Y-13966008D01*
X11622444Y-13966008D02*
X11631967Y-13975531D01*
X11631967Y-13975531D02*
X11641491Y-13994579D01*
X11641491Y-13994579D02*
X11651015Y-14032674D01*
X11651015Y-14032674D02*
X11651015Y-14080293D01*
X11651015Y-14080293D02*
X11641491Y-14118388D01*
X11641491Y-14118388D02*
X11631967Y-14137436D01*
X11631967Y-14137436D02*
X11622444Y-14146960D01*
X11622444Y-14146960D02*
X11603396Y-14156484D01*
X11603396Y-14156484D02*
X11584348Y-14156484D01*
X11584348Y-14156484D02*
X11565301Y-14146960D01*
X11565301Y-14146960D02*
X11555777Y-14137436D01*
X11555777Y-14137436D02*
X11546253Y-14118388D01*
X11546253Y-14118388D02*
X11536729Y-14080293D01*
X11536729Y-14080293D02*
X11536729Y-14032674D01*
X11536729Y-14032674D02*
X11546253Y-13994579D01*
X11546253Y-13994579D02*
X11555777Y-13975531D01*
X11555777Y-13975531D02*
X11565301Y-13966008D01*
X11565301Y-13966008D02*
X11584348Y-13956484D01*
X11717682Y-13956484D02*
X11841491Y-13956484D01*
X11841491Y-13956484D02*
X11774825Y-14032674D01*
X11774825Y-14032674D02*
X11803396Y-14032674D01*
X11803396Y-14032674D02*
X11822444Y-14042198D01*
X11822444Y-14042198D02*
X11831967Y-14051722D01*
X11831967Y-14051722D02*
X11841491Y-14070769D01*
X11841491Y-14070769D02*
X11841491Y-14118388D01*
X11841491Y-14118388D02*
X11831967Y-14137436D01*
X11831967Y-14137436D02*
X11822444Y-14146960D01*
X11822444Y-14146960D02*
X11803396Y-14156484D01*
X11803396Y-14156484D02*
X11746253Y-14156484D01*
X11746253Y-14156484D02*
X11727206Y-14146960D01*
X11727206Y-14146960D02*
X11717682Y-14137436D01*
X11936729Y-14156484D02*
X11974825Y-14156484D01*
X11974825Y-14156484D02*
X11993872Y-14146960D01*
X11993872Y-14146960D02*
X12003396Y-14137436D01*
X12003396Y-14137436D02*
X12022444Y-14108865D01*
X12022444Y-14108865D02*
X12031967Y-14070769D01*
X12031967Y-14070769D02*
X12031967Y-13994579D01*
X12031967Y-13994579D02*
X12022444Y-13975531D01*
X12022444Y-13975531D02*
X12012920Y-13966008D01*
X12012920Y-13966008D02*
X11993872Y-13956484D01*
X11993872Y-13956484D02*
X11955777Y-13956484D01*
X11955777Y-13956484D02*
X11936729Y-13966008D01*
X11936729Y-13966008D02*
X11927206Y-13975531D01*
X11927206Y-13975531D02*
X11917682Y-13994579D01*
X11917682Y-13994579D02*
X11917682Y-14042198D01*
X11917682Y-14042198D02*
X11927206Y-14061246D01*
X11927206Y-14061246D02*
X11936729Y-14070769D01*
X11936729Y-14070769D02*
X11955777Y-14080293D01*
X11955777Y-14080293D02*
X11993872Y-14080293D01*
X11993872Y-14080293D02*
X12012920Y-14070769D01*
X12012920Y-14070769D02*
X12022444Y-14061246D01*
X12022444Y-14061246D02*
X12031967Y-14042198D01*
X12203396Y-14023150D02*
X12203396Y-14156484D01*
X12155777Y-13946960D02*
X12108158Y-14089817D01*
X12108158Y-14089817D02*
X12231967Y-14089817D01*
X12298634Y-13956484D02*
X12298634Y-13994579D01*
X12374825Y-13956484D02*
X12374825Y-13994579D01*
X12670063Y-14232674D02*
X12660539Y-14223150D01*
X12660539Y-14223150D02*
X12641491Y-14194579D01*
X12641491Y-14194579D02*
X12631968Y-14175531D01*
X12631968Y-14175531D02*
X12622444Y-14146960D01*
X12622444Y-14146960D02*
X12612920Y-14099341D01*
X12612920Y-14099341D02*
X12612920Y-14061246D01*
X12612920Y-14061246D02*
X12622444Y-14013627D01*
X12622444Y-14013627D02*
X12631968Y-13985055D01*
X12631968Y-13985055D02*
X12641491Y-13966008D01*
X12641491Y-13966008D02*
X12660539Y-13937436D01*
X12660539Y-13937436D02*
X12670063Y-13927912D01*
X12727206Y-13956484D02*
X12851015Y-13956484D01*
X12851015Y-13956484D02*
X12784348Y-14032674D01*
X12784348Y-14032674D02*
X12812920Y-14032674D01*
X12812920Y-14032674D02*
X12831968Y-14042198D01*
X12831968Y-14042198D02*
X12841491Y-14051722D01*
X12841491Y-14051722D02*
X12851015Y-14070769D01*
X12851015Y-14070769D02*
X12851015Y-14118388D01*
X12851015Y-14118388D02*
X12841491Y-14137436D01*
X12841491Y-14137436D02*
X12831968Y-14146960D01*
X12831968Y-14146960D02*
X12812920Y-14156484D01*
X12812920Y-14156484D02*
X12755777Y-14156484D01*
X12755777Y-14156484D02*
X12736729Y-14146960D01*
X12736729Y-14146960D02*
X12727206Y-14137436D01*
X12974825Y-13956484D02*
X12993872Y-13956484D01*
X12993872Y-13956484D02*
X13012920Y-13966008D01*
X13012920Y-13966008D02*
X13022444Y-13975531D01*
X13022444Y-13975531D02*
X13031968Y-13994579D01*
X13031968Y-13994579D02*
X13041491Y-14032674D01*
X13041491Y-14032674D02*
X13041491Y-14080293D01*
X13041491Y-14080293D02*
X13031968Y-14118388D01*
X13031968Y-14118388D02*
X13022444Y-14137436D01*
X13022444Y-14137436D02*
X13012920Y-14146960D01*
X13012920Y-14146960D02*
X12993872Y-14156484D01*
X12993872Y-14156484D02*
X12974825Y-14156484D01*
X12974825Y-14156484D02*
X12955777Y-14146960D01*
X12955777Y-14146960D02*
X12946253Y-14137436D01*
X12946253Y-14137436D02*
X12936729Y-14118388D01*
X12936729Y-14118388D02*
X12927206Y-14080293D01*
X12927206Y-14080293D02*
X12927206Y-14032674D01*
X12927206Y-14032674D02*
X12936729Y-13994579D01*
X12936729Y-13994579D02*
X12946253Y-13975531D01*
X12946253Y-13975531D02*
X12955777Y-13966008D01*
X12955777Y-13966008D02*
X12974825Y-13956484D01*
X13279587Y-14156484D02*
X13279587Y-13956484D01*
X13365301Y-14156484D02*
X13365301Y-14051722D01*
X13365301Y-14051722D02*
X13355777Y-14032674D01*
X13355777Y-14032674D02*
X13336730Y-14023150D01*
X13336730Y-14023150D02*
X13308158Y-14023150D01*
X13308158Y-14023150D02*
X13289110Y-14032674D01*
X13289110Y-14032674D02*
X13279587Y-14042198D01*
X13489110Y-14156484D02*
X13470063Y-14146960D01*
X13470063Y-14146960D02*
X13460539Y-14137436D01*
X13460539Y-14137436D02*
X13451015Y-14118388D01*
X13451015Y-14118388D02*
X13451015Y-14061246D01*
X13451015Y-14061246D02*
X13460539Y-14042198D01*
X13460539Y-14042198D02*
X13470063Y-14032674D01*
X13470063Y-14032674D02*
X13489110Y-14023150D01*
X13489110Y-14023150D02*
X13517682Y-14023150D01*
X13517682Y-14023150D02*
X13536730Y-14032674D01*
X13536730Y-14032674D02*
X13546253Y-14042198D01*
X13546253Y-14042198D02*
X13555777Y-14061246D01*
X13555777Y-14061246D02*
X13555777Y-14118388D01*
X13555777Y-14118388D02*
X13546253Y-14137436D01*
X13546253Y-14137436D02*
X13536730Y-14146960D01*
X13536730Y-14146960D02*
X13517682Y-14156484D01*
X13517682Y-14156484D02*
X13489110Y-14156484D01*
X13670063Y-14156484D02*
X13651015Y-14146960D01*
X13651015Y-14146960D02*
X13641491Y-14127912D01*
X13641491Y-14127912D02*
X13641491Y-13956484D01*
X13822444Y-14146960D02*
X13803396Y-14156484D01*
X13803396Y-14156484D02*
X13765301Y-14156484D01*
X13765301Y-14156484D02*
X13746253Y-14146960D01*
X13746253Y-14146960D02*
X13736730Y-14127912D01*
X13736730Y-14127912D02*
X13736730Y-14051722D01*
X13736730Y-14051722D02*
X13746253Y-14032674D01*
X13746253Y-14032674D02*
X13765301Y-14023150D01*
X13765301Y-14023150D02*
X13803396Y-14023150D01*
X13803396Y-14023150D02*
X13822444Y-14032674D01*
X13822444Y-14032674D02*
X13831968Y-14051722D01*
X13831968Y-14051722D02*
X13831968Y-14070769D01*
X13831968Y-14070769D02*
X13736730Y-14089817D01*
X13908158Y-14146960D02*
X13927206Y-14156484D01*
X13927206Y-14156484D02*
X13965301Y-14156484D01*
X13965301Y-14156484D02*
X13984349Y-14146960D01*
X13984349Y-14146960D02*
X13993872Y-14127912D01*
X13993872Y-14127912D02*
X13993872Y-14118388D01*
X13993872Y-14118388D02*
X13984349Y-14099341D01*
X13984349Y-14099341D02*
X13965301Y-14089817D01*
X13965301Y-14089817D02*
X13936730Y-14089817D01*
X13936730Y-14089817D02*
X13917682Y-14080293D01*
X13917682Y-14080293D02*
X13908158Y-14061246D01*
X13908158Y-14061246D02*
X13908158Y-14051722D01*
X13908158Y-14051722D02*
X13917682Y-14032674D01*
X13917682Y-14032674D02*
X13936730Y-14023150D01*
X13936730Y-14023150D02*
X13965301Y-14023150D01*
X13965301Y-14023150D02*
X13984349Y-14032674D01*
X14060539Y-14232674D02*
X14070063Y-14223150D01*
X14070063Y-14223150D02*
X14089111Y-14194579D01*
X14089111Y-14194579D02*
X14098634Y-14175531D01*
X14098634Y-14175531D02*
X14108158Y-14146960D01*
X14108158Y-14146960D02*
X14117682Y-14099341D01*
X14117682Y-14099341D02*
X14117682Y-14061246D01*
X14117682Y-14061246D02*
X14108158Y-14013627D01*
X14108158Y-14013627D02*
X14098634Y-13985055D01*
X14098634Y-13985055D02*
X14089111Y-13966008D01*
X14089111Y-13966008D02*
X14070063Y-13937436D01*
X14070063Y-13937436D02*
X14060539Y-13927912D01*
D16*
X8965000Y-14264000D02*
X9095000Y-14394000D01*
X9095000Y-14264000D02*
X8965000Y-14394000D01*
X9030000Y-14264000D02*
X9030000Y-14394000D01*
X8965000Y-14329000D02*
X9095000Y-14329000D01*
D11*
X9460539Y-14420484D02*
X9346253Y-14420484D01*
X9403396Y-14420484D02*
X9403396Y-14220484D01*
X9403396Y-14220484D02*
X9384348Y-14249055D01*
X9384348Y-14249055D02*
X9365301Y-14268103D01*
X9365301Y-14268103D02*
X9346253Y-14277627D01*
X9546253Y-14401436D02*
X9555777Y-14410960D01*
X9555777Y-14410960D02*
X9546253Y-14420484D01*
X9546253Y-14420484D02*
X9536729Y-14410960D01*
X9536729Y-14410960D02*
X9546253Y-14401436D01*
X9546253Y-14401436D02*
X9546253Y-14420484D01*
X9622444Y-14220484D02*
X9746253Y-14220484D01*
X9746253Y-14220484D02*
X9679586Y-14296674D01*
X9679586Y-14296674D02*
X9708158Y-14296674D01*
X9708158Y-14296674D02*
X9727205Y-14306198D01*
X9727205Y-14306198D02*
X9736729Y-14315722D01*
X9736729Y-14315722D02*
X9746253Y-14334769D01*
X9746253Y-14334769D02*
X9746253Y-14382388D01*
X9746253Y-14382388D02*
X9736729Y-14401436D01*
X9736729Y-14401436D02*
X9727205Y-14410960D01*
X9727205Y-14410960D02*
X9708158Y-14420484D01*
X9708158Y-14420484D02*
X9651015Y-14420484D01*
X9651015Y-14420484D02*
X9631967Y-14410960D01*
X9631967Y-14410960D02*
X9622444Y-14401436D01*
X9870063Y-14220484D02*
X9889110Y-14220484D01*
X9889110Y-14220484D02*
X9908158Y-14230008D01*
X9908158Y-14230008D02*
X9917682Y-14239531D01*
X9917682Y-14239531D02*
X9927205Y-14258579D01*
X9927205Y-14258579D02*
X9936729Y-14296674D01*
X9936729Y-14296674D02*
X9936729Y-14344293D01*
X9936729Y-14344293D02*
X9927205Y-14382388D01*
X9927205Y-14382388D02*
X9917682Y-14401436D01*
X9917682Y-14401436D02*
X9908158Y-14410960D01*
X9908158Y-14410960D02*
X9889110Y-14420484D01*
X9889110Y-14420484D02*
X9870063Y-14420484D01*
X9870063Y-14420484D02*
X9851015Y-14410960D01*
X9851015Y-14410960D02*
X9841491Y-14401436D01*
X9841491Y-14401436D02*
X9831967Y-14382388D01*
X9831967Y-14382388D02*
X9822444Y-14344293D01*
X9822444Y-14344293D02*
X9822444Y-14296674D01*
X9822444Y-14296674D02*
X9831967Y-14258579D01*
X9831967Y-14258579D02*
X9841491Y-14239531D01*
X9841491Y-14239531D02*
X9851015Y-14230008D01*
X9851015Y-14230008D02*
X9870063Y-14220484D01*
X10060539Y-14220484D02*
X10079586Y-14220484D01*
X10079586Y-14220484D02*
X10098634Y-14230008D01*
X10098634Y-14230008D02*
X10108158Y-14239531D01*
X10108158Y-14239531D02*
X10117682Y-14258579D01*
X10117682Y-14258579D02*
X10127205Y-14296674D01*
X10127205Y-14296674D02*
X10127205Y-14344293D01*
X10127205Y-14344293D02*
X10117682Y-14382388D01*
X10117682Y-14382388D02*
X10108158Y-14401436D01*
X10108158Y-14401436D02*
X10098634Y-14410960D01*
X10098634Y-14410960D02*
X10079586Y-14420484D01*
X10079586Y-14420484D02*
X10060539Y-14420484D01*
X10060539Y-14420484D02*
X10041491Y-14410960D01*
X10041491Y-14410960D02*
X10031967Y-14401436D01*
X10031967Y-14401436D02*
X10022444Y-14382388D01*
X10022444Y-14382388D02*
X10012920Y-14344293D01*
X10012920Y-14344293D02*
X10012920Y-14296674D01*
X10012920Y-14296674D02*
X10022444Y-14258579D01*
X10022444Y-14258579D02*
X10031967Y-14239531D01*
X10031967Y-14239531D02*
X10041491Y-14230008D01*
X10041491Y-14230008D02*
X10060539Y-14220484D01*
X10212920Y-14420484D02*
X10212920Y-14287150D01*
X10212920Y-14306198D02*
X10222444Y-14296674D01*
X10222444Y-14296674D02*
X10241491Y-14287150D01*
X10241491Y-14287150D02*
X10270063Y-14287150D01*
X10270063Y-14287150D02*
X10289110Y-14296674D01*
X10289110Y-14296674D02*
X10298634Y-14315722D01*
X10298634Y-14315722D02*
X10298634Y-14420484D01*
X10298634Y-14315722D02*
X10308158Y-14296674D01*
X10308158Y-14296674D02*
X10327205Y-14287150D01*
X10327205Y-14287150D02*
X10355777Y-14287150D01*
X10355777Y-14287150D02*
X10374825Y-14296674D01*
X10374825Y-14296674D02*
X10384348Y-14315722D01*
X10384348Y-14315722D02*
X10384348Y-14420484D01*
X10479586Y-14420484D02*
X10479586Y-14287150D01*
X10479586Y-14306198D02*
X10489110Y-14296674D01*
X10489110Y-14296674D02*
X10508158Y-14287150D01*
X10508158Y-14287150D02*
X10536729Y-14287150D01*
X10536729Y-14287150D02*
X10555777Y-14296674D01*
X10555777Y-14296674D02*
X10565301Y-14315722D01*
X10565301Y-14315722D02*
X10565301Y-14420484D01*
X10565301Y-14315722D02*
X10574825Y-14296674D01*
X10574825Y-14296674D02*
X10593872Y-14287150D01*
X10593872Y-14287150D02*
X10622444Y-14287150D01*
X10622444Y-14287150D02*
X10641491Y-14296674D01*
X10641491Y-14296674D02*
X10651015Y-14315722D01*
X10651015Y-14315722D02*
X10651015Y-14420484D01*
X11041491Y-14210960D02*
X10870063Y-14468103D01*
X11298634Y-14220484D02*
X11317682Y-14220484D01*
X11317682Y-14220484D02*
X11336729Y-14230008D01*
X11336729Y-14230008D02*
X11346253Y-14239531D01*
X11346253Y-14239531D02*
X11355777Y-14258579D01*
X11355777Y-14258579D02*
X11365301Y-14296674D01*
X11365301Y-14296674D02*
X11365301Y-14344293D01*
X11365301Y-14344293D02*
X11355777Y-14382388D01*
X11355777Y-14382388D02*
X11346253Y-14401436D01*
X11346253Y-14401436D02*
X11336729Y-14410960D01*
X11336729Y-14410960D02*
X11317682Y-14420484D01*
X11317682Y-14420484D02*
X11298634Y-14420484D01*
X11298634Y-14420484D02*
X11279586Y-14410960D01*
X11279586Y-14410960D02*
X11270063Y-14401436D01*
X11270063Y-14401436D02*
X11260539Y-14382388D01*
X11260539Y-14382388D02*
X11251015Y-14344293D01*
X11251015Y-14344293D02*
X11251015Y-14296674D01*
X11251015Y-14296674D02*
X11260539Y-14258579D01*
X11260539Y-14258579D02*
X11270063Y-14239531D01*
X11270063Y-14239531D02*
X11279586Y-14230008D01*
X11279586Y-14230008D02*
X11298634Y-14220484D01*
X11451015Y-14401436D02*
X11460539Y-14410960D01*
X11460539Y-14410960D02*
X11451015Y-14420484D01*
X11451015Y-14420484D02*
X11441491Y-14410960D01*
X11441491Y-14410960D02*
X11451015Y-14401436D01*
X11451015Y-14401436D02*
X11451015Y-14420484D01*
X11584348Y-14220484D02*
X11603396Y-14220484D01*
X11603396Y-14220484D02*
X11622444Y-14230008D01*
X11622444Y-14230008D02*
X11631967Y-14239531D01*
X11631967Y-14239531D02*
X11641491Y-14258579D01*
X11641491Y-14258579D02*
X11651015Y-14296674D01*
X11651015Y-14296674D02*
X11651015Y-14344293D01*
X11651015Y-14344293D02*
X11641491Y-14382388D01*
X11641491Y-14382388D02*
X11631967Y-14401436D01*
X11631967Y-14401436D02*
X11622444Y-14410960D01*
X11622444Y-14410960D02*
X11603396Y-14420484D01*
X11603396Y-14420484D02*
X11584348Y-14420484D01*
X11584348Y-14420484D02*
X11565301Y-14410960D01*
X11565301Y-14410960D02*
X11555777Y-14401436D01*
X11555777Y-14401436D02*
X11546253Y-14382388D01*
X11546253Y-14382388D02*
X11536729Y-14344293D01*
X11536729Y-14344293D02*
X11536729Y-14296674D01*
X11536729Y-14296674D02*
X11546253Y-14258579D01*
X11546253Y-14258579D02*
X11555777Y-14239531D01*
X11555777Y-14239531D02*
X11565301Y-14230008D01*
X11565301Y-14230008D02*
X11584348Y-14220484D01*
X11831967Y-14220484D02*
X11736729Y-14220484D01*
X11736729Y-14220484D02*
X11727206Y-14315722D01*
X11727206Y-14315722D02*
X11736729Y-14306198D01*
X11736729Y-14306198D02*
X11755777Y-14296674D01*
X11755777Y-14296674D02*
X11803396Y-14296674D01*
X11803396Y-14296674D02*
X11822444Y-14306198D01*
X11822444Y-14306198D02*
X11831967Y-14315722D01*
X11831967Y-14315722D02*
X11841491Y-14334769D01*
X11841491Y-14334769D02*
X11841491Y-14382388D01*
X11841491Y-14382388D02*
X11831967Y-14401436D01*
X11831967Y-14401436D02*
X11822444Y-14410960D01*
X11822444Y-14410960D02*
X11803396Y-14420484D01*
X11803396Y-14420484D02*
X11755777Y-14420484D01*
X11755777Y-14420484D02*
X11736729Y-14410960D01*
X11736729Y-14410960D02*
X11727206Y-14401436D01*
X12031967Y-14420484D02*
X11917682Y-14420484D01*
X11974825Y-14420484D02*
X11974825Y-14220484D01*
X11974825Y-14220484D02*
X11955777Y-14249055D01*
X11955777Y-14249055D02*
X11936729Y-14268103D01*
X11936729Y-14268103D02*
X11917682Y-14277627D01*
X12108158Y-14239531D02*
X12117682Y-14230008D01*
X12117682Y-14230008D02*
X12136729Y-14220484D01*
X12136729Y-14220484D02*
X12184348Y-14220484D01*
X12184348Y-14220484D02*
X12203396Y-14230008D01*
X12203396Y-14230008D02*
X12212920Y-14239531D01*
X12212920Y-14239531D02*
X12222444Y-14258579D01*
X12222444Y-14258579D02*
X12222444Y-14277627D01*
X12222444Y-14277627D02*
X12212920Y-14306198D01*
X12212920Y-14306198D02*
X12098634Y-14420484D01*
X12098634Y-14420484D02*
X12222444Y-14420484D01*
X12298634Y-14220484D02*
X12298634Y-14258579D01*
X12374825Y-14220484D02*
X12374825Y-14258579D01*
X12670063Y-14496674D02*
X12660539Y-14487150D01*
X12660539Y-14487150D02*
X12641491Y-14458579D01*
X12641491Y-14458579D02*
X12631968Y-14439531D01*
X12631968Y-14439531D02*
X12622444Y-14410960D01*
X12622444Y-14410960D02*
X12612920Y-14363341D01*
X12612920Y-14363341D02*
X12612920Y-14325246D01*
X12612920Y-14325246D02*
X12622444Y-14277627D01*
X12622444Y-14277627D02*
X12631968Y-14249055D01*
X12631968Y-14249055D02*
X12641491Y-14230008D01*
X12641491Y-14230008D02*
X12660539Y-14201436D01*
X12660539Y-14201436D02*
X12670063Y-14191912D01*
X12774825Y-14306198D02*
X12755777Y-14296674D01*
X12755777Y-14296674D02*
X12746253Y-14287150D01*
X12746253Y-14287150D02*
X12736729Y-14268103D01*
X12736729Y-14268103D02*
X12736729Y-14258579D01*
X12736729Y-14258579D02*
X12746253Y-14239531D01*
X12746253Y-14239531D02*
X12755777Y-14230008D01*
X12755777Y-14230008D02*
X12774825Y-14220484D01*
X12774825Y-14220484D02*
X12812920Y-14220484D01*
X12812920Y-14220484D02*
X12831968Y-14230008D01*
X12831968Y-14230008D02*
X12841491Y-14239531D01*
X12841491Y-14239531D02*
X12851015Y-14258579D01*
X12851015Y-14258579D02*
X12851015Y-14268103D01*
X12851015Y-14268103D02*
X12841491Y-14287150D01*
X12841491Y-14287150D02*
X12831968Y-14296674D01*
X12831968Y-14296674D02*
X12812920Y-14306198D01*
X12812920Y-14306198D02*
X12774825Y-14306198D01*
X12774825Y-14306198D02*
X12755777Y-14315722D01*
X12755777Y-14315722D02*
X12746253Y-14325246D01*
X12746253Y-14325246D02*
X12736729Y-14344293D01*
X12736729Y-14344293D02*
X12736729Y-14382388D01*
X12736729Y-14382388D02*
X12746253Y-14401436D01*
X12746253Y-14401436D02*
X12755777Y-14410960D01*
X12755777Y-14410960D02*
X12774825Y-14420484D01*
X12774825Y-14420484D02*
X12812920Y-14420484D01*
X12812920Y-14420484D02*
X12831968Y-14410960D01*
X12831968Y-14410960D02*
X12841491Y-14401436D01*
X12841491Y-14401436D02*
X12851015Y-14382388D01*
X12851015Y-14382388D02*
X12851015Y-14344293D01*
X12851015Y-14344293D02*
X12841491Y-14325246D01*
X12841491Y-14325246D02*
X12831968Y-14315722D01*
X12831968Y-14315722D02*
X12812920Y-14306198D01*
X13089110Y-14420484D02*
X13089110Y-14220484D01*
X13174825Y-14420484D02*
X13174825Y-14315722D01*
X13174825Y-14315722D02*
X13165301Y-14296674D01*
X13165301Y-14296674D02*
X13146253Y-14287150D01*
X13146253Y-14287150D02*
X13117682Y-14287150D01*
X13117682Y-14287150D02*
X13098634Y-14296674D01*
X13098634Y-14296674D02*
X13089110Y-14306198D01*
X13298634Y-14420484D02*
X13279587Y-14410960D01*
X13279587Y-14410960D02*
X13270063Y-14401436D01*
X13270063Y-14401436D02*
X13260539Y-14382388D01*
X13260539Y-14382388D02*
X13260539Y-14325246D01*
X13260539Y-14325246D02*
X13270063Y-14306198D01*
X13270063Y-14306198D02*
X13279587Y-14296674D01*
X13279587Y-14296674D02*
X13298634Y-14287150D01*
X13298634Y-14287150D02*
X13327206Y-14287150D01*
X13327206Y-14287150D02*
X13346253Y-14296674D01*
X13346253Y-14296674D02*
X13355777Y-14306198D01*
X13355777Y-14306198D02*
X13365301Y-14325246D01*
X13365301Y-14325246D02*
X13365301Y-14382388D01*
X13365301Y-14382388D02*
X13355777Y-14401436D01*
X13355777Y-14401436D02*
X13346253Y-14410960D01*
X13346253Y-14410960D02*
X13327206Y-14420484D01*
X13327206Y-14420484D02*
X13298634Y-14420484D01*
X13479587Y-14420484D02*
X13460539Y-14410960D01*
X13460539Y-14410960D02*
X13451015Y-14391912D01*
X13451015Y-14391912D02*
X13451015Y-14220484D01*
X13631968Y-14410960D02*
X13612920Y-14420484D01*
X13612920Y-14420484D02*
X13574825Y-14420484D01*
X13574825Y-14420484D02*
X13555777Y-14410960D01*
X13555777Y-14410960D02*
X13546253Y-14391912D01*
X13546253Y-14391912D02*
X13546253Y-14315722D01*
X13546253Y-14315722D02*
X13555777Y-14296674D01*
X13555777Y-14296674D02*
X13574825Y-14287150D01*
X13574825Y-14287150D02*
X13612920Y-14287150D01*
X13612920Y-14287150D02*
X13631968Y-14296674D01*
X13631968Y-14296674D02*
X13641491Y-14315722D01*
X13641491Y-14315722D02*
X13641491Y-14334769D01*
X13641491Y-14334769D02*
X13546253Y-14353817D01*
X13717682Y-14410960D02*
X13736730Y-14420484D01*
X13736730Y-14420484D02*
X13774825Y-14420484D01*
X13774825Y-14420484D02*
X13793872Y-14410960D01*
X13793872Y-14410960D02*
X13803396Y-14391912D01*
X13803396Y-14391912D02*
X13803396Y-14382388D01*
X13803396Y-14382388D02*
X13793872Y-14363341D01*
X13793872Y-14363341D02*
X13774825Y-14353817D01*
X13774825Y-14353817D02*
X13746253Y-14353817D01*
X13746253Y-14353817D02*
X13727206Y-14344293D01*
X13727206Y-14344293D02*
X13717682Y-14325246D01*
X13717682Y-14325246D02*
X13717682Y-14315722D01*
X13717682Y-14315722D02*
X13727206Y-14296674D01*
X13727206Y-14296674D02*
X13746253Y-14287150D01*
X13746253Y-14287150D02*
X13774825Y-14287150D01*
X13774825Y-14287150D02*
X13793872Y-14296674D01*
X13870063Y-14496674D02*
X13879587Y-14487150D01*
X13879587Y-14487150D02*
X13898634Y-14458579D01*
X13898634Y-14458579D02*
X13908158Y-14439531D01*
X13908158Y-14439531D02*
X13917682Y-14410960D01*
X13917682Y-14410960D02*
X13927206Y-14363341D01*
X13927206Y-14363341D02*
X13927206Y-14325246D01*
X13927206Y-14325246D02*
X13917682Y-14277627D01*
X13917682Y-14277627D02*
X13908158Y-14249055D01*
X13908158Y-14249055D02*
X13898634Y-14230008D01*
X13898634Y-14230008D02*
X13879587Y-14201436D01*
X13879587Y-14201436D02*
X13870063Y-14191912D01*
D17*
X8915000Y-14503000D02*
X9095000Y-14683000D01*
X9095000Y-14503000D02*
X8915000Y-14683000D01*
X9068640Y-14656640D02*
X9068640Y-14529360D01*
X8941360Y-14529360D01*
X8941360Y-14656640D01*
X9068640Y-14656640D01*
D11*
X9460539Y-14684484D02*
X9346253Y-14684484D01*
X9403396Y-14684484D02*
X9403396Y-14484484D01*
X9403396Y-14484484D02*
X9384348Y-14513055D01*
X9384348Y-14513055D02*
X9365301Y-14532103D01*
X9365301Y-14532103D02*
X9346253Y-14541627D01*
X9546253Y-14665436D02*
X9555777Y-14674960D01*
X9555777Y-14674960D02*
X9546253Y-14684484D01*
X9546253Y-14684484D02*
X9536729Y-14674960D01*
X9536729Y-14674960D02*
X9546253Y-14665436D01*
X9546253Y-14665436D02*
X9546253Y-14684484D01*
X9670063Y-14570198D02*
X9651015Y-14560674D01*
X9651015Y-14560674D02*
X9641491Y-14551150D01*
X9641491Y-14551150D02*
X9631967Y-14532103D01*
X9631967Y-14532103D02*
X9631967Y-14522579D01*
X9631967Y-14522579D02*
X9641491Y-14503531D01*
X9641491Y-14503531D02*
X9651015Y-14494008D01*
X9651015Y-14494008D02*
X9670063Y-14484484D01*
X9670063Y-14484484D02*
X9708158Y-14484484D01*
X9708158Y-14484484D02*
X9727205Y-14494008D01*
X9727205Y-14494008D02*
X9736729Y-14503531D01*
X9736729Y-14503531D02*
X9746253Y-14522579D01*
X9746253Y-14522579D02*
X9746253Y-14532103D01*
X9746253Y-14532103D02*
X9736729Y-14551150D01*
X9736729Y-14551150D02*
X9727205Y-14560674D01*
X9727205Y-14560674D02*
X9708158Y-14570198D01*
X9708158Y-14570198D02*
X9670063Y-14570198D01*
X9670063Y-14570198D02*
X9651015Y-14579722D01*
X9651015Y-14579722D02*
X9641491Y-14589246D01*
X9641491Y-14589246D02*
X9631967Y-14608293D01*
X9631967Y-14608293D02*
X9631967Y-14646388D01*
X9631967Y-14646388D02*
X9641491Y-14665436D01*
X9641491Y-14665436D02*
X9651015Y-14674960D01*
X9651015Y-14674960D02*
X9670063Y-14684484D01*
X9670063Y-14684484D02*
X9708158Y-14684484D01*
X9708158Y-14684484D02*
X9727205Y-14674960D01*
X9727205Y-14674960D02*
X9736729Y-14665436D01*
X9736729Y-14665436D02*
X9746253Y-14646388D01*
X9746253Y-14646388D02*
X9746253Y-14608293D01*
X9746253Y-14608293D02*
X9736729Y-14589246D01*
X9736729Y-14589246D02*
X9727205Y-14579722D01*
X9727205Y-14579722D02*
X9708158Y-14570198D01*
X9870063Y-14484484D02*
X9889110Y-14484484D01*
X9889110Y-14484484D02*
X9908158Y-14494008D01*
X9908158Y-14494008D02*
X9917682Y-14503531D01*
X9917682Y-14503531D02*
X9927205Y-14522579D01*
X9927205Y-14522579D02*
X9936729Y-14560674D01*
X9936729Y-14560674D02*
X9936729Y-14608293D01*
X9936729Y-14608293D02*
X9927205Y-14646388D01*
X9927205Y-14646388D02*
X9917682Y-14665436D01*
X9917682Y-14665436D02*
X9908158Y-14674960D01*
X9908158Y-14674960D02*
X9889110Y-14684484D01*
X9889110Y-14684484D02*
X9870063Y-14684484D01*
X9870063Y-14684484D02*
X9851015Y-14674960D01*
X9851015Y-14674960D02*
X9841491Y-14665436D01*
X9841491Y-14665436D02*
X9831967Y-14646388D01*
X9831967Y-14646388D02*
X9822444Y-14608293D01*
X9822444Y-14608293D02*
X9822444Y-14560674D01*
X9822444Y-14560674D02*
X9831967Y-14522579D01*
X9831967Y-14522579D02*
X9841491Y-14503531D01*
X9841491Y-14503531D02*
X9851015Y-14494008D01*
X9851015Y-14494008D02*
X9870063Y-14484484D01*
X10060539Y-14484484D02*
X10079586Y-14484484D01*
X10079586Y-14484484D02*
X10098634Y-14494008D01*
X10098634Y-14494008D02*
X10108158Y-14503531D01*
X10108158Y-14503531D02*
X10117682Y-14522579D01*
X10117682Y-14522579D02*
X10127205Y-14560674D01*
X10127205Y-14560674D02*
X10127205Y-14608293D01*
X10127205Y-14608293D02*
X10117682Y-14646388D01*
X10117682Y-14646388D02*
X10108158Y-14665436D01*
X10108158Y-14665436D02*
X10098634Y-14674960D01*
X10098634Y-14674960D02*
X10079586Y-14684484D01*
X10079586Y-14684484D02*
X10060539Y-14684484D01*
X10060539Y-14684484D02*
X10041491Y-14674960D01*
X10041491Y-14674960D02*
X10031967Y-14665436D01*
X10031967Y-14665436D02*
X10022444Y-14646388D01*
X10022444Y-14646388D02*
X10012920Y-14608293D01*
X10012920Y-14608293D02*
X10012920Y-14560674D01*
X10012920Y-14560674D02*
X10022444Y-14522579D01*
X10022444Y-14522579D02*
X10031967Y-14503531D01*
X10031967Y-14503531D02*
X10041491Y-14494008D01*
X10041491Y-14494008D02*
X10060539Y-14484484D01*
X10212920Y-14684484D02*
X10212920Y-14551150D01*
X10212920Y-14570198D02*
X10222444Y-14560674D01*
X10222444Y-14560674D02*
X10241491Y-14551150D01*
X10241491Y-14551150D02*
X10270063Y-14551150D01*
X10270063Y-14551150D02*
X10289110Y-14560674D01*
X10289110Y-14560674D02*
X10298634Y-14579722D01*
X10298634Y-14579722D02*
X10298634Y-14684484D01*
X10298634Y-14579722D02*
X10308158Y-14560674D01*
X10308158Y-14560674D02*
X10327205Y-14551150D01*
X10327205Y-14551150D02*
X10355777Y-14551150D01*
X10355777Y-14551150D02*
X10374825Y-14560674D01*
X10374825Y-14560674D02*
X10384348Y-14579722D01*
X10384348Y-14579722D02*
X10384348Y-14684484D01*
X10479586Y-14684484D02*
X10479586Y-14551150D01*
X10479586Y-14570198D02*
X10489110Y-14560674D01*
X10489110Y-14560674D02*
X10508158Y-14551150D01*
X10508158Y-14551150D02*
X10536729Y-14551150D01*
X10536729Y-14551150D02*
X10555777Y-14560674D01*
X10555777Y-14560674D02*
X10565301Y-14579722D01*
X10565301Y-14579722D02*
X10565301Y-14684484D01*
X10565301Y-14579722D02*
X10574825Y-14560674D01*
X10574825Y-14560674D02*
X10593872Y-14551150D01*
X10593872Y-14551150D02*
X10622444Y-14551150D01*
X10622444Y-14551150D02*
X10641491Y-14560674D01*
X10641491Y-14560674D02*
X10651015Y-14579722D01*
X10651015Y-14579722D02*
X10651015Y-14684484D01*
X11041491Y-14474960D02*
X10870063Y-14732103D01*
X11298634Y-14484484D02*
X11317682Y-14484484D01*
X11317682Y-14484484D02*
X11336729Y-14494008D01*
X11336729Y-14494008D02*
X11346253Y-14503531D01*
X11346253Y-14503531D02*
X11355777Y-14522579D01*
X11355777Y-14522579D02*
X11365301Y-14560674D01*
X11365301Y-14560674D02*
X11365301Y-14608293D01*
X11365301Y-14608293D02*
X11355777Y-14646388D01*
X11355777Y-14646388D02*
X11346253Y-14665436D01*
X11346253Y-14665436D02*
X11336729Y-14674960D01*
X11336729Y-14674960D02*
X11317682Y-14684484D01*
X11317682Y-14684484D02*
X11298634Y-14684484D01*
X11298634Y-14684484D02*
X11279586Y-14674960D01*
X11279586Y-14674960D02*
X11270063Y-14665436D01*
X11270063Y-14665436D02*
X11260539Y-14646388D01*
X11260539Y-14646388D02*
X11251015Y-14608293D01*
X11251015Y-14608293D02*
X11251015Y-14560674D01*
X11251015Y-14560674D02*
X11260539Y-14522579D01*
X11260539Y-14522579D02*
X11270063Y-14503531D01*
X11270063Y-14503531D02*
X11279586Y-14494008D01*
X11279586Y-14494008D02*
X11298634Y-14484484D01*
X11451015Y-14665436D02*
X11460539Y-14674960D01*
X11460539Y-14674960D02*
X11451015Y-14684484D01*
X11451015Y-14684484D02*
X11441491Y-14674960D01*
X11441491Y-14674960D02*
X11451015Y-14665436D01*
X11451015Y-14665436D02*
X11451015Y-14684484D01*
X11584348Y-14484484D02*
X11603396Y-14484484D01*
X11603396Y-14484484D02*
X11622444Y-14494008D01*
X11622444Y-14494008D02*
X11631967Y-14503531D01*
X11631967Y-14503531D02*
X11641491Y-14522579D01*
X11641491Y-14522579D02*
X11651015Y-14560674D01*
X11651015Y-14560674D02*
X11651015Y-14608293D01*
X11651015Y-14608293D02*
X11641491Y-14646388D01*
X11641491Y-14646388D02*
X11631967Y-14665436D01*
X11631967Y-14665436D02*
X11622444Y-14674960D01*
X11622444Y-14674960D02*
X11603396Y-14684484D01*
X11603396Y-14684484D02*
X11584348Y-14684484D01*
X11584348Y-14684484D02*
X11565301Y-14674960D01*
X11565301Y-14674960D02*
X11555777Y-14665436D01*
X11555777Y-14665436D02*
X11546253Y-14646388D01*
X11546253Y-14646388D02*
X11536729Y-14608293D01*
X11536729Y-14608293D02*
X11536729Y-14560674D01*
X11536729Y-14560674D02*
X11546253Y-14522579D01*
X11546253Y-14522579D02*
X11555777Y-14503531D01*
X11555777Y-14503531D02*
X11565301Y-14494008D01*
X11565301Y-14494008D02*
X11584348Y-14484484D01*
X11717682Y-14484484D02*
X11851015Y-14484484D01*
X11851015Y-14484484D02*
X11765301Y-14684484D01*
X11965301Y-14484484D02*
X11984348Y-14484484D01*
X11984348Y-14484484D02*
X12003396Y-14494008D01*
X12003396Y-14494008D02*
X12012920Y-14503531D01*
X12012920Y-14503531D02*
X12022444Y-14522579D01*
X12022444Y-14522579D02*
X12031967Y-14560674D01*
X12031967Y-14560674D02*
X12031967Y-14608293D01*
X12031967Y-14608293D02*
X12022444Y-14646388D01*
X12022444Y-14646388D02*
X12012920Y-14665436D01*
X12012920Y-14665436D02*
X12003396Y-14674960D01*
X12003396Y-14674960D02*
X11984348Y-14684484D01*
X11984348Y-14684484D02*
X11965301Y-14684484D01*
X11965301Y-14684484D02*
X11946253Y-14674960D01*
X11946253Y-14674960D02*
X11936729Y-14665436D01*
X11936729Y-14665436D02*
X11927206Y-14646388D01*
X11927206Y-14646388D02*
X11917682Y-14608293D01*
X11917682Y-14608293D02*
X11917682Y-14560674D01*
X11917682Y-14560674D02*
X11927206Y-14522579D01*
X11927206Y-14522579D02*
X11936729Y-14503531D01*
X11936729Y-14503531D02*
X11946253Y-14494008D01*
X11946253Y-14494008D02*
X11965301Y-14484484D01*
X12127206Y-14684484D02*
X12165301Y-14684484D01*
X12165301Y-14684484D02*
X12184348Y-14674960D01*
X12184348Y-14674960D02*
X12193872Y-14665436D01*
X12193872Y-14665436D02*
X12212920Y-14636865D01*
X12212920Y-14636865D02*
X12222444Y-14598769D01*
X12222444Y-14598769D02*
X12222444Y-14522579D01*
X12222444Y-14522579D02*
X12212920Y-14503531D01*
X12212920Y-14503531D02*
X12203396Y-14494008D01*
X12203396Y-14494008D02*
X12184348Y-14484484D01*
X12184348Y-14484484D02*
X12146253Y-14484484D01*
X12146253Y-14484484D02*
X12127206Y-14494008D01*
X12127206Y-14494008D02*
X12117682Y-14503531D01*
X12117682Y-14503531D02*
X12108158Y-14522579D01*
X12108158Y-14522579D02*
X12108158Y-14570198D01*
X12108158Y-14570198D02*
X12117682Y-14589246D01*
X12117682Y-14589246D02*
X12127206Y-14598769D01*
X12127206Y-14598769D02*
X12146253Y-14608293D01*
X12146253Y-14608293D02*
X12184348Y-14608293D01*
X12184348Y-14608293D02*
X12203396Y-14598769D01*
X12203396Y-14598769D02*
X12212920Y-14589246D01*
X12212920Y-14589246D02*
X12222444Y-14570198D01*
X12298634Y-14484484D02*
X12298634Y-14522579D01*
X12374825Y-14484484D02*
X12374825Y-14522579D01*
X12670063Y-14760674D02*
X12660539Y-14751150D01*
X12660539Y-14751150D02*
X12641491Y-14722579D01*
X12641491Y-14722579D02*
X12631968Y-14703531D01*
X12631968Y-14703531D02*
X12622444Y-14674960D01*
X12622444Y-14674960D02*
X12612920Y-14627341D01*
X12612920Y-14627341D02*
X12612920Y-14589246D01*
X12612920Y-14589246D02*
X12622444Y-14541627D01*
X12622444Y-14541627D02*
X12631968Y-14513055D01*
X12631968Y-14513055D02*
X12641491Y-14494008D01*
X12641491Y-14494008D02*
X12660539Y-14465436D01*
X12660539Y-14465436D02*
X12670063Y-14455912D01*
X12784348Y-14484484D02*
X12803396Y-14484484D01*
X12803396Y-14484484D02*
X12822444Y-14494008D01*
X12822444Y-14494008D02*
X12831968Y-14503531D01*
X12831968Y-14503531D02*
X12841491Y-14522579D01*
X12841491Y-14522579D02*
X12851015Y-14560674D01*
X12851015Y-14560674D02*
X12851015Y-14608293D01*
X12851015Y-14608293D02*
X12841491Y-14646388D01*
X12841491Y-14646388D02*
X12831968Y-14665436D01*
X12831968Y-14665436D02*
X12822444Y-14674960D01*
X12822444Y-14674960D02*
X12803396Y-14684484D01*
X12803396Y-14684484D02*
X12784348Y-14684484D01*
X12784348Y-14684484D02*
X12765301Y-14674960D01*
X12765301Y-14674960D02*
X12755777Y-14665436D01*
X12755777Y-14665436D02*
X12746253Y-14646388D01*
X12746253Y-14646388D02*
X12736729Y-14608293D01*
X12736729Y-14608293D02*
X12736729Y-14560674D01*
X12736729Y-14560674D02*
X12746253Y-14522579D01*
X12746253Y-14522579D02*
X12755777Y-14503531D01*
X12755777Y-14503531D02*
X12765301Y-14494008D01*
X12765301Y-14494008D02*
X12784348Y-14484484D01*
X13089110Y-14684484D02*
X13089110Y-14484484D01*
X13174825Y-14684484D02*
X13174825Y-14579722D01*
X13174825Y-14579722D02*
X13165301Y-14560674D01*
X13165301Y-14560674D02*
X13146253Y-14551150D01*
X13146253Y-14551150D02*
X13117682Y-14551150D01*
X13117682Y-14551150D02*
X13098634Y-14560674D01*
X13098634Y-14560674D02*
X13089110Y-14570198D01*
X13298634Y-14684484D02*
X13279587Y-14674960D01*
X13279587Y-14674960D02*
X13270063Y-14665436D01*
X13270063Y-14665436D02*
X13260539Y-14646388D01*
X13260539Y-14646388D02*
X13260539Y-14589246D01*
X13260539Y-14589246D02*
X13270063Y-14570198D01*
X13270063Y-14570198D02*
X13279587Y-14560674D01*
X13279587Y-14560674D02*
X13298634Y-14551150D01*
X13298634Y-14551150D02*
X13327206Y-14551150D01*
X13327206Y-14551150D02*
X13346253Y-14560674D01*
X13346253Y-14560674D02*
X13355777Y-14570198D01*
X13355777Y-14570198D02*
X13365301Y-14589246D01*
X13365301Y-14589246D02*
X13365301Y-14646388D01*
X13365301Y-14646388D02*
X13355777Y-14665436D01*
X13355777Y-14665436D02*
X13346253Y-14674960D01*
X13346253Y-14674960D02*
X13327206Y-14684484D01*
X13327206Y-14684484D02*
X13298634Y-14684484D01*
X13479587Y-14684484D02*
X13460539Y-14674960D01*
X13460539Y-14674960D02*
X13451015Y-14655912D01*
X13451015Y-14655912D02*
X13451015Y-14484484D01*
X13631968Y-14674960D02*
X13612920Y-14684484D01*
X13612920Y-14684484D02*
X13574825Y-14684484D01*
X13574825Y-14684484D02*
X13555777Y-14674960D01*
X13555777Y-14674960D02*
X13546253Y-14655912D01*
X13546253Y-14655912D02*
X13546253Y-14579722D01*
X13546253Y-14579722D02*
X13555777Y-14560674D01*
X13555777Y-14560674D02*
X13574825Y-14551150D01*
X13574825Y-14551150D02*
X13612920Y-14551150D01*
X13612920Y-14551150D02*
X13631968Y-14560674D01*
X13631968Y-14560674D02*
X13641491Y-14579722D01*
X13641491Y-14579722D02*
X13641491Y-14598769D01*
X13641491Y-14598769D02*
X13546253Y-14617817D01*
X13717682Y-14674960D02*
X13736730Y-14684484D01*
X13736730Y-14684484D02*
X13774825Y-14684484D01*
X13774825Y-14684484D02*
X13793872Y-14674960D01*
X13793872Y-14674960D02*
X13803396Y-14655912D01*
X13803396Y-14655912D02*
X13803396Y-14646388D01*
X13803396Y-14646388D02*
X13793872Y-14627341D01*
X13793872Y-14627341D02*
X13774825Y-14617817D01*
X13774825Y-14617817D02*
X13746253Y-14617817D01*
X13746253Y-14617817D02*
X13727206Y-14608293D01*
X13727206Y-14608293D02*
X13717682Y-14589246D01*
X13717682Y-14589246D02*
X13717682Y-14579722D01*
X13717682Y-14579722D02*
X13727206Y-14560674D01*
X13727206Y-14560674D02*
X13746253Y-14551150D01*
X13746253Y-14551150D02*
X13774825Y-14551150D01*
X13774825Y-14551150D02*
X13793872Y-14560674D01*
X14041492Y-14608293D02*
X14193873Y-14608293D01*
X14117682Y-14684484D02*
X14117682Y-14532103D01*
X14527206Y-14551150D02*
X14527206Y-14684484D01*
X14479587Y-14474960D02*
X14431968Y-14617817D01*
X14431968Y-14617817D02*
X14555777Y-14617817D01*
X14774825Y-14674960D02*
X14793873Y-14684484D01*
X14793873Y-14684484D02*
X14831968Y-14684484D01*
X14831968Y-14684484D02*
X14851015Y-14674960D01*
X14851015Y-14674960D02*
X14860539Y-14655912D01*
X14860539Y-14655912D02*
X14860539Y-14646388D01*
X14860539Y-14646388D02*
X14851015Y-14627341D01*
X14851015Y-14627341D02*
X14831968Y-14617817D01*
X14831968Y-14617817D02*
X14803396Y-14617817D01*
X14803396Y-14617817D02*
X14784349Y-14608293D01*
X14784349Y-14608293D02*
X14774825Y-14589246D01*
X14774825Y-14589246D02*
X14774825Y-14579722D01*
X14774825Y-14579722D02*
X14784349Y-14560674D01*
X14784349Y-14560674D02*
X14803396Y-14551150D01*
X14803396Y-14551150D02*
X14831968Y-14551150D01*
X14831968Y-14551150D02*
X14851015Y-14560674D01*
X14974825Y-14684484D02*
X14955777Y-14674960D01*
X14955777Y-14674960D02*
X14946254Y-14655912D01*
X14946254Y-14655912D02*
X14946254Y-14484484D01*
X15079587Y-14684484D02*
X15060539Y-14674960D01*
X15060539Y-14674960D02*
X15051015Y-14665436D01*
X15051015Y-14665436D02*
X15041492Y-14646388D01*
X15041492Y-14646388D02*
X15041492Y-14589246D01*
X15041492Y-14589246D02*
X15051015Y-14570198D01*
X15051015Y-14570198D02*
X15060539Y-14560674D01*
X15060539Y-14560674D02*
X15079587Y-14551150D01*
X15079587Y-14551150D02*
X15108158Y-14551150D01*
X15108158Y-14551150D02*
X15127206Y-14560674D01*
X15127206Y-14560674D02*
X15136730Y-14570198D01*
X15136730Y-14570198D02*
X15146254Y-14589246D01*
X15146254Y-14589246D02*
X15146254Y-14646388D01*
X15146254Y-14646388D02*
X15136730Y-14665436D01*
X15136730Y-14665436D02*
X15127206Y-14674960D01*
X15127206Y-14674960D02*
X15108158Y-14684484D01*
X15108158Y-14684484D02*
X15079587Y-14684484D01*
X15203396Y-14551150D02*
X15279587Y-14551150D01*
X15231968Y-14484484D02*
X15231968Y-14655912D01*
X15231968Y-14655912D02*
X15241492Y-14674960D01*
X15241492Y-14674960D02*
X15260539Y-14684484D01*
X15260539Y-14684484D02*
X15279587Y-14684484D01*
X15336730Y-14674960D02*
X15355777Y-14684484D01*
X15355777Y-14684484D02*
X15393873Y-14684484D01*
X15393873Y-14684484D02*
X15412920Y-14674960D01*
X15412920Y-14674960D02*
X15422444Y-14655912D01*
X15422444Y-14655912D02*
X15422444Y-14646388D01*
X15422444Y-14646388D02*
X15412920Y-14627341D01*
X15412920Y-14627341D02*
X15393873Y-14617817D01*
X15393873Y-14617817D02*
X15365301Y-14617817D01*
X15365301Y-14617817D02*
X15346254Y-14608293D01*
X15346254Y-14608293D02*
X15336730Y-14589246D01*
X15336730Y-14589246D02*
X15336730Y-14579722D01*
X15336730Y-14579722D02*
X15346254Y-14560674D01*
X15346254Y-14560674D02*
X15365301Y-14551150D01*
X15365301Y-14551150D02*
X15393873Y-14551150D01*
X15393873Y-14551150D02*
X15412920Y-14560674D01*
X15489111Y-14760674D02*
X15498635Y-14751150D01*
X15498635Y-14751150D02*
X15517682Y-14722579D01*
X15517682Y-14722579D02*
X15527206Y-14703531D01*
X15527206Y-14703531D02*
X15536730Y-14674960D01*
X15536730Y-14674960D02*
X15546254Y-14627341D01*
X15546254Y-14627341D02*
X15546254Y-14589246D01*
X15546254Y-14589246D02*
X15536730Y-14541627D01*
X15536730Y-14541627D02*
X15527206Y-14513055D01*
X15527206Y-14513055D02*
X15517682Y-14494008D01*
X15517682Y-14494008D02*
X15498635Y-14465436D01*
X15498635Y-14465436D02*
X15489111Y-14455912D01*
M02*
