M48
; DRILL file {KiCad 7.0.8} date 2024 January 12, Friday 01:38:08
; FORMAT={-:-/ absolute / metric / decimal}
; #@! TF.CreationDate,2024-01-12T01:38:08-08:00
; #@! TF.GenerationSoftware,Kicad,Pcbnew,7.0.8
; #@! TF.FileFunction,Plated,1,2,PTH
FMAT,2
METRIC
; #@! TA.AperFunction,Plated,PTH,ViaDrill
T1C0.400
; #@! TA.AperFunction,Plated,PTH,ViaDrill
T2C0.600
; #@! TA.AperFunction,Plated,PTH,ComponentDrill
T3C0.600
; #@! TA.AperFunction,Plated,PTH,ComponentDrill
T4C0.800
; #@! TA.AperFunction,Plated,PTH,ComponentDrill
T5C0.900
; #@! TA.AperFunction,Plated,PTH,ComponentDrill
T6C1.000
; #@! TA.AperFunction,Plated,PTH,ComponentDrill
T7C1.300
; #@! TA.AperFunction,Plated,PTH,ComponentDrill
T8C1.800
%
G90
G05
T1
X126.345Y-87.3
X126.345Y-112.7
X126.98Y-96.19
X126.98Y-101.27
X131.425Y-107.62
X139.045Y-100.0
X139.045Y-102.54
X139.045Y-105.08
X139.68Y-82.22
X140.315Y-89.84
X140.315Y-92.38
X140.315Y-112.7
X144.125Y-94.92
X144.125Y-97.46
X144.76Y-112.7
X145.395Y-96.19
X146.665Y-95.555
X146.665Y-96.825
X147.935Y-101.27
X147.935Y-112.065
X153.65Y-101.905
X153.65Y-105.715
X156.939Y-98.729
X157.46Y-105.715
X157.714Y-93.015
X158.488Y-101.13
X159.97Y-101.942
X160.615Y-98.73
X160.99Y-100.355
X162.54Y-98.095
X166.35Y-93.015
X166.35Y-105.715
X168.255Y-104.445
X172.065Y-103.175
X173.335Y-100.635
T2
X139.045Y-96.825
T4
X94.0Y-87.0
X94.0Y-89.0
X94.0Y-91.0
T5
X96.0Y-75.73
X96.0Y-78.27
X101.0Y-75.73
X101.0Y-78.27
X104.0Y-98.0
X106.0Y-75.73
X106.0Y-78.27
X106.0Y-98.0
X108.0Y-98.0
X113.46Y-77.0
X115.0Y-87.0
X115.0Y-89.0
X115.0Y-91.0
X116.0Y-77.0
X118.54Y-77.0
T6
X93.75Y-103.75
X93.75Y-108.25
X93.75Y-113.75
X93.75Y-118.25
X100.25Y-103.75
X100.25Y-108.25
X100.25Y-113.75
X100.25Y-118.25
X102.75Y-103.75
X102.75Y-108.25
X102.75Y-113.75
X102.75Y-118.25
X109.25Y-103.75
X109.25Y-108.25
X109.25Y-113.75
X109.25Y-118.25
X111.75Y-103.75
X111.75Y-108.25
X111.75Y-113.75
X111.75Y-118.25
X118.25Y-103.75
X118.25Y-108.25
X118.25Y-113.75
X118.25Y-118.25
X179.5Y-82.0
X179.5Y-104.0
X182.0Y-82.0
X182.0Y-104.0
X184.5Y-82.0
X184.5Y-104.0
T7
X193.5Y-82.75
X193.5Y-95.25
X193.5Y-104.75
X193.5Y-117.25
X198.5Y-82.75
X198.5Y-95.25
X198.5Y-104.75
X198.5Y-117.25
T3
G00X93.55Y-84.9
M15
G01X94.45Y-84.9
M16
G05
G00X93.55Y-93.1
M15
G01X94.45Y-93.1
M16
G05
T8
G00X177.6Y-88.8
M15
G01X177.6Y-89.2
M16
G05
G00X177.6Y-110.8
M15
G01X177.6Y-111.2
M16
G05
G00X186.4Y-88.8
M15
G01X186.4Y-89.2
M16
G05
G00X186.4Y-110.8
M15
G01X186.4Y-111.2
M16
G05
T0
M30
