%TF.GenerationSoftware,KiCad,Pcbnew,7.0.8*%
%TF.CreationDate,2024-01-12T01:29:44-08:00*%
%TF.ProjectId,rc_v1,72635f76-312e-46b6-9963-61645f706362,0*%
%TF.SameCoordinates,Original*%
%TF.FileFunction,Legend,Top*%
%TF.FilePolarity,Positive*%
%FSLAX46Y46*%
G04 Gerber Fmt 4.6, Leading zero omitted, Abs format (unit mm)*
G04 Created by KiCad (PCBNEW 7.0.8) date 2024-01-12 01:29:44*
%MOMM*%
%LPD*%
G01*
G04 APERTURE LIST*
%ADD10C,0.300000*%
%ADD11C,0.250000*%
%ADD12C,0.150000*%
%ADD13C,0.120000*%
%ADD14C,0.100000*%
%ADD15C,0.127000*%
%ADD16R,4.000000X1.000000*%
G04 APERTURE END LIST*
D10*
G36*
X144078743Y-76217647D02*
G01*
X144107920Y-76246824D01*
X144152627Y-76336237D01*
X144152627Y-76479704D01*
X144107920Y-76569117D01*
X144070915Y-76606122D01*
X143981503Y-76650828D01*
X143595484Y-76650828D01*
X143595484Y-76165114D01*
X143921141Y-76165114D01*
X144078743Y-76217647D01*
G37*
G36*
X143999488Y-75495535D02*
G01*
X144036492Y-75532539D01*
X144081199Y-75621952D01*
X144081199Y-75693989D01*
X144036492Y-75783402D01*
X143999488Y-75820407D01*
X143910074Y-75865114D01*
X143595484Y-75865114D01*
X143595484Y-75450828D01*
X143910074Y-75450828D01*
X143999488Y-75495535D01*
G37*
G36*
X149650171Y-76217647D02*
G01*
X149679348Y-76246824D01*
X149724055Y-76336237D01*
X149724055Y-76479704D01*
X149679348Y-76569117D01*
X149642343Y-76606122D01*
X149552931Y-76650828D01*
X149166912Y-76650828D01*
X149166912Y-76165114D01*
X149492569Y-76165114D01*
X149650171Y-76217647D01*
G37*
G36*
X149570916Y-75495535D02*
G01*
X149607920Y-75532539D01*
X149652627Y-75621952D01*
X149652627Y-75693989D01*
X149607920Y-75783402D01*
X149570916Y-75820407D01*
X149481502Y-75865114D01*
X149166912Y-75865114D01*
X149166912Y-75450828D01*
X149481502Y-75450828D01*
X149570916Y-75495535D01*
G37*
G36*
X160435885Y-75503361D02*
G01*
X160536492Y-75603968D01*
X160589671Y-75710327D01*
X160652627Y-75962148D01*
X160652627Y-76139507D01*
X160589671Y-76391328D01*
X160536492Y-76497688D01*
X160435886Y-76598294D01*
X160278284Y-76650828D01*
X160095484Y-76650828D01*
X160095484Y-75450828D01*
X160278287Y-75450828D01*
X160435885Y-75503361D01*
G37*
G36*
X177856633Y-75495535D02*
G01*
X177893637Y-75532539D01*
X177938343Y-75621951D01*
X177938343Y-75765418D01*
X177893636Y-75854831D01*
X177856631Y-75891836D01*
X177767219Y-75936542D01*
X177381200Y-75936542D01*
X177381200Y-75450828D01*
X177767219Y-75450828D01*
X177856633Y-75495535D01*
G37*
G36*
X182428061Y-75495535D02*
G01*
X182524327Y-75591801D01*
X182581201Y-75819292D01*
X182581201Y-76282363D01*
X182524327Y-76509854D01*
X182428060Y-76606122D01*
X182338648Y-76650828D01*
X182123754Y-76650828D01*
X182034340Y-76606121D01*
X181938073Y-76509854D01*
X181881201Y-76282364D01*
X181881201Y-75819291D01*
X181938073Y-75591802D01*
X182034340Y-75495534D01*
X182123754Y-75450828D01*
X182338648Y-75450828D01*
X182428061Y-75495535D01*
G37*
G36*
X189142347Y-75495535D02*
G01*
X189238613Y-75591801D01*
X189295487Y-75819292D01*
X189295487Y-76282363D01*
X189238613Y-76509854D01*
X189142346Y-76606122D01*
X189052934Y-76650828D01*
X188838040Y-76650828D01*
X188748626Y-76606121D01*
X188652359Y-76509854D01*
X188595487Y-76282364D01*
X188595487Y-75819291D01*
X188652359Y-75591802D01*
X188748626Y-75495534D01*
X188838040Y-75450828D01*
X189052934Y-75450828D01*
X189142347Y-75495535D01*
G37*
G36*
X193428063Y-75495535D02*
G01*
X193465067Y-75532539D01*
X193509773Y-75621951D01*
X193509773Y-75765418D01*
X193465066Y-75854831D01*
X193428061Y-75891836D01*
X193338649Y-75936542D01*
X192952630Y-75936542D01*
X192952630Y-75450828D01*
X193338649Y-75450828D01*
X193428063Y-75495535D01*
G37*
G36*
X194928062Y-75495535D02*
G01*
X195024328Y-75591801D01*
X195081202Y-75819292D01*
X195081202Y-76282363D01*
X195024328Y-76509854D01*
X194928061Y-76606122D01*
X194838649Y-76650828D01*
X194623755Y-76650828D01*
X194534341Y-76606121D01*
X194438074Y-76509854D01*
X194381202Y-76282364D01*
X194381202Y-75819291D01*
X194438074Y-75591802D01*
X194534341Y-75495534D01*
X194623755Y-75450828D01*
X194838649Y-75450828D01*
X194928062Y-75495535D01*
G37*
G36*
X200285207Y-75495535D02*
G01*
X200322211Y-75532539D01*
X200366917Y-75621951D01*
X200366917Y-75765418D01*
X200322210Y-75854831D01*
X200285205Y-75891836D01*
X200195793Y-75936542D01*
X199809774Y-75936542D01*
X199809774Y-75450828D01*
X200195793Y-75450828D01*
X200285207Y-75495535D01*
G37*
G36*
X145380229Y-76222257D02*
G01*
X145082170Y-76222257D01*
X145231199Y-75775169D01*
X145380229Y-76222257D01*
G37*
G36*
X150951657Y-76222257D02*
G01*
X150653598Y-76222257D01*
X150802627Y-75775169D01*
X150951657Y-76222257D01*
G37*
G36*
X168523087Y-76222257D02*
G01*
X168225028Y-76222257D01*
X168374057Y-75775169D01*
X168523087Y-76222257D01*
G37*
G36*
X200881203Y-77165114D02*
G01*
X143081198Y-77165114D01*
X143081198Y-76800828D01*
X143295484Y-76800828D01*
X143315580Y-76875828D01*
X143370484Y-76930732D01*
X143445484Y-76950828D01*
X144016913Y-76950828D01*
X144050216Y-76941904D01*
X144083995Y-76934992D01*
X144226852Y-76863564D01*
X144244921Y-76847540D01*
X144265836Y-76835466D01*
X144270402Y-76830900D01*
X144584244Y-76830900D01*
X144618969Y-76900349D01*
X144683765Y-76943130D01*
X144761271Y-76947783D01*
X144830720Y-76913058D01*
X144873501Y-76848262D01*
X144982170Y-76522257D01*
X145480229Y-76522257D01*
X145588897Y-76848262D01*
X145631678Y-76913059D01*
X145701127Y-76947783D01*
X145778633Y-76943131D01*
X145843430Y-76900349D01*
X145878154Y-76830900D01*
X145873502Y-76753394D01*
X145532170Y-75729400D01*
X146009770Y-75729400D01*
X146018693Y-75762703D01*
X146025606Y-75796482D01*
X146097034Y-75939339D01*
X146113057Y-75957408D01*
X146125133Y-75978324D01*
X146196562Y-76049752D01*
X146217476Y-76061826D01*
X146235545Y-76077849D01*
X146378401Y-76149278D01*
X146394627Y-76152598D01*
X146409104Y-76160635D01*
X146678842Y-76228069D01*
X146785201Y-76281248D01*
X146822205Y-76318253D01*
X146866913Y-76407667D01*
X146866913Y-76479703D01*
X146822205Y-76569117D01*
X146785202Y-76606121D01*
X146695789Y-76650828D01*
X146398399Y-76650828D01*
X146207204Y-76587097D01*
X146129698Y-76582445D01*
X146060249Y-76617170D01*
X146017467Y-76681966D01*
X146012815Y-76759472D01*
X146047540Y-76828921D01*
X146112336Y-76871703D01*
X146326622Y-76943131D01*
X146350730Y-76944578D01*
X146374056Y-76950828D01*
X146731198Y-76950828D01*
X146764503Y-76941903D01*
X146798279Y-76934992D01*
X146941138Y-76863564D01*
X146959207Y-76847540D01*
X146980123Y-76835465D01*
X147014760Y-76800828D01*
X147509769Y-76800828D01*
X147529865Y-76875828D01*
X147584769Y-76930732D01*
X147659769Y-76950828D01*
X148374055Y-76950828D01*
X148449055Y-76930732D01*
X148503959Y-76875828D01*
X148524055Y-76800828D01*
X148866912Y-76800828D01*
X148887008Y-76875828D01*
X148941912Y-76930732D01*
X149016912Y-76950828D01*
X149588341Y-76950828D01*
X149621644Y-76941904D01*
X149655423Y-76934992D01*
X149798280Y-76863564D01*
X149816349Y-76847540D01*
X149837264Y-76835466D01*
X149841830Y-76830900D01*
X150155672Y-76830900D01*
X150190397Y-76900349D01*
X150255193Y-76943130D01*
X150332699Y-76947783D01*
X150402148Y-76913058D01*
X150444929Y-76848262D01*
X150553598Y-76522257D01*
X151051657Y-76522257D01*
X151160325Y-76848262D01*
X151203106Y-76913059D01*
X151272555Y-76947783D01*
X151350061Y-76943131D01*
X151414858Y-76900349D01*
X151449582Y-76830900D01*
X151447777Y-76800828D01*
X151652626Y-76800828D01*
X151672722Y-76875828D01*
X151727626Y-76930732D01*
X151802626Y-76950828D01*
X152516912Y-76950828D01*
X152591912Y-76930732D01*
X152646816Y-76875828D01*
X152666912Y-76800828D01*
X152866912Y-76800828D01*
X152887008Y-76875828D01*
X152941912Y-76930732D01*
X153016912Y-76950828D01*
X153731198Y-76950828D01*
X153806198Y-76930732D01*
X153861102Y-76875828D01*
X153881198Y-76800828D01*
X155224055Y-76800828D01*
X155244151Y-76875828D01*
X155299055Y-76930732D01*
X155374055Y-76950828D01*
X155449055Y-76930732D01*
X155503959Y-76875828D01*
X155524055Y-76800828D01*
X156509769Y-76800828D01*
X156529865Y-76875828D01*
X156584769Y-76930732D01*
X156659769Y-76950828D01*
X156734769Y-76930732D01*
X156789673Y-76875828D01*
X156809769Y-76800828D01*
X157224055Y-76800828D01*
X157244151Y-76875828D01*
X157299055Y-76930732D01*
X157374055Y-76950828D01*
X158088341Y-76950828D01*
X158163341Y-76930732D01*
X158218245Y-76875828D01*
X158238341Y-76800828D01*
X158581198Y-76800828D01*
X158601294Y-76875828D01*
X158656198Y-76930732D01*
X158731198Y-76950828D01*
X159445484Y-76950828D01*
X159520484Y-76930732D01*
X159575388Y-76875828D01*
X159595484Y-76800828D01*
X159795484Y-76800828D01*
X159815580Y-76875828D01*
X159870484Y-76930732D01*
X159945484Y-76950828D01*
X160302627Y-76950828D01*
X160325952Y-76944578D01*
X160350061Y-76943131D01*
X160564347Y-76871703D01*
X160593122Y-76852703D01*
X160622979Y-76835466D01*
X160657617Y-76800828D01*
X161295484Y-76800828D01*
X161315580Y-76875828D01*
X161370484Y-76930732D01*
X161445484Y-76950828D01*
X161520484Y-76930732D01*
X161575388Y-76875828D01*
X161595484Y-76800828D01*
X162009770Y-76800828D01*
X162029866Y-76875828D01*
X162084770Y-76930732D01*
X162159770Y-76950828D01*
X162234770Y-76930732D01*
X162289674Y-76875828D01*
X162309770Y-76800828D01*
X162309770Y-75865661D01*
X162886677Y-76875249D01*
X162886919Y-76875493D01*
X162887009Y-76875828D01*
X162914229Y-76903048D01*
X162941335Y-76930397D01*
X162941669Y-76930488D01*
X162941913Y-76930732D01*
X162979013Y-76940672D01*
X163016245Y-76950827D01*
X163016580Y-76950738D01*
X163016913Y-76950828D01*
X163054012Y-76940887D01*
X163091334Y-76931065D01*
X163091579Y-76930821D01*
X163091913Y-76930732D01*
X163119077Y-76903567D01*
X163146482Y-76876406D01*
X163146573Y-76876071D01*
X163146817Y-76875828D01*
X163156757Y-76838727D01*
X163166912Y-76801496D01*
X163166823Y-76801160D01*
X163166913Y-76800828D01*
X163166913Y-76157971D01*
X163509771Y-76157971D01*
X163514561Y-76175848D01*
X163514250Y-76194351D01*
X163585678Y-76480065D01*
X163593714Y-76494542D01*
X163597035Y-76510767D01*
X163668464Y-76653624D01*
X163684486Y-76671693D01*
X163696562Y-76692608D01*
X163839419Y-76835466D01*
X163869278Y-76852705D01*
X163898051Y-76871703D01*
X164112337Y-76943131D01*
X164136445Y-76944578D01*
X164159771Y-76950828D01*
X164302628Y-76950828D01*
X164325953Y-76944578D01*
X164350062Y-76943131D01*
X164564348Y-76871703D01*
X164593123Y-76852703D01*
X164622981Y-76835465D01*
X164657618Y-76800828D01*
X166224056Y-76800828D01*
X166244152Y-76875828D01*
X166299056Y-76930732D01*
X166374056Y-76950828D01*
X166449056Y-76930732D01*
X166503960Y-76875828D01*
X166524056Y-76800828D01*
X166524056Y-75976961D01*
X166738129Y-76435690D01*
X166746636Y-76445822D01*
X166751158Y-76458257D01*
X166771213Y-76475095D01*
X166788056Y-76495156D01*
X166800492Y-76499678D01*
X166810623Y-76508184D01*
X166836407Y-76512738D01*
X166861027Y-76521691D01*
X166874058Y-76519389D01*
X166887085Y-76521690D01*
X166911693Y-76512741D01*
X166937489Y-76508185D01*
X166947623Y-76499675D01*
X166960056Y-76495155D01*
X166976893Y-76475100D01*
X166996954Y-76458258D01*
X167001476Y-76445821D01*
X167009983Y-76435690D01*
X167224056Y-75976962D01*
X167224056Y-76800828D01*
X167244152Y-76875828D01*
X167299056Y-76930732D01*
X167374056Y-76950828D01*
X167449056Y-76930732D01*
X167503960Y-76875828D01*
X167515998Y-76830900D01*
X167727102Y-76830900D01*
X167761827Y-76900349D01*
X167826623Y-76943130D01*
X167904129Y-76947783D01*
X167973578Y-76913058D01*
X168016359Y-76848262D01*
X168125028Y-76522257D01*
X168623087Y-76522257D01*
X168731755Y-76848262D01*
X168774536Y-76913059D01*
X168843985Y-76947783D01*
X168921491Y-76943131D01*
X168986288Y-76900349D01*
X169021012Y-76830900D01*
X169016360Y-76753394D01*
X168817885Y-76157971D01*
X169152628Y-76157971D01*
X169157418Y-76175848D01*
X169157107Y-76194351D01*
X169228535Y-76480065D01*
X169236571Y-76494542D01*
X169239892Y-76510767D01*
X169311321Y-76653624D01*
X169327343Y-76671693D01*
X169339419Y-76692608D01*
X169482276Y-76835466D01*
X169512135Y-76852705D01*
X169540908Y-76871703D01*
X169755194Y-76943131D01*
X169779302Y-76944578D01*
X169802628Y-76950828D01*
X169945485Y-76950828D01*
X169968810Y-76944578D01*
X169992919Y-76943131D01*
X170207205Y-76871703D01*
X170235980Y-76852703D01*
X170265838Y-76835465D01*
X170300475Y-76800828D01*
X170724056Y-76800828D01*
X170744152Y-76875828D01*
X170799056Y-76930732D01*
X170874056Y-76950828D01*
X170949056Y-76930732D01*
X171003960Y-76875828D01*
X171024056Y-76800828D01*
X171024056Y-76165114D01*
X171581199Y-76165114D01*
X171581199Y-76800828D01*
X171601295Y-76875828D01*
X171656199Y-76930732D01*
X171731199Y-76950828D01*
X171806199Y-76930732D01*
X171861103Y-76875828D01*
X171881199Y-76800828D01*
X172295485Y-76800828D01*
X172315581Y-76875828D01*
X172370485Y-76930732D01*
X172445485Y-76950828D01*
X172520485Y-76930732D01*
X172575389Y-76875828D01*
X172595485Y-76800828D01*
X173009771Y-76800828D01*
X173029867Y-76875828D01*
X173084771Y-76930732D01*
X173159771Y-76950828D01*
X173234771Y-76930732D01*
X173289675Y-76875828D01*
X173309771Y-76800828D01*
X173309771Y-75865661D01*
X173886678Y-76875249D01*
X173886920Y-76875493D01*
X173887010Y-76875828D01*
X173914230Y-76903048D01*
X173941336Y-76930397D01*
X173941670Y-76930488D01*
X173941914Y-76930732D01*
X173979014Y-76940672D01*
X174016246Y-76950827D01*
X174016581Y-76950738D01*
X174016914Y-76950828D01*
X174054013Y-76940887D01*
X174091335Y-76931065D01*
X174091580Y-76930821D01*
X174091914Y-76930732D01*
X174119078Y-76903567D01*
X174146483Y-76876406D01*
X174146574Y-76876071D01*
X174146818Y-76875828D01*
X174156758Y-76838727D01*
X174166913Y-76801496D01*
X174166824Y-76801160D01*
X174166914Y-76800828D01*
X174581200Y-76800828D01*
X174601296Y-76875828D01*
X174656200Y-76930732D01*
X174731200Y-76950828D01*
X175445486Y-76950828D01*
X175520486Y-76930732D01*
X175575390Y-76875828D01*
X175595486Y-76800828D01*
X177081200Y-76800828D01*
X177101296Y-76875828D01*
X177156200Y-76930732D01*
X177231200Y-76950828D01*
X177306200Y-76930732D01*
X177361104Y-76875828D01*
X177381200Y-76800828D01*
X177381200Y-76236542D01*
X177510245Y-76236542D01*
X177965458Y-76886847D01*
X178024931Y-76936765D01*
X178101396Y-76950259D01*
X178174362Y-76923713D01*
X178224280Y-76864240D01*
X178235470Y-76800828D01*
X178581200Y-76800828D01*
X178601296Y-76875828D01*
X178656200Y-76930732D01*
X178731200Y-76950828D01*
X179445486Y-76950828D01*
X179520486Y-76930732D01*
X179575390Y-76875828D01*
X179595486Y-76800828D01*
X179938343Y-76800828D01*
X179958439Y-76875828D01*
X180013343Y-76930732D01*
X180088343Y-76950828D01*
X180163343Y-76930732D01*
X180218247Y-76875828D01*
X180238343Y-76800828D01*
X180238343Y-75976961D01*
X180452416Y-76435690D01*
X180460923Y-76445822D01*
X180465445Y-76458257D01*
X180485500Y-76475095D01*
X180502343Y-76495156D01*
X180514779Y-76499678D01*
X180524910Y-76508184D01*
X180550694Y-76512738D01*
X180575314Y-76521691D01*
X180588345Y-76519389D01*
X180601372Y-76521690D01*
X180625980Y-76512741D01*
X180651776Y-76508185D01*
X180661910Y-76499675D01*
X180674343Y-76495155D01*
X180691180Y-76475100D01*
X180711241Y-76458258D01*
X180715763Y-76445821D01*
X180724270Y-76435690D01*
X180938343Y-75976962D01*
X180938343Y-76800828D01*
X180958439Y-76875828D01*
X181013343Y-76930732D01*
X181088343Y-76950828D01*
X181163343Y-76930732D01*
X181218247Y-76875828D01*
X181238343Y-76800828D01*
X181238343Y-76300828D01*
X181581201Y-76300828D01*
X181585991Y-76318705D01*
X181585680Y-76337208D01*
X181657108Y-76622922D01*
X181657740Y-76624060D01*
X181657740Y-76625365D01*
X181676552Y-76657948D01*
X181694794Y-76690809D01*
X181695911Y-76691479D01*
X181696563Y-76692608D01*
X181839421Y-76835466D01*
X181860335Y-76847540D01*
X181878405Y-76863564D01*
X182021263Y-76934992D01*
X182055038Y-76941903D01*
X182088344Y-76950828D01*
X182374058Y-76950828D01*
X182407361Y-76941904D01*
X182441140Y-76934992D01*
X182583997Y-76863564D01*
X182602066Y-76847540D01*
X182622981Y-76835466D01*
X182765838Y-76692608D01*
X182766489Y-76691479D01*
X182767607Y-76690809D01*
X182785863Y-76657922D01*
X182804661Y-76625364D01*
X182804661Y-76624061D01*
X182805293Y-76622923D01*
X182876722Y-76337209D01*
X182876410Y-76318704D01*
X182881201Y-76300828D01*
X182881201Y-75800828D01*
X182876410Y-75782951D01*
X182876722Y-75764447D01*
X182805293Y-75478733D01*
X182804661Y-75477594D01*
X182804661Y-75476291D01*
X182785855Y-75443719D01*
X182767607Y-75410847D01*
X182766489Y-75410176D01*
X182765838Y-75409048D01*
X182657618Y-75300828D01*
X183009773Y-75300828D01*
X183029869Y-75375828D01*
X183084773Y-75430732D01*
X183159773Y-75450828D01*
X183438344Y-75450828D01*
X183438344Y-76800828D01*
X183458440Y-76875828D01*
X183513344Y-76930732D01*
X183588344Y-76950828D01*
X183663344Y-76930732D01*
X183718248Y-76875828D01*
X183738344Y-76800828D01*
X184366915Y-76800828D01*
X184387011Y-76875828D01*
X184441915Y-76930732D01*
X184516915Y-76950828D01*
X185231201Y-76950828D01*
X185306201Y-76930732D01*
X185361105Y-76875828D01*
X185381201Y-76800828D01*
X185361105Y-76725828D01*
X185306201Y-76670924D01*
X185231201Y-76650828D01*
X184666915Y-76650828D01*
X184666915Y-76165114D01*
X185016915Y-76165114D01*
X185043573Y-76157971D01*
X186795487Y-76157971D01*
X186800277Y-76175848D01*
X186799966Y-76194351D01*
X186871394Y-76480065D01*
X186879430Y-76494542D01*
X186882751Y-76510767D01*
X186954180Y-76653624D01*
X186970202Y-76671693D01*
X186982278Y-76692608D01*
X187125135Y-76835466D01*
X187154994Y-76852705D01*
X187183767Y-76871703D01*
X187398053Y-76943131D01*
X187422161Y-76944578D01*
X187445487Y-76950828D01*
X187588344Y-76950828D01*
X187611669Y-76944578D01*
X187635778Y-76943131D01*
X187850064Y-76871703D01*
X187878839Y-76852703D01*
X187908697Y-76835465D01*
X187980125Y-76764036D01*
X188018947Y-76696793D01*
X188018947Y-76619147D01*
X187980123Y-76551904D01*
X187912880Y-76513082D01*
X187835234Y-76513082D01*
X187767991Y-76551906D01*
X187721603Y-76598294D01*
X187564001Y-76650828D01*
X187469830Y-76650828D01*
X187312227Y-76598294D01*
X187211622Y-76497688D01*
X187158441Y-76391328D01*
X187135816Y-76300828D01*
X188295487Y-76300828D01*
X188300277Y-76318705D01*
X188299966Y-76337208D01*
X188371394Y-76622922D01*
X188372026Y-76624060D01*
X188372026Y-76625365D01*
X188390838Y-76657948D01*
X188409080Y-76690809D01*
X188410197Y-76691479D01*
X188410849Y-76692608D01*
X188553707Y-76835466D01*
X188574621Y-76847540D01*
X188592691Y-76863564D01*
X188735549Y-76934992D01*
X188769324Y-76941903D01*
X188802630Y-76950828D01*
X189088344Y-76950828D01*
X189121647Y-76941904D01*
X189155426Y-76934992D01*
X189298283Y-76863564D01*
X189316352Y-76847540D01*
X189337267Y-76835466D01*
X189371905Y-76800828D01*
X189938344Y-76800828D01*
X189958440Y-76875828D01*
X190013344Y-76930732D01*
X190088344Y-76950828D01*
X190163344Y-76930732D01*
X190218248Y-76875828D01*
X190238344Y-76800828D01*
X190238344Y-75865661D01*
X190815251Y-76875249D01*
X190815493Y-76875493D01*
X190815583Y-76875828D01*
X190842803Y-76903048D01*
X190869909Y-76930397D01*
X190870243Y-76930488D01*
X190870487Y-76930732D01*
X190907587Y-76940672D01*
X190944819Y-76950827D01*
X190945154Y-76950738D01*
X190945487Y-76950828D01*
X190982586Y-76940887D01*
X191019908Y-76931065D01*
X191020153Y-76930821D01*
X191020487Y-76930732D01*
X191047651Y-76903567D01*
X191075056Y-76876406D01*
X191075147Y-76876071D01*
X191075391Y-76875828D01*
X191085331Y-76838727D01*
X191095486Y-76801496D01*
X191095397Y-76801160D01*
X191095487Y-76800828D01*
X191095487Y-75300828D01*
X191295488Y-75300828D01*
X191315584Y-75375828D01*
X191370488Y-75430732D01*
X191445488Y-75450828D01*
X191724059Y-75450828D01*
X191724059Y-76800828D01*
X191744155Y-76875828D01*
X191799059Y-76930732D01*
X191874059Y-76950828D01*
X191949059Y-76930732D01*
X192003963Y-76875828D01*
X192024059Y-76800828D01*
X192652630Y-76800828D01*
X192672726Y-76875828D01*
X192727630Y-76930732D01*
X192802630Y-76950828D01*
X192877630Y-76930732D01*
X192932534Y-76875828D01*
X192952630Y-76800828D01*
X192952630Y-76236542D01*
X193081675Y-76236542D01*
X193536888Y-76886847D01*
X193596361Y-76936765D01*
X193672826Y-76950259D01*
X193745792Y-76923713D01*
X193795710Y-76864240D01*
X193809204Y-76787775D01*
X193782658Y-76714809D01*
X193492871Y-76300828D01*
X194081202Y-76300828D01*
X194085992Y-76318705D01*
X194085681Y-76337208D01*
X194157109Y-76622922D01*
X194157741Y-76624060D01*
X194157741Y-76625365D01*
X194176553Y-76657948D01*
X194194795Y-76690809D01*
X194195912Y-76691479D01*
X194196564Y-76692608D01*
X194339422Y-76835466D01*
X194360336Y-76847540D01*
X194378406Y-76863564D01*
X194521264Y-76934992D01*
X194555039Y-76941903D01*
X194588345Y-76950828D01*
X194874059Y-76950828D01*
X194907362Y-76941904D01*
X194941141Y-76934992D01*
X195083998Y-76863564D01*
X195102067Y-76847540D01*
X195122982Y-76835466D01*
X195157620Y-76800828D01*
X195724059Y-76800828D01*
X195744155Y-76875828D01*
X195799059Y-76930732D01*
X195874059Y-76950828D01*
X196588345Y-76950828D01*
X196663345Y-76930732D01*
X196718249Y-76875828D01*
X196738345Y-76800828D01*
X196938345Y-76800828D01*
X196958441Y-76875828D01*
X197013345Y-76930732D01*
X197088345Y-76950828D01*
X197802631Y-76950828D01*
X197877631Y-76930732D01*
X197932535Y-76875828D01*
X197952631Y-76800828D01*
X198152631Y-76800828D01*
X198172727Y-76875828D01*
X198227631Y-76930732D01*
X198302631Y-76950828D01*
X199016917Y-76950828D01*
X199091917Y-76930732D01*
X199146821Y-76875828D01*
X199166917Y-76800828D01*
X199509774Y-76800828D01*
X199529870Y-76875828D01*
X199584774Y-76930732D01*
X199659774Y-76950828D01*
X199734774Y-76930732D01*
X199789678Y-76875828D01*
X199809774Y-76800828D01*
X199809774Y-76236542D01*
X199938819Y-76236542D01*
X200394032Y-76886847D01*
X200453505Y-76936765D01*
X200529970Y-76950259D01*
X200602936Y-76923713D01*
X200652854Y-76864240D01*
X200666348Y-76787775D01*
X200639802Y-76714809D01*
X200294475Y-76221485D01*
X200298285Y-76220706D01*
X200441142Y-76149278D01*
X200459211Y-76133254D01*
X200480126Y-76121180D01*
X200551555Y-76049751D01*
X200563629Y-76028836D01*
X200579653Y-76010767D01*
X200651081Y-75867909D01*
X200657992Y-75834133D01*
X200666917Y-75800828D01*
X200666917Y-75586542D01*
X200657992Y-75553236D01*
X200651081Y-75519461D01*
X200579653Y-75376603D01*
X200563629Y-75358533D01*
X200551554Y-75337618D01*
X200480125Y-75266190D01*
X200459210Y-75254115D01*
X200441142Y-75238093D01*
X200298285Y-75166664D01*
X200264504Y-75159751D01*
X200231203Y-75150828D01*
X199659774Y-75150828D01*
X199584774Y-75170924D01*
X199529870Y-75225828D01*
X199509774Y-75300828D01*
X199509774Y-76800828D01*
X199166917Y-76800828D01*
X199146821Y-76725828D01*
X199091917Y-76670924D01*
X199016917Y-76650828D01*
X198452631Y-76650828D01*
X198452631Y-76165114D01*
X198802631Y-76165114D01*
X198877631Y-76145018D01*
X198932535Y-76090114D01*
X198952631Y-76015114D01*
X198932535Y-75940114D01*
X198877631Y-75885210D01*
X198802631Y-75865114D01*
X198452631Y-75865114D01*
X198452631Y-75450828D01*
X199016917Y-75450828D01*
X199091917Y-75430732D01*
X199146821Y-75375828D01*
X199166917Y-75300828D01*
X199146821Y-75225828D01*
X199091917Y-75170924D01*
X199016917Y-75150828D01*
X198302631Y-75150828D01*
X198227631Y-75170924D01*
X198172727Y-75225828D01*
X198152631Y-75300828D01*
X198152631Y-76800828D01*
X197952631Y-76800828D01*
X197932535Y-76725828D01*
X197877631Y-76670924D01*
X197802631Y-76650828D01*
X197238345Y-76650828D01*
X197238345Y-75300828D01*
X197218249Y-75225828D01*
X197163345Y-75170924D01*
X197088345Y-75150828D01*
X197013345Y-75170924D01*
X196958441Y-75225828D01*
X196938345Y-75300828D01*
X196938345Y-76800828D01*
X196738345Y-76800828D01*
X196718249Y-76725828D01*
X196663345Y-76670924D01*
X196588345Y-76650828D01*
X196024059Y-76650828D01*
X196024059Y-75300828D01*
X196003963Y-75225828D01*
X195949059Y-75170924D01*
X195874059Y-75150828D01*
X195799059Y-75170924D01*
X195744155Y-75225828D01*
X195724059Y-75300828D01*
X195724059Y-76800828D01*
X195157620Y-76800828D01*
X195265839Y-76692608D01*
X195266490Y-76691479D01*
X195267608Y-76690809D01*
X195285864Y-76657922D01*
X195304662Y-76625364D01*
X195304662Y-76624061D01*
X195305294Y-76622923D01*
X195376723Y-76337209D01*
X195376411Y-76318704D01*
X195381202Y-76300828D01*
X195381202Y-75800828D01*
X195376411Y-75782951D01*
X195376723Y-75764447D01*
X195305294Y-75478733D01*
X195304662Y-75477594D01*
X195304662Y-75476291D01*
X195285856Y-75443719D01*
X195267608Y-75410847D01*
X195266490Y-75410176D01*
X195265839Y-75409048D01*
X195122982Y-75266191D01*
X195102066Y-75254115D01*
X195083998Y-75238093D01*
X194941141Y-75166664D01*
X194907360Y-75159751D01*
X194874059Y-75150828D01*
X194588345Y-75150828D01*
X194555044Y-75159750D01*
X194521262Y-75166664D01*
X194378406Y-75238093D01*
X194360336Y-75254115D01*
X194339422Y-75266191D01*
X194196564Y-75409048D01*
X194195912Y-75410176D01*
X194194795Y-75410847D01*
X194176553Y-75443707D01*
X194157741Y-75476291D01*
X194157741Y-75477595D01*
X194157109Y-75478734D01*
X194085681Y-75764448D01*
X194085992Y-75782950D01*
X194081202Y-75800828D01*
X194081202Y-76300828D01*
X193492871Y-76300828D01*
X193437331Y-76221485D01*
X193441141Y-76220706D01*
X193583998Y-76149278D01*
X193602067Y-76133254D01*
X193622982Y-76121180D01*
X193694411Y-76049751D01*
X193706485Y-76028836D01*
X193722509Y-76010767D01*
X193793937Y-75867909D01*
X193800848Y-75834133D01*
X193809773Y-75800828D01*
X193809773Y-75586542D01*
X193800848Y-75553236D01*
X193793937Y-75519461D01*
X193722509Y-75376603D01*
X193706485Y-75358533D01*
X193694410Y-75337618D01*
X193622981Y-75266190D01*
X193602066Y-75254115D01*
X193583998Y-75238093D01*
X193441141Y-75166664D01*
X193407360Y-75159751D01*
X193374059Y-75150828D01*
X192802630Y-75150828D01*
X192727630Y-75170924D01*
X192672726Y-75225828D01*
X192652630Y-75300828D01*
X192652630Y-76800828D01*
X192024059Y-76800828D01*
X192024059Y-75450828D01*
X192302631Y-75450828D01*
X192377631Y-75430732D01*
X192432535Y-75375828D01*
X192452631Y-75300828D01*
X192432535Y-75225828D01*
X192377631Y-75170924D01*
X192302631Y-75150828D01*
X191445488Y-75150828D01*
X191370488Y-75170924D01*
X191315584Y-75225828D01*
X191295488Y-75300828D01*
X191095487Y-75300828D01*
X191075391Y-75225828D01*
X191020487Y-75170924D01*
X190945487Y-75150828D01*
X190870487Y-75170924D01*
X190815583Y-75225828D01*
X190795487Y-75300828D01*
X190795487Y-76235992D01*
X190218580Y-75226407D01*
X190218337Y-75226162D01*
X190218248Y-75225828D01*
X190191027Y-75198607D01*
X190163922Y-75171259D01*
X190163587Y-75171167D01*
X190163344Y-75170924D01*
X190126243Y-75160983D01*
X190089012Y-75150829D01*
X190088676Y-75150917D01*
X190088344Y-75150828D01*
X190051138Y-75160797D01*
X190013923Y-75170592D01*
X190013678Y-75170834D01*
X190013344Y-75170924D01*
X189986123Y-75198144D01*
X189958775Y-75225250D01*
X189958683Y-75225584D01*
X189958440Y-75225828D01*
X189948499Y-75262928D01*
X189938345Y-75300160D01*
X189938433Y-75300495D01*
X189938344Y-75300828D01*
X189938344Y-76800828D01*
X189371905Y-76800828D01*
X189480124Y-76692608D01*
X189480775Y-76691479D01*
X189481893Y-76690809D01*
X189500149Y-76657922D01*
X189518947Y-76625364D01*
X189518947Y-76624061D01*
X189519579Y-76622923D01*
X189591008Y-76337209D01*
X189590696Y-76318704D01*
X189595487Y-76300828D01*
X189595487Y-75800828D01*
X189590696Y-75782951D01*
X189591008Y-75764447D01*
X189519579Y-75478733D01*
X189518947Y-75477594D01*
X189518947Y-75476291D01*
X189500141Y-75443719D01*
X189481893Y-75410847D01*
X189480775Y-75410176D01*
X189480124Y-75409048D01*
X189337267Y-75266191D01*
X189316351Y-75254115D01*
X189298283Y-75238093D01*
X189155426Y-75166664D01*
X189121645Y-75159751D01*
X189088344Y-75150828D01*
X188802630Y-75150828D01*
X188769329Y-75159750D01*
X188735547Y-75166664D01*
X188592691Y-75238093D01*
X188574621Y-75254115D01*
X188553707Y-75266191D01*
X188410849Y-75409048D01*
X188410197Y-75410176D01*
X188409080Y-75410847D01*
X188390838Y-75443707D01*
X188372026Y-75476291D01*
X188372026Y-75477595D01*
X188371394Y-75478734D01*
X188299966Y-75764448D01*
X188300277Y-75782950D01*
X188295487Y-75800828D01*
X188295487Y-76300828D01*
X187135816Y-76300828D01*
X187095487Y-76139507D01*
X187095487Y-75962148D01*
X187158441Y-75710327D01*
X187211622Y-75603967D01*
X187312228Y-75503361D01*
X187469830Y-75450828D01*
X187564004Y-75450828D01*
X187721602Y-75503361D01*
X187767992Y-75549751D01*
X187835235Y-75588574D01*
X187912881Y-75588574D01*
X187980124Y-75549751D01*
X188018947Y-75482508D01*
X188018947Y-75404862D01*
X187980124Y-75337619D01*
X187908696Y-75266191D01*
X187878839Y-75248953D01*
X187850064Y-75229954D01*
X187635778Y-75158526D01*
X187611672Y-75157078D01*
X187588344Y-75150828D01*
X187445487Y-75150828D01*
X187422158Y-75157078D01*
X187398052Y-75158526D01*
X187183767Y-75229955D01*
X187154994Y-75248951D01*
X187125135Y-75266191D01*
X186982278Y-75409048D01*
X186970202Y-75429963D01*
X186954180Y-75448032D01*
X186882751Y-75590889D01*
X186879430Y-75607113D01*
X186871394Y-75621591D01*
X186799966Y-75907305D01*
X186800277Y-75925807D01*
X186795487Y-75943685D01*
X186795487Y-76157971D01*
X185043573Y-76157971D01*
X185091915Y-76145018D01*
X185146819Y-76090114D01*
X185166915Y-76015114D01*
X185146819Y-75940114D01*
X185091915Y-75885210D01*
X185016915Y-75865114D01*
X184666915Y-75865114D01*
X184666915Y-75450828D01*
X185231201Y-75450828D01*
X185306201Y-75430732D01*
X185361105Y-75375828D01*
X185381201Y-75300828D01*
X185361105Y-75225828D01*
X185306201Y-75170924D01*
X185231201Y-75150828D01*
X184516915Y-75150828D01*
X184441915Y-75170924D01*
X184387011Y-75225828D01*
X184366915Y-75300828D01*
X184366915Y-76800828D01*
X183738344Y-76800828D01*
X183738344Y-75450828D01*
X184016916Y-75450828D01*
X184091916Y-75430732D01*
X184146820Y-75375828D01*
X184166916Y-75300828D01*
X184146820Y-75225828D01*
X184091916Y-75170924D01*
X184016916Y-75150828D01*
X183159773Y-75150828D01*
X183084773Y-75170924D01*
X183029869Y-75225828D01*
X183009773Y-75300828D01*
X182657618Y-75300828D01*
X182622981Y-75266191D01*
X182602065Y-75254115D01*
X182583997Y-75238093D01*
X182441140Y-75166664D01*
X182407359Y-75159751D01*
X182374058Y-75150828D01*
X182088344Y-75150828D01*
X182055043Y-75159750D01*
X182021261Y-75166664D01*
X181878405Y-75238093D01*
X181860335Y-75254115D01*
X181839421Y-75266191D01*
X181696563Y-75409048D01*
X181695911Y-75410176D01*
X181694794Y-75410847D01*
X181676552Y-75443707D01*
X181657740Y-75476291D01*
X181657740Y-75477595D01*
X181657108Y-75478734D01*
X181585680Y-75764448D01*
X181585991Y-75782950D01*
X181581201Y-75800828D01*
X181581201Y-76300828D01*
X181238343Y-76300828D01*
X181238343Y-75300828D01*
X181236614Y-75294375D01*
X181237776Y-75287798D01*
X181226663Y-75257237D01*
X181218247Y-75225828D01*
X181213523Y-75221104D01*
X181211241Y-75214827D01*
X181186334Y-75193915D01*
X181163343Y-75170924D01*
X181156892Y-75169195D01*
X181151776Y-75164900D01*
X181119745Y-75159242D01*
X181088343Y-75150828D01*
X181081893Y-75152556D01*
X181075314Y-75151394D01*
X181044746Y-75162509D01*
X181013343Y-75170924D01*
X181008620Y-75175646D01*
X181002343Y-75177929D01*
X180981433Y-75202833D01*
X180958439Y-75225828D01*
X180956710Y-75232280D01*
X180952416Y-75237395D01*
X180588343Y-76017551D01*
X180224270Y-75237395D01*
X180219975Y-75232280D01*
X180218247Y-75225828D01*
X180195249Y-75202830D01*
X180174343Y-75177930D01*
X180168066Y-75175647D01*
X180163343Y-75170924D01*
X180131929Y-75162506D01*
X180101372Y-75151395D01*
X180094794Y-75152556D01*
X180088343Y-75150828D01*
X180056929Y-75159245D01*
X180024910Y-75164901D01*
X180019795Y-75169195D01*
X180013343Y-75170924D01*
X179990345Y-75193921D01*
X179965445Y-75214828D01*
X179963162Y-75221104D01*
X179958439Y-75225828D01*
X179950021Y-75257241D01*
X179938910Y-75287799D01*
X179940071Y-75294376D01*
X179938343Y-75300828D01*
X179938343Y-76800828D01*
X179595486Y-76800828D01*
X179575390Y-76725828D01*
X179520486Y-76670924D01*
X179445486Y-76650828D01*
X178881200Y-76650828D01*
X178881200Y-76165114D01*
X179231200Y-76165114D01*
X179306200Y-76145018D01*
X179361104Y-76090114D01*
X179381200Y-76015114D01*
X179361104Y-75940114D01*
X179306200Y-75885210D01*
X179231200Y-75865114D01*
X178881200Y-75865114D01*
X178881200Y-75450828D01*
X179445486Y-75450828D01*
X179520486Y-75430732D01*
X179575390Y-75375828D01*
X179595486Y-75300828D01*
X179575390Y-75225828D01*
X179520486Y-75170924D01*
X179445486Y-75150828D01*
X178731200Y-75150828D01*
X178656200Y-75170924D01*
X178601296Y-75225828D01*
X178581200Y-75300828D01*
X178581200Y-76800828D01*
X178235470Y-76800828D01*
X178237774Y-76787775D01*
X178211228Y-76714809D01*
X177865901Y-76221485D01*
X177869711Y-76220706D01*
X178012568Y-76149278D01*
X178030637Y-76133254D01*
X178051552Y-76121180D01*
X178122981Y-76049751D01*
X178135055Y-76028836D01*
X178151079Y-76010767D01*
X178222507Y-75867909D01*
X178229418Y-75834133D01*
X178238343Y-75800828D01*
X178238343Y-75586542D01*
X178229418Y-75553236D01*
X178222507Y-75519461D01*
X178151079Y-75376603D01*
X178135055Y-75358533D01*
X178122980Y-75337618D01*
X178051551Y-75266190D01*
X178030636Y-75254115D01*
X178012568Y-75238093D01*
X177869711Y-75166664D01*
X177835930Y-75159751D01*
X177802629Y-75150828D01*
X177231200Y-75150828D01*
X177156200Y-75170924D01*
X177101296Y-75225828D01*
X177081200Y-75300828D01*
X177081200Y-76800828D01*
X175595486Y-76800828D01*
X175575390Y-76725828D01*
X175520486Y-76670924D01*
X175445486Y-76650828D01*
X174881200Y-76650828D01*
X174881200Y-76165114D01*
X175231200Y-76165114D01*
X175306200Y-76145018D01*
X175361104Y-76090114D01*
X175381200Y-76015114D01*
X175361104Y-75940114D01*
X175306200Y-75885210D01*
X175231200Y-75865114D01*
X174881200Y-75865114D01*
X174881200Y-75450828D01*
X175445486Y-75450828D01*
X175520486Y-75430732D01*
X175575390Y-75375828D01*
X175595486Y-75300828D01*
X175575390Y-75225828D01*
X175520486Y-75170924D01*
X175445486Y-75150828D01*
X174731200Y-75150828D01*
X174656200Y-75170924D01*
X174601296Y-75225828D01*
X174581200Y-75300828D01*
X174581200Y-76800828D01*
X174166914Y-76800828D01*
X174166914Y-75300828D01*
X174146818Y-75225828D01*
X174091914Y-75170924D01*
X174016914Y-75150828D01*
X173941914Y-75170924D01*
X173887010Y-75225828D01*
X173866914Y-75300828D01*
X173866914Y-76235992D01*
X173290007Y-75226407D01*
X173289764Y-75226162D01*
X173289675Y-75225828D01*
X173262454Y-75198607D01*
X173235349Y-75171259D01*
X173235014Y-75171167D01*
X173234771Y-75170924D01*
X173197670Y-75160983D01*
X173160439Y-75150829D01*
X173160103Y-75150917D01*
X173159771Y-75150828D01*
X173122565Y-75160797D01*
X173085350Y-75170592D01*
X173085105Y-75170834D01*
X173084771Y-75170924D01*
X173057550Y-75198144D01*
X173030202Y-75225250D01*
X173030110Y-75225584D01*
X173029867Y-75225828D01*
X173019926Y-75262928D01*
X173009772Y-75300160D01*
X173009860Y-75300495D01*
X173009771Y-75300828D01*
X173009771Y-76800828D01*
X172595485Y-76800828D01*
X172595485Y-75300828D01*
X172575389Y-75225828D01*
X172520485Y-75170924D01*
X172445485Y-75150828D01*
X172370485Y-75170924D01*
X172315581Y-75225828D01*
X172295485Y-75300828D01*
X172295485Y-76800828D01*
X171881199Y-76800828D01*
X171881199Y-75300828D01*
X171861103Y-75225828D01*
X171806199Y-75170924D01*
X171731199Y-75150828D01*
X171656199Y-75170924D01*
X171601295Y-75225828D01*
X171581199Y-75300828D01*
X171581199Y-75865114D01*
X171024056Y-75865114D01*
X171024056Y-75300828D01*
X171003960Y-75225828D01*
X170949056Y-75170924D01*
X170874056Y-75150828D01*
X170799056Y-75170924D01*
X170744152Y-75225828D01*
X170724056Y-75300828D01*
X170724056Y-76800828D01*
X170300475Y-76800828D01*
X170337266Y-76764036D01*
X170376088Y-76696793D01*
X170376088Y-76619147D01*
X170337264Y-76551904D01*
X170270021Y-76513082D01*
X170192375Y-76513082D01*
X170125132Y-76551906D01*
X170078744Y-76598294D01*
X169921142Y-76650828D01*
X169826971Y-76650828D01*
X169669368Y-76598294D01*
X169568763Y-76497688D01*
X169515582Y-76391328D01*
X169452628Y-76139507D01*
X169452628Y-75962148D01*
X169515582Y-75710327D01*
X169568763Y-75603967D01*
X169669369Y-75503361D01*
X169826971Y-75450828D01*
X169921145Y-75450828D01*
X170078743Y-75503361D01*
X170125133Y-75549751D01*
X170192376Y-75588574D01*
X170270022Y-75588574D01*
X170337265Y-75549751D01*
X170376088Y-75482508D01*
X170376088Y-75404862D01*
X170337265Y-75337619D01*
X170265837Y-75266191D01*
X170235980Y-75248953D01*
X170207205Y-75229954D01*
X169992919Y-75158526D01*
X169968813Y-75157078D01*
X169945485Y-75150828D01*
X169802628Y-75150828D01*
X169779299Y-75157078D01*
X169755193Y-75158526D01*
X169540908Y-75229955D01*
X169512135Y-75248951D01*
X169482276Y-75266191D01*
X169339419Y-75409048D01*
X169327343Y-75429963D01*
X169311321Y-75448032D01*
X169239892Y-75590889D01*
X169236571Y-75607113D01*
X169228535Y-75621591D01*
X169157107Y-75907305D01*
X169157418Y-75925807D01*
X169152628Y-75943685D01*
X169152628Y-76157971D01*
X168817885Y-76157971D01*
X168516359Y-75253394D01*
X168499763Y-75228258D01*
X168486288Y-75201307D01*
X168478631Y-75196251D01*
X168473578Y-75188598D01*
X168446635Y-75175126D01*
X168421491Y-75158525D01*
X168412333Y-75157975D01*
X168404129Y-75153873D01*
X168374060Y-75155678D01*
X168343985Y-75153873D01*
X168335778Y-75157976D01*
X168326623Y-75158526D01*
X168301487Y-75175121D01*
X168274536Y-75188597D01*
X168269480Y-75196253D01*
X168261827Y-75201307D01*
X168248353Y-75228253D01*
X168231755Y-75253394D01*
X167731755Y-76753394D01*
X167727102Y-76830900D01*
X167515998Y-76830900D01*
X167524056Y-76800828D01*
X167524056Y-75300828D01*
X167522327Y-75294375D01*
X167523489Y-75287798D01*
X167512376Y-75257237D01*
X167503960Y-75225828D01*
X167499236Y-75221104D01*
X167496954Y-75214827D01*
X167472047Y-75193915D01*
X167449056Y-75170924D01*
X167442605Y-75169195D01*
X167437489Y-75164900D01*
X167405458Y-75159242D01*
X167374056Y-75150828D01*
X167367606Y-75152556D01*
X167361027Y-75151394D01*
X167330459Y-75162509D01*
X167299056Y-75170924D01*
X167294333Y-75175646D01*
X167288056Y-75177929D01*
X167267146Y-75202833D01*
X167244152Y-75225828D01*
X167242423Y-75232280D01*
X167238129Y-75237395D01*
X166874056Y-76017551D01*
X166509983Y-75237395D01*
X166505688Y-75232280D01*
X166503960Y-75225828D01*
X166480962Y-75202830D01*
X166460056Y-75177930D01*
X166453779Y-75175647D01*
X166449056Y-75170924D01*
X166417642Y-75162506D01*
X166387085Y-75151395D01*
X166380507Y-75152556D01*
X166374056Y-75150828D01*
X166342642Y-75159245D01*
X166310623Y-75164901D01*
X166305508Y-75169195D01*
X166299056Y-75170924D01*
X166276058Y-75193921D01*
X166251158Y-75214828D01*
X166248875Y-75221104D01*
X166244152Y-75225828D01*
X166235734Y-75257241D01*
X166224623Y-75287799D01*
X166225784Y-75294376D01*
X166224056Y-75300828D01*
X166224056Y-76800828D01*
X164657618Y-76800828D01*
X164694409Y-76764036D01*
X164704282Y-76746934D01*
X164718246Y-76732971D01*
X164723357Y-76713894D01*
X164733231Y-76696793D01*
X164733231Y-76677045D01*
X164738342Y-76657971D01*
X164738342Y-76157971D01*
X164718246Y-76082971D01*
X164663342Y-76028067D01*
X164588342Y-76007971D01*
X164302628Y-76007971D01*
X164227628Y-76028067D01*
X164172724Y-76082971D01*
X164152628Y-76157971D01*
X164172724Y-76232971D01*
X164227628Y-76287875D01*
X164302628Y-76307971D01*
X164438342Y-76307971D01*
X164438342Y-76595839D01*
X164435887Y-76598294D01*
X164278285Y-76650828D01*
X164184114Y-76650828D01*
X164026511Y-76598294D01*
X163925906Y-76497688D01*
X163872725Y-76391328D01*
X163809771Y-76139507D01*
X163809771Y-75962148D01*
X163872725Y-75710327D01*
X163925906Y-75603967D01*
X164026512Y-75503361D01*
X164184114Y-75450828D01*
X164338647Y-75450828D01*
X164449831Y-75506421D01*
X164525901Y-75521988D01*
X164599562Y-75497434D01*
X164651078Y-75439339D01*
X164666645Y-75363270D01*
X164642091Y-75289609D01*
X164583996Y-75238093D01*
X164441139Y-75166664D01*
X164407358Y-75159751D01*
X164374057Y-75150828D01*
X164159771Y-75150828D01*
X164136442Y-75157078D01*
X164112336Y-75158526D01*
X163898051Y-75229955D01*
X163869278Y-75248951D01*
X163839419Y-75266191D01*
X163696562Y-75409048D01*
X163684486Y-75429963D01*
X163668464Y-75448032D01*
X163597035Y-75590889D01*
X163593714Y-75607113D01*
X163585678Y-75621591D01*
X163514250Y-75907305D01*
X163514561Y-75925807D01*
X163509771Y-75943685D01*
X163509771Y-76157971D01*
X163166913Y-76157971D01*
X163166913Y-75300828D01*
X163146817Y-75225828D01*
X163091913Y-75170924D01*
X163016913Y-75150828D01*
X162941913Y-75170924D01*
X162887009Y-75225828D01*
X162866913Y-75300828D01*
X162866913Y-76235992D01*
X162290006Y-75226407D01*
X162289763Y-75226162D01*
X162289674Y-75225828D01*
X162262453Y-75198607D01*
X162235348Y-75171259D01*
X162235013Y-75171167D01*
X162234770Y-75170924D01*
X162197669Y-75160983D01*
X162160438Y-75150829D01*
X162160102Y-75150917D01*
X162159770Y-75150828D01*
X162122564Y-75160797D01*
X162085349Y-75170592D01*
X162085104Y-75170834D01*
X162084770Y-75170924D01*
X162057549Y-75198144D01*
X162030201Y-75225250D01*
X162030109Y-75225584D01*
X162029866Y-75225828D01*
X162019925Y-75262928D01*
X162009771Y-75300160D01*
X162009859Y-75300495D01*
X162009770Y-75300828D01*
X162009770Y-76800828D01*
X161595484Y-76800828D01*
X161595484Y-75300828D01*
X161575388Y-75225828D01*
X161520484Y-75170924D01*
X161445484Y-75150828D01*
X161370484Y-75170924D01*
X161315580Y-75225828D01*
X161295484Y-75300828D01*
X161295484Y-76800828D01*
X160657617Y-76800828D01*
X160765836Y-76692608D01*
X160777911Y-76671693D01*
X160793934Y-76653624D01*
X160865363Y-76510768D01*
X160868683Y-76494541D01*
X160876720Y-76480065D01*
X160948148Y-76194351D01*
X160947836Y-76175848D01*
X160952627Y-76157971D01*
X160952627Y-75943685D01*
X160947836Y-75925807D01*
X160948148Y-75907305D01*
X160876720Y-75621591D01*
X160868683Y-75607114D01*
X160865363Y-75590888D01*
X160793934Y-75448032D01*
X160777911Y-75429963D01*
X160765836Y-75409048D01*
X160622979Y-75266191D01*
X160593122Y-75248953D01*
X160564347Y-75229954D01*
X160350061Y-75158526D01*
X160325955Y-75157078D01*
X160302627Y-75150828D01*
X159945484Y-75150828D01*
X159870484Y-75170924D01*
X159815580Y-75225828D01*
X159795484Y-75300828D01*
X159795484Y-76800828D01*
X159595484Y-76800828D01*
X159575388Y-76725828D01*
X159520484Y-76670924D01*
X159445484Y-76650828D01*
X158881198Y-76650828D01*
X158881198Y-75300828D01*
X158861102Y-75225828D01*
X158806198Y-75170924D01*
X158731198Y-75150828D01*
X158656198Y-75170924D01*
X158601294Y-75225828D01*
X158581198Y-75300828D01*
X158581198Y-76800828D01*
X158238341Y-76800828D01*
X158218245Y-76725828D01*
X158163341Y-76670924D01*
X158088341Y-76650828D01*
X157524055Y-76650828D01*
X157524055Y-76165114D01*
X157874055Y-76165114D01*
X157949055Y-76145018D01*
X158003959Y-76090114D01*
X158024055Y-76015114D01*
X158003959Y-75940114D01*
X157949055Y-75885210D01*
X157874055Y-75865114D01*
X157524055Y-75865114D01*
X157524055Y-75450828D01*
X158088341Y-75450828D01*
X158163341Y-75430732D01*
X158218245Y-75375828D01*
X158238341Y-75300828D01*
X158218245Y-75225828D01*
X158163341Y-75170924D01*
X158088341Y-75150828D01*
X157374055Y-75150828D01*
X157299055Y-75170924D01*
X157244151Y-75225828D01*
X157224055Y-75300828D01*
X157224055Y-76800828D01*
X156809769Y-76800828D01*
X156809769Y-75300828D01*
X156789673Y-75225828D01*
X156734769Y-75170924D01*
X156659769Y-75150828D01*
X156584769Y-75170924D01*
X156529865Y-75225828D01*
X156509769Y-75300828D01*
X156509769Y-76800828D01*
X155524055Y-76800828D01*
X155524055Y-76165114D01*
X155874055Y-76165114D01*
X155949055Y-76145018D01*
X156003959Y-76090114D01*
X156024055Y-76015114D01*
X156003959Y-75940114D01*
X155949055Y-75885210D01*
X155874055Y-75865114D01*
X155524055Y-75865114D01*
X155524055Y-75450828D01*
X156088341Y-75450828D01*
X156163341Y-75430732D01*
X156218245Y-75375828D01*
X156238341Y-75300828D01*
X156218245Y-75225828D01*
X156163341Y-75170924D01*
X156088341Y-75150828D01*
X155374055Y-75150828D01*
X155299055Y-75170924D01*
X155244151Y-75225828D01*
X155224055Y-75300828D01*
X155224055Y-76800828D01*
X153881198Y-76800828D01*
X153861102Y-76725828D01*
X153806198Y-76670924D01*
X153731198Y-76650828D01*
X153166912Y-76650828D01*
X153166912Y-75300828D01*
X153146816Y-75225828D01*
X153091912Y-75170924D01*
X153016912Y-75150828D01*
X152941912Y-75170924D01*
X152887008Y-75225828D01*
X152866912Y-75300828D01*
X152866912Y-76800828D01*
X152666912Y-76800828D01*
X152646816Y-76725828D01*
X152591912Y-76670924D01*
X152516912Y-76650828D01*
X151952626Y-76650828D01*
X151952626Y-75300828D01*
X151932530Y-75225828D01*
X151877626Y-75170924D01*
X151802626Y-75150828D01*
X151727626Y-75170924D01*
X151672722Y-75225828D01*
X151652626Y-75300828D01*
X151652626Y-76800828D01*
X151447777Y-76800828D01*
X151444930Y-76753394D01*
X150944929Y-75253394D01*
X150928333Y-75228258D01*
X150914858Y-75201307D01*
X150907201Y-75196251D01*
X150902148Y-75188598D01*
X150875205Y-75175126D01*
X150850061Y-75158525D01*
X150840903Y-75157975D01*
X150832699Y-75153873D01*
X150802630Y-75155678D01*
X150772555Y-75153873D01*
X150764348Y-75157976D01*
X150755193Y-75158526D01*
X150730057Y-75175121D01*
X150703106Y-75188597D01*
X150698050Y-75196253D01*
X150690397Y-75201307D01*
X150676923Y-75228253D01*
X150660325Y-75253394D01*
X150160325Y-76753394D01*
X150155672Y-76830900D01*
X149841830Y-76830900D01*
X149908693Y-76764037D01*
X149920767Y-76743122D01*
X149936791Y-76725053D01*
X150008219Y-76582195D01*
X150015130Y-76548419D01*
X150024055Y-76515114D01*
X150024055Y-76300828D01*
X150015130Y-76267522D01*
X150008219Y-76233747D01*
X149936791Y-76090889D01*
X149920767Y-76072819D01*
X149908693Y-76051905D01*
X149837264Y-75980476D01*
X149835899Y-75979687D01*
X149837264Y-75978323D01*
X149849339Y-75957407D01*
X149865362Y-75939339D01*
X149936791Y-75796483D01*
X149943704Y-75762700D01*
X149952627Y-75729400D01*
X149952627Y-75586542D01*
X149943704Y-75553241D01*
X149936791Y-75519459D01*
X149865362Y-75376603D01*
X149849339Y-75358534D01*
X149837264Y-75337619D01*
X149765836Y-75266191D01*
X149744921Y-75254116D01*
X149726852Y-75238093D01*
X149583994Y-75166664D01*
X149550213Y-75159751D01*
X149516912Y-75150828D01*
X149016912Y-75150828D01*
X148941912Y-75170924D01*
X148887008Y-75225828D01*
X148866912Y-75300828D01*
X148866912Y-76800828D01*
X148524055Y-76800828D01*
X148503959Y-76725828D01*
X148449055Y-76670924D01*
X148374055Y-76650828D01*
X147809769Y-76650828D01*
X147809769Y-76165114D01*
X148159769Y-76165114D01*
X148234769Y-76145018D01*
X148289673Y-76090114D01*
X148309769Y-76015114D01*
X148289673Y-75940114D01*
X148234769Y-75885210D01*
X148159769Y-75865114D01*
X147809769Y-75865114D01*
X147809769Y-75450828D01*
X148374055Y-75450828D01*
X148449055Y-75430732D01*
X148503959Y-75375828D01*
X148524055Y-75300828D01*
X148503959Y-75225828D01*
X148449055Y-75170924D01*
X148374055Y-75150828D01*
X147659769Y-75150828D01*
X147584769Y-75170924D01*
X147529865Y-75225828D01*
X147509769Y-75300828D01*
X147509769Y-76800828D01*
X147014760Y-76800828D01*
X147051551Y-76764036D01*
X147063625Y-76743121D01*
X147079648Y-76725053D01*
X147151077Y-76582197D01*
X147157990Y-76548414D01*
X147166913Y-76515114D01*
X147166913Y-76372257D01*
X147157990Y-76338956D01*
X147151077Y-76305174D01*
X147079648Y-76162318D01*
X147063625Y-76144249D01*
X147051551Y-76123335D01*
X146980123Y-76051906D01*
X146959207Y-76039830D01*
X146941138Y-76023807D01*
X146798280Y-75952378D01*
X146782055Y-75949057D01*
X146767578Y-75941021D01*
X146497840Y-75873586D01*
X146391480Y-75820406D01*
X146354475Y-75783401D01*
X146309770Y-75693990D01*
X146309770Y-75621951D01*
X146354475Y-75532540D01*
X146391480Y-75495535D01*
X146480894Y-75450828D01*
X146778287Y-75450828D01*
X146969478Y-75514559D01*
X147046984Y-75519212D01*
X147116433Y-75484488D01*
X147159215Y-75419691D01*
X147163868Y-75342185D01*
X147129143Y-75272736D01*
X147064347Y-75229954D01*
X146850061Y-75158526D01*
X146825955Y-75157078D01*
X146802627Y-75150828D01*
X146445484Y-75150828D01*
X146412183Y-75159750D01*
X146378401Y-75166664D01*
X146235545Y-75238093D01*
X146217476Y-75254115D01*
X146196562Y-75266190D01*
X146125133Y-75337618D01*
X146113057Y-75358533D01*
X146097034Y-75376603D01*
X146025606Y-75519460D01*
X146018693Y-75553238D01*
X146009770Y-75586542D01*
X146009770Y-75729400D01*
X145532170Y-75729400D01*
X145373501Y-75253394D01*
X145356905Y-75228258D01*
X145343430Y-75201307D01*
X145335773Y-75196251D01*
X145330720Y-75188598D01*
X145303777Y-75175126D01*
X145278633Y-75158525D01*
X145269475Y-75157975D01*
X145261271Y-75153873D01*
X145231202Y-75155678D01*
X145201127Y-75153873D01*
X145192920Y-75157976D01*
X145183765Y-75158526D01*
X145158629Y-75175121D01*
X145131678Y-75188597D01*
X145126622Y-75196253D01*
X145118969Y-75201307D01*
X145105495Y-75228253D01*
X145088897Y-75253394D01*
X144588897Y-76753394D01*
X144584244Y-76830900D01*
X144270402Y-76830900D01*
X144337265Y-76764037D01*
X144349339Y-76743122D01*
X144365363Y-76725053D01*
X144436791Y-76582195D01*
X144443702Y-76548419D01*
X144452627Y-76515114D01*
X144452627Y-76300828D01*
X144443702Y-76267522D01*
X144436791Y-76233747D01*
X144365363Y-76090889D01*
X144349339Y-76072819D01*
X144337265Y-76051905D01*
X144265836Y-75980476D01*
X144264471Y-75979687D01*
X144265836Y-75978323D01*
X144277911Y-75957407D01*
X144293934Y-75939339D01*
X144365363Y-75796483D01*
X144372276Y-75762700D01*
X144381199Y-75729400D01*
X144381199Y-75586542D01*
X144372276Y-75553241D01*
X144365363Y-75519459D01*
X144293934Y-75376603D01*
X144277911Y-75358534D01*
X144265836Y-75337619D01*
X144194408Y-75266191D01*
X144173493Y-75254116D01*
X144155424Y-75238093D01*
X144012566Y-75166664D01*
X143978785Y-75159751D01*
X143945484Y-75150828D01*
X143445484Y-75150828D01*
X143370484Y-75170924D01*
X143315580Y-75225828D01*
X143295484Y-75300828D01*
X143295484Y-76800828D01*
X143081198Y-76800828D01*
X143081198Y-74936542D01*
X200881203Y-74936542D01*
X200881203Y-77165114D01*
G37*
D11*
G36*
X162759818Y-78423244D02*
G01*
X162790653Y-78454079D01*
X162827909Y-78528591D01*
X162827909Y-78707669D01*
X162790653Y-78782181D01*
X162759818Y-78813016D01*
X162685305Y-78850273D01*
X162506228Y-78850273D01*
X162431716Y-78813017D01*
X162400880Y-78782181D01*
X162363624Y-78707669D01*
X162363624Y-78528591D01*
X162400880Y-78454079D01*
X162431716Y-78423243D01*
X162506228Y-78385988D01*
X162685305Y-78385988D01*
X162759818Y-78423244D01*
G37*
G36*
X162759818Y-77887529D02*
G01*
X162790653Y-77918365D01*
X162827909Y-77992877D01*
X162827909Y-77993383D01*
X162790653Y-78067895D01*
X162759818Y-78098731D01*
X162685306Y-78135988D01*
X162506227Y-78135988D01*
X162431717Y-78098733D01*
X162400880Y-78067895D01*
X162363624Y-77993383D01*
X162363624Y-77992877D01*
X162400880Y-77918365D01*
X162431717Y-77887527D01*
X162506227Y-77850273D01*
X162685306Y-77850273D01*
X162759818Y-77887529D01*
G37*
G36*
X172462197Y-78363720D02*
G01*
X172493033Y-78394556D01*
X172530289Y-78469067D01*
X172530289Y-78707669D01*
X172493033Y-78782181D01*
X172462198Y-78813016D01*
X172387685Y-78850273D01*
X172208608Y-78850273D01*
X172134096Y-78813017D01*
X172103260Y-78782181D01*
X172066004Y-78707669D01*
X172066004Y-78469067D01*
X172103260Y-78394554D01*
X172134096Y-78363719D01*
X172208607Y-78326464D01*
X172387686Y-78326464D01*
X172462197Y-78363720D01*
G37*
G36*
X159208052Y-78493130D02*
G01*
X158959670Y-78493130D01*
X159083861Y-78120556D01*
X159208052Y-78493130D01*
G37*
G36*
X166827099Y-78493130D02*
G01*
X166578717Y-78493130D01*
X166702908Y-78120556D01*
X166827099Y-78493130D01*
G37*
G36*
X178374254Y-79457098D02*
G01*
X156281563Y-79457098D01*
X156281563Y-79127274D01*
X163306956Y-79127274D01*
X163311981Y-79197528D01*
X163354190Y-79253913D01*
X163420183Y-79278527D01*
X163489006Y-79263555D01*
X163517488Y-79242233D01*
X163577013Y-79182709D01*
X163578135Y-79180653D01*
X163580150Y-79179457D01*
X163600428Y-79150222D01*
X163659951Y-79031174D01*
X163661957Y-79020022D01*
X163668084Y-79010490D01*
X163673147Y-78975273D01*
X164911243Y-78975273D01*
X164931086Y-79042853D01*
X164984316Y-79088977D01*
X165054032Y-79099001D01*
X165118101Y-79069742D01*
X165156180Y-79010490D01*
X165161243Y-78975273D01*
X165161243Y-78288719D01*
X165339636Y-78670991D01*
X165350851Y-78683720D01*
X165357770Y-78699207D01*
X165373649Y-78709598D01*
X165386196Y-78723839D01*
X165402510Y-78728484D01*
X165416706Y-78737773D01*
X165435684Y-78737929D01*
X165453937Y-78743126D01*
X165470173Y-78738213D01*
X165487138Y-78738353D01*
X165503187Y-78728223D01*
X165521352Y-78722728D01*
X165532355Y-78709816D01*
X165546701Y-78700763D01*
X165566182Y-78670991D01*
X165744576Y-78288718D01*
X165744576Y-78975273D01*
X165764419Y-79042853D01*
X165817649Y-79088977D01*
X165887365Y-79099001D01*
X165951434Y-79069742D01*
X165989513Y-79010490D01*
X165990140Y-79006131D01*
X166165111Y-79006131D01*
X166201023Y-79066721D01*
X166263992Y-79098277D01*
X166334026Y-79090780D01*
X166388888Y-79046610D01*
X166404827Y-79014801D01*
X166495384Y-78743130D01*
X166910432Y-78743130D01*
X167000989Y-79014801D01*
X167041185Y-79072638D01*
X167106269Y-79099562D01*
X167175577Y-79087026D01*
X167227106Y-79039008D01*
X167243343Y-78975273D01*
X167411243Y-78975273D01*
X167413813Y-78984028D01*
X167412515Y-78993062D01*
X167423581Y-79017294D01*
X167431086Y-79042853D01*
X167437982Y-79048828D01*
X167441774Y-79057131D01*
X167464186Y-79071534D01*
X167484316Y-79088977D01*
X167493348Y-79090275D01*
X167501026Y-79095210D01*
X167536243Y-79100273D01*
X168131481Y-79100273D01*
X168199061Y-79080430D01*
X168245185Y-79027200D01*
X168255209Y-78957484D01*
X168225950Y-78893415D01*
X168166698Y-78855336D01*
X168131481Y-78850273D01*
X167661243Y-78850273D01*
X167661243Y-78445511D01*
X167952909Y-78445511D01*
X168020489Y-78425668D01*
X168066613Y-78372438D01*
X168076637Y-78302722D01*
X168047378Y-78238653D01*
X167988126Y-78200574D01*
X167952909Y-78195511D01*
X167661243Y-78195511D01*
X167661243Y-78086821D01*
X169435130Y-78086821D01*
X169457342Y-78153660D01*
X169512165Y-78197880D01*
X169582191Y-78205440D01*
X169615954Y-78194219D01*
X169735001Y-78134695D01*
X169736714Y-78133101D01*
X169739005Y-78132603D01*
X169767487Y-78111281D01*
X169792195Y-78086573D01*
X169792195Y-78850273D01*
X169560052Y-78850273D01*
X169492472Y-78870116D01*
X169446348Y-78923346D01*
X169436324Y-78993062D01*
X169465583Y-79057131D01*
X169524835Y-79095210D01*
X169560052Y-79100273D01*
X170274337Y-79100273D01*
X170341917Y-79080430D01*
X170388041Y-79027200D01*
X170398065Y-78957484D01*
X170368806Y-78893415D01*
X170309554Y-78855336D01*
X170274337Y-78850273D01*
X170042195Y-78850273D01*
X170042195Y-78847309D01*
X170625846Y-78847309D01*
X170640818Y-78916132D01*
X170662140Y-78944614D01*
X170721664Y-79004139D01*
X170723719Y-79005261D01*
X170724916Y-79007276D01*
X170754151Y-79027554D01*
X170873197Y-79087076D01*
X170884347Y-79089082D01*
X170893882Y-79095210D01*
X170929099Y-79100273D01*
X171226718Y-79100273D01*
X171237587Y-79097081D01*
X171248856Y-79098298D01*
X171282619Y-79087077D01*
X171401667Y-79027554D01*
X171403382Y-79025958D01*
X171405672Y-79025460D01*
X171434154Y-79004138D01*
X171493679Y-78944614D01*
X171494801Y-78942558D01*
X171496816Y-78941362D01*
X171517094Y-78912127D01*
X171576617Y-78793079D01*
X171578623Y-78781927D01*
X171584750Y-78772395D01*
X171589813Y-78737178D01*
X171816004Y-78737178D01*
X171819196Y-78748050D01*
X171817980Y-78759316D01*
X171829201Y-78793080D01*
X171888725Y-78912128D01*
X171890318Y-78913841D01*
X171890817Y-78916131D01*
X171912139Y-78944614D01*
X171971662Y-79004138D01*
X171973718Y-79005260D01*
X171974915Y-79007276D01*
X172004150Y-79027554D01*
X172123198Y-79087077D01*
X172134349Y-79089083D01*
X172143882Y-79095210D01*
X172179099Y-79100273D01*
X172417194Y-79100273D01*
X172428063Y-79097081D01*
X172439332Y-79098298D01*
X172473095Y-79087077D01*
X172592143Y-79027554D01*
X172593858Y-79025958D01*
X172596148Y-79025460D01*
X172624630Y-79004138D01*
X172684155Y-78944614D01*
X172685277Y-78942558D01*
X172687292Y-78941362D01*
X172707570Y-78912127D01*
X172767093Y-78793079D01*
X172769099Y-78781927D01*
X172775226Y-78772395D01*
X172780289Y-78737178D01*
X172780289Y-78439559D01*
X172777096Y-78428686D01*
X172778313Y-78417421D01*
X172767093Y-78383658D01*
X172707570Y-78264610D01*
X172705974Y-78262894D01*
X172705476Y-78260604D01*
X172684154Y-78232122D01*
X172624630Y-78172599D01*
X172622575Y-78171476D01*
X172621379Y-78169463D01*
X172592144Y-78149185D01*
X172473096Y-78089661D01*
X172461945Y-78087654D01*
X172452411Y-78081527D01*
X172417194Y-78076464D01*
X172179099Y-78076464D01*
X172168229Y-78079655D01*
X172156961Y-78078439D01*
X172123198Y-78089660D01*
X172111181Y-78095668D01*
X172116545Y-78074212D01*
X172216716Y-77923955D01*
X172253144Y-77887528D01*
X172327655Y-77850273D01*
X172536242Y-77850273D01*
X172603822Y-77830430D01*
X172649946Y-77777200D01*
X172658344Y-77718794D01*
X173899505Y-77718794D01*
X173902736Y-77754226D01*
X174200355Y-79004225D01*
X174202813Y-79008525D01*
X174202937Y-79013476D01*
X174220120Y-79038799D01*
X174235311Y-79065371D01*
X174239703Y-79067659D01*
X174242485Y-79071758D01*
X174270638Y-79083774D01*
X174297777Y-79097912D01*
X174302707Y-79097462D01*
X174307264Y-79099407D01*
X174337444Y-79094294D01*
X174367919Y-79091516D01*
X174371824Y-79088471D01*
X174376709Y-79087644D01*
X174399332Y-79067028D01*
X174423469Y-79048213D01*
X174425108Y-79043539D01*
X174428769Y-79040204D01*
X174442735Y-79007481D01*
X174560051Y-78567545D01*
X174677367Y-79007481D01*
X174679939Y-79011712D01*
X174680196Y-79016659D01*
X174698057Y-79041517D01*
X174713953Y-79067666D01*
X174718404Y-79069834D01*
X174721295Y-79073858D01*
X174749761Y-79085114D01*
X174777270Y-79098518D01*
X174782187Y-79097935D01*
X174786793Y-79099757D01*
X174816819Y-79093837D01*
X174847214Y-79090240D01*
X174851037Y-79087091D01*
X174855897Y-79086133D01*
X174877955Y-79064919D01*
X174901581Y-79045461D01*
X174903095Y-79040744D01*
X174906664Y-79037312D01*
X174919747Y-79004226D01*
X174926641Y-78975273D01*
X175446956Y-78975273D01*
X175466799Y-79042853D01*
X175520029Y-79088977D01*
X175589745Y-79099001D01*
X175653814Y-79069742D01*
X175691893Y-79010490D01*
X175694399Y-78993062D01*
X175924418Y-78993062D01*
X175930058Y-79005413D01*
X175931027Y-79018956D01*
X175944403Y-79036825D01*
X175953677Y-79057131D01*
X175965099Y-79064471D01*
X175973236Y-79075341D01*
X175994150Y-79083141D01*
X176012929Y-79095210D01*
X176035023Y-79098386D01*
X176039229Y-79099955D01*
X176041896Y-79099374D01*
X176048146Y-79100273D01*
X176821955Y-79100273D01*
X176889535Y-79080430D01*
X176935659Y-79027200D01*
X176945683Y-78957484D01*
X176916424Y-78893415D01*
X176857172Y-78855336D01*
X176821955Y-78850273D01*
X176349923Y-78850273D01*
X176623801Y-78576396D01*
X177174418Y-78576396D01*
X177177262Y-78582624D01*
X177177015Y-78589465D01*
X177191704Y-78614249D01*
X177203677Y-78640465D01*
X177209436Y-78644166D01*
X177212927Y-78650055D01*
X177238684Y-78662963D01*
X177262929Y-78678544D01*
X177272530Y-78679924D01*
X177275896Y-78681611D01*
X177280691Y-78681097D01*
X177298146Y-78683607D01*
X177768384Y-78683607D01*
X177768384Y-78975273D01*
X177788227Y-79042853D01*
X177841457Y-79088977D01*
X177911173Y-79099001D01*
X177975242Y-79069742D01*
X178013321Y-79010490D01*
X178018384Y-78975273D01*
X178018384Y-78683607D01*
X178071955Y-78683607D01*
X178139535Y-78663764D01*
X178185659Y-78610534D01*
X178195683Y-78540818D01*
X178166424Y-78476749D01*
X178107172Y-78438670D01*
X178071955Y-78433607D01*
X178018384Y-78433607D01*
X178018384Y-78141940D01*
X177998541Y-78074360D01*
X177945311Y-78028236D01*
X177875595Y-78018212D01*
X177811526Y-78047471D01*
X177773447Y-78106723D01*
X177768384Y-78141940D01*
X177768384Y-78433607D01*
X177471574Y-78433607D01*
X177714350Y-77705278D01*
X177716896Y-77634891D01*
X177680984Y-77574302D01*
X177618015Y-77542746D01*
X177547981Y-77550243D01*
X177493119Y-77594413D01*
X177477180Y-77626221D01*
X177179561Y-78519079D01*
X177178519Y-78547869D01*
X177174418Y-78576396D01*
X176623801Y-78576396D01*
X176850820Y-78349377D01*
X176856250Y-78339432D01*
X176865078Y-78332325D01*
X176881018Y-78300516D01*
X176940541Y-78121944D01*
X176940625Y-78119603D01*
X176941892Y-78117633D01*
X176946955Y-78082416D01*
X176946955Y-77963369D01*
X176943762Y-77952496D01*
X176944979Y-77941231D01*
X176933759Y-77907468D01*
X176874236Y-77788420D01*
X176872641Y-77786705D01*
X176872143Y-77784415D01*
X176850821Y-77755933D01*
X176791296Y-77696409D01*
X176789242Y-77695287D01*
X176788045Y-77693272D01*
X176758810Y-77672994D01*
X176639762Y-77613470D01*
X176628611Y-77611463D01*
X176619077Y-77605336D01*
X176583860Y-77600273D01*
X176286241Y-77600273D01*
X176275368Y-77603465D01*
X176264102Y-77602249D01*
X176230339Y-77613470D01*
X176111292Y-77672994D01*
X176109578Y-77674587D01*
X176107288Y-77675086D01*
X176078806Y-77696408D01*
X176019282Y-77755933D01*
X175985526Y-77817750D01*
X175990551Y-77888004D01*
X176032760Y-77944389D01*
X176098753Y-77969003D01*
X176167576Y-77954031D01*
X176196058Y-77932709D01*
X176241239Y-77887528D01*
X176315749Y-77850273D01*
X176554352Y-77850273D01*
X176628864Y-77887529D01*
X176659699Y-77918365D01*
X176696955Y-77992877D01*
X176696955Y-78062130D01*
X176653176Y-78193467D01*
X175959758Y-78886885D01*
X175949061Y-78906474D01*
X175934442Y-78923346D01*
X175932509Y-78936786D01*
X175926003Y-78948702D01*
X175927595Y-78970965D01*
X175924418Y-78993062D01*
X175694399Y-78993062D01*
X175696956Y-78975273D01*
X175696956Y-77725273D01*
X175677113Y-77657693D01*
X175623883Y-77611569D01*
X175554167Y-77601545D01*
X175490098Y-77630804D01*
X175452019Y-77690056D01*
X175446956Y-77725273D01*
X175446956Y-78975273D01*
X174926641Y-78975273D01*
X175217367Y-77754225D01*
X175213716Y-77683887D01*
X175172617Y-77626688D01*
X175107119Y-77600789D01*
X175038015Y-77614413D01*
X174987248Y-77663233D01*
X174974165Y-77696320D01*
X174791284Y-78464414D01*
X174680830Y-78050208D01*
X174679150Y-78047445D01*
X174679070Y-78044213D01*
X174660982Y-78017557D01*
X174644245Y-77990023D01*
X174641337Y-77988606D01*
X174639522Y-77985931D01*
X174609882Y-77973280D01*
X174580927Y-77959172D01*
X174577717Y-77959551D01*
X174574743Y-77958282D01*
X174542973Y-77963663D01*
X174510983Y-77967449D01*
X174508486Y-77969504D01*
X174505298Y-77970045D01*
X174481484Y-77991745D01*
X174456616Y-78012228D01*
X174455627Y-78015307D01*
X174453238Y-78017485D01*
X174439272Y-78050208D01*
X174328817Y-78464413D01*
X174145938Y-77696320D01*
X174110981Y-77635174D01*
X174048516Y-77602634D01*
X173978374Y-77609030D01*
X173922824Y-77652333D01*
X173899505Y-77718794D01*
X172658344Y-77718794D01*
X172659970Y-77707484D01*
X172630711Y-77643415D01*
X172571459Y-77605336D01*
X172536242Y-77600273D01*
X172298147Y-77600273D01*
X172287277Y-77603464D01*
X172276009Y-77602248D01*
X172242246Y-77613469D01*
X172123197Y-77672994D01*
X172121483Y-77674587D01*
X172119193Y-77675086D01*
X172090711Y-77696408D01*
X172031187Y-77755933D01*
X172028915Y-77760093D01*
X172015568Y-77774984D01*
X171896522Y-77953555D01*
X171895417Y-77957093D01*
X171892713Y-77959637D01*
X171879260Y-77992575D01*
X171819736Y-78230671D01*
X171819874Y-78234068D01*
X171816004Y-78260988D01*
X171816004Y-78737178D01*
X171589813Y-78737178D01*
X171589813Y-78439559D01*
X171586620Y-78428686D01*
X171587837Y-78417421D01*
X171576617Y-78383658D01*
X171517094Y-78264610D01*
X171515498Y-78262894D01*
X171515000Y-78260604D01*
X171493678Y-78232122D01*
X171434154Y-78172599D01*
X171432099Y-78171476D01*
X171430903Y-78169463D01*
X171401668Y-78149185D01*
X171282620Y-78089661D01*
X171271469Y-78087654D01*
X171261935Y-78081527D01*
X171226718Y-78076464D01*
X170929099Y-78076464D01*
X170918226Y-78079656D01*
X170906960Y-78078440D01*
X170900132Y-78080709D01*
X170923176Y-77850273D01*
X171405290Y-77850273D01*
X171472870Y-77830430D01*
X171518994Y-77777200D01*
X171529018Y-77707484D01*
X171499759Y-77643415D01*
X171440507Y-77605336D01*
X171405290Y-77600273D01*
X170810052Y-77600273D01*
X170807373Y-77601059D01*
X170804663Y-77600389D01*
X170773771Y-77610925D01*
X170742472Y-77620116D01*
X170740644Y-77622224D01*
X170738000Y-77623127D01*
X170717699Y-77648705D01*
X170696348Y-77673346D01*
X170695950Y-77676107D01*
X170694214Y-77678296D01*
X170685672Y-77712835D01*
X170626148Y-78308073D01*
X170631387Y-78335929D01*
X170633409Y-78364193D01*
X170637809Y-78370072D01*
X170639168Y-78377292D01*
X170658634Y-78397890D01*
X170675617Y-78420578D01*
X170682499Y-78423145D01*
X170687545Y-78428484D01*
X170715056Y-78435288D01*
X170741610Y-78445193D01*
X170748787Y-78443631D01*
X170755917Y-78445395D01*
X170782736Y-78436246D01*
X170810433Y-78430222D01*
X170818832Y-78423934D01*
X170822580Y-78422656D01*
X170825566Y-78418893D01*
X170838916Y-78408900D01*
X170884097Y-78363719D01*
X170958607Y-78326464D01*
X171197210Y-78326464D01*
X171271721Y-78363720D01*
X171302557Y-78394556D01*
X171339813Y-78469067D01*
X171339813Y-78707669D01*
X171302557Y-78782181D01*
X171271722Y-78813016D01*
X171197209Y-78850273D01*
X170958608Y-78850273D01*
X170884096Y-78813017D01*
X170838916Y-78767838D01*
X170777099Y-78734082D01*
X170706845Y-78739107D01*
X170650460Y-78781316D01*
X170625846Y-78847309D01*
X170042195Y-78847309D01*
X170042195Y-77725273D01*
X170032564Y-77692475D01*
X170023473Y-77659469D01*
X170022659Y-77658739D01*
X170022352Y-77657693D01*
X169996532Y-77635320D01*
X169971026Y-77612457D01*
X169969946Y-77612283D01*
X169969122Y-77611569D01*
X169935296Y-77606705D01*
X169901487Y-77601263D01*
X169900485Y-77601700D01*
X169899406Y-77601545D01*
X169868328Y-77615737D01*
X169836936Y-77629441D01*
X169835975Y-77630512D01*
X169835337Y-77630804D01*
X169834381Y-77632291D01*
X169813189Y-77655935D01*
X169701007Y-77824207D01*
X169605053Y-77920161D01*
X169504150Y-77970613D01*
X169452579Y-78018584D01*
X169435130Y-78086821D01*
X167661243Y-78086821D01*
X167661243Y-77850273D01*
X168131481Y-77850273D01*
X168199061Y-77830430D01*
X168245185Y-77777200D01*
X168255209Y-77707484D01*
X168225950Y-77643415D01*
X168166698Y-77605336D01*
X168131481Y-77600273D01*
X167536243Y-77600273D01*
X167527487Y-77602843D01*
X167518454Y-77601545D01*
X167494221Y-77612611D01*
X167468663Y-77620116D01*
X167462687Y-77627012D01*
X167454385Y-77630804D01*
X167439981Y-77653216D01*
X167422539Y-77673346D01*
X167421240Y-77682378D01*
X167416306Y-77690056D01*
X167411243Y-77725273D01*
X167411243Y-78975273D01*
X167243343Y-78975273D01*
X167244494Y-78970755D01*
X167238160Y-78935744D01*
X166821494Y-77685745D01*
X166803874Y-77660391D01*
X166788128Y-77633825D01*
X166783960Y-77631736D01*
X166781299Y-77627907D01*
X166752761Y-77616101D01*
X166725159Y-77602269D01*
X166720523Y-77602765D01*
X166716215Y-77600983D01*
X166685832Y-77606478D01*
X166655125Y-77609766D01*
X166651492Y-77612690D01*
X166646907Y-77613520D01*
X166624324Y-77634563D01*
X166600263Y-77653936D01*
X166597395Y-77659657D01*
X166595378Y-77661538D01*
X166594265Y-77665904D01*
X166584324Y-77685744D01*
X166167657Y-78935745D01*
X166165111Y-79006131D01*
X165990140Y-79006131D01*
X165994576Y-78975273D01*
X165994576Y-77725273D01*
X165992150Y-77717013D01*
X165993446Y-77708503D01*
X165982378Y-77683730D01*
X165974733Y-77657693D01*
X165968226Y-77652054D01*
X165964715Y-77644196D01*
X165942010Y-77629338D01*
X165921503Y-77611569D01*
X165912982Y-77610343D01*
X165905779Y-77605630D01*
X165878646Y-77605406D01*
X165851787Y-77601545D01*
X165843954Y-77605121D01*
X165835347Y-77605051D01*
X165812403Y-77619530D01*
X165787718Y-77630804D01*
X165783063Y-77638047D01*
X165775784Y-77642641D01*
X165756303Y-77672413D01*
X165452909Y-78322541D01*
X165149516Y-77672412D01*
X165143825Y-77665952D01*
X165141400Y-77657693D01*
X165120893Y-77639924D01*
X165102956Y-77619564D01*
X165094676Y-77617206D01*
X165088170Y-77611569D01*
X165061312Y-77607707D01*
X165035215Y-77600277D01*
X165026975Y-77602770D01*
X165018454Y-77601545D01*
X164993773Y-77612816D01*
X164967800Y-77620675D01*
X164962215Y-77627227D01*
X164954385Y-77630804D01*
X164939715Y-77653629D01*
X164922115Y-77674283D01*
X164920959Y-77682814D01*
X164916306Y-77690056D01*
X164911243Y-77725273D01*
X164911243Y-78975273D01*
X163673147Y-78975273D01*
X163673147Y-78915750D01*
X163653304Y-78848170D01*
X163600074Y-78802046D01*
X163530358Y-78792022D01*
X163466289Y-78821281D01*
X163428210Y-78880533D01*
X163423147Y-78915750D01*
X163423147Y-78945764D01*
X163385891Y-79020276D01*
X163340712Y-79065457D01*
X163306956Y-79127274D01*
X156281563Y-79127274D01*
X156281563Y-77743062D01*
X156460134Y-77743062D01*
X156489393Y-77807131D01*
X156548645Y-77845210D01*
X156583862Y-77850273D01*
X156816005Y-77850273D01*
X156816005Y-78975273D01*
X156835848Y-79042853D01*
X156889078Y-79088977D01*
X156958794Y-79099001D01*
X157022863Y-79069742D01*
X157060942Y-79010490D01*
X157066005Y-78975273D01*
X157589815Y-78975273D01*
X157592385Y-78984028D01*
X157591087Y-78993062D01*
X157602153Y-79017294D01*
X157609658Y-79042853D01*
X157616554Y-79048828D01*
X157620346Y-79057131D01*
X157642758Y-79071534D01*
X157662888Y-79088977D01*
X157671920Y-79090275D01*
X157679598Y-79095210D01*
X157714815Y-79100273D01*
X158310053Y-79100273D01*
X158377633Y-79080430D01*
X158423757Y-79027200D01*
X158426786Y-79006131D01*
X158546064Y-79006131D01*
X158581976Y-79066721D01*
X158644945Y-79098277D01*
X158714979Y-79090780D01*
X158769841Y-79046610D01*
X158785780Y-79014801D01*
X158876337Y-78743130D01*
X159291385Y-78743130D01*
X159381942Y-79014801D01*
X159422138Y-79072638D01*
X159487222Y-79099562D01*
X159556530Y-79087026D01*
X159608059Y-79039008D01*
X159624296Y-78975273D01*
X159792196Y-78975273D01*
X159812039Y-79042853D01*
X159865269Y-79088977D01*
X159934985Y-79099001D01*
X159999054Y-79069742D01*
X160037133Y-79010490D01*
X160042196Y-78975273D01*
X160042196Y-78288719D01*
X160220589Y-78670991D01*
X160231804Y-78683720D01*
X160238723Y-78699207D01*
X160254602Y-78709598D01*
X160267149Y-78723839D01*
X160283463Y-78728484D01*
X160297659Y-78737773D01*
X160316637Y-78737929D01*
X160334890Y-78743126D01*
X160351126Y-78738213D01*
X160368091Y-78738353D01*
X160384140Y-78728223D01*
X160402305Y-78722728D01*
X160413308Y-78709816D01*
X160427654Y-78700763D01*
X160447135Y-78670991D01*
X160625529Y-78288718D01*
X160625529Y-78975273D01*
X160645372Y-79042853D01*
X160698602Y-79088977D01*
X160768318Y-79099001D01*
X160832387Y-79069742D01*
X160870466Y-79010490D01*
X160875529Y-78975273D01*
X160875529Y-78737178D01*
X162113624Y-78737178D01*
X162116816Y-78748050D01*
X162115600Y-78759316D01*
X162126821Y-78793080D01*
X162186345Y-78912128D01*
X162187938Y-78913841D01*
X162188437Y-78916131D01*
X162209759Y-78944614D01*
X162269282Y-79004138D01*
X162271338Y-79005260D01*
X162272535Y-79007276D01*
X162301770Y-79027554D01*
X162420818Y-79087077D01*
X162431969Y-79089083D01*
X162441502Y-79095210D01*
X162476719Y-79100273D01*
X162714814Y-79100273D01*
X162725683Y-79097081D01*
X162736952Y-79098298D01*
X162770715Y-79087077D01*
X162889763Y-79027554D01*
X162891478Y-79025958D01*
X162893768Y-79025460D01*
X162922250Y-79004138D01*
X162981775Y-78944614D01*
X162982897Y-78942558D01*
X162984912Y-78941362D01*
X163005190Y-78912127D01*
X163064713Y-78793079D01*
X163066719Y-78781927D01*
X163072846Y-78772395D01*
X163077909Y-78737178D01*
X163077909Y-78499083D01*
X163074716Y-78488210D01*
X163075933Y-78476945D01*
X163064713Y-78443182D01*
X163005190Y-78324134D01*
X163003595Y-78322419D01*
X163003097Y-78320129D01*
X162981775Y-78291647D01*
X162951114Y-78260987D01*
X162981775Y-78230328D01*
X162982897Y-78228272D01*
X162984912Y-78227076D01*
X163005190Y-78197841D01*
X163064713Y-78078793D01*
X163066719Y-78067641D01*
X163072846Y-78058109D01*
X163077909Y-78022892D01*
X163077909Y-77963369D01*
X163074716Y-77952496D01*
X163075933Y-77941231D01*
X163064713Y-77907468D01*
X163005190Y-77788420D01*
X163003595Y-77786705D01*
X163003097Y-77784415D01*
X162981775Y-77755933D01*
X162922250Y-77696409D01*
X162920196Y-77695287D01*
X162918999Y-77693272D01*
X162889764Y-77672994D01*
X162770716Y-77613470D01*
X162759565Y-77611463D01*
X162750031Y-77605336D01*
X162714814Y-77600273D01*
X162476719Y-77600273D01*
X162465849Y-77603464D01*
X162454581Y-77602248D01*
X162420818Y-77613469D01*
X162301769Y-77672994D01*
X162300054Y-77674588D01*
X162297764Y-77675087D01*
X162269282Y-77696409D01*
X162209759Y-77755933D01*
X162208636Y-77757987D01*
X162206623Y-77759184D01*
X162186345Y-77788419D01*
X162126821Y-77907467D01*
X162124814Y-77918617D01*
X162118687Y-77928152D01*
X162113624Y-77963369D01*
X162113624Y-78022892D01*
X162116816Y-78033764D01*
X162115600Y-78045030D01*
X162126821Y-78078794D01*
X162186345Y-78197842D01*
X162187938Y-78199555D01*
X162188437Y-78201845D01*
X162209759Y-78230328D01*
X162240417Y-78260987D01*
X162209759Y-78291647D01*
X162208636Y-78293701D01*
X162206623Y-78294898D01*
X162186345Y-78324133D01*
X162126821Y-78443181D01*
X162124814Y-78454331D01*
X162118687Y-78463866D01*
X162113624Y-78499083D01*
X162113624Y-78737178D01*
X160875529Y-78737178D01*
X160875529Y-77725273D01*
X160873103Y-77717013D01*
X160874399Y-77708503D01*
X160863331Y-77683730D01*
X160855686Y-77657693D01*
X160849179Y-77652054D01*
X160845668Y-77644196D01*
X160822963Y-77629338D01*
X160802456Y-77611569D01*
X160793935Y-77610343D01*
X160786732Y-77605630D01*
X160759599Y-77605406D01*
X160732740Y-77601545D01*
X160724907Y-77605121D01*
X160716300Y-77605051D01*
X160693356Y-77619530D01*
X160668671Y-77630804D01*
X160664016Y-77638047D01*
X160656737Y-77642641D01*
X160637256Y-77672413D01*
X160333862Y-78322541D01*
X160030469Y-77672412D01*
X160024778Y-77665952D01*
X160022353Y-77657693D01*
X160001846Y-77639924D01*
X159983909Y-77619564D01*
X159975629Y-77617206D01*
X159969123Y-77611569D01*
X159942265Y-77607707D01*
X159916168Y-77600277D01*
X159907928Y-77602770D01*
X159899407Y-77601545D01*
X159874726Y-77612816D01*
X159848753Y-77620675D01*
X159843168Y-77627227D01*
X159835338Y-77630804D01*
X159820668Y-77653629D01*
X159803068Y-77674283D01*
X159801912Y-77682814D01*
X159797259Y-77690056D01*
X159792196Y-77725273D01*
X159792196Y-78975273D01*
X159624296Y-78975273D01*
X159625447Y-78970755D01*
X159619113Y-78935744D01*
X159202447Y-77685745D01*
X159184827Y-77660391D01*
X159169081Y-77633825D01*
X159164913Y-77631736D01*
X159162252Y-77627907D01*
X159133714Y-77616101D01*
X159106112Y-77602269D01*
X159101476Y-77602765D01*
X159097168Y-77600983D01*
X159066785Y-77606478D01*
X159036078Y-77609766D01*
X159032445Y-77612690D01*
X159027860Y-77613520D01*
X159005277Y-77634563D01*
X158981216Y-77653936D01*
X158978348Y-77659657D01*
X158976331Y-77661538D01*
X158975218Y-77665904D01*
X158965277Y-77685744D01*
X158548610Y-78935745D01*
X158546064Y-79006131D01*
X158426786Y-79006131D01*
X158433781Y-78957484D01*
X158404522Y-78893415D01*
X158345270Y-78855336D01*
X158310053Y-78850273D01*
X157839815Y-78850273D01*
X157839815Y-78445511D01*
X158131481Y-78445511D01*
X158199061Y-78425668D01*
X158245185Y-78372438D01*
X158255209Y-78302722D01*
X158225950Y-78238653D01*
X158166698Y-78200574D01*
X158131481Y-78195511D01*
X157839815Y-78195511D01*
X157839815Y-77850273D01*
X158310053Y-77850273D01*
X158377633Y-77830430D01*
X158423757Y-77777200D01*
X158433781Y-77707484D01*
X158404522Y-77643415D01*
X158345270Y-77605336D01*
X158310053Y-77600273D01*
X157714815Y-77600273D01*
X157706059Y-77602843D01*
X157697026Y-77601545D01*
X157672793Y-77612611D01*
X157647235Y-77620116D01*
X157641259Y-77627012D01*
X157632957Y-77630804D01*
X157618553Y-77653216D01*
X157601111Y-77673346D01*
X157599812Y-77682378D01*
X157594878Y-77690056D01*
X157589815Y-77725273D01*
X157589815Y-78975273D01*
X157066005Y-78975273D01*
X157066005Y-77850273D01*
X157298148Y-77850273D01*
X157365728Y-77830430D01*
X157411852Y-77777200D01*
X157421876Y-77707484D01*
X157392617Y-77643415D01*
X157333365Y-77605336D01*
X157298148Y-77600273D01*
X156583862Y-77600273D01*
X156516282Y-77620116D01*
X156470158Y-77673346D01*
X156460134Y-77743062D01*
X156281563Y-77743062D01*
X156281563Y-77364175D01*
X178374254Y-77364175D01*
X178374254Y-79457098D01*
G37*
D12*
X113666667Y-101837200D02*
X113809524Y-101884819D01*
X113809524Y-101884819D02*
X114047619Y-101884819D01*
X114047619Y-101884819D02*
X114142857Y-101837200D01*
X114142857Y-101837200D02*
X114190476Y-101789580D01*
X114190476Y-101789580D02*
X114238095Y-101694342D01*
X114238095Y-101694342D02*
X114238095Y-101599104D01*
X114238095Y-101599104D02*
X114190476Y-101503866D01*
X114190476Y-101503866D02*
X114142857Y-101456247D01*
X114142857Y-101456247D02*
X114047619Y-101408628D01*
X114047619Y-101408628D02*
X113857143Y-101361009D01*
X113857143Y-101361009D02*
X113761905Y-101313390D01*
X113761905Y-101313390D02*
X113714286Y-101265771D01*
X113714286Y-101265771D02*
X113666667Y-101170533D01*
X113666667Y-101170533D02*
X113666667Y-101075295D01*
X113666667Y-101075295D02*
X113714286Y-100980057D01*
X113714286Y-100980057D02*
X113761905Y-100932438D01*
X113761905Y-100932438D02*
X113857143Y-100884819D01*
X113857143Y-100884819D02*
X114095238Y-100884819D01*
X114095238Y-100884819D02*
X114238095Y-100932438D01*
X114571429Y-100884819D02*
X114809524Y-101884819D01*
X114809524Y-101884819D02*
X115000000Y-101170533D01*
X115000000Y-101170533D02*
X115190476Y-101884819D01*
X115190476Y-101884819D02*
X115428572Y-100884819D01*
X116285714Y-100884819D02*
X115809524Y-100884819D01*
X115809524Y-100884819D02*
X115761905Y-101361009D01*
X115761905Y-101361009D02*
X115809524Y-101313390D01*
X115809524Y-101313390D02*
X115904762Y-101265771D01*
X115904762Y-101265771D02*
X116142857Y-101265771D01*
X116142857Y-101265771D02*
X116238095Y-101313390D01*
X116238095Y-101313390D02*
X116285714Y-101361009D01*
X116285714Y-101361009D02*
X116333333Y-101456247D01*
X116333333Y-101456247D02*
X116333333Y-101694342D01*
X116333333Y-101694342D02*
X116285714Y-101789580D01*
X116285714Y-101789580D02*
X116238095Y-101837200D01*
X116238095Y-101837200D02*
X116142857Y-101884819D01*
X116142857Y-101884819D02*
X115904762Y-101884819D01*
X115904762Y-101884819D02*
X115809524Y-101837200D01*
X115809524Y-101837200D02*
X115761905Y-101789580D01*
X119828333Y-84579819D02*
X119495000Y-84103628D01*
X119256905Y-84579819D02*
X119256905Y-83579819D01*
X119256905Y-83579819D02*
X119637857Y-83579819D01*
X119637857Y-83579819D02*
X119733095Y-83627438D01*
X119733095Y-83627438D02*
X119780714Y-83675057D01*
X119780714Y-83675057D02*
X119828333Y-83770295D01*
X119828333Y-83770295D02*
X119828333Y-83913152D01*
X119828333Y-83913152D02*
X119780714Y-84008390D01*
X119780714Y-84008390D02*
X119733095Y-84056009D01*
X119733095Y-84056009D02*
X119637857Y-84103628D01*
X119637857Y-84103628D02*
X119256905Y-84103628D01*
X120685476Y-83913152D02*
X120685476Y-84579819D01*
X120447381Y-83532200D02*
X120209286Y-84246485D01*
X120209286Y-84246485D02*
X120828333Y-84246485D01*
X152238095Y-79454819D02*
X152238095Y-80264342D01*
X152238095Y-80264342D02*
X152285714Y-80359580D01*
X152285714Y-80359580D02*
X152333333Y-80407200D01*
X152333333Y-80407200D02*
X152428571Y-80454819D01*
X152428571Y-80454819D02*
X152619047Y-80454819D01*
X152619047Y-80454819D02*
X152714285Y-80407200D01*
X152714285Y-80407200D02*
X152761904Y-80359580D01*
X152761904Y-80359580D02*
X152809523Y-80264342D01*
X152809523Y-80264342D02*
X152809523Y-79454819D01*
X153809523Y-80454819D02*
X153238095Y-80454819D01*
X153523809Y-80454819D02*
X153523809Y-79454819D01*
X153523809Y-79454819D02*
X153428571Y-79597676D01*
X153428571Y-79597676D02*
X153333333Y-79692914D01*
X153333333Y-79692914D02*
X153238095Y-79740533D01*
X117669333Y-84579819D02*
X117336000Y-84103628D01*
X117097905Y-84579819D02*
X117097905Y-83579819D01*
X117097905Y-83579819D02*
X117478857Y-83579819D01*
X117478857Y-83579819D02*
X117574095Y-83627438D01*
X117574095Y-83627438D02*
X117621714Y-83675057D01*
X117621714Y-83675057D02*
X117669333Y-83770295D01*
X117669333Y-83770295D02*
X117669333Y-83913152D01*
X117669333Y-83913152D02*
X117621714Y-84008390D01*
X117621714Y-84008390D02*
X117574095Y-84056009D01*
X117574095Y-84056009D02*
X117478857Y-84103628D01*
X117478857Y-84103628D02*
X117097905Y-84103628D01*
X118002667Y-83579819D02*
X118621714Y-83579819D01*
X118621714Y-83579819D02*
X118288381Y-83960771D01*
X118288381Y-83960771D02*
X118431238Y-83960771D01*
X118431238Y-83960771D02*
X118526476Y-84008390D01*
X118526476Y-84008390D02*
X118574095Y-84056009D01*
X118574095Y-84056009D02*
X118621714Y-84151247D01*
X118621714Y-84151247D02*
X118621714Y-84389342D01*
X118621714Y-84389342D02*
X118574095Y-84484580D01*
X118574095Y-84484580D02*
X118526476Y-84532200D01*
X118526476Y-84532200D02*
X118431238Y-84579819D01*
X118431238Y-84579819D02*
X118145524Y-84579819D01*
X118145524Y-84579819D02*
X118050286Y-84532200D01*
X118050286Y-84532200D02*
X118002667Y-84484580D01*
X194190476Y-102407200D02*
X194333333Y-102454819D01*
X194333333Y-102454819D02*
X194571428Y-102454819D01*
X194571428Y-102454819D02*
X194666666Y-102407200D01*
X194666666Y-102407200D02*
X194714285Y-102359580D01*
X194714285Y-102359580D02*
X194761904Y-102264342D01*
X194761904Y-102264342D02*
X194761904Y-102169104D01*
X194761904Y-102169104D02*
X194714285Y-102073866D01*
X194714285Y-102073866D02*
X194666666Y-102026247D01*
X194666666Y-102026247D02*
X194571428Y-101978628D01*
X194571428Y-101978628D02*
X194380952Y-101931009D01*
X194380952Y-101931009D02*
X194285714Y-101883390D01*
X194285714Y-101883390D02*
X194238095Y-101835771D01*
X194238095Y-101835771D02*
X194190476Y-101740533D01*
X194190476Y-101740533D02*
X194190476Y-101645295D01*
X194190476Y-101645295D02*
X194238095Y-101550057D01*
X194238095Y-101550057D02*
X194285714Y-101502438D01*
X194285714Y-101502438D02*
X194380952Y-101454819D01*
X194380952Y-101454819D02*
X194619047Y-101454819D01*
X194619047Y-101454819D02*
X194761904Y-101502438D01*
X195095238Y-101454819D02*
X195333333Y-102454819D01*
X195333333Y-102454819D02*
X195523809Y-101740533D01*
X195523809Y-101740533D02*
X195714285Y-102454819D01*
X195714285Y-102454819D02*
X195952381Y-101454819D01*
X196857142Y-102454819D02*
X196285714Y-102454819D01*
X196571428Y-102454819D02*
X196571428Y-101454819D01*
X196571428Y-101454819D02*
X196476190Y-101597676D01*
X196476190Y-101597676D02*
X196380952Y-101692914D01*
X196380952Y-101692914D02*
X196285714Y-101740533D01*
X197476190Y-101454819D02*
X197571428Y-101454819D01*
X197571428Y-101454819D02*
X197666666Y-101502438D01*
X197666666Y-101502438D02*
X197714285Y-101550057D01*
X197714285Y-101550057D02*
X197761904Y-101645295D01*
X197761904Y-101645295D02*
X197809523Y-101835771D01*
X197809523Y-101835771D02*
X197809523Y-102073866D01*
X197809523Y-102073866D02*
X197761904Y-102264342D01*
X197761904Y-102264342D02*
X197714285Y-102359580D01*
X197714285Y-102359580D02*
X197666666Y-102407200D01*
X197666666Y-102407200D02*
X197571428Y-102454819D01*
X197571428Y-102454819D02*
X197476190Y-102454819D01*
X197476190Y-102454819D02*
X197380952Y-102407200D01*
X197380952Y-102407200D02*
X197333333Y-102359580D01*
X197333333Y-102359580D02*
X197285714Y-102264342D01*
X197285714Y-102264342D02*
X197238095Y-102073866D01*
X197238095Y-102073866D02*
X197238095Y-101835771D01*
X197238095Y-101835771D02*
X197285714Y-101645295D01*
X197285714Y-101645295D02*
X197333333Y-101550057D01*
X197333333Y-101550057D02*
X197380952Y-101502438D01*
X197380952Y-101502438D02*
X197476190Y-101454819D01*
X194666667Y-80407200D02*
X194809524Y-80454819D01*
X194809524Y-80454819D02*
X195047619Y-80454819D01*
X195047619Y-80454819D02*
X195142857Y-80407200D01*
X195142857Y-80407200D02*
X195190476Y-80359580D01*
X195190476Y-80359580D02*
X195238095Y-80264342D01*
X195238095Y-80264342D02*
X195238095Y-80169104D01*
X195238095Y-80169104D02*
X195190476Y-80073866D01*
X195190476Y-80073866D02*
X195142857Y-80026247D01*
X195142857Y-80026247D02*
X195047619Y-79978628D01*
X195047619Y-79978628D02*
X194857143Y-79931009D01*
X194857143Y-79931009D02*
X194761905Y-79883390D01*
X194761905Y-79883390D02*
X194714286Y-79835771D01*
X194714286Y-79835771D02*
X194666667Y-79740533D01*
X194666667Y-79740533D02*
X194666667Y-79645295D01*
X194666667Y-79645295D02*
X194714286Y-79550057D01*
X194714286Y-79550057D02*
X194761905Y-79502438D01*
X194761905Y-79502438D02*
X194857143Y-79454819D01*
X194857143Y-79454819D02*
X195095238Y-79454819D01*
X195095238Y-79454819D02*
X195238095Y-79502438D01*
X195571429Y-79454819D02*
X195809524Y-80454819D01*
X195809524Y-80454819D02*
X196000000Y-79740533D01*
X196000000Y-79740533D02*
X196190476Y-80454819D01*
X196190476Y-80454819D02*
X196428572Y-79454819D01*
X196857143Y-80454819D02*
X197047619Y-80454819D01*
X197047619Y-80454819D02*
X197142857Y-80407200D01*
X197142857Y-80407200D02*
X197190476Y-80359580D01*
X197190476Y-80359580D02*
X197285714Y-80216723D01*
X197285714Y-80216723D02*
X197333333Y-80026247D01*
X197333333Y-80026247D02*
X197333333Y-79645295D01*
X197333333Y-79645295D02*
X197285714Y-79550057D01*
X197285714Y-79550057D02*
X197238095Y-79502438D01*
X197238095Y-79502438D02*
X197142857Y-79454819D01*
X197142857Y-79454819D02*
X196952381Y-79454819D01*
X196952381Y-79454819D02*
X196857143Y-79502438D01*
X196857143Y-79502438D02*
X196809524Y-79550057D01*
X196809524Y-79550057D02*
X196761905Y-79645295D01*
X196761905Y-79645295D02*
X196761905Y-79883390D01*
X196761905Y-79883390D02*
X196809524Y-79978628D01*
X196809524Y-79978628D02*
X196857143Y-80026247D01*
X196857143Y-80026247D02*
X196952381Y-80073866D01*
X196952381Y-80073866D02*
X197142857Y-80073866D01*
X197142857Y-80073866D02*
X197238095Y-80026247D01*
X197238095Y-80026247D02*
X197285714Y-79978628D01*
X197285714Y-79978628D02*
X197333333Y-79883390D01*
X115261905Y-74494819D02*
X115261905Y-73494819D01*
X115261905Y-73494819D02*
X115500000Y-73494819D01*
X115500000Y-73494819D02*
X115642857Y-73542438D01*
X115642857Y-73542438D02*
X115738095Y-73637676D01*
X115738095Y-73637676D02*
X115785714Y-73732914D01*
X115785714Y-73732914D02*
X115833333Y-73923390D01*
X115833333Y-73923390D02*
X115833333Y-74066247D01*
X115833333Y-74066247D02*
X115785714Y-74256723D01*
X115785714Y-74256723D02*
X115738095Y-74351961D01*
X115738095Y-74351961D02*
X115642857Y-74447200D01*
X115642857Y-74447200D02*
X115500000Y-74494819D01*
X115500000Y-74494819D02*
X115261905Y-74494819D01*
X116785714Y-74494819D02*
X116214286Y-74494819D01*
X116500000Y-74494819D02*
X116500000Y-73494819D01*
X116500000Y-73494819D02*
X116404762Y-73637676D01*
X116404762Y-73637676D02*
X116309524Y-73732914D01*
X116309524Y-73732914D02*
X116214286Y-73780533D01*
X95666667Y-101837200D02*
X95809524Y-101884819D01*
X95809524Y-101884819D02*
X96047619Y-101884819D01*
X96047619Y-101884819D02*
X96142857Y-101837200D01*
X96142857Y-101837200D02*
X96190476Y-101789580D01*
X96190476Y-101789580D02*
X96238095Y-101694342D01*
X96238095Y-101694342D02*
X96238095Y-101599104D01*
X96238095Y-101599104D02*
X96190476Y-101503866D01*
X96190476Y-101503866D02*
X96142857Y-101456247D01*
X96142857Y-101456247D02*
X96047619Y-101408628D01*
X96047619Y-101408628D02*
X95857143Y-101361009D01*
X95857143Y-101361009D02*
X95761905Y-101313390D01*
X95761905Y-101313390D02*
X95714286Y-101265771D01*
X95714286Y-101265771D02*
X95666667Y-101170533D01*
X95666667Y-101170533D02*
X95666667Y-101075295D01*
X95666667Y-101075295D02*
X95714286Y-100980057D01*
X95714286Y-100980057D02*
X95761905Y-100932438D01*
X95761905Y-100932438D02*
X95857143Y-100884819D01*
X95857143Y-100884819D02*
X96095238Y-100884819D01*
X96095238Y-100884819D02*
X96238095Y-100932438D01*
X96571429Y-100884819D02*
X96809524Y-101884819D01*
X96809524Y-101884819D02*
X97000000Y-101170533D01*
X97000000Y-101170533D02*
X97190476Y-101884819D01*
X97190476Y-101884819D02*
X97428572Y-100884819D01*
X97714286Y-100884819D02*
X98333333Y-100884819D01*
X98333333Y-100884819D02*
X98000000Y-101265771D01*
X98000000Y-101265771D02*
X98142857Y-101265771D01*
X98142857Y-101265771D02*
X98238095Y-101313390D01*
X98238095Y-101313390D02*
X98285714Y-101361009D01*
X98285714Y-101361009D02*
X98333333Y-101456247D01*
X98333333Y-101456247D02*
X98333333Y-101694342D01*
X98333333Y-101694342D02*
X98285714Y-101789580D01*
X98285714Y-101789580D02*
X98238095Y-101837200D01*
X98238095Y-101837200D02*
X98142857Y-101884819D01*
X98142857Y-101884819D02*
X97857143Y-101884819D01*
X97857143Y-101884819D02*
X97761905Y-101837200D01*
X97761905Y-101837200D02*
X97714286Y-101789580D01*
X95261905Y-74454819D02*
X95261905Y-73454819D01*
X95261905Y-73454819D02*
X95500000Y-73454819D01*
X95500000Y-73454819D02*
X95642857Y-73502438D01*
X95642857Y-73502438D02*
X95738095Y-73597676D01*
X95738095Y-73597676D02*
X95785714Y-73692914D01*
X95785714Y-73692914D02*
X95833333Y-73883390D01*
X95833333Y-73883390D02*
X95833333Y-74026247D01*
X95833333Y-74026247D02*
X95785714Y-74216723D01*
X95785714Y-74216723D02*
X95738095Y-74311961D01*
X95738095Y-74311961D02*
X95642857Y-74407200D01*
X95642857Y-74407200D02*
X95500000Y-74454819D01*
X95500000Y-74454819D02*
X95261905Y-74454819D01*
X96214286Y-73550057D02*
X96261905Y-73502438D01*
X96261905Y-73502438D02*
X96357143Y-73454819D01*
X96357143Y-73454819D02*
X96595238Y-73454819D01*
X96595238Y-73454819D02*
X96690476Y-73502438D01*
X96690476Y-73502438D02*
X96738095Y-73550057D01*
X96738095Y-73550057D02*
X96785714Y-73645295D01*
X96785714Y-73645295D02*
X96785714Y-73740533D01*
X96785714Y-73740533D02*
X96738095Y-73883390D01*
X96738095Y-73883390D02*
X96166667Y-74454819D01*
X96166667Y-74454819D02*
X96785714Y-74454819D01*
X181404761Y-80454819D02*
X181071428Y-79978628D01*
X180833333Y-80454819D02*
X180833333Y-79454819D01*
X180833333Y-79454819D02*
X181214285Y-79454819D01*
X181214285Y-79454819D02*
X181309523Y-79502438D01*
X181309523Y-79502438D02*
X181357142Y-79550057D01*
X181357142Y-79550057D02*
X181404761Y-79645295D01*
X181404761Y-79645295D02*
X181404761Y-79788152D01*
X181404761Y-79788152D02*
X181357142Y-79883390D01*
X181357142Y-79883390D02*
X181309523Y-79931009D01*
X181309523Y-79931009D02*
X181214285Y-79978628D01*
X181214285Y-79978628D02*
X180833333Y-79978628D01*
X181690476Y-79454819D02*
X182023809Y-80454819D01*
X182023809Y-80454819D02*
X182357142Y-79454819D01*
X182642857Y-79550057D02*
X182690476Y-79502438D01*
X182690476Y-79502438D02*
X182785714Y-79454819D01*
X182785714Y-79454819D02*
X183023809Y-79454819D01*
X183023809Y-79454819D02*
X183119047Y-79502438D01*
X183119047Y-79502438D02*
X183166666Y-79550057D01*
X183166666Y-79550057D02*
X183214285Y-79645295D01*
X183214285Y-79645295D02*
X183214285Y-79740533D01*
X183214285Y-79740533D02*
X183166666Y-79883390D01*
X183166666Y-79883390D02*
X182595238Y-80454819D01*
X182595238Y-80454819D02*
X183214285Y-80454819D01*
X121820714Y-77309104D02*
X122296904Y-77309104D01*
X121725476Y-77594819D02*
X122058809Y-76594819D01*
X122058809Y-76594819D02*
X122392142Y-77594819D01*
X123249285Y-77594819D02*
X122677857Y-77594819D01*
X122963571Y-77594819D02*
X122963571Y-76594819D01*
X122963571Y-76594819D02*
X122868333Y-76737676D01*
X122868333Y-76737676D02*
X122773095Y-76832914D01*
X122773095Y-76832914D02*
X122677857Y-76880533D01*
X125545180Y-81481905D02*
X126545180Y-81481905D01*
X126545180Y-81481905D02*
X126545180Y-81720000D01*
X126545180Y-81720000D02*
X126497561Y-81862857D01*
X126497561Y-81862857D02*
X126402323Y-81958095D01*
X126402323Y-81958095D02*
X126307085Y-82005714D01*
X126307085Y-82005714D02*
X126116609Y-82053333D01*
X126116609Y-82053333D02*
X125973752Y-82053333D01*
X125973752Y-82053333D02*
X125783276Y-82005714D01*
X125783276Y-82005714D02*
X125688038Y-81958095D01*
X125688038Y-81958095D02*
X125592800Y-81862857D01*
X125592800Y-81862857D02*
X125545180Y-81720000D01*
X125545180Y-81720000D02*
X125545180Y-81481905D01*
X126545180Y-82672381D02*
X126545180Y-82767619D01*
X126545180Y-82767619D02*
X126497561Y-82862857D01*
X126497561Y-82862857D02*
X126449942Y-82910476D01*
X126449942Y-82910476D02*
X126354704Y-82958095D01*
X126354704Y-82958095D02*
X126164228Y-83005714D01*
X126164228Y-83005714D02*
X125926133Y-83005714D01*
X125926133Y-83005714D02*
X125735657Y-82958095D01*
X125735657Y-82958095D02*
X125640419Y-82910476D01*
X125640419Y-82910476D02*
X125592800Y-82862857D01*
X125592800Y-82862857D02*
X125545180Y-82767619D01*
X125545180Y-82767619D02*
X125545180Y-82672381D01*
X125545180Y-82672381D02*
X125592800Y-82577143D01*
X125592800Y-82577143D02*
X125640419Y-82529524D01*
X125640419Y-82529524D02*
X125735657Y-82481905D01*
X125735657Y-82481905D02*
X125926133Y-82434286D01*
X125926133Y-82434286D02*
X126164228Y-82434286D01*
X126164228Y-82434286D02*
X126354704Y-82481905D01*
X126354704Y-82481905D02*
X126449942Y-82529524D01*
X126449942Y-82529524D02*
X126497561Y-82577143D01*
X126497561Y-82577143D02*
X126545180Y-82672381D01*
X92666667Y-83597200D02*
X92809524Y-83644819D01*
X92809524Y-83644819D02*
X93047619Y-83644819D01*
X93047619Y-83644819D02*
X93142857Y-83597200D01*
X93142857Y-83597200D02*
X93190476Y-83549580D01*
X93190476Y-83549580D02*
X93238095Y-83454342D01*
X93238095Y-83454342D02*
X93238095Y-83359104D01*
X93238095Y-83359104D02*
X93190476Y-83263866D01*
X93190476Y-83263866D02*
X93142857Y-83216247D01*
X93142857Y-83216247D02*
X93047619Y-83168628D01*
X93047619Y-83168628D02*
X92857143Y-83121009D01*
X92857143Y-83121009D02*
X92761905Y-83073390D01*
X92761905Y-83073390D02*
X92714286Y-83025771D01*
X92714286Y-83025771D02*
X92666667Y-82930533D01*
X92666667Y-82930533D02*
X92666667Y-82835295D01*
X92666667Y-82835295D02*
X92714286Y-82740057D01*
X92714286Y-82740057D02*
X92761905Y-82692438D01*
X92761905Y-82692438D02*
X92857143Y-82644819D01*
X92857143Y-82644819D02*
X93095238Y-82644819D01*
X93095238Y-82644819D02*
X93238095Y-82692438D01*
X93571429Y-82644819D02*
X93809524Y-83644819D01*
X93809524Y-83644819D02*
X94000000Y-82930533D01*
X94000000Y-82930533D02*
X94190476Y-83644819D01*
X94190476Y-83644819D02*
X94428572Y-82644819D01*
X95333333Y-83644819D02*
X94761905Y-83644819D01*
X95047619Y-83644819D02*
X95047619Y-82644819D01*
X95047619Y-82644819D02*
X94952381Y-82787676D01*
X94952381Y-82787676D02*
X94857143Y-82882914D01*
X94857143Y-82882914D02*
X94761905Y-82930533D01*
X104741667Y-111837200D02*
X104884524Y-111884819D01*
X104884524Y-111884819D02*
X105122619Y-111884819D01*
X105122619Y-111884819D02*
X105217857Y-111837200D01*
X105217857Y-111837200D02*
X105265476Y-111789580D01*
X105265476Y-111789580D02*
X105313095Y-111694342D01*
X105313095Y-111694342D02*
X105313095Y-111599104D01*
X105313095Y-111599104D02*
X105265476Y-111503866D01*
X105265476Y-111503866D02*
X105217857Y-111456247D01*
X105217857Y-111456247D02*
X105122619Y-111408628D01*
X105122619Y-111408628D02*
X104932143Y-111361009D01*
X104932143Y-111361009D02*
X104836905Y-111313390D01*
X104836905Y-111313390D02*
X104789286Y-111265771D01*
X104789286Y-111265771D02*
X104741667Y-111170533D01*
X104741667Y-111170533D02*
X104741667Y-111075295D01*
X104741667Y-111075295D02*
X104789286Y-110980057D01*
X104789286Y-110980057D02*
X104836905Y-110932438D01*
X104836905Y-110932438D02*
X104932143Y-110884819D01*
X104932143Y-110884819D02*
X105170238Y-110884819D01*
X105170238Y-110884819D02*
X105313095Y-110932438D01*
X105646429Y-110884819D02*
X105884524Y-111884819D01*
X105884524Y-111884819D02*
X106075000Y-111170533D01*
X106075000Y-111170533D02*
X106265476Y-111884819D01*
X106265476Y-111884819D02*
X106503572Y-110884819D01*
X106789286Y-110884819D02*
X107455952Y-110884819D01*
X107455952Y-110884819D02*
X107027381Y-111884819D01*
X152238095Y-101454819D02*
X152238095Y-102264342D01*
X152238095Y-102264342D02*
X152285714Y-102359580D01*
X152285714Y-102359580D02*
X152333333Y-102407200D01*
X152333333Y-102407200D02*
X152428571Y-102454819D01*
X152428571Y-102454819D02*
X152619047Y-102454819D01*
X152619047Y-102454819D02*
X152714285Y-102407200D01*
X152714285Y-102407200D02*
X152761904Y-102359580D01*
X152761904Y-102359580D02*
X152809523Y-102264342D01*
X152809523Y-102264342D02*
X152809523Y-101454819D01*
X153238095Y-101550057D02*
X153285714Y-101502438D01*
X153285714Y-101502438D02*
X153380952Y-101454819D01*
X153380952Y-101454819D02*
X153619047Y-101454819D01*
X153619047Y-101454819D02*
X153714285Y-101502438D01*
X153714285Y-101502438D02*
X153761904Y-101550057D01*
X153761904Y-101550057D02*
X153809523Y-101645295D01*
X153809523Y-101645295D02*
X153809523Y-101740533D01*
X153809523Y-101740533D02*
X153761904Y-101883390D01*
X153761904Y-101883390D02*
X153190476Y-102454819D01*
X153190476Y-102454819D02*
X153809523Y-102454819D01*
X110404761Y-79294819D02*
X110071428Y-78818628D01*
X109833333Y-79294819D02*
X109833333Y-78294819D01*
X109833333Y-78294819D02*
X110214285Y-78294819D01*
X110214285Y-78294819D02*
X110309523Y-78342438D01*
X110309523Y-78342438D02*
X110357142Y-78390057D01*
X110357142Y-78390057D02*
X110404761Y-78485295D01*
X110404761Y-78485295D02*
X110404761Y-78628152D01*
X110404761Y-78628152D02*
X110357142Y-78723390D01*
X110357142Y-78723390D02*
X110309523Y-78771009D01*
X110309523Y-78771009D02*
X110214285Y-78818628D01*
X110214285Y-78818628D02*
X109833333Y-78818628D01*
X110690476Y-78294819D02*
X111023809Y-79294819D01*
X111023809Y-79294819D02*
X111357142Y-78294819D01*
X112214285Y-79294819D02*
X111642857Y-79294819D01*
X111928571Y-79294819D02*
X111928571Y-78294819D01*
X111928571Y-78294819D02*
X111833333Y-78437676D01*
X111833333Y-78437676D02*
X111738095Y-78532914D01*
X111738095Y-78532914D02*
X111642857Y-78580533D01*
X95666667Y-111837200D02*
X95809524Y-111884819D01*
X95809524Y-111884819D02*
X96047619Y-111884819D01*
X96047619Y-111884819D02*
X96142857Y-111837200D01*
X96142857Y-111837200D02*
X96190476Y-111789580D01*
X96190476Y-111789580D02*
X96238095Y-111694342D01*
X96238095Y-111694342D02*
X96238095Y-111599104D01*
X96238095Y-111599104D02*
X96190476Y-111503866D01*
X96190476Y-111503866D02*
X96142857Y-111456247D01*
X96142857Y-111456247D02*
X96047619Y-111408628D01*
X96047619Y-111408628D02*
X95857143Y-111361009D01*
X95857143Y-111361009D02*
X95761905Y-111313390D01*
X95761905Y-111313390D02*
X95714286Y-111265771D01*
X95714286Y-111265771D02*
X95666667Y-111170533D01*
X95666667Y-111170533D02*
X95666667Y-111075295D01*
X95666667Y-111075295D02*
X95714286Y-110980057D01*
X95714286Y-110980057D02*
X95761905Y-110932438D01*
X95761905Y-110932438D02*
X95857143Y-110884819D01*
X95857143Y-110884819D02*
X96095238Y-110884819D01*
X96095238Y-110884819D02*
X96238095Y-110932438D01*
X96571429Y-110884819D02*
X96809524Y-111884819D01*
X96809524Y-111884819D02*
X97000000Y-111170533D01*
X97000000Y-111170533D02*
X97190476Y-111884819D01*
X97190476Y-111884819D02*
X97428572Y-110884819D01*
X98238095Y-110884819D02*
X98047619Y-110884819D01*
X98047619Y-110884819D02*
X97952381Y-110932438D01*
X97952381Y-110932438D02*
X97904762Y-110980057D01*
X97904762Y-110980057D02*
X97809524Y-111122914D01*
X97809524Y-111122914D02*
X97761905Y-111313390D01*
X97761905Y-111313390D02*
X97761905Y-111694342D01*
X97761905Y-111694342D02*
X97809524Y-111789580D01*
X97809524Y-111789580D02*
X97857143Y-111837200D01*
X97857143Y-111837200D02*
X97952381Y-111884819D01*
X97952381Y-111884819D02*
X98142857Y-111884819D01*
X98142857Y-111884819D02*
X98238095Y-111837200D01*
X98238095Y-111837200D02*
X98285714Y-111789580D01*
X98285714Y-111789580D02*
X98333333Y-111694342D01*
X98333333Y-111694342D02*
X98333333Y-111456247D01*
X98333333Y-111456247D02*
X98285714Y-111361009D01*
X98285714Y-111361009D02*
X98238095Y-111313390D01*
X98238095Y-111313390D02*
X98142857Y-111265771D01*
X98142857Y-111265771D02*
X97952381Y-111265771D01*
X97952381Y-111265771D02*
X97857143Y-111313390D01*
X97857143Y-111313390D02*
X97809524Y-111361009D01*
X97809524Y-111361009D02*
X97761905Y-111456247D01*
X100261905Y-74454819D02*
X100261905Y-73454819D01*
X100261905Y-73454819D02*
X100500000Y-73454819D01*
X100500000Y-73454819D02*
X100642857Y-73502438D01*
X100642857Y-73502438D02*
X100738095Y-73597676D01*
X100738095Y-73597676D02*
X100785714Y-73692914D01*
X100785714Y-73692914D02*
X100833333Y-73883390D01*
X100833333Y-73883390D02*
X100833333Y-74026247D01*
X100833333Y-74026247D02*
X100785714Y-74216723D01*
X100785714Y-74216723D02*
X100738095Y-74311961D01*
X100738095Y-74311961D02*
X100642857Y-74407200D01*
X100642857Y-74407200D02*
X100500000Y-74454819D01*
X100500000Y-74454819D02*
X100261905Y-74454819D01*
X101166667Y-73454819D02*
X101785714Y-73454819D01*
X101785714Y-73454819D02*
X101452381Y-73835771D01*
X101452381Y-73835771D02*
X101595238Y-73835771D01*
X101595238Y-73835771D02*
X101690476Y-73883390D01*
X101690476Y-73883390D02*
X101738095Y-73931009D01*
X101738095Y-73931009D02*
X101785714Y-74026247D01*
X101785714Y-74026247D02*
X101785714Y-74264342D01*
X101785714Y-74264342D02*
X101738095Y-74359580D01*
X101738095Y-74359580D02*
X101690476Y-74407200D01*
X101690476Y-74407200D02*
X101595238Y-74454819D01*
X101595238Y-74454819D02*
X101309524Y-74454819D01*
X101309524Y-74454819D02*
X101214286Y-74407200D01*
X101214286Y-74407200D02*
X101166667Y-74359580D01*
X113741667Y-111837200D02*
X113884524Y-111884819D01*
X113884524Y-111884819D02*
X114122619Y-111884819D01*
X114122619Y-111884819D02*
X114217857Y-111837200D01*
X114217857Y-111837200D02*
X114265476Y-111789580D01*
X114265476Y-111789580D02*
X114313095Y-111694342D01*
X114313095Y-111694342D02*
X114313095Y-111599104D01*
X114313095Y-111599104D02*
X114265476Y-111503866D01*
X114265476Y-111503866D02*
X114217857Y-111456247D01*
X114217857Y-111456247D02*
X114122619Y-111408628D01*
X114122619Y-111408628D02*
X113932143Y-111361009D01*
X113932143Y-111361009D02*
X113836905Y-111313390D01*
X113836905Y-111313390D02*
X113789286Y-111265771D01*
X113789286Y-111265771D02*
X113741667Y-111170533D01*
X113741667Y-111170533D02*
X113741667Y-111075295D01*
X113741667Y-111075295D02*
X113789286Y-110980057D01*
X113789286Y-110980057D02*
X113836905Y-110932438D01*
X113836905Y-110932438D02*
X113932143Y-110884819D01*
X113932143Y-110884819D02*
X114170238Y-110884819D01*
X114170238Y-110884819D02*
X114313095Y-110932438D01*
X114646429Y-110884819D02*
X114884524Y-111884819D01*
X114884524Y-111884819D02*
X115075000Y-111170533D01*
X115075000Y-111170533D02*
X115265476Y-111884819D01*
X115265476Y-111884819D02*
X115503572Y-110884819D01*
X116027381Y-111313390D02*
X115932143Y-111265771D01*
X115932143Y-111265771D02*
X115884524Y-111218152D01*
X115884524Y-111218152D02*
X115836905Y-111122914D01*
X115836905Y-111122914D02*
X115836905Y-111075295D01*
X115836905Y-111075295D02*
X115884524Y-110980057D01*
X115884524Y-110980057D02*
X115932143Y-110932438D01*
X115932143Y-110932438D02*
X116027381Y-110884819D01*
X116027381Y-110884819D02*
X116217857Y-110884819D01*
X116217857Y-110884819D02*
X116313095Y-110932438D01*
X116313095Y-110932438D02*
X116360714Y-110980057D01*
X116360714Y-110980057D02*
X116408333Y-111075295D01*
X116408333Y-111075295D02*
X116408333Y-111122914D01*
X116408333Y-111122914D02*
X116360714Y-111218152D01*
X116360714Y-111218152D02*
X116313095Y-111265771D01*
X116313095Y-111265771D02*
X116217857Y-111313390D01*
X116217857Y-111313390D02*
X116027381Y-111313390D01*
X116027381Y-111313390D02*
X115932143Y-111361009D01*
X115932143Y-111361009D02*
X115884524Y-111408628D01*
X115884524Y-111408628D02*
X115836905Y-111503866D01*
X115836905Y-111503866D02*
X115836905Y-111694342D01*
X115836905Y-111694342D02*
X115884524Y-111789580D01*
X115884524Y-111789580D02*
X115932143Y-111837200D01*
X115932143Y-111837200D02*
X116027381Y-111884819D01*
X116027381Y-111884819D02*
X116217857Y-111884819D01*
X116217857Y-111884819D02*
X116313095Y-111837200D01*
X116313095Y-111837200D02*
X116360714Y-111789580D01*
X116360714Y-111789580D02*
X116408333Y-111694342D01*
X116408333Y-111694342D02*
X116408333Y-111503866D01*
X116408333Y-111503866D02*
X116360714Y-111408628D01*
X116360714Y-111408628D02*
X116313095Y-111361009D01*
X116313095Y-111361009D02*
X116217857Y-111313390D01*
X105261905Y-74454819D02*
X105261905Y-73454819D01*
X105261905Y-73454819D02*
X105500000Y-73454819D01*
X105500000Y-73454819D02*
X105642857Y-73502438D01*
X105642857Y-73502438D02*
X105738095Y-73597676D01*
X105738095Y-73597676D02*
X105785714Y-73692914D01*
X105785714Y-73692914D02*
X105833333Y-73883390D01*
X105833333Y-73883390D02*
X105833333Y-74026247D01*
X105833333Y-74026247D02*
X105785714Y-74216723D01*
X105785714Y-74216723D02*
X105738095Y-74311961D01*
X105738095Y-74311961D02*
X105642857Y-74407200D01*
X105642857Y-74407200D02*
X105500000Y-74454819D01*
X105500000Y-74454819D02*
X105261905Y-74454819D01*
X106690476Y-73788152D02*
X106690476Y-74454819D01*
X106452381Y-73407200D02*
X106214286Y-74121485D01*
X106214286Y-74121485D02*
X106833333Y-74121485D01*
X104666667Y-101837200D02*
X104809524Y-101884819D01*
X104809524Y-101884819D02*
X105047619Y-101884819D01*
X105047619Y-101884819D02*
X105142857Y-101837200D01*
X105142857Y-101837200D02*
X105190476Y-101789580D01*
X105190476Y-101789580D02*
X105238095Y-101694342D01*
X105238095Y-101694342D02*
X105238095Y-101599104D01*
X105238095Y-101599104D02*
X105190476Y-101503866D01*
X105190476Y-101503866D02*
X105142857Y-101456247D01*
X105142857Y-101456247D02*
X105047619Y-101408628D01*
X105047619Y-101408628D02*
X104857143Y-101361009D01*
X104857143Y-101361009D02*
X104761905Y-101313390D01*
X104761905Y-101313390D02*
X104714286Y-101265771D01*
X104714286Y-101265771D02*
X104666667Y-101170533D01*
X104666667Y-101170533D02*
X104666667Y-101075295D01*
X104666667Y-101075295D02*
X104714286Y-100980057D01*
X104714286Y-100980057D02*
X104761905Y-100932438D01*
X104761905Y-100932438D02*
X104857143Y-100884819D01*
X104857143Y-100884819D02*
X105095238Y-100884819D01*
X105095238Y-100884819D02*
X105238095Y-100932438D01*
X105571429Y-100884819D02*
X105809524Y-101884819D01*
X105809524Y-101884819D02*
X106000000Y-101170533D01*
X106000000Y-101170533D02*
X106190476Y-101884819D01*
X106190476Y-101884819D02*
X106428572Y-100884819D01*
X107238095Y-101218152D02*
X107238095Y-101884819D01*
X107000000Y-100837200D02*
X106761905Y-101551485D01*
X106761905Y-101551485D02*
X107380952Y-101551485D01*
X181404761Y-102454819D02*
X181071428Y-101978628D01*
X180833333Y-102454819D02*
X180833333Y-101454819D01*
X180833333Y-101454819D02*
X181214285Y-101454819D01*
X181214285Y-101454819D02*
X181309523Y-101502438D01*
X181309523Y-101502438D02*
X181357142Y-101550057D01*
X181357142Y-101550057D02*
X181404761Y-101645295D01*
X181404761Y-101645295D02*
X181404761Y-101788152D01*
X181404761Y-101788152D02*
X181357142Y-101883390D01*
X181357142Y-101883390D02*
X181309523Y-101931009D01*
X181309523Y-101931009D02*
X181214285Y-101978628D01*
X181214285Y-101978628D02*
X180833333Y-101978628D01*
X181690476Y-101454819D02*
X182023809Y-102454819D01*
X182023809Y-102454819D02*
X182357142Y-101454819D01*
X182595238Y-101454819D02*
X183214285Y-101454819D01*
X183214285Y-101454819D02*
X182880952Y-101835771D01*
X182880952Y-101835771D02*
X183023809Y-101835771D01*
X183023809Y-101835771D02*
X183119047Y-101883390D01*
X183119047Y-101883390D02*
X183166666Y-101931009D01*
X183166666Y-101931009D02*
X183214285Y-102026247D01*
X183214285Y-102026247D02*
X183214285Y-102264342D01*
X183214285Y-102264342D02*
X183166666Y-102359580D01*
X183166666Y-102359580D02*
X183119047Y-102407200D01*
X183119047Y-102407200D02*
X183023809Y-102454819D01*
X183023809Y-102454819D02*
X182738095Y-102454819D01*
X182738095Y-102454819D02*
X182642857Y-102407200D01*
X182642857Y-102407200D02*
X182595238Y-102359580D01*
D13*
%TO.C,SW5*%
X111500000Y-105250000D02*
X111500000Y-106750000D01*
X112750000Y-109250000D02*
X117250000Y-109250000D01*
X117250000Y-102750000D02*
X112750000Y-102750000D01*
X118500000Y-106750000D02*
X118500000Y-105250000D01*
D14*
X117015564Y-106000000D02*
G75*
G03*
X117015564Y-106000000I-2015564J0D01*
G01*
D13*
%TO.C,R4*%
X119260000Y-81812064D02*
X119260000Y-81357936D01*
X120730000Y-81812064D02*
X120730000Y-81357936D01*
%TO.C,U1*%
X145190000Y-81390000D02*
X145190000Y-96610000D01*
X145190000Y-81390000D02*
X154285000Y-81390000D01*
X145190000Y-96610000D02*
X151745000Y-96620000D01*
X174810000Y-81390000D02*
X168255000Y-81380000D01*
X174810000Y-81390000D02*
X174810000Y-96610000D01*
X174810000Y-96610000D02*
X168255000Y-96620000D01*
%TO.C,R3*%
X117101000Y-81812064D02*
X117101000Y-81357936D01*
X118571000Y-81812064D02*
X118571000Y-81357936D01*
%TO.C,SW10*%
X189850000Y-117150000D02*
X189850000Y-104850000D01*
X191800000Y-117150000D02*
X189850000Y-117150000D01*
X196800000Y-117150000D02*
X195200000Y-117150000D01*
X202150000Y-117150000D02*
X200200000Y-117150000D01*
X189850000Y-104850000D02*
X191800000Y-104850000D01*
X195200000Y-104850000D02*
X196800000Y-104850000D01*
X200200000Y-104850000D02*
X202150000Y-104850000D01*
X202150000Y-104850000D02*
X202150000Y-117150000D01*
X200579050Y-111000000D02*
G75*
G03*
X200579050Y-111000000I-4579050J0D01*
G01*
%TO.C,SW9*%
X189850000Y-95150000D02*
X189850000Y-82850000D01*
X191800000Y-95150000D02*
X189850000Y-95150000D01*
X196800000Y-95150000D02*
X195200000Y-95150000D01*
X202150000Y-95150000D02*
X200200000Y-95150000D01*
X189850000Y-82850000D02*
X191800000Y-82850000D01*
X195200000Y-82850000D02*
X196800000Y-82850000D01*
X200200000Y-82850000D02*
X202150000Y-82850000D01*
X202150000Y-82850000D02*
X202150000Y-95150000D01*
X200579050Y-89000000D02*
G75*
G03*
X200579050Y-89000000I-4579050J0D01*
G01*
%TO.C,D1*%
X114440000Y-75764000D02*
X114440000Y-75920000D01*
X114440000Y-78080000D02*
X114440000Y-78236000D01*
X117672334Y-75921392D02*
G75*
G03*
X114440001Y-75764485I-1672334J-1078608D01*
G01*
X117041129Y-75920164D02*
G75*
G03*
X114959040Y-75920001I-1041129J-1079836D01*
G01*
X114959040Y-78079999D02*
G75*
G03*
X117041129Y-78079836I1040960J1079999D01*
G01*
X114440001Y-78235515D02*
G75*
G03*
X117672334Y-78078608I1559999J1235515D01*
G01*
%TO.C,SW3*%
X93500000Y-105250000D02*
X93500000Y-106750000D01*
X94750000Y-109250000D02*
X99250000Y-109250000D01*
X99250000Y-102750000D02*
X94750000Y-102750000D01*
X100500000Y-106750000D02*
X100500000Y-105250000D01*
D14*
X99015564Y-106000000D02*
G75*
G03*
X99015564Y-106000000I-2015564J0D01*
G01*
D13*
%TO.C,D2*%
X97236000Y-75440000D02*
X97080000Y-75440000D01*
X94920000Y-75440000D02*
X94764000Y-75440000D01*
X97078608Y-78672334D02*
G75*
G03*
X97235515Y-75440001I-1078608J1672334D01*
G01*
X97079836Y-78041129D02*
G75*
G03*
X97079999Y-75959040I-1079836J1041129D01*
G01*
X94920001Y-75959040D02*
G75*
G03*
X94920164Y-78041129I1079999J-1040960D01*
G01*
X94764485Y-75440001D02*
G75*
G03*
X94921392Y-78672334I1235515J-1559999D01*
G01*
%TO.C,RV2*%
X187021000Y-82880000D02*
X185700000Y-82880000D01*
X187021000Y-82880000D02*
X187021000Y-86817000D01*
X183250000Y-82880000D02*
X182870000Y-82880000D01*
X181129000Y-82880000D02*
X180370000Y-82880000D01*
X178630000Y-82880000D02*
X176980000Y-82880000D01*
X176980000Y-82880000D02*
X176980000Y-86817000D01*
X187021000Y-91184000D02*
X187021000Y-95120000D01*
X176980000Y-91184000D02*
X176980000Y-95120000D01*
X187021000Y-95120000D02*
X176980000Y-95120000D01*
X184598075Y-87500000D02*
G75*
G03*
X179401925Y-87500000I-2598075J-1500000D01*
G01*
X179401925Y-90500000D02*
G75*
G03*
X184598075Y-90500000I2598075J1500000D01*
G01*
D12*
%TO.C,A1*%
X124110000Y-75870000D02*
X124110000Y-78562400D01*
X124110000Y-75870000D02*
X141890000Y-75870000D01*
X124110000Y-80797600D02*
X124110000Y-81102400D01*
X124110000Y-83337600D02*
X124110000Y-83642400D01*
X124110000Y-85877600D02*
X124110000Y-86182400D01*
X124110000Y-88417600D02*
X124110000Y-88722400D01*
X124110000Y-90957600D02*
X124110000Y-91262400D01*
X124110000Y-93497600D02*
X124110000Y-93802400D01*
X124110000Y-96037600D02*
X124110000Y-96342400D01*
X124110000Y-98577600D02*
X124110000Y-98882400D01*
X124110000Y-101117600D02*
X124110000Y-101422400D01*
X124110000Y-103657600D02*
X124110000Y-103962400D01*
X124110000Y-106197600D02*
X124110000Y-106502400D01*
X124110000Y-108737600D02*
X124110000Y-109042400D01*
X124110000Y-111277600D02*
X124110000Y-111582400D01*
X124110000Y-113817600D02*
X124110000Y-114122400D01*
X124110000Y-116357600D02*
X124110000Y-119050000D01*
X124110000Y-119050000D02*
X141890000Y-119050000D01*
X141890000Y-75870000D02*
X141890000Y-78562400D01*
X141890000Y-80797600D02*
X141890000Y-81102400D01*
X141890000Y-83337600D02*
X141890000Y-83642400D01*
X141890000Y-85877600D02*
X141890000Y-86182400D01*
X141890000Y-88417600D02*
X141890000Y-88722400D01*
X141890000Y-90957600D02*
X141890000Y-91262400D01*
X141890000Y-93497600D02*
X141890000Y-93802400D01*
X141890000Y-96037600D02*
X141890000Y-96342400D01*
X141890000Y-98577600D02*
X141890000Y-98882400D01*
X141890000Y-101117600D02*
X141890000Y-101422400D01*
X141890000Y-103657600D02*
X141890000Y-103962400D01*
X141890000Y-106197600D02*
X141890000Y-106502400D01*
X141890000Y-108737600D02*
X141890000Y-109042400D01*
X141890000Y-111277600D02*
X141890000Y-111582400D01*
X141890000Y-113817600D02*
X141890000Y-114122400D01*
X141890000Y-116357600D02*
X141890000Y-119050000D01*
D13*
%TO.C,SW1*%
X91740000Y-84590000D02*
X92400000Y-84590000D01*
X91740000Y-93410000D02*
X91740000Y-84590000D01*
X91740000Y-93410000D02*
X92400000Y-93410000D01*
X96260000Y-84590000D02*
X95600000Y-84590000D01*
X96260000Y-84590000D02*
X96260000Y-93410000D01*
X96260000Y-93410000D02*
X95600000Y-93410000D01*
%TO.C,SW7*%
X102500000Y-115250000D02*
X102500000Y-116750000D01*
X103750000Y-119250000D02*
X108250000Y-119250000D01*
X108250000Y-112750000D02*
X103750000Y-112750000D01*
X109500000Y-116750000D02*
X109500000Y-115250000D01*
D14*
X108015564Y-116000000D02*
G75*
G03*
X108015564Y-116000000I-2015564J0D01*
G01*
D13*
%TO.C,U2*%
X145190000Y-103390000D02*
X145190000Y-118610000D01*
X145190000Y-103390000D02*
X154285000Y-103390000D01*
X145190000Y-118610000D02*
X151745000Y-118620000D01*
X174810000Y-103390000D02*
X168255000Y-103380000D01*
X174810000Y-103390000D02*
X174810000Y-118610000D01*
X174810000Y-118610000D02*
X168255000Y-118620000D01*
D15*
%TO.C,RV1*%
X97000000Y-83000000D02*
X100000000Y-80000000D01*
X97000000Y-95000000D02*
X97000000Y-83000000D01*
X100000000Y-80000000D02*
X112000000Y-80000000D01*
X100000000Y-98000000D02*
X97000000Y-95000000D01*
X102500000Y-98000000D02*
X100000000Y-98000000D01*
X112000000Y-80000000D02*
X115000000Y-83000000D01*
X112000000Y-98000000D02*
X109500000Y-98000000D01*
X115000000Y-83000000D02*
X115000000Y-85500000D01*
X115000000Y-92500000D02*
X115000000Y-95000000D01*
X115000000Y-95000000D02*
X112000000Y-98000000D01*
D13*
X111664000Y-89000000D02*
G75*
G03*
X111664000Y-89000000I-5664000J0D01*
G01*
D15*
X113000000Y-89000000D02*
G75*
G03*
X113000000Y-89000000I-7000000J0D01*
G01*
D13*
%TO.C,SW6*%
X93500000Y-115250000D02*
X93500000Y-116750000D01*
X94750000Y-119250000D02*
X99250000Y-119250000D01*
X99250000Y-112750000D02*
X94750000Y-112750000D01*
X100500000Y-116750000D02*
X100500000Y-115250000D01*
D14*
X99015564Y-116000000D02*
G75*
G03*
X99015564Y-116000000I-2015564J0D01*
G01*
D13*
%TO.C,D3*%
X102236000Y-75440000D02*
X102080000Y-75440000D01*
X99920000Y-75440000D02*
X99764000Y-75440000D01*
X102078608Y-78672334D02*
G75*
G03*
X102235515Y-75440001I-1078608J1672334D01*
G01*
X102079836Y-78041129D02*
G75*
G03*
X102079999Y-75959040I-1079836J1041129D01*
G01*
X99920001Y-75959040D02*
G75*
G03*
X99920164Y-78041129I1079999J-1040960D01*
G01*
X99764485Y-75440001D02*
G75*
G03*
X99921392Y-78672334I1235515J-1559999D01*
G01*
%TO.C,SW8*%
X111500000Y-115250000D02*
X111500000Y-116750000D01*
X112750000Y-119250000D02*
X117250000Y-119250000D01*
X117250000Y-112750000D02*
X112750000Y-112750000D01*
X118500000Y-116750000D02*
X118500000Y-115250000D01*
D14*
X117015564Y-116000000D02*
G75*
G03*
X117015564Y-116000000I-2015564J0D01*
G01*
D13*
%TO.C,D4*%
X107236000Y-75440000D02*
X107080000Y-75440000D01*
X104920000Y-75440000D02*
X104764000Y-75440000D01*
X107078608Y-78672334D02*
G75*
G03*
X107235515Y-75440001I-1078608J1672334D01*
G01*
X107079836Y-78041129D02*
G75*
G03*
X107079999Y-75959040I-1079836J1041129D01*
G01*
X104920001Y-75959040D02*
G75*
G03*
X104920164Y-78041129I1079999J-1040960D01*
G01*
X104764485Y-75440001D02*
G75*
G03*
X104921392Y-78672334I1235515J-1559999D01*
G01*
%TO.C,SW4*%
X102500000Y-105250000D02*
X102500000Y-106750000D01*
X103750000Y-109250000D02*
X108250000Y-109250000D01*
X108250000Y-102750000D02*
X103750000Y-102750000D01*
X109500000Y-106750000D02*
X109500000Y-105250000D01*
D14*
X108015564Y-106000000D02*
G75*
G03*
X108015564Y-106000000I-2015564J0D01*
G01*
D13*
%TO.C,RV3*%
X187021000Y-104880000D02*
X185700000Y-104880000D01*
X187021000Y-104880000D02*
X187021000Y-108817000D01*
X183250000Y-104880000D02*
X182870000Y-104880000D01*
X181129000Y-104880000D02*
X180370000Y-104880000D01*
X178630000Y-104880000D02*
X176980000Y-104880000D01*
X176980000Y-104880000D02*
X176980000Y-108817000D01*
X187021000Y-113184000D02*
X187021000Y-117120000D01*
X176980000Y-113184000D02*
X176980000Y-117120000D01*
X187021000Y-117120000D02*
X176980000Y-117120000D01*
X184598075Y-109500000D02*
G75*
G03*
X179401925Y-109500000I-2598075J-1500000D01*
G01*
X179401925Y-112500000D02*
G75*
G03*
X184598075Y-112500000I2598075J1500000D01*
G01*
%TD*%
D16*
%TO.C,RV2*%
X182000000Y-89000000D03*
%TD*%
%TO.C,RV3*%
X182000000Y-111000000D03*
%TD*%
M02*
