%TF.GenerationSoftware,KiCad,Pcbnew,7.0.8*%
%TF.CreationDate,2024-01-12T01:29:44-08:00*%
%TF.ProjectId,rc_v1,72635f76-312e-46b6-9963-61645f706362,0*%
%TF.SameCoordinates,Original*%
%TF.FileFunction,Paste,Top*%
%TF.FilePolarity,Positive*%
%FSLAX46Y46*%
G04 Gerber Fmt 4.6, Leading zero omitted, Abs format (unit mm)*
G04 Created by KiCad (PCBNEW 7.0.8) date 2024-01-12 01:29:44*
%MOMM*%
%LPD*%
G01*
G04 APERTURE LIST*
G04 Aperture macros list*
%AMRoundRect*
0 Rectangle with rounded corners*
0 $1 Rounding radius*
0 $2 $3 $4 $5 $6 $7 $8 $9 X,Y pos of 4 corners*
0 Add a 4 corners polygon primitive as box body*
4,1,4,$2,$3,$4,$5,$6,$7,$8,$9,$2,$3,0*
0 Add four circle primitives for the rounded corners*
1,1,$1+$1,$2,$3*
1,1,$1+$1,$4,$5*
1,1,$1+$1,$6,$7*
1,1,$1+$1,$8,$9*
0 Add four rect primitives between the rounded corners*
20,1,$1+$1,$2,$3,$4,$5,0*
20,1,$1+$1,$4,$5,$6,$7,0*
20,1,$1+$1,$6,$7,$8,$9,0*
20,1,$1+$1,$8,$9,$2,$3,0*%
G04 Aperture macros list end*
%ADD10RoundRect,0.250000X0.450000X-0.350000X0.450000X0.350000X-0.450000X0.350000X-0.450000X-0.350000X0*%
%ADD11RoundRect,0.550000X-0.550000X-0.700000X0.550000X-0.700000X0.550000X0.700000X-0.550000X0.700000X0*%
%ADD12O,2.997200X1.727200*%
%ADD13R,2.997200X1.727200*%
G04 APERTURE END LIST*
D10*
%TO.C,R4*%
X119995000Y-82585000D03*
X119995000Y-80585000D03*
%TD*%
D11*
%TO.C,U1*%
X153650000Y-96250000D03*
X156190000Y-96250000D03*
X158730000Y-96250000D03*
X161270000Y-96250000D03*
X163810000Y-96250000D03*
X166350000Y-96250000D03*
X166350000Y-81750000D03*
X163810000Y-81750000D03*
X161270000Y-81750000D03*
X158730000Y-81750000D03*
X156190000Y-81750000D03*
%TD*%
D10*
%TO.C,R3*%
X117836000Y-82585000D03*
X117836000Y-80585000D03*
%TD*%
D12*
%TO.C,A1*%
X142525000Y-112700000D03*
X142525000Y-87300000D03*
X142525000Y-107620000D03*
X142525000Y-105080000D03*
X142525000Y-102540000D03*
X142525000Y-100000000D03*
X142525000Y-97460000D03*
X142525000Y-94920000D03*
X142525000Y-92380000D03*
X142525000Y-89840000D03*
X142525000Y-110160000D03*
X142525000Y-84760000D03*
X123475000Y-82220000D03*
X123475000Y-79680000D03*
X123475000Y-89840000D03*
X123475000Y-92380000D03*
X123475000Y-94920000D03*
X123475000Y-97460000D03*
X123475000Y-100000000D03*
X123475000Y-102540000D03*
X123475000Y-105080000D03*
X123475000Y-107620000D03*
X123475000Y-110160000D03*
X123475000Y-112700000D03*
X123475000Y-115240000D03*
X142525000Y-115240000D03*
D13*
X123475000Y-87300000D03*
X142525000Y-82220000D03*
D12*
X123475000Y-84760000D03*
X142525000Y-79680000D03*
%TD*%
D11*
%TO.C,U2*%
X153650000Y-118250000D03*
X156190000Y-118250000D03*
X158730000Y-118250000D03*
X161270000Y-118250000D03*
X163810000Y-118250000D03*
X166350000Y-118250000D03*
X166350000Y-103750000D03*
X163810000Y-103750000D03*
X161270000Y-103750000D03*
X158730000Y-103750000D03*
X156190000Y-103750000D03*
%TD*%
M02*
