M48
; DRILL file {KiCad 7.0.8} date 2024 February 22, Thursday 02:04:30
; FORMAT={-:-/ absolute / metric / decimal}
; #@! TF.CreationDate,2024-02-22T02:04:30-08:00
; #@! TF.GenerationSoftware,Kicad,Pcbnew,7.0.8
; #@! TF.FileFunction,Plated,1,2,PTH
FMAT,2
METRIC
; #@! TA.AperFunction,Plated,PTH,ViaDrill
T1C0.500
; #@! TA.AperFunction,Plated,PTH,ComponentDrill
T2C0.800
; #@! TA.AperFunction,Plated,PTH,ComponentDrill
T3C0.950
; #@! TA.AperFunction,Plated,PTH,ComponentDrill
T4C1.000
; #@! TA.AperFunction,Plated,PTH,ComponentDrill
T5C1.016
; #@! TA.AperFunction,Plated,PTH,ComponentDrill
T6C1.850
%
G90
G05
T1
X114.3Y-48.26
X114.3Y-62.23
X115.57Y-81.28
X115.57Y-95.25
X119.38Y-64.77
X119.38Y-113.03
X127.0Y-48.26
X127.0Y-59.69
X127.0Y-81.28
X127.0Y-88.9
X127.0Y-113.03
X134.62Y-48.26
X134.62Y-59.69
X134.62Y-88.9
X134.62Y-96.52
X134.62Y-113.03
X140.97Y-62.23
X142.24Y-96.52
X142.24Y-101.6
X142.24Y-113.03
X149.86Y-48.26
X149.86Y-69.85
X149.86Y-92.71
X149.86Y-113.03
X154.94Y-69.85
X154.94Y-92.71
X157.48Y-113.03
X165.1Y-48.26
X165.1Y-64.77
X165.1Y-71.12
X165.1Y-87.63
X165.1Y-95.25
X165.1Y-102.87
X165.1Y-113.03
T2
X148.59Y-95.25
X148.59Y-97.79
X148.59Y-100.33
X148.59Y-102.87
X156.21Y-95.25
X156.21Y-97.79
X156.21Y-100.33
X156.21Y-102.87
T3
X116.84Y-50.86
X116.84Y-53.36
X116.84Y-55.86
X116.84Y-58.36
X116.84Y-64.87
X116.84Y-67.37
X116.84Y-69.87
X116.84Y-72.37
X116.84Y-74.87
X116.84Y-77.37
X116.84Y-83.88
X116.84Y-86.38
X116.84Y-88.88
X116.84Y-91.38
X116.84Y-97.89
X116.84Y-100.39
X116.84Y-102.89
X116.84Y-105.39
X116.84Y-107.89
X116.84Y-110.39
X162.56Y-54.67
X162.56Y-57.17
X162.56Y-59.67
X162.56Y-62.17
X162.56Y-77.53
X162.56Y-80.03
X162.56Y-82.53
X162.56Y-85.03
T4
X143.51Y-49.53
X143.51Y-52.07
X143.51Y-54.61
X143.51Y-57.15
X143.51Y-59.69
X143.51Y-62.23
X143.51Y-64.77
X143.51Y-67.31
X143.51Y-72.39
X143.51Y-74.93
X143.51Y-77.47
X143.51Y-80.01
X143.51Y-82.55
X143.51Y-85.09
X143.51Y-87.63
X143.51Y-90.17
X156.21Y-49.53
X156.21Y-52.07
X156.21Y-54.61
X156.21Y-57.15
X156.21Y-59.69
X156.21Y-62.23
X156.21Y-64.77
X156.21Y-67.31
X156.21Y-72.39
X156.21Y-74.93
X156.21Y-77.47
X156.21Y-80.01
X156.21Y-82.55
X156.21Y-85.09
X156.21Y-87.63
X156.21Y-90.17
X162.56Y-97.81
X162.56Y-100.31
T5
X123.19Y-52.07
X123.19Y-54.61
X123.19Y-57.15
X123.19Y-59.69
X123.19Y-62.23
X123.19Y-64.77
X123.19Y-67.31
X123.19Y-69.85
X123.19Y-72.39
X123.19Y-74.93
X123.19Y-77.47
X123.19Y-80.01
X123.19Y-82.55
X123.19Y-85.09
X123.19Y-87.63
X138.43Y-52.07
X138.43Y-54.61
X138.43Y-57.15
X138.43Y-59.69
X138.43Y-62.23
X138.43Y-64.77
X138.43Y-67.31
X138.43Y-69.85
X138.43Y-72.39
X138.43Y-74.93
X138.43Y-77.47
X138.43Y-80.01
X138.43Y-82.55
X138.43Y-85.09
X138.43Y-87.63
T6
X126.685Y-102.63
X134.935Y-102.63
T0
M30
